<?xml version="1.0" encoding="UTF-8"?> <svg xmlns="http://www.w3.org/2000/svg" width="112" height="38" viewBox="0 0 112 38" fill="none"><path d="M3.41619 17.494C3.352 17.5212 3.20774 17.5036 2.98341 17.4414C2.77809 17.3827 2.56098 17.2825 2.33208 17.1406C2.11858 17.0214 1.95617 16.8921 1.84484 16.7529C1.78329 16.6625 1.72354 16.5626 1.6656 16.4532C1.61126 16.3248 1.60933 16.1277 1.65981 15.8618C1.72929 15.5995 1.87691 15.1847 2.10266 14.6175C2.25076 14.2521 2.42146 13.8712 2.61476 13.475C2.80805 13.0788 2.98104 12.7377 3.1337 12.4518C3.28637 12.166 3.3627 12.023 3.3627 12.023C3.46489 12.0031 3.65194 11.7434 3.92385 11.244C4.21476 10.7483 4.5463 10.1421 4.91848 9.42559C5.04494 9.17409 5.26264 8.75299 5.57154 8.16229C5.88054 7.57149 6.18584 6.99979 6.48754 6.44699C6.76314 5.92869 7.00574 5.53189 7.21534 5.25688C7.42504 4.98182 7.52984 4.8443 7.52984 4.8443C7.52984 4.8443 7.40324 4.88914 7.15004 4.97882C6.89684 5.06851 6.56824 5.19306 6.16404 5.35247C5.75994 5.51189 5.32954 5.70569 4.87297 5.93389C4.51401 6.06249 4.09314 6.25809 3.61036 6.52069C3.15018 6.76779 2.72931 6.96339 2.34775 7.10749C1.75918 7.40899 1.35911 7.59869 1.14753 7.67659C0.954951 7.75809 0.782201 7.73509 0.629291 7.60769C0.422031 7.35189 0.242301 7.00289 0.0901009 6.56079C-0.0394991 6.10319 -0.0292895 5.79029 0.120741 5.62199C0.162331 5.61019 0.302021 5.54819 0.539801 5.43589C0.796581 5.32721 1.08726 5.19545 1.41183 5.04061C1.73641 4.88576 2.02889 4.74451 2.28928 4.61683C2.56865 4.49277 2.76124 4.41126 2.86703 4.3723C2.92401 4.38312 3.0411 4.33648 3.21829 4.23237C3.39549 4.12826 3.58037 4.03545 3.77296 3.95394C3.88956 3.858 4.27064 3.66469 4.91619 3.374C5.56174 3.0833 6.26374 2.75414 7.02234 2.38651C7.80804 2.08307 8.50154 1.85068 9.10284 1.68934C9.70424 1.528 10.041 1.46404 10.1134 1.49746C10.1704 1.50827 10.2907 1.6 10.4744 1.77262C10.6771 1.94885 10.8667 2.14227 11.0431 2.35289C11.2196 2.5635 11.3065 2.72759 11.3039 2.84516C11.3926 2.99976 11.2779 3.29284 10.9599 3.72442C10.8514 3.88094 10.6685 4.17091 10.411 4.59431C10.1571 4.99872 9.86984 5.4755 9.54914 6.02469C9.25094 6.55839 8.95284 7.09219 8.65474 7.62589C8.37924 8.14429 8.14664 8.59209 7.95694 8.96939C7.69314 9.52929 7.46414 9.95809 7.26994 10.2558C7.09464 10.5571 6.92114 10.8488 6.74954 11.1311C6.60044 11.398 6.41074 11.7752 6.18044 12.2628C5.98974 12.5415 5.77344 12.9038 5.53134 13.3498C5.31179 13.7804 5.10178 14.2128 4.90127 14.6471C4.70437 15.0623 4.55038 15.4069 4.4393 15.681C4.20802 16.0701 4.00703 16.455 3.83633 16.8358C3.66563 17.2167 3.52558 17.4361 3.41619 17.494ZM11.9373 20.5287C11.6741 20.3606 11.3723 20.136 11.0321 19.855C10.6883 19.5929 10.3761 19.268 10.0955 18.8802C9.81494 18.4924 9.62294 18.0525 9.51954 17.5606C9.43414 16.9737 9.40404 16.4071 9.42894 15.8609C9.47294 15.3182 9.57114 14.6973 9.72364 13.9981C9.91114 13.0104 10.1398 12.1683 10.4098 11.4718C10.7024 10.7599 11.0728 10.0529 11.5209 9.35079C11.5697 9.30109 11.6669 9.15219 11.8123 8.90429C11.9804 8.64109 12.1615 8.36059 12.3558 8.06289C12.569 7.76889 12.7299 7.54359 12.8383 7.38709C13.0516 7.09299 13.3606 6.70889 13.7655 6.23479C14.193 5.74529 14.6359 5.27834 15.0941 4.83402C15.8 4.12185 16.3916 3.54541 16.8688 3.10469C17.3497 2.64498 17.7953 2.26713 18.2057 1.97116C18.6351 1.67878 19.0912 1.40132 19.574 1.13876C20.0757 0.879806 20.691 0.593196 21.4197 0.278936C21.8953 0.0543664 22.4632 -0.0346037 23.1234 0.0120263C23.8026 0.0622663 24.4286 0.289336 25.0013 0.693246C25.5776 1.07817 25.9456 1.67936 26.1053 2.49682C26.2385 2.93536 26.2379 3.45673 26.1035 4.06094C25.9727 4.64615 25.738 5.26081 25.3992 5.90489C25.0641 6.53009 24.6791 7.10639 24.2444 7.63389C23.8098 8.16139 23.3587 8.56769 22.8913 8.85289C22.6011 9.03399 22.2615 9.00879 21.8725 8.77749C21.5025 8.54989 21.2079 8.28729 20.9889 7.98989C20.8793 7.63459 20.8204 7.42659 20.8122 7.36599C20.823 7.30899 20.8682 7.27819 20.9478 7.27369C21.087 7.16239 21.2822 6.96329 21.5335 6.67639C21.7847 6.38959 22.0396 6.08379 22.298 5.75889C22.5601 5.41511 22.7507 5.13645 22.87 4.92294C23.1734 4.15404 23.377 3.65154 23.4809 3.41544C23.5883 3.16034 23.5728 2.93109 23.4343 2.72769C23.3728 2.63729 23.2642 2.58716 23.1087 2.5773C22.9721 2.57105 22.7262 2.62275 22.3708 2.73239C21.8979 2.8394 21.3016 3.12961 20.582 3.60303C19.885 4.06106 19.1664 4.63306 18.4261 5.31902C17.4752 6.18149 16.6694 6.95339 16.0088 7.63479C15.3481 8.31619 14.8072 9.03999 14.3863 9.80629C14.3338 9.87499 14.2403 10.0049 14.1057 10.1958C13.99 10.3903 13.9322 10.4875 13.9322 10.4875C13.9368 10.5671 13.8722 10.7516 13.7386 11.0411C13.6085 11.3116 13.4761 11.5423 13.3415 11.7332C12.9667 12.5673 12.6828 13.3891 12.4897 14.1986C12.3003 14.9891 12.2143 15.7009 12.2319 16.334C12.2721 16.9516 12.4075 17.43 12.6384 17.769C12.8528 17.9868 13.1554 18.1033 13.5461 18.1184C13.9368 18.1336 14.3989 18.0835 14.9324 17.9684C15.4659 17.8532 16.0411 17.7262 16.6578 17.5875C17.1497 17.4841 17.6072 17.3545 18.0304 17.1987C18.4535 17.0429 18.7763 16.8975 18.9987 16.7627C19.1723 16.6775 19.3839 16.5996 19.6334 16.5289C19.9056 16.4429 20.1271 16.416 20.2981 16.4485C20.582 16.404 20.767 16.5179 20.8531 16.79C20.9392 17.0622 20.9462 17.3882 20.8741 17.7681C20.8236 18.034 20.5723 18.3208 20.1203 18.6286C19.6683 18.9364 19.1892 19.1799 18.6828 19.3593C18.502 19.4824 18.266 19.5852 17.9749 19.6677C17.7063 19.7348 17.4301 19.7905 17.1461 19.835C16.6895 20.0632 16.1398 20.2639 15.4969 20.437C14.854 20.6101 14.2142 20.7149 13.5775 20.7515C12.9599 20.7917 12.4131 20.7174 11.9373 20.5287ZM28.0485 13.9055C27.6244 13.9627 27.2794 13.9661 27.0135 13.9156C26.7512 13.8461 26.4802 13.6668 26.2006 13.3776C25.8928 12.9255 25.8415 12.5222 26.0466 12.1676C26.2552 11.794 26.6711 11.4695 27.294 11.1942C27.7172 11.0384 28.0142 10.9767 28.1852 11.0092C28.3787 11.0262 28.6415 11.145 28.9735 11.3655C29.5246 11.8833 29.7153 12.382 29.5456 12.8614C29.3984 13.3254 28.8994 13.6735 28.0485 13.9055ZM24.9182 19.51C24.4941 19.5672 24.1491 19.5706 23.8832 19.5201C23.6209 19.4506 23.3499 19.2713 23.0703 18.982C22.7625 18.53 22.7112 18.1267 22.9163 17.7721C23.125 17.3984 23.5408 17.074 24.1637 16.7987C24.5869 16.6429 24.8839 16.5812 25.0549 16.6136C25.2484 16.6307 25.5112 16.7495 25.8433 16.9699C26.3943 17.4878 26.585 17.9865 26.4153 18.4659C26.2681 18.9299 25.7691 19.278 24.9182 19.51ZM28.6092 23.4282C28.3813 23.3849 28.2148 23.2254 28.1097 22.9496C28.0174 22.814 27.9282 22.6101 27.8421 22.338C27.756 22.0658 27.7843 21.6579 27.9268 21.1143C28.092 20.5553 28.4578 19.7687 29.0242 18.7546C29.3512 18.0689 29.6023 17.5754 29.7776 17.2741C29.9565 16.9539 30.0603 16.7178 30.0892 16.5658C30.1288 16.3569 30.1803 16.1895 30.2435 16.0638C30.3293 15.9226 30.3849 15.7856 30.4101 15.6526C30.5241 15.6743 30.6579 15.5915 30.8115 15.4042C30.9651 15.2169 31.1142 14.95 31.2587 14.6035C31.396 14.295 31.5111 14.0512 31.6042 13.8721C31.7198 13.6776 31.7849 13.5424 31.7993 13.4664C31.9231 13.3325 32.0632 13.1131 32.2194 12.8082C32.3947 12.5069 32.6396 12.15 32.954 11.7374C33.2142 11.1965 33.4969 10.6401 33.8022 10.0683C34.1112 9.47759 34.4111 8.93429 34.702 8.43859C35.0155 7.92739 35.2676 7.53249 35.4583 7.25379C35.779 6.70469 36.018 6.32699 36.1752 6.12069C36.3361 5.89539 36.3667 5.73389 36.2672 5.63629C36.1522 5.51609 36.1308 5.26606 36.203 4.88618C36.2977 4.49091 36.543 4.18327 36.939 3.96327C37.1948 3.75602 37.4932 3.63556 37.8341 3.60189C38.1787 3.54923 38.5599 3.56256 38.9777 3.6419C39.3956 3.72123 39.8289 3.82316 40.2775 3.9477C40.6158 4.0316 40.9749 4.10961 41.3548 4.18173C41.7536 4.25746 42.0006 4.30434 42.0955 4.32237C42.252 4.4308 42.4448 4.55594 42.6736 4.69779C42.9025 4.83964 43.1029 4.97608 43.2749 5.10711C43.4694 5.22275 43.5612 5.30907 43.5504 5.36605C43.5288 5.48001 43.5523 5.56319 43.6211 5.61559C43.7124 5.65259 43.8038 5.68969 43.8952 5.72669C44.0281 5.75189 44.2231 5.91689 44.4801 6.22149C44.7408 6.50709 44.9906 6.84969 45.2296 7.24929C45.4912 7.63349 45.6578 7.99969 45.7295 8.34779C45.8201 8.69959 45.8859 9.02689 45.9268 9.32989C45.9866 9.63639 45.9186 10.0466 45.7227 10.5604C45.6496 10.8417 45.548 11.1176 45.4179 11.3881C45.3069 11.6622 45.2043 11.8395 45.1103 11.92C44.9819 11.9744 44.8594 12.0495 44.7428 12.1454C44.6262 12.2414 44.5589 12.3368 44.5409 12.4318C44.5264 12.5078 44.4144 12.6833 44.2048 12.9583C43.9987 13.2144 43.7457 13.5107 43.4456 13.8474C43.1492 14.165 42.8337 14.479 42.4993 14.7894C42.1649 15.0998 41.8639 15.3378 41.5963 15.5035C41.2916 15.7605 40.9431 15.9895 40.5508 16.1905C40.1774 16.3951 39.8415 16.5577 39.5431 16.6781C39.006 16.8123 38.3947 16.9226 37.7093 17.0089C37.0428 17.0988 36.4025 17.1544 35.7885 17.1755C35.178 17.1777 34.6941 17.1351 34.3369 17.0475C33.7716 17.0189 33.3963 17.0264 33.2109 17.0699C33.0292 17.0945 32.875 17.2325 32.7486 17.484C32.6067 17.7128 32.4631 17.9512 32.3176 18.1991C32.1912 18.4506 32.1171 18.6333 32.0955 18.7473C32.0431 18.8161 31.9179 19.0088 31.7201 19.3254C31.5412 19.6457 31.323 20.0175 31.0655 20.4409C30.827 20.8679 30.598 21.2967 30.3785 21.7274C30.159 22.158 29.9806 22.5275 29.8433 22.836C29.7169 23.0875 29.5176 23.2563 29.2454 23.3423C28.9922 23.432 28.7802 23.4606 28.6092 23.4282ZM34.4616 14.6803C34.5231 14.7707 34.7683 14.827 35.197 14.8494C35.6256 14.8717 36.156 14.8248 36.7881 14.7087C37.1932 14.6479 37.6038 14.5585 38.0197 14.4407C38.4547 14.3265 38.8742 14.1897 39.2784 14.0303C39.4935 13.9334 39.7236 13.8098 39.9686 13.6595C40.2172 13.4903 40.5765 13.2043 41.0466 12.8015C41.1216 12.7174 41.2508 12.555 41.4343 12.3143C41.6403 12.0582 41.8237 11.8176 41.9846 11.5923C42.206 11.3588 42.4509 11.0019 42.7192 10.5215C42.9911 10.0221 43.112 9.59249 43.082 9.23249C43.0808 8.72069 42.9684 8.27619 42.7448 7.89919C42.5248 7.50329 42.2107 7.18779 41.8027 6.95289C41.3993 6.79759 41.0569 6.68339 40.7756 6.61029C40.5133 6.54089 40.2153 6.50399 39.8816 6.49959C39.5596 6.53689 39.316 6.62839 39.1505 6.77409C39.0041 6.92339 38.7647 7.25179 38.4322 7.75939C38.2487 8.00009 37.9885 8.33439 37.6514 8.76239C37.3179 9.17139 37.0206 9.59699 36.7595 10.0394C36.1796 11.2281 35.6936 12.1296 35.3015 12.7439C34.9284 13.3619 34.684 13.7681 34.5683 13.9626C34.5477 14.1751 34.5093 14.3253 34.4533 14.413C34.4009 14.4818 34.4036 14.5709 34.4616 14.6803ZM43.0416 24.2791C42.7946 24.2322 42.6042 24.1468 42.4703 24.023C42.3554 23.9028 42.2097 23.7374 42.0332 23.5268C41.7444 23.0784 41.5275 22.6141 41.3826 22.134C41.2566 21.6574 41.2527 21.2631 41.371 20.9511C41.4568 20.8099 41.5029 20.6711 41.5091 20.5345C41.538 20.3826 41.5524 20.3066 41.5524 20.3066C41.4754 20.1936 41.4578 20.1312 41.4994 20.1194C41.5446 20.0886 41.5934 20.0389 41.6458 19.9701C41.7598 19.9917 41.8176 19.8945 41.8193 19.6783C41.8101 19.5192 41.9284 19.2071 42.1741 18.7421C42.4424 18.2617 42.7623 17.8206 43.1338 17.4189C43.2838 17.2506 43.5016 17.0361 43.7872 16.7755C44.0765 16.4958 44.3829 16.2293 44.7065 15.9759C45.0527 15.7071 45.3578 15.4993 45.6218 15.3527C46.1724 15.044 46.6706 14.804 47.1163 14.6328C47.5811 14.4652 48.0314 14.3736 48.4673 14.358C48.9032 14.3423 49.3396 14.376 49.7764 14.4589C50.2323 14.5455 50.5738 14.7677 50.801 15.1257C51.2018 15.3986 51.4571 15.7127 51.5667 16.0681C51.6953 16.427 51.7395 16.8683 51.6991 17.392C51.6479 17.9726 51.4575 18.6646 51.1279 19.4679C50.8019 20.2522 50.1562 21.1135 49.1909 22.052C48.5862 22.6456 48.0199 23.0891 47.4919 23.3824C46.9639 23.6757 46.3939 23.9316 45.7817 24.1499C45.3324 24.3401 44.8744 24.4204 44.4077 24.3908C43.941 24.3613 43.4856 24.324 43.0416 24.2791ZM46.6076 21.3549C47.094 21.0733 47.4641 20.7303 47.718 20.3259C47.9909 19.9251 48.2877 19.4502 48.6084 18.901C48.706 18.8015 48.7895 18.6205 48.859 18.3582C48.9475 18.0995 49.0057 17.8449 49.0336 17.5944C49.065 17.3249 49.0274 17.1603 48.9207 17.1007C48.775 16.9352 48.6094 16.8743 48.4241 16.9178C48.2423 16.9423 48.0004 17.0243 47.6984 17.1638C47.0385 17.5305 46.4021 17.9803 45.7892 18.5134C45.199 19.031 44.7241 19.7182 44.3647 20.5748C44.2176 21.0389 44.1965 21.4088 44.3016 21.6846C44.4293 21.9449 44.6826 22.0619 45.0615 22.0354C45.463 21.9936 45.9784 21.7667 46.6076 21.3549ZM46.8491 34.5067C46.4313 34.4274 46.0676 34.2698 45.7582 34.034C45.4297 33.7945 45.0909 33.4547 44.7415 33.0144C44.6518 32.7613 44.5544 32.4968 44.4494 32.221C44.3217 31.9606 44.194 31.7002 44.0663 31.4399C44.0815 31.0492 44.1446 30.7168 44.2557 30.4427C44.3441 30.184 44.5371 29.9451 44.8345 29.7261C45.3723 29.2772 45.983 28.911 46.6665 28.6275C47.3465 28.363 48.0916 28.1699 48.9018 28.0483C49.004 28.0283 49.127 28.0025 49.2707 27.9707C49.4145 27.939 49.5529 27.9357 49.6858 27.961C49.7916 27.922 49.9087 27.8754 50.0371 27.821C50.1655 27.7667 50.2926 27.7711 50.4183 27.8344C50.4743 27.7466 50.5421 27.7004 50.6217 27.6959C50.6977 27.7103 50.7701 27.7437 50.8388 27.7961C50.903 27.769 50.9749 27.7531 51.0545 27.7485C51.1531 27.7476 51.2724 27.7407 51.4126 27.728C51.5528 27.7152 51.7137 27.6966 51.8955 27.672C52.0963 27.6511 52.3273 27.6261 52.5887 27.597C52.7457 26.9774 52.8263 26.5008 52.8306 26.1671C52.8576 25.818 52.8 25.5512 52.6579 25.3668C52.4732 25.0956 52.3699 24.8103 52.3481 24.511C52.3488 24.1963 52.3002 23.882 52.2023 23.5683C52.2709 23.2074 52.3978 23.0052 52.5832 22.9616C52.7875 22.9217 53.0525 22.8736 53.378 22.8174C53.8962 22.6796 54.459 22.4618 55.0666 22.1639C55.6741 21.8659 56.2604 21.5246 56.8254 21.1399C57.4094 20.7589 57.8948 20.3787 58.2817 19.9996C58.5519 19.7163 58.6286 19.416 58.5117 19.0987C58.3985 18.7623 58.1555 18.5391 57.7829 18.429C57.5359 18.3821 57.1724 18.4311 56.6923 18.5761C56.2347 18.7057 55.6986 18.9385 55.0838 19.2744C54.6335 19.366 54.2957 19.3314 54.0704 19.1705C53.8487 18.9907 53.7124 18.6204 53.6614 18.0597C53.7977 17.6527 53.9296 17.3727 54.057 17.2198C54.188 17.0479 54.3327 16.9081 54.4909 16.8003C54.6681 16.6962 54.8543 16.5446 55.0495 16.3456C55.2421 16.2641 55.427 16.1712 55.6042 16.0671C55.8003 15.9666 56.0024 15.8869 56.2104 15.828C56.3388 15.7737 56.4731 15.7401 56.6132 15.7274C56.7534 15.7146 56.8995 15.7227 57.0514 15.7515C57.1464 15.7696 57.2545 15.7704 57.3756 15.7541C57.5004 15.7187 57.6483 15.7173 57.8192 15.7497C58.8377 15.9824 59.5692 16.5346 60.0138 17.4061C60.4312 18.2135 60.5524 18.9744 60.3774 19.689C60.2213 20.4072 59.7064 21.254 58.8324 22.2294C58.611 22.4629 58.3213 22.6932 57.9633 22.9204C57.6053 23.1476 57.2093 23.3676 56.7753 23.5804C56.3639 23.7778 55.9752 23.9598 55.609 24.1265C55.2464 24.2741 54.9576 24.3964 54.7424 24.4933C54.8285 24.7654 54.9019 25.1041 54.9628 25.5092C55.0272 25.8953 55.069 26.2968 55.0883 26.7138C55.1301 27.1153 55.1204 27.4775 55.0591 27.8004C55.2183 27.7912 55.3964 27.7857 55.5936 27.7838C55.7871 27.8008 55.9504 27.822 56.0833 27.8472C56.3132 28.0877 56.5317 28.3358 56.739 28.5916C56.9652 28.851 57.0459 29.1517 56.981 29.4936C56.9938 29.6337 56.9215 29.807 56.7643 30.0133C56.607 30.2196 56.3918 30.3165 56.1187 30.304C55.8646 30.2951 55.5494 30.2451 55.1731 30.1539C54.7968 30.0628 54.4536 30.0567 54.1435 30.1356C53.9184 30.388 53.6772 30.726 53.4197 31.1494C53.1586 31.5918 52.8143 32.0577 52.3868 32.5472C51.9557 33.0558 51.3442 33.53 50.5522 33.97C50.1978 34.1782 49.8638 34.3313 49.55 34.4291C49.2326 34.546 48.9885 34.5882 48.8175 34.5557C48.4196 34.5786 48.0538 34.5879 47.7201 34.5835C47.4054 34.5828 47.1151 34.5572 46.8491 34.5067ZM47.2007 32.6548C47.3753 32.6683 47.5516 32.6722 47.7298 32.6667C47.927 32.6648 48.1295 32.6344 48.3375 32.5755C48.5455 32.5165 48.7475 32.4368 48.9437 32.3363C49.2493 32.1779 49.6014 31.9299 50 31.5923C50.4141 31.2773 50.6725 30.9525 50.7754 30.6178C50.8124 30.5265 50.8382 30.4428 50.8526 30.3668C50.886 30.2944 50.9176 30.2316 50.9474 30.1782C50.7729 30.1647 50.5906 30.14 50.4007 30.1039C50.2107 30.0678 50.0362 30.0544 49.877 30.0635C49.2106 30.1535 48.5826 30.2999 47.993 30.5028C47.4225 30.7094 47.0093 30.9163 46.7535 31.1235C46.5881 31.2692 46.4322 31.4167 46.2858 31.566C46.1203 31.7118 45.9644 31.8593 45.818 32.0086C45.9709 32.136 46.1636 32.2611 46.3961 32.384C46.625 32.5258 46.8932 32.6161 47.2007 32.6548ZM67.8885 29.2915C67.7365 29.2626 67.6207 29.2505 67.5412 29.2551C67.4616 29.2596 67.3512 29.219 67.2101 29.1332C67.0843 29.0699 66.827 28.9227 66.4379 28.6914C66.3093 28.3324 66.2566 27.9879 66.2799 27.6578C66.3259 27.3123 66.4098 26.974 66.5317 26.6429C66.6761 26.2965 66.8473 25.9649 67.0452 25.6483C67.2431 25.3316 67.4278 25.0322 67.5995 24.7499C67.5769 24.7653 67.5466 24.7694 67.5086 24.7622C67.4706 24.7549 67.4308 24.7572 67.3892 24.769C67.2111 24.7745 67.0329 24.7801 66.8548 24.7856C66.6802 24.7721 66.4944 24.7664 66.2972 24.7683C65.9825 24.7676 65.6773 24.7687 65.3815 24.7716C65.0894 24.7555 64.7842 24.7566 64.4658 24.7748C64.4161 24.726 64.3568 24.6754 64.288 24.623C64.2383 24.5742 64.1867 24.5349 64.1333 24.5051C64.0367 24.7032 63.9459 24.9221 63.8611 25.1618C63.7762 25.4015 63.6818 25.6394 63.578 25.8755C63.4931 26.1153 63.3892 26.3514 63.2664 26.5839C63.1661 26.801 63.0392 27.0032 62.8855 27.1905C62.4569 27.1681 62.1493 27.1294 61.963 27.0744C61.7767 27.0193 61.4967 26.8874 61.1231 26.6787C61.0108 26.441 60.9365 26.2104 60.9002 25.987C60.8865 25.7483 60.9012 25.515 60.9445 25.287C61.0311 24.8312 61.2126 24.3933 61.4891 23.9735C61.7692 23.5348 62.0248 23.1208 62.2561 22.7318C62.3718 22.5373 62.4648 22.3582 62.5353 22.1945C62.6283 22.0153 62.6929 21.8308 62.7289 21.6409C62.7741 21.6101 62.864 21.4992 62.9987 21.3083C63.1369 21.0984 63.3014 20.8542 63.492 20.5755C63.7423 20.1901 64.0075 19.778 64.2876 19.3392C64.5677 18.9004 64.8103 18.5037 65.0153 18.1491C65.224 17.7754 65.3505 17.5239 65.3947 17.3946C65.5003 16.9423 65.7715 16.7577 66.2083 16.8406C66.4968 16.8757 66.7827 17.0284 67.0659 17.2986C67.3492 17.5688 67.5474 17.8721 67.6607 18.2085C67.7739 18.5449 67.7085 18.8375 67.4645 19.0863C67.3226 19.3152 67.1808 19.5441 67.0389 19.773C66.8971 20.0019 66.7534 20.2403 66.608 20.4882C66.4661 20.7171 66.3243 20.9459 66.1824 21.1748C66.0406 21.4037 65.8987 21.6326 65.7569 21.8615C65.7235 21.9339 65.6919 21.9968 65.6621 22.0501C65.6322 22.1035 65.5911 22.1646 65.5387 22.2333C65.6563 22.236 65.7739 22.2386 65.8914 22.2413C66.0316 22.2285 66.1546 22.2027 66.2604 22.1637C66.4503 22.1998 66.7257 22.2521 67.0866 22.3206C67.4665 22.3927 67.8084 22.4576 68.1123 22.5153C68.2842 22.6464 68.4163 22.7797 68.5086 22.9153C68.7553 22.5488 69.002 22.1824 69.2487 21.816C69.4989 21.4306 69.7302 21.0416 69.9425 20.6489C70.1774 20.2409 70.3726 19.8352 70.5278 19.4318C70.6353 19.1767 70.7925 18.9704 70.9995 18.8129C71.2065 18.6554 71.4366 18.5318 71.6898 18.4421C72.0788 18.6734 72.4204 18.8957 72.7144 19.1089C73.0275 19.3258 73.1846 19.6902 73.1858 20.202C73.0774 20.3586 72.9956 20.53 72.9406 20.7163C72.8855 20.9027 72.8038 21.0741 72.6953 21.2306C72.333 21.7915 71.9576 22.3697 71.5691 22.965C71.1842 23.5413 70.8164 24.1307 70.4659 24.7332C70.138 25.3204 69.8444 25.9337 69.5852 26.5733C69.5076 26.775 69.4109 26.9731 69.2953 27.1676C69.1796 27.3621 69.0622 27.5661 68.943 27.7796C68.8463 27.9778 68.7592 28.1777 68.6815 28.3794C68.6228 28.5847 68.528 28.7733 68.397 28.9453C68.2695 29.0982 68.1 29.2136 67.8885 29.2915ZM81.1749 31.8139C80.6257 31.4932 80.2117 31.0309 79.9328 30.4269C79.6765 29.8076 79.5282 29.1891 79.4881 28.5714C79.3977 28.633 79.3073 28.6945 79.2169 28.7561C79.1491 28.8022 79.0587 28.8638 78.9457 28.9407C78.6031 29.1905 78.2112 29.4408 77.77 29.6916C77.3288 29.9424 76.8871 30.1439 76.445 30.2961C76.0064 30.4293 75.5913 30.439 75.1997 30.3253C74.9354 30.0587 74.6789 29.8034 74.43 29.5593C74.2038 29.2999 74.0489 28.9753 73.9655 28.5856C73.9691 28.5666 73.9614 28.5553 73.9424 28.5517C73.9424 28.5517 73.9442 28.5422 73.9478 28.5232C73.8788 28.0575 73.8388 27.6465 73.8277 27.2902C73.8392 26.9185 73.9484 26.4472 74.1552 25.8764C74.3809 25.3092 74.758 24.515 75.2865 23.4936C75.506 23.063 75.735 22.6342 75.9735 22.2072C76.2156 21.7612 76.4486 21.3627 76.6727 21.0116C76.9004 20.6416 77.106 20.3363 77.2894 20.0956C77.4728 19.8549 77.6288 19.7074 77.7572 19.6531C77.8521 19.6711 77.9376 19.6873 78.0136 19.7017C78.0932 19.6972 78.1709 19.7021 78.2469 19.7165C78.4179 19.749 78.6088 19.8836 78.8196 20.1204C78.9535 20.2443 79.0762 20.3758 79.1875 20.515C79.3178 20.6578 79.3929 20.7803 79.4129 20.8825C79.4872 21.113 79.3699 21.5237 79.0609 22.1144C78.752 22.7052 78.3942 23.3457 77.9877 24.036C77.6037 24.7109 77.2406 25.3799 76.8982 26.043C76.5785 26.6907 76.4205 27.2117 76.4244 27.606C76.6441 27.5887 76.8467 27.5583 77.0321 27.5148C77.24 27.4559 77.4326 27.3744 77.6098 27.2703C77.976 27.1036 78.3209 26.8936 78.6445 26.6402C78.9681 26.3868 79.2555 26.1166 79.5068 25.8298C79.7806 25.5276 80.0016 25.2448 80.1696 24.9815C80.4235 24.5771 80.6476 24.2261 80.8418 23.9284C81.0397 23.6118 81.1983 23.3467 81.3175 23.1332C81.4404 22.9007 81.5275 22.7008 81.579 22.5335C81.6494 22.3697 81.6973 22.2214 81.7225 22.0884C81.7684 21.7429 81.8533 21.5032 81.9771 21.3693C82.1235 21.22 82.3649 21.0887 82.7013 20.9754C82.8532 21.0043 83.0034 21.0426 83.1517 21.0905C83.3037 21.1193 83.4443 21.1559 83.5737 21.2001C83.7004 21.3619 83.8235 21.5427 83.943 21.7425C84.0851 21.9269 84.2177 22.1095 84.3408 22.2903C84.4098 22.756 84.2916 23.2748 83.9863 23.8465C83.7036 24.4029 83.3964 24.9841 83.0649 25.5903C82.7297 26.2154 82.4326 26.8477 82.1734 27.4873C81.9368 28.1114 81.9236 28.6993 82.1338 29.2508C82.4439 29.172 82.7387 29.0705 83.0181 28.9464C83.3011 28.8034 83.584 28.6603 83.867 28.5172C84.15 28.3742 84.4294 28.2501 84.7052 28.145C84.973 28.3927 85.1473 28.7701 85.2281 29.2775C85.3089 29.7848 85.3168 30.2094 85.2519 30.5512C85.1805 30.6164 85.1014 30.6703 85.0146 30.7128C84.9468 30.759 84.8695 30.8033 84.7827 30.8459C84.5767 31.102 84.2454 31.3441 83.7888 31.5723C83.3359 31.7814 82.8671 31.9187 82.3823 31.9841C81.8976 32.0496 81.4951 31.9928 81.1749 31.8139ZM96.7654 31.0546C96.8844 31.2544 97.0324 31.4103 97.2074 31.5223C97.3874 31.6153 97.5174 31.8074 97.6004 32.0986C97.6514 32.246 97.6564 32.4242 97.6164 32.6331C97.5994 32.8266 97.5484 33.0433 97.4634 33.283C97.3354 33.7506 97.1324 34.2531 96.8534 34.7905C96.5734 35.3278 96.2844 35.8141 95.9854 36.2493C95.6864 36.6845 95.4314 36.9903 95.2211 37.1668C94.9843 37.3777 94.7632 37.4538 94.5579 37.3951C94.3526 37.3364 94.1391 37.2172 93.9174 37.0374C93.6387 36.8467 93.4627 36.6854 93.3894 36.5534C93.316 36.4214 93.2825 36.2871 93.2887 36.1505C93.3104 36.0366 93.3012 35.8774 93.2613 35.6731C93.2685 35.6351 93.2645 35.6048 93.2491 35.5822C93.2491 35.5822 93.2509 35.5727 93.2545 35.5537C93.3105 35.4659 93.4035 35.2868 93.5336 35.0163C93.6791 34.7684 93.8412 34.4844 94.0201 34.1641C94.1954 33.8628 94.3462 33.5865 94.4727 33.335C94.4953 33.3196 94.5179 33.3042 94.5405 33.2888C94.5631 33.2734 94.5572 33.2526 94.5228 33.2264C93.8148 33.3281 93.1252 33.3842 92.4542 33.3945C91.8057 33.3895 91.1301 33.3202 90.4273 33.1868C89.8955 33.0858 89.3714 32.9962 88.8549 32.9178C88.3611 32.8241 87.9336 32.5363 87.5724 32.0545C87.5227 32.0056 87.4652 31.9455 87.4 31.8741C87.354 31.8063 87.3077 31.7385 87.2616 31.6707C87.0851 31.4601 86.9656 31.2603 86.9031 31.0713C86.8442 30.8634 86.8322 30.6151 86.8673 30.3266C86.8988 30.0571 87.0202 29.6767 87.2316 29.1855C87.4655 28.6789 87.7333 28.1493 88.0351 27.5965C88.3368 27.0438 88.6182 26.5462 88.8793 26.1038C89.1594 25.665 89.365 25.3596 89.496 25.1877C89.6008 25.0502 89.6699 24.9452 89.7033 24.8729C89.7594 24.7851 89.7959 24.6445 89.813 24.4509C90.3256 24.135 90.6577 23.7848 90.8094 23.4003C90.9611 23.0159 91.1634 22.5722 91.4164 22.0692C91.5637 22.0185 91.7034 21.9564 91.8354 21.8831C91.9674 21.8098 92.1071 21.7477 92.2545 21.697L92.4893 21.8596C92.9651 22.0484 93.265 22.2824 93.3891 22.5618C93.5322 22.8448 93.573 23.1477 93.5117 23.4706C93.4865 23.6036 93.4386 23.7519 93.3682 23.9157C93.3204 24.064 93.2535 24.2087 93.1677 24.3499C92.9852 24.6891 92.7611 25.0402 92.4955 25.403C92.2298 25.7658 91.979 26.1019 91.7432 26.4114C91.5073 26.7208 91.3262 27.0013 91.1997 27.2527C91.1257 27.4355 91.0064 27.649 90.842 27.8933C90.6965 28.1411 90.5361 28.4157 90.3609 28.717C90.1486 29.1096 89.9381 29.4927 89.7294 29.8664C89.5243 30.221 89.4038 30.4933 89.3677 30.6832C89.3939 30.6489 89.4563 30.6312 89.5549 30.6302C89.6724 30.6329 89.809 30.6391 89.9646 30.649C90.1427 30.6434 90.3286 30.6492 90.5221 30.6663C90.8712 30.6932 91.2108 30.7183 91.541 30.7416C91.8901 30.7685 92.127 30.7643 92.2518 30.729C92.2915 30.5201 92.365 30.288 92.4725 30.0329C92.5836 29.7588 92.7154 29.4789 92.8681 29.193C93.0352 28.8311 93.21 28.4806 93.3925 28.1413C93.5939 27.8057 93.7561 27.5216 93.8789 27.2891C93.972 27.11 94.0872 26.8662 94.2244 26.5577C94.3807 26.2529 94.5519 25.9213 94.738 25.5631C94.943 25.2084 95.1463 24.8633 95.3478 24.5276C95.5684 24.1956 95.7704 23.9092 95.9534 23.6686C96.1594 23.4125 96.3474 23.2514 96.5174 23.1853C96.9104 23.3976 97.2504 23.6293 97.5374 23.8806C97.8274 24.1128 98.0604 24.4423 98.2344 24.8691C98.0484 25.2273 97.8434 25.582 97.6194 25.933C97.4144 26.2877 97.2284 26.6459 97.0614 27.0078C96.9244 27.3162 96.7774 27.6229 96.6214 27.9278C96.4644 28.2326 96.2994 28.5357 96.1234 28.837C95.9674 29.1418 95.8114 29.4467 95.6544 29.7516C95.4984 30.0564 95.3328 30.3595 95.1575 30.6608C95.1919 30.687 95.2358 30.715 95.2891 30.7448C95.3425 30.7746 95.3864 30.8026 95.4204 30.8288C95.5264 30.7899 95.6385 30.7717 95.7554 30.7744C95.8734 30.777 95.9964 30.8004 96.1264 30.8447C96.2364 30.8853 96.3474 30.9259 96.4574 30.9666C96.5674 31.0072 96.6704 31.0365 96.7654 31.0546ZM101.506 35.054C101.267 35.0677 101.023 34.9526 100.774 34.7085C100.526 34.4645 100.314 34.1784 100.14 33.8502C99.9674 33.522 99.8734 33.2386 99.8594 32.9998C99.8594 32.5865 99.9704 32.1058 100.192 31.5576C100.437 30.994 100.772 30.4182 101.199 29.8301C101.629 29.223 102.131 28.6493 102.706 28.1091C103.285 27.5498 103.908 27.0679 104.575 26.6632C105.242 26.2585 105.935 25.9769 106.654 25.8182C106.968 25.7203 107.185 25.6632 107.306 25.6468C107.431 25.6115 107.545 25.6331 107.648 25.7118C107.755 25.7714 107.936 25.9042 108.192 26.1103C108.444 26.2367 108.692 26.3822 108.936 26.5466C109.203 26.6957 109.414 26.9325 109.569 27.2571C109.666 27.5708 109.726 27.8774 109.748 28.1767C109.77 28.4761 109.775 28.8116 109.764 29.1833C109.826 29.687 109.823 30.0112 109.756 30.1559C109.693 30.2817 109.616 30.3753 109.526 30.4369C109.338 30.598 109.282 30.6857 109.358 30.7002C109.358 30.7002 109.341 30.7364 109.308 30.8087C109.297 30.8657 109.241 30.9535 109.14 31.072C108.927 31.4646 108.747 31.8437 108.599 32.2091C108.473 32.5592 108.422 32.8839 108.444 33.1832C108.516 33.6299 108.669 33.9147 108.901 34.0376C109.153 34.164 109.527 34.058 110.024 33.7195C110.262 33.6072 110.517 33.5573 110.791 33.5698C111.067 33.5633 111.191 33.636 111.162 33.788C111.162 33.788 111.186 33.8219 111.232 33.8897C111.281 33.9385 111.344 33.9701 111.42 33.9845C111.515 34.0026 111.535 34.1047 111.48 34.2911C111.429 34.4584 111.353 34.6506 111.253 34.8677C111.152 35.0849 111.04 35.2604 110.917 35.3943C110.578 35.6251 110.399 35.788 110.381 35.883C110.381 35.883 110.336 35.9138 110.245 35.9753C110.178 36.0215 110.055 36.0966 109.878 36.2007C109.496 36.3447 109.04 36.3663 108.508 36.2653C107.995 36.1679 107.616 35.9877 107.371 35.7247C107.125 35.4617 106.889 35.1512 106.662 34.7932C106.454 34.4388 106.337 34.1214 106.311 33.8411L106.223 33.5291L105.294 33.9136C105.045 34.0829 104.863 34.2155 104.746 34.3114C104.633 34.3883 104.532 34.4576 104.441 34.5191C104.37 34.5843 104.291 34.6382 104.204 34.6807C104.136 34.7269 104.064 34.7427 103.988 34.7283C103.912 34.7139 103.846 34.7013 103.789 34.6905C103.732 34.6796 103.703 34.6742 103.703 34.6742C103.689 34.7502 103.536 34.8294 103.245 34.9119C102.957 34.9754 102.643 35.024 102.302 35.0576C101.961 35.0913 101.696 35.0901 101.506 35.054ZM102.558 32.7744C102.672 32.796 102.856 32.762 103.109 32.6723C103.385 32.5672 103.685 32.4373 104.01 32.2824C104.334 32.1276 104.63 31.9673 104.898 31.8017C105.185 31.6396 105.397 31.5029 105.537 31.3916C105.627 31.33 105.736 31.2228 105.863 31.0699C106.01 30.9206 106.162 30.7921 106.32 30.6844C106.851 30.2735 107.2 29.9364 107.368 29.6731C107.54 29.3908 107.554 29.0589 107.41 28.6773C107.374 28.454 107.3 28.322 107.19 28.2814C107.079 28.2407 106.829 28.2621 106.44 28.3456C106.187 28.4353 105.898 28.6068 105.574 28.8602C105.251 29.1137 104.911 29.4033 104.554 29.729C104.215 30.0584 103.895 30.4009 103.591 30.7565C103.287 31.1121 103.029 31.437 102.816 31.731C102.621 32.0287 102.506 32.2725 102.47 32.4624C102.456 32.5384 102.462 32.6085 102.489 32.6727C102.535 32.7405 102.558 32.7744 102.558 32.7744Z" fill="#5E8BDC"></path></svg> 