<?xml version="1.0" encoding="UTF-8"?> <svg xmlns="http://www.w3.org/2000/svg" width="77" height="24" viewBox="0 0 77 24" fill="none"><path d="M6.11969 21.8254C6.06245 21.8652 5.91767 21.8777 5.68534 21.8629C5.47233 21.8477 5.23925 21.7942 4.98609 21.7024C4.75263 21.6296 4.56712 21.5365 4.42955 21.4232C4.35073 21.3474 4.27172 21.2619 4.19253 21.1667C4.11295 21.0523 4.07054 20.8597 4.06528 20.5891C4.07934 20.3181 4.13854 19.8819 4.24288 19.2804C4.31268 18.8923 4.40144 18.4845 4.50915 18.057C4.61686 17.6295 4.71604 17.2602 4.80667 16.949C4.89731 16.6379 4.94263 16.4823 4.94263 16.4823C5.03852 16.4417 5.1682 16.1492 5.33164 15.6046C5.51442 15.0596 5.71427 14.3982 5.9312 13.6205C6.00326 13.3484 6.12973 12.8915 6.31063 12.2499C6.49153 11.6083 6.6728 10.9859 6.85445 10.383C7.01752 9.81899 7.17337 9.38089 7.322 9.06859C7.47062 8.75634 7.54494 8.6002 7.54494 8.6002C7.54494 8.6002 7.43027 8.67011 7.20095 8.80993C6.97162 8.94975 6.67558 9.13919 6.31283 9.37829C5.95007 9.61739 5.56874 9.89549 5.16883 10.2127C4.84398 10.4124 4.47231 10.6903 4.05382 11.0465C3.65428 11.383 3.28262 11.661 2.93881 11.8804C2.4248 12.2964 2.07228 12.5643 1.88123 12.6841C1.70952 12.8034 1.53574 12.8165 1.3599 12.7232C1.10448 12.5155 0.85684 12.2109 0.616994 11.8095C0.396101 11.3883 0.341765 11.08 0.453986 10.8845C0.49227 10.8644 0.616222 10.7749 0.825842 10.6162C1.0548 10.457 1.31218 10.2683 1.59799 10.0501C1.8838 9.83179 2.141 9.63339 2.36957 9.45499C2.61747 9.27609 2.78919 9.15669 2.88471 9.09689C2.9427 9.09569 3.0477 9.02599 3.1997 8.88771C3.35171 8.74939 3.51357 8.62056 3.68528 8.5012C3.77968 8.38334 4.11287 8.11581 4.68487 7.69862C5.25687 7.28142 5.87626 6.81496 6.54303 6.29924C7.24959 5.84076 7.88051 5.47076 8.43581 5.18925C8.99112 4.90773 9.30761 4.77589 9.38531 4.79372C9.4433 4.79259 9.57992 4.85762 9.79518 4.98879C10.0298 5.11959 10.2551 5.26991 10.4711 5.43974C10.6871 5.60957 10.8059 5.75229 10.8275 5.86789C10.9461 6.00095 10.8941 6.31135 10.6715 6.7991C10.5976 6.97457 10.4782 7.29595 10.3132 7.76325C10.1479 8.21121 9.96472 8.73687 9.76374 9.34019C9.58171 9.92389 9.39969 10.5075 9.21766 11.0912C9.05459 11.6551 8.91901 12.1412 8.81092 12.5494C8.66793 13.1516 8.53198 13.6183 8.40306 13.9495C8.29347 14.2804 8.18369 14.6016 8.07372 14.9131C7.98271 15.205 7.87462 15.6131 7.74946 16.1377C7.62016 16.4496 7.48289 16.8486 7.33765 17.3349C7.21136 17.8014 7.09473 18.2678 6.98777 18.734C6.88044 19.1808 6.80059 19.5497 6.74824 19.8408C6.60187 20.2691 6.4843 20.6871 6.39555 21.0949C6.30679 21.5027 6.21484 21.7462 6.11969 21.8254ZM15.0827 23.0434C14.7905 22.9331 14.4491 22.7754 14.0583 22.5703C13.668 22.3845 13.2957 22.1307 12.9413 21.8088C12.587 21.487 12.3087 21.096 12.1064 20.6358C11.9022 20.079 11.7562 19.5308 11.6683 18.991C11.5998 18.4509 11.5683 17.8231 11.5737 17.1075C11.5542 16.1024 11.6049 15.2312 11.7259 14.4941C11.8659 13.7372 12.083 12.9692 12.3773 12.19C12.4148 12.1312 12.4793 11.9656 12.5707 11.6931C12.681 11.4009 12.8006 11.0892 12.9296 10.758C13.0778 10.4264 13.1889 10.1728 13.2628 9.99739C13.4111 9.66569 13.6346 9.22629 13.9333 8.67906C14.2511 8.11212 14.5885 7.56412 14.9456 7.03508C15.49 6.19301 15.9504 5.50726 16.3269 4.97785C16.7029 4.4291 17.0614 3.96772 17.4022 3.59369C17.7623 3.21929 18.1516 2.85399 18.5701 2.49778C19.0079 2.14121 19.5511 1.73424 20.1997 1.27688C20.6189 0.959342 21.1564 0.755532 21.8121 0.665432C22.4871 0.574962 23.1464 0.668502 23.7899 0.946052C24.4331 1.20426 24.9168 1.71696 25.2411 2.48414C25.4616 2.88593 25.5682 3.39628 25.5609 4.01521C25.5532 4.61481 25.4498 5.2646 25.2507 5.96461C25.0513 6.64528 24.793 7.28842 24.4761 7.89403C24.1591 8.49963 23.8013 8.99001 23.4025 9.36519C23.1557 9.60199 22.8182 9.64729 22.3899 9.50089C21.981 9.35409 21.6388 9.15769 21.3633 8.91171C21.1829 8.58649 21.0825 8.39507 21.0621 8.33746C21.0609 8.27947 21.0988 8.24006 21.1758 8.21923C21.2891 8.08166 21.4393 7.8467 21.6262 7.51434C21.8131 7.18198 21.9996 6.83029 22.1858 6.45926C22.3715 6.06891 22.5008 5.75701 22.5737 5.52355C22.7125 4.7087 22.8085 4.17506 22.8616 3.92265C22.9143 3.65091 22.852 3.42974 22.6747 3.25916C22.5958 3.18334 22.4793 3.1566 22.325 3.17894C22.1901 3.2009 21.96 3.30206 21.6348 3.48241C21.194 3.68435 20.6701 4.09094 20.0632 4.70218C19.4753 5.29372 18.8896 6.00124 18.3061 6.82473C17.5529 7.86423 16.923 8.78532 16.4165 9.58799C15.91 10.3906 15.5295 11.2102 15.275 12.0466C15.2379 12.1247 15.1731 12.271 15.0805 12.4855C15.0074 12.6996 14.9708 12.8067 14.9708 12.8067C14.9916 12.8836 14.9664 13.0775 14.8951 13.3883C14.8234 13.6797 14.7413 13.9327 14.6488 14.1472C14.4534 15.0405 14.3445 15.9031 14.322 16.735C14.2991 17.5476 14.3613 18.2619 14.5087 18.8778C14.6749 19.474 14.9059 19.9143 15.2015 20.1986C15.4561 20.3677 15.7762 20.4195 16.1617 20.354C16.5471 20.2885 16.9891 20.1445 17.4875 19.9221C17.986 19.6997 18.5227 19.4573 19.0977 19.1947C19.5578 18.9924 19.979 18.7715 20.361 18.532C20.7431 18.2925 21.0291 18.0839 21.219 17.9062C21.3714 17.7872 21.5625 17.6675 21.7922 17.547C22.0408 17.4068 22.2521 17.335 22.4261 17.3317C22.6948 17.2297 22.8993 17.3031 23.0395 17.5518C23.1797 17.8004 23.2535 18.1181 23.2611 18.5047C23.2663 18.7753 23.0794 19.1076 22.7003 19.5017C22.3213 19.8958 21.9024 20.2327 21.4437 20.5123C21.2921 20.67 21.0823 20.8191 20.8143 20.9597C20.5653 21.0805 20.3064 21.1919 20.0377 21.2938C19.6377 21.611 19.141 21.9204 18.5474 22.222C17.9538 22.5236 17.3493 22.7577 16.7337 22.9243C16.1375 23.0906 15.5872 23.1303 15.0827 23.0434ZM29.0635 13.2579C28.6602 13.4011 28.3233 13.4753 28.0526 13.4806C27.7816 13.4665 27.4796 13.3467 27.1465 13.1211C26.7524 12.742 26.6192 12.3579 26.747 11.9687C26.8744 11.5601 27.2147 11.1571 27.7677 10.7596C28.1498 10.5201 28.4278 10.3987 28.6018 10.3953C28.7947 10.3722 29.0763 10.4344 29.4466 10.5819C30.0923 10.9755 30.3815 11.4243 30.3139 11.9283C30.2653 12.4127 29.8485 12.8559 29.0635 13.2579ZM27.1522 19.3862C26.7489 19.5294 26.412 19.6036 26.1414 19.6089C25.8704 19.5948 25.5683 19.475 25.2352 19.2494C24.8411 18.8703 24.708 18.4862 24.8358 18.097C24.9632 17.6884 25.3034 17.2854 25.8564 16.8879C26.2385 16.6484 26.5166 16.527 26.6905 16.5236C26.8834 16.5005 27.165 16.5627 27.5353 16.7102C28.1811 17.1038 28.4702 17.5526 28.4026 18.0566C28.354 18.541 27.9372 18.9842 27.1522 19.3862ZM35.1551 21.8701C34.5551 21.8431 33.9515 21.6325 33.3444 21.2382C32.7377 20.8633 32.1797 20.5067 31.6703 20.1685C31.3353 19.8463 31.0773 19.5033 30.8962 19.1394C30.7147 18.7562 30.56 18.2564 30.432 17.6401C30.3475 17.2744 30.3381 16.7911 30.4038 16.1904C30.4694 15.5897 30.5834 14.988 30.7458 14.3854C30.9077 13.7635 31.0626 13.277 31.2105 12.9261C31.4319 12.3804 31.7106 11.7948 32.0465 11.1695C32.4014 10.5245 32.7473 9.91829 33.0844 9.35099C33.4404 8.76397 33.7213 8.29443 33.9271 7.94236C34.0598 7.80442 34.1165 7.73564 34.0972 7.73602C34.0968 7.71669 34.0966 7.70702 34.0966 7.70702C34.0947 7.61037 34.1867 7.36687 34.3725 6.97652C34.5772 6.56647 34.7539 6.2053 34.9025 5.89302C35.1864 5.57811 35.3458 5.32363 35.3808 5.12958C35.4157 4.93553 35.3837 4.78146 35.2848 4.66736C35.2446 4.59079 35.3187 4.42498 35.5071 4.16994C35.7149 3.91452 35.9994 3.6286 36.3606 3.31219C36.7215 2.97645 37.1218 2.67861 37.5615 2.41868C38.0183 2.0424 38.4591 1.84046 38.884 1.81287C39.3278 1.76557 39.5904 1.84748 39.6719 2.0586C39.673 2.11659 39.7797 2.13385 39.9919 2.11039C40.2232 2.06722 40.4832 2.01383 40.772 1.9502C41.0798 1.86687 41.3492 1.80362 41.5804 1.76045C41.6748 1.6426 41.8954 1.55129 42.2422 1.48654C42.608 1.40208 43.0319 1.32616 43.5141 1.25878C43.7657 1.27323 44.0462 1.27744 44.3555 1.27143C44.6644 1.24609 44.9346 1.2215 45.1662 1.19766C45.4171 1.17345 45.5425 1.16134 45.5425 1.16134C45.6771 1.12005 45.8721 1.20328 46.1275 1.41102C46.4019 1.59906 46.6198 1.86554 46.7812 2.21047C46.9232 2.55577 46.8131 2.85764 46.4507 3.11606C46.0883 3.37448 45.5118 3.55972 44.7212 3.67178C44.1428 3.76037 43.6899 3.83685 43.3624 3.90123C43.0539 3.9459 42.7167 4.01046 42.351 4.09492C42.0042 4.15967 41.494 4.27594 40.8204 4.44373C40.3391 4.54977 39.9347 4.63498 39.6072 4.69936C39.2797 4.76373 38.992 4.88535 38.7441 5.0642C38.5155 5.24268 38.2606 5.55702 37.9793 6.00724C37.8459 6.10652 37.6768 6.36119 37.4721 6.77124C37.2673 7.1813 37.0626 7.59136 36.8578 8.00141C36.3313 8.76579 35.9362 9.33429 35.6728 9.70679C35.4282 10.0596 35.3456 10.2836 35.4248 10.3787C35.4248 10.3787 35.5606 10.4051 35.8324 10.4578C36.1041 10.5105 36.2787 10.5362 36.356 10.5347C36.5474 10.4342 36.778 10.3621 37.0479 10.3182C37.3371 10.2739 37.5683 10.2307 37.7415 10.1887C38.9339 9.85609 39.8091 9.61669 40.3671 9.47049C40.9439 9.30459 41.3478 9.19039 41.5786 9.12789C41.8288 9.06499 42.0503 9.02199 42.2432 8.99894C42.5097 8.78105 42.7807 8.79512 43.0562 9.04119C43.3507 9.26749 43.5591 9.54379 43.6814 9.87019C43.8243 10.2541 43.8301 10.5537 43.6989 10.769C43.5677 10.9843 43.2715 11.164 42.8102 11.3084C42.3683 11.4523 41.7336 11.629 40.9062 11.8385C40.0784 12.0286 39.0397 12.3098 37.79 12.6822C36.7329 13.0121 35.8763 13.2125 35.2202 13.2832C34.5641 13.354 34.2516 13.1957 34.2828 12.8084C34.146 12.7337 33.9928 12.814 33.8234 13.0494C33.6729 13.265 33.5337 13.5674 33.4059 13.9566C33.2781 14.3459 33.1606 14.7639 33.0532 15.2107C32.9652 15.6572 32.9153 16.0739 32.9035 16.4609C32.8917 16.8478 32.9265 17.1469 33.008 17.358C33.1712 17.7996 33.4204 18.1815 33.7554 18.5037C34.1093 18.8062 34.6168 19.0477 35.2777 19.2283C35.6647 19.2401 36.0422 19.2617 36.4102 19.2933C36.7782 19.3248 37.1923 19.2394 37.6525 19.0371C38.7892 18.8216 39.5777 18.6032 40.0182 18.382C40.4586 18.1607 40.7264 18.0105 40.8216 17.9313C40.9747 17.8509 41.0699 17.7717 41.107 17.6937C41.1635 17.6152 41.2401 17.5751 41.3367 17.5732C41.2806 17.671 41.2999 17.6706 41.3947 17.5721C41.4895 17.4735 41.6415 17.3352 41.8507 17.1571C42.2499 16.8013 42.6517 16.5808 43.0561 16.4956C43.4605 16.4104 43.7988 16.4038 44.0709 16.4758C44.3426 16.5286 44.4891 16.6031 44.5103 16.6993C44.6301 16.8904 44.5781 17.2008 44.3544 17.6306C44.1303 18.041 43.7812 18.4829 43.307 18.9562C42.8521 19.4291 42.3092 19.8554 41.6785 20.235C40.6646 20.7962 39.5604 21.1947 38.3661 21.4306C37.1722 21.6859 36.1018 21.8324 35.1551 21.8701ZM48.3646 22.2225C48.291 22.4173 48.032 22.519 47.5874 22.5276C47.1428 22.5363 46.7538 22.4182 46.4203 22.1733C46.1838 21.9458 46.0256 21.7652 45.9457 21.6314C45.8854 21.5165 45.9199 21.3032 46.0492 20.9912C46.1789 20.6987 46.4007 20.1723 46.7147 19.412C46.783 18.9466 46.9093 18.4801 47.0935 18.0124C47.2774 17.5254 47.4158 17.1843 47.5087 16.9891C47.5808 16.717 47.7268 16.2694 47.9467 15.6464C48.1856 15.0036 48.4522 14.2926 48.7464 13.5134C49.06 12.7338 49.3552 12.003 49.632 11.3208C49.9084 10.6193 50.1109 10.0933 50.2394 9.74269C50.553 8.96311 50.8755 8.14468 51.2069 7.28741C51.5383 6.43015 51.991 5.34814 52.5651 4.04141C52.6386 3.84661 52.6057 3.64421 52.4662 3.43421C52.3268 3.22422 52.0928 3.12241 51.7642 3.1288C51.5667 2.91993 51.4561 2.6997 51.4323 2.46812C51.4081 2.21721 51.5013 2.04137 51.7121 1.94059L54.3621 0.989912C55.2665 0.759622 56.1932 0.683602 57.1422 0.761832C58.1102 0.820372 59.0237 1.06366 59.8829 1.49171C60.8212 2.0149 61.5094 2.60097 61.9474 3.24992C62.3855 3.89886 62.6304 4.56122 62.6822 5.23701C62.753 5.89309 62.6873 6.49382 62.4852 7.03918C62.3384 7.44811 62.0475 7.89852 61.6123 8.3904C61.1964 8.88191 60.7032 9.37489 60.1328 9.86939C59.5816 10.3636 59.0007 10.8196 58.39 11.2376C57.7983 11.6358 57.2436 11.9463 56.7258 12.1691C56.2471 12.4104 55.7105 12.6626 55.1162 12.9255C54.5215 13.1691 53.9455 13.3834 53.3884 13.5682C53.0806 13.6515 52.7141 13.6973 52.2888 13.7056C51.8636 13.7139 51.5439 13.6814 51.3298 13.6082L50.8549 14.5456C50.6751 15.2453 50.3569 16.286 49.9004 17.6678C49.4631 19.0492 48.9512 20.5674 48.3646 22.2225ZM59.8861 22.5496C59.7326 22.6106 59.4721 22.635 59.1044 22.6228C58.7561 22.6103 58.3568 22.4633 57.9066 22.182C57.0463 21.696 56.184 21.1036 55.3196 20.405C54.4552 19.7063 53.4796 18.7584 52.3928 17.5613C51.9775 17.086 51.6588 16.6087 51.4368 16.1296C51.2341 15.6501 50.971 15.0461 50.6474 14.3176L50.2111 12.7598L51.2988 12.0135L52.5948 13.0325C52.9172 13.7031 53.2874 14.3437 53.7054 14.9543C54.1426 15.5646 54.5786 16.1072 55.0132 16.5822C55.3691 16.9814 55.8522 17.4651 56.4627 18.0333C57.0728 18.5822 57.7212 19.1111 58.4079 19.6198C59.0946 20.1286 59.7112 20.513 60.2577 20.7731C60.3755 20.8675 60.4081 21.0505 60.3554 21.3223C60.3223 21.613 60.2503 21.8851 60.1392 22.1386C60.0474 22.3918 59.9631 22.5288 59.8861 22.5496ZM52.3586 11.3258C52.8024 11.2785 53.2834 11.1531 53.8016 10.9497C54.3386 10.7265 54.9044 10.4835 55.4987 10.2206C56.054 9.93909 56.5993 9.63839 57.1345 9.31859C57.6887 8.9791 58.1843 8.61173 58.6213 8.21649C59.0777 7.82088 59.4273 7.39834 59.6699 6.94888C59.9319 6.49903 60.0387 6.0232 59.9902 5.52138C59.9853 5.2701 59.9026 4.99132 59.7419 4.68505C59.5813 4.37878 59.3729 4.10245 59.1167 3.85604C58.8799 3.60927 58.635 3.44966 58.3822 3.37723C57.6053 3.19896 57.0135 3.09444 56.6068 3.06367C56.2001 3.0329 55.9017 3.09672 55.7114 3.25511C55.5404 3.41313 55.4104 3.68638 55.3212 4.07485C55.3224 4.13284 55.2486 4.31797 55.1 4.63025C54.9514 4.94253 54.7658 5.34255 54.5432 5.8303C54.3396 6.29835 54.1367 6.80505 53.9346 7.35041C53.3962 8.50176 52.997 9.35069 52.7369 9.89719C52.4958 10.424 52.3479 10.7749 52.2933 10.95C52.258 11.1247 52.2798 11.25 52.3586 11.3258ZM64.1453 20.9005C64.0487 20.9024 63.8834 20.8573 63.6496 20.7652C63.4161 20.6923 63.1918 20.5904 62.9765 20.4592C62.7806 20.3276 62.6811 20.1845 62.6781 20.0299C62.6781 20.0299 62.6673 19.9721 62.6457 19.8565C62.6431 19.7212 62.6018 19.5866 62.5219 19.4528C62.5189 19.2982 62.5155 19.1242 62.5117 18.9309C62.5269 18.7179 62.5711 18.5044 62.6443 18.2902C62.6402 18.0776 62.6646 17.8451 62.7177 17.5927C62.7705 17.3209 62.8342 17.1166 62.9089 16.9798C62.9047 16.7672 62.9478 16.4957 63.0381 16.1652C63.1473 15.815 63.2377 15.4942 63.3094 15.2027C63.5096 14.5607 63.6553 14.0938 63.7463 13.802C63.8566 13.5098 63.9298 13.2956 63.9658 13.1596C64.0015 13.0042 64.0178 12.8492 64.0148 12.6945C64.0698 12.5388 64.1513 12.2568 64.2594 11.8486C64.3675 11.4404 64.4754 11.0226 64.5831 10.5951C64.7098 10.1479 64.7906 9.82719 64.8255 9.63319C64.9013 9.55439 64.9386 9.48599 64.9375 9.42799C64.9553 9.35029 64.9635 9.27279 64.962 9.19549C64.962 9.19549 65.0253 8.97185 65.152 8.52463C65.2786 8.07742 65.4427 7.5618 65.644 6.97778C65.972 5.94654 66.1895 5.19784 66.2965 4.73168C66.4228 4.26513 66.4744 3.9354 66.4513 3.74248C66.4475 3.54918 66.3954 3.35682 66.295 3.16541C66.1548 2.91675 66.1511 2.72345 66.2838 2.58552C66.3596 2.5067 66.4255 2.4184 66.4817 2.32062C66.5374 2.20352 66.5653 2.14496 66.5653 2.14496C66.5645 2.1063 66.6983 2.02635 66.9667 1.90512C67.254 1.76417 67.5991 1.61244 68.002 1.44991C68.4046 1.26805 68.8075 1.10552 69.2108 0.962332C69.6137 0.799802 69.94 0.677432 70.1898 0.595232C70.2478 0.594102 70.3831 0.591472 70.5957 0.587342C70.8277 0.582832 71.0693 0.578132 71.3206 0.573252C71.5912 0.567992 71.8039 0.563862 71.9585 0.560852C72.4626 0.628402 72.9776 0.763422 73.5037 0.965902C74.049 1.168 74.5091 1.45878 74.8839 1.83824C75.12 2.04636 75.3771 2.34108 75.6552 2.72241C75.9527 3.10337 76.2527 3.61964 76.5555 4.27121C76.557 4.34853 76.5795 4.51246 76.623 4.76299C76.6855 4.99382 76.719 5.22521 76.7235 5.45717C76.7348 6.03706 76.6026 6.69709 76.327 7.43725C76.0706 8.17704 75.6792 8.92912 75.1526 9.69349C74.6256 10.4386 73.9818 11.1375 73.221 11.7904C72.4219 12.4634 71.5897 12.9244 70.7244 13.1732C69.859 13.4221 69.0868 13.4854 68.4076 13.3633C68.018 13.2162 67.7529 13.0086 67.6124 12.7406C67.4714 12.4533 67.4082 12.1838 67.4226 11.9322C67.4371 11.6805 67.4727 11.5251 67.5296 11.466C67.6835 11.4243 67.9152 11.4102 68.2249 11.4235C68.5342 11.4175 69.0246 11.2822 69.6963 11.0178C69.9074 10.9363 70.128 10.845 70.3581 10.7439C70.5878 10.6234 70.7695 10.5232 70.9034 10.4432C71.2851 10.1844 71.6655 9.85799 72.0445 9.46389C72.4429 9.06939 72.8482 8.52973 73.2603 7.84493C73.429 7.57093 73.5488 7.26888 73.6198 6.93877C73.6907 6.60866 73.7326 6.27912 73.7456 5.95014C73.7775 5.60145 73.791 5.30147 73.7861 5.05018C73.931 4.5446 73.8262 4.13089 73.4719 3.80905C73.1365 3.4675 72.6008 3.26521 71.8648 3.20217C71.6317 3.14869 71.3416 3.14466 70.9944 3.19008C70.6666 3.23513 70.3586 3.30879 70.0705 3.41108C69.7821 3.49403 69.5615 3.58534 69.4087 3.68499C69.3314 3.6865 69.2842 3.74542 69.2671 3.86178C69.2501 3.97813 69.2044 4.11438 69.1301 4.27052C69.1327 4.40583 69.0803 4.6969 68.973 5.14374C68.8653 5.57124 68.7377 5.97013 68.5902 6.3404C68.4631 6.76829 68.308 7.24506 68.1249 7.77072C67.9414 8.27704 67.8138 8.67593 67.7421 8.96738C67.6708 9.27819 67.5799 9.57969 67.4696 9.87189C67.3786 10.1637 67.3331 10.3096 67.3331 10.3096C67.3346 10.3869 67.2798 10.5523 67.1687 10.8059C67.0769 11.059 66.9952 11.3314 66.9235 11.6228C66.8533 11.9916 66.7551 12.4092 66.6288 12.8758C66.5219 13.3419 66.3946 13.7601 66.2471 14.1304C66.0484 14.8498 65.8787 15.5685 65.7379 16.2867C65.5968 16.9856 65.596 17.44 65.7354 17.65C66.3157 17.6581 66.6178 17.7779 66.6416 18.0095C66.6844 18.2214 66.3945 18.7298 65.7721 19.5347C65.5882 20.0217 65.4013 20.354 65.2113 20.5318C65.0218 20.7288 64.8306 20.8389 64.6376 20.862C64.4641 20.8847 64.2999 20.8975 64.1453 20.9005Z" fill="#5E8BDC"></path></svg> 