<?xml version="1.0" encoding="UTF-8"?> <svg xmlns="http://www.w3.org/2000/svg" width="163" height="48" viewBox="0 0 163 48" fill="none"><path d="M3.31972 17.3309C3.2553 17.3575 3.1112 17.3387 2.88741 17.2746C2.68258 17.2142 2.46632 17.1121 2.23862 16.9684C2.02613 16.8473 1.86481 16.7167 1.75466 16.5766C1.69387 16.4857 1.63496 16.3853 1.57793 16.2754C1.52467 16.1466 1.5244 15.9494 1.57712 15.6839C1.6488 15.4222 1.79989 15.0087 2.0304 14.4435C2.18156 14.0793 2.35545 13.6999 2.55207 13.3053C2.74869 12.9107 2.92453 12.5711 3.07959 12.2865C3.23466 12.0019 3.31219 11.8596 3.31219 11.8596C3.41454 11.8405 3.60376 11.5824 3.87986 11.0854C4.17492 10.592 4.51154 9.98865 4.88972 9.27535C5.01829 9.02495 5.23952 8.60565 5.55341 8.01755C5.8673 7.42935 6.17743 6.86025 6.48383 6.31005C6.76363 5.79395 7.00953 5.39935 7.22153 5.12602C7.43343 4.85274 7.53943 4.71609 7.53943 4.71609C7.53943 4.71609 7.41253 4.75987 7.15853 4.84743C6.90463 4.93498 6.57493 5.05677 6.16943 5.21278C5.76399 5.36875 5.33201 5.55895 4.87354 5.78335C4.51351 5.90895 4.09101 6.10095 3.60605 6.35945C3.14381 6.60275 2.72131 6.79485 2.33856 6.93565C1.74748 7.23225 1.34583 7.41855 1.1336 7.49465C0.940342 7.57455 0.767792 7.55015 0.615952 7.42145C0.410852 7.16385 0.234062 6.81345 0.085582 6.37005C-0.040178 5.91145 -0.0273377 5.59855 0.124102 5.43155C0.165792 5.42015 0.305992 5.35925 0.544712 5.24895C0.802392 5.14244 1.09416 5.01313 1.42003 4.86102C1.7459 4.70891 2.03955 4.57011 2.301 4.44463C2.58141 4.32291 2.77467 4.24302 2.88078 4.20496C2.93767 4.21625 3.05515 4.17059 3.23321 4.06798C3.41127 3.96536 3.59694 3.8741 3.7902 3.79421C3.90761 3.69926 4.29029 3.50916 4.93826 3.2239C5.58623 2.93864 6.29103 2.61538 7.05263 2.25413C7.84083 1.9573 8.53633 1.73075 9.13893 1.57446C9.74163 1.41818 10.0789 1.35705 10.151 1.39107C10.2079 1.40237 10.3275 1.4951 10.5097 1.66926C10.7109 1.84719 10.8989 2.04219 11.0736 2.25428C11.2483 2.46637 11.3338 2.63119 11.3302 2.74873C11.4176 2.90406 11.3005 3.19618 10.9788 3.62507C10.869 3.78068 10.6836 4.06909 10.4226 4.49032C10.1653 4.89258 9.87403 5.36695 9.54873 5.91335C9.24613 6.44465 8.94353 6.97585 8.64093 7.50705C8.36113 8.02315 8.12473 8.46895 7.93183 8.84455C7.66343 9.40235 7.43083 9.82915 7.23413 10.1253C7.05633 10.425 6.88043 10.7153 6.70633 10.9962C6.55503 11.2618 6.36223 11.6374 6.12783 12.123C5.93481 12.4001 5.7154 12.7606 5.46956 13.2046C5.24644 13.6333 5.03281 14.0639 4.82866 14.4965C4.62828 14.91 4.4714 15.2534 4.35803 15.5265C4.12348 15.9136 3.91927 16.2968 3.74537 16.6762C3.57148 17.0556 3.4296 17.2738 3.31972 17.3309ZM11.8151 20.437C11.5532 20.2667 11.2534 20.0396 10.9155 19.7557C10.5739 19.4908 10.2645 19.1632 9.98713 18.7731C9.70983 18.3829 9.52153 17.9415 9.42233 17.4487C9.34183 16.8611 9.31643 16.2943 9.34603 15.7483C9.39453 15.206 9.49803 14.5859 9.65623 13.8881C9.85203 12.902 10.0879 12.0618 10.3637 11.3676C10.6622 10.6582 11.0385 9.95425 11.4926 9.25595C11.5418 9.20665 11.6402 9.05865 11.7877 8.81195C11.958 8.55005 12.1415 8.27115 12.3382 7.97515C12.5539 7.68285 12.7167 7.45895 12.8264 7.30335C13.0421 7.01115 13.3544 6.62965 13.7633 6.15895C14.1948 5.67295 14.6416 5.20981 15.1036 4.76935C15.8154 4.06313 16.4118 3.49168 16.8927 3.05499C17.3774 2.59933 17.8262 2.22524 18.2391 1.93272C18.6709 1.64396 19.1293 1.37034 19.6143 1.11184C20.1182 0.857114 20.7359 0.575694 21.4672 0.267564C21.9447 0.0469936 22.5133 -0.0372066 23.1731 0.0149734C23.8519 0.0709134 24.4759 0.303233 25.0452 0.711943C25.6183 1.10168 25.9812 1.70594 26.134 2.52471C26.2635 2.96436 26.2585 3.4857 26.1191 4.08876C25.9834 4.67285 25.7435 5.28555 25.3993 5.92675C25.0589 6.54905 24.6692 7.12215 24.2301 7.64595C23.791 8.16985 23.3365 8.57235 22.8668 8.85355C22.5751 9.03215 22.2357 9.00425 21.8486 8.76965C21.4805 8.53885 21.1882 8.27385 20.9717 7.97465C20.865 7.61835 20.8078 7.40995 20.8002 7.34925C20.8115 7.29235 20.8569 7.26195 20.9365 7.25805C21.0767 7.14795 21.2736 6.95045 21.5272 6.66575C21.7809 6.38105 22.0383 6.07735 22.2994 5.75475C22.5644 5.41315 22.7574 5.13607 22.8784 4.92358C23.1883 4.15725 23.3961 3.65648 23.502 3.42125C23.6116 3.16706 23.598 2.93769 23.4612 2.73314C23.4004 2.64222 23.2923 2.59118 23.1368 2.58002C23.0003 2.57263 22.7539 2.62226 22.3977 2.72891C21.9238 2.83194 21.3252 3.11713 20.6016 3.58449C19.9008 4.03665 19.1774 4.6026 18.4314 5.28235C17.4733 6.13675 16.661 6.90185 15.9947 7.57765C15.3283 8.25355 14.7814 8.97275 14.354 9.73545C14.301 9.80375 14.2064 9.93285 14.0701 10.1226C13.9529 10.3162 13.8942 10.4129 13.8942 10.4129C13.8981 10.4926 13.832 10.6765 13.6959 10.9649C13.5636 11.2343 13.4293 11.4638 13.2931 11.6536C12.9113 12.4845 12.6205 13.3039 12.4206 14.1118C12.2245 14.9007 12.1326 15.6117 12.1449 16.2449C12.1798 16.8629 12.3113 17.3423 12.5393 17.6833C12.7519 17.9029 13.0535 18.0219 13.4441 18.0403C13.8346 18.0587 14.2971 18.0126 14.8316 17.9019C15.366 17.7912 15.9422 17.6691 16.56 17.5355C17.0528 17.4363 17.5114 17.3105 17.9359 17.1583C18.3603 17.006 18.6843 16.8634 18.9078 16.7304C19.0821 16.6467 19.2943 16.5706 19.5445 16.502C19.8174 16.4182 20.0391 16.3933 20.2098 16.4272C20.4941 16.3851 20.6782 16.5005 20.762 16.7733C20.8458 17.0462 20.85 17.3723 20.7747 17.7516C20.722 18.017 20.4683 18.3018 20.0138 18.6057C19.5592 18.9097 19.078 19.1492 18.5702 19.3243C18.3883 19.4459 18.1515 19.5467 17.8596 19.6267C17.5905 19.6915 17.3138 19.745 17.0295 19.7871C16.571 20.0114 16.0196 20.2075 15.3753 20.3752C14.731 20.5429 14.0903 20.6424 13.4534 20.6736C12.8354 20.7085 12.2893 20.6297 11.8151 20.437ZM27.5647 13.8666C27.1401 13.9203 26.7951 13.9208 26.5296 13.868C26.2679 13.7964 25.9984 13.6147 25.7212 13.3232C25.4173 12.8686 25.3693 12.4649 25.5774 12.1119C25.7892 11.7401 26.2077 11.4191 26.833 11.1491C27.2574 10.9968 27.555 10.9376 27.7256 10.9715C27.919 10.9902 28.1808 11.1112 28.511 11.3344C29.0577 11.8569 29.2442 12.3571 29.0704 12.8351C28.9194 13.2979 28.4175 13.6417 27.5647 13.8666ZM24.3874 19.4446C23.9628 19.4983 23.6178 19.4988 23.3523 19.446C23.0906 19.3744 22.8212 19.1927 22.544 18.9012C22.24 18.4466 22.1921 18.0429 22.4001 17.6899C22.6119 17.3181 23.0305 16.9971 23.6557 16.7271C24.0802 16.5748 24.3777 16.5156 24.5484 16.5495C24.7418 16.5682 25.0036 16.6892 25.3337 16.9124C25.8804 17.4349 26.0669 17.9351 25.8932 18.4131C25.7421 18.8759 25.2402 19.2197 24.3874 19.4446ZM28.6306 22.9777C28.0882 22.8306 27.7144 22.6282 27.5093 22.3707C27.3005 22.1321 27.2393 21.7947 27.326 21.3586C27.5188 20.983 27.6985 20.6737 27.865 20.4308C28.0504 20.1917 28.1866 19.9526 28.2735 19.7136C28.3756 19.4974 28.4757 19.2906 28.5741 19.0933C28.6724 18.896 28.7991 18.6551 28.9541 18.3705C29.1962 17.9455 29.4779 17.42 29.7994 16.7939C30.1397 16.1716 30.4896 15.5512 30.849 14.9327C31.2121 14.2952 31.5223 13.7753 31.7795 13.3731C32.0179 12.967 32.2145 12.6217 32.3696 12.3372C32.5436 12.0563 32.7158 11.785 32.886 11.5232C33.0563 11.2613 33.2455 10.9539 33.4535 10.601C33.4535 10.601 33.5292 10.4682 33.6804 10.2026C33.8545 9.92175 34.036 9.60295 34.2251 9.24635C34.4369 8.87445 34.6204 8.54625 34.7754 8.26165C34.9495 7.98085 35.0365 7.84045 35.0365 7.84045C35.3317 7.44565 35.5928 7.07375 35.8198 6.72465C36.0695 6.36025 36.2946 5.97135 36.495 5.55775C36.4303 5.38725 36.3978 5.20338 36.3975 5.00622C36.4162 4.81283 36.4596 4.64404 36.5277 4.49987C36.6562 4.24944 36.8399 4.06909 37.0786 3.95881C37.3173 3.84852 37.5998 3.8652 37.9261 4.00883C38.1803 4.11843 38.5217 4.2355 38.9503 4.36003C39.3979 4.48833 39.8018 4.58825 40.1621 4.6598C40.5414 4.7351 40.731 4.77276 40.731 4.77276C40.8561 4.73846 41.203 4.72851 41.7717 4.74289C42.3405 4.75727 43.0249 4.78477 43.825 4.82537C44.6251 4.86598 45.4328 4.91795 46.248 4.98128C47.0823 5.04838 47.8198 5.10614 48.4607 5.15454C48.6958 5.1618 48.9233 5.20699 49.1433 5.29015C49.3823 5.37695 49.5929 5.45825 49.775 5.53375C50.1771 5.69245 50.4751 5.97835 50.6691 6.39135C50.882 6.80815 50.9015 7.20625 50.7276 7.58565C50.546 7.90435 50.3567 8.06385 50.1595 8.06415C49.9813 8.06815 49.6872 7.91125 49.2773 7.59335C49.0539 7.82485 48.9271 7.96725 48.8969 8.02035C48.8666 8.07355 48.8307 8.15505 48.7891 8.26505C48.7665 8.37885 48.619 8.62555 48.3465 9.00505C48.2481 9.10375 48.0891 9.30875 47.8696 9.61995C47.6691 9.93495 47.4497 10.2955 47.2114 10.7015C46.9958 11.0923 46.8048 11.4585 46.6385 11.8C46.4721 12.1414 46.3739 12.388 46.3438 12.5397C46.321 12.5549 46.183 12.8035 45.9296 13.2853C45.6952 13.771 45.3984 14.3724 45.0392 15.0895C44.7555 15.6245 44.4568 16.186 44.1429 16.7742C43.848 17.366 43.5549 17.9485 43.2638 18.5214C42.9764 19.0754 42.7192 19.5762 42.4923 20.0239C42.2655 20.4716 42.0877 20.8207 41.9592 21.0711C41.8344 21.3026 41.7757 21.3994 41.7833 21.3614C41.6815 21.7749 41.555 22.1637 41.4038 22.5279C41.2716 22.8958 41.1584 23.2676 41.0641 23.6431C41.0871 23.825 41.0494 23.9654 40.9509 24.0641C40.8715 24.1666 40.7919 24.2198 40.7123 24.2237C40.4243 24.3833 40.0528 24.4179 39.5977 24.3276C39.1426 24.2372 38.8447 24.0499 38.704 23.7657C38.624 23.4739 38.5725 23.237 38.5495 23.055C38.5265 22.8731 38.5395 22.7081 38.5886 22.5602C38.7357 22.0178 38.9094 21.4905 39.1097 20.9784C39.3137 20.4473 39.5026 19.9427 39.6763 19.4647C39.8993 18.9374 40.1186 18.4783 40.3342 18.0875C40.5535 17.6777 40.6765 17.505 40.7031 17.5694L41.6787 15.6344C41.9435 15.1942 42.1363 14.8186 42.2572 14.5075C42.3819 14.1775 42.5179 13.8398 42.6653 13.4946C42.8317 13.1531 43.0643 12.7262 43.3631 12.214C43.6431 11.7965 43.8871 11.362 44.095 10.9105C44.3219 10.4628 44.5393 10.0132 44.7472 9.56165C44.872 9.33025 45.0252 9.05515 45.2067 8.73635C45.3921 8.39865 45.568 8.10835 45.7345 7.86545C45.9047 7.60365 46.0088 7.47645 46.0467 7.48405C45.6031 7.43535 45.2333 7.41115 44.9376 7.41155C44.6608 7.41575 44.3651 7.41615 44.0504 7.41285C43.7584 7.39425 43.3394 7.37015 42.7934 7.34065C42.5241 7.30685 42.1829 7.28835 41.7696 7.28515C41.379 7.26675 40.979 7.24645 40.5694 7.22425C40.1599 7.20205 39.8187 7.18355 39.5456 7.16875C39.4281 7.16515 39.32 7.16335 39.2215 7.16355C39.1456 7.14845 39.0887 7.13715 39.0508 7.12965C38.9335 7.32315 38.697 7.67045 38.3413 8.17145C37.9856 8.67235 37.5996 9.22645 37.1834 9.83375C36.7671 10.441 36.3925 10.9875 36.0595 11.4733C35.9158 11.701 35.7701 11.9381 35.6226 12.1848C35.4788 12.4125 35.3256 12.6383 35.1628 12.8622C35.0191 13.0899 34.8734 13.3271 34.7259 13.5738C34.5821 13.8015 34.4365 14.0386 34.2889 14.2853C34.1452 14.513 34.0014 14.7407 33.8576 14.9684C33.5475 15.5375 33.2695 16.0441 33.0237 16.488C32.7968 16.9358 32.5812 17.3266 32.3769 17.6605C32.1916 17.9982 32.0233 18.2999 31.872 18.5655C31.7207 18.8311 31.5732 19.0778 31.4294 19.3055C31.2441 19.6432 31.0606 19.9714 30.8791 20.2902C30.7203 20.5937 30.5464 20.9731 30.3574 21.4283C30.3046 21.5953 30.2422 21.7603 30.1704 21.9234C30.1024 22.0676 30.0324 22.2212 29.9606 22.3844C29.7714 22.6425 29.5783 22.8209 29.3812 22.9198C29.1994 23.0414 28.9492 23.0607 28.6306 22.9777ZM42.6821 31.5037C42.6062 31.4886 42.4924 31.4661 42.3407 31.4359C42.2042 31.4285 42.1055 31.3301 42.0446 31.1406C41.9875 31.0307 41.9114 30.8185 41.8162 30.5039C41.7172 30.2083 41.7641 29.8234 41.9568 29.3492C42.1156 29.0456 42.2555 28.7383 42.3764 28.4273C42.4935 28.1351 42.5672 27.9132 42.5973 27.7615C42.6123 27.6857 42.6614 27.5377 42.7445 27.3177C42.8428 27.1204 42.9014 26.9744 42.9202 26.8795C43.0452 26.7467 43.1625 26.5531 43.2721 26.299C43.3817 26.0448 43.4572 25.8134 43.4986 25.6048C43.5438 25.3772 43.699 25.1912 43.9642 25.0468C43.9943 24.8951 44.0604 24.7111 44.1625 24.4948C44.2835 24.2823 44.3516 24.1382 44.3666 24.0623C44.4763 23.8081 44.6918 23.368 45.0132 22.7419C45.3573 22.1007 45.7564 21.3816 46.2103 20.5848C46.6831 19.7917 47.1427 19.0157 47.5891 18.2567C48.0354 17.4978 48.4289 16.8565 48.7694 16.3328C49.1024 15.847 49.3899 15.3916 49.632 14.9666C49.8741 14.5416 50.0139 14.2343 50.0516 14.0447C50.0667 13.9688 50.0969 13.9157 50.1424 13.8853C50.1916 13.836 50.2976 13.7486 50.4605 13.6233C50.6878 13.4713 50.9475 13.4539 51.2396 13.571C51.5544 13.673 51.8011 13.8205 51.9796 14.0136C52.0823 14.2903 52.1414 14.5385 52.1569 14.7584C52.1951 14.9631 52.1349 15.2665 51.9762 15.6686C51.9197 15.9531 51.8006 16.2054 51.6189 16.4256C51.441 16.6268 51.2801 16.7919 51.1362 16.921C51.015 17.0349 50.9752 17.0862 51.0169 17.0747C51.953 16.7284 52.7566 16.6022 53.4279 16.6961C54.1218 16.7747 54.6681 17.0015 55.0668 17.3763C55.4881 17.7359 55.775 18.1772 55.9274 18.7003C56.0798 19.2233 56.1014 19.7598 55.9922 20.3097C55.947 20.5373 55.8109 20.8256 55.5839 21.1747C55.3568 21.5239 55.1146 21.8503 54.8572 22.154C54.6036 22.4387 54.4086 22.6266 54.2722 22.7178C54.1963 22.7028 54.1073 22.7541 54.0051 22.8717C53.9067 22.9705 53.8044 23.0881 53.6985 23.2248C53.5091 23.3843 53.2098 23.5515 52.8006 23.7265C52.414 23.8863 52.0256 24.0063 51.6351 24.0864C51.2485 24.1476 50.985 24.1347 50.8445 24.0477C50.8445 24.0477 50.8123 24.061 50.7479 24.0876C50.7025 24.118 50.6703 24.1806 50.6515 24.2755C50.644 24.3134 50.4962 24.3629 50.2081 24.4239C49.92 24.485 49.5864 24.5272 49.2073 24.5504C48.8281 24.5737 48.4869 24.5552 48.1835 24.495C47.7852 24.4159 47.5159 24.2836 47.3753 24.098C47.3299 24.1284 47.2712 24.1758 47.1992 24.2404C47.1462 24.3087 47.1141 24.3713 47.1028 24.4282C47.0802 24.542 46.997 24.7127 46.8532 24.9404C46.7284 25.1719 46.5903 25.3711 46.4389 25.5382C46.2837 25.7242 46.1587 25.8078 46.0639 25.7889C46.0639 25.7889 46.0392 25.8136 45.99 25.863C45.9408 25.9123 45.9447 25.9919 46.0017 26.1018C46.0017 26.1018 45.9715 26.2042 45.9112 26.4091C45.866 26.6366 45.7809 26.8168 45.656 26.9497C45.6258 27.1014 45.5522 27.3233 45.4351 27.6154C45.3179 27.9076 45.2064 28.1219 45.1004 28.2586C45.0552 28.4861 44.974 28.6967 44.8567 28.8902C44.7546 29.1065 44.6657 29.2071 44.5898 29.192C44.5102 29.1959 44.4402 29.3003 44.3798 29.5051C44.3157 29.7289 44.2742 29.8882 44.2554 29.983C44.1423 30.4533 43.9096 30.8309 43.5574 31.1158C43.2014 31.4196 42.9096 31.5489 42.6821 31.5037ZM48.2998 22.2711C48.4515 22.3012 48.7397 22.2894 49.1643 22.2357C49.5889 22.1821 50.0381 22.1037 50.5119 22.0007C50.9894 21.8787 51.3722 21.7379 51.6601 21.5783C52.2398 21.24 52.7038 20.8886 53.0521 20.5242C53.4194 20.1635 53.4927 19.6951 53.272 19.1191C53.173 18.8235 52.9472 18.6702 52.5945 18.6593C52.2646 18.6333 51.8742 18.7134 51.4233 18.8998C50.9723 19.0862 50.4987 19.3371 50.0024 19.6525C49.7259 19.8539 49.4609 20.0969 49.2072 20.3816C48.9536 20.6663 48.7303 20.9472 48.5373 21.2243C48.3632 21.5051 48.246 21.7479 48.1857 21.9527C48.129 22.1386 48.1671 22.2447 48.2998 22.2711ZM61.4603 27.7522C60.8274 27.9616 60.1829 28.0308 59.5269 27.9596C58.8935 27.8733 58.3226 27.6712 57.8141 27.3534C57.3094 27.0167 56.9296 26.5963 56.6749 26.0924C56.5342 25.8082 56.4313 25.3837 56.366 24.8189C56.3046 24.235 56.423 23.4898 56.7213 22.5832C57.0083 21.7335 57.4488 20.9045 58.043 20.096C58.6561 19.2914 59.3434 18.6098 60.1047 18.0514C60.866 17.493 61.641 17.164 62.4295 17.0643C62.7138 17.0222 62.9925 17.0086 63.2655 17.0234C63.5612 17.0229 63.9329 17.0869 64.3805 17.2152C64.8053 17.3587 65.1715 17.5497 65.4789 17.7881C65.7901 18.0076 66.0028 18.2272 66.1168 18.447C66.36 18.8106 66.5007 19.1441 66.539 19.4474C66.5774 19.7506 66.5607 20.0331 66.489 20.2948C66.2737 20.8828 65.8688 21.4825 65.2744 22.0937C64.6989 22.7087 63.9791 23.1079 63.1149 23.291C62.7661 23.3598 62.3699 23.3698 61.9262 23.3211C61.4826 23.2724 60.8965 23.0969 60.1681 22.7946C59.7318 22.6094 59.419 22.5966 59.2296 22.7561C59.0592 22.9194 58.9289 23.2778 58.8387 23.8315C58.8088 24.1804 58.8244 24.4989 58.8855 24.787C58.9693 25.0598 59.1724 25.2776 59.495 25.4402C59.916 25.6026 60.2271 25.6742 60.428 25.655C60.6327 25.6168 60.8904 25.5596 61.2012 25.4833C61.3718 25.4186 61.5347 25.3426 61.69 25.2551C61.8643 25.1715 62.0291 25.086 62.1845 24.9985C62.3588 24.9149 62.499 24.854 62.6051 24.816C62.715 24.7589 62.8192 24.7304 62.9178 24.7302C63.0164 24.7301 63.1131 24.7394 63.2079 24.7583C63.4127 24.8186 63.5892 24.972 63.7374 25.2182C63.8856 25.4645 63.9694 25.688 63.9886 25.889C63.9585 26.0407 63.8204 26.2399 63.5742 26.4867C63.3319 26.7145 63.0194 26.9482 62.6368 27.1876C62.2769 27.4118 61.8847 27.6 61.4603 27.7522ZM62.3501 21.3356C62.4941 21.3051 62.7101 21.21 62.998 21.0504C63.3049 20.8945 63.5853 20.7235 63.839 20.5374C64.0966 20.3323 64.2385 20.1633 64.2649 20.0306C64.3063 19.822 64.1999 19.6136 63.9455 19.4054C63.7102 19.201 63.365 19.1029 62.91 19.1111C62.7508 19.1189 62.5499 19.1874 62.3075 19.3167C62.065 19.4459 61.8168 19.6036 61.5631 19.7898C61.3131 19.9569 61.0915 20.1298 60.8984 20.3082C60.709 20.4677 60.5746 20.5987 60.4951 20.7012C60.5521 20.8111 60.6888 20.9171 60.905 21.0191C61.1213 21.1212 61.3622 21.1986 61.6276 21.2513C61.9121 21.3078 62.1529 21.3359 62.3501 21.3356ZM66.0374 27.1828C65.9917 27.016 66.0066 26.8416 66.0822 26.6595C66.1615 26.4584 66.112 26.2613 65.9335 26.0682C66.1413 25.5181 66.3188 25.0212 66.466 24.5774C66.6323 24.1373 66.8118 23.7295 67.0047 23.3538C67.156 23.0882 67.3149 22.834 67.4813 22.5911C67.6668 22.352 67.8826 22.109 68.1287 21.8622C68.3938 21.6192 68.6892 21.3723 69.0149 21.1216C69.1096 21.0419 69.2024 20.9716 69.2933 20.9108C69.4032 20.8538 69.5036 20.7949 69.5945 20.7341C69.6437 20.6847 69.6929 20.6354 69.7422 20.586C69.7914 20.5367 69.8387 20.4968 69.8842 20.4664C70.1682 20.2271 70.4827 20.0333 70.8275 19.885C71.195 19.7214 71.5646 19.5977 71.936 19.5138C72.3264 19.4336 72.6922 19.3781 73.0334 19.3473C73.2344 19.3281 73.4145 19.3146 73.5737 19.3068C73.7329 19.299 73.8884 19.3101 74.0401 19.3402C74.1918 19.3704 74.3587 19.4232 74.5408 19.4988C74.5596 19.404 74.5538 19.2846 74.5233 19.1405C74.5154 18.9813 74.5247 18.8353 74.5511 18.7026C74.6078 18.6153 74.6399 18.5034 74.6473 18.3669C74.6774 18.2152 74.6829 18.0881 74.6638 17.9858C74.5498 17.766 74.5191 17.5234 74.5718 17.2579C74.6435 16.9962 74.5977 16.7309 74.4343 16.4619C74.54 16.1281 74.5035 15.8153 74.3249 15.5236C74.169 15.2167 73.9241 14.9611 73.5902 14.7568C73.279 14.5374 72.9337 14.39 72.5545 14.3147C72.3079 14.2657 72.0653 14.2471 71.8264 14.2588C71.6103 14.2553 71.4037 14.303 71.2067 14.4018C71.0322 14.3869 70.7914 14.3588 70.4843 14.3175C70.1998 14.261 69.9949 14.1513 69.8696 13.9885C69.5883 13.5187 69.4324 13.1625 69.4017 12.9199C69.3748 12.6583 69.4352 12.4535 69.5829 12.3054C69.7722 12.1459 70.0128 12.0261 70.3047 11.9461C70.6193 11.8509 70.949 11.7291 71.2938 11.5808C71.4684 11.6943 71.6219 11.7149 71.7546 11.6427C71.9061 11.5742 72.0787 11.5986 72.2722 11.7159C72.549 11.7117 72.7974 11.7512 73.0174 11.8343C73.2412 11.8985 73.4612 11.9816 73.6775 12.0837C73.7496 12.1177 73.8122 12.1498 73.8653 12.1801C73.9412 12.1951 74.0151 12.2197 74.0872 12.2537C74.7852 12.5106 75.3678 12.9515 75.8351 13.5765C76.325 14.1862 76.6596 14.8341 76.8387 15.5202C76.8959 15.7286 76.9588 15.9579 77.0273 16.2081C77.0997 16.4393 77.1531 16.6667 77.1875 16.8903C77.2295 17.0761 77.2431 17.3547 77.2285 17.7263C77.2328 18.1017 77.2125 18.5017 77.1676 18.9264C77.1454 19.336 77.1099 19.7133 77.0611 20.0584C77.0347 20.1911 77.0103 20.3144 76.9877 20.4282C76.9651 20.5419 76.9349 20.6444 76.8971 20.7354C76.4022 22.0366 75.7462 23.3551 74.929 24.6908C74.1308 26.0304 73.2642 27.2183 72.3291 28.2547C72.049 28.5736 71.7176 28.8527 71.335 29.0921C70.9713 29.3353 70.5791 29.5235 70.1585 29.6568C69.7795 29.7787 69.3814 29.8474 68.9644 29.8632C68.5625 29.9017 68.1606 29.8908 67.7586 29.8307C67.5194 29.5467 67.2763 29.2816 67.0295 29.0355C66.7865 28.7704 66.5757 28.492 66.3971 28.2003C66.2185 27.9086 66.0986 27.5694 66.0374 27.1828ZM68.5916 27.5717C68.6939 27.5526 68.7868 27.5316 68.8702 27.5087C68.9725 27.4896 69.0502 27.4459 69.1032 27.3776C69.429 27.2255 69.7851 26.971 70.1713 26.614C70.5765 26.2609 70.9571 25.8831 71.3129 25.4807C71.6877 25.082 71.9622 24.7423 72.1362 24.4615C72.227 24.3021 72.3461 24.0991 72.4937 23.8525C72.6412 23.6058 72.7737 23.435 72.8911 23.3401C73.0728 23.1199 73.2411 22.8675 73.3962 22.5829C73.5513 22.2984 73.6457 22.0214 73.6794 21.7522C72.8607 21.905 72.1141 22.1904 71.4398 22.6084C70.7882 23.0112 70.1917 23.5333 69.6504 24.1749C69.5145 24.5618 69.3254 24.9185 69.0832 25.2449C68.8599 25.5751 68.6879 25.945 68.5671 26.3546C68.4574 26.5102 68.3799 26.6525 68.3345 26.7815C68.3082 26.9142 68.2951 27.0792 68.2954 27.2764C68.322 27.3408 68.36 27.3976 68.4094 27.4468C68.4587 27.496 68.5195 27.5377 68.5916 27.5717ZM77.0366 31.7026C76.6572 31.5287 76.4029 31.3205 76.2736 31.078C76.1633 30.8393 76.0037 30.5514 75.7947 30.2142C75.8739 29.9146 76.0099 29.5276 76.2026 29.0534C76.3953 28.5792 76.6146 28.1201 76.8604 27.6762C77.1063 27.2322 77.3295 26.9021 77.5302 26.6857C77.6509 26.276 77.8608 25.8643 78.1598 25.4506C78.4625 25.018 78.7083 24.574 78.8973 24.1188C79.0674 23.7583 79.2414 23.4282 79.4192 23.1285C79.6007 22.8097 79.7614 22.4967 79.9013 22.1894C79.9618 22.0831 79.992 21.9807 79.9919 21.8821C80.0145 21.7683 80.075 21.6621 80.1734 21.5634C80.3173 21.4343 80.467 21.326 80.6223 21.2386C80.7814 21.1322 80.9367 21.0448 81.0883 20.9763C81.2931 21.0367 81.46 21.0896 81.589 21.1349C81.7369 21.184 81.9171 21.2197 82.1295 21.2422C82.3039 21.2571 82.5788 21.3117 82.9543 21.406C83.3488 21.504 83.7319 21.6097 84.1036 21.7229C84.4943 21.8399 84.7599 21.9419 84.9003 22.0289C85.0672 22.0818 85.1848 22.1347 85.2531 22.1877C85.3252 22.2217 85.4181 22.25 85.5319 22.2726C86.0671 22.6548 86.4752 23.0808 86.7565 23.5506C87.0567 24.0241 87.0897 24.6023 86.8555 25.2851C86.7384 25.5772 86.6497 25.875 86.5895 26.1784C86.533 26.4628 86.3988 26.7417 86.1868 27.015C86.1717 27.0908 86.0753 27.2787 85.8975 27.5784C85.7425 27.863 85.5609 28.1818 85.3529 28.5347C85.1638 28.8913 84.9841 29.2006 84.8138 29.4624C84.7496 29.5877 84.689 29.6939 84.6323 29.7812C84.5755 29.8685 84.5339 29.9292 84.5074 29.9634C84.5375 29.8116 84.5186 29.8079 84.4505 29.9521C84.4014 30.1 84.3335 30.2935 84.2466 30.5325C84.1597 30.7714 84.0746 30.9517 83.9914 31.0731C83.8363 31.3577 83.6073 31.6177 83.3043 31.8532C83.0051 32.0698 82.6903 32.0171 82.36 31.6953C82.3296 31.6498 82.2973 31.6138 82.2631 31.5873C82.2327 31.5419 82.2005 31.5059 82.1663 31.4794C81.8814 31.1272 81.7426 30.7842 81.7497 30.4506C81.7796 30.1017 81.8682 29.7547 82.0156 29.4094C82.1819 29.068 82.3141 28.7 82.4122 28.3055C82.4804 28.2599 82.6147 28.0796 82.8152 27.7647C83.0195 27.4307 83.2313 27.0589 83.4507 26.6491C83.6928 26.2241 83.9083 25.8333 84.0974 25.4766C84.3055 25.1237 84.4303 24.8922 84.4718 24.7822C84.4756 24.7632 84.468 24.7519 84.449 24.7481C84.4528 24.7292 84.4566 24.7102 84.4603 24.6912C84.0242 24.6046 83.6108 24.5028 83.2201 24.3858C82.8331 24.2498 82.4027 24.1841 81.9288 24.1885C81.906 24.2037 81.8909 24.2303 81.8834 24.2682C81.8758 24.3061 81.8588 24.3422 81.8323 24.3763C81.6357 24.7709 81.422 25.1523 81.1912 25.5204C80.9642 25.8695 80.76 26.2528 80.5786 26.6701C80.3026 27.2657 79.9659 27.8198 79.5685 28.3322C79.1711 28.8446 78.8875 29.4289 78.7178 30.0851C78.5399 30.2863 78.4056 30.5158 78.315 30.7738C78.2281 31.0128 78.1071 31.2253 77.9519 31.4113C77.8004 31.5783 77.5389 31.6545 77.1673 31.6399C77.1446 31.6551 77.1237 31.6608 77.1048 31.657C77.0821 31.6722 77.0593 31.6874 77.0366 31.7026ZM84.9601 39.8988C84.8843 39.8837 84.7705 39.8611 84.6188 39.831C84.4823 39.8236 84.3836 39.7252 84.3226 39.5357C84.2656 39.4258 84.1895 39.2136 84.0943 38.899C83.9953 38.6034 84.0421 38.2185 84.2349 37.7443C84.3937 37.4407 84.5336 37.1334 84.6545 36.8223C84.7716 36.5302 84.8452 36.3083 84.8754 36.1566C84.8904 36.0808 84.9395 35.9328 85.0226 35.7128C85.1209 35.5155 85.1795 35.3694 85.1983 35.2746C85.3233 35.1418 85.4405 34.9482 85.5501 34.694C85.6597 34.4398 85.7353 34.2085 85.7767 33.9999C85.8219 33.7723 85.9771 33.5863 86.2423 33.4419C86.2724 33.2902 86.3385 33.1062 86.4406 32.8899C86.5616 32.6774 86.6297 32.5332 86.6447 32.4574C86.7543 32.2032 86.9698 31.7631 87.2913 31.137C87.6354 30.4958 88.0344 29.7767 88.4883 28.9799C88.9612 28.1868 89.4208 27.4108 89.8672 26.6518C90.3135 25.8929 90.707 25.2516 91.0475 24.7279C91.3805 24.2421 91.668 23.7867 91.9101 23.3617C92.1522 22.9367 92.292 22.6294 92.3297 22.4398C92.3447 22.3639 92.375 22.3108 92.4205 22.2804C92.4697 22.2311 92.5757 22.1437 92.7386 22.0184C92.9659 21.8664 93.2256 21.849 93.5177 21.9661C93.8325 22.068 94.0792 22.2156 94.2576 22.4087C94.3604 22.6853 94.4195 22.9336 94.435 23.1535C94.4732 23.3582 94.4129 23.6616 94.2542 24.0637C94.1978 24.3482 94.0787 24.6005 93.897 24.8206C93.7191 25.0218 93.5581 25.187 93.4142 25.3161C93.2931 25.43 93.2533 25.4813 93.295 25.4698C94.2311 25.1235 95.0347 24.9973 95.7059 25.0911C96.4 25.1698 96.946 25.3965 97.345 25.7714C97.766 26.131 98.053 26.5723 98.205 27.0953C98.358 27.6184 98.379 28.1548 98.27 28.7048C98.225 28.9323 98.089 29.2207 97.862 29.5698C97.635 29.919 97.393 30.2454 97.135 30.549C96.882 30.8338 96.687 31.0217 96.55 31.1129C96.474 31.0978 96.385 31.1492 96.283 31.2668C96.185 31.3655 96.083 31.4832 95.9765 31.6199C95.7872 31.7794 95.4879 31.9466 95.0786 32.1216C94.6921 32.2814 94.3036 32.4013 93.9132 32.4815C93.5266 32.5427 93.263 32.5298 93.1226 32.4428C93.1226 32.4428 93.0904 32.4561 93.026 32.4827C92.9805 32.5131 92.9484 32.5757 92.9296 32.6705C92.922 32.7085 92.7742 32.758 92.4861 32.819C92.1981 32.8801 91.8645 32.9223 91.4853 32.9455C91.1062 32.9688 90.765 32.9503 90.4615 32.8901C90.0633 32.811 89.7939 32.6787 89.6534 32.4931C89.6079 32.5235 89.5492 32.5709 89.4773 32.6355C89.4243 32.7038 89.3921 32.7664 89.3808 32.8233C89.3583 32.9371 89.2751 33.1078 89.1313 33.3355C89.0065 33.567 88.8684 33.7662 88.717 33.9333C88.5618 34.1193 88.4367 34.2028 88.3419 34.184C88.3419 34.184 88.3173 34.2087 88.2681 34.2581C88.2189 34.3074 88.2228 34.387 88.2798 34.4969C88.2798 34.4969 88.2496 34.5993 88.1892 34.8041C88.144 35.0317 88.059 35.2119 87.934 35.3448C87.9039 35.4965 87.8303 35.7184 87.7131 36.0105C87.596 36.3026 87.4845 36.517 87.3785 36.6537C87.3333 36.8812 87.2521 37.0918 87.1348 37.2853C87.0327 37.5016 86.9438 37.6022 86.8679 37.5871C86.7883 37.591 86.7183 37.6954 86.6579 37.9002C86.5938 38.124 86.5523 38.2833 86.5334 38.3781C86.4203 38.8484 86.1877 39.226 85.8354 39.5108C85.4795 39.8147 85.1877 39.944 84.9601 39.8988ZM90.5779 30.6661C90.7296 30.6963 91.0178 30.6845 91.4423 30.6308C91.8669 30.5772 92.3161 30.4988 92.7899 30.3958C93.2675 30.2738 93.6503 30.133 93.9382 29.9733C94.5178 29.6351 94.9818 29.2837 95.3302 28.9193C95.6974 28.5586 95.7707 28.0902 95.55 27.5142C95.451 27.2186 95.2252 27.0653 94.8726 27.0544C94.5427 27.0283 94.1523 27.1085 93.7013 27.2949C93.2504 27.4813 92.7768 27.7322 92.2805 28.0476C92.004 28.2489 91.7389 28.492 91.4853 28.7767C91.2316 29.0614 91.0083 29.3423 90.8153 29.6193C90.6413 29.9002 90.5241 30.143 90.4637 30.3478C90.4071 30.5337 90.4452 30.6398 90.5779 30.6661ZM106.289 37.3338C105.742 37.0085 105.332 36.5427 105.059 35.9364C104.807 35.3149 104.664 34.6952 104.629 34.0772C104.538 34.138 104.448 34.1988 104.357 34.2596C104.288 34.3052 104.198 34.366 104.084 34.442C103.739 34.6889 103.345 34.9359 102.902 35.1829C102.459 35.43 102.015 35.6278 101.572 35.7763C101.132 35.9058 100.717 35.912 100.326 35.795C100.064 35.5262 99.81 35.2687 99.563 35.0226C99.339 34.7613 99.187 34.4354 99.107 34.045C99.111 34.026 99.103 34.0147 99.084 34.0109C99.084 34.0109 99.086 34.0014 99.09 33.9825C99.025 33.5162 98.988 33.1049 98.98 32.7485C98.995 32.3769 99.108 31.9065 99.319 31.3375C99.55 30.7723 99.934 29.9812 100.471 28.9643C100.694 28.5355 100.926 28.1087 101.168 27.6837C101.414 27.2397 101.651 26.8432 101.878 26.494C102.108 26.1259 102.317 25.8223 102.502 25.5832C102.687 25.3441 102.845 25.1979 102.973 25.1446C103.068 25.1635 103.154 25.1804 103.229 25.1955C103.309 25.1916 103.387 25.1971 103.463 25.2122C103.633 25.2461 103.823 25.3823 104.032 25.6209C104.165 25.7458 104.286 25.8784 104.396 26.0185C104.526 26.1624 104.6 26.2855 104.619 26.3879C104.691 26.6191 104.57 27.0287 104.257 27.6169C103.943 28.205 103.58 28.8425 103.167 29.5293C102.778 30.201 102.409 30.8669 102.061 31.5271C101.736 32.1721 101.573 32.6918 101.574 33.0861C101.794 33.0707 101.997 33.0419 102.182 33C102.391 32.9428 102.584 32.8629 102.762 32.7603C103.13 32.5968 103.476 32.3896 103.802 32.139C104.128 31.8883 104.417 31.6206 104.671 31.3358C104.947 31.0359 105.171 30.755 105.341 30.4932C105.598 30.0909 105.825 29.7418 106.022 29.4458C106.223 29.1308 106.383 28.8671 106.504 28.6546C106.629 28.4231 106.718 28.2239 106.771 28.057C106.843 27.8939 106.892 27.7459 106.918 27.6132C106.967 27.2681 107.054 27.0291 107.179 26.8962C107.326 26.7482 107.569 26.6189 107.906 26.5085C108.058 26.5386 108.208 26.5782 108.356 26.6273C108.507 26.6574 108.648 26.6952 108.777 26.7405C108.902 26.9033 109.024 27.0852 109.142 27.286C109.282 27.4716 109.413 27.6553 109.535 27.8371C109.6 28.3034 109.477 28.8211 109.167 29.3903C108.88 29.9442 108.568 30.5229 108.231 31.1262C107.891 31.7485 107.588 32.3783 107.324 33.0156C107.082 33.6378 107.064 34.2255 107.269 34.7788C107.58 34.7025 107.876 34.6036 108.156 34.4818C108.44 34.3412 108.724 34.2005 109.009 34.0598C109.293 33.9191 109.573 33.7974 109.85 33.6947C110.116 33.9445 110.287 34.3235 110.363 34.8314C110.44 35.3394 110.444 35.764 110.376 36.1054C110.304 36.1699 110.225 36.2231 110.138 36.2649C110.07 36.3105 109.992 36.3543 109.905 36.3961C109.697 36.6504 109.363 36.8897 108.905 37.1141C108.45 37.3194 107.98 37.4528 107.495 37.5141C107.01 37.5755 106.608 37.5153 106.289 37.3338ZM122.267 28.9757C122.586 29.0587 122.827 29.2839 122.99 29.6515C123.173 30.0228 123.306 30.3449 123.39 30.6178C123.348 30.8264 123.254 31.1033 123.106 31.4485C122.982 31.7786 122.838 32.1049 122.675 32.4274C122.532 32.7536 122.394 33.0022 122.261 33.173C122.216 33.5977 122.05 34.0378 121.763 34.4931C121.494 34.9523 121.214 35.419 120.923 35.8934C120.677 36.3373 120.46 36.7869 120.271 37.2422C120.085 37.6785 120.006 38.126 120.034 38.5847C119.924 38.6418 119.789 38.7235 119.63 38.8299C119.49 38.94 119.35 39.0009 119.21 39.0124C118.834 39.1153 118.512 39.0513 118.242 38.8204C117.973 38.5895 117.785 38.2959 117.678 37.9396C117.575 37.5644 117.586 37.2118 117.711 36.8817C117.79 36.6807 117.922 36.362 118.108 35.9257C118.312 35.4932 118.544 35.017 118.805 34.4972C119.07 33.9584 119.325 33.4178 119.571 32.8753C119.835 32.3365 120.07 31.8508 120.274 31.4183C120.478 30.9858 120.61 30.6671 120.671 30.4623C120.678 30.4244 120.629 30.3751 120.523 30.3146C120.435 30.2579 120.32 30.1955 120.176 30.1274C120.035 30.0404 119.902 29.9648 119.777 29.9005C119.205 29.9051 118.685 30.0385 118.219 30.3007C117.776 30.5478 117.405 30.8289 117.106 31.144C116.826 31.4629 116.636 31.721 116.538 31.9183C116.497 32.0283 116.466 32.1307 116.448 32.2255C116.429 32.3203 116.44 32.4113 116.482 32.4985C116.68 32.8925 116.862 33.1653 117.029 33.3167C117.196 33.4681 117.352 33.5779 117.496 33.6459C117.644 33.695 117.779 33.7612 117.9 33.8444C118.021 33.9277 118.2 34.0222 118.435 34.128C118.693 34.2187 118.941 34.3074 119.18 34.3943C119.419 34.4812 119.575 34.5417 119.647 34.5757C119.848 34.7536 119.818 34.9546 119.557 35.1787C119.299 35.3838 119.019 35.5548 118.716 35.6917C118.178 35.9199 117.585 36.1767 116.937 36.4619C116.293 36.7282 115.665 37.0078 115.055 37.3006C114.904 37.369 114.752 37.4375 114.601 37.5059C114.468 37.5782 114.335 37.6504 114.203 37.7226C114.051 37.7911 113.898 37.869 113.743 37.9564C113.61 38.0286 113.477 38.1009 113.345 38.1731C113.189 38.2605 113.034 38.3479 112.879 38.4354C112.746 38.5076 112.589 38.4566 112.406 38.2824C111.997 38.1617 111.735 37.8928 111.62 37.4759C111.529 37.0438 111.481 36.6401 111.477 36.2647C111.783 36.0102 112.157 35.769 112.596 35.5409C113.058 35.2976 113.526 35.0751 114 34.8735C114.477 34.6529 114.896 34.4798 115.256 34.3542C114.869 34.0211 114.58 33.6878 114.39 33.3544C114.2 33.021 114.158 32.5889 114.263 32.0579C114.316 31.7924 114.41 31.5155 114.547 31.2272C114.686 30.9198 114.851 30.6371 115.04 30.3791C115.252 30.1058 115.453 29.8894 115.642 29.7299C115.688 29.6995 115.71 29.6843 115.71 29.6843C115.714 29.6653 115.729 29.6387 115.756 29.6046C116.047 29.2288 116.377 28.9099 116.744 28.6477C117.13 28.3894 117.542 28.2049 117.977 28.0944C118.144 28.0486 118.319 28.0143 118.501 27.9913C118.682 27.9683 118.861 27.9642 119.035 27.9792C119.251 27.9827 119.52 28.0164 119.843 28.0804C120.188 28.1292 120.518 28.2046 120.833 28.3066C121.17 28.3933 121.417 28.4915 121.573 28.6013C121.679 28.6618 121.791 28.7432 121.908 28.8454C122.03 28.9286 122.149 28.9721 122.267 28.9757ZM124.661 39.7992C124.619 39.712 124.514 39.5927 124.347 39.4413C124.18 39.2899 124.104 39.1762 124.119 39.1004C124.127 39.0624 124.127 39.0131 124.119 38.9525C124.13 38.8956 124.098 38.8596 124.022 38.8446C123.977 38.7764 124.046 38.5734 124.232 38.2357C124.436 37.9018 124.691 37.509 124.998 37.0574C125.323 36.6095 125.655 36.1825 125.992 35.7764C126.332 35.3512 126.616 35.0134 126.843 34.7628C126.949 34.7248 127.021 34.6602 127.059 34.5692C127.12 34.4629 127.131 34.406 127.093 34.3985C127.093 34.3985 127.157 34.3226 127.286 34.1707C127.437 34.0037 127.547 33.8974 127.615 33.8518C127.82 33.6164 127.986 33.3735 128.115 33.1231C128.247 32.8537 128.313 32.6205 128.313 32.4233C128.256 32.3134 128.176 32.268 128.074 32.2871C127.972 32.3062 127.92 32.3158 127.92 32.3158C127.841 32.3197 127.72 32.335 127.557 32.3618C127.416 32.3733 127.282 32.4058 127.153 32.459C126.656 32.6758 126.304 32.7635 126.095 32.7221C125.906 32.6844 125.761 32.4192 125.662 31.9265C125.628 31.7028 125.639 31.498 125.695 31.3122C125.752 31.1263 125.858 30.9897 126.013 30.9022C126.191 30.7996 126.407 30.7045 126.661 30.617C126.919 30.5105 127.091 30.4363 127.178 30.3945C127.413 30.3031 127.736 30.2193 128.145 30.1429C128.554 30.0665 128.799 30.0263 128.878 30.0224C129.402 29.9686 129.819 30.0515 130.13 30.271C130.445 30.4715 130.648 30.7878 130.74 31.2199C130.941 31.595 131.006 31.9627 130.935 32.323C130.863 32.6833 130.642 33.1026 130.271 33.5808L129.902 33.951C129.769 34.1218 129.732 34.2129 129.789 34.2242C129.864 34.2392 129.963 34.1898 130.084 34.0759C130.156 34.0113 130.292 33.9201 130.493 33.8023C130.694 33.6845 130.823 33.6312 130.88 33.6425C130.88 33.6425 130.901 33.6368 130.942 33.6254C131.003 33.6177 131.046 33.5475 131.073 33.4148C131.141 33.3692 131.209 33.3236 131.277 33.278C131.364 33.2362 131.408 33.2153 131.408 33.2153C131.484 33.2303 131.586 33.2112 131.715 33.158C131.867 33.0895 132.119 32.9621 132.471 32.7759C132.71 32.6656 132.914 32.6274 133.085 32.6613C133.548 32.6151 133.87 32.827 134.053 33.2969C134.254 33.7706 134.289 34.3393 134.158 35.003L133.255 36.4204L134.528 35.3722C134.672 35.2431 134.812 35.1329 134.948 35.0417C135.103 34.9543 135.236 34.8821 135.346 34.8251C135.41 34.6998 135.482 34.6353 135.562 34.6314C135.641 34.6275 135.681 34.6255 135.681 34.6255C135.681 34.6255 135.7 34.6293 135.738 34.6368C135.78 34.6254 135.806 34.5912 135.818 34.5343C135.927 34.4773 136.045 34.4317 136.17 34.3974C136.299 34.3441 136.39 34.2833 136.443 34.215C136.791 34.1463 137.184 34.2045 137.62 34.3897C138.06 34.5559 138.336 34.857 138.446 35.2928C138.534 35.5468 138.617 35.7703 138.697 35.9636C138.777 36.1569 138.783 36.4242 138.716 36.7655C138.621 37.0424 138.544 37.234 138.483 37.3402C138.442 37.4503 138.398 37.5697 138.353 37.6987C138.311 37.8087 138.241 38.0117 138.143 38.3076C138.037 38.4442 137.958 38.596 137.905 38.7629C137.871 38.9335 137.839 39.0947 137.809 39.2464C137.76 39.493 137.736 39.6655 137.736 39.7641C137.74 39.8437 137.808 39.8967 137.941 39.9231C138.217 39.9189 138.453 39.8769 138.646 39.797C138.862 39.7019 139.104 39.5726 139.373 39.4092C139.71 39.2002 139.964 39.2112 140.135 39.4423C140.329 39.6581 140.432 39.8855 140.443 40.1244C140.466 40.2077 140.394 40.3709 140.228 40.6138C140.061 40.8567 139.878 41.0863 139.677 41.3027C139.477 41.5191 139.329 41.6179 139.234 41.5991C139.177 41.5878 139.048 41.641 138.848 41.7588C138.647 41.8766 138.493 41.9546 138.387 41.9926C138.228 42.099 138.071 42.1959 137.916 42.2834C137.779 42.3745 137.635 42.4051 137.483 42.3749C137.408 42.3599 137.307 42.3695 137.182 42.4038C137.08 42.4229 136.962 42.4193 136.829 42.3929C136.628 42.4121 136.34 42.3253 135.965 42.1325C135.608 41.9434 135.414 41.629 135.383 41.1892C135.349 40.9655 135.288 40.6774 135.2 40.3249C135.131 39.9762 135.182 39.5723 135.352 39.1133C135.495 38.7871 135.605 38.4836 135.68 38.2029C135.756 37.9222 135.833 37.7306 135.913 37.6281C135.924 37.5713 135.95 37.4385 135.992 37.2299C136.037 37.0024 136.031 36.8829 135.974 36.8716C135.899 36.8566 135.737 36.9232 135.491 37.0714C135.245 37.2196 134.948 37.4266 134.599 37.6925C134.254 37.9394 133.895 38.2129 133.52 38.513C133.164 38.8168 132.836 39.1263 132.537 39.4414C132.325 39.6161 132.122 39.842 131.929 40.119C131.736 40.3961 131.608 40.5479 131.543 40.5745C131.38 40.6999 131.149 40.6737 130.849 40.4959C130.569 40.3218 130.377 40.0965 130.274 39.8199C130.24 39.6948 130.186 39.6152 130.114 39.5812C130.046 39.5282 129.991 39.4582 129.949 39.371C129.93 39.2687 129.966 39.0885 130.057 38.8306C130.166 38.5764 130.374 38.1742 130.68 37.624C131.017 37.0207 131.312 36.4781 131.565 35.9962C131.842 35.4991 131.98 35.2506 131.98 35.2506C131.995 35.1747 131.837 35.2223 131.508 35.3934C131.182 35.5455 130.797 35.7451 130.354 35.9922C130.142 36.1669 129.862 36.3872 129.513 36.653C129.184 36.9227 128.796 37.2398 128.349 37.6044C127.921 37.9728 127.43 38.4076 126.877 38.9089C126.173 39.5772 125.662 39.9684 125.343 40.0826C125.044 40.2005 124.816 40.1061 124.661 39.7992ZM148.027 45.4738C147.875 45.2465 147.774 44.9604 147.724 44.6154C147.678 44.2515 147.642 43.8401 147.614 43.3814C147.607 43.2222 147.622 43.0477 147.659 42.8581C147.716 42.6722 147.746 42.5205 147.75 42.403C147.666 42.5244 147.538 42.6763 147.363 42.8585C147.208 43.0445 147.064 43.1736 146.932 43.2458C146.841 43.3066 146.64 43.4244 146.329 43.5993C146.022 43.7552 145.723 43.8731 145.431 43.9531C144.726 44.2271 144.129 44.3056 143.64 44.1888C143.173 44.0567 142.805 43.7274 142.535 43.2007C142.281 42.8939 142.096 42.5321 141.982 42.1152C141.868 41.6983 141.92 41.2356 142.139 40.7272C142.309 40.0711 142.532 39.4451 142.808 38.8495C143.088 38.2349 143.57 37.4437 144.255 36.4759C144.808 35.7774 145.232 35.2309 145.527 34.8361C145.822 34.4414 146.006 34.2118 146.077 34.1472C146.381 34.1089 146.73 34.188 147.124 34.3846C147.523 34.5623 147.714 34.7876 147.7 35.0606C147.776 35.2729 147.704 35.6332 147.485 36.1415C147.27 36.631 146.925 37.1736 146.452 37.7696C146.059 38.3616 145.678 38.9365 145.311 39.4944C144.963 40.056 144.719 40.5398 144.58 40.9457C144.459 41.3553 144.522 41.6339 144.769 41.7815C144.92 41.9102 145.169 41.9496 145.514 41.8999C145.878 41.8539 146.344 41.5916 146.912 41.1131C147.48 40.6346 148.142 39.8298 148.899 38.6989C149.126 38.3498 149.306 38.0405 149.438 37.7711C149.574 37.4828 149.687 37.1603 149.778 36.8038C149.785 36.5687 149.889 36.343 150.09 36.1266C150.309 35.9139 150.546 35.7639 150.8 35.6763C150.895 35.5965 151.016 35.5319 151.164 35.4824C151.315 35.414 151.401 35.4309 151.42 35.5333L151.881 35.5952C151.96 35.5913 152.03 35.6841 152.091 35.8736C152.152 36.0631 152.223 36.2052 152.302 36.2998C152.477 36.5119 152.499 36.9005 152.367 37.4657C152.235 38.0308 151.849 38.7821 151.209 39.7195C150.695 40.4254 150.332 40.9643 150.12 41.3362C149.927 41.7118 149.783 42.0874 149.689 42.4629C149.621 42.8042 149.591 43.1038 149.599 43.3616C149.611 43.6004 149.735 43.8714 149.97 44.1744C150.152 44.3485 150.221 44.5987 150.176 44.9248C150.154 45.2358 150.11 45.5031 150.046 45.7269C149.974 45.8901 149.8 45.9737 149.523 45.9779C149.262 46.0048 148.983 45.9692 148.687 45.871C148.41 45.7766 148.19 45.6442 148.027 45.4738ZM155.028 47.4554C153.985 47.2483 153.24 46.7848 152.791 46.0651C152.362 45.349 152.271 44.3652 152.52 43.1137C152.655 42.431 152.927 41.7064 153.336 40.94C153.763 40.1773 154.263 39.4486 154.834 38.754C155.425 38.0631 156.033 37.484 156.658 37.0168C157.286 36.5306 157.879 36.2246 158.436 36.0987C158.645 36.0415 158.857 36.0147 159.073 36.0182C159.312 36.0065 159.536 36.0213 159.745 36.0628C159.972 36.1079 160.215 36.1759 160.473 36.2665C160.753 36.342 161.008 36.4516 161.235 36.5953C161.645 36.8147 161.974 37.146 162.221 37.5893C162.487 38.0363 162.548 38.6201 162.405 39.3407C162.367 39.5303 162.307 39.7352 162.224 39.9552C162.145 40.1563 162.037 40.3517 161.901 40.5414C161.53 41.1183 161.032 41.6403 160.407 42.1075C159.801 42.5785 159.2 42.8732 158.605 42.9916C158.438 43.0373 158.275 43.064 158.116 43.0718C157.98 43.0645 157.836 43.0457 157.684 43.0156C157.286 42.9365 156.937 42.8081 156.637 42.6303C156.356 42.4562 156.102 42.2481 155.874 42.0057L155.686 41.7614L155.487 42.0176C155.283 42.3516 155.128 42.6361 155.022 42.8714C154.935 43.1104 154.88 43.2867 154.858 43.4005C154.813 43.6281 154.775 43.867 154.745 44.1173C154.719 44.3486 154.738 44.5495 154.803 44.7201C154.86 44.8299 154.94 44.9246 155.042 45.0041C155.163 45.0873 155.319 45.1478 155.509 45.1855C155.622 45.208 155.727 45.2288 155.821 45.2476C155.939 45.2512 156.038 45.2511 156.117 45.2472C156.474 45.2391 156.773 45.1704 157.016 45.0412C157.281 44.8968 157.55 44.7826 157.823 44.6988L157.948 44.6645L157.936 44.5736C158.293 44.4669 158.531 44.4059 158.653 44.3906C158.778 44.3563 158.872 44.3258 158.937 44.2992C159.028 44.2384 159.121 44.2174 159.215 44.2362C159.488 44.251 159.729 44.3777 159.938 44.6163C160.17 44.8397 160.259 45.0841 160.207 45.3496C160.184 45.4634 160.063 45.6266 159.843 45.8392C159.643 46.0556 159.395 46.2626 159.099 46.4602C158.826 46.6425 158.554 46.7756 158.281 46.8594C158.22 46.8671 158.157 46.8842 158.093 46.9109C158.032 46.9185 157.97 46.9357 157.905 46.9623L157.934 46.968C157.718 47.1616 157.525 47.2415 157.354 47.2076L157.127 47.1624C157.024 47.2801 156.75 47.3734 156.302 47.4422C155.851 47.5301 155.427 47.5345 155.028 47.4554ZM157.869 40.8939C158.039 40.9278 158.197 40.9295 158.341 40.899C158.504 40.8722 158.659 40.8341 158.807 40.7846C159.326 40.5526 159.703 40.1937 159.937 39.7081C160.172 39.2225 160.201 38.8243 160.027 38.5136C160 38.4492 159.96 38.4019 159.907 38.3716C159.858 38.3224 159.795 38.2902 159.719 38.2752C159.511 38.2338 159.26 38.2531 158.968 38.3331C158.696 38.4169 158.411 38.5576 158.116 38.7551C157.82 38.9527 157.535 39.2014 157.258 39.5014L156.77 40.0253C156.811 40.0138 156.842 40.01 156.861 40.0138C156.902 40.0023 156.933 39.9985 156.952 40.0023C157.122 40.0362 157.225 40.1156 157.259 40.2407C157.293 40.3658 157.337 40.4927 157.391 40.6216C157.463 40.7542 157.622 40.845 157.869 40.8939Z" fill="#5E8BDC"></path></svg> 