<?xml version="1.0" encoding="UTF-8"?> <svg xmlns="http://www.w3.org/2000/svg" width="151" height="47" viewBox="0 0 151 47" fill="none"><path d="M8.16776 21.8035C8.11052 21.8433 7.96574 21.8558 7.73341 21.841C7.5204 21.8258 7.28732 21.7723 7.03416 21.6805C6.8007 21.6077 6.61519 21.5146 6.47762 21.4013C6.3988 21.3255 6.31979 21.24 6.2406 21.1448C6.16102 21.0304 6.11861 20.8378 6.11335 20.5672C6.12741 20.2962 6.18661 19.86 6.29095 19.2585C6.36075 18.8704 6.44951 18.4626 6.55722 18.0351C6.66493 17.6076 6.76411 17.2383 6.85474 16.9271C6.94538 16.616 6.9907 16.4604 6.9907 16.4604C7.08659 16.4198 7.21627 16.1273 7.37971 15.5827C7.56249 15.0377 7.76234 14.3763 7.97927 13.5986C8.05133 13.3265 8.1778 12.8696 8.3587 12.228C8.5396 11.5864 8.72087 10.964 8.90252 10.3611C9.06558 9.79707 9.22148 9.35897 9.37008 9.04667C9.51868 8.73447 9.59298 8.57827 9.59298 8.57827C9.59298 8.57827 9.47838 8.64817 9.24898 8.78797C9.01968 8.92787 8.72365 9.11727 8.3609 9.35637C7.99814 9.59547 7.61681 9.87357 7.2169 10.1908C6.89205 10.3905 6.52038 10.6684 6.10189 11.0246C5.70235 11.3611 5.33069 11.6391 4.98688 11.8585C4.47287 12.2745 4.12035 12.5424 3.9293 12.6622C3.75759 12.7815 3.58381 12.7946 3.40797 12.7013C3.15255 12.4936 2.90491 12.189 2.66507 11.7876C2.44418 11.3664 2.38984 11.0581 2.50206 10.8626C2.54034 10.8425 2.6643 10.753 2.87392 10.5943C3.10287 10.4351 3.36025 10.2464 3.64606 10.0282C3.93187 9.80987 4.18907 9.61147 4.41764 9.43307C4.66554 9.25417 4.83726 9.13477 4.93278 9.07497C4.99077 9.07387 5.09577 9.00407 5.24777 8.86577C5.39978 8.72747 5.56164 8.59867 5.73335 8.47927C5.82775 8.36147 6.16094 8.09387 6.73294 7.67667C7.30494 7.25947 7.92433 6.79305 8.5911 6.27732C9.29768 5.81884 9.92858 5.44884 10.4839 5.16733C11.0392 4.88582 11.3557 4.75398 11.4334 4.7718C11.4914 4.77067 11.628 4.8357 11.8433 4.96687C12.0779 5.09767 12.3031 5.24799 12.5192 5.41782C12.7352 5.58766 12.854 5.73037 12.8755 5.84598C12.9942 5.97903 12.9422 6.28943 12.7196 6.77718C12.6457 6.95265 12.5262 7.27407 12.3613 7.74137C12.196 8.18927 12.0128 8.71497 11.8118 9.31827C11.6298 9.90197 11.4478 10.4856 11.2658 11.0693C11.1027 11.6332 10.9671 12.1193 10.859 12.5275C10.716 13.1297 10.5801 13.5964 10.4511 13.9277C10.3416 14.2585 10.2318 14.5797 10.1218 14.8912C10.0308 15.1831 9.92268 15.5912 9.79748 16.1158C9.66828 16.4277 9.53098 16.8267 9.38568 17.313C9.25938 17.7795 9.14278 18.2459 9.03588 18.7121C8.92851 19.1589 8.84866 19.5279 8.79631 19.8189C8.64994 20.2472 8.53237 20.6652 8.44362 21.073C8.35486 21.4808 8.26291 21.7243 8.16776 21.8035ZM17.1308 23.0216C16.8386 22.9112 16.4971 22.7535 16.1064 22.5484C15.7161 22.3626 15.3437 22.1088 14.9894 21.7869C14.6351 21.4651 14.3568 21.0741 14.1545 20.6139C13.9503 20.0571 13.8042 19.5089 13.7164 18.9691C13.6479 18.429 13.6164 17.8012 13.6218 17.0856C13.6022 16.0805 13.653 15.2093 13.774 14.4722C13.914 13.7153 14.1311 12.9473 14.4254 12.1681C14.4629 12.1093 14.5274 11.9437 14.6187 11.6712C14.7291 11.379 14.8487 11.0673 14.9776 10.7361C15.1259 10.4045 15.237 10.1509 15.3109 9.97547C15.4592 9.64377 15.6827 9.20437 15.9814 8.65717C16.2991 8.09017 16.6366 7.54217 16.9937 7.01316C17.5381 6.17109 17.9985 5.48535 18.3749 4.95593C18.751 4.40719 19.1095 3.9458 19.4503 3.57177C19.8104 3.19737 20.1997 2.83207 20.6182 2.47587C21.056 2.11929 21.5992 1.71232 22.2478 1.25497C22.667 0.937428 23.2045 0.733608 23.8602 0.643518C24.5352 0.553048 25.1945 0.646578 25.838 0.924128C26.4811 1.18235 26.9649 1.69504 27.2892 2.46222C27.5097 2.86401 27.6163 3.37437 27.609 3.99329C27.6013 4.59289 27.4979 5.24269 27.2988 5.94269C27.0993 6.62336 26.8411 7.26647 26.5242 7.87207C26.2072 8.47767 25.8493 8.96807 25.4506 9.34327C25.2038 9.58007 24.8663 9.62537 24.438 9.47897C24.0291 9.33217 23.6869 9.13587 23.4114 8.88977C23.231 8.56457 23.1306 8.37317 23.1101 8.31557C23.109 8.25757 23.1469 8.21817 23.2239 8.19727C23.3372 8.05977 23.4873 7.82477 23.6742 7.49247C23.8612 7.16007 24.0477 6.80837 24.2338 6.43735C24.4196 6.047 24.5489 5.73509 24.6217 5.50163C24.7606 4.68678 24.8566 4.15315 24.9097 3.90074C24.9624 3.62899 24.9001 3.40783 24.7227 3.23724C24.6439 3.16143 24.5274 3.13469 24.3731 3.15702C24.2382 3.17898 24.0081 3.28014 23.6829 3.46049C23.2421 3.66243 22.7182 4.06902 22.1113 4.68027C21.5233 5.2718 20.9377 5.97932 20.3542 6.80281C19.6009 7.84227 18.9711 8.76337 18.4646 9.56607C17.9581 10.3688 17.5776 11.1883 17.3231 12.0247C17.286 12.1028 17.2211 12.2491 17.1286 12.4636C17.0554 12.6777 17.0188 12.7848 17.0188 12.7848C17.0397 12.8617 17.0144 13.0556 16.9431 13.3664C16.8714 13.6578 16.7893 13.9108 16.6968 14.1253C16.5015 15.0186 16.3926 15.8812 16.3701 16.7131C16.3472 17.5257 16.4094 18.24 16.5567 18.8559C16.723 19.4521 16.954 19.8924 17.2495 20.1767C17.5042 20.3458 17.8243 20.3976 18.2097 20.3321C18.5952 20.2666 19.0372 20.1226 19.5356 19.9002C20.034 19.6778 20.5708 19.4354 21.1458 19.1728C21.6059 18.9705 22.027 18.7496 22.4091 18.5101C22.7912 18.2706 23.0772 18.0621 23.2671 17.8843C23.4195 17.7653 23.6106 17.6456 23.8403 17.5251C24.0889 17.3849 24.3002 17.3131 24.4742 17.3098C24.7429 17.2079 24.9474 17.2812 25.0876 17.5299C25.2278 17.7785 25.3016 18.0962 25.3091 18.4828C25.3144 18.7534 25.1275 19.0857 24.7484 19.4798C24.3693 19.8739 23.9505 20.2108 23.4918 20.4905C23.3402 20.6481 23.1304 20.7972 22.8624 20.9378C22.6134 21.0586 22.3545 21.17 22.0857 21.2719C21.6858 21.5891 21.1891 21.8985 20.5955 22.2001C20.0019 22.5017 19.3973 22.7358 18.7818 22.9024C18.1856 23.0687 17.6353 23.1084 17.1308 23.0216ZM31.1116 13.236C30.7083 13.3792 30.3713 13.4534 30.1007 13.4587C29.8297 13.4446 29.5277 13.3248 29.1946 13.0992C28.8005 12.7201 28.6673 12.336 28.7951 11.9468C28.9225 11.5382 29.2627 11.1352 29.8158 10.7377C30.1979 10.4982 30.4759 10.3768 30.6499 10.3734C30.8428 10.3503 31.1244 10.4125 31.4947 10.56C32.1404 10.9536 32.4295 11.4024 32.362 11.9064C32.3134 12.3908 31.8966 12.834 31.1116 13.236ZM29.2003 19.3643C28.797 19.5075 28.4601 19.5817 28.1895 19.587C27.9185 19.5729 27.6164 19.4531 27.2833 19.2275C26.8892 18.8484 26.756 18.4643 26.8838 18.0751C27.0112 17.6665 27.3515 17.2635 27.9045 16.866C28.2866 16.6265 28.5646 16.5051 28.7386 16.5017C28.9315 16.4786 29.2131 16.5408 29.5834 16.6883C30.2292 17.0819 30.5183 17.5307 30.4507 18.0347C30.4021 18.5191 29.9853 18.9623 29.2003 19.3643ZM48.6527 0.567668C49.0605 0.656428 49.394 0.901328 49.6532 1.30237C49.9124 1.70341 49.9695 2.15672 49.8246 2.66229C49.7894 2.83701 49.7346 3.00244 49.6603 3.15858C49.6053 3.31435 49.5406 3.4703 49.4663 3.62644C49.3359 3.88036 49.1694 4.27033 48.967 4.79637C48.7645 5.3224 48.5432 5.87781 48.3032 6.46258C48.0822 7.02765 47.8793 7.53437 47.6946 7.98267C47.51 8.43107 47.3801 8.71397 47.3051 8.83147C47.1197 9.24107 46.9244 9.64127 46.7193 10.0321C46.5142 10.4228 46.2994 10.8137 46.075 11.2048C45.777 11.7907 45.4498 12.3675 45.0934 12.9352C44.7564 13.5025 44.4191 14.0602 44.0817 14.6082C43.9695 14.8037 43.7629 15.1171 43.4619 15.5484C43.1609 15.9797 42.8597 16.4013 42.5583 16.8132C42.2569 17.2251 42.0401 17.5097 41.9078 17.667C41.551 18.2154 41.1549 18.7258 40.7193 19.1984C40.2837 19.671 39.848 20.1338 39.412 20.5871C39.1471 20.8823 38.9482 21.0988 38.8156 21.2368C38.6833 21.3941 38.5602 21.5318 38.4465 21.65C38.3332 21.7876 38.1626 21.9649 37.9348 22.1821C37.52 22.7316 37.0191 22.8283 36.4321 22.4723C36.0994 22.2661 35.8629 22.0387 35.7227 21.79C35.6022 21.5603 35.5972 21.2993 35.7075 21.0071C35.7447 20.9291 35.8578 20.7818 36.047 20.5655C36.2358 20.3298 36.4627 20.0643 36.7276 19.7691C37.0116 19.4542 37.2959 19.1586 37.5806 18.8823C37.8649 18.5868 38.102 18.3501 38.2919 18.1724C38.6888 17.7006 38.9911 17.337 39.1989 17.0816C39.4066 16.8261 39.5764 16.6101 39.7084 16.4335C39.2324 15.824 38.8134 15.1553 38.4512 14.4276C38.1079 13.6801 37.884 13.1044 37.7795 12.7003C37.7579 12.5847 37.7363 12.4691 37.7147 12.3535C37.6931 12.2379 37.6619 12.1225 37.621 12.0073L37.237 10.1584C37.2715 9.94497 37.2683 9.78067 37.2274 9.66547C37.2054 9.53047 37.1829 9.36657 37.1598 9.17367L36.9731 4.04332C36.9749 4.13996 36.9742 4.10131 36.9708 3.92734C36.9868 3.753 37.0016 3.52066 37.0153 3.23034C37.0479 2.92032 37.0709 2.61048 37.0842 2.30083C37.0972 1.97185 37.1112 1.70086 37.1264 1.48785C37.1443 1.41016 37.1412 1.25552 37.1174 1.02394C37.1129 0.791988 37.1666 0.568568 37.2784 0.353688C37.3903 0.138798 37.6201 0.0279783 37.9681 0.0212183C38.2762 -0.0427817 38.5969 0.0379982 38.93 0.263568C39.2631 0.489138 39.5102 0.764718 39.6712 1.09032C39.8515 1.41555 39.867 1.71497 39.7176 1.98859C39.643 2.1254 39.617 2.2806 39.6397 2.45419C39.6817 2.62741 39.6766 2.85955 39.6242 3.15063C39.6079 3.30564 39.5845 3.59615 39.5541 4.02215C39.5427 4.42845 39.5326 4.9024 39.5238 5.44401C39.5146 5.96629 39.5147 6.46905 39.5241 6.95229C39.5524 7.41587 39.5789 7.78267 39.6035 8.05297C39.6009 7.91767 39.6012 7.93697 39.6046 8.11097C39.6269 8.26517 39.6604 8.49657 39.7051 8.80517C39.7498 9.11367 39.785 9.43207 39.8107 9.76027C39.8557 10.0881 39.89 10.3582 39.9135 10.5704C39.9366 10.7634 39.9805 11.0332 40.0452 11.38C40.1289 11.7071 40.2229 12.063 40.327 12.4478C40.4505 12.8321 40.574 13.2164 40.6975 13.6008C40.84 13.9654 40.972 14.2916 41.0936 14.5793L41.4894 14.0495C41.6023 13.8926 41.706 13.7552 41.8004 13.6373C41.8944 13.5002 41.9691 13.3633 42.0245 13.2269C42.1716 12.8373 42.3581 12.4856 42.5841 12.1718C42.81 11.8581 42.9877 11.5452 43.117 11.2333C43.3221 10.8426 43.5183 10.4907 43.7055 10.1777C43.9122 9.86427 44.0898 9.55137 44.2384 9.23907L46.0537 5.63614C46.2532 4.95547 46.4809 4.23557 46.7369 3.47646C47.0118 2.69763 47.1812 1.95954 47.245 1.26216C47.3523 0.815328 47.6089 0.587958 48.0148 0.580068C48.0148 0.580068 48.1018 0.578378 48.2758 0.574998C48.4494 0.552288 48.575 0.549848 48.6527 0.567668ZM49.0925 20.3119C48.5899 20.3217 48.2492 20.2026 48.0703 19.9547C47.8911 19.6874 47.7208 19.3814 47.5594 19.0364C47.553 18.7078 47.5944 18.3493 47.6835 17.9608C47.7916 17.5526 47.9283 17.1246 48.0936 16.6766C48.2586 16.2093 48.4237 15.7517 48.5891 15.3037C48.657 14.819 48.7833 14.3524 48.9679 13.9041C49.1526 13.4558 49.2988 13.0178 49.4065 12.5903C49.5149 12.2015 49.6141 11.8321 49.704 11.4823C49.8128 11.1128 49.9221 10.7626 50.0316 10.4318C50.0264 10.1612 50.0702 9.92827 50.1631 9.73307C50.2749 9.51817 50.4167 9.35107 50.5884 9.23167C50.7601 9.11237 50.9523 9.05057 51.1649 9.04647C51.3791 9.11967 51.5345 9.15527 51.6311 9.15337C51.7471 9.15117 51.8434 9.12997 51.9199 9.08977C52.0154 9.02987 52.2178 8.99697 52.5271 8.99097C52.8364 8.98497 53.165 8.97857 53.5129 8.97177C53.8609 8.96507 54.1216 8.95027 54.2952 8.92757C54.6234 8.90187 54.914 8.92527 55.1667 8.99767C55.4195 9.07007 55.6716 9.10387 55.9229 9.09897C56.3318 9.24577 56.7219 9.42187 57.0933 9.62737C57.4837 9.81317 57.7882 10.0586 58.0068 10.3638C58.2448 10.6685 58.3491 11.0629 58.3199 11.5469C58.2671 11.8186 58.2347 12.1383 58.2225 12.506C58.2296 12.8732 58.1301 13.2232 57.9238 13.556C57.9071 13.6917 57.8161 13.9835 57.6508 14.4314C57.4851 14.8601 57.3101 15.3082 57.1258 15.7759C56.9609 16.2432 56.8617 16.6125 56.8283 16.8839C56.7923 17.02 56.7564 17.1657 56.7208 17.3211C56.6851 17.4765 56.6495 17.6318 56.6138 17.7872C56.5615 18.0783 56.4993 18.3599 56.4272 18.632C56.3548 18.8848 56.2335 19.1095 56.0632 19.3062C55.7979 19.5821 55.4812 19.7043 55.1132 19.6728C54.7448 19.6219 54.4323 19.4636 54.1758 19.1979C53.9192 18.9322 53.8065 18.6056 53.8377 18.2183C53.8343 18.0443 53.8486 17.783 53.8805 17.4343C53.9124 17.0856 53.9446 16.7562 53.9773 16.4462C54.0122 16.2522 54.0575 16.0966 54.1132 15.9795C54.1879 15.8427 54.2342 15.7354 54.252 15.6577C54.4549 15.151 54.6374 14.5964 54.7998 13.9938C54.9814 13.3908 55.1252 12.8272 55.231 12.3031C55.3364 11.7596 55.3958 11.333 55.4092 11.0234C55.1385 11.0286 54.82 11.0542 54.4535 11.1C54.1059 11.1261 53.7777 11.1518 53.4688 11.1771C53.1792 11.2021 52.9668 11.2159 52.8315 11.2185C52.7155 11.2208 52.648 11.2317 52.6291 11.2514C52.6097 11.2518 52.5913 11.3005 52.5739 11.3975C52.4673 11.883 52.3135 12.4275 52.1125 13.0308C51.9305 13.6145 51.7955 14.1295 51.7075 14.576C51.6912 14.731 51.6186 14.9741 51.4896 15.3054C51.3603 15.6173 51.2221 15.968 51.075 16.3576C50.9275 16.7279 50.7991 17.0881 50.6899 17.4383C50.5803 17.7692 50.5178 18.0314 50.5022 18.2251C50.3888 18.3627 50.3149 18.5381 50.2804 18.7515C50.2652 18.9645 50.2498 19.1678 50.2342 19.3615C50.183 19.7106 50.0425 19.9454 49.8128 20.0658C49.6021 20.1666 49.362 20.2486 49.0925 20.3119ZM60.5866 25.6285C60.3175 25.7111 60.0359 25.6489 59.7418 25.4419C59.4671 25.2345 59.2488 24.9487 59.087 24.5845C58.9446 24.2198 58.9372 23.8429 59.065 23.4537C59.1014 23.3369 59.1557 23.1425 59.2277 22.8704C59.3002 22.6176 59.3442 22.3944 59.3597 22.2007C59.3764 22.065 59.4299 21.8319 59.5202 21.5015C59.6108 21.1903 59.7111 20.879 59.8211 20.5674C59.9504 20.2555 60.0524 20.0312 60.1271 19.8944C60.2393 19.6988 60.3123 19.475 60.3461 19.223C60.3992 18.9706 60.4244 18.7767 60.4218 18.6414C60.4578 18.5053 60.5031 18.3498 60.5577 18.1747C60.6317 17.9992 60.7063 17.8624 60.7818 17.7642C60.8174 17.6088 60.8722 17.4434 60.9462 17.2679C61.0197 17.0731 61.1035 16.9071 61.1975 16.77C61.2336 16.6339 61.2594 16.469 61.2749 16.2754C61.3098 16.0813 61.3658 15.9739 61.4427 15.953C61.4605 15.8753 61.4687 15.7978 61.4672 15.7205C61.485 15.6428 61.5216 15.5358 61.577 15.3993C61.6115 15.186 61.6925 14.875 61.8199 14.4664C61.9473 14.0579 62.103 13.6101 62.2869 13.1231C62.4886 12.5584 62.6242 12.0723 62.6936 11.6649C62.7627 11.2382 62.6511 10.9696 62.3589 10.8593C62.2028 10.785 62.1027 10.6129 62.0588 10.343C62.0145 10.0538 62.0282 9.76347 62.0999 9.47197C62.1716 9.18057 62.2842 9.00437 62.4377 8.94337C62.6101 8.86267 62.8218 8.81017 63.0727 8.78597C63.3236 8.76177 63.5459 8.75747 63.7396 8.77297C63.9522 8.76887 64.0493 8.78637 64.0307 8.82537C64.0326 8.92207 64.082 8.97907 64.179 8.99657C64.2166 8.93777 64.2956 9.02327 64.4161 9.25297C64.5555 9.46297 64.6858 9.70217 64.8071 9.97047C64.9283 10.2389 64.9899 10.4214 64.9918 10.518C64.9546 10.5961 64.9362 10.6448 64.9366 10.6641C64.9366 10.6641 64.9752 10.6634 65.0526 10.6619C65.0526 10.6619 65.1579 10.6115 65.3687 10.5107C65.5791 10.3906 65.7989 10.2606 66.0282 10.1208C66.2765 9.96127 66.4386 9.84207 66.5144 9.76327C66.5144 9.76327 66.5623 9.74297 66.6582 9.70247C66.7731 9.64227 66.8684 9.57267 66.9442 9.49387C67.3278 9.33177 67.7428 9.29467 68.1893 9.38267C68.6551 9.47027 69.0257 9.63707 69.3012 9.88317C69.6972 10.3589 69.9988 10.9525 70.206 11.6639C70.4325 12.375 70.4171 13.0714 70.1596 13.7532C70.1228 13.8506 70.039 14.0166 69.9082 14.2512C69.7964 14.4661 69.6844 14.6713 69.5721 14.8668C69.4595 15.0431 69.4032 15.1312 69.4032 15.1312C68.9722 15.8357 68.4906 16.4252 67.9583 16.8996C67.4455 17.3737 66.8831 17.7907 66.2713 18.1506C66.0807 18.2897 65.8125 18.4206 65.4668 18.5433C65.1405 18.6657 64.8329 18.7587 64.5441 18.8223C64.2746 18.8856 64.1105 18.8984 64.0517 18.8609C63.8361 18.7104 63.6364 18.3855 63.4527 17.8863C63.3609 18.1395 63.2691 18.3927 63.1774 18.6458C63.1046 18.8793 63.0592 19.0349 63.0414 19.1126C63.0247 19.2483 63.0076 19.3646 62.9902 19.4616C62.9724 19.5393 62.9254 19.6079 62.8492 19.6674C62.8492 19.6674 62.8403 19.7063 62.8224 19.784C62.8046 19.8616 62.7392 19.9789 62.6262 20.1358C62.4438 20.7002 62.2976 21.1381 62.1877 21.4496C62.0781 21.7805 61.9865 22.0433 61.913 22.2381C61.8591 22.4518 61.8054 22.6753 61.7519 22.9083C61.7234 23.431 61.6085 23.9843 61.4071 24.5684C61.2251 25.152 60.9516 25.5054 60.5866 25.6285ZM64.7236 16.1213C64.8002 16.0812 64.9342 16.0109 65.1256 15.9105C65.3363 15.8097 65.566 15.6892 65.8147 15.549C66.063 15.3895 66.2921 15.24 66.5021 15.1006C66.7311 14.9414 66.8927 14.8029 66.9871 14.6851C67.1384 14.5081 67.2227 14.3711 67.2402 14.2741C67.2573 14.1577 67.302 13.9731 67.3744 13.7203C67.4294 13.5646 67.4937 13.3893 67.5673 13.1945C67.6408 12.9997 67.7049 12.8147 67.7595 12.6397C67.8338 12.4835 67.8598 12.3283 67.8375 12.1741C67.8341 12.0001 67.7733 11.8562 67.6551 11.7425C67.5774 11.7247 67.3943 11.7573 67.1059 11.8402C66.8367 11.9228 66.5208 12.0836 66.1581 12.3227C65.8146 12.5614 65.4733 12.9065 65.134 13.3578C64.7382 13.8876 64.4768 14.3664 64.3497 14.7943C64.2223 15.2029 64.1997 15.5321 64.2819 15.7818C64.3638 16.0123 64.511 16.1254 64.7236 16.1213ZM73.0512 19.4111C72.9708 19.258 72.7939 19.1067 72.5202 18.9573C72.266 18.8076 72.1381 18.694 72.1366 18.6167C72.1351 18.5394 72.0845 18.4244 71.9848 18.2716C71.9041 18.0991 71.8244 17.975 71.7455 17.8992C71.6466 17.7851 71.6702 17.5042 71.8162 17.0567C71.9618 16.5897 72.1829 16.0247 72.4794 15.3614C72.7759 14.6982 73.1012 14.0248 73.4553 13.3411C73.6069 13.1835 73.7576 12.9775 73.9074 12.7232C74.0571 12.4689 74.1699 12.3023 74.2457 12.2235C74.2442 12.1462 74.2719 12.078 74.3287 12.0189C74.3852 11.9404 74.4521 11.9004 74.5295 11.8989L74.7524 11.4305C74.7895 11.3525 74.9025 11.1956 75.0913 10.9598C75.2994 10.7238 75.5458 10.4676 75.8305 10.1913C76.1148 9.89577 76.3995 9.61947 76.6846 9.36257C76.989 9.10527 77.2367 8.91677 77.4277 8.79697C77.8284 8.51847 78.2415 8.38477 78.6672 8.39587C79.1121 8.40657 79.4917 8.53447 79.8058 8.77977C79.8649 8.83667 79.9928 8.95017 80.1895 9.12037C80.4055 9.29027 80.6412 9.47897 80.8967 9.68677C81.1714 9.89417 81.4071 10.0829 81.6038 10.2531L82.6952 11.1891L82.2305 12.6484C81.9942 13.4265 81.9397 14.1043 82.067 14.682C82.1942 15.2596 82.3876 15.7586 82.6472 16.179C82.7479 16.3897 82.8768 16.5516 83.0337 16.6646C83.2099 16.7772 83.4337 16.8502 83.7051 16.8836C83.8601 16.8999 84.0062 16.9551 84.1434 17.0491C84.2805 17.1431 84.3512 17.2964 84.3553 17.509C84.3644 17.973 84.2839 18.3129 84.1141 18.5289C83.9632 18.7252 83.7915 18.8446 83.599 18.887C82.9626 18.9767 82.3524 18.9209 81.7684 18.7196C81.1843 18.5182 80.6517 17.9774 80.1705 17.0973C80.091 16.9828 79.9805 16.7723 79.8392 16.4656C79.7168 16.1393 79.6451 15.928 79.6238 15.8317C79.5484 15.9298 79.4445 16.0575 79.3122 16.2148C79.1989 16.3524 79.0853 16.4803 78.9716 16.5985C77.6263 18.0169 76.4648 18.9483 75.4873 19.3927C74.5287 19.8175 73.7166 19.8236 73.0512 19.4111ZM74.5991 16.9736C74.7348 16.9903 74.9461 16.9185 75.233 16.7582C75.5196 16.5786 75.9007 16.2908 76.3765 15.8948C77.0228 15.3215 77.555 14.847 77.9731 14.4715C78.3912 14.096 78.7976 13.6143 79.1922 13.0265L79.8098 11.9703C79.6079 11.5295 79.4283 11.2429 79.271 11.1106C79.1138 10.9783 78.9578 10.9137 78.8032 10.9167C78.5519 10.9216 78.2555 11.0917 77.9139 11.4271C77.572 11.7431 77.1848 12.2147 76.7522 12.8419C76.3386 13.4494 75.87 14.2127 75.3464 15.1317C75.1034 15.5618 74.9182 15.9812 74.7908 16.3897C74.663 16.7789 74.5991 16.9736 74.5991 16.9736ZM89.9502 9.45277C90.3145 9.29097 90.659 9.11027 90.9839 8.91057C91.3087 8.71087 91.614 8.50187 91.8999 8.28367C92.205 8.06497 92.481 7.83727 92.7277 7.60047C92.8794 7.44277 93.0213 7.28537 93.1536 7.12807C93.3049 6.95109 93.4465 6.77431 93.5784 6.59771C93.898 6.12741 94.1401 5.64895 94.3046 5.16233C94.4882 4.656 94.5661 4.19039 94.5385 3.76552C94.5367 3.66887 94.5255 3.59174 94.505 3.53412C94.5035 3.4568 94.4924 3.37967 94.4715 3.30273C94.3946 3.32356 94.2703 3.39366 94.0986 3.51302C93.9462 3.632 93.7652 3.77088 93.5555 3.92965C93.3463 4.10775 93.1276 4.2957 92.8994 4.49351C92.6905 4.69094 92.5101 4.85881 92.3581 4.99713C92.3202 5.03654 92.2823 5.07595 92.2443 5.11536C92.2254 5.13506 92.2066 5.16443 92.188 5.20347C91.9621 5.51725 91.7561 5.85965 91.5699 6.23068C91.3837 6.6017 91.1875 6.95358 90.9813 7.28627C90.794 7.59937 90.6073 7.94137 90.4211 8.31237C90.2543 8.68307 90.0973 9.06317 89.9502 9.45277ZM90.0488 11.5393C90.106 11.4995 90.1634 11.4694 90.2211 11.4489C90.2783 11.4091 90.355 11.3786 90.4513 11.3574C90.7212 11.3135 90.992 11.3179 91.2637 11.3706C91.5351 11.404 91.6998 11.4202 91.7578 11.419C91.9173 11.6673 92.0472 11.8872 92.1477 12.0786C92.267 12.2503 92.3674 12.4417 92.4489 12.6528C92.5296 12.8253 92.6008 13.0076 92.6625 13.1998C92.7243 13.392 92.7964 13.6226 92.879 13.8917C92.8066 14.1445 92.7829 14.4157 92.8078 14.7052C92.8517 14.9751 92.8276 15.227 92.7355 15.4608C92.718 15.5578 92.7008 15.6645 92.6837 15.7809C92.6663 15.8779 92.6391 15.9751 92.6024 16.0725C92.44 16.6751 92.1818 17.3182 91.8277 18.0019C91.4929 18.6852 91.0484 19.1966 90.4943 19.5361C90.3605 19.6161 90.2071 19.6867 90.0343 19.7481C89.8615 19.8095 89.7078 19.8608 89.5732 19.9021C89.2855 20.0237 88.9859 20.0295 88.6744 19.9196C88.3826 19.8286 88.1004 19.7374 87.8279 19.646C87.5573 19.6512 87.2734 19.473 86.9764 19.1114C86.6986 18.7494 86.4684 18.3478 86.2858 17.9066C86.1028 17.4461 86.0089 17.0902 86.004 16.8389C85.9835 16.7813 85.9529 16.6948 85.9119 16.5796C85.89 16.4447 85.8775 16.2999 85.8745 16.1453C85.867 15.7587 85.8777 15.3137 85.9066 14.8104C85.9548 14.3067 86.0132 13.8318 86.0819 13.3857C86.1502 12.9203 86.2115 12.5904 86.2657 12.396C86.1672 12.3012 86.0681 12.1774 85.9684 12.0247C85.8688 11.8719 85.7868 11.6318 85.7224 11.3043C85.8327 11.0121 85.887 10.8177 85.8851 10.721C85.8832 10.6244 85.8912 10.5372 85.909 10.4595C86.0633 10.4372 86.2177 10.4245 86.3724 10.4215C86.5266 10.3992 86.671 10.3674 86.8056 10.3261C87.134 9.31417 87.5393 8.28137 88.0216 7.22787C88.5228 6.15455 89.1126 5.1569 89.7908 4.23487C90.469 3.31285 91.2474 2.57259 92.1261 2.01407C92.468 1.69803 92.8214 1.47846 93.1864 1.35534C93.5708 1.23185 94.0038 1.12674 94.4856 1.04003C94.583 1.07681 94.6806 1.12326 94.7783 1.17937C94.8761 1.23548 94.9737 1.28192 95.0711 1.3187C95.1113 1.39527 95.1706 1.4618 95.249 1.51828C95.3275 1.57477 95.4057 1.62159 95.4838 1.65875C96.0321 2.01549 96.4157 2.34643 96.6343 2.65158C96.8723 2.95634 96.9946 3.28269 97.0014 3.63063C97.0063 3.88191 96.9539 4.17299 96.8443 4.50384C96.7537 4.815 96.6253 5.17523 96.4593 5.58453C96.3675 5.8377 96.2085 6.11151 95.9821 6.40596C95.7751 6.70004 95.5873 6.98408 95.4186 7.25807C95.3629 7.37517 95.3069 7.48257 95.2508 7.58037C95.2137 7.65847 95.1864 7.74597 95.1689 7.84307C95.0154 7.90407 94.8535 8.03287 94.6833 8.22957C94.5324 8.42587 94.4001 8.58307 94.2864 8.70137C94.2106 8.78017 94.135 8.86867 94.0595 8.96677C93.9837 9.04567 93.8984 9.13427 93.8037 9.23287C93.5955 9.46887 93.3482 9.67677 93.0616 9.85637C92.794 10.0163 92.566 10.2238 92.3776 10.4788C92.0728 10.7168 91.7772 10.9256 91.4906 11.1052C91.2234 11.2844 90.956 11.454 90.6883 11.6139C90.4586 11.7343 90.2191 11.8454 89.9697 11.9469C89.7203 12.0484 89.4612 12.1501 89.1925 12.252C89.0579 12.2933 88.9453 12.4696 88.8547 12.7807C88.783 13.0722 88.7221 13.4214 88.672 13.8285C88.6409 14.2158 88.6093 14.5838 88.5774 14.9325C88.5645 15.2615 88.5499 15.5035 88.5335 15.6585C88.518 15.8522 88.5426 16.1224 88.6073 16.4692C88.6717 16.7967 88.7554 17.1238 88.8584 17.4505C88.8986 17.5271 88.9388 17.6037 88.9789 17.6802C89.0187 17.7375 89.0488 17.7949 89.0693 17.8525C89.2607 17.7521 89.4324 17.6327 89.5844 17.4944C89.7364 17.3561 89.8591 17.199 89.9523 17.0232C90.0649 16.847 90.1582 16.6711 90.2321 16.4956C90.3614 16.1837 90.4523 15.8822 90.5046 15.5912C90.5566 15.2808 90.6095 15.0187 90.6634 14.8049C90.7521 14.3971 90.7452 14.0395 90.6425 13.7321C90.5592 13.4244 90.4474 13.1462 90.3072 12.8975C90.167 12.6488 90.0562 12.419 89.9748 12.2078C89.8929 11.9774 89.9176 11.7545 90.0488 11.5393ZM94.9004 19.9436C94.6476 19.8711 94.4126 19.721 94.1955 19.4932C93.9977 19.265 93.8399 19.1037 93.722 19.0093C93.7015 18.9517 93.6714 18.8943 93.6316 18.837C93.6112 18.7794 93.5907 18.7218 93.5703 18.6642C93.5665 18.4709 93.5832 18.3352 93.6204 18.2571C93.6768 18.1787 93.7999 18.0409 93.9894 17.8439C94.1206 17.6286 94.2536 17.51 94.3886 17.4881C94.5235 17.4661 94.6493 17.4733 94.766 17.5097C95.147 17.2123 95.509 16.9345 95.8521 16.6765C96.2141 16.3987 96.4984 16.1031 96.705 15.7897C96.9677 15.3785 97.2206 14.9579 97.4636 14.5277C97.726 14.0972 97.9786 13.6669 98.2217 13.2368C98.3149 13.0609 98.4173 12.8559 98.5288 12.6217C98.6402 12.3875 98.7517 12.1533 98.8632 11.919C98.9743 11.6655 99.067 11.451 99.141 11.2755C98.9467 11.2406 98.8106 11.2046 98.7325 11.1674C98.6541 11.111 98.5561 11.0452 98.4386 10.9701C98.3765 10.7586 98.2947 10.5282 98.1932 10.2788C98.111 10.029 98.0589 9.83657 98.0369 9.70167C98.0275 9.21837 98.2537 8.91427 98.7153 8.78927C99.293 8.64267 99.793 8.54597 100.218 8.49907C100.642 8.45207 101.057 8.37637 101.461 8.27187C101.845 8.16767 102.251 8.13077 102.677 8.16117C103.102 8.17227 103.5 8.25157 103.871 8.39907C104.066 8.47257 104.242 8.57547 104.399 8.70787C104.556 8.84017 104.705 9.02097 104.844 9.25027C105.063 9.55537 105.195 9.89127 105.241 10.2578C105.306 10.6239 105.332 10.9521 105.318 11.2425C105.324 11.5131 105.337 11.6869 105.357 11.7638C105.304 11.9776 105.223 12.3078 105.116 12.7547C105.008 13.2015 104.882 13.6777 104.737 14.1833C104.612 14.6885 104.485 15.1454 104.358 15.5539C104.249 15.9428 104.177 16.2052 104.141 16.3413C104.07 16.6521 103.97 16.9731 103.841 17.3043C103.731 17.6158 103.659 17.917 103.626 18.2077C103.557 18.6151 103.398 18.8986 103.15 19.0581C102.901 19.1983 102.681 19.3186 102.49 19.419C102.278 19.5004 102.085 19.4849 101.909 19.3723C101.732 19.2597 101.566 19.1372 101.408 19.0049C101.266 18.6403 101.183 18.3712 101.161 18.1976C101.157 18.0043 101.21 17.7422 101.319 17.4113C101.374 17.2556 101.474 16.9056 101.618 16.3613C101.762 15.8171 101.924 15.2048 102.104 14.5245C102.285 13.8442 102.456 13.2221 102.619 12.6582C102.782 12.0749 102.89 11.6667 102.944 11.4336C102.978 11.2396 103.004 11.0747 103.021 10.9391C103.037 10.784 103.034 10.6391 103.012 10.5041C102.876 10.4681 102.683 10.4525 102.431 10.4574C102.18 10.4623 101.949 10.4861 101.737 10.5289C101.698 10.549 101.65 10.5596 101.592 10.5607C101.554 10.5615 101.515 10.5719 101.477 10.592C101.406 10.9414 101.316 11.2912 101.207 11.6414C101.098 11.9723 100.96 12.3327 100.793 12.7227C100.646 13.093 100.46 13.5123 100.237 13.9807C100.034 14.4488 99.783 14.9757 99.485 15.5616C99.299 15.952 99.113 16.3037 98.9255 16.6167C98.7382 16.9297 98.5409 17.2236 98.3335 17.4984L97.9946 17.9691C97.8809 18.0873 97.7577 18.2154 97.625 18.3533C97.4923 18.4913 97.3691 18.6193 97.2554 18.7376C97.1413 18.8365 97.0463 18.9253 96.9705 19.0042L96.0852 19.7175C95.9139 19.8562 95.7316 19.9274 95.5383 19.9312C95.345 19.9349 95.1323 19.9391 94.9004 19.9436ZM109.832 19.8274C108.769 19.848 107.941 19.5547 107.349 18.9474C106.777 18.3398 106.478 17.3981 106.453 16.1223C106.44 15.4265 106.55 14.6605 106.786 13.8244C107.04 12.988 107.372 12.1694 107.782 11.3686C108.211 10.5674 108.681 9.87177 109.192 9.28177C109.702 8.67237 110.216 8.24667 110.733 8.00457C110.925 7.90417 111.126 7.83257 111.338 7.78977C111.569 7.72727 111.791 7.69397 112.003 7.68987C112.235 7.68537 112.487 7.69977 112.758 7.73317C113.049 7.74687 113.32 7.79957 113.574 7.89137C114.021 8.01807 114.412 8.27147 114.749 8.65167C115.104 9.03147 115.289 9.58867 115.303 10.3232C115.307 10.5165 115.292 10.7295 115.258 10.9622C115.223 11.1756 115.16 11.3896 115.067 11.6041C114.828 12.2468 114.453 12.8632 113.943 13.4533C113.451 14.0429 112.928 14.4592 112.372 14.702C112.219 14.7824 112.065 14.8434 111.911 14.885C111.776 14.907 111.631 14.9195 111.477 14.9225C111.071 14.9304 110.703 14.8795 110.372 14.7699C110.06 14.66 109.767 14.5109 109.493 14.3229L109.257 14.1245L109.118 14.4172C108.989 14.7871 108.899 15.0983 108.846 15.3507C108.812 15.6027 108.796 15.7867 108.798 15.9027C108.803 16.1347 108.817 16.3761 108.841 16.627C108.865 16.8586 108.927 17.0508 109.027 17.2035C109.106 17.2987 109.204 17.3741 109.321 17.4298C109.458 17.4852 109.622 17.511 109.816 17.5072C109.932 17.505 110.038 17.5029 110.135 17.501C110.25 17.4795 110.347 17.4582 110.424 17.4374C110.77 17.3533 111.048 17.2222 111.257 17.0441C111.485 16.8463 111.724 16.6773 111.972 16.5371L112.087 16.4769L112.056 16.3905C112.382 16.2101 112.602 16.0995 112.717 16.0586C112.832 15.9983 112.918 15.9483 112.975 15.9085C113.051 15.8297 113.137 15.7894 113.234 15.7875C113.504 15.7436 113.766 15.8158 114.021 16.0042C114.295 16.1729 114.435 16.3926 114.44 16.6632C114.442 16.7792 114.359 16.9645 114.19 17.2192C114.04 17.4735 113.842 17.7287 113.596 17.9849C113.368 18.2213 113.13 18.4097 112.882 18.5499C112.824 18.5703 112.767 18.6004 112.709 18.6402C112.652 18.6607 112.594 18.6908 112.537 18.7306L112.566 18.73C112.397 18.9654 112.225 19.0847 112.051 19.0881L111.819 19.0926C111.744 19.2294 111.496 19.3793 111.074 19.5422C110.652 19.7244 110.238 19.8195 109.832 19.8274ZM111.204 12.8104C111.378 12.807 111.532 12.775 111.666 12.7144C111.819 12.6534 111.963 12.5829 112.097 12.503C112.554 12.1653 112.846 11.7343 112.971 11.2097C113.096 10.6852 113.04 10.2899 112.803 10.0238C112.763 9.96647 112.714 9.92877 112.656 9.91057C112.597 9.87307 112.529 9.85507 112.452 9.85657C112.239 9.86067 111.999 9.93307 111.731 10.0736C111.482 10.2138 111.234 10.412 110.988 10.6682C110.742 10.9243 110.516 11.2285 110.31 11.5805L109.945 12.1967C109.983 12.1767 110.012 12.1664 110.031 12.166C110.069 12.146 110.098 12.1357 110.117 12.1354C110.291 12.132 110.408 12.1877 110.469 12.3026C110.529 12.4174 110.599 12.5321 110.678 12.6466C110.777 12.7607 110.952 12.8153 111.204 12.8104ZM124.853 19.1003C124.699 19.1033 124.583 19.1152 124.506 19.136C124.429 19.1569 124.313 19.1398 124.157 19.0848C124.021 19.0488 123.739 18.9576 123.311 18.8112C123.111 18.4864 122.988 18.16 122.943 17.8322C122.917 17.4846 122.93 17.1363 122.981 16.7872C123.051 16.4185 123.151 16.0588 123.279 15.7082C123.408 15.3577 123.527 15.0266 123.637 14.7151C123.618 14.7348 123.589 14.745 123.551 14.7458C123.512 14.7465 123.473 14.757 123.435 14.777C123.262 14.8191 123.089 14.8611 122.916 14.9032C122.742 14.9259 122.559 14.9584 122.366 15.0009C122.058 15.0649 121.76 15.1287 121.471 15.1923C121.182 15.2366 120.883 15.3004 120.575 15.3837C120.517 15.3462 120.448 15.3089 120.37 15.2717C120.311 15.2342 120.253 15.2063 120.195 15.1881C120.141 15.4018 120.097 15.6347 120.063 15.8868C120.029 16.1388 119.986 16.391 119.933 16.6435C119.899 16.8955 119.846 17.1479 119.773 17.4007C119.72 17.6338 119.637 17.8578 119.525 18.0726C119.101 18.1389 118.792 18.1642 118.599 18.1487C118.405 18.1331 118.104 18.0616 117.695 17.9342C117.537 17.7246 117.417 17.5142 117.335 17.3031C117.273 17.0722 117.239 16.8408 117.235 16.6089C117.226 16.145 117.313 15.6792 117.497 15.2115C117.681 14.7245 117.847 14.2669 117.993 13.8386C118.066 13.6245 118.12 13.4301 118.156 13.2554C118.21 13.0609 118.235 12.8671 118.231 12.6738C118.269 12.6344 118.334 12.5074 118.427 12.2929C118.519 12.0591 118.63 11.7862 118.759 11.4743C118.925 11.0457 119.1 10.5878 119.283 10.1008C119.467 9.61377 119.623 9.17567 119.751 8.78647C119.878 8.37797 119.951 8.10577 119.967 7.97017C119.978 7.50587 120.205 7.26937 120.65 7.26077C120.939 7.23577 121.25 7.32637 121.583 7.53267C121.916 7.73887 122.172 7.99497 122.352 8.30087C122.532 8.60677 122.528 8.90657 122.341 9.20027C122.249 9.45337 122.157 9.70657 122.065 9.95977C121.974 10.2129 121.882 10.4757 121.791 10.7482C121.699 11.0014 121.607 11.2546 121.515 11.5077C121.423 11.7609 121.332 12.0141 121.24 12.2672C121.222 12.3449 121.204 12.413 121.186 12.4713C121.168 12.5297 121.14 12.5979 121.103 12.676C121.218 12.6544 121.334 12.6328 121.45 12.6112C121.584 12.5699 121.699 12.5193 121.795 12.4595C121.988 12.4557 122.268 12.4503 122.636 12.4431C123.022 12.4356 123.37 12.4289 123.679 12.4228C123.875 12.5157 124.031 12.619 124.15 12.7328C124.316 12.3235 124.482 11.9142 124.648 11.5049C124.813 11.0762 124.96 10.648 125.087 10.2201C125.233 9.77247 125.34 9.33527 125.409 8.90857C125.462 8.63677 125.574 8.40257 125.744 8.20587C125.914 8.00927 126.114 7.84097 126.343 7.70117C126.771 7.84757 127.151 7.99487 127.483 8.14307C127.834 8.29097 128.063 8.61527 128.169 9.11597C128.095 9.29137 128.05 9.47597 128.035 9.66967C128.019 9.86337 127.974 10.0479 127.9 10.2234C127.661 10.8468 127.413 11.4898 127.155 12.1523C126.897 12.7954 126.658 13.4478 126.439 14.1095C126.239 14.7516 126.077 15.4121 125.955 16.0913C125.921 16.3047 125.867 16.5184 125.794 16.7326C125.72 16.9467 125.647 17.1705 125.575 17.404C125.521 17.6177 125.477 17.8313 125.442 18.0447C125.427 18.2577 125.373 18.4617 125.28 18.6569C125.187 18.8328 125.044 18.9806 124.853 19.1003ZM137.687 19.2569C137.339 19.3023 137.029 19.231 136.754 19.043C136.48 18.855 136.263 18.6465 136.104 18.4175C135.905 18.112 135.753 17.7572 135.648 17.3532C135.543 16.9298 135.487 16.5345 135.48 16.1672C135.48 16.1479 135.47 16.1287 135.45 16.1098C135.45 16.0905 135.449 16.0808 135.449 16.0808C135.449 16.0615 135.439 16.0617 135.421 16.0814C135.193 16.3372 134.861 16.653 134.424 17.0289C134.005 17.3851 133.557 17.7032 133.079 17.9832C132.62 18.2435 132.207 18.3676 131.839 18.3554C131.607 18.3406 131.373 18.2388 131.137 18.05C130.92 17.8415 130.722 17.6036 130.543 17.3364C130.364 17.0692 130.243 16.8298 130.181 16.6183C130.098 16.3105 130.107 15.8076 130.21 15.1094C130.312 14.392 130.47 13.5961 130.685 12.7217C130.919 11.8277 131.193 10.9716 131.506 10.1533C131.818 9.31577 132.143 8.63257 132.481 8.10397C132.838 7.55557 133.18 7.27817 133.509 7.27177C133.799 7.26617 134.053 7.41597 134.272 7.72107C134.49 8.00687 134.65 8.26487 134.751 8.49487C134.873 8.78257 134.934 8.98447 134.937 9.10037C134.939 9.19707 134.836 9.36347 134.627 9.59947C134.438 9.79657 134.241 10.1195 134.037 10.5682C133.833 10.9976 133.63 11.485 133.427 12.0303C133.225 12.5564 133.041 13.053 132.876 13.5203C132.731 13.9872 132.612 14.3569 132.521 14.6294C132.486 14.8428 132.451 15.0079 132.414 15.1246C132.378 15.2413 132.352 15.3772 132.335 15.5322C132.374 15.5315 132.413 15.5307 132.451 15.53C132.509 15.5095 132.557 15.4892 132.595 15.4692C132.96 15.3267 133.331 15.0488 133.71 14.6353C134.108 14.2215 134.495 13.7306 134.871 13.1625C135.246 12.5751 135.602 11.9784 135.938 11.3724C136.293 10.7467 136.63 10.1697 136.949 9.64137C137.267 9.09377 137.548 8.65327 137.793 8.31977C138.057 7.96657 138.276 7.78827 138.45 7.78487C138.643 7.76177 138.876 7.80557 139.149 7.91637C139.421 8.00777 139.646 8.14837 139.824 8.33827C140.021 8.50847 140.102 8.70997 140.068 8.94267C139.999 9.38877 139.807 9.96297 139.492 10.6652C139.177 11.3481 138.853 12.0989 138.521 12.9175C138.208 13.7357 137.983 14.5813 137.845 15.4541C137.776 15.9002 137.813 16.2959 137.955 16.6412C138.097 16.9672 138.306 17.2918 138.583 17.6152C138.899 17.9764 138.926 18.3337 138.662 18.6869C138.417 19.0203 138.092 19.2104 137.687 19.2569ZM146.729 18.008C146.155 18.3478 145.541 18.5531 144.884 18.6239C144.247 18.675 143.646 18.5996 143.082 18.3979C142.517 18.1768 142.056 17.8474 141.699 17.4096C141.501 17.1621 141.31 16.7694 141.125 16.2315C140.94 15.6743 140.897 14.921 140.994 13.9716C141.093 13.0802 141.346 12.1761 141.754 11.2594C142.181 10.3422 142.706 9.52947 143.331 8.82127C143.955 8.11297 144.642 7.62587 145.391 7.35987C145.659 7.25797 145.929 7.18507 146.199 7.14117C146.487 7.07755 146.864 7.06056 147.329 7.0902C147.774 7.13955 148.173 7.24787 148.524 7.41507C148.875 7.56287 149.13 7.73197 149.288 7.92227C149.604 8.22557 149.812 8.52117 149.915 8.80927C150.017 9.09737 150.061 9.37687 150.047 9.64787C149.962 10.2683 149.695 10.9406 149.245 11.6649C148.814 12.3887 148.196 12.9325 147.391 13.2962C147.065 13.4379 146.681 13.5324 146.237 13.5797C145.793 13.627 145.183 13.5808 144.407 13.4412C143.941 13.3536 143.633 13.4079 143.482 13.6042C143.35 13.8002 143.299 14.1782 143.33 14.7384C143.375 15.0856 143.458 15.3933 143.58 15.6617C143.72 15.9104 143.965 16.0796 144.315 16.1695C144.761 16.2382 145.08 16.2417 145.272 16.1799C145.464 16.0988 145.703 15.9878 145.991 15.8469C146.143 15.7472 146.286 15.6381 146.419 15.5195C146.572 15.4005 146.715 15.2817 146.848 15.1631C147 15.0441 147.124 14.9547 147.219 14.8948C147.315 14.8156 147.41 14.7654 147.507 14.7442C147.603 14.723 147.699 14.7115 147.796 14.7096C148.009 14.7248 148.214 14.8368 148.412 15.0457C148.609 15.2546 148.739 15.4551 148.8 15.6472C148.803 15.8019 148.711 16.0261 148.523 16.3198C148.335 16.5941 148.08 16.8891 147.757 17.2048C147.454 17.5008 147.111 17.7685 146.729 18.008ZM146.226 11.5495C146.36 11.4889 146.551 11.3498 146.798 11.1323C147.065 10.9144 147.302 10.6874 147.51 10.4513C147.718 10.1959 147.82 10.0006 147.818 9.86517C147.814 9.65257 147.665 9.47177 147.372 9.32277C147.099 9.17337 146.74 9.15137 146.298 9.25667C146.144 9.29827 145.962 9.40817 145.753 9.58627C145.544 9.76437 145.335 9.97147 145.127 10.2076C144.918 10.4244 144.739 10.6406 144.588 10.8562C144.438 11.0525 144.334 11.2092 144.279 11.3263C144.358 11.4215 144.514 11.4958 144.747 11.5492C144.98 11.6027 145.232 11.6268 145.502 11.6216C145.792 11.6159 146.034 11.5919 146.226 11.5495ZM2.05397 40.2008C1.80231 40.1864 1.51162 40.1533 1.18188 40.1017C0.871482 40.0498 0.598612 39.939 0.363272 39.7696C0.127942 39.6001 0.00707163 39.3511 0.000687626 39.0225C-0.00231837 38.8678 0.00453162 38.7227 0.0212316 38.587C0.0379316 38.4513 0.0838116 38.3247 0.158872 38.2073C0.177452 38.1682 0.196222 38.1389 0.215172 38.1191C0.234122 38.0994 0.253082 38.0797 0.272032 38.06C0.250822 37.9638 0.229622 37.8675 0.208412 37.7712C0.206532 37.6746 0.214312 37.5777 0.231772 37.4807C0.323532 37.2275 0.377012 36.9945 0.392212 36.7815C0.407032 36.5491 0.450662 36.3066 0.523092 36.0538C0.541672 36.0147 0.550582 35.9759 0.549832 35.9372C0.549082 35.8986 0.558182 35.8694 0.577132 35.8497C0.685222 35.4415 0.783462 35.0239 0.871842 34.5967C0.960222 34.1696 1.09749 33.7705 1.28365 33.3995C1.61806 32.6969 1.92347 31.9948 2.19989 31.2933C2.49526 30.5721 2.78097 29.8511 3.05701 29.1302C3.16736 28.838 3.29872 28.6324 3.4511 28.5134C3.60348 28.3945 3.76666 28.3333 3.94063 28.3299C4.28856 28.3231 4.63969 28.4807 4.99401 28.8025C5.34796 29.105 5.62477 29.4187 5.82446 29.7436C5.6383 30.1146 5.433 30.4956 5.20856 30.8867C4.98374 31.2585 4.76877 31.6398 4.56366 32.0305C4.35818 32.4019 4.20139 32.7917 4.0933 33.1998C4.36429 33.2139 4.62505 33.1992 4.87559 33.1556C5.12612 33.1121 5.38707 33.107 5.65844 33.1404C5.98742 33.1534 6.31565 33.1276 6.64313 33.0633C6.97023 32.9796 7.28879 32.954 7.59882 32.9867C7.65192 32.7343 7.73271 32.4136 7.84117 32.0248C7.94926 31.6166 8.08615 31.1982 8.25185 30.7696C8.41755 30.3409 8.60353 29.9603 8.80976 29.6275C9.03538 29.2944 9.27278 29.0771 9.52218 28.9755C9.82928 28.8536 10.0711 28.8585 10.2477 28.9904C10.4243 29.1224 10.6204 29.2636 10.836 29.4141C11.1888 29.6586 11.4054 29.8574 11.4857 30.0106C11.5854 30.1633 11.5791 30.3375 11.4669 30.533C11.3736 30.7089 11.2241 30.9728 11.0182 31.3249C10.887 31.5402 10.7854 31.7839 10.7133 32.056C10.6602 32.3084 10.5586 32.5521 10.4085 32.787C10.371 32.8458 10.297 33.0213 10.1867 33.3134C10.0957 33.6053 9.97698 33.9653 9.83058 34.3936C9.68388 34.8025 9.54698 35.2209 9.41988 35.6488C9.29248 36.0573 9.18368 36.4269 9.09338 36.7573C9.00274 37.0685 8.94851 37.2629 8.93069 37.3406C8.89691 37.5927 8.86314 37.8447 8.82936 38.0967C8.79559 38.3488 8.77166 38.6103 8.75759 38.8813C8.74428 39.1909 8.65195 39.4151 8.48061 39.5538C8.3089 39.6731 8.0974 39.7353 7.84611 39.7402C7.59483 39.745 7.3426 39.7016 7.08944 39.6098C6.83627 39.5181 6.63125 39.4157 6.47435 39.3027C6.31709 39.1704 6.1981 39.018 6.1174 38.8456C6.05603 38.6727 6.02347 38.4897 6.01971 38.2964C6.01295 37.9484 6.07384 37.5992 6.20238 37.2486C6.33093 36.8981 6.43198 36.6254 6.50554 36.4306C6.5412 36.2752 6.5867 36.1293 6.64206 35.9928C6.71637 35.8367 6.77136 35.6809 6.80701 35.5255C6.26465 35.4781 5.71357 35.4791 5.15376 35.5287C4.61328 35.5779 4.06332 35.6369 3.50389 35.7058C3.39242 35.94 3.29137 36.2127 3.20073 36.5238C3.12942 36.8346 3.05849 37.1647 2.98794 37.5141C2.93671 37.8632 2.86597 38.203 2.77571 38.5335C2.72223 38.7665 2.65889 38.9902 2.58571 39.2043C2.53148 39.3987 2.45773 39.5838 2.36446 39.7597C2.27119 39.9355 2.1677 40.0826 2.05397 40.2008ZM16.2286 39.7222C16.0747 39.7639 15.8721 39.7872 15.6208 39.7921C15.3692 39.7776 15.1463 39.7529 14.9523 39.718C14.7772 39.6634 14.6891 39.6071 14.6879 39.5491C14.6861 39.4525 14.6368 39.4051 14.5401 39.407C14.5401 39.407 14.4323 39.3317 14.2167 39.1812C14.0007 39.0114 13.805 38.8895 13.6295 38.8156C13.4503 38.5483 13.3283 38.2413 13.2635 37.8945C13.2177 37.528 13.3213 36.8879 13.5743 35.9741C13.5816 35.3552 13.7429 34.7043 14.0584 34.0213C14.3735 33.3191 14.7759 32.6345 15.2657 31.9675C15.7555 31.3005 16.2661 30.7105 16.7976 30.1974C17.3287 29.665 17.8044 29.269 18.2248 29.0094C18.4901 28.7335 18.8449 28.5816 19.2891 28.5537C19.7527 28.5253 20.1603 28.6044 20.512 28.7909C20.7071 28.8838 20.9235 29.073 21.1611 29.3584C21.3987 29.6439 21.627 29.9488 21.846 30.2733C22.0647 30.5784 22.2344 30.8555 22.3553 31.1045C22.4174 31.316 22.4695 31.5084 22.5115 31.6816C22.5725 31.8351 22.6149 32.0277 22.6388 32.2593C22.6626 32.4908 22.65 32.8391 22.6011 33.3042C22.5112 33.654 22.4311 34.0133 22.361 34.3821C22.3097 34.7311 22.2877 35.0893 22.2948 35.4565C22.2633 35.8246 22.3071 36.0848 22.426 36.2371C22.5643 36.3891 22.7578 36.3951 23.0065 36.2549C23.2362 36.1344 23.4776 36.12 23.7308 36.2118C23.9836 36.2842 24.1606 36.4355 24.2617 36.6655C24.3818 36.8759 24.3583 37.1568 24.1911 37.5081C24.08 37.7616 23.901 38.0068 23.6543 38.2436C23.4075 38.4805 23.131 38.6792 22.8247 38.8399C22.518 38.9812 22.2198 39.0547 21.9298 39.0603C21.7172 39.0644 21.5031 38.9913 21.2874 38.8408C21.0714 38.6709 20.8736 38.4427 20.694 38.1562C20.5144 37.8696 20.3632 37.5535 20.2405 37.2078L20.0536 36.5443L19.0284 37.5214C18.7823 37.7969 18.5359 38.0531 18.2891 38.2899C18.0613 38.5071 17.9194 38.6645 17.8632 38.7623C17.77 38.9381 17.5797 39.0965 17.2924 39.2375C17.0244 39.378 16.6698 39.5396 16.2286 39.7222ZM16.9573 36.9235C17.2822 36.7239 17.558 36.4865 17.7847 36.2113C18.0307 35.9358 18.2665 35.6315 18.492 35.2984C18.7172 34.946 18.9614 34.5738 19.2245 34.182C19.5445 33.731 19.7695 33.3689 19.8995 33.0956C20.0489 32.822 20.1592 32.5298 20.2305 32.219C20.1491 32.0079 20.0384 31.7877 19.8986 31.5584C19.7584 31.3097 19.6205 31.177 19.4848 31.1603C19.2142 31.1656 18.8888 31.3363 18.5086 31.6724C18.1477 32.0082 17.751 32.4896 17.3184 33.1168C17.243 33.215 17.1493 33.3715 17.0375 33.5864C16.9257 33.8012 16.8136 34.0065 16.7014 34.202C16.6081 34.3779 16.5427 34.4951 16.5052 34.5539C16.4487 34.6323 16.3653 34.8177 16.255 35.1099C16.1636 35.3823 16.082 35.6643 16.0104 35.9558C15.9383 36.2279 15.9034 36.4219 15.9056 36.5379C15.9079 36.6539 15.92 36.7793 15.942 36.9143C15.9833 37.0488 16.0816 37.1339 16.237 37.1696C16.3924 37.2052 16.6325 37.1232 16.9573 36.9235ZM27.2584 39.4788C27.1421 39.4618 26.9274 39.3596 26.6143 39.1723C26.3206 38.9846 26.0349 38.7098 25.7571 38.3478C25.4983 37.9661 25.3442 37.4953 25.2946 36.9355C25.2689 36.6073 25.2818 36.2783 25.3334 35.9486C25.385 35.6188 25.4749 35.269 25.6031 34.8991C25.7877 34.4508 25.9631 34.022 26.1292 33.6127C26.3146 33.203 26.5 32.7933 26.6854 32.3836C27.0168 31.5264 27.3332 30.8918 27.6346 30.4798C27.9553 30.0675 28.2606 29.8585 28.5506 29.8529C28.9766 29.8833 29.3573 30.0693 29.6926 30.4108C30.028 30.7524 30.1892 31.0876 30.1763 31.4166C30.1406 31.572 30.0669 31.7571 29.955 31.972C29.8625 32.1865 29.741 32.4016 29.5905 32.6172C29.3248 32.8738 29.1174 33.1485 28.9684 33.4415C28.8384 33.7147 28.7189 34.0361 28.6101 34.4056C28.3682 34.8937 28.2006 35.2257 28.1073 35.4016C28.0334 35.577 27.9507 35.801 27.8593 36.0735C27.9761 36.1099 28.0828 36.1272 28.1794 36.1253C28.295 36.1037 28.4102 36.0628 28.5251 36.0026C28.6396 35.923 28.7438 35.8146 28.8378 35.6774C29.1782 35.2841 29.4432 34.9889 29.6328 34.7918C29.8223 34.5948 29.9925 34.3981 30.1434 34.2018C30.2003 34.1427 30.3417 33.9562 30.5676 33.6424C30.7932 33.3093 31.0187 32.9762 31.2443 32.6431C31.4888 32.2903 31.6583 32.0549 31.7527 31.9371C31.9032 31.7214 32.0251 31.5257 32.1183 31.3499C32.2309 31.1736 32.3242 30.9978 32.3981 30.8223C32.4319 30.5703 32.5443 30.3844 32.7354 30.2647C32.9264 30.1449 33.148 30.1019 33.4 30.1357C33.771 30.3219 34.0452 30.5002 34.2225 30.6708C34.4192 30.841 34.5886 31.0988 34.7307 31.4441C34.8311 31.6355 34.8365 31.9158 34.747 32.2849C34.6571 32.6348 34.4448 33.1513 34.11 33.8346C33.9614 34.1469 33.823 34.488 33.6948 34.8579C33.5663 35.2084 33.5052 35.548 33.5116 35.8766C33.5161 36.1086 33.5585 36.3011 33.6388 36.4543C33.6957 36.3951 33.8286 36.2669 34.0374 36.0694C34.2459 35.8527 34.483 35.616 34.7488 35.3595C35.0141 35.0836 35.2416 34.8471 35.4311 34.6501C35.4497 34.6111 35.5534 34.4737 35.7422 34.238C35.9499 33.9826 36.0915 33.8058 36.1669 33.7076L37.327 32.2058C37.4593 32.0485 37.5903 31.8236 37.7199 31.531C37.8689 31.2381 38.038 30.9834 38.2272 30.767C38.4163 30.5506 38.6472 30.4881 38.9197 30.5795C39.5617 30.7798 40.0155 31.2447 40.281 31.9743C40.3094 32.4379 40.2219 32.9133 40.0187 33.4007C39.8344 33.8684 39.7003 34.4317 39.6165 35.0908C39.5834 35.3815 39.561 35.7204 39.5492 36.1073C39.537 36.475 39.5313 36.6781 39.532 36.7168C39.6707 36.8881 39.8358 36.9236 40.0272 36.8232C40.2186 36.7228 40.4011 36.6612 40.5747 36.6385C40.9833 36.7659 41.2211 37.061 41.2881 37.5238C41.3547 37.9673 41.2271 38.3662 40.9052 38.7205C40.6759 38.8603 40.4555 38.9613 40.244 39.0234C40.0515 39.0658 39.868 39.079 39.6937 39.0631C39.3833 39.0111 39.1204 38.9195 38.9052 38.7884C38.7089 38.6375 38.5514 38.4955 38.4328 38.3625C38.3138 38.2101 38.225 38.1151 38.1662 38.0776C37.9301 37.8695 37.732 37.6219 37.5717 37.335C37.4114 37.0481 37.2976 36.6635 37.2302 36.1814C37.1169 36.319 36.937 36.5158 36.6906 36.772C36.4442 37.0282 36.198 37.294 35.9519 37.5695C35.7055 37.8257 35.4876 38.0523 35.298 38.2494C35.1081 38.4271 35.0132 38.5159 35.0132 38.5159C34.7285 38.7922 34.4421 38.9815 34.154 39.0837C33.866 39.186 33.5375 39.2021 33.1688 39.1319C32.8758 38.9829 32.5816 38.7662 32.286 38.4819C31.99 38.1783 31.8015 37.9306 31.7204 37.7388C31.639 37.5277 31.5679 37.355 31.5073 37.2208C31.4463 37.0673 31.3954 36.933 31.3545 36.8177C31.3333 36.7215 31.3122 36.6348 31.2914 36.5579C31.2706 36.481 31.2499 36.4137 31.2295 36.3561C31.154 36.4542 31.0405 36.5821 30.8889 36.7398C30.7562 36.8777 30.614 37.0255 30.4624 37.1831C30.3104 37.3214 30.1582 37.4501 30.0058 37.5691C29.4364 38.1216 29.0191 38.5358 28.7537 38.8116C28.488 39.0682 28.2884 39.2461 28.155 39.3454C28.0405 39.425 27.8866 39.4666 27.6933 39.4704L27.2584 39.4788ZM45.6439 39.2955C44.884 39.0009 44.3523 38.5084 44.0489 37.8182C43.7454 37.128 43.65 36.2017 43.7628 35.0392C43.7898 34.4393 43.7628 34.0434 43.6817 33.8516C43.6002 33.6405 43.4513 33.4403 43.2349 33.2512C43.1754 33.175 43.0377 33.052 42.8217 32.8821C42.6053 32.693 42.5058 32.5499 42.5233 32.4528C42.5013 32.3179 42.5271 32.153 42.6007 31.9582C42.6739 31.7441 42.7393 31.6268 42.7969 31.6064C42.9311 31.5457 43.0651 31.4755 43.1989 31.3955C43.352 31.3152 43.4676 31.2936 43.5457 31.3308C43.623 31.3293 43.7399 31.3753 43.8964 31.469C44.0723 31.5622 44.1609 31.6475 44.1625 31.7249C44.2424 31.8587 44.3573 31.7984 44.507 31.5441C44.6761 31.2895 44.8535 30.9669 45.0393 30.5766C45.2266 30.2636 45.4626 29.9689 45.7473 29.6927C46.0319 29.4164 46.3172 29.1692 46.603 28.9509C46.9078 28.7129 47.1653 28.5339 47.3757 28.4138C47.4716 28.3732 47.6541 28.3117 47.9232 28.2291C48.2117 28.1461 48.5102 28.0823 48.8187 28.0377C49.1268 27.9737 49.3584 27.9498 49.5134 27.9661C49.8617 27.9787 50.2318 28.1165 50.6237 28.3797C51.0155 28.6428 51.32 28.8882 51.5371 29.116C51.7918 29.2851 51.9614 29.5525 52.0458 29.9183C52.1492 30.2644 52.195 30.6309 52.1832 31.0178C52.1714 31.4048 52.1005 31.7349 51.9704 32.0082C51.9162 32.2026 51.7185 32.4771 51.3773 32.8318C51.0362 33.1865 50.6561 33.5323 50.2373 33.8692C49.8374 34.1864 49.4936 34.4058 49.2059 34.5274C48.9557 34.5902 48.657 34.6444 48.3099 34.6898C47.9623 34.7159 47.6337 34.7223 47.324 34.709C47.0333 34.6759 46.8294 34.6316 46.7123 34.5758C46.5755 34.5011 46.4601 34.5324 46.3661 34.6696C46.291 34.7871 46.2298 35.117 46.1823 35.6593C46.1671 35.8723 46.1707 36.056 46.193 36.2102C46.2347 36.3641 46.2756 36.4793 46.3157 36.5559C46.4556 36.7852 46.5943 36.9566 46.7318 37.0699C46.869 37.1639 47.1209 37.1881 47.4874 37.1423C47.8539 37.0965 48.2168 36.867 48.5762 36.454C48.9545 36.0212 49.2959 35.6762 49.6003 35.4189C49.675 35.2821 49.8376 35.1919 50.0881 35.1483C50.3576 35.0851 50.6769 35.0982 51.0461 35.1877C51.2613 35.3189 51.3621 35.5297 51.3484 35.82C51.354 36.1099 51.2077 36.5382 50.9093 37.1047C50.8539 37.2412 50.6936 37.4473 50.4282 37.7232C50.1818 37.9794 49.9066 38.2458 49.6026 38.5224C49.3175 38.7793 49.0795 38.9677 48.8884 39.0874C48.3146 39.4079 47.7471 39.564 47.1862 39.5556C46.6253 39.5471 46.1112 39.4604 45.6439 39.2955ZM47.6626 32.73C47.9511 32.6471 48.1912 32.565 48.383 32.484C48.5941 32.4025 48.7946 32.2729 48.9846 32.0952C49.1745 31.9175 49.3917 31.6522 49.6362 31.2994C49.7094 31.0853 49.7445 30.9009 49.7415 30.7462C49.7578 30.5912 49.7463 30.4948 49.7069 30.4569C49.5492 30.3052 49.3743 30.2603 49.1821 30.322C49.0089 30.3641 48.8175 30.4645 48.6079 30.6232C48.4737 30.6839 48.2828 30.8133 48.0353 31.0115C47.8067 31.1899 47.5787 31.3974 47.3513 31.6339C47.1428 31.8506 46.9728 32.057 46.8412 32.2529C46.7286 32.4291 46.7114 32.5358 46.7894 32.573C46.7523 32.651 46.8595 32.6973 47.1112 32.7117C47.3822 32.7258 47.566 32.7319 47.6626 32.73ZM60.9007 39.434C60.7669 39.514 60.5827 39.4885 60.3481 39.3577C60.1329 39.2266 59.9163 39.0277 59.6984 38.7612C59.5586 38.5319 59.4478 38.302 59.3659 38.0716C59.3031 37.8214 59.2669 37.4547 59.2575 36.9715C59.2694 36.5845 59.2643 36.3236 59.2423 36.1886C59.2393 36.034 59.1522 36.026 58.9808 36.1647C58.8284 36.2837 58.5151 36.5798 58.0409 37.0531C57.5671 37.5458 57.1112 37.9704 56.6734 38.327C56.2545 38.6638 55.9096 38.8252 55.6386 38.8112C55.5033 38.8138 55.318 38.7304 55.0826 38.5609C54.8473 38.3915 54.6209 38.1832 54.4034 37.936C54.1855 37.6695 54.026 37.4212 53.9248 37.1912C53.7998 36.7295 53.7785 36.1305 53.8609 35.3941C53.9626 34.6573 54.1314 33.8902 54.3672 33.0928C54.6028 32.2761 54.8684 31.5168 55.1641 30.8149C55.4788 30.0933 55.7867 29.5169 56.0877 29.0856C56.4077 28.6346 56.6838 28.4165 56.9161 28.4314C57.2455 28.4636 57.529 28.6225 57.7666 28.9079C58.0231 29.1737 58.2222 29.4695 58.3639 29.7955C58.4439 29.9293 58.4751 30.0447 58.4577 30.1417C58.4595 30.2384 58.3845 30.3559 58.2325 30.4942C58.063 30.7295 57.857 31.0719 57.6143 31.5214C57.3906 31.9511 57.158 32.4198 56.9165 32.9272C56.6943 33.4343 56.4911 33.9217 56.3068 34.3893C56.1415 34.8373 56.023 35.207 55.9513 35.4985C55.8796 35.7899 55.8824 35.9349 55.9598 35.9334C56.2304 35.9281 56.4803 35.8556 56.7097 35.7158C56.9386 35.5566 57.2239 35.3094 57.5654 34.974C57.9634 34.5602 58.3132 34.1473 58.6145 33.7354C58.9155 33.3041 59.2251 32.8147 59.5432 32.267C59.7869 31.8756 60.0396 31.4452 60.3012 30.9761C60.5822 30.5065 60.7594 30.1743 60.833 29.9795C61.0938 29.4717 61.2894 29.0908 61.4199 28.8369C61.5503 28.583 61.7116 28.4252 61.9038 28.3634C62.0004 28.3615 62.1357 28.3589 62.3097 28.3555C62.4836 28.3522 62.5706 28.3505 62.5706 28.3505C62.687 28.3675 62.824 28.4519 62.9816 28.6035C63.1378 28.6778 63.2945 28.7811 63.4517 28.9134C63.6283 29.0454 63.7176 29.1597 63.7195 29.2563C63.6459 29.4511 63.5259 29.7435 63.3594 30.1335C63.2119 30.5037 63.1012 30.7766 63.0273 30.9521C62.6762 31.7904 62.3345 32.6189 62.0024 33.4375C61.6892 34.2364 61.4633 35.0529 61.3249 35.8871C61.2915 36.1585 61.288 36.4776 61.3145 36.8445C61.3599 37.1917 61.4228 37.4418 61.5031 37.595C61.5633 37.7098 61.6336 37.8438 61.7139 37.9969C61.8132 38.1304 61.9218 38.2443 62.0396 38.3387C62.2159 38.4513 62.209 38.5964 62.0191 38.7742C61.8485 38.9515 61.6292 39.1105 61.3612 39.251C61.1122 39.3719 60.9587 39.4329 60.9007 39.434ZM60.3327 26.6246C59.6565 26.6571 59.1117 26.484 58.6983 26.1053C58.2848 25.7266 57.9046 25.0669 57.5576 24.1261C57.4955 23.9146 57.482 23.7215 57.5173 23.5468C57.5522 23.3527 57.5977 23.2068 57.6538 23.109C57.7861 22.9518 57.9391 22.8618 58.1127 22.8391C58.3052 22.7966 58.4405 22.794 58.5186 22.8312C58.7911 22.9226 59.0353 23.0532 59.2514 23.223C59.467 23.3735 59.5689 23.6422 59.5571 24.0292C59.5976 24.1251 59.6285 24.2212 59.6497 24.3175C59.6899 24.394 59.72 24.4515 59.7401 24.4897C59.8007 24.6239 59.8892 24.6996 60.0055 24.7166C60.1215 24.7144 60.2083 24.703 60.2659 24.6826C60.6495 24.5204 60.9848 24.3592 61.2717 24.1989C61.5776 24.0189 61.8537 23.8009 62.1001 23.5447C62.3086 23.3279 62.4986 23.1502 62.6699 23.0115C62.8409 22.8535 63.0211 22.676 63.2106 22.4789L63.2391 22.4494C63.4294 22.291 63.6509 22.248 63.9037 22.3204C64.1561 22.3735 64.2929 22.4482 64.3141 22.5445C64.4127 22.6393 64.4738 22.8024 64.4977 23.034C64.5405 23.2459 64.5634 23.4291 64.5664 23.5838L64.5396 23.7003C64.4649 23.8371 64.3912 24.0223 64.3184 24.2557C64.2452 24.4699 64.0466 24.6961 63.7225 24.9344C63.3805 25.2505 63.0375 25.5085 62.6933 25.7086C62.3491 25.9086 61.9572 26.1386 61.5175 26.3986C61.3837 26.4785 61.2205 26.5397 61.028 26.5821C60.8351 26.6052 60.6033 26.6194 60.3327 26.6246ZM87.8376 29.9477C88.1964 30.5015 88.325 31.1468 88.2233 31.8836C88.1405 32.6007 87.9416 33.3103 87.6265 34.0126C87.3115 34.7148 87.0038 35.3009 86.7035 35.7709L84.8789 37.4016C84.6298 37.5225 84.3226 37.6348 83.9573 37.7386C83.5915 37.8231 83.1958 37.8598 82.7702 37.8487C82.3635 37.8179 81.9457 37.71 81.5166 37.525C81.0876 37.34 80.6759 37.0482 80.2814 36.6498L80.1632 36.5361C80.1453 36.6138 80.1084 36.7015 80.0523 36.7993C80.0155 36.8967 79.9791 37.0134 79.943 37.1495C79.9252 37.2272 79.8799 37.3828 79.8071 37.6162C79.7339 37.8304 79.652 38.093 79.5614 38.4042C79.4707 38.7153 79.3706 39.0363 79.261 39.3672C79.1518 39.7174 79.0424 40.0579 78.9328 40.3887C78.8429 40.7386 78.7523 41.0497 78.6609 41.3222C78.5331 41.7114 78.4237 42.052 78.3327 42.3438C78.2614 42.6546 78.1906 42.9943 78.1205 43.3631C78.0696 43.7315 77.9922 44.2261 77.8883 44.8469C77.8158 45.0997 77.7424 45.3041 77.6681 45.4603C77.5942 45.6358 77.51 45.7824 77.4156 45.9003C77.3209 45.9988 77.2064 46.0784 77.0722 46.139C76.9574 46.1992 76.8228 46.2405 76.6685 46.2629C75.9909 46.218 75.5509 45.9655 75.3486 45.5054C75.1656 45.0448 75.1274 44.5718 75.234 44.0863C75.27 43.9503 75.3062 43.8239 75.3426 43.7071C75.3984 43.59 75.4442 43.4635 75.4803 43.3274C75.5174 43.2493 75.5449 43.1714 75.5627 43.0938C75.5809 43.0354 75.599 42.9674 75.6168 42.8897C75.9463 41.9357 76.2207 41.1279 76.4398 40.4662C76.6594 39.8238 76.8325 39.279 76.9592 38.8318C77.1052 38.3842 77.214 38.0147 77.2857 37.7233L77.1145 37.8716C76.9243 38.03 76.7053 38.2083 76.4578 38.4065C76.2103 38.6047 76.0391 38.753 75.9444 38.8515C75.7514 38.8746 75.5597 38.9557 75.369 39.0948C75.1783 39.2338 74.9196 39.3549 74.5929 39.4579C74.226 39.4844 73.9056 39.4133 73.6316 39.2446C73.3769 39.0755 73.1598 38.8477 72.9802 38.5611C72.8184 38.1968 72.7319 37.7248 72.7206 37.1449C72.7093 36.565 72.7854 36.0027 72.9489 35.4581C73.2037 34.641 73.4223 33.9503 73.6047 33.386C73.8064 32.8213 74.0942 32.2066 74.468 31.5418C74.6178 31.2876 74.7774 31.0427 74.9468 30.8074C75.1163 30.5721 75.2954 30.3365 75.4842 30.1008C75.6355 29.9239 75.8062 29.7562 75.9965 29.5978C76.1865 29.4201 76.3858 29.2325 76.5947 29.035C77.0359 28.8524 77.4301 28.7384 77.7773 28.693C78.1241 28.6282 78.443 28.622 78.7341 28.6744C79.0445 28.7264 79.3269 28.8272 79.5812 28.977C79.6592 29.0142 79.7278 29.0612 79.7869 29.118C79.865 29.1552 79.9336 29.2022 79.9927 29.259C80.0708 29.2962 80.1394 29.3432 80.1985 29.4001C80.2341 29.2447 80.2613 29.1475 80.2798 29.1084C80.2984 29.0694 80.3633 28.9231 80.4743 28.6696C80.5111 28.5722 80.557 28.4456 80.612 28.2898C80.6859 28.1144 80.7599 27.9389 80.8338 27.7634C80.9445 27.4905 81.0456 27.2179 81.137 26.9454C81.2477 26.6725 81.3303 26.4485 81.3849 26.2734C81.4358 25.905 81.5276 25.6519 81.6602 25.5139C81.8119 25.3563 82.0228 25.2652 82.293 25.2406C82.5845 25.3123 82.838 25.4234 83.0537 25.5739C83.2883 25.7047 83.4851 25.8845 83.6443 26.1135C83.6783 26.867 83.6226 27.4868 83.4774 27.9731C83.3321 28.4593 83.175 28.8298 83.0059 29.0845C82.8561 29.3387 82.7725 29.5144 82.7551 29.6114C82.7373 29.6891 82.7098 29.767 82.6726 29.8451C82.6354 29.9231 82.5983 30.0012 82.5611 30.0793C82.5433 30.157 82.5158 30.2349 82.4787 30.3129L83.3952 29.715C83.8163 29.4941 84.1988 29.274 84.5426 29.0546C84.8864 28.8352 85.3588 28.768 85.9599 28.853C86.2696 28.8663 86.5904 28.9568 86.9224 29.1243C87.2737 29.2916 87.5788 29.566 87.8376 29.9477ZM74.9737 36.666C75.225 36.6611 75.5233 36.5876 75.8686 36.4456C76.2332 36.3031 76.6153 36.0636 77.0149 35.7271C77.4144 35.3906 77.8018 34.9287 78.1771 34.3413C78.3224 33.855 78.4299 33.4179 78.4997 33.0298C78.5885 32.622 78.6696 32.3207 78.7432 32.1259C78.7792 31.9898 78.7955 31.8348 78.7922 31.6608C78.7888 31.4869 78.7659 31.3036 78.7235 31.1111C78.6807 30.8992 78.5998 30.7171 78.4808 30.5647C78.2106 30.5893 77.9898 30.6709 77.8184 30.8096C77.6467 30.929 77.5048 31.0864 77.3925 31.282C77.2993 31.4578 77.1971 31.6725 77.086 31.926C76.9389 32.3156 76.7902 32.6279 76.6401 32.8629C76.4896 33.0785 76.3387 33.2748 76.1875 33.4518C75.9445 33.8819 75.72 34.273 75.5141 34.6251C75.3272 34.9575 75.1887 35.2889 75.0984 35.6194C75.0078 35.9305 74.9662 36.2794 74.9737 36.666ZM82.5807 35.5609C83.0249 35.533 83.4287 35.4188 83.7922 35.2183C84.1747 34.9982 84.4414 34.79 84.5923 34.5937C84.7833 34.4739 84.9918 34.2572 85.2177 33.9434C85.463 33.6292 85.67 33.3352 85.8387 33.0612C86.0264 32.7675 86.1196 32.5916 86.1185 32.5336C86.1727 32.3392 86.197 32.097 86.1914 31.8071C86.2051 31.5167 86.1712 31.266 86.0898 31.0549C86.0273 30.8241 85.8994 30.7105 85.7061 30.7143C85.2448 30.8586 84.8324 31.031 84.4689 31.2314C84.1247 31.4315 83.7428 31.6806 83.3232 31.9788L82.8371 32.3364C82.5876 32.4379 82.3483 32.5586 82.119 32.6984C81.8896 32.8382 81.6991 32.9869 81.5475 33.1446C81.3751 33.2253 81.224 33.4119 81.0943 33.7045C80.984 33.9967 80.911 34.2205 80.8753 34.3759C80.9166 34.5104 80.9577 34.6353 80.9986 34.7505C81.0392 34.8464 81.0892 34.9325 81.1487 35.0087C81.2305 35.2391 81.3785 35.3909 81.5926 35.4641C81.8261 35.5369 82.1554 35.5692 82.5807 35.5609ZM96.1422 38.5169C95.9452 38.3274 95.7855 38.0695 95.6631 37.7431C95.5403 37.3974 95.4167 37.0034 95.292 36.5611C95.2504 36.4072 95.2277 36.2336 95.2239 36.0403C95.2395 35.8466 95.2365 35.692 95.2149 35.5764C95.1595 35.7128 95.0663 35.8887 94.9351 36.1039C94.8233 36.3188 94.7103 36.4757 94.5962 36.5746C94.5204 36.6534 94.3494 36.8115 94.0833 37.0487C93.8168 37.2666 93.5496 37.4458 93.2816 37.5864C92.6516 38.0047 92.0851 38.2091 91.5822 38.1995C91.0982 38.1702 90.6681 37.9272 90.2918 37.4704C89.9776 37.2252 89.7201 36.9111 89.5193 36.5283C89.3185 36.1454 89.2708 35.6823 89.3763 35.1388C89.4018 34.4615 89.4857 33.8024 89.6279 33.1615C89.7698 32.5013 90.0718 31.6253 90.534 30.5334C90.9245 29.733 91.2218 29.1085 91.4258 28.6597C91.6297 28.211 91.76 27.9474 91.8165 27.869C92.1045 27.7667 92.4623 27.7694 92.8898 27.8771C93.317 27.9655 93.5525 28.1446 93.5964 28.4145C93.7161 28.6056 93.7233 28.9728 93.6178 29.5163C93.512 30.0405 93.2917 30.6442 92.9569 31.3275C92.6991 31.99 92.4505 32.6329 92.2112 33.2563C91.9913 33.8794 91.8565 34.4041 91.8068 34.8305C91.7764 35.2565 91.8974 35.5152 92.1699 35.6066C92.3458 35.6999 92.5969 35.6853 92.9232 35.5629C93.2689 35.4402 93.668 35.0844 94.1207 34.4955C94.5733 33.9066 95.0484 32.9788 95.5459 31.7122C95.693 31.3226 95.8024 30.9821 95.8741 30.6907C95.9454 30.3799 95.9871 30.0407 95.9993 29.673C95.9561 29.4418 96.0094 29.1991 96.1592 28.9448C96.3283 28.6901 96.5275 28.4929 96.7568 28.3531C96.8322 28.2549 96.9369 28.1659 97.0707 28.0859C97.2041 27.9866 97.2911 27.985 97.3316 28.0809L97.795 28.0428C97.8719 28.022 97.9604 28.0976 98.0604 28.2697C98.1605 28.4418 98.2596 28.5656 98.3577 28.641C98.5737 28.8109 98.6777 29.1859 98.6696 29.7662C98.6616 30.3464 98.4454 31.1628 98.0211 32.2152C97.6692 33.0149 97.4296 33.619 97.3022 34.0276C97.1941 34.4357 97.1342 34.8333 97.1223 35.2203C97.1291 35.5682 97.1639 35.8673 97.2268 36.1174C97.2893 36.3482 97.468 36.5865 97.7628 36.8321C97.978 36.9633 98.0985 37.193 98.1242 37.5212C98.1689 37.8298 98.1838 38.1002 98.169 38.3325C98.1337 38.5072 97.9814 38.6262 97.7119 38.6895C97.4621 38.7717 97.1822 38.7964 96.8722 38.7638C96.5815 38.7308 96.3381 38.6485 96.1422 38.5169ZM100.455 43.8571C100.186 43.9397 99.905 43.8775 99.61 43.6705C99.336 43.4631 99.117 43.1773 98.9556 42.8131C98.8132 42.4484 98.8059 42.0715 98.9337 41.6823C98.9701 41.5656 99.024 41.3711 99.096 41.099C99.169 40.8462 99.213 40.623 99.228 40.4293C99.245 40.2936 99.299 40.0606 99.389 39.7301C99.479 39.4189 99.58 39.1076 99.69 38.7961C99.819 38.4841 99.921 38.2598 99.996 38.123C100.108 37.9274 100.181 37.7036 100.215 37.4516C100.268 37.1992 100.293 37.0053 100.29 36.87C100.326 36.734 100.372 36.5784 100.426 36.4033C100.5 36.2278 100.575 36.091 100.65 35.9929C100.686 35.8375 100.741 35.672 100.815 35.4966C100.888 35.3018 100.972 35.1358 101.066 34.9986C101.102 34.8625 101.128 34.6977 101.144 34.504C101.178 34.3099 101.234 34.2025 101.311 34.1817C101.329 34.104 101.337 34.0265 101.336 33.9491C101.354 33.8714 101.39 33.7644 101.446 33.6279C101.48 33.4146 101.561 33.1036 101.689 32.6951C101.816 32.2865 101.972 31.8387 102.156 31.3517C102.357 30.787 102.493 30.301 102.562 29.8935C102.631 29.4668 102.52 29.1982 102.228 29.0879C102.071 29.0136 101.971 28.8415 101.927 28.5716C101.883 28.2824 101.897 27.9921 101.969 27.7007C102.04 27.4092 102.153 27.233 102.306 27.172C102.479 27.0913 102.69 27.0388 102.941 27.0146C103.192 26.9904 103.415 26.9861 103.608 27.0017C103.821 26.9975 103.918 27.015 103.899 27.054C103.901 27.1507 103.951 27.2077 104.048 27.2252C104.085 27.1664 104.164 27.2519 104.285 27.4816C104.424 27.6916 104.554 27.9308 104.676 28.1991C104.797 28.4675 104.859 28.65 104.86 28.7467C104.823 28.8247 104.805 28.8734 104.805 28.8928C104.805 28.8928 104.844 28.892 104.921 28.8905C104.921 28.8905 105.027 28.8401 105.237 28.7393C105.448 28.6192 105.668 28.4893 105.897 28.3494C106.145 28.1899 106.307 28.0708 106.383 27.9919C106.383 27.9919 106.431 27.9717 106.527 27.9311C106.642 27.8709 106.737 27.8013 106.813 27.7225C107.196 27.5604 107.611 27.5233 108.058 27.6113C108.524 27.6989 108.894 27.8658 109.17 28.1118C109.566 28.5875 109.867 29.1811 110.075 29.8925C110.301 30.6036 110.286 31.3 110.028 31.9818C109.991 32.0792 109.908 32.2452 109.777 32.4798C109.665 32.6947 109.553 32.8999 109.441 33.0955C109.328 33.2717 109.272 33.3598 109.272 33.3598C108.841 34.0643 108.359 34.6538 107.827 35.1282C107.314 35.6023 106.752 36.0193 106.14 36.3792C105.949 36.5183 105.681 36.6492 105.335 36.7719C105.009 36.8943 104.702 36.9873 104.413 37.0509C104.143 37.1142 103.979 37.127 103.92 37.0895C103.705 36.939 103.505 36.6142 103.321 36.115C103.23 36.3681 103.138 36.6213 103.046 36.8745C102.973 37.1079 102.928 37.2635 102.91 37.3412C102.893 37.4769 102.876 37.5932 102.859 37.6903C102.841 37.7679 102.794 37.8365 102.718 37.896C102.718 37.896 102.709 37.9349 102.691 38.0126C102.673 38.0903 102.608 38.2076 102.495 38.3645C102.312 38.9288 102.166 39.3667 102.056 39.6782C101.947 40.0091 101.855 40.2719 101.782 40.4667C101.728 40.6805 101.674 40.9039 101.621 41.137C101.592 41.6596 101.477 42.213 101.276 42.797C101.094 43.3806 100.82 43.734 100.455 43.8571ZM104.592 34.3499C104.669 34.3098 104.803 34.2395 104.994 34.1391C105.205 34.0383 105.435 33.9178 105.683 33.7776C105.932 33.6181 106.161 33.4686 106.371 33.3292C106.6 33.17 106.761 33.0315 106.856 32.9137C107.007 32.7367 107.091 32.5997 107.109 32.5027C107.126 32.3863 107.171 32.2018 107.243 31.949C107.298 31.7932 107.362 31.6179 107.436 31.4231C107.509 31.2283 107.574 31.0434 107.628 30.8683C107.702 30.7121 107.728 30.5569 107.706 30.4027C107.703 30.2287 107.642 30.0849 107.524 29.9711C107.446 29.9533 107.263 29.9859 106.974 30.0688C106.705 30.1514 106.389 30.3122 106.027 30.5513C105.683 30.7901 105.342 31.1351 105.003 31.5864C104.607 32.1162 104.345 32.5951 104.218 33.0229C104.091 33.4315 104.068 33.7607 104.151 34.0105C104.232 34.2409 104.38 34.3541 104.592 34.3499ZM123.88 37.4267C123.84 37.3888 123.791 37.3607 123.733 37.3425C123.694 37.3046 123.655 37.286 123.616 37.2868C123.321 37.0411 123.152 36.822 123.11 36.6295C123.087 36.4172 123.092 36.2044 123.127 35.991C123.161 35.7777 123.118 35.5561 122.998 35.3264C123.07 35.0543 123.142 34.7725 123.213 34.4811C123.304 34.1892 123.386 33.8879 123.457 33.5772C123.566 33.227 123.675 32.8671 123.784 32.4976C123.893 32.1281 124.002 31.7586 124.11 31.3891C124.239 31.0192 124.348 30.6593 124.438 30.3095C124.266 30.4289 124.095 30.6062 123.926 30.8415C123.775 31.0572 123.624 31.2245 123.471 31.3435C123.395 31.403 123.31 31.4916 123.216 31.6095C123.121 31.708 123.026 31.8259 122.932 31.9631C122.744 32.2181 122.546 32.5023 122.34 32.8157C122.133 33.1098 121.983 33.3351 121.889 33.4916C121.645 33.8638 121.371 34.2075 121.068 34.5228C120.784 34.8377 120.48 35.1433 120.157 35.4396C120.024 35.5582 119.901 35.6767 119.787 35.7949C119.674 35.9131 119.55 36.0316 119.417 36.1502C118.98 36.5647 118.519 36.6994 118.033 36.5541C117.546 36.4089 117.123 36.04 116.764 35.4476C116.738 35.1 116.76 34.7322 116.829 34.3441C116.899 33.956 116.998 33.5674 117.126 33.1781C117.273 32.7692 117.42 32.3796 117.567 32.0093C117.714 31.6197 117.843 31.2498 117.952 30.8996C117.932 30.8807 117.913 30.8714 117.893 30.8718C117.873 30.8528 117.844 30.8341 117.805 30.8155C117.16 31.4661 116.584 32.1638 116.076 32.9085C115.569 33.6531 115.11 34.4355 114.701 35.2557C114.515 35.646 114.349 36.0456 114.202 36.4546C114.074 36.8438 113.82 37.1775 113.438 37.4556C113.419 37.456 113.4 37.466 113.381 37.4857C113.362 37.4861 113.342 37.4961 113.323 37.5158C113.304 37.5162 113.275 37.5264 113.237 37.5465C113.198 37.5473 113.16 37.548 113.121 37.5488C113.025 37.57 112.918 37.5624 112.802 37.526C112.548 37.4342 112.312 37.2358 112.094 36.9306C111.895 36.6251 111.745 36.367 111.644 36.1562C111.698 35.9425 111.761 35.7479 111.835 35.5724C111.928 35.3772 112.051 35.2008 112.202 35.0432C112.237 34.8491 112.302 34.6835 112.396 34.5463C112.509 34.4088 112.593 34.2718 112.649 34.1353C112.87 33.5896 113.178 32.9938 113.571 32.3481C113.984 31.7019 114.455 31.0643 114.984 30.4352C115.513 29.7868 116.072 29.2152 116.662 28.7203C117.252 28.2061 117.834 27.8177 118.409 27.5551C118.466 27.5153 118.524 27.4852 118.581 27.4648C118.639 27.4443 118.696 27.4239 118.754 27.4034C119.026 27.4561 119.259 27.5289 119.454 27.6218C119.669 27.7143 119.893 27.8067 120.127 27.8988C120.167 27.9754 120.207 28.0423 120.247 28.0995C120.287 28.1568 120.327 28.2237 120.367 28.3002C120.526 28.5292 120.599 28.8275 120.587 29.1951C120.575 29.5434 120.505 29.9412 120.378 30.3884C120.251 30.8163 120.086 31.2642 119.882 31.7323C119.752 32.0055 119.622 32.2884 119.493 32.581C119.382 32.8539 119.252 33.1271 119.103 33.4008C119.142 33.4193 119.171 33.4381 119.191 33.4571C119.21 33.4567 119.23 33.466 119.249 33.4849C119.533 33.1507 119.807 32.807 120.07 32.4538C120.353 32.0809 120.617 31.718 120.861 31.3652C121.521 30.4822 122.172 29.6671 122.815 28.9198C123.458 28.1725 124.105 27.6281 124.756 27.2867C125.023 27.1268 125.323 27.1307 125.655 27.2983C125.987 27.4465 126.251 27.6057 126.448 27.7759C126.763 28.0599 126.926 28.5305 126.939 29.1877C126.949 29.7096 126.874 30.3105 126.713 30.9904C126.571 31.6506 126.4 32.3017 126.2 32.9437C125.999 33.5664 125.816 34.1017 125.651 34.5497C125.634 34.6467 125.606 34.7343 125.569 34.8123C125.551 34.89 125.524 34.9679 125.487 35.046C125.468 35.085 125.459 35.1335 125.461 35.1915C125.461 35.2302 125.452 35.269 125.434 35.3081C125.362 35.5802 125.348 35.8608 125.392 36.15C125.436 36.4392 125.471 36.719 125.496 36.9892C125.229 37.2071 124.914 37.4259 124.551 37.6457C124.492 37.6081 124.424 37.5805 124.346 37.5626C124.288 37.5444 124.23 37.5262 124.171 37.508C124.132 37.4894 124.084 37.4807 124.026 37.4818C123.967 37.4636 123.919 37.4453 123.88 37.4267ZM132.309 37.6399C131.904 37.7251 131.595 37.7118 131.38 37.6C131.184 37.4684 130.978 37.308 130.761 37.1189C130.449 36.9703 130.164 36.7631 129.908 36.4973C129.651 36.2123 129.452 35.9164 129.311 35.6098C129.169 35.3031 129.107 35.0626 129.123 34.8883C129.167 34.2106 129.308 33.4731 129.544 32.6757C129.799 31.8779 130.122 31.0982 130.513 30.3364C130.924 29.5743 131.385 28.8982 131.895 28.3082C132.425 27.6984 132.996 27.2522 133.609 26.9696C133.993 26.8075 134.408 26.7414 134.853 26.7714C135.298 26.8014 135.601 26.9792 135.762 27.3048C136.063 27.8598 136.003 28.2187 135.58 28.3816C135.522 28.3827 135.455 28.413 135.379 28.4725C135.302 28.5127 135.265 28.5714 135.266 28.6487C135.344 28.6859 135.557 28.6914 135.905 28.6653C136.252 28.6199 136.599 28.5551 136.945 28.4711C137.311 28.3673 137.55 28.2659 137.665 28.167C137.779 28.1068 137.866 28.0761 137.924 28.075C137.982 28.0738 138.127 28.0904 138.36 28.1245C138.69 28.2148 138.857 28.3276 138.859 28.4629C138.861 28.5402 138.892 28.6653 138.954 28.8381C139.015 28.9916 139.084 29.0676 139.161 29.0661C139.297 29.0828 139.329 29.2176 139.256 29.4703C139.203 29.7228 138.986 29.988 138.604 30.2662C138.242 30.5053 138.013 30.6644 137.918 30.7436C137.841 30.8031 137.834 30.9386 137.897 31.1501C138.058 31.5143 138.057 31.9591 137.893 32.4844C137.73 33.0097 137.45 33.5565 137.055 34.125C136.66 34.6934 136.187 35.2344 135.636 35.7479C135.105 36.2416 134.542 36.6683 133.95 37.0279C133.377 37.3678 132.829 37.5718 132.309 37.6399ZM132.348 35.2027C132.426 35.2012 132.56 35.1599 132.752 35.0788C132.943 34.9784 133.096 34.8981 133.211 34.8378C133.287 34.759 133.382 34.6701 133.496 34.5712C133.629 34.4526 133.734 34.3829 133.811 34.3621C133.888 34.3606 133.936 34.3306 133.954 34.2723C133.972 34.1946 134.037 34.0483 134.149 33.8334C134.26 33.5992 134.486 33.2564 134.825 32.8051C135.203 32.3723 135.448 32.0292 135.559 31.7756C135.67 31.5028 135.674 31.2126 135.571 30.9052C135.55 30.8283 135.492 30.7811 135.395 30.7636C135.317 30.7458 135.21 30.6995 135.073 30.6249C134.879 30.6286 134.745 30.6796 134.67 30.7777C134.613 30.8562 134.477 30.8105 134.261 30.6406L133.786 30.0698L133.302 30.5723C132.999 30.8875 132.726 31.2796 132.484 31.7484C132.261 32.2168 132.087 32.6939 131.961 33.1798C131.835 33.6657 131.756 34.0926 131.725 34.4607C131.711 34.751 131.763 34.9433 131.881 35.0377C131.999 35.1321 132.155 35.1871 132.348 35.2027ZM147.12 37.7581C146.986 37.838 146.802 37.8126 146.567 37.6818C146.352 37.5506 146.135 37.3518 145.917 37.0853C145.778 36.856 145.667 36.6261 145.585 36.3957C145.522 36.1455 145.486 35.7788 145.477 35.2956C145.488 34.9086 145.483 34.6476 145.461 34.5127C145.458 34.3581 145.371 34.3501 145.2 34.4888C145.047 34.6078 144.734 34.9039 144.26 35.3772C143.786 35.8698 143.33 36.2945 142.892 36.651C142.474 36.9879 142.129 37.1493 141.858 37.1352C141.722 37.1379 141.537 37.0544 141.302 36.885C141.066 36.7155 140.84 36.5072 140.622 36.2601C140.405 35.9936 140.245 35.7453 140.144 35.5152C140.019 35.0536 139.998 34.4545 140.08 33.7181C140.182 32.9814 140.35 32.2143 140.586 31.4169C140.822 30.6001 141.087 29.8408 141.383 29.1389C141.698 28.4174 142.006 27.8409 142.307 27.4097C142.627 26.9587 142.903 26.7406 143.135 26.7554C143.465 26.7877 143.748 26.9466 143.986 27.232C144.242 27.4977 144.441 27.7936 144.583 28.1196C144.663 28.2534 144.694 28.3688 144.677 28.4658C144.679 28.5625 144.604 28.6799 144.452 28.8182C144.282 29.0536 144.076 29.396 143.833 29.8455C143.61 30.2752 143.377 30.7438 143.136 31.2513C142.913 31.7584 142.71 32.2457 142.526 32.7134C142.361 33.1614 142.242 33.5311 142.17 33.8225C142.099 34.114 142.101 34.2589 142.179 34.2574C142.449 34.2522 142.699 34.1796 142.929 34.0398C143.158 33.8807 143.443 33.6334 143.784 33.2981C144.182 32.8842 144.532 32.4714 144.834 32.0594C145.135 31.6282 145.444 31.1387 145.762 30.5911C146.006 30.1996 146.259 29.7693 146.52 29.3001C146.801 28.8306 146.978 28.4984 147.052 28.3036C147.313 27.7958 147.509 27.4149 147.639 27.161C147.769 26.9071 147.931 26.7492 148.123 26.6875C148.219 26.6856 148.355 26.683 148.529 26.6796C148.703 26.6762 148.79 26.6745 148.79 26.6745C148.906 26.6916 149.043 26.776 149.201 26.9276C149.357 27.0019 149.514 27.1052 149.671 27.2375C149.847 27.3694 149.937 27.4837 149.939 27.5804C149.865 27.7752 149.745 28.0676 149.578 28.4575C149.431 28.8278 149.32 29.1007 149.246 29.2762C148.895 30.1145 148.554 30.9429 148.221 31.7615C147.908 32.5604 147.682 33.377 147.544 34.2112C147.511 34.4825 147.507 34.8017 147.534 35.1686C147.579 35.5157 147.642 35.7659 147.722 35.919C147.782 36.0339 147.853 36.1679 147.933 36.321C148.032 36.4544 148.141 36.5683 148.259 36.6627C148.435 36.7753 148.428 36.9205 148.238 37.0982C148.068 37.2756 147.848 37.4345 147.58 37.5751C147.331 37.696 147.178 37.757 147.12 37.7581ZM146.552 24.9487C145.876 24.9812 145.331 24.8081 144.917 24.4294C144.504 24.0507 144.124 23.3909 143.777 22.4502C143.715 22.2387 143.701 22.0456 143.736 21.8708C143.771 21.6768 143.817 21.5309 143.873 21.4331C144.005 21.2758 144.158 21.1858 144.332 21.1631C144.524 21.1207 144.66 21.1181 144.738 21.1552C145.01 21.2466 145.254 21.3772 145.47 21.5471C145.686 21.6976 145.788 21.9663 145.776 22.3533C145.817 22.4492 145.848 22.5453 145.869 22.6415C145.909 22.7181 145.939 22.7755 145.959 22.8138C146.02 22.948 146.108 23.0236 146.225 23.0407C146.341 23.0384 146.427 23.0271 146.485 23.0066C146.869 22.8445 147.204 22.6833 147.491 22.523C147.797 22.343 148.073 22.1249 148.319 21.8688C148.528 21.652 148.718 21.4743 148.889 21.3356C149.06 21.1776 149.24 21 149.43 20.803L149.458 20.7734C149.648 20.615 149.87 20.5721 150.123 20.6445C150.375 20.6976 150.512 20.7723 150.533 20.8686C150.632 20.9633 150.693 21.1265 150.717 21.3581C150.76 21.57 150.782 21.7532 150.785 21.9078L150.759 22.0244C150.684 22.1612 150.61 22.3463 150.537 22.5798C150.464 22.7939 150.266 23.0202 149.942 23.2585C149.6 23.5745 149.257 23.8326 148.912 24.0327C148.568 24.2327 148.176 24.4627 147.737 24.7226C147.603 24.8026 147.44 24.8638 147.247 24.9062C147.054 24.9293 146.822 24.9434 146.552 24.9487Z" fill="#5E8BDC"></path></svg> 