<?xml version="1.0" encoding="UTF-8"?> <svg xmlns="http://www.w3.org/2000/svg" width="106" height="106" viewBox="0 0 106 106" fill="none"><rect width="106" height="106" rx="7" fill="white"></rect><path d="M74.9548 75.7681C70.0352 81.6313 61.2936 82.3957 55.4304 77.4761C49.5658 72.5565 48.8014 63.8149 53.7224 57.9503C58.642 52.0871 67.3836 51.3227 73.2468 56.2423C79.11 61.1633 79.8744 69.9049 74.9548 75.7681Z" fill="#1AD3BB"></path><path d="M53.5362 48.0495C48.6166 53.9127 39.875 54.6771 34.0118 49.7575C28.1486 44.8379 27.3828 36.0963 32.3038 30.2331C37.2234 24.3685 45.965 23.6041 51.8282 28.5251C57.6914 33.4447 58.4558 42.1863 53.5362 48.0495Z" fill="#FBB945"></path><path d="M69.926 27.163C71.8958 25.1946 74.63 24.7382 76.0356 26.1438L82.4 32.5082L36.074 78.8342C34.1042 80.8026 31.37 81.259 29.963 79.8534L23.6 73.4904L69.926 27.163Z" fill="#985184"></path><path d="M61.6436 53.2631L50.7376 64.1677C51.189 61.8757 52.2151 59.7359 53.7196 57.9489C55.7466 55.5256 58.5436 53.8725 61.6436 53.2631Z" fill="#005E7A"></path><path d="M44.1464 52.9469C45.9567 52.7883 47.7179 52.2741 49.3292 51.4338C50.9404 50.5934 52.3701 49.4434 53.5362 48.0497C55.3642 45.8782 56.4779 43.1956 56.7254 40.3679L44.1464 52.9469Z" fill="#953B24"></path></svg> 