<?xml version="1.0" encoding="UTF-8"?> <svg xmlns="http://www.w3.org/2000/svg" width="85" height="28" viewBox="0 0 85 28" fill="none"><path d="M0.493196 19.4012C0.172928 19.1647 0.00853 18.929 0 18.6939C0.010644 18.4614 0.197033 18.0761 0.559169 17.5382C0.921308 17.0003 1.48741 16.1671 2.25748 15.0388C2.82945 14.2356 3.22318 13.6043 3.43868 13.1449C3.67584 12.6687 3.81767 12.3264 3.86418 12.118C3.91068 11.9096 3.93766 11.7766 3.94511 11.7191C3.92913 11.5416 3.9657 11.4099 4.05481 11.3239C4.14641 11.2188 4.28346 11.1391 4.46595 11.0848C4.57424 11.0014 4.8171 10.8574 5.19451 10.6528C5.57193 10.4483 5.87886 10.1859 6.11531 9.86569C6.34005 9.48539 6.5852 9.09799 6.85077 8.70349C7.13551 8.31159 7.50102 7.82279 7.9473 7.2373C8.39607 6.63263 8.9943 5.85237 9.74205 4.89654C10.2124 4.27518 10.7611 3.57624 11.3881 2.79971C12.0343 2.02567 12.6609 1.32708 13.268 0.703939C13.5137 0.462849 13.7615 0.280519 14.0115 0.156949C14.2614 0.0333794 14.4727 -0.0172205 14.6453 0.00513946C15.0671 0.0598095 15.474 0.229509 15.866 0.514249C16.2604 0.779809 16.5995 1.09669 16.8832 1.46487C17.1669 1.83305 17.3477 2.16839 17.4254 2.47089C17.5014 2.6367 17.4975 2.96761 17.4137 3.46362C17.33 3.95964 17.2134 4.55862 17.0639 5.26056C16.9144 5.96251 16.7492 6.71115 16.5681 7.50648C16.4088 8.28509 16.202 9.20379 15.9478 10.2626C15.6936 11.3214 15.4332 12.4281 15.1666 13.5828C14.9192 14.7399 14.6959 15.8612 14.4967 16.9466C14.3001 18.0128 14.1783 18.9523 14.1315 19.765C14.1283 19.94 14.1072 20.103 14.0681 20.2539C14.0291 20.4048 14.0033 20.5282 13.9909 20.624C13.861 20.7242 13.6055 20.7398 13.2245 20.6709C12.8411 20.6212 12.4747 20.5153 12.1253 20.353C11.7759 20.1908 11.5932 20.0209 11.5772 19.8434C11.5272 19.7784 11.495 19.7255 11.4808 19.6847C11.4666 19.6438 11.4902 19.4617 11.5517 19.1382C11.6155 18.7956 11.7251 18.1762 11.8802 17.28L12.5942 12.8985L12.2166 12.8788C12.0441 12.8564 11.7252 12.8346 11.2601 12.8133C10.8142 12.7945 10.3178 12.7887 9.77105 12.7958C9.24593 12.7862 8.75791 12.7912 8.30699 12.8108C7.85856 12.8111 7.54434 12.8289 7.36432 12.864C7.19177 12.8417 6.96596 12.9294 6.68689 13.1272C6.427 13.3274 6.168 13.596 5.90988 13.933C5.79841 14.1915 5.61734 14.4604 5.36668 14.7399C5.13768 15.0026 5.01697 15.1819 5.00454 15.2778C4.85791 15.3563 4.72796 15.4564 4.61471 15.5782C4.52062 15.7025 4.47358 15.7646 4.47358 15.7646C4.45867 15.8796 4.33512 16.156 4.10293 16.5938C3.87323 17.0124 3.59772 17.4836 3.27642 18.0073C2.9576 18.5119 2.63789 18.9481 2.31728 19.3159L1.39915 20.3081L0.493196 19.4012ZM8.64882 10.3987C8.64882 10.3987 8.75676 10.3932 8.97263 10.3822C9.1885 10.3711 9.44272 10.3651 9.73525 10.364C10.0495 10.3463 10.3216 10.3523 10.5517 10.3821C11.0076 10.3242 11.383 10.2851 11.6781 10.2649C11.9923 10.2471 12.2453 10.2507 12.437 10.2755C12.6312 10.2812 12.7821 10.3202 12.8897 10.3927C12.954 10.4985 13.0136 10.5647 13.0687 10.5913C13.1429 10.6204 13.18 10.635 13.18 10.635C13.2041 10.5991 13.2686 10.4028 13.3733 10.0459C13.478 9.68909 13.6035 9.24719 13.7498 8.72029C13.896 8.19339 14.0448 7.64739 14.196 7.08209C14.3497 6.49767 14.4877 5.95994 14.6098 5.46889C14.7344 4.95867 14.8249 4.56101 14.8813 4.2759C14.9477 3.9141 14.9804 3.58691 14.9793 3.29435C14.9807 2.98261 14.9814 2.82674 14.9814 2.82674C14.8664 2.81184 14.6186 2.99416 14.238 3.37373C13.879 3.73661 13.4439 4.23583 12.9327 4.87139C12.4431 5.49027 11.946 6.16667 11.4415 6.90058C11.2026 7.24002 10.9831 7.50401 10.7833 7.69259C10.6025 7.88359 10.4643 7.97289 10.3684 7.96049C10.3251 7.99379 10.1997 8.13359 9.99245 8.37959C9.80675 8.60899 9.59694 8.87419 9.36297 9.17529C9.15066 9.45969 8.96 9.72739 8.79101 9.97849C8.64367 10.2128 8.59627 10.3529 8.64882 10.3987ZM24.2357 22.0687C23.979 22.0939 23.7385 21.9945 23.5141 21.7705C23.3064 21.5681 23.1682 21.3552 23.0997 21.1319C23.0244 20.8102 22.985 20.5127 22.9815 20.2393C22.9995 19.9492 23.0226 19.6208 23.0507 19.254L23.1486 18.2725L21.8316 19.1838C21.1002 19.7128 20.4295 20.0743 19.8195 20.2682C19.2312 20.4454 18.707 20.5042 18.2468 20.4445C18.0409 20.3788 17.7994 20.2111 17.5225 19.9413C17.2672 19.6547 17.0336 19.3515 16.8216 19.0316C16.6313 18.695 16.5006 18.4247 16.4296 18.2205C16.3493 17.9372 16.3594 17.5584 16.4599 17.084C16.5795 16.6121 16.7629 16.0998 17.01 15.547C17.2763 14.9966 17.5796 14.4608 17.9201 13.9396C18.2798 13.4208 18.6678 12.9838 19.0843 12.6283C19.8412 11.7517 20.7043 11.2592 21.6736 11.1509C22.6454 11.0234 23.4695 11.2081 24.1459 11.7052C24.4687 11.9225 24.7092 12.0219 24.8676 12.0034C25.0259 11.9849 25.1379 11.8727 25.2036 11.6668C25.3201 11.37 25.4436 11.0936 25.5743 10.8376C25.7049 10.5816 25.8913 10.1963 26.1334 9.68179C26.8016 8.28679 27.3616 7.19943 27.8136 6.41971C28.2847 5.64248 28.7038 4.96574 29.0709 4.38947C29.339 3.97582 29.5897 3.69639 29.8229 3.55116C30.0562 3.40594 30.2483 3.35285 30.3992 3.3919C30.6101 3.41923 30.859 3.52947 31.1459 3.7226C31.4519 3.91823 31.6355 4.15646 31.6966 4.43731C31.7509 4.6198 31.7561 4.80567 31.712 4.99492C31.6873 5.18665 31.6036 5.38051 31.4612 5.57651C31.1523 6.00436 30.7756 6.57938 30.3311 7.30158C29.9083 8.00709 29.4659 8.78809 29.004 9.64449C28.5613 10.5034 28.139 11.3551 27.7371 12.1998C27.3352 13.0445 26.9949 13.79 26.7162 14.4362C26.5465 14.8431 26.3811 15.3675 26.2199 16.0094C26.0779 16.6539 25.943 17.3187 25.8152 18.004C25.7091 18.6725 25.6308 19.2765 25.5804 19.8158C25.5325 20.336 25.5178 20.6752 25.5363 20.8336C25.6016 21.2319 25.5643 21.5195 25.4245 21.6964C25.2846 21.8732 25.1054 21.9767 24.8871 22.0069C24.6662 22.0562 24.4491 22.0768 24.2357 22.0687ZM19.9414 17.9738C20.2222 17.9127 20.4768 17.8288 20.7051 17.7219C20.9334 17.615 21.205 17.4747 21.5199 17.3011C22.1523 16.9347 22.6142 16.6046 22.9057 16.311C23.2163 16.0198 23.4794 15.6445 23.6949 15.1851C23.8281 14.9099 23.8604 14.6607 23.7918 14.4373C23.7425 14.2165 23.6248 13.9965 23.4387 13.7775C23.2502 13.5776 22.9904 13.4757 22.6595 13.4718C22.3311 13.4487 21.9311 13.6016 21.4596 13.9304C20.9448 14.2926 20.4884 14.7306 20.0904 15.2443C19.6924 15.7581 19.3209 16.519 18.9758 17.527C18.9126 17.7138 18.9623 17.8567 19.125 17.9557C19.2876 18.0548 19.5597 18.0608 19.9414 17.9738ZM31.5457 21.7001C31.3366 21.8095 31.087 21.8551 30.7969 21.837C30.5285 21.8022 30.3025 21.6657 30.1189 21.4275C29.7993 21.0351 29.5712 20.3135 29.4345 19.2625C29.3002 18.1924 29.3474 16.7754 29.576 15.0115C29.7545 14.2353 29.8873 13.5117 29.9743 12.8407C30.0804 12.1721 30.1384 11.7995 30.1484 11.7228C30.3767 11.6159 30.6501 11.6123 30.9686 11.7121C31.3087 11.7952 31.578 11.8983 31.7765 12.0215C31.9558 12.1422 32.0714 12.3034 32.1232 12.5051C32.1942 12.7092 32.207 13.0618 32.1616 13.5628C32.1378 14.0471 32.0615 14.7877 31.9321 15.7847C31.7752 16.5442 31.6574 17.1527 31.5786 17.6104C31.4998 18.0681 31.4842 18.339 31.5317 18.4231C31.591 18.5673 31.6194 18.6489 31.617 18.6681C31.617 18.6681 31.7794 18.5429 32.1043 18.2926C32.285 18.1016 32.484 17.8447 32.7013 17.5219C32.9377 17.2017 33.1367 16.9448 33.2983 16.7513C33.5439 16.5102 33.7692 16.2762 33.9741 16.0493C34.1981 15.8249 34.3534 15.6793 34.4401 15.6126C34.5366 15.4691 34.6511 15.3378 34.7836 15.2185C34.916 15.0992 35.0293 14.9774 35.1233 14.8531C35.3815 14.5161 35.6405 14.2475 35.9003 14.0473C36.1627 13.8278 36.3323 13.7231 36.4089 13.733C36.4782 13.8005 36.6232 13.8095 36.8441 13.7602C37.0674 13.6916 37.2174 13.6624 37.2941 13.6723C37.4457 13.5555 37.6278 13.5791 37.8405 13.7431C37.9098 13.8106 37.9682 13.8864 38.0158 13.9705C38.0658 14.0355 38.0859 14.1063 38.0759 14.183C38.0635 14.2789 37.9749 14.5111 37.8102 14.8796C37.6671 15.2315 37.4953 15.5796 37.2947 15.924C37.1158 16.2518 36.9746 16.4382 36.8713 16.4833C36.8713 16.4833 36.8388 16.5083 36.7739 16.5584C36.7089 16.6084 36.6331 16.6668 36.5465 16.7336C36.4907 16.8628 36.3242 17.0947 36.0469 17.4292C35.7913 17.7469 35.4707 18.1148 35.0851 18.5327C34.7212 18.9339 34.3477 19.3339 33.9646 19.7326C33.584 20.1122 33.248 20.4488 32.9565 20.7425C32.73 20.986 32.4784 21.1971 32.2018 21.3757C31.9277 21.5352 31.709 21.6433 31.5457 21.7001ZM38.2871 22.7199C38.2303 22.5566 38.0776 22.3809 37.8291 22.1927C37.5997 22.007 37.49 21.8758 37.4999 21.7991C37.5099 21.7224 37.4769 21.6012 37.4009 21.4354C37.3465 21.2529 37.286 21.1183 37.2192 21.0317C37.1383 20.9042 37.2031 20.63 37.4136 20.2089C37.6266 19.7686 37.9288 19.2424 38.32 18.6303C38.7112 18.0181 39.1325 17.4001 39.5837 16.7763C39.757 16.6428 39.9365 16.4613 40.1222 16.232C40.3079 16.0026 40.444 15.8545 40.5306 15.7878C40.5406 15.7111 40.578 15.6477 40.643 15.5977C40.7105 15.5284 40.7825 15.4988 40.8592 15.5087L41.1489 15.0784C41.1972 15.0066 41.3321 14.8682 41.5537 14.6629C41.7944 14.4602 42.076 14.2432 42.3983 14.0121C42.7232 13.7618 43.0456 13.5306 43.3655 13.3186C43.7046 13.1091 43.9774 12.9593 44.184 12.8691C44.6215 12.6529 45.0498 12.5817 45.4692 12.6555C45.9076 12.7318 46.2641 12.9145 46.5386 13.2035C46.5887 13.2685 46.6984 13.3997 46.8677 13.5971C47.0563 13.7969 47.2615 14.0185 47.4834 14.2617C47.7245 14.5074 47.9298 14.7289 48.0991 14.9263L49.0402 16.0133L48.365 17.3879C48.0163 18.1225 47.8623 18.7849 47.9028 19.375C47.9433 19.9651 48.0608 20.4872 48.2554 20.9413C48.3239 21.1646 48.4274 21.3437 48.5659 21.4787C48.7235 21.6161 48.9341 21.7213 49.1975 21.7945C49.3484 21.8335 49.4848 21.9097 49.6066 22.0229C49.7284 22.1362 49.7757 22.2983 49.7483 22.5092C49.6886 22.9693 49.5589 23.2937 49.359 23.4822C49.1807 23.6541 48.9933 23.7467 48.7966 23.7602C48.1539 23.7549 47.5587 23.6096 47.0108 23.3241C46.463 23.0387 46.0161 22.4252 45.6703 21.4836C45.6085 21.3586 45.5303 21.134 45.4359 20.8099C45.3631 20.469 45.3233 20.2494 45.3166 20.1511C45.2275 20.237 45.1059 20.3479 44.9518 20.4839C44.8193 20.6032 44.6881 20.7129 44.5582 20.8131C43.018 22.0171 41.7317 22.7667 40.6992 23.0618C39.6884 23.3402 38.8843 23.2262 38.2871 22.7199ZM40.1782 20.5379C40.31 20.5745 40.5296 20.5347 40.837 20.4186C41.147 20.2833 41.5665 20.055 42.0955 19.7336C42.8194 19.2621 43.4159 18.8715 43.8849 18.5619C44.354 18.2523 44.827 17.8359 45.3042 17.3129L46.0711 16.3596C45.9365 15.8938 45.8012 15.5838 45.6652 15.4297C45.5293 15.2756 45.3846 15.1886 45.2312 15.1688C44.9819 15.1365 44.6636 15.2609 44.2763 15.5421C43.8914 15.8042 43.4387 16.2134 42.9182 16.7698C42.4194 17.3095 41.8432 17.9951 41.1896 18.8267C40.8856 19.2162 40.6405 19.6036 40.4541 19.9888C40.2702 20.3549 40.1782 20.5379 40.1782 20.5379ZM51.9759 24.1138C51.8992 24.1038 51.7258 24.0131 51.4556 23.8416C51.1878 23.651 51.0206 23.5123 50.9538 23.4257C50.8395 23.2549 50.7744 23.0808 50.7584 22.9033C50.7449 22.7066 50.7729 22.3398 50.8425 21.8029C50.922 21.1894 51.1361 20.5153 51.4847 19.7807C51.8358 19.0269 52.393 18.0366 53.1564 16.8099L54.6449 14.5757C54.7581 14.4539 54.8593 14.35 54.9484 14.2641C55.04 14.159 55.14 14.0647 55.2482 13.9813C55.2866 13.9863 55.3345 13.9925 55.392 13.9999C55.4687 14.0099 55.525 14.0269 55.5609 14.0511C55.7309 14.0926 55.9857 14.2328 56.3251 14.4718C56.6838 14.7132 56.8766 15.0306 56.9036 15.424C56.8713 15.6732 56.7944 15.9655 56.673 16.3006C56.5541 16.6166 56.2681 17.0182 55.815 17.5054C55.6368 17.6772 55.4474 17.9353 55.2468 18.2798C55.0654 18.6266 54.896 18.9556 54.7388 19.2666C54.7146 19.3025 54.6447 19.3909 54.5289 19.5319C54.4348 19.6562 54.3395 19.79 54.2429 19.9335C54.1489 20.0577 54.0993 20.139 54.0944 20.1774L53.9458 20.4213L55.339 19.3737C56.3136 18.6227 57.1217 18.1036 57.7632 17.8163C58.4048 17.5291 58.9232 17.4403 59.3184 17.55C59.7327 17.6622 60.0372 17.9453 60.2318 18.3994C60.3411 18.6085 60.4097 18.8319 60.4374 19.0694C60.4676 19.2877 60.4736 19.542 60.4555 19.832C60.4374 20.1221 60.3806 20.4852 60.2851 20.9212L60.0727 22.5605C60.4494 22.5118 60.7373 22.4711 60.9365 22.4385C61.1382 22.3866 61.3386 22.3444 61.5378 22.3117C61.6961 22.2932 61.8545 22.2748 62.0129 22.2563C62.1904 22.2403 62.405 22.2389 62.6567 22.252C62.6053 22.4988 62.4601 22.7919 62.2211 23.1313C61.9822 23.4708 61.6953 23.804 61.3605 24.131C61.0449 24.4605 60.7079 24.7288 60.3497 24.9358C60.0106 25.1453 59.7069 25.2326 59.4385 25.1978C59.1892 25.1655 58.9116 25.0516 58.6055 24.8559C58.3019 24.6411 58.0661 24.2792 57.8982 23.77C57.8538 23.5109 57.8144 23.2133 57.7799 22.8774C57.7455 22.5416 57.7518 22.1915 57.7991 21.8272L57.963 20.5618C57.978 20.4467 57.9783 20.3688 57.9641 20.328C57.9716 20.2704 57.9657 20.2404 57.9465 20.238C57.8698 20.228 57.5945 20.397 57.1205 20.745C56.6657 21.0955 56.1988 21.4638 55.7199 21.8502C54.7186 22.6562 53.8923 23.2412 53.2408 23.6051C52.6084 23.9715 52.1868 24.1411 51.9759 24.1138ZM65.592 26.9018C65.3861 26.8361 65.1722 26.6817 64.9503 26.4385C64.7309 26.1761 64.5331 25.897 64.3569 25.6013C64.2025 25.2889 64.1089 25.033 64.0762 24.8339C64.0812 24.7955 64.0587 24.7439 64.0086 24.6789C63.9777 24.6164 63.9623 24.5851 63.9623 24.5851C63.893 24.5177 63.8774 24.2622 63.9154 23.8188C63.975 23.3586 64.0696 22.8543 64.1992 22.3057C64.3288 21.7571 64.453 21.3248 64.5719 21.0088C64.7076 20.7145 64.9048 20.3209 65.1636 19.8281C65.4249 19.3161 65.65 18.8579 65.8389 18.4535L66.8315 16.8861L65.7222 16.4206C65.5929 16.3649 65.4878 16.2733 65.4069 16.1458C65.3451 16.0208 65.3191 15.92 65.3291 15.8433C65.349 15.6899 65.4638 15.4806 65.6736 15.2154C65.8835 14.9502 66.0267 14.8225 66.1034 14.8324C66.1968 14.864 66.3681 14.896 66.6174 14.9283C66.8858 14.9631 67.1459 14.987 67.3976 15.0002C67.6493 15.0133 67.8053 15.014 67.8652 15.0023C67.947 14.9739 68.0298 14.9359 68.1139 14.8883C68.2005 14.8215 68.2717 14.7235 68.3275 14.5943C68.4507 14.3958 68.5582 14.244 68.6497 14.1389C68.7413 14.0338 68.8691 13.8749 69.0331 13.6623C69.1996 13.4304 69.3325 13.2332 69.4315 13.0705C69.5498 12.9104 69.7245 12.6894 69.956 12.4075C70.0693 12.2857 70.1959 12.1364 70.3357 11.9596C70.4756 11.7827 70.6405 11.6384 70.8305 11.5265C71.0229 11.3955 71.3146 11.3261 71.7055 11.3183C72.1181 11.2938 72.452 11.4248 72.7073 11.7113C72.8359 11.9229 72.8985 12.1162 72.8953 12.2913C72.8922 12.4663 72.7869 12.6769 72.5795 12.9229C72.3839 13.229 72.1633 13.5026 71.9176 13.7436C71.6936 13.968 71.4741 14.232 71.2593 14.5356C70.8979 14.9177 70.8093 15.1499 70.9936 15.2322C71.1779 15.3146 71.7197 15.3458 72.619 15.3259C73.1875 15.3021 73.5827 15.4118 73.8046 15.655C74.0266 15.8982 74.1355 16.1853 74.1316 16.5162C74.1295 16.9838 74.0455 17.2556 73.8797 17.3316C73.7139 17.4076 73.2667 17.3983 72.5382 17.3039C72.0681 17.321 71.6688 17.318 71.3404 17.2949C71.0145 17.2527 70.7748 17.2216 70.6214 17.2017C70.3697 17.1886 70.2054 17.1771 70.1288 17.1671C70.0521 17.1572 69.9345 17.1615 69.7762 17.1799C69.6178 17.1984 69.4941 17.2506 69.405 17.3365C69.3375 17.4058 69.2555 17.5121 69.1589 17.6555C69.0723 17.7223 68.9313 17.9087 68.7356 18.2148C68.5399 18.5208 68.3022 18.8507 68.0225 19.2043C67.6497 19.9748 67.319 20.7215 67.0304 21.4444C66.7635 22.1506 66.5156 22.8593 66.2869 23.5705C66.1823 23.9273 66.1571 24.197 66.2113 24.3795C66.2873 24.5453 66.5242 24.6735 66.9218 24.764C67.1302 24.8105 67.437 24.8502 67.8421 24.8833C68.2497 24.8971 68.5928 24.883 68.8711 24.8411C69.0944 24.7726 69.3273 24.7053 69.5698 24.6393C69.8148 24.554 70.0406 24.4663 70.2472 24.3761C70.4322 24.3026 70.6172 24.2291 70.8022 24.1556C70.9897 24.063 71.0834 24.0166 71.0834 24.0166C71.1991 23.8757 71.3296 23.9218 71.4748 24.1551C71.6417 24.3717 71.7486 24.6 71.7955 24.84C71.7657 25.07 71.6817 25.3418 71.5436 25.6554C71.4081 25.9497 71.011 26.2297 70.3528 26.4953C69.4204 26.9203 68.5154 27.1344 67.6377 27.1377C66.76 27.1409 66.0781 27.0623 65.592 26.9018ZM75.6866 27.7714C75.5282 27.7898 75.3244 27.7829 75.0752 27.7506C74.8284 27.6991 74.6117 27.6418 74.4249 27.5786C74.2598 27.4987 74.181 27.43 74.1884 27.3725C74.2008 27.2766 74.1591 27.2225 74.0633 27.2101C74.0633 27.2101 73.9678 27.1197 73.7767 26.939C73.5882 26.7391 73.4126 26.5896 73.25 26.4906C73.1122 26.1998 73.0369 25.8781 73.0241 25.5256C73.0331 25.1563 73.23 24.5385 73.6152 23.6722C73.714 23.0611 73.9697 22.4412 74.3826 21.8124C74.798 21.1644 75.2972 20.5467 75.8802 19.9595C76.4632 19.3722 77.0554 18.8641 77.6568 18.4351C78.2607 17.987 78.7898 17.6657 79.2439 17.4711C79.5471 17.2375 79.9204 17.1397 80.3639 17.1776C80.8265 17.2181 81.218 17.3565 81.5382 17.593C81.7175 17.7137 81.9036 17.9328 82.0964 18.2502C82.2892 18.5676 82.4699 18.9029 82.6386 19.2562C82.8097 19.5903 82.9367 19.8894 83.0194 20.1536C83.0496 20.372 83.0727 20.5699 83.0887 20.7474C83.1263 20.9083 83.1398 21.105 83.1292 21.3375C83.1186 21.5701 83.0546 21.9127 82.9375 22.3654C82.7969 22.6981 82.6647 23.0416 82.5408 23.396C82.4385 23.7336 82.3638 24.0846 82.3166 24.4489C82.231 24.8082 82.2358 25.072 82.331 25.2403C82.4454 25.4111 82.6358 25.4455 82.9024 25.3436C83.1474 25.2584 83.3883 25.2799 83.6252 25.408C83.8645 25.517 84.0171 25.6928 84.0832 25.9353C84.1709 26.1611 84.1061 26.4353 83.8888 26.7581C83.7415 26.9924 83.5283 27.2085 83.2492 27.4063C82.9702 27.604 82.6673 27.7598 82.3407 27.8734C82.0165 27.9678 81.7106 27.9964 81.423 27.9592C81.2122 27.9318 81.0112 27.8278 80.8201 27.6471C80.6316 27.4472 80.4697 27.1923 80.3344 26.8823C80.1992 26.5724 80.0963 26.2374 80.026 25.8773L79.9392 25.1935L78.7808 26.0084C78.4968 26.2445 78.2152 26.4615 77.9362 26.6593C77.6788 26.8403 77.5151 26.9751 77.4451 27.0635C77.3269 27.2236 77.1153 27.3522 76.8103 27.4491C76.5246 27.5485 76.1499 27.656 75.6866 27.7714ZM76.8209 25.1111C77.1717 24.9616 77.4795 24.7675 77.7444 24.5289C78.0284 24.2928 78.3066 24.0267 78.5789 23.7306C78.8538 23.4153 79.1502 23.0833 79.4683 22.7346C79.8514 22.3359 80.1274 22.011 80.2964 21.76C80.4846 21.5114 80.6369 21.2387 80.7533 20.9419C80.704 20.7211 80.6271 20.4869 80.5227 20.2394C80.4208 19.9728 80.304 19.8212 80.1722 19.7846C79.9038 19.7498 79.5568 19.8706 79.1311 20.1468C78.7245 20.4255 78.261 20.8431 77.7405 21.3995C77.6514 21.4854 77.5358 21.6264 77.3933 21.8224C77.2509 22.0184 77.1098 22.2048 76.9699 22.3816C76.8517 22.5417 76.7697 22.6481 76.7239 22.7006C76.6564 22.7699 76.5465 22.9408 76.3942 23.2135C76.2636 23.4695 76.1413 23.7363 76.0273 24.014C75.9158 24.2725 75.8526 24.4592 75.8377 24.5743C75.8228 24.6893 75.8163 24.8152 75.818 24.9519C75.8391 25.0911 75.9237 25.1898 76.0721 25.248C76.2205 25.3062 76.4701 25.2606 76.8209 25.1111Z" fill="#5E8BDC"></path></svg> 