<?xml version="1.0" encoding="UTF-8"?> <svg xmlns="http://www.w3.org/2000/svg" width="117" height="27" viewBox="0 0 117 27" fill="none"><path d="M2.63108 20.6344C2.37922 20.6448 2.03383 20.5649 1.59489 20.3947C1.17528 20.2251 0.881603 20.0503 0.713843 19.8703C0.585423 19.6723 0.458693 19.426 0.333673 19.1314C0.228663 18.8182 0.142283 18.5249 0.074553 18.2517C0.00749603 17.9592 -0.014324 17.7553 0.00908901 17.64L0.441783 15.2468C0.507253 15.0363 0.563063 14.8255 0.609203 14.6143C0.674673 14.4038 0.739793 14.203 0.804583 14.0118C0.786623 13.9725 0.831403 13.8 0.938923 13.4942C1.04712 13.1692 1.16601 12.8155 1.29558 12.4332C1.44515 12.0322 1.58336 11.6792 1.7102 11.3741C1.83772 11.0498 1.90182 10.8779 1.9025 10.8586C1.99138 10.5329 2.10856 10.2275 2.25404 9.94239C2.40021 9.63809 2.53602 9.35269 2.6615 9.08629C2.83108 8.66664 2.98997 8.27567 3.13818 7.91334C3.30571 7.55169 3.45221 7.23766 3.57768 6.97126C3.70316 6.70485 3.79761 6.49539 3.86103 6.34286C3.94377 6.19102 3.9848 6.12476 3.98412 6.14408L5.73806 2.49168C5.58895 2.33166 5.44086 2.14265 5.29379 1.92466C5.14672 1.70667 5.07864 1.4431 5.08956 1.13396C5.07774 0.920743 5.13218 0.748563 5.25288 0.617403C5.39291 0.486933 5.54157 0.385773 5.69887 0.313943C5.97005 0.304173 6.2219 0.293723 6.45444 0.282583C6.7063 0.272133 6.98612 0.291683 7.2939 0.341233C7.41051 0.326003 7.52677 0.320443 7.6427 0.324533C7.77795 0.329303 7.90388 0.324073 8.02049 0.308843C8.11641 0.331583 8.222 0.354653 8.33725 0.378063C8.45317 0.382163 8.59911 0.358293 8.77504 0.306463C8.96962 0.274643 9.22178 0.254533 9.53168 0.246123C9.86078 0.238393 10.19 0.230663 10.5191 0.222943C10.8489 0.195893 11.1394 0.186803 11.3906 0.195673C11.6618 0.185893 11.836 0.182373 11.9133 0.185103C12.1458 0.173963 12.3784 0.162833 12.6109 0.151693C12.8434 0.140553 13.076 0.129423 13.3085 0.118283C13.5604 0.107823 13.8026 0.0970334 14.0351 0.0858934C14.2677 0.0747634 14.5002 0.0636233 14.7327 0.0524833C15.3365 -0.0616167 15.7305 0.0103233 15.9149 0.268323C16.1192 0.507683 16.2759 0.726013 16.385 0.923323C16.4203 1.02129 16.4824 1.17824 16.5715 1.39419C16.6807 1.59149 16.7318 1.78675 16.725 1.97997C16.7382 2.15454 16.5988 2.26569 16.307 2.31343C16.2635 2.44731 16.1245 2.5488 15.8899 2.61791C15.6754 2.66837 15.4156 2.63018 15.1105 2.50334C15.0725 2.48265 14.8017 2.48276 14.298 2.50367C13.8143 2.50594 13.2139 2.52344 12.497 2.55617C11.7801 2.5889 11.0628 2.63129 10.3452 2.68334C9.64758 2.71674 9.05618 2.75391 8.57113 2.79482C8.50839 2.92802 8.43599 3.06088 8.35394 3.1934C8.2912 3.32661 8.22846 3.45981 8.16572 3.59301C8.02024 3.87806 7.87476 4.1631 7.72928 4.44815C7.6038 4.71455 7.46833 4.99028 7.32285 5.27533C7.17737 5.56037 7.03189 5.84542 6.88641 6.13046C6.76093 6.39687 6.63545 6.66327 6.50998 6.92968C6.4486 7.02424 6.38689 7.12846 6.32483 7.24234C6.26278 7.35622 6.20106 7.46044 6.13969 7.555C6.31426 7.54182 6.47917 7.5283 6.63443 7.51443C6.809 7.50125 6.98357 7.48807 7.15815 7.47488C7.43001 7.44579 7.73847 7.47602 8.08352 7.56559C8.42926 7.63583 8.77397 7.73505 9.11768 7.86325C9.46208 7.97214 9.77678 8.09932 10.0618 8.2448C10.3475 8.37096 10.566 8.48507 10.7171 8.58713C11.152 8.87332 11.5378 9.17709 11.8747 9.49849C12.2316 9.80129 12.5274 10.189 12.7622 10.6616C12.9225 11.0541 13.0717 11.485 13.2099 11.9542C13.3488 12.404 13.3897 12.8891 13.3326 13.4094C13.3299 13.4867 13.2938 13.6886 13.2242 14.015C13.1747 14.3227 13.0954 14.6488 12.9866 14.9932C12.8977 15.3189 12.7919 15.5764 12.6691 15.7655C12.4636 16.1064 12.2195 16.446 11.9367 16.7843C11.6733 17.1232 11.3908 17.4518 11.0894 17.77C10.7266 18.1828 10.3179 18.5262 9.86328 18.8004C9.40938 19.0552 8.96643 19.2717 8.53454 19.4499C8.1413 19.6295 7.8367 19.7638 7.62076 19.8529C7.40481 19.942 7.20887 20.0125 7.03293 20.0643C6.877 20.0975 6.6531 20.138 6.36123 20.1857C6.24462 20.2009 6.12767 20.2258 6.01038 20.2604C5.91309 20.2763 5.80614 20.2918 5.68953 20.3071C5.57292 20.3223 5.45597 20.3472 5.33868 20.3817C5.0234 20.5447 4.71085 20.6304 4.40103 20.6388C4.09052 20.6666 3.80002 20.6756 3.52952 20.6661C3.37495 20.6606 3.22072 20.6455 3.06683 20.6207C2.93158 20.616 2.78633 20.6205 2.63108 20.6344ZM2.39924 18.1597C2.70906 18.1512 3.00854 18.1618 3.29768 18.1914C3.5875 18.2016 3.86902 18.1729 4.14225 18.1051C5.11786 17.8687 6.00687 17.6196 6.80928 17.3577C7.631 17.0966 8.37328 16.6198 9.03612 15.9274C9.51898 15.4028 9.88408 14.9224 10.1317 14.4862C10.3792 14.05 10.5715 13.5344 10.7086 12.9395C10.7741 12.7291 10.7819 12.5069 10.7321 12.273C10.6823 12.0391 10.6256 11.7275 10.562 11.3384C10.4556 11.0638 10.3555 10.8861 10.2616 10.8055C10.1684 10.7054 10.0549 10.6337 9.92098 10.5903C9.78708 10.5469 9.61588 10.4635 9.40748 10.34C9.21968 10.1786 8.94365 10.0528 8.57927 9.96259C8.21489 9.87229 7.86916 9.80209 7.54206 9.75189C7.36953 9.70709 7.187 9.67159 6.99447 9.64549C6.82126 9.61999 6.64805 9.59459 6.47484 9.56909C6.30231 9.52429 6.11978 9.48879 5.92725 9.46269C5.75473 9.41789 5.58186 9.38279 5.40865 9.35729C5.3866 9.43389 5.29249 9.63379 5.12633 9.95679C4.97948 10.2804 4.81161 10.6518 4.62271 11.0707C4.45382 11.471 4.30561 11.8333 4.17809 12.1577C3.9651 12.7112 3.76142 13.2747 3.56707 13.8482C3.3734 14.4024 3.19905 14.9572 3.04402 15.5128C2.97583 15.8005 2.89695 16.1169 2.80739 16.462C2.73783 16.7884 2.65895 17.1048 2.57075 17.4112C2.50256 17.699 2.44539 17.9485 2.39924 18.1597ZM21.4691 20.748C21.2827 20.548 21.1374 20.2817 21.033 19.9491C20.9294 19.5973 20.8274 19.1971 20.7272 18.7486C20.694 18.5927 20.6808 18.4181 20.6876 18.2249C20.7138 18.0324 20.7192 17.8778 20.704 17.7612C20.6413 17.8944 20.5385 18.0649 20.3958 18.2726C20.2723 18.4811 20.151 18.6315 20.0316 18.7241C19.9516 18.7986 19.7723 18.947 19.4936 19.1693C19.2156 19.3723 18.9389 19.5367 18.6637 19.6624C18.0117 20.0456 17.4349 20.2187 16.9333 20.1817C16.4516 20.126 16.0354 19.8598 15.6847 19.3831C15.3844 19.121 15.1445 18.7934 14.9649 18.4001C14.7853 18.0069 14.763 17.5418 14.8981 17.0049C14.9606 16.33 15.0804 15.6765 15.2575 15.0443C15.4352 14.3929 15.7847 13.5347 16.3059 12.4697C16.7397 11.6919 17.0706 11.0845 17.2988 10.6476C17.5271 10.2107 17.6715 9.95469 17.7322 9.87939C18.0254 9.79309 18.3825 9.81529 18.8035 9.94629C19.2252 10.0579 19.4506 10.2496 19.4796 10.5215C19.5888 10.7188 19.5758 11.0859 19.4408 11.6228C19.3064 12.1404 19.0534 12.7311 18.6818 13.3951C18.3881 14.0425 18.1047 14.6709 17.8317 15.2803C17.5781 15.8904 17.4147 16.407 17.3418 16.83C17.2881 17.2537 17.3948 17.5186 17.6619 17.6248C17.8324 17.7275 18.0839 17.7267 18.4165 17.6224C18.7684 17.5187 19.1864 17.1853 19.6705 16.622C20.1547 16.0587 20.6798 15.1584 21.2458 13.9209C21.414 13.5399 21.5419 13.2059 21.6294 12.9188C21.7176 12.6124 21.7778 12.276 21.8101 11.9096C21.7797 11.6763 21.8462 11.4369 22.0096 11.1911C22.1924 10.9461 22.402 10.7601 22.6387 10.633C22.7194 10.5391 22.8287 10.4559 22.9667 10.3834C23.1053 10.2916 23.1923 10.2946 23.2275 10.3926L23.6923 10.38C23.7702 10.3634 23.8544 10.4438 23.9449 10.6211C24.0354 10.7984 24.1276 10.9274 24.2214 11.0081C24.4278 11.1895 24.5111 11.5696 24.4714 12.1486C24.4316 12.7275 24.1711 13.5309 23.6898 14.5585C23.2948 15.3377 23.0225 15.9278 22.8729 16.3288C22.7426 16.7305 22.661 17.1242 22.6281 17.5099C22.6158 17.8577 22.6342 18.1582 22.6833 18.4114C22.7331 18.6453 22.8984 18.893 23.1794 19.1544C23.3872 19.2971 23.4949 19.5331 23.5026 19.8622C23.5304 20.1727 23.5305 20.4436 23.503 20.6747C23.4582 20.8473 23.2995 20.9577 23.027 21.0061C22.7731 21.0746 22.4922 21.084 22.1844 21.0344C21.896 20.9856 21.6575 20.8901 21.4691 20.748ZM26.75 20.0349C26.3883 19.8674 26.097 19.6249 25.8761 19.3076C25.6751 18.9716 25.5828 18.5718 25.5992 18.1081C25.606 17.9149 25.6563 17.5878 25.7499 17.1268C25.8436 16.6658 25.9683 16.1479 26.124 15.573C26.2797 14.9982 26.434 14.4619 26.587 13.9644C26.7925 13.6234 26.9304 13.28 27.0006 12.9343C27.0902 12.5892 27.1363 12.3781 27.139 12.3008C27.1859 12.0703 27.2644 11.7635 27.3747 11.3805C27.4849 10.9975 27.5938 10.6531 27.7013 10.3474C27.8288 10.023 27.9126 9.84219 27.9526 9.80489C28.0526 9.71169 28.2189 9.65959 28.4514 9.64839C28.684 9.63729 28.9148 9.67449 29.1439 9.75989C29.3737 9.82609 29.5239 9.95709 29.5943 10.1531C29.7987 10.3924 29.9023 10.7443 29.9053 11.2087C29.9276 11.6738 29.8215 12.2117 29.5872 12.8225C29.3996 13.2028 29.2097 13.6507 29.0174 14.1662C28.8251 14.6818 28.6535 15.1593 28.5025 15.5989C28.3716 16.0199 28.2937 16.3074 28.269 16.4612L27.2266 16.3954C27.566 16.0979 27.8864 15.79 28.1878 15.4718C28.4899 15.1342 28.712 14.8712 28.8541 14.6828C29.1982 14.25 29.4913 13.8928 29.7334 13.6111C29.9955 13.3109 30.3273 12.955 30.7287 12.5436C31.1308 12.1128 31.5571 11.8184 32.0077 11.6602C32.4589 11.4826 32.7908 11.3976 33.0033 11.4051C33.4256 11.4974 33.7946 11.7329 34.1101 12.1116C34.4456 12.4717 34.6397 13.0008 34.6924 13.6991C34.6829 13.9696 34.6426 14.2874 34.5717 14.6525C34.5201 15.0182 34.4943 15.2011 34.4943 15.2011C34.4943 15.2011 34.6557 15.0133 34.9785 14.6378C35.3206 14.263 35.7707 13.8436 36.3287 13.3797C36.7054 13.1221 37.0683 12.9802 37.4174 12.9538C37.7672 12.9081 38.0723 13.035 38.3325 13.3343C38.8254 13.6226 39.1757 14.1089 39.3837 14.7933C39.5917 15.4777 39.6421 16.2437 39.5348 17.0911C39.4591 17.5914 39.4447 17.9971 39.4918 18.3083C39.5588 18.6009 39.6269 18.8644 39.696 19.099C39.9349 19.4557 39.9627 19.7662 39.7792 20.0305C39.5965 20.2756 39.4375 20.3957 39.3022 20.3909C39.109 20.3841 38.8205 20.3352 38.4368 20.2443C38.0531 20.1534 37.7005 20.0055 37.3788 19.8007C37.0765 19.5966 36.9311 19.3303 36.9427 19.0018L37.0062 17.2049C37.0212 16.7799 37.0128 16.4701 36.9809 16.2755C36.9691 16.0623 36.9256 15.9253 36.8504 15.8646C36.6419 15.7412 36.378 15.8189 36.0586 16.0978C35.7393 16.3767 35.3865 16.7802 35.0003 17.3082C34.6341 17.8176 34.2365 18.3936 33.8076 19.0362C33.4193 19.6222 33.1069 19.9788 32.8703 20.1058C32.6343 20.2136 32.4125 20.1961 32.2047 20.0533C31.7844 19.9031 31.5204 19.71 31.4126 19.474C31.3249 19.2194 31.3251 18.9389 31.4133 18.6325C31.5215 18.3075 31.6525 17.8865 31.8061 17.3696C31.9791 16.8534 32.1418 16.3561 32.2941 15.8779C32.447 15.3803 32.5469 15.0163 32.5938 14.7858C32.5219 14.6285 32.3884 14.5754 32.1931 14.6265C32.0179 14.659 31.8313 14.7395 31.6333 14.8679C31.396 15.0143 31.139 15.1697 30.8624 15.334C30.605 15.4991 30.2926 15.8556 29.925 16.4036C29.6802 16.7626 29.4051 17.1591 29.0996 17.5933C28.7947 18.0081 28.5106 18.385 28.2471 18.7239C28.003 19.0635 27.8013 19.2982 27.6419 19.428C27.4944 19.771 27.361 19.9887 27.2416 20.0813C27.123 20.1544 26.9591 20.139 26.75 20.0349ZM41.1067 26.8676C40.8334 26.9354 40.5557 26.8578 40.2733 26.6351C40.0103 26.413 39.808 26.1157 39.6664 25.7431C39.5441 25.3712 39.5574 24.9945 39.7063 24.6128C39.7491 24.4982 39.8138 24.3071 39.9007 24.0393C39.9868 23.7909 40.043 23.5704 40.0691 23.3778C40.0932 23.2433 40.1594 23.0135 40.2676 22.6884C40.3751 22.3827 40.4923 22.0773 40.6191 21.7722C40.7653 21.4679 40.8794 21.2494 40.9614 21.1169C41.0842 20.9278 41.1693 20.7083 41.2168 20.4585C41.2837 20.2094 41.3195 20.0172 41.3242 19.8819C41.3676 19.7481 41.4214 19.5952 41.4855 19.4233C41.5689 19.2522 41.651 19.1197 41.7317 19.0258C41.7758 18.8726 41.8395 18.7104 41.923 18.5392C42.0071 18.3487 42.0998 18.1876 42.2012 18.0557C42.2446 17.9219 42.2794 17.7587 42.3055 17.5661C42.351 17.3743 42.4127 17.2701 42.4907 17.2535C42.5127 17.1769 42.5251 17.0999 42.5279 17.0226C42.5499 16.946 42.5923 16.8411 42.655 16.7079C42.7012 16.4967 42.799 16.1907 42.9486 15.7897C43.0982 15.3887 43.2781 14.9501 43.4884 14.4739C43.7207 13.9211 43.8826 13.4432 43.9742 13.0402C44.0665 12.6178 43.9698 12.3436 43.6841 12.2174C43.5323 12.1347 43.4418 11.9574 43.4127 11.6855C43.3843 11.3943 43.4138 11.1052 43.5013 10.8181C43.5889 10.531 43.7109 10.3612 43.8675 10.3087C44.0442 10.2376 44.2584 10.1968 44.5103 10.1863C44.7621 10.1759 44.9843 10.1837 45.1768 10.2098C45.3894 10.2173 45.4853 10.2401 45.4646 10.278C45.4612 10.3746 45.5075 10.4343 45.6034 10.457C45.6441 10.4004 45.7183 10.4901 45.826 10.7261C45.9538 10.9434 46.0708 11.1893 46.1772 11.4639C46.2836 11.7385 46.3351 11.9241 46.3317 12.0207C46.2903 12.0966 46.2693 12.1442 46.2686 12.1636C46.2686 12.1636 46.3072 12.1649 46.3845 12.1677C46.3845 12.1677 46.4925 12.1231 46.7084 12.034C46.9251 11.9256 47.1517 11.8078 47.3883 11.6808C47.645 11.5351 47.8133 11.4249 47.8933 11.3504C47.8933 11.3504 47.9423 11.3328 48.0403 11.2975C48.1582 11.2437 48.2572 11.1794 48.3372 11.1049C48.7291 10.964 49.1456 10.9496 49.5865 11.0619C50.0468 11.1749 50.4078 11.3618 50.6694 11.6225C51.0388 12.1192 51.3075 12.7284 51.4755 13.4501C51.6628 14.1725 51.6092 14.867 51.3149 15.5337C51.2728 15.6289 51.1801 15.7901 51.0366 16.0172C50.9132 16.2256 50.7901 16.4244 50.6674 16.6135C50.5453 16.7833 50.4843 16.8682 50.4843 16.8682C50.0153 17.5481 49.5022 18.1103 48.9448 18.555C48.4067 19.0003 47.8224 19.3859 47.1919 19.7118C46.9939 19.8403 46.719 19.9563 46.3671 20.06C46.0345 20.1643 45.7223 20.2403 45.4305 20.2881C45.1579 20.3365 44.9933 20.3403 44.9367 20.2996C44.7297 20.1376 44.548 19.8023 44.3919 19.2938C44.2864 19.5416 44.1809 19.7893 44.0755 20.0371C43.99 20.2662 43.9362 20.4191 43.9142 20.4957C43.8901 20.6303 43.8667 20.7455 43.844 20.8414C43.8219 20.918 43.7712 20.984 43.6919 21.0392C43.6919 21.0392 43.6809 21.0775 43.6588 21.1541C43.6368 21.2307 43.565 21.3442 43.4437 21.4947C43.2307 22.0482 43.0607 22.4775 42.9339 22.7825C42.8064 23.1069 42.7006 23.3643 42.6165 23.5548C42.551 23.7653 42.4852 23.9855 42.419 24.2153C42.362 24.7356 42.217 25.2818 41.984 25.8539C41.7703 26.4268 41.4778 26.7646 41.1067 26.8676ZM45.7575 17.6009C45.8361 17.565 45.9737 17.5022 46.1704 17.4124C46.3863 17.3233 46.6223 17.2155 46.8782 17.0891C47.1348 16.9434 47.3718 16.8067 47.5891 16.679C47.8264 16.5326 47.9954 16.4031 48.0961 16.2906C48.2569 16.1222 48.3486 15.99 48.3713 15.8941C48.3947 15.7788 48.4495 15.597 48.5357 15.3485C48.5991 15.196 48.6728 15.0245 48.7569 14.834C48.841 14.6435 48.9152 14.4624 48.9793 14.2905C49.062 14.1387 49.0964 13.9851 49.0826 13.8299C49.0887 13.656 49.0359 13.509 48.924 13.389C48.8474 13.367 48.6628 13.3895 48.3703 13.4565C48.0971 13.5243 47.7728 13.6676 47.3975 13.8865C47.0416 14.106 46.6818 14.4319 46.3184 14.864C45.8942 15.3714 45.607 15.8352 45.4567 16.2555C45.3072 16.6564 45.2666 16.9839 45.335 17.2378C45.4041 17.4724 45.5449 17.5934 45.7575 17.6009ZM61.7801 22.3161C61.1887 22.0824 60.7093 21.6883 60.342 21.1336C59.9946 20.5604 59.7543 19.9715 59.6208 19.3671C59.5408 19.4417 59.4608 19.5162 59.3808 19.5908C59.3208 19.6467 59.2408 19.7212 59.1408 19.8144C58.84 20.1134 58.4906 20.4202 58.0926 20.735C57.6946 21.0499 57.2886 21.316 56.8747 21.5336C56.4614 21.7318 56.0526 21.8044 55.6482 21.7514C55.3466 21.528 55.0543 21.3145 54.7713 21.1111C54.5083 20.889 54.306 20.5917 54.1644 20.2191C54.1651 20.1998 54.1557 20.1898 54.1364 20.1891C54.1364 20.1891 54.1368 20.1795 54.1374 20.1601C53.9986 19.7103 53.8966 19.3101 53.8316 18.9596C53.7866 18.5905 53.823 18.1081 53.9407 17.5126C54.0778 16.9177 54.33 16.0754 54.6973 14.9857C54.849 14.5267 55.0102 14.0681 55.1812 13.6099C55.3528 13.1323 55.5227 12.703 55.6909 12.3221C55.8598 11.9218 56.0167 11.5888 56.1615 11.3231C56.3063 11.0573 56.438 10.8879 56.5566 10.8147C56.6533 10.8181 56.7402 10.8212 56.8175 10.8239C56.8955 10.8073 56.9731 10.8004 57.0504 10.8031C57.2243 10.8092 57.4334 10.9133 57.6777 11.1154C57.8289 11.2175 57.9701 11.3289 58.1012 11.4496C58.2517 11.5709 58.3445 11.6806 58.3798 11.7786C58.4882 11.9952 58.4346 12.4189 58.2188 13.0497C58.0031 13.6805 57.7467 14.3679 57.4496 15.1119C57.1725 15.8372 56.9151 16.5536 56.6773 17.2609C56.4595 17.9497 56.3825 18.4886 56.4461 18.8778C56.6607 18.8273 56.8563 18.7665 57.0329 18.6954C57.2295 18.6056 57.4075 18.4958 57.5669 18.366C57.9035 18.1458 58.2126 17.8858 58.494 17.5862C58.7754 17.2866 59.0185 16.976 59.2233 16.6544C59.4481 16.3141 59.6236 16.0011 59.7497 15.7154C59.9393 15.2771 60.1075 14.8962 60.2544 14.5725C60.4019 14.2295 60.5184 13.9434 60.6039 13.7143C60.69 13.4658 60.7458 13.255 60.7713 13.0818C60.8161 12.9092 60.8408 12.7554 60.8456 12.6201C60.8386 12.2716 60.8861 12.0218 60.9882 11.8707C61.1102 11.7009 61.3289 11.5345 61.6442 11.3715C61.7987 11.377 61.953 11.3921 62.1069 11.4169C62.2614 11.4223 62.406 11.4371 62.5406 11.4612C62.6904 11.6019 62.8395 11.7619 62.9879 11.9413C63.1563 12.102 63.3151 12.2623 63.4642 12.4224C63.6031 12.8722 63.565 13.4029 63.35 14.0143C63.155 14.6071 62.9396 15.2283 62.7039 15.8777C62.4675 16.5464 62.2697 17.2165 62.1106 17.888C61.9714 18.5408 62.0476 19.1239 62.339 19.6372C62.6336 19.5121 62.9096 19.3671 63.1669 19.2021C63.4249 19.0178 63.6829 18.8334 63.9409 18.6491C64.1989 18.4647 64.4562 18.2997 64.7128 18.154C65.0151 18.3581 65.2447 18.7048 65.4015 19.1939C65.5584 19.6831 65.6307 20.1016 65.6184 20.4494C65.5577 20.5246 65.4877 20.5898 65.4084 20.6451C65.3483 20.701 65.2787 20.7566 65.1993 20.8118C65.0345 21.0962 64.7438 21.3858 64.3272 21.6806C63.9112 21.9561 63.4686 22.1629 62.9994 22.3011C62.5303 22.4393 62.1238 22.4443 61.7801 22.3161ZM67.6682 21.7985C67.4798 21.6564 67.3393 21.5257 67.2468 21.4064C67.1543 21.2871 67.1214 21.1215 67.1483 20.9096C67.1971 20.6212 67.2653 20.3334 67.3528 20.0463C67.4404 19.7592 67.5475 19.4631 67.6744 19.1581C67.7612 18.8903 67.8791 18.5656 68.028 18.184C68.1969 17.7837 68.3558 17.3927 68.5046 17.011C68.8658 16.0952 69.225 15.2373 69.5821 14.4374C69.9399 13.6182 70.3814 12.6182 70.9068 11.4373C71.0109 11.2282 71.1036 11.067 71.185 10.9538C71.2671 10.8213 71.3681 10.6991 71.4881 10.5873C71.5709 10.4355 71.7285 10.354 71.961 10.3428C72.2129 10.3324 72.4634 10.3606 72.7125 10.4274C72.9617 10.4942 73.1325 10.5873 73.225 10.7066C73.3941 10.848 73.5042 11.0164 73.5554 11.2116C73.6072 11.3876 73.61 11.5811 73.5639 11.7923C73.5612 11.8696 73.5188 11.9745 73.4367 12.107C73.3553 12.2202 73.274 12.3334 73.1926 12.4466C73.1105 12.5791 73.0374 12.7313 72.9733 12.9031C72.9099 13.0557 72.8362 13.2272 72.7521 13.4176C72.5397 13.9518 72.3208 14.3987 72.0953 14.7583C71.8892 15.1186 71.6813 15.5272 71.4717 15.9841C71.3849 16.2518 71.2974 16.5389 71.2092 16.8453C71.121 17.1518 71.0441 17.4102 70.9787 17.6207C70.7918 17.9817 70.6457 18.286 70.5402 18.5338C70.4354 18.7622 70.3599 18.9821 70.3138 19.1932C70.1553 19.8454 69.9903 20.4102 69.8187 20.8878C69.6478 21.3461 69.4706 21.7074 69.2871 21.9717C69.2037 22.1429 69.0174 22.2137 68.7283 22.1842C68.4591 22.136 68.1058 22.0074 67.6682 21.7985ZM75.5557 22.7734C75.2473 22.7431 74.9788 22.6756 74.7504 22.5708C74.5219 22.4661 74.2113 22.2229 73.8185 21.8415C73.483 21.4815 73.1116 21.0427 72.7043 20.5254C72.3163 20.0087 71.9193 19.4724 71.5133 18.9164C71.1266 18.361 70.7676 17.8454 70.4362 17.3694L72.2904 15.8098C72.5306 16.1279 72.7616 16.4359 72.9832 16.7339C73.2242 17.0326 73.3988 17.2902 73.5073 17.5068C73.8573 18.0028 74.1418 18.4385 74.3607 18.8138C74.5989 19.1897 74.8192 19.5264 75.0215 19.8237C75.2245 20.1017 75.4474 20.3611 75.6904 20.6018C75.9341 20.8232 76.2554 21.0376 76.6543 21.2452C76.7109 21.2859 76.7655 21.3845 76.818 21.5411C76.8905 21.6791 76.924 21.8254 76.9186 21.98C76.8524 22.2098 76.7204 22.3889 76.5224 22.5173C76.3437 22.6464 76.0215 22.7318 75.5557 22.7734ZM71.0861 17.0441C71.0943 16.8123 71.1221 16.5714 71.1696 16.3216C71.2365 16.0725 71.3809 15.8164 71.603 15.5534C71.6851 15.4209 71.8054 15.2994 71.9641 15.189C72.1234 15.0592 72.2141 14.956 72.2362 14.8794C72.2569 14.8414 72.3565 14.7579 72.5352 14.6288C72.7145 14.4803 72.8739 14.3505 73.0132 14.2394C73.2512 14.0737 73.5589 13.8524 73.9362 13.5755C74.3136 13.2987 74.6909 13.0218 75.0682 12.7449C75.4456 12.4681 75.7732 12.2282 76.0512 12.0252C76.3292 11.8222 76.4982 11.6927 76.5582 11.6368C76.6583 11.5436 76.8049 11.5004 76.9981 11.5073C77.192 11.4948 77.3745 11.5302 77.5457 11.6136C77.7755 11.6798 77.9443 11.8308 78.052 12.0668C78.1604 12.2834 78.2192 12.537 78.2283 12.8275C78.2601 13.022 78.1653 13.2412 77.9439 13.4848C77.7232 13.7092 77.3955 13.9491 76.9609 14.2046C76.8029 14.2958 76.5356 14.4701 76.159 14.7277C75.7823 14.9852 75.4943 15.1975 75.295 15.3646C75.157 15.4371 74.9197 15.5835 74.583 15.8037C74.2657 16.0247 74.0174 16.2094 73.838 16.3578C73.68 16.4489 73.4514 16.6246 73.152 16.8849C72.8726 17.1265 72.6236 17.3306 72.4049 17.4969C71.9062 17.9243 71.6006 18.0876 71.4881 17.9869C71.3949 17.8869 71.2609 17.5726 71.0861 17.0441ZM82.9715 23.0932C82.4078 23.17 81.8492 23.1019 81.2957 22.8889C80.7615 22.6766 80.3183 22.3515 79.9662 21.9134C79.6341 21.4568 79.479 20.9193 79.5008 20.301C79.4633 19.7193 79.5358 19.0351 79.7184 18.2484C79.9209 17.4431 80.2007 16.6404 80.5579 15.8405C80.9343 15.0413 81.3546 14.3694 81.8187 13.8248C82.2215 13.3747 82.623 12.9633 83.023 12.5905C83.4231 12.2177 83.7801 11.9691 84.094 11.8448C84.3686 11.7384 84.7001 11.6631 85.0886 11.6187C85.4971 11.5558 85.7786 11.527 85.9332 11.5325C86.2396 11.6207 86.5733 11.7582 86.9342 11.9451C87.3145 12.1326 87.5006 12.3423 87.4924 12.5741C87.4924 12.5741 87.5107 12.6038 87.5473 12.6631C87.6039 12.7038 87.6322 12.7242 87.6322 12.7242C87.7481 12.7283 87.8686 12.8776 87.9936 13.1722C88.1386 13.4481 88.2433 13.771 88.3076 14.1409C88.3726 14.4914 88.3434 14.7709 88.22 14.9793C88.1298 15.3437 87.9626 15.6957 87.7184 16.0353C87.4936 16.3755 87.3039 16.543 87.1494 16.5375C87.0721 16.5348 86.9945 16.5417 86.9165 16.5583C86.8585 16.5563 86.8278 16.6035 86.8244 16.7001C86.821 16.7967 86.713 16.8413 86.5005 16.8338C86.3073 16.827 86.1058 16.7812 85.896 16.6964C85.6862 16.6116 85.555 16.4909 85.5025 16.3343C85.5059 16.2377 85.5297 16.1128 85.5738 15.9596C85.6179 15.8064 85.685 15.5476 85.7753 15.1832C85.9103 14.6463 85.9326 14.2892 85.8421 14.1119C85.7523 13.9153 85.5115 13.8874 85.1196 14.0283C84.627 14.2818 84.2197 14.5866 83.8976 14.9428C83.5762 15.2797 83.2786 15.7625 83.0049 16.3912C82.7506 17.0206 82.4584 17.9002 82.1283 19.0299C81.9967 19.4702 81.9651 19.8173 82.0335 20.0712C82.1213 20.3258 82.1938 20.4638 82.2511 20.4852C82.5188 20.572 82.808 20.6015 83.1185 20.5738C83.449 20.5274 83.7225 20.45 83.9392 20.3416C84.2538 20.198 84.5301 20.0433 84.7681 19.8776C85.026 19.6932 85.3037 19.4999 85.601 19.2976C85.6997 19.243 85.7904 19.1398 85.8731 18.988C85.9565 18.8168 86.0769 18.6953 86.2342 18.6235C86.397 18.3971 86.5943 18.288 86.8261 18.2962C87.078 18.2857 87.3198 18.2846 87.5517 18.2928C87.7049 18.3369 87.8657 18.4393 88.0342 18.6C88.2026 18.7607 88.3227 18.9197 88.3946 19.077C88.4864 19.2157 88.4733 19.3119 88.3553 19.3658C88.2781 19.3631 88.2287 19.3904 88.2074 19.4476C88.206 19.4863 88.2053 19.5056 88.2053 19.5056C88.2412 19.5843 88.1481 19.7551 87.9261 20.0181C87.7233 20.2817 87.4619 20.5627 87.1418 20.8609C86.8218 21.1592 86.5128 21.4191 86.2148 21.6407C85.9368 21.8437 85.7398 21.9431 85.6239 21.939C85.4306 21.9322 85.332 21.9868 85.3279 22.1027C85.3265 22.1414 85.1782 22.2328 84.8829 22.3772C84.607 22.5222 84.2827 22.6655 83.9102 22.8071C83.5569 22.9494 83.244 23.0448 82.9715 23.0932ZM91.8307 23.0577C91.7548 23.0163 91.6233 22.9053 91.4362 22.7246C91.2685 22.5446 91.1014 22.3452 90.935 22.1265C90.7693 21.8885 90.6595 21.7106 90.6057 21.5926C90.5511 21.4939 90.5572 21.32 90.6241 21.0709C90.7102 20.8225 90.7919 20.6996 90.8692 20.7023C90.9258 20.743 91.0055 20.6781 91.1082 20.5076C91.211 20.3372 91.3141 20.157 91.4175 19.9672C91.5216 19.7581 91.5744 19.6342 91.5757 19.5956C91.5978 19.519 91.6481 19.4627 91.7268 19.4268C91.8254 19.3722 91.9144 19.3173 91.9937 19.2621C92.0958 19.1109 92.2268 18.9608 92.3869 18.8117C92.5669 18.6439 92.7073 18.5038 92.808 18.3913C92.9694 18.2035 93.2597 17.9236 93.6791 17.5515C94.0985 17.1794 94.5086 16.7973 94.9093 16.4052C95.3308 15.9751 95.7019 15.6013 96.0226 15.2838C96.344 14.9469 96.5168 14.7112 96.5409 14.5766C96.5409 14.5766 96.5709 14.5486 96.6309 14.4927C96.7109 14.4182 96.8002 14.3536 96.8989 14.2991C96.9975 14.2445 97.1265 14.1523 97.2859 14.0225C97.4645 13.8934 97.6139 13.773 97.7339 13.6611C97.778 13.5079 97.8711 13.3371 98.0132 13.1487C98.1752 12.9416 98.3563 12.7448 98.5563 12.5584C98.7191 12.332 98.8729 12.086 99.0176 11.8203C99.163 11.5352 99.258 11.3258 99.301 11.1919C99.366 10.9814 99.352 10.8551 99.256 10.8131C99.162 10.7517 98.9043 10.6459 98.484 10.4956C98.0258 10.3247 97.5921 10.2803 97.1829 10.3626C96.7738 10.4449 96.2225 10.7156 95.5292 11.1748C95.2567 11.2232 95.0028 11.2916 94.7675 11.3801C94.5516 11.4692 94.3667 11.5013 94.2128 11.4765C94.1369 11.4352 94.053 11.3452 93.9612 11.2065C93.8693 11.0678 93.7675 10.9385 93.6557 10.8185L93.4098 9.56199L94.3257 9.10099C95.1356 8.62664 95.9024 8.27648 96.6261 8.05054C97.3699 7.80596 98.0092 7.78016 98.5441 7.97315C98.7566 7.98065 98.9488 8.01646 99.121 8.08056C99.293 8.12534 99.379 8.14773 99.379 8.14773C99.535 8.13387 99.754 8.21899 100.038 8.40312C100.341 8.58792 100.632 8.82069 100.913 9.10139C101.212 9.38279 101.415 9.66079 101.522 9.93539C101.814 10.4101 101.911 10.9745 101.81 11.6287C101.71 12.2829 101.405 12.9589 100.897 13.6567C100.796 13.7692 100.575 14.0032 100.234 14.3587C99.892 14.7143 99.501 15.1164 99.06 15.5651C98.6381 15.9951 98.2474 16.3779 97.8873 16.7134C97.5466 17.0496 97.3262 17.2643 97.2262 17.3575C97.0889 17.4107 96.8506 17.5861 96.5112 17.8836C96.1911 18.1818 95.8407 18.5177 95.46 18.8912C95.0992 19.246 94.7882 19.5639 94.5268 19.8448C94.2854 20.1071 94.184 20.239 94.2226 20.2403C94.2006 20.3169 94.2972 20.3204 94.5124 20.2506C94.7477 20.1622 94.9533 20.092 95.1292 20.0402C95.4225 19.9538 95.7637 19.8788 96.1528 19.8152C96.562 19.7329 96.9704 19.6699 97.3782 19.6263C97.786 19.5826 98.1352 19.5563 98.4257 19.5472C98.7355 19.5388 98.9184 19.5646 98.9743 19.6246C99.0095 19.7226 99.0371 19.7622 99.057 19.7436C99.097 19.7063 99.117 19.6877 99.117 19.6877C99.161 19.5538 99.403 19.5237 99.846 19.5973C100.307 19.6717 100.72 19.7733 101.083 19.9021C101.293 19.9676 101.455 20.0507 101.567 20.1514C101.699 20.2528 101.764 20.3421 101.761 20.4194C101.761 20.4194 101.779 20.4684 101.814 20.5664C101.869 20.6457 101.952 20.755 102.063 20.8944C102.364 21.1565 102.354 21.4269 102.035 21.7059C101.735 21.9854 101.201 22.044 100.433 21.8814C99.93 21.8637 99.514 21.878 99.183 21.9244C99.105 21.9603 98.9397 21.9738 98.6886 21.965C98.4374 21.9561 98.1955 21.9572 97.963 21.9684C97.6166 21.9175 97.2681 21.9245 96.9176 21.9895C96.5678 22.0352 96.1486 22.1268 95.6601 22.2643C95.4842 22.3161 95.2106 22.3935 94.8394 22.4965C94.4682 22.5995 94.068 22.7014 93.6389 22.8023C93.2097 22.9033 92.8202 22.9766 92.4704 23.0223C92.1399 23.0686 91.9267 23.0804 91.8307 23.0577ZM109.756 24.2708C109.678 24.2681 109.49 24.126 109.19 23.8446C108.91 23.5639 108.78 23.153 108.799 22.612C108.839 22.0138 108.958 21.3892 109.155 20.7384C109.372 20.069 109.577 19.4765 109.769 18.961C109.897 18.6173 110.004 18.3309 110.09 18.1018C110.194 17.8733 110.248 17.7301 110.25 17.6722C110.231 17.6715 110.124 17.687 109.929 17.7189C109.754 17.7514 109.53 17.7918 109.257 17.8403C108.304 18 107.576 18.0711 107.073 18.0533C106.59 18.0363 106.185 17.7318 105.858 17.1399C105.746 17.0199 105.599 16.8019 105.417 16.4859C105.234 16.17 105.111 15.8271 105.047 15.4572C105.002 15.0881 105.109 14.7823 105.369 14.54C105.58 14.0638 105.746 13.7215 105.87 13.5131C105.993 13.3046 106.076 13.1528 106.118 13.0575C106.179 12.963 106.212 12.8674 106.215 12.7708C106.236 12.7328 106.267 12.6759 106.308 12.6C106.35 12.524 106.401 12.4485 106.461 12.3732C106.646 12.0895 106.9 11.7213 107.226 11.2685C107.571 10.8164 107.925 10.3646 108.289 9.91319C108.674 9.44309 109.017 9.02959 109.32 8.67274C109.623 8.29654 109.845 8.05287 109.984 7.94171C110.102 7.88784 110.308 7.80806 110.602 7.70236C110.915 7.59735 111.139 7.54722 111.275 7.552C111.429 7.55746 111.57 7.66884 111.698 7.88615C111.846 8.08482 111.964 8.29212 112.053 8.50807C112.142 8.72401 112.186 8.87063 112.183 8.94789C112.183 8.94789 112.172 8.96689 112.152 9.00489C112.131 9.04279 112.09 9.10909 112.029 9.20359C111.947 9.31679 111.826 9.46729 111.665 9.65509C111.522 9.84349 111.311 10.0875 111.029 10.3871C110.788 10.6494 110.484 11.0353 110.118 11.5447C109.752 12.0348 109.386 12.5635 109.017 13.1309C108.669 13.6796 108.371 14.172 108.124 14.6082C107.876 15.0444 107.75 15.3398 107.744 15.4944C107.741 15.591 107.767 15.6693 107.823 15.7293C107.899 15.7707 108.033 15.7948 108.227 15.8016C108.479 15.7718 108.703 15.741 108.897 15.7092C109.111 15.6781 109.306 15.6463 109.481 15.6138C109.695 15.5826 109.88 15.5505 110.036 15.5173C110.192 15.4648 110.339 15.4216 110.476 15.3877C110.632 15.3352 110.769 15.2917 110.886 15.2571C111.024 15.2039 111.142 15.1404 111.241 15.0665C111.48 14.8815 111.663 14.6268 111.791 14.3024C111.918 13.9781 112.117 13.5401 112.388 12.9887C112.557 12.6077 112.723 12.2654 112.889 11.9617C113.074 11.6394 113.24 11.3454 113.384 11.0796C113.899 10.2079 114.327 9.57499 114.67 9.18079C115.014 8.76733 115.205 8.56128 115.243 8.56264C115.301 8.56469 115.434 8.64675 115.641 8.80882C115.848 8.97089 116.045 9.14229 116.232 9.32299C116.382 9.46369 116.503 9.59369 116.596 9.71309C116.689 9.81309 116.735 9.88239 116.733 9.92109C116.725 10.1529 116.659 10.3924 116.534 10.6395C116.429 10.8679 116.275 11.1333 116.07 11.4356C115.866 11.7379 115.63 12.1262 115.362 12.6004C115.052 13.1504 114.762 13.7012 114.491 14.2527C114.221 14.7848 113.96 15.3173 113.709 15.8501C113.459 16.3636 113.228 16.8681 113.017 17.3636C112.807 17.8591 112.606 18.326 112.417 18.7643C111.951 19.8892 111.632 20.7195 111.458 21.255C111.285 21.7906 111.194 22.1646 111.186 22.3771C111.199 22.571 111.232 22.7366 111.285 22.8739C111.276 23.1251 111.19 23.3639 111.028 23.5903C110.865 23.7974 110.666 23.9644 110.43 24.0915C110.193 24.2186 109.968 24.2783 109.756 24.2708Z" fill="#5E8BDC"></path></svg> 