<?xml version="1.0" encoding="UTF-8"?> <svg xmlns="http://www.w3.org/2000/svg" width="106" height="106" viewBox="0 0 106 106" fill="none"><rect width="106" height="106" rx="7" fill="white"></rect><path d="M41.8 23.586C41.8 20.8 44.6 18 47.4 18H76.8V67C76.7999 67.2559 76.7297 67.5068 76.5971 67.7256C76.4644 67.9444 76.2743 68.1226 76.0475 68.2409C75.8206 68.3593 75.5657 68.4132 75.3104 68.3968C75.055 68.3804 74.8091 68.2944 74.5992 68.148L62.8 60C60.7 58.6 57.9 58.6 55.8 60L44.0008 68.148C43.7909 68.2944 43.545 68.3804 43.2896 68.3968C43.0343 68.4132 42.7794 68.3593 42.5525 68.2409C42.3257 68.1226 42.1356 67.9444 42.0029 67.7256C41.8702 67.5068 41.8001 67.2559 41.8 67V23.586Z" fill="#1AD3BB"></path><path d="M29.2 43.1861C29.2 40.4001 32 37.6001 34.8 37.6001H64.2V86.6001C64.1999 86.856 64.1298 87.1069 63.9971 87.3257C63.8644 87.5445 63.6743 87.7227 63.4475 87.841C63.2206 87.9594 62.9657 88.0133 62.7104 87.9969C62.455 87.9805 62.2091 87.8945 61.9992 87.7481L50.2 79.6001C48.1 78.2001 45.3 78.2001 43.2 79.6001L31.4008 87.7481C31.1909 87.8945 30.945 87.9805 30.6896 87.9969C30.4343 88.0133 30.1794 87.9594 29.9525 87.841C29.7257 87.7227 29.5356 87.5445 29.4029 87.3257C29.2703 87.1069 29.2001 86.856 29.2 86.6001V43.1861Z" fill="#985184"></path><path d="M64.2 60.9213L62.8 60.0001C60.7 58.6001 57.9 58.6001 55.8 60.0001L44.0008 68.1481C43.7909 68.2944 43.545 68.3805 43.2896 68.3969C43.0343 68.4133 42.7794 68.3593 42.5525 68.241C42.3257 68.1227 42.1356 67.9445 42.0029 67.7257C41.8702 67.5069 41.8001 67.256 41.8 67.0001V37.6001H64.2V60.9213Z" fill="#005E7A"></path></svg> 