<?xml version="1.0" encoding="UTF-8"?> <svg xmlns="http://www.w3.org/2000/svg" width="162" height="33" viewBox="0 0 162 33" fill="none"><path d="M3.03956 32.4503C2.79127 32.4938 2.43836 32.4601 1.98084 32.349C1.54257 32.2361 1.22844 32.1015 1.03846 31.9451C0.885102 31.7657 0.727072 31.5383 0.564382 31.2627C0.419062 30.966 0.294862 30.6867 0.191762 30.4247C0.0868023 30.1435 0.0383423 29.9443 0.0463923 29.827L0.160452 27.3976C0.197652 27.1803 0.225232 26.964 0.243192 26.7486C0.280402 26.5313 0.318532 26.3237 0.357602 26.1257C0.334632 26.089 0.356322 25.9121 0.422682 25.5949C0.487172 25.2584 0.558492 24.8922 0.636622 24.4961C0.732142 24.0789 0.822702 23.7108 0.908302 23.3917C0.992042 23.0534 1.03297 22.8746 1.03111 22.8554C1.07636 22.5208 1.15234 22.2026 1.25905 21.9009C1.36389 21.58 1.46098 21.2792 1.55032 20.9986C1.66321 20.5603 1.76928 20.1518 1.86853 19.7732C1.98702 19.3926 2.09093 19.062 2.18027 18.7814C2.2696 18.5008 2.33567 18.2808 2.37847 18.1212C2.44051 17.9598 2.47247 17.8887 2.47433 17.908L3.73248 14.0566C3.56361 13.9176 3.39193 13.7497 3.21746 13.5529C3.04299 13.3562 2.94083 13.1039 2.91097 12.796C2.8712 12.5862 2.90252 12.4083 3.00491 12.2624C3.12655 12.1147 3.26061 11.9948 3.40709 11.9029C3.67463 11.8576 3.92293 11.8141 4.15198 11.7724C4.40027 11.7289 4.68023 11.7115 4.99185 11.7201C5.10544 11.6897 5.21997 11.6689 5.33543 11.6577C5.47013 11.6446 5.59427 11.6228 5.70787 11.5924C5.80595 11.6023 5.91365 11.6113 6.03098 11.6193C6.14643 11.6081 6.28796 11.5653 6.45555 11.4908C6.64425 11.4336 6.89161 11.3805 7.19763 11.3314C7.5229 11.2804 7.84816 11.2295 8.17338 11.1785C8.49678 11.1083 8.78358 11.0611 9.03378 11.0368C9.30128 10.9914 9.47358 10.965 9.55058 10.9576C9.77958 10.9159 10.0087 10.8743 10.2377 10.8327C10.4668 10.791 10.6958 10.7494 10.9249 10.7077C11.1732 10.6642 11.4118 10.6217 11.6409 10.58C11.8699 10.5384 12.099 10.4968 12.328 10.4551C12.9115 10.2626 13.3116 10.2821 13.5283 10.5136C13.7623 10.724 13.9464 10.9198 14.0805 11.101C14.1284 11.1935 14.2106 11.3409 14.3274 11.5432C14.4615 11.7245 14.5379 11.9113 14.5566 12.1037C14.5926 12.2751 14.4691 12.4036 14.186 12.4893C14.1606 12.6277 14.0362 12.7466 13.8127 12.846C13.6066 12.9243 13.3441 12.9206 13.025 12.835C12.9846 12.8195 12.7162 12.8552 12.2196 12.9422C11.7404 13.0081 11.1476 13.1044 10.4412 13.2312C9.73478 13.358 9.02928 13.4944 8.32478 13.6404C7.6376 13.7653 7.05628 13.8799 6.5808 13.9843C6.53614 14.1246 6.48185 14.2658 6.41794 14.408C6.37327 14.5483 6.3286 14.6886 6.28394 14.8289C6.17722 15.1306 6.07051 15.4323 5.9638 15.734C5.87447 16.0146 5.77644 16.3058 5.66973 16.6075C5.56302 16.9092 5.45631 17.2109 5.3496 17.5126C5.26026 17.7932 5.17093 18.0738 5.0816 18.3544C5.0332 18.4562 4.98573 18.5677 4.9392 18.6887C4.89266 18.8098 4.8452 18.9212 4.7968 19.023C4.96812 18.987 5.12982 18.9519 5.2819 18.9177C5.45322 18.8817 5.62454 18.8456 5.79586 18.8096C6.06153 18.745 6.37129 18.7344 6.72513 18.7778C7.0771 18.8019 7.43187 18.8549 7.78945 18.9368C8.14518 18.9994 8.47388 19.0841 8.77558 19.1908C9.07538 19.2783 9.30698 19.3626 9.47028 19.4439C9.93898 19.6704 10.3614 19.9208 10.7377 20.1951C11.1313 20.4483 11.4756 20.7937 11.7705 21.2313C11.981 21.5993 12.1856 22.0068 12.3844 22.4537C12.5812 22.8814 12.6856 23.3569 12.6975 23.8802C12.705 23.9571 12.6957 24.162 12.6697 24.4947C12.6611 24.8063 12.6254 25.14 12.5628 25.4957C12.5176 25.8303 12.4465 26.0994 12.3497 26.303C12.1909 26.6681 11.9936 27.0368 11.7577 27.4093C11.5412 27.78 11.3044 28.1428 11.0475 28.498C10.7422 28.9549 10.3822 29.3492 9.96758 29.6807C9.55108 29.993 9.14058 30.2659 8.73588 30.4994C8.36968 30.7292 8.08538 30.9024 7.88304 31.0192C7.6807 31.1359 7.49573 31.2315 7.32814 31.3061C7.17793 31.3595 6.9613 31.429 6.67825 31.5148C6.56466 31.5452 6.452 31.5853 6.34028 31.6349C6.24593 31.6635 6.14195 31.693 6.02836 31.7235C5.91477 31.7539 5.80211 31.794 5.69038 31.8436C5.39929 32.0467 5.10073 32.1728 4.79471 32.2219C4.49055 32.2902 4.20377 32.3374 3.93437 32.3636C3.78042 32.3785 3.62554 32.3838 3.46973 32.3795C3.33503 32.3925 3.19164 32.4162 3.03956 32.4503ZM2.48414 30.0276C2.79016 29.9785 3.08843 29.9496 3.37894 29.9408C3.66759 29.9129 3.94288 29.8473 4.20482 29.7442C5.14085 29.3815 5.98935 29.0176 6.75033 28.6524C7.53054 28.2854 8.20368 27.7151 8.76958 26.9416C9.17918 26.358 9.47798 25.8337 9.66598 25.3687C9.85398 24.9037 9.97678 24.3674 10.0344 23.7596C10.0716 23.5423 10.0502 23.3211 9.97008 23.0957C9.88988 22.8704 9.79268 22.5691 9.67838 22.1917C9.53688 21.9335 9.41418 21.7705 9.31048 21.7029C9.20498 21.616 9.08298 21.5598 8.94458 21.5344C8.80608 21.509 8.62548 21.4488 8.40258 21.3539C8.19528 21.2186 7.90502 21.1302 7.53194 21.0887C7.15886 21.0472 6.80688 21.023 6.47602 21.0163C6.2991 20.9946 6.11349 20.9834 5.9192 20.9828C5.74414 20.9804 5.56909 20.978 5.39403 20.9755C5.21711 20.9538 5.03151 20.9427 4.83721 20.9421C4.66029 20.9204 4.4843 20.9083 4.30925 20.9059C4.29747 20.9847 4.23047 21.1952 4.10825 21.5372C4.00527 21.8774 3.88771 22.2676 3.75558 22.7077C3.64082 23.1268 3.54157 23.5054 3.45783 23.8438C3.31952 24.4205 3.19175 25.0059 3.07455 25.6C2.95547 26.1748 2.85564 26.7478 2.77506 27.3189C2.74532 27.6131 2.70876 27.9372 2.66537 28.291C2.63936 28.6237 2.6028 28.9478 2.55569 29.2631C2.52595 29.5574 2.5021 29.8122 2.48414 30.0276ZM17.5315 31.5695C16.7691 31.119 16.1548 30.6929 15.6886 30.2914C15.2397 29.8687 14.9754 29.4476 14.8959 29.028C14.8238 28.6854 14.7781 28.2139 14.7588 27.6136C14.7586 27.0115 14.7691 26.4181 14.7901 25.8333C14.8111 25.2485 14.8364 24.809 14.8662 24.5148C14.9531 24.4093 14.9794 24.2804 14.9452 24.1284C14.9284 23.9552 14.92 23.8686 14.92 23.8686C14.8915 23.7742 14.9346 23.5175 15.0493 23.0985C15.1622 22.6602 15.2543 22.1074 15.3256 21.4401C15.5985 20.2482 15.8708 19.2506 16.1425 18.4473C16.4316 17.6229 16.7223 16.9148 17.0146 16.3232C17.3068 15.7316 17.6038 15.188 17.9053 14.6926C18.6159 13.8079 19.2943 13.0914 19.9404 12.5432C20.6057 11.993 21.2236 11.5544 21.794 11.2271C22.1565 10.9589 22.4948 10.7415 22.8088 10.5751C23.1229 10.4087 23.3904 10.3633 23.6114 10.439C24.7114 10.5654 25.6712 10.9483 26.4907 11.5875C27.3102 12.2267 27.9104 13.2077 28.2912 14.5304C28.508 15.3641 28.6596 16.1263 28.746 16.8172C28.8498 17.487 28.867 18.1652 28.7976 18.8517C28.7264 19.5191 28.5462 20.2649 28.2571 21.0894C27.9872 21.9119 27.5861 22.8832 27.0537 24.0031C26.4159 25.6383 25.6768 27.0308 24.8365 28.1806C24.0136 29.3093 23.1568 30.1888 22.2662 30.819C21.3948 31.4474 20.5376 31.8219 19.6946 31.9424C18.8728 32.0804 18.1517 31.9561 17.5315 31.5695ZM19.6559 29.4405C20.0929 29.3399 20.4405 29.2187 20.6987 29.0772C20.9762 28.9337 21.253 28.6835 21.5292 28.3265C21.8053 27.9695 22.1917 27.4464 22.6881 26.7573C23.1325 26.1315 23.4986 25.6007 23.7866 25.1649C24.0937 24.7272 24.3423 24.2855 24.5321 23.8397C24.7412 23.3921 24.9236 22.8694 25.0793 22.2716C25.2524 21.6526 25.4289 20.8683 25.6087 19.9185C25.7067 19.3263 25.7714 18.8927 25.8031 18.6177C25.852 18.3216 25.8768 18.0764 25.8774 17.8821C25.878 17.6878 25.8528 17.428 25.8018 17.1027C25.7682 16.7563 25.7179 16.2368 25.6507 15.544C25.5997 15.2188 25.4969 14.8597 25.3423 14.4668C25.1858 14.0546 25.0221 13.7694 24.8514 13.6111C24.6384 13.4181 24.3321 13.2633 23.9323 13.1467C23.5325 13.0301 23.1302 13.0885 22.7256 13.322C22.504 13.4406 22.2349 13.6706 21.9184 14.0121C21.6 14.3343 21.2776 14.7152 20.9512 15.1548C20.6247 15.5944 20.3176 16.032 20.0296 16.4679C19.7417 16.9037 19.5173 17.2945 19.3566 17.6403C19.1959 17.9861 19.1221 18.2263 19.1352 18.361C19.1352 18.361 19.1302 18.4101 19.1203 18.5082C19.1296 18.6044 19.1005 18.7043 19.0328 18.808C18.8088 19.1017 18.5919 19.5694 18.3822 20.2113C18.1725 20.8532 17.9905 21.5799 17.8361 22.3912C17.6817 23.2026 17.5657 24.0102 17.4883 24.8141C17.4109 25.618 17.3837 26.3393 17.4068 26.9781C17.4366 27.286 17.4618 27.5458 17.4824 27.7574C17.5029 27.9691 17.5408 28.1597 17.5961 28.3291C17.6687 28.4775 17.7721 28.6423 17.9062 28.8235C18.0403 29.0047 18.2899 29.1748 18.655 29.3336C19.0392 29.4906 19.3729 29.5262 19.6559 29.4405ZM36.6813 30.1787C36.3753 30.2278 35.9308 30.2515 35.3479 30.2497C34.7843 30.2461 34.1737 30.1596 33.5163 29.9903C32.8782 29.8191 32.2874 29.5365 31.7442 29.1424C31.2183 28.7272 30.8411 28.1422 30.6125 27.3874C30.2771 26.3322 30.1152 25.163 30.1267 23.8799C30.1383 22.5968 30.2479 21.3236 30.4556 20.0603C30.5182 19.7046 30.6581 19.2443 30.8753 18.6794C31.0906 18.0952 31.3502 17.4679 31.6543 16.7974C31.9776 16.1251 32.3123 15.471 32.6586 14.8353C33.003 14.1804 33.3269 13.6148 33.6304 13.1386C33.8525 12.8257 34.1383 12.4678 34.4877 12.0649C34.8545 11.6408 35.2328 11.2351 35.6226 10.8476C36.0297 10.4391 36.3943 10.093 36.7164 9.80919C37.0559 9.50439 37.2998 9.31559 37.4482 9.24289C37.6872 9.10319 37.9308 9.01159 38.1791 8.96809C38.4255 8.90539 38.7266 8.90529 39.0823 8.96789C39.3536 8.96109 39.6515 9.02929 39.9762 9.17259C40.299 9.29669 40.5852 9.44379 40.8348 9.61379C41.0844 9.78379 41.2272 9.95449 41.2632 10.1258C41.2937 10.2394 41.5044 10.2093 41.8954 10.0354C42.0152 9.86839 42.2061 9.73329 42.468 9.63019C42.7281 9.50789 42.9736 9.43549 43.2045 9.41309C43.4335 9.37149 43.5642 9.41709 43.5965 9.54999C43.4979 9.73429 43.532 9.88639 43.699 10.0062C43.7549 9.98129 43.7776 10.1151 43.7671 10.4075C43.7566 10.6999 43.7219 11.0432 43.663 11.4373C43.6022 11.8123 43.5148 12.1121 43.4006 12.3369C43.4006 12.3369 43.386 12.3868 43.3569 12.4868C43.347 12.5849 43.342 12.6339 43.342 12.6339C43.3898 12.7264 43.3799 12.8245 43.3123 12.9282C43.2446 13.0318 43.1857 13.125 43.1354 13.2075C43.087 13.3093 43.0296 13.5189 42.9633 13.8361C42.9143 14.1322 42.8603 14.4773 42.8014 14.8715C42.7599 15.2446 42.7252 15.5879 42.6974 15.9014C42.6676 16.1956 42.6574 16.3909 42.6667 16.4871C42.7183 16.618 42.5526 16.7118 42.1696 16.7684C41.804 16.8038 41.452 16.7797 41.1137 16.696C40.6754 16.5831 40.3864 16.4071 40.2467 16.1682C40.1262 15.9273 40.1363 15.431 40.2771 14.6793C40.4607 13.768 40.5512 13.0988 40.5486 12.6717C40.546 12.2446 40.3998 11.9383 40.1099 11.7528C39.9969 11.5889 39.7749 11.5036 39.4441 11.4968C39.1113 11.4708 38.8457 11.5354 38.647 11.6907C38.3696 11.8341 38.0012 12.1418 37.542 12.6136C37.0808 13.0662 36.6079 13.5977 36.1232 14.208C35.6385 14.8183 35.2134 15.4422 34.8479 16.0798C34.0822 17.3972 33.5281 18.6941 33.1857 19.9704C32.8433 21.2468 32.6983 22.4554 32.7506 23.5963C32.803 24.7373 33.0412 25.7922 33.4654 26.7611C33.5114 26.8344 33.6427 26.9867 33.8594 27.2182C34.0761 27.4497 34.2459 27.5984 34.3688 27.6642C34.9784 27.741 35.8356 27.6676 36.9405 27.4439C37.7531 27.2097 38.3368 26.92 38.6918 26.5748C39.0661 26.2277 39.4099 25.7671 39.7233 25.1928C39.9051 24.8644 40.1239 24.7169 40.3796 24.7504C40.6335 24.7646 40.8697 24.8971 41.0883 25.1479C41.305 25.3794 41.4494 25.6664 41.5214 26.0091C41.5308 26.1053 41.4638 26.3157 41.3204 26.6404C41.1945 26.944 41.0387 27.2407 40.8532 27.5307C40.6869 27.8187 40.5479 27.9876 40.4361 28.0373C40.361 28.064 40.3148 28.0879 40.2974 28.109C40.2993 28.1283 40.3145 28.1851 40.3431 28.2794C40.3505 28.3564 40.2366 28.484 40.0014 28.6622C39.7662 28.8404 39.4636 29.0251 39.0937 29.2164C38.7256 29.4269 38.3259 29.6113 37.8945 29.7697C37.4649 29.9473 37.0605 30.0837 36.6813 30.1787ZM50.1266 29.3993C49.2955 29.4411 48.5915 29.3928 48.0148 29.2545C47.4381 29.1162 46.7704 28.841 46.0118 28.429C45.9217 28.3017 45.8041 28.0898 45.6588 27.7931C45.5116 27.4771 45.3625 27.142 45.2116 26.7875C45.0607 26.4331 44.9337 26.1249 44.8306 25.863C44.7449 25.58 44.7088 25.4086 44.7225 25.349C44.7901 25.2454 44.8174 25.1262 44.8044 24.9915C44.7894 24.8375 44.7686 24.723 44.7419 24.6479C44.6369 24.3667 44.6452 23.8512 44.7667 23.1013C44.8883 22.3514 45.0979 21.4084 45.3956 20.2724C45.7126 19.1345 46.0954 17.8736 46.5439 16.4899C46.833 15.6655 47.2407 14.7616 47.7669 13.7782C48.2931 12.7948 48.8712 11.8452 49.5011 10.9295C50.1483 9.99269 50.7885 9.18279 51.4215 8.49979C52.0527 7.79759 52.5986 7.31729 53.0591 7.05899C53.3732 6.89259 53.6649 6.79629 53.9343 6.77019C54.2018 6.72479 54.4818 6.70739 54.7742 6.71789C55.3012 6.74449 55.8096 6.87969 56.2995 7.12359C56.7874 7.34819 57.2087 7.68609 57.5632 8.13729C57.9389 8.60589 58.2046 9.14339 58.3606 9.74989C58.5165 10.3563 58.6032 10.9501 58.6207 11.5311C58.6382 12.1121 58.6079 12.6007 58.5297 12.9967C58.4441 13.3158 58.3511 13.5579 58.2505 13.7231C58.1481 13.869 57.9833 13.9723 57.7562 14.0332C57.6811 14.0599 57.456 14.0429 57.0811 13.9821C56.7235 13.9003 56.4333 13.8119 56.2104 13.7169C55.9646 13.5854 55.7957 13.4464 55.7038 13.2999C55.6293 13.1323 55.592 13.0485 55.592 13.0485C55.592 13.0485 55.5904 12.9321 55.5873 12.6993C55.6015 12.4454 55.6359 12.1993 55.6905 11.9609C55.8741 11.0496 55.9087 10.4053 55.7944 10.0279C55.6801 9.65049 55.3942 9.40629 54.9367 9.29519C54.5115 9.31699 54.0171 9.62719 53.4536 10.2257C52.8901 10.8242 52.3436 11.4988 51.8143 12.2494C51.0509 13.3917 50.4109 14.5027 49.894 15.5823C49.3771 16.6619 48.936 17.8216 48.5706 19.0613C48.2667 20.3339 48.0307 21.4057 47.8626 22.2766C47.7119 23.1265 47.6224 23.8053 47.5939 24.3131C47.6566 24.5595 47.6964 24.7693 47.7132 24.9425C47.7474 25.0946 47.726 25.1743 47.649 25.1818C47.7099 25.409 47.813 25.6709 47.9583 25.9676C48.1036 26.2643 48.3721 26.5296 48.7639 26.7636C48.8483 26.8331 48.9703 26.8892 49.1299 26.932C49.2875 26.9556 49.4616 26.9484 49.6522 26.9105C49.9582 26.8614 50.2711 26.7825 50.5908 26.6738C50.9297 26.5633 51.2292 26.4468 51.4892 26.3245C51.7667 26.181 51.9585 26.0556 52.0646 25.9482C52.0646 25.9482 52.1503 25.9302 52.3216 25.8941C52.491 25.8389 52.6952 25.7414 52.9342 25.6016C53.0981 25.4886 53.3091 25.3613 53.5673 25.2198C53.8255 25.0782 54.1116 24.9242 54.4257 24.7577C54.9769 24.4324 55.4449 24.251 55.8298 24.2137C56.2339 24.1745 56.5647 24.1813 56.8224 24.234C56.8224 24.234 56.8066 24.3715 56.7749 24.6465C56.7626 24.9196 56.7282 25.1658 56.6717 25.3849C56.5886 25.5289 56.4794 25.7046 56.3441 25.912C56.2262 26.0982 56.0602 26.2891 55.846 26.4847C55.6319 26.6803 55.3591 26.8719 55.0277 27.0594C54.9333 27.088 54.785 27.1606 54.5826 27.2774C54.3822 27.4133 54.1643 27.5704 53.9291 27.7486C53.422 28.128 52.8621 28.464 52.2495 28.7565C51.6561 29.0471 50.9485 29.2614 50.1266 29.3993ZM61.5906 21.2659C61.4751 21.2771 61.3308 21.2911 61.1576 21.3079C60.9825 21.3054 60.7854 21.276 60.5663 21.2196C60.2776 21.2475 60.0411 21.2122 59.8568 21.1135C59.6897 20.9938 59.5612 20.8703 59.4712 20.743C59.2315 20.4749 59.2197 20.2527 59.4357 20.0763C59.669 19.8789 60.138 19.7072 60.8425 19.5611C61.4819 19.3438 62.1162 19.1754 62.7457 19.0561C63.3751 18.9368 64.0747 18.8398 64.8444 18.7652C65.3447 18.7167 65.7535 18.7256 66.0707 18.7919C66.4071 18.8564 66.6915 18.9843 66.9237 19.1754C67.2403 19.4361 67.3375 19.7374 67.2153 20.0795C67.0912 20.4023 66.8041 20.5467 66.3541 20.5126C66.2213 20.5449 65.9345 20.5922 65.4937 20.6543C65.0723 20.7146 64.6902 20.7808 64.3476 20.8529C64.1378 20.8927 63.7653 20.9579 63.2302 21.0486C62.6952 21.1394 62.1486 21.2118 61.5906 21.2659ZM69.8288 26.8478C69.5637 26.7182 69.3141 26.5481 69.08 26.3377C68.8478 26.1466 68.7699 25.8434 68.8461 25.4281C68.8045 25.199 68.7927 24.9768 68.8106 24.7614C68.8478 24.5441 68.8723 24.396 68.8841 24.3172C68.9803 24.3079 69.0334 24.2542 69.0433 24.1561C69.0513 24.0388 69.0516 23.9416 69.0442 23.8646C69.0292 23.7107 69.0618 23.4453 69.1418 23.0685C69.2218 22.6917 69.2999 22.2956 69.3762 21.8803C69.4984 21.5383 69.6091 21.1779 69.7084 20.7992C69.8269 20.4187 69.8824 20.1899 69.8749 20.1129C69.86 19.959 69.8836 19.8013 69.9456 19.6399C70.0058 19.4593 70.0765 19.2873 70.1578 19.124C70.2316 18.8838 70.2747 18.6271 70.2871 18.3539C70.3168 18.0597 70.3242 17.8356 70.3093 17.6817C70.4005 17.4203 70.4995 17.1388 70.6062 16.8371C70.7129 16.5354 70.7898 16.2268 70.8369 15.9115C70.9206 15.5731 71.0472 15.0753 71.2165 14.4179C71.384 13.7412 71.5611 13.0636 71.7478 12.3851C71.8855 12.0027 72.0127 11.6116 72.1293 11.2118C72.2633 10.7909 72.3846 10.4392 72.4932 10.1567C72.5999 9.85499 72.6821 9.70139 72.7399 9.69579C72.7399 9.69579 72.7371 9.66689 72.7315 9.60919C72.724 9.53219 72.7165 9.45519 72.7091 9.37829C72.6997 9.28209 72.759 9.09179 72.8868 8.80749C73.0128 8.50389 73.1282 8.19159 73.233 7.87069C73.3975 7.56339 73.506 7.28089 73.5587 7.02329C73.6096 6.74639 73.635 6.60799 73.635 6.60799C73.635 6.60799 73.6679 6.54649 73.7337 6.42359C73.7976 6.28139 73.8643 6.16809 73.9338 6.08369C74.408 5.76579 74.8183 5.58999 75.1647 5.55639C75.5303 5.52099 75.8028 5.72759 75.9823 6.17639C76.1773 6.58479 76.2736 6.87659 76.2711 7.05159C76.2668 7.20739 76.2181 7.40639 76.1251 7.64849C76.0047 8.00979 75.8456 8.47199 75.6477 9.03499C75.4479 9.57889 75.2422 10.1621 75.0307 10.7848C74.8191 11.4074 74.6153 12.0099 74.4193 12.5922C74.2406 13.1534 74.093 13.6339 73.9763 14.0337C73.8789 14.4316 73.8349 14.6787 73.8442 14.7749L72.9202 17.8655C72.8563 18.0077 72.7648 18.3662 72.6458 18.941C72.5248 19.4966 72.3862 20.1705 72.2299 20.9626C72.0718 21.7355 71.9059 22.5285 71.7322 23.3418C71.576 24.1339 71.4132 24.8586 71.2438 25.516C71.1601 25.8544 71.0804 26.134 71.0047 26.355C70.9309 26.5953 70.8514 26.7778 70.7664 26.9026C70.6814 27.0274 70.5715 27.0963 70.4368 27.1094C70.3599 27.1168 70.2705 27.0964 70.1687 27.048C70.0668 26.9996 69.9535 26.9329 69.8288 26.8478ZM80.0412 25.7993C79.8699 25.8353 79.621 25.772 79.2944 25.6095C78.989 25.4643 78.65 25.2738 78.2775 25.0379C77.9243 24.8003 77.5797 24.552 77.2438 24.2932C76.9272 24.0326 76.672 23.8048 76.4783 23.6099C76.1275 23.1972 75.6751 22.6389 75.1213 21.9351C74.5867 21.2294 74.1638 20.474 73.8526 19.6689C73.6582 19.0662 73.4663 18.5895 73.2769 18.2388C73.1049 17.867 73.0049 17.5368 72.9769 17.2482L72.8322 15.4558L74.9254 15.1071C75.1223 16.1369 75.3603 16.9879 75.6391 17.6601C75.9161 18.3131 76.225 18.895 76.5659 19.4058C76.8454 19.8838 77.1431 20.3502 77.4592 20.8052C77.7944 21.2582 78.1511 21.6316 78.5292 21.9251C79.0185 22.3633 79.4475 22.681 79.8163 22.8783C80.185 23.0757 80.456 23.1659 80.6292 23.1491C81.0116 23.2869 81.2969 23.4243 81.485 23.5615C81.6731 23.6986 81.8016 23.8221 81.8705 23.932C81.9395 24.0418 81.969 24.1458 81.9591 24.2439C81.9839 24.2998 81.9864 24.4258 81.9666 24.6219C81.9486 24.8373 81.9105 25.045 81.8522 25.2449C81.7957 25.464 81.703 25.609 81.5738 25.6798C81.4522 25.8275 81.2865 25.9213 81.0767 25.9611C80.8687 26.0201 80.5236 25.9662 80.0412 25.7993ZM72.2754 15.4224L74.2314 13.6593C74.2835 13.596 74.4322 13.4262 74.6773 13.1499C74.9398 12.8525 75.4453 12.3568 76.1938 11.6626L79.7045 8.20459C80.1613 7.90779 80.5768 7.58589 80.9511 7.23879C81.3253 6.89169 81.6387 6.61849 81.8913 6.41919C82.1961 6.15659 82.5095 5.88339 82.8316 5.59959C83.1537 5.31589 83.3542 5.17989 83.4331 5.19169C83.5795 5.09979 83.7698 5.15899 84.0039 5.36939C84.2361 5.56059 84.4345 5.80349 84.599 6.09839C84.781 6.37209 84.8698 6.58689 84.8655 6.74269C84.9226 6.93139 84.9096 7.09769 84.8264 7.24179C84.7433 7.38579 84.5109 7.59289 84.1291 7.86299C83.6686 8.12129 83.3033 8.36069 83.0333 8.58109C82.7826 8.79959 82.6426 8.95889 82.6135 9.05879C82.6135 9.05879 82.4264 9.23239 82.0521 9.57949C81.6779 9.92649 81.2304 10.3196 80.7096 10.7585C79.9903 11.3527 79.4001 11.8761 78.9389 12.3288C78.4952 12.7603 78.2075 13.099 78.076 13.3448C77.999 13.3523 77.9248 13.3886 77.8535 13.4538C77.8013 13.5171 77.7358 13.5429 77.657 13.5311C77.657 13.5311 77.5856 13.5963 77.4429 13.7267C77.2983 13.8378 77.1931 13.9549 77.1273 14.0778C77.0981 14.1777 77.0237 14.3112 76.9039 14.4782C76.8034 14.6434 76.6656 14.7247 76.4905 14.7223C76.3633 14.8123 76.1386 14.9992 75.8165 15.2829C75.4925 15.5474 75.1521 15.8427 74.7952 16.1686C74.4576 16.4927 74.1653 16.7833 73.9182 17.0403C73.6712 17.2974 73.54 17.4461 73.5245 17.4864L72.2754 15.4224ZM83.6023 23.531C83.5104 23.3845 83.3223 23.2473 83.038 23.1195C82.7729 22.9898 82.6366 22.8865 82.6292 22.8095C82.6217 22.7325 82.5624 22.6218 82.4513 22.4771C82.3575 22.3114 82.2684 22.1938 82.184 22.1243C82.0765 22.0182 82.0784 21.7363 82.1894 21.2788C82.2985 20.8021 82.4753 20.2216 82.7198 19.5375C82.9642 18.8534 83.2366 18.1568 83.5369 17.4479C83.6759 17.279 83.8103 17.062 83.94 16.7969C84.0697 16.5318 84.1693 16.3571 84.2388 16.2726C84.2313 16.1957 84.2536 16.1255 84.3058 16.0622C84.356 15.9796 84.4196 15.9346 84.4966 15.9271L84.6828 15.4429C84.7138 15.3622 84.8143 15.1971 84.9843 14.9475C85.1736 14.6961 85.3995 14.4216 85.6621 14.1242C85.9227 13.8076 86.1852 13.5102 86.4496 13.2321C86.7332 12.9521 86.9657 12.745 87.1469 12.6109C87.5249 12.3023 87.9265 12.1371 88.3517 12.1153C88.7962 12.0916 89.1845 12.1899 89.5166 12.4102C89.5799 12.4623 89.7162 12.5657 89.9254 12.7202C90.1539 12.8729 90.4035 13.0429 90.6742 13.2303C90.9641 13.4159 91.2137 13.5859 91.4229 13.7404L92.5833 14.5894L92.2325 16.0802C92.057 16.8742 92.055 17.5542 92.2264 18.1203C92.3978 18.6864 92.6292 19.169 92.9204 19.5681C93.0371 19.7705 93.178 19.9219 93.3432 20.0224C93.5276 20.1211 93.7563 20.1766 94.0295 20.189C94.1853 20.1933 94.3352 20.237 94.4792 20.3202C94.6233 20.4033 94.7055 20.5507 94.7261 20.7624C94.7709 21.2242 94.7169 21.5694 94.5642 21.7979C94.429 22.0052 94.267 22.1375 94.0783 22.1946C93.4507 22.3332 92.838 22.3246 92.2402 22.1689C91.6424 22.0132 91.0696 21.5152 90.522 20.6748C90.4338 20.5668 90.3074 20.3654 90.1429 20.0705C89.9957 19.7546 89.9078 19.5494 89.8793 19.4551C89.8116 19.5588 89.7179 19.6941 89.5981 19.8611C89.4957 20.007 89.3924 20.1433 89.2881 20.27C88.0562 21.7879 86.9701 22.8062 86.0298 23.3247C85.1068 23.8221 84.2977 23.8909 83.6023 23.531ZM84.9576 20.9813C85.0942 20.9874 85.2993 20.8996 85.573 20.7176C85.8449 20.5164 86.2027 20.2001 86.6464 19.7686C87.2466 19.1471 87.7406 18.633 88.1285 18.2263C88.5164 17.8197 88.8844 17.3081 89.2325 16.6916L89.7668 15.5909C89.5314 15.167 89.3302 14.8951 89.1632 14.7754C88.9962 14.6556 88.8358 14.6032 88.6818 14.6181C88.4317 14.6423 88.1492 14.8348 87.8346 15.1956C87.5181 15.537 87.1684 16.0371 86.7855 16.6958C86.42 17.3334 86.0117 18.1305 85.5606 19.0872C85.3515 19.5348 85.1992 19.9672 85.1037 20.3844C85.0063 20.7823 84.9576 20.9813 84.9576 20.9813ZM99.273 22.798C99.179 22.8266 98.973 22.8077 98.656 22.7414C98.36 22.6924 98.03 22.5981 97.6669 22.4585C97.3211 22.2978 97.0426 22.1305 96.8316 21.9568C96.5553 21.7116 96.3578 21.4782 96.2392 21.2567C96.1187 21.0158 96.0464 20.7703 96.0221 20.5202C95.8824 20.2812 95.788 20.0087 95.7389 19.7027C95.7072 19.3756 95.6668 19.059 95.6177 18.753C95.5673 18.2334 95.6324 17.7026 95.8129 17.1607C96.0108 16.5976 96.165 16.1845 96.2754 15.9213C96.3747 15.5426 96.576 15.1151 96.8795 14.639C97.2022 14.1609 97.5652 13.6984 97.9686 13.2514C98.391 12.8025 98.795 12.4622 99.181 12.2306C99.453 12.0294 99.863 11.8537 100.412 11.7033C100.958 11.5338 101.48 11.5026 101.976 11.6099C102.212 11.6453 102.415 11.7324 102.584 11.8715C102.772 12.0086 102.93 12.1389 103.059 12.2624C103.083 11.9105 103.089 11.4728 103.077 10.9495C103.083 10.4051 103.058 9.85389 103.004 9.29589C102.97 8.73589 102.891 8.22879 102.769 7.77439C102.665 7.29899 102.515 6.95419 102.319 6.73999C101.84 6.20379 101.226 5.87489 100.476 5.75339C99.724 5.61259 99.053 5.70679 98.464 6.03589C98.2 5.92549 98.004 5.79889 97.8731 5.65609C97.762 5.51149 97.6567 5.32749 97.5574 5.10399C97.5567 4.69618 97.6807 4.37336 97.9296 4.13557C98.179 3.89777 98.539 3.70744 99.011 3.56457C99.274 3.48072 99.579 3.41238 99.923 3.35954C100.268 3.30671 100.633 3.36841 101.019 3.54463C102.111 3.78837 102.949 4.22181 103.534 4.84493C104.117 5.44879 104.538 6.18499 104.797 7.05329C105.076 7.91989 105.275 8.87179 105.395 9.90899C105.44 10.1766 105.464 10.5239 105.467 10.9509C105.487 11.3569 105.47 11.7859 105.417 12.2378C105.391 12.5705 105.345 12.9051 105.281 13.2416C105.234 13.5569 105.164 13.8357 105.071 14.0778C105.037 14.3335 104.994 14.5902 104.941 14.8478C104.887 15.0862 104.823 15.3352 104.751 15.5946C104.487 16.6692 104.102 17.7069 103.597 18.7077C103.09 19.6892 102.473 20.5453 101.748 21.2761C101.02 21.9876 100.196 22.4949 99.273 22.798ZM98.752 20.4303C99.077 20.3793 99.39 20.1936 99.689 19.8733C100.007 19.551 100.301 19.1729 100.569 18.739C100.856 18.2839 101.116 17.8605 101.349 17.4687C101.467 17.2825 101.576 17.0972 101.674 16.9128C101.771 16.7092 101.857 16.4969 101.933 16.2759C102.028 16.053 102.104 15.832 102.16 15.6128C102.29 15.1535 102.367 14.7382 102.389 14.3669C102.43 13.9939 102.379 13.7657 102.235 13.6826C102.028 13.5473 101.711 13.5877 101.285 13.8038C100.858 14.0007 100.447 14.2736 100.054 14.6225C99.766 14.8641 99.506 15.1807 99.272 15.5724C99.036 15.9449 98.828 16.305 98.648 16.6527C98.549 16.8371 98.46 17.0205 98.381 17.203C98.3 17.3663 98.235 17.4988 98.186 17.6007C98.09 17.8043 98.019 18.0734 97.9734 18.408C97.9474 18.7407 97.9493 19.061 97.9791 19.3689C98.009 19.6768 98.083 19.9415 98.202 20.1631C98.34 20.3829 98.523 20.4719 98.752 20.4303ZM107.82 27.1846C107.558 27.2877 107.272 27.2474 106.963 27.0637C106.673 26.8782 106.434 26.61 106.244 26.2594C106.074 25.9068 106.038 25.5316 106.135 25.1336C106.162 25.0144 106.201 24.8164 106.252 24.5395C106.305 24.2819 106.332 24.056 106.332 23.8617C106.338 23.7251 106.374 23.4886 106.438 23.1521C106.505 22.8349 106.581 22.5167 106.666 22.1977C106.771 21.8767 106.855 21.6452 106.919 21.503C107.016 21.2994 107.072 21.0706 107.086 20.8167C107.119 20.561 107.13 20.3657 107.117 20.231C107.142 20.0926 107.175 19.934 107.216 19.7552C107.276 19.5745 107.34 19.4324 107.408 19.3287C107.431 19.171 107.473 19.0019 107.533 18.8212C107.592 18.6213 107.662 18.4493 107.746 18.3053C107.771 18.1669 107.784 18.0005 107.785 17.8062C107.804 17.6101 107.852 17.4986 107.927 17.4719C107.939 17.3931 107.941 17.3152 107.933 17.2382C107.945 17.1594 107.973 17.0498 108.018 16.9095C108.036 16.6941 108.093 16.3778 108.188 15.9606C108.284 15.5435 108.405 15.085 108.55 14.5853C108.708 14.0067 108.806 13.5116 108.843 13.1001C108.879 12.6693 108.747 12.4101 108.447 12.3226C108.286 12.2606 108.173 12.0967 108.108 11.8311C108.042 11.5462 108.033 11.2556 108.082 10.9595C108.131 10.6634 108.23 10.479 108.378 10.4064C108.544 10.3126 108.751 10.244 108.999 10.2005C109.247 10.157 109.469 10.1355 109.663 10.1361C109.875 10.1156 109.973 10.1255 109.957 10.1658C109.967 10.2621 110.02 10.3151 110.118 10.325C110.151 10.2636 110.237 10.3427 110.375 10.5624C110.53 10.761 110.678 10.9894 110.82 11.2477C110.961 11.5059 111.037 11.6831 111.046 11.7793C111.015 11.86 111.001 11.91 111.002 11.9292C111.002 11.9292 111.041 11.9255 111.118 11.918C111.118 11.918 111.219 11.8596 111.421 11.7429C111.622 11.6069 111.831 11.4604 112.049 11.3033C112.284 11.1251 112.436 10.9938 112.506 10.9093C112.506 10.9093 112.552 10.8854 112.645 10.8376C112.755 10.7687 112.844 10.692 112.914 10.6076C113.284 10.4163 113.695 10.3473 114.147 10.4006C114.618 10.452 115 10.5898 115.294 10.8138C115.725 11.2576 116.072 11.8261 116.333 12.5194C116.614 13.2109 116.652 13.9065 116.448 14.6061C116.419 14.706 116.348 14.878 116.236 15.122C116.141 15.3449 116.045 15.5581 115.948 15.7617C115.85 15.9461 115.8 16.0383 115.8 16.0383C115.425 16.774 114.99 17.3988 114.496 17.9129C114.021 18.4251 113.493 18.8843 112.911 19.2904C112.731 19.4437 112.474 19.5949 112.139 19.744C111.823 19.8912 111.524 20.0076 111.24 20.0933C110.977 20.1772 110.814 20.2027 110.753 20.1698C110.526 20.0364 110.302 19.7279 110.08 19.2444C110.008 19.5039 109.936 19.7634 109.864 20.0228C109.81 20.2612 109.777 20.4198 109.765 20.4987C109.759 20.6352 109.75 20.7526 109.741 20.8506C109.729 20.9295 109.687 21.0015 109.616 21.0667C109.616 21.0667 109.61 21.1061 109.598 21.185C109.586 21.2638 109.53 21.3858 109.43 21.5509C109.291 22.1276 109.179 22.5755 109.094 22.8946C109.01 23.2329 108.939 23.5021 108.881 23.7019C108.844 23.9192 108.807 24.1461 108.772 24.3826C108.784 24.9059 108.712 25.4665 108.556 26.0643C108.42 26.6602 108.174 27.0337 107.82 27.1846ZM111.211 17.3865C111.284 17.3406 111.413 17.2602 111.596 17.1453C111.798 17.0286 112.018 16.8907 112.255 16.7318C112.49 16.5536 112.707 16.3868 112.906 16.2316C113.122 16.0553 113.272 15.9047 113.357 15.7799C113.494 15.5918 113.568 15.4487 113.578 15.3506C113.586 15.2333 113.616 15.0458 113.669 14.7882C113.712 14.6287 113.762 14.4489 113.82 14.249C113.879 14.0492 113.928 13.8598 113.969 13.681C114.031 13.5196 114.045 13.3629 114.011 13.2108C113.994 13.0376 113.923 12.8989 113.796 12.7946C113.717 12.7828 113.537 12.8294 113.256 12.9344C112.994 13.0375 112.691 13.2222 112.348 13.4886C112.024 13.7531 111.71 14.1234 111.407 14.5996C111.053 15.1584 110.83 15.656 110.736 16.0924C110.64 16.5095 110.643 16.8395 110.745 17.0822C110.844 17.3056 110.999 17.4071 111.211 17.3865ZM122.806 20.1081C122.409 20.2243 122.1 20.2349 121.877 20.14C121.671 20.0239 121.453 19.88 121.223 19.7081C120.9 19.584 120.601 19.3994 120.324 19.1542C120.046 18.8898 119.825 18.6102 119.66 18.3154C119.496 18.0206 119.415 17.7856 119.417 17.6106C119.41 16.9315 119.493 16.1853 119.666 15.3721C119.859 14.557 120.121 13.7546 120.453 12.9649C120.803 12.1734 121.21 11.4638 121.674 10.8361C122.155 10.1873 122.69 9.69839 123.28 9.36929C123.65 9.17799 124.058 9.08019 124.504 9.07569C124.95 9.07129 125.266 9.22519 125.452 9.53739C125.795 10.0675 125.762 10.43 125.354 10.625C125.296 10.6306 125.231 10.666 125.16 10.7312C125.087 10.7771 125.054 10.8386 125.061 10.9156C125.142 10.9466 125.355 10.9357 125.699 10.8828C126.042 10.8108 126.382 10.7194 126.721 10.6089C127.078 10.4772 127.309 10.3577 127.415 10.2503C127.525 10.1813 127.609 10.1441 127.666 10.1385C127.724 10.1329 127.87 10.1381 128.105 10.1542C128.441 10.2187 128.616 10.3183 128.629 10.453C128.637 10.53 128.678 10.6523 128.752 10.8199C128.825 10.9682 128.9 11.0386 128.977 11.0312C129.113 11.0374 129.155 11.1693 129.102 11.4269C129.069 11.6826 128.873 11.9639 128.514 12.2706C128.171 12.537 127.955 12.7133 127.866 12.7996C127.795 12.8648 127.798 13.0004 127.877 13.2065C128.066 13.5572 128.099 14.0007 127.976 14.5371C127.854 15.0735 127.617 15.6402 127.267 16.2375C126.917 16.8347 126.487 17.4106 125.978 17.965C125.486 18.4983 124.958 18.9671 124.395 19.3713C123.85 19.7544 123.32 20 122.806 20.1081ZM122.657 17.6751C122.734 17.6677 122.865 17.6161 123.05 17.5205C123.233 17.4056 123.38 17.3137 123.49 17.2448C123.559 17.1603 123.647 17.0644 123.753 16.957C123.877 16.8285 123.976 16.7509 124.051 16.7242C124.128 16.7167 124.173 16.6832 124.187 16.6236C124.199 16.5447 124.252 16.3939 124.347 16.171C124.44 15.9289 124.638 15.5698 124.942 15.0936C125.286 14.6329 125.503 14.2719 125.594 14.0105C125.684 13.7299 125.665 13.4404 125.539 13.1418C125.513 13.0667 125.45 13.0242 125.352 13.0143C125.273 13.0025 125.163 12.9646 125.021 12.9007C124.828 12.9194 124.698 12.9806 124.631 13.0842C124.58 13.1668 124.441 13.1318 124.212 12.9791L123.695 12.4466L123.252 12.9849C122.974 13.3226 122.732 13.7345 122.526 14.2206C122.34 14.7049 122.203 15.194 122.115 15.6882C122.027 16.1823 121.982 16.6141 121.979 16.9834C121.987 17.2739 122.054 17.4617 122.179 17.5467C122.304 17.6317 122.463 17.6745 122.657 17.6751ZM134.326 8.93909C134.677 8.74969 135.006 8.54299 135.315 8.31879C135.623 8.09459 135.911 7.86269 136.179 7.62309C136.467 7.38149 136.724 7.13319 136.952 6.87799C137.091 6.70909 137.221 6.54119 137.34 6.37419C137.477 6.18609 137.605 5.99889 137.723 5.81269C138.005 5.31909 138.21 4.82337 138.336 4.3255C138.48 3.80652 138.522 3.33629 138.462 2.91481C138.452 2.8186 138.435 2.74256 138.41 2.68669C138.403 2.60972 138.386 2.53368 138.359 2.45858C138.284 2.48528 138.166 2.56476 138.004 2.69702C137.861 2.8274 137.691 2.97983 137.494 3.1543C137.299 3.34801 137.096 3.55228 136.884 3.76711C136.691 3.98006 136.524 4.16136 136.383 4.31099C136.348 4.3532 136.313 4.39542 136.278 4.43764C136.261 4.45875 136.245 4.48948 136.229 4.52983C136.028 4.86011 135.849 5.21739 135.692 5.60169C135.535 5.98599 135.367 6.35189 135.187 6.69959C135.024 7.02609 134.864 7.38149 134.707 7.76579C134.57 8.14819 134.442 8.53929 134.326 8.93909ZM134.585 11.0118C134.639 10.9677 134.694 10.9332 134.75 10.9084C134.804 10.8643 134.878 10.828 134.972 10.7994C135.238 10.7348 135.508 10.7183 135.783 10.7499C136.057 10.7623 136.222 10.7656 136.28 10.76C136.458 10.9953 136.604 11.2044 136.719 11.3875C136.852 11.5495 136.966 11.7326 137.064 11.9368C137.158 12.1026 137.243 12.2789 137.319 12.4657C137.396 12.6525 137.485 12.8769 137.588 13.1388C137.536 13.3965 137.533 13.6687 137.58 13.9554C137.645 14.2211 137.64 14.4741 137.566 14.7143C137.556 14.8124 137.547 14.9201 137.539 15.0374C137.53 15.1355 137.51 15.2345 137.481 15.3345C137.365 15.9478 137.158 16.6089 136.857 17.3179C136.576 18.025 136.173 18.5692 135.646 18.9504C135.519 19.0405 135.372 19.1227 135.204 19.1973C135.036 19.2718 134.887 19.3348 134.756 19.3864C134.479 19.5298 134.18 19.5587 133.861 19.4731C133.563 19.4049 133.275 19.3358 132.996 19.2657C132.727 19.2918 132.43 19.136 132.106 18.7984C131.801 18.4589 131.541 18.0763 131.325 17.6505C131.107 17.2054 130.986 16.8578 130.961 16.6077C130.936 16.5518 130.899 16.468 130.849 16.3563C130.817 16.2235 130.794 16.0801 130.779 15.9261C130.741 15.5413 130.718 15.0968 130.708 14.5927C130.717 14.0868 130.738 13.6088 130.773 13.1588C130.805 12.6895 130.84 12.3558 130.879 12.1578C130.774 12.0709 130.666 11.9552 130.554 11.8105C130.443 11.6659 130.343 11.4329 130.253 11.1113C130.341 10.8115 130.38 10.6135 130.371 10.5172C130.361 10.421 130.363 10.3335 130.374 10.2547C130.526 10.2205 130.679 10.1959 130.833 10.181C130.985 10.1468 131.127 10.104 131.258 10.0524C131.507 9.01819 131.832 7.95729 132.231 6.86959C132.648 5.76089 133.159 4.72069 133.764 3.74909C134.369 2.77749 135.088 1.97937 135.921 1.35472C136.238 1.01325 136.573 0.767048 136.928 0.616138C137.301 0.463358 137.725 0.325158 138.199 0.201538C138.299 0.230688 138.399 0.269468 138.501 0.317868C138.603 0.366268 138.704 0.405048 138.804 0.434198C138.85 0.507438 138.914 0.569198 138.997 0.619458C139.079 0.669728 139.161 0.710368 139.242 0.741388C139.816 1.05476 140.224 1.35513 140.465 1.64249C140.726 1.92799 140.873 2.24393 140.907 2.5903C140.931 2.84046 140.901 3.13471 140.818 3.47303C140.751 3.79025 140.651 4.15931 140.517 4.58021C140.445 4.8397 140.308 5.12499 140.105 5.43599C139.921 5.74519 139.756 6.04289 139.609 6.32909C139.562 6.45009 139.515 6.56159 139.466 6.66339C139.435 6.74409 139.415 6.83349 139.405 6.93149C139.256 7.00419 139.105 7.14509 138.95 7.35439C138.815 7.56169 138.695 7.72869 138.591 7.85539C138.522 7.93979 138.453 8.03389 138.385 8.13759C138.316 8.22199 138.238 8.31699 138.151 8.42249C137.962 8.67399 137.731 8.90029 137.459 9.10149C137.205 9.28149 136.993 9.50599 136.825 9.77479C136.54 10.0356 136.261 10.2666 135.989 10.4677C135.737 10.667 135.483 10.8567 135.229 11.0368C135.009 11.1746 134.779 11.3038 134.538 11.4243C134.297 11.5448 134.046 11.6662 133.786 11.7885C133.655 11.8401 133.557 12.0244 133.49 12.3417C133.441 12.6378 133.408 12.9907 133.389 13.4004C133.388 13.789 133.385 14.1583 133.38 14.5084C133.392 14.8374 133.397 15.0798 133.392 15.2356C133.392 15.4299 133.437 15.6975 133.528 16.0382C133.618 16.3598 133.726 16.6795 133.854 16.9973C133.9 17.0705 133.946 17.1437 133.992 17.217C134.036 17.271 134.071 17.3259 134.096 17.3818C134.279 17.2669 134.441 17.1346 134.582 16.985C134.722 16.8354 134.833 16.6693 134.912 16.4868C135.011 16.3024 135.09 16.1199 135.15 15.9392C135.255 15.6183 135.322 15.3107 135.352 15.0164C135.38 14.703 135.413 14.4376 135.45 14.2203C135.507 13.8069 135.472 13.4509 135.346 13.1523C135.239 12.8519 135.107 12.5831 134.948 12.346C134.789 12.1089 134.66 11.8883 134.563 11.6841C134.464 11.4606 134.471 11.2365 134.585 11.0118ZM148.484 18.3465C148.142 18.4186 147.826 18.3715 147.538 18.2052C147.25 18.0389 147.018 17.8477 146.842 17.6317C146.619 17.3425 146.44 17.0005 146.305 16.6057C146.168 16.1917 146.081 15.8019 146.046 15.4363C146.044 15.417 146.033 15.3987 146.012 15.3813C146.01 15.3621 146.009 15.3525 146.009 15.3525C146.007 15.3332 145.997 15.3342 145.98 15.3553C145.773 15.6278 145.466 15.9684 145.059 16.3769C144.669 16.7643 144.247 17.1161 143.792 17.4321C143.355 17.7271 142.952 17.8826 142.585 17.8989C142.352 17.902 142.111 17.8186 141.861 17.6485C141.629 17.4574 141.413 17.2355 141.214 16.9829C141.014 16.7303 140.876 16.5009 140.797 16.2949C140.691 15.9944 140.661 15.4922 140.71 14.7883C140.756 14.0651 140.853 13.2593 141 12.371C141.164 11.4616 141.37 10.5869 141.619 9.74699C141.866 8.88779 142.138 8.18159 142.434 7.62849C142.747 7.05419 143.067 6.75119 143.394 6.71949C143.683 6.69149 143.948 6.82119 144.19 7.10859C144.429 7.37669 144.608 7.62149 144.727 7.84309C144.87 8.12059 144.948 8.31699 144.959 8.43249C144.968 8.52869 144.878 8.70249 144.689 8.95399C144.515 9.16509 144.344 9.50219 144.175 9.96529C144.005 10.4092 143.84 10.9108 143.68 11.4701C143.519 12.0102 143.374 12.5195 143.246 12.9982C143.136 13.4749 143.047 13.8527 142.977 14.1314C142.959 14.3468 142.936 14.5141 142.909 14.6333C142.882 14.7525 142.866 14.89 142.861 15.0458C142.9 15.0421 142.938 15.0383 142.977 15.0346C143.033 15.0098 143.079 14.9859 143.116 14.9629C143.468 14.7927 143.817 14.4869 144.163 14.0455C144.528 13.6022 144.876 13.0829 145.206 12.4875C145.535 11.8729 145.844 11.2505 146.133 10.6204C146.438 9.96919 146.73 9.36789 147.007 8.81659C147.281 8.24609 147.528 7.78519 147.747 7.43379C147.982 7.06129 148.187 6.86659 148.36 6.84979C148.551 6.81189 148.786 6.83759 149.067 6.92699C149.346 6.99709 149.581 7.11989 149.773 7.29559C149.982 7.45009 150.078 7.64469 150.062 7.87929C150.028 8.32939 149.881 8.91659 149.621 9.64109C149.36 10.3464 149.095 11.1199 148.827 11.9617C148.578 12.8016 148.418 13.662 148.349 14.5429C148.314 14.9929 148.382 15.3846 148.55 15.7179C148.716 16.032 148.95 16.3395 149.251 16.6405C149.595 16.9763 149.648 17.3304 149.412 17.7029C149.194 18.0543 148.885 18.2688 148.484 18.3465ZM158.981 16.746C158.642 16.6622 158.327 16.518 158.035 16.3132C157.744 16.1084 157.47 15.8921 157.215 15.6643C157.129 15.5756 156.994 15.3847 156.81 15.0918C156.643 14.7777 156.444 14.4279 156.213 14.0425C155.998 13.6359 155.775 13.2303 155.541 12.8256C155.327 12.4191 155.127 12.0597 154.941 11.7475C154.869 12.007 154.807 12.2655 154.754 12.5232C154.719 12.7597 154.712 12.9934 154.735 13.2243C154.591 13.549 154.475 13.9488 154.385 14.4237C154.312 14.8775 154.255 15.1841 154.212 15.3437C154.178 15.5994 154.086 15.8512 153.936 16.0989C153.802 16.3255 153.637 16.526 153.44 16.7005C153.038 16.7589 152.737 16.759 152.537 16.7007C152.355 16.6212 152.113 16.431 151.812 16.13C151.626 15.8178 151.52 15.527 151.494 15.2576C151.485 14.9671 151.508 14.7026 151.563 14.4643C151.584 14.2873 151.658 13.9403 151.782 13.4232C151.924 12.885 152.082 12.3064 152.255 11.6875C152.426 11.0493 152.566 10.4919 152.675 10.0151C152.802 9.51719 152.871 9.22889 152.883 9.14999C152.975 8.69439 153.144 8.24089 153.392 7.78949C153.638 7.31899 153.785 6.83849 153.835 6.34809C153.878 5.99419 154.018 5.72819 154.253 5.54999C154.486 5.35259 154.749 5.25909 155.041 5.26959C155.332 5.26079 155.577 5.38279 155.776 5.63539C155.855 5.64709 155.925 5.66949 155.987 5.70239C156.066 5.71409 156.138 5.76529 156.206 5.85599C156.418 6.04899 156.559 6.29759 156.627 6.60169C156.715 6.90399 156.686 7.20789 156.541 7.51329C156.367 7.91869 156.215 8.25389 156.085 8.51899C155.975 8.78219 155.863 9.03589 155.751 9.27979C155.658 9.52189 155.56 9.81309 155.457 10.1533C155.645 10.0961 155.816 10.0505 155.968 10.0163C156.118 9.96289 156.248 9.90169 156.358 9.83279C156.485 9.74279 156.609 9.61419 156.729 9.44719C156.833 9.32059 157.016 9.10859 157.279 8.81119C157.539 8.49449 157.818 8.16639 158.116 7.82679C158.43 7.46609 158.692 7.15909 158.9 6.90579C159.126 6.63129 159.248 6.48359 159.265 6.46249C159.383 6.27619 159.51 6.07939 159.645 5.87209C159.798 5.64359 160.005 5.47779 160.267 5.37469C160.615 5.36039 160.899 5.38139 161.118 5.43789C161.356 5.49239 161.523 5.61219 161.619 5.79719C161.872 6.00569 161.962 6.32719 161.887 6.76179C161.832 7.19449 161.69 7.52879 161.46 7.76469C161.157 8.04659 160.775 8.41379 160.314 8.86649C159.871 9.29799 159.401 9.76109 158.905 10.256C158.407 10.7316 157.907 11.1879 157.406 11.625C157.653 11.9701 157.88 12.3075 158.087 12.637C158.292 12.9474 158.473 13.2115 158.63 13.4293C158.871 13.7167 159.049 13.9423 159.162 14.1062C159.273 14.2508 159.569 14.2998 160.05 14.2531C160.411 14.3735 160.647 14.506 160.759 14.6506C160.87 14.7952 160.933 14.9445 160.948 15.0984C160.961 15.2331 160.984 15.3765 161.019 15.5286C160.999 15.7247 160.913 15.9467 160.763 16.1944C160.629 16.421 160.413 16.5973 160.115 16.7234C159.818 16.8687 159.44 16.8762 158.981 16.746Z" fill="#5E8BDC"></path></svg> 