<?xml version="1.0" encoding="UTF-8"?> <svg xmlns="http://www.w3.org/2000/svg" width="106" height="106" viewBox="0 0 106 106" fill="none"><rect width="106" height="106" rx="7" fill="white"></rect><path d="M23.6 53.0001C23.6 36.7629 36.7628 23.6001 53 23.6001C69.2372 23.6001 82.4 36.7629 82.4 53.0001C82.4 69.2373 69.2372 82.4001 53 82.4001H27.9554C26.8003 82.4001 25.6924 81.9412 24.8756 81.1244C24.0588 80.3076 23.6 79.1998 23.6 78.0447V53.0001Z" fill="#F86126"></path><path d="M26.0738 81.9743C51.53 78.6983 71.2 56.9465 71.2 30.5999C71.2 30.3675 71.1986 30.1365 71.1958 29.9055C66.0152 25.8117 59.6028 23.5896 53 23.5999C36.7628 23.5999 23.6 36.7627 23.6 52.9999V78.0445C23.6 79.7763 24.6108 81.2715 26.0738 81.9743Z" fill="#F78613"></path></svg> 