<?xml version="1.0" encoding="UTF-8"?> <svg xmlns="http://www.w3.org/2000/svg" width="106" height="106" viewBox="0 0 106 106" fill="none"><rect width="106" height="106" rx="7" fill="white"></rect><g clip-path="url(#clip0_17_286)"><path d="M82.2222 30.6001C87.1502 30.6575 89.9278 36.8637 86.4404 40.3497L74.6468 52.1363L69.1 55.8001L53 30.6001H82.2222ZM33.3244 54.1061C32.8078 54.6225 32.3981 55.2356 32.1186 55.9103C31.839 56.5851 31.6951 57.3083 31.6951 58.0387C31.6951 58.7691 31.839 59.4923 32.1186 60.1671C32.3981 60.8418 32.8078 61.4549 33.3244 61.9713L45.1306 73.7733C46.1747 74.8169 47.5905 75.4031 49.0667 75.4031C50.5429 75.4031 51.9587 74.8169 53.0028 73.7733L50.9 68.4001L39 55.8001L33.323 54.1033L33.3244 54.1061Z" fill="#985184"></path><path d="M19.5596 40.3497C16.0722 36.8637 18.8512 30.6575 23.7792 30.6001H53L74.6454 52.1363C75.1623 52.6527 75.5724 53.266 75.8522 53.941C76.132 54.616 76.276 55.3396 76.276 56.0703C76.276 56.801 76.132 57.5246 75.8522 58.1996C75.5724 58.8746 75.1623 59.4879 74.6454 60.0043L60.8694 73.7705C59.8254 74.8132 58.4102 75.3989 56.9347 75.3989C55.4592 75.3989 54.044 74.8132 53 73.7705L19.5596 40.3497Z" fill="#1AD3BB"></path><path d="M53 73.7719C53.5169 73.2555 53.927 72.6422 54.2068 71.9672C54.4866 71.2922 54.6306 70.5686 54.6306 69.8379C54.6306 69.1072 54.4866 68.3836 54.2068 67.7086C53.927 67.0336 53.5169 66.4203 53 65.9039L41.1924 54.1047C40.1483 53.0611 38.7325 52.4749 37.2563 52.4749C35.7801 52.4749 34.3643 53.0611 33.3202 54.1047L53 73.7719ZM42.668 40.8285L53 30.6001L65.7904 43.2869C64.2243 41.7223 62.101 40.8435 59.8873 40.8435C57.6735 40.8435 55.5503 41.7223 53.9842 43.2869L49.556 47.7109C48.6424 48.6239 47.4036 49.1369 46.112 49.1369C44.8204 49.1369 43.5816 48.6239 42.668 47.7109C42.2159 47.2591 41.8573 46.7226 41.6126 46.1322C41.3679 45.5417 41.2419 44.9088 41.2419 44.2697C41.2419 43.6305 41.3679 42.9977 41.6126 42.4072C41.8573 41.8167 42.2159 41.2803 42.668 40.8285Z" fill="#005E7A"></path></g><defs><clipPath id="clip0_17_286"><rect width="70" height="70" fill="white" transform="translate(18 18)"></rect></clipPath></defs></svg> 