<?xml version="1.0" encoding="UTF-8"?> <svg xmlns="http://www.w3.org/2000/svg" width="106" height="106" viewBox="0 0 106 106" fill="none"><rect width="106" height="106" rx="7" fill="white"></rect><path d="M23.6 29.2001C23.6 27.7149 24.19 26.2905 25.2402 25.2403C26.2904 24.1901 27.7148 23.6001 29.2 23.6001H53V47.4001C53 48.8853 52.41 50.3097 51.3598 51.3599C50.3096 52.4101 48.8852 53.0001 47.4 53.0001H23.6V29.2001Z" fill="#985184"></path><path d="M23.6 66.9999C23.6 65.5147 24.19 64.0903 25.2402 63.0401C26.2904 61.9899 27.7148 61.3999 29.2 61.3999H44.6V76.7999C44.6 78.2851 44.01 79.7095 42.9598 80.7597C41.9096 81.8099 40.4852 82.3999 39 82.3999H23.6V66.9999Z" fill="#088BF5"></path><path d="M53 82.3999H58.6C60.0852 82.3999 61.5096 81.8099 62.5598 80.7597C63.61 79.7095 64.2 78.2851 64.2 76.7999V61.3999H58.6C57.1148 61.3999 55.6904 61.9899 54.6402 63.0401C53.59 64.0903 53 65.5147 53 66.9999V82.3999Z" fill="#1AD3BB"></path><path d="M61.4 41.8V47.4C61.4 48.8853 61.99 50.3096 63.0402 51.3598C64.0904 52.4101 65.5148 53 67 53H82.4V47.4C82.4 45.9148 81.81 44.4905 80.7598 43.4403C79.7096 42.39 78.2852 41.8 76.8 41.8H61.4Z" fill="#F9464C"></path><path d="M61.4 23.6001V29.2001C61.4 30.6853 61.99 32.1097 63.0402 33.1599C64.0904 34.2101 65.5148 34.8001 67 34.8001H82.4V29.2001C82.4 27.7149 81.81 26.2905 80.7598 25.2403C79.7096 24.1901 78.2852 23.6001 76.8 23.6001H61.4Z" fill="#FC868B"></path><path d="M71.2 82.3999H76.8C78.2852 82.3999 79.7095 81.8099 80.7597 80.7597C81.81 79.7095 82.4 78.2851 82.4 76.7999V61.3999H76.8C75.3147 61.3999 73.8904 61.9899 72.8402 63.0401C71.79 64.0903 71.2 65.5147 71.2 66.9999V82.3999Z" fill="#03AF89"></path></svg> 