<?xml version="1.0" encoding="UTF-8"?> <svg xmlns="http://www.w3.org/2000/svg" width="106" height="106" viewBox="0 0 106 106" fill="none"><rect width="106" height="106" rx="7" fill="white"></rect><path d="M60.8064 38.8697C61.8641 37.8123 63.2986 37.2183 64.7943 37.2183C66.29 37.2183 67.7244 37.8123 68.7822 38.8697L80.748 50.8341C81.2718 51.3579 81.6873 51.9798 81.9708 52.6641C82.2543 53.3485 82.4002 54.082 82.4002 54.8227C82.4002 55.5635 82.2543 56.297 81.9708 56.9814C81.6873 57.6657 81.2718 58.2876 80.748 58.8113L58.8114 80.7493C58.2876 81.2732 57.6658 81.6887 56.9814 81.9721C56.297 82.2556 55.5635 82.4015 54.8228 82.4015C54.082 82.4015 53.3485 82.2556 52.6642 81.9721C51.9798 81.6887 51.358 81.2732 50.8342 80.7493L38.8698 68.7835C38.346 68.2598 37.9305 67.6379 37.647 66.9536C37.3635 66.2692 37.2176 65.5357 37.2176 64.7949C37.2176 64.0542 37.3635 63.3207 37.647 62.6363C37.9305 61.952 38.346 61.3301 38.8698 60.8063L60.8064 38.8697Z" fill="#FBB945"></path><path d="M44.2094 30.6657C44.782 29.2838 45.8801 28.1859 47.2622 27.6135C48.6442 27.0412 50.197 27.0413 51.579 27.6137L67.2128 34.0887C68.5948 34.6613 69.6926 35.7594 70.265 37.1415C70.8373 38.5235 70.8373 40.0763 70.2648 41.4583L58.3928 70.1191C57.8205 71.501 56.7227 72.5989 55.341 73.1715C53.9592 73.7441 52.4066 73.7445 51.0246 73.1725L35.3908 66.6961C34.0089 66.1235 32.911 65.0254 32.3386 63.6434C31.7663 62.2613 31.7664 60.7085 32.3388 59.3265L44.2094 30.6657Z" fill="#FC868B"></path><path d="M70.5378 40.6239C70.4706 40.9039 70.3796 41.1839 70.2662 41.4583L58.3942 70.1191C58.1107 70.8035 57.6951 71.4254 57.1712 71.9492C56.6473 72.473 56.0254 72.8885 55.3409 73.1719C54.6564 73.4553 53.9228 73.6011 53.182 73.601C52.4411 73.6008 51.7076 73.4548 51.0232 73.1711L38.0928 67.8161C37.4067 66.7332 37.1098 65.449 37.251 64.1748C37.3923 62.9007 37.9632 61.7126 38.8698 60.8063L60.8064 38.8683C61.8642 37.8108 63.2986 37.2168 64.7943 37.2168C66.29 37.2168 67.7244 37.8108 68.7822 38.8683L70.5378 40.6239Z" fill="#F86126"></path><path d="M23.6 29.2407C23.6 27.7447 24.1943 26.31 25.2521 25.2522C26.3099 24.1944 27.7446 23.6001 29.2406 23.6001H46.1624C47.6584 23.6001 49.0931 24.1944 50.1509 25.2522C51.2087 26.31 51.803 27.7447 51.803 29.2407V60.2647C51.8028 61.0054 51.6567 61.7389 51.3731 62.4232C51.0894 63.1074 50.6738 63.7291 50.1499 64.2528C49.626 64.7764 49.0041 65.1918 48.3196 65.4751C47.6352 65.7584 46.9017 65.9041 46.161 65.9039H29.242C28.5011 65.9041 27.7675 65.7583 27.083 65.4749C26.3985 65.1916 25.7765 64.7761 25.2526 64.2523C24.7286 63.7285 24.313 63.1066 24.0295 62.4222C23.7459 61.7377 23.6 61.0041 23.6 60.2633V29.2407Z" fill="#2EBCFA"></path><path d="M51.5622 27.6054C51.719 28.1234 51.803 28.6722 51.803 29.2406V60.2646C51.803 61.0053 51.6571 61.7388 51.3736 62.4231C51.0902 63.1075 50.6747 63.7293 50.1509 64.2531C49.6271 64.7768 49.0053 65.1923 48.321 65.4758C47.6366 65.7593 46.9031 65.9052 46.1624 65.9052H34.0412C33.0809 65.1427 32.3952 64.0882 32.0877 62.9012C31.7803 61.7142 31.868 60.4593 32.3374 59.3266L44.2094 30.6658C44.7805 29.2865 45.8752 28.1898 47.2534 27.6162C48.6316 27.0425 50.1811 27.0386 51.5622 27.6054Z" fill="#2D6388"></path></svg> 