<?xml version="1.0" encoding="UTF-8"?> <svg xmlns="http://www.w3.org/2000/svg" width="82" height="37" viewBox="0 0 82 37" fill="none"><path d="M4.10682 22.6996C3.73523 22.6849 3.30097 22.5887 2.80406 22.4111C2.30338 22.2525 1.77419 22.0389 1.2165 21.7704C0.931936 21.6153 0.736486 21.4582 0.630126 21.2991C0.542726 21.1437 0.392616 20.8576 0.179776 20.4408C0.046676 20.1187 -0.012514 19.7718 0.00219604 19.4002C0.035876 19.0324 0.147346 18.7195 0.336606 18.4614C0.544836 18.2071 0.825266 18.0855 1.1779 18.0964C1.33713 18.0886 1.50974 18.1623 1.69572 18.3176C1.90442 18.4576 2.11696 18.628 2.33333 18.8287C2.68632 19.1353 3.06775 19.4477 3.47763 19.7657C3.88374 20.1026 4.28207 20.2804 4.67263 20.2988C4.94941 20.2947 5.26983 20.319 5.63388 20.3716C6.01313 20.447 6.37907 20.4901 6.7317 20.5011C7.1033 20.5158 7.40846 20.468 7.6472 20.3578C8.78792 19.8748 9.64432 19.4833 10.2164 19.183C10.7924 18.8638 11.0803 18.7042 11.0803 18.7042C11.1333 18.6359 11.211 18.5922 11.3134 18.5731C11.4384 18.5389 11.5825 18.5084 11.7455 18.4816C11.8819 18.3905 12.0978 18.2461 12.3933 18.0486C12.6926 17.8321 12.9805 17.6232 13.257 17.4219C13.5525 17.2244 13.7325 17.1123 13.7969 17.0857C13.8688 16.9226 13.9331 16.7974 13.9898 16.7101C14.0504 16.6039 14.0919 16.4939 14.1146 16.3801C14.2964 16.2585 14.5577 15.9852 14.8984 15.5602C15.2619 15.1199 15.6347 14.6322 16.017 14.0971C16.4031 13.5431 16.702 13.0309 16.9138 12.5605C17.3675 11.5665 17.6413 10.6353 17.735 9.76698C17.8288 8.89858 17.7633 8.08718 17.5387 7.33298C17.3141 6.57873 16.9492 5.88531 16.4442 5.25273C16.2695 5.04062 16.0209 4.80395 15.6983 4.54272C15.3794 4.26253 15.0473 3.99942 14.702 3.75339C14.3604 3.4884 14.0474 3.27835 13.7628 3.12324C13.4972 2.9719 13.3341 2.90006 13.2735 2.90772C13.1938 2.9116 12.9837 3.17538 12.6431 3.69903C12.3252 4.20749 11.9185 4.86582 11.4227 5.67404C10.946 6.48602 10.4276 7.35871 9.86762 8.29208C9.33032 9.21038 8.81192 10.0831 8.31247 10.9102C8.14606 11.2517 7.94743 11.6064 7.7166 11.9745C7.50472 12.3463 7.32123 12.6745 7.16612 12.9591C7.01478 13.2247 6.92969 13.4049 6.91085 13.4997C6.6382 13.7806 6.32215 14.2303 5.9627 14.8488C5.60326 15.4672 5.22521 16.3777 4.82856 17.5801C4.52977 18.1909 4.29911 18.7068 4.13659 19.1279C3.97783 19.53 3.86241 19.714 3.79033 19.68C3.79033 19.68 3.76389 19.7634 3.71101 19.9303C3.65437 20.1162 3.59195 20.2319 3.52375 20.2775C3.50114 20.3913 3.37229 20.4445 3.13721 20.4372C2.90212 20.4299 2.64607 20.3297 2.36905 20.1367C2.09202 19.9437 1.85846 19.6312 1.66836 19.1991C1.65292 18.9793 1.66581 18.6664 1.70702 18.2607C1.77097 17.8397 1.93343 17.3694 2.19441 16.8496C2.36083 16.5082 2.58589 16.07 2.86961 15.535C3.15333 15.0001 3.45977 14.4499 3.78895 13.8846C4.11813 13.3192 4.41892 12.7975 4.69133 12.3194C4.98271 11.8451 5.19081 11.4923 5.31565 11.2608C5.51245 10.9648 5.82267 10.3957 6.2463 9.55348C6.49598 9.09058 6.74566 8.62768 6.99534 8.16478C7.26398 7.70571 7.51184 7.3016 7.73891 6.9525C7.96974 6.58444 8.12491 6.34917 8.20441 6.2467C8.34821 6.01903 8.54112 5.64343 8.78312 5.11989C9.04792 4.58117 9.40362 3.98166 9.85022 3.32138L10.2358 2.42231L9.95122 2.21791C9.70862 2.24854 9.52282 2.24118 9.39382 2.19584C9.28762 2.1353 9.21742 2.09179 9.18322 2.06529C9.06192 2.0806 8.91582 2.02201 8.74512 1.88951C8.59703 1.74182 8.46411 1.56757 8.34633 1.36676C8.24751 1.16972 8.19044 1.01054 8.17513 0.889229C8.15227 0.805839 8.14267 0.705379 8.14632 0.587829C8.1727 0.455099 8.18589 0.388729 8.18589 0.388729C8.22746 0.278719 8.41126 0.196979 8.73722 0.143499C9.06702 0.0710594 9.48032 0.0250494 9.97692 0.00548939C10.4926 -0.0103106 11.031 0.00799932 11.5922 0.0603893C12.1534 0.112789 12.6673 0.205059 13.1338 0.337189C13.6193 0.473099 14.2035 0.707459 14.8864 1.04029C15.5693 1.37312 16.1479 1.68522 16.6222 1.97659C17.1838 2.32473 17.7607 2.84347 18.353 3.53282C18.9454 4.22216 19.4506 5.00261 19.8687 5.87417C20.3058 6.74949 20.5363 7.62317 20.5601 8.49518C20.5718 8.73408 20.5646 9.06768 20.5386 9.49618C20.5126 9.92468 20.46 10.3381 20.3808 10.7363C20.3244 11.1193 20.2375 11.3583 20.1201 11.4532C20.0671 11.5215 20.0198 11.6107 19.9782 11.7207C19.9594 11.8155 19.9841 11.8894 20.0524 11.9424C20.0222 11.9955 19.9125 12.2004 19.7233 12.557C19.538 12.8947 19.3715 13.1869 19.2239 13.4335C19.088 13.919 18.8422 14.4615 18.4865 15.061C18.1498 15.6643 17.7903 16.2334 17.408 16.7685C17.0485 17.2884 16.7418 17.6907 16.4881 17.9754C16.4123 17.9603 16.3327 17.9642 16.2493 17.987C16.1886 17.9947 16.1943 18.0155 16.2664 18.0496C16.2476 18.1444 16.1075 18.3038 15.8461 18.5278C15.759 18.5696 15.6075 18.6873 15.3916 18.881C15.1984 19.0594 15.0469 19.1771 14.937 19.2342C14.8917 19.3631 14.8122 19.4656 14.6985 19.5416C14.5886 19.5986 14.4958 19.6195 14.4199 19.6045C14.4199 19.6045 14.401 19.6007 14.363 19.5932C14.3441 19.5894 14.327 19.6254 14.312 19.7013C14.1151 19.8987 13.8007 20.1417 13.3688 20.4304C12.9369 20.7191 12.4557 21.0078 11.9252 21.2967C11.3948 21.5855 10.8699 21.8458 10.3508 22.0777C9.83162 22.3097 9.36732 22.4638 8.95792 22.5401C8.74192 22.6352 8.52212 22.6999 8.29846 22.7343C8.07103 22.7877 7.85308 22.8429 7.64461 22.9C7.53472 22.957 7.24658 22.9688 6.78017 22.9352C6.31377 22.9017 5.8208 22.853 5.30128 22.7891C4.80072 22.7291 4.40256 22.6992 4.10682 22.6996ZM21.9112 23.222C21.3424 23.2076 20.8019 23.0509 20.2897 22.752C19.7964 22.4568 19.4111 22.0649 19.1337 21.5761C18.8791 21.0721 18.8121 20.5167 18.9326 19.9099C18.9888 19.3298 19.17 18.666 19.4762 17.9187C19.8051 17.1562 20.2099 16.4088 20.6906 15.6764C21.1902 14.9478 21.7127 14.3519 22.2581 13.8886C22.7278 13.5089 23.1899 13.1671 23.6446 12.8632C24.0992 12.5593 24.4914 12.3712 24.8212 12.2987C25.1092 12.2377 25.4486 12.2165 25.8391 12.2349C26.2524 12.2382 26.5349 12.2549 26.6866 12.2851C26.9749 12.4212 27.2823 12.6104 27.6087 12.8527C27.954 13.0987 28.104 13.3355 28.0588 13.5631C28.0588 13.5631 28.0721 13.5953 28.0988 13.6597C28.1481 13.7089 28.1728 13.7336 28.1728 13.7336C28.2866 13.7562 28.3815 13.9229 28.4578 14.2337C28.5567 14.5293 28.6083 14.8648 28.6125 15.2402C28.6206 15.5966 28.547 15.8678 28.3917 16.0537C28.2443 16.399 28.0229 16.7196 27.7275 17.0157C27.4511 17.3156 27.237 17.4505 27.0853 17.4203C27.0094 17.4052 26.9317 17.3996 26.8521 17.4035C26.7952 17.3922 26.7573 17.434 26.7385 17.5288C26.7197 17.6236 26.6059 17.6503 26.3974 17.6088C26.2077 17.5711 26.0162 17.4936 25.8226 17.3763C25.6291 17.259 25.519 17.1189 25.4923 16.9559C25.5111 16.8611 25.5546 16.7416 25.6226 16.5974C25.6907 16.4533 25.7985 16.2086 25.9459 15.8634C26.1652 15.355 26.2444 15.0061 26.1835 14.8166C26.1264 14.6081 25.8931 14.5421 25.4837 14.6184C24.9569 14.7896 24.506 15.0253 24.131 15.3253C23.7598 15.6063 23.3887 16.0352 23.0178 16.612C22.6659 17.1925 22.2366 18.0139 21.7298 19.0762C21.5294 19.4897 21.4426 19.8273 21.4694 20.0888C21.5153 20.3542 21.5647 20.502 21.6178 20.5323C21.8682 20.6609 22.1489 20.7364 22.4598 20.7587C22.7935 20.7659 23.0759 20.7333 23.3071 20.661C23.6407 20.5696 23.9382 20.4612 24.1997 20.3358C24.4839 20.1951 24.7889 20.0488 25.1148 19.8967C25.2209 19.8587 25.327 19.7713 25.433 19.6347C25.5427 19.4791 25.681 19.3785 25.8478 19.3328C26.0447 19.1354 26.2569 19.0593 26.4845 19.1045C26.7348 19.1345 26.9737 19.1722 27.2012 19.2174C27.3454 19.2854 27.4877 19.4123 27.6283 19.5979C27.7688 19.7835 27.8619 19.9597 27.9076 20.1265C27.976 20.2781 27.9477 20.371 27.8226 20.4053C27.7468 20.3902 27.6937 20.4092 27.6634 20.4623C27.6559 20.5003 27.6521 20.5192 27.6521 20.5192C27.675 20.6026 27.5557 20.7563 27.2944 20.9803C27.052 21.2081 26.749 21.4436 26.3853 21.6867C26.0216 21.9298 25.6749 22.1369 25.3452 22.3079C25.0383 22.4637 24.828 22.5303 24.7142 22.5077C24.5246 22.47 24.4184 22.5081 24.3958 22.6218C24.3883 22.6598 24.2272 22.7263 23.9126 22.8215C23.617 22.9204 23.274 23.01 22.8836 23.0901C22.5121 23.1739 22.188 23.2179 21.9112 23.222ZM35.577 25.7605C35.425 25.5332 35.3242 25.247 35.2745 24.9021C35.2286 24.5381 35.192 24.1268 35.1649 23.668C35.1572 23.5088 35.1721 23.3344 35.2098 23.1447C35.2664 22.9589 35.2966 22.8072 35.3002 22.6896C35.217 22.8111 35.0882 22.9629 34.9141 23.1451C34.7588 23.3311 34.6149 23.4602 34.4823 23.5324C34.3914 23.5931 34.1906 23.7109 33.8799 23.8857C33.5729 24.0415 33.2735 24.1594 32.9817 24.2394C32.2768 24.5133 31.6797 24.5917 31.1905 24.4748C30.7239 24.3427 30.3557 24.0132 30.0859 23.4865C29.8315 23.1797 29.6472 22.8179 29.5329 22.4009C29.4186 21.984 29.4712 21.5214 29.6905 21.013C29.8603 20.3569 30.0832 19.731 30.3593 19.1354C30.6391 18.5208 31.1216 17.7297 31.8067 16.762C32.3594 16.0636 32.7834 15.5171 33.0786 15.1224C33.3739 14.7278 33.5575 14.4981 33.6295 14.4336C33.9327 14.3953 34.2817 14.4745 34.6762 14.6712C35.0746 14.8489 35.2663 15.0743 35.2515 15.3473C35.3276 15.5595 35.256 15.9198 35.0367 16.4282C34.8212 16.9175 34.4768 17.4601 34.0036 18.056C33.61 18.648 33.2296 19.2229 32.8625 19.7807C32.5144 20.3422 32.2704 20.826 32.1306 21.2318C32.0098 21.6415 32.0727 21.9201 32.3193 22.0677C32.4711 22.1964 32.7195 22.2359 33.0645 22.1862C33.4284 22.1402 33.8945 21.8781 34.4626 21.3996C35.0308 20.9212 35.6933 20.1166 36.4503 18.9857C36.6773 18.6366 36.8571 18.3274 36.9894 18.058C37.1256 17.7697 37.2389 17.4473 37.3295 17.0908C37.3368 16.8557 37.4408 16.63 37.6415 16.4136C37.8611 16.201 38.0979 16.051 38.3518 15.9634C38.4465 15.8837 38.5678 15.8191 38.7156 15.7696C38.8672 15.7012 38.9525 15.7181 38.9716 15.8205L39.4323 15.8825C39.512 15.8786 39.5822 15.9714 39.6431 16.1609C39.704 16.3504 39.7743 16.4925 39.8541 16.5872C40.0287 16.7993 40.0501 17.1879 39.9181 17.753C39.786 18.3182 39.4002 19.0694 38.7606 20.0067C38.2458 20.7125 37.8825 21.2514 37.6706 21.6232C37.4777 21.9988 37.334 22.3743 37.2397 22.7498C37.1719 23.0912 37.1419 23.3907 37.1498 23.6485C37.1615 23.8874 37.285 24.1583 37.5205 24.4614C37.7027 24.6356 37.7712 24.8857 37.7261 25.2119C37.7038 25.5228 37.6605 25.7902 37.5963 26.0139C37.5245 26.1771 37.3502 26.2607 37.0734 26.2648C36.8118 26.2917 36.5331 26.256 36.2372 26.1578C35.9603 26.0633 35.7402 25.9309 35.577 25.7605ZM39.5473 28.1166C39.3917 28.0068 39.2227 27.8155 39.0404 27.5428C38.7252 27.145 38.5503 26.6865 38.5155 26.167C38.5035 25.6324 38.592 25.1375 38.781 24.6823C39.1216 24.1587 39.4454 23.8189 39.7523 23.6631C40.0819 23.4921 40.3947 23.4557 40.6906 23.5539C41.0092 23.6369 41.29 23.811 41.5329 24.0761C41.3211 24.4479 41.1452 24.7875 41.0053 25.0948C40.8653 25.4021 40.8391 25.6827 40.9267 25.9366C41.0142 26.1905 41.2913 26.4329 41.7579 26.6636C42.1296 26.7769 42.4482 26.8599 42.7137 26.9127C43.0019 26.9502 43.3375 26.9972 43.7205 27.0536C44.1642 27.1024 44.5149 27.1228 44.7728 27.1149C45.0495 27.1108 45.2979 27.101 45.5178 27.0855C46.0789 27.0394 46.5754 26.9212 47.0074 26.7311C47.4432 26.522 47.8202 26.2619 48.1383 25.9506C48.3427 25.7152 48.4941 25.4989 48.5925 25.3017C48.6946 25.0854 48.7701 24.854 48.8191 24.6075C48.8756 24.3231 48.8962 24.0709 48.8808 23.851C48.8691 23.6122 48.8175 23.326 48.7261 22.9924C48.6575 22.6437 48.528 22.1547 48.3376 21.5255C48.345 21.389 48.2386 21.1313 48.0182 20.7525C47.8168 20.3773 47.6135 20.0117 47.4083 19.6555C47.3359 19.3258 47.233 18.9505 47.0998 18.5298C46.9704 18.0901 46.7898 17.7586 46.5583 17.5352C46.505 17.4063 46.4555 17.2092 46.4097 16.9439C46.3828 16.6823 46.3428 16.5364 46.2897 16.5061C46.2897 16.5061 46.2707 16.453 46.2327 16.3469C46.2136 16.2446 46.1888 16.1214 46.1583 15.9773C46.021 15.3784 46.1472 14.6939 46.5368 13.9237C46.9302 13.1346 47.5019 12.44 48.2519 11.8401C48.5283 11.5402 48.8616 11.2516 49.2518 10.9744C49.6458 10.6781 49.9981 10.4426 50.3088 10.2678C50.6422 10.0778 50.8468 9.99038 50.9227 10.0055C50.9227 10.0055 50.9833 9.99778 51.1047 9.98248C51.2487 9.95198 51.4287 9.88918 51.6447 9.79418C51.8797 9.70288 52.0995 9.63808 52.3042 9.59998C52.5127 9.54278 52.8046 9.51218 53.18 9.50788L53.3563 9.51338L53.4757 9.50748C53.8169 9.47678 54.0956 9.46318 54.3117 9.46668C54.5316 9.45128 54.7364 9.46238 54.926 9.50008C55.1156 9.53778 55.3413 9.59248 55.603 9.66418C56.4111 10.0613 57.0031 10.5042 57.3791 10.9929C57.7778 11.4663 57.8962 12.2093 57.7344 13.2219L57.3486 13.9731L56.7576 14.4174C56.7045 14.3872 56.5415 14.4139 56.2686 14.4977C56.0147 14.5852 55.6716 14.6254 55.2393 14.6183C54.8298 14.5961 54.3367 14.3995 53.7599 14.0287C53.6878 13.9946 53.6688 13.9416 53.7028 13.8695C53.7406 13.7784 53.8278 13.7366 53.9643 13.744C54.0287 13.7174 54.131 13.6491 54.2712 13.5389C54.4303 13.4326 54.5837 13.3054 54.7314 13.1573C55.0457 12.865 55.1535 12.6203 55.0547 12.4232C54.9786 12.211 54.7699 12.071 54.4286 12.0031C53.7801 11.894 53.1393 11.8948 52.5062 12.0055C51.8769 12.0973 51.2611 12.3691 50.6588 12.821C50.1589 13.2539 49.7745 13.6506 49.5057 14.0111C49.2407 14.3527 49.0762 14.6846 49.0121 15.007C49.0237 15.1473 49.0031 15.3501 48.9503 15.6156C48.9203 15.8659 48.9453 16.137 49.0253 16.4288C49.4777 17.4255 49.8274 18.1947 50.0745 18.7366C50.3406 19.2823 50.5193 19.6726 50.6106 19.9076C50.6372 19.972 50.6562 20.025 50.6677 20.0667C50.6791 20.1084 50.681 20.1482 50.6735 20.1862C50.723 20.334 50.7896 20.5443 50.8733 20.8172C50.9571 21.0901 51.0332 21.3516 51.1018 21.6018C51.1703 21.852 51.1971 22.015 51.182 22.0908C51.182 22.0908 51.1991 22.1534 51.2334 22.2784C51.2715 22.3846 51.3096 22.54 51.3477 22.7447C51.4086 22.9342 51.445 23.1976 51.4567 23.5351C51.4913 23.8573 51.5012 24.2042 51.4865 24.5758C51.4755 24.9285 51.4418 25.247 51.3852 25.5314C51.34 25.759 51.2247 26.0416 51.0393 26.3793C50.8577 26.698 50.6363 27.0186 50.3751 27.3412C50.1366 27.6487 49.862 27.8898 49.5513 28.0645C49.2406 28.2393 48.7972 28.437 48.2212 28.6577C47.6451 28.8783 47.0273 29.061 46.3678 29.2059C45.7082 29.3508 45.0846 29.4141 44.4969 29.3959C43.9091 29.3776 43.3536 29.3461 42.8303 29.3012C42.326 29.2601 41.8577 29.1868 41.4253 29.0811C41.0081 28.9982 40.6383 28.8754 40.3158 28.7128C39.9933 28.5501 39.7372 28.3514 39.5473 28.1166ZM55.4886 29.7471C55.0335 29.6567 54.6824 29.3405 54.4353 28.7986C54.2109 28.2415 54.1286 27.6141 54.1885 26.9164C54.2376 26.7685 54.2999 26.5542 54.3754 26.2735C54.4698 25.9966 54.5661 25.7102 54.6644 25.4143C54.8118 25.0691 55.0084 24.6253 55.2542 24.0828C55.5 23.5403 55.7553 22.9997 56.02 22.4609C56.2886 21.9033 56.5212 21.4271 56.7178 21.0326C56.9183 20.619 57.0355 20.3762 57.0696 20.3042C57.2361 20.0613 57.5053 20.0458 57.8771 20.2577C58.249 20.4695 58.5338 20.8218 58.7315 21.3145C58.8151 21.4888 58.8457 21.6821 58.8232 21.8945C58.8197 22.1106 58.731 22.4083 58.557 22.7877C58.402 23.1709 58.1335 23.7285 57.7514 24.4608C57.3921 25.1778 57.1085 25.7621 56.9005 26.2135C56.7152 26.6498 56.5812 27.1258 56.4984 27.6416C56.2492 28.4988 56.0547 29.081 55.9147 29.3883C55.7786 29.6766 55.6366 29.7962 55.4886 29.7471ZM60.4513 18.463C60.3642 18.5048 60.2827 18.5182 60.2068 18.5031C60.1537 18.4728 60.0607 18.3952 59.9278 18.2703C59.7989 18.2249 59.6452 18.1057 59.4667 17.9125C59.311 17.7042 59.1743 17.4996 59.0565 17.2988C58.9577 17.1018 58.912 16.9843 58.9196 16.9463C58.9383 16.753 59.0081 16.4514 59.1289 16.0418C59.2687 15.6359 59.4502 15.2679 59.6735 14.9378C59.9196 14.5925 60.1867 14.4386 60.4749 14.4761C60.5507 14.4912 60.7044 14.5612 60.9358 14.686C61.1862 14.8146 61.4423 14.9641 61.7042 15.1344C61.7993 15.449 61.8681 15.847 61.9104 16.3285C61.9527 16.8099 61.8736 17.2574 61.6731 17.671C61.4954 18.0693 61.0881 18.3333 60.4513 18.463ZM60.4531 36.4993C60.2407 36.4768 59.9278 36.3653 59.5143 36.1649C59.097 35.9834 58.708 35.709 58.3474 35.3417C57.922 34.8038 57.6428 34.3738 57.5097 34.0516C57.3766 33.7295 57.3232 33.4528 57.3495 33.2215C57.3909 33.0129 57.4381 32.8251 57.491 32.6583C57.6687 32.2599 57.9074 32.1004 58.207 32.1796C58.5256 32.2627 58.7552 32.397 58.8957 32.5826C59.0551 32.772 59.2184 32.9917 59.3856 33.2417C59.5679 33.5145 59.7464 33.757 59.9211 33.9691C60.1147 34.185 60.2893 34.2985 60.4447 34.3097C60.8315 34.3471 61.1764 34.2481 61.4795 34.0127C61.7787 33.7962 62.1101 33.4185 62.4734 32.8797C62.708 32.4926 62.8934 32.155 63.0295 31.8666C63.1846 31.5821 63.3454 31.2691 63.5118 30.9276C63.6782 30.5862 63.8881 30.1253 64.1414 29.5448C64.3229 29.1275 64.4496 28.8373 64.5214 28.6742C64.616 28.4959 64.667 28.3878 64.6746 28.3498C64.6859 28.293 64.682 28.2626 64.6631 28.2589C64.6631 28.2589 64.5892 28.2836 64.4414 28.3331C64.2935 28.3825 64.087 28.4302 63.8216 28.476C63.5752 28.5256 63.3004 28.5695 62.9971 28.6078C62.4322 28.673 61.8711 28.7191 61.3138 28.7464C60.7602 28.7546 60.3507 28.6831 60.0851 28.5317C59.8232 28.3614 59.6334 28.1266 59.5155 27.8272C59.3976 27.5278 59.3403 27.2208 59.3437 26.9061C59.3661 26.5951 59.4056 26.3467 59.4623 26.1609C59.5303 26.0167 59.6647 25.7872 59.8652 25.4722C60.0658 25.1573 60.2891 24.8271 60.5351 24.4818C60.7812 24.1365 61.0083 23.8366 61.2165 23.5824C61.4247 23.3281 61.5781 23.2009 61.6767 23.2007C61.7601 23.1779 61.8416 23.1152 61.921 23.0128C62.0233 22.8951 62.0819 22.7983 62.097 22.7225C62.131 22.6504 62.2314 22.5422 62.398 22.3979C62.5837 22.2574 63.0763 22.0104 63.8759 21.6568C64.7094 21.1325 65.4426 20.7657 66.0755 20.5564C66.7122 20.3282 67.2714 20.2422 67.753 20.2985C67.882 20.3438 68.0033 20.3778 68.1171 20.4004C68.2498 20.4268 68.3162 20.44 68.3162 20.44C68.3162 20.44 68.4148 20.4891 68.6121 20.5875C68.8094 20.6858 69.0029 20.8031 69.1927 20.9394C69.4203 21.0832 69.6406 21.3635 69.8534 21.7803C70.07 22.1781 70.2412 22.6064 70.3669 23.065C70.4925 23.5236 70.5309 23.9255 70.4821 24.2706C70.3802 24.684 70.2025 25.0823 69.9489 25.4656C69.6954 25.8489 69.4946 26.0159 69.3467 25.9668C69.1987 25.9177 69.0168 25.9407 68.8008 26.0357C68.6075 26.1156 68.4295 26.3168 68.2669 26.6392C68.1949 26.7038 68.1041 26.8139 67.9943 26.9694C67.8883 27.1061 67.7728 27.2408 67.6479 27.3737C67.6101 27.4647 67.5155 27.6923 67.3643 28.0565C67.2169 28.4017 67.041 28.7906 66.8368 29.2231C66.6553 29.6404 66.489 30.0311 66.3378 30.3953C66.1903 30.7405 66.0958 30.9681 66.0542 31.0781C66.0202 31.1502 65.937 31.3209 65.8046 31.5903C65.676 31.8407 65.5209 32.1252 65.3393 32.4439C65.1766 32.7664 65.0102 33.0586 64.8399 33.3204C64.6547 33.8552 64.4088 34.2992 64.1021 34.6521C63.7917 35.0241 63.4717 35.3449 63.1421 35.6145C62.6118 36.0019 62.1097 36.247 61.6359 36.35C61.1773 36.4757 60.783 36.5254 60.4531 36.4993ZM61.8911 26.4366C61.9178 26.5996 62.0582 26.6866 62.3123 26.6977C62.5853 26.7125 62.9625 26.6988 63.444 26.6565C64.0392 26.5382 64.4827 26.4391 64.7745 26.3591C65.0853 26.2829 65.3373 26.1556 65.5305 25.9772C65.6744 25.8481 65.8088 25.7171 65.9338 25.5842C66.0777 25.4552 66.2084 25.3431 66.3258 25.2482C66.3713 25.2178 66.4413 25.1628 66.536 25.083C66.6497 25.007 66.7425 24.9368 66.8145 24.8722C66.9433 24.819 67.0513 24.7715 67.1385 24.7297C67.2484 24.6727 67.3469 24.6232 67.434 24.5814C67.5364 24.5624 67.6387 24.494 67.7409 24.3763C67.8469 24.2397 67.896 24.0918 67.8882 23.9325C67.8956 23.796 67.8461 23.5989 67.7396 23.3412C67.6369 23.0646 67.466 22.8335 67.2269 22.648C67.0106 22.4473 66.6959 22.4932 66.283 22.7856C65.889 23.0819 65.2715 23.4618 64.4303 23.9254C63.9227 24.2976 63.4681 24.6507 63.0666 24.9849C62.6689 25.3001 62.3659 25.5848 62.1577 25.8391C61.9532 26.0744 61.8644 26.2736 61.8911 26.4366ZM71.0788 31.8697C71.0029 31.8546 70.836 31.7524 70.5779 31.5632C70.3236 31.3549 70.1661 31.2054 70.1053 31.1144C70.0027 30.9364 69.9494 30.7582 69.9454 30.58C69.9452 30.3829 69.9978 30.0188 70.1033 29.4878C70.2239 28.881 70.4829 28.2229 70.8801 27.5134C71.2811 26.7849 71.9037 25.8344 72.7478 24.6617L74.3831 22.5327C74.5043 22.4188 74.6123 22.3219 74.707 22.2422C74.8054 22.1435 74.9115 22.0562 75.0251 21.9802C75.0631 21.9877 75.1105 21.9972 75.1674 22.0085C75.2432 22.0235 75.2982 22.0443 75.3324 22.0708C75.4993 22.1237 75.744 22.2808 76.0666 22.542C76.4082 22.807 76.5792 23.1366 76.5797 23.531C76.5307 23.7775 76.4344 24.0639 76.2907 24.3901C76.1508 24.6974 75.8384 25.0788 75.3537 25.5344C75.1643 25.6939 74.9579 25.9387 74.7346 26.2688C74.5303 26.6027 74.3392 26.9196 74.1614 27.2193C74.1349 27.2535 74.0591 27.337 73.9342 27.4698C73.8319 27.5875 73.7278 27.7147 73.6218 27.8513C73.5196 27.9689 73.4647 28.0467 73.4572 28.0847L73.2925 28.318L74.753 27.3665C75.7759 26.6827 76.6171 26.2191 77.2765 25.9757C77.936 25.7322 78.4591 25.6785 78.846 25.8145C79.2519 25.9543 79.5367 26.2573 79.7003 26.7235C79.7953 26.9395 79.8487 27.1669 79.8603 27.4057C79.8758 27.6256 79.8647 27.8797 79.8271 28.1679C79.7896 28.4561 79.7085 28.8145 79.5839 29.2431L79.2617 30.8644C79.6408 30.8412 79.9309 30.82 80.1318 30.8008C80.3365 30.7626 80.5393 30.7339 80.7402 30.7147C80.8995 30.7069 81.0587 30.6992 81.2179 30.6914C81.3961 30.6874 81.6104 30.7004 81.8607 30.7304C81.7927 30.9732 81.6281 31.2558 81.3669 31.5784C81.1057 31.901 80.797 32.2142 80.441 32.518C80.1039 32.8255 79.7497 33.0705 79.3784 33.2529C79.026 33.4392 78.717 33.5059 78.4516 33.4531C78.205 33.4041 77.9357 33.2718 77.6435 33.056C77.355 32.8213 77.1441 32.4443 77.0108 31.925C76.9839 31.6634 76.9646 31.3639 76.9528 31.0265C76.941 30.689 76.9709 30.3402 77.0425 29.9799L77.2913 28.7283C77.3139 28.6146 77.3195 28.5368 77.308 28.4951C77.3193 28.4383 77.3155 28.4079 77.2965 28.4042C77.2207 28.3891 76.9346 28.5392 76.4383 28.8545C75.961 29.1736 75.4704 29.5097 74.9665 29.863C73.9133 30.5998 73.0495 31.1279 72.375 31.4472C71.7194 31.7703 71.2874 31.9111 71.0788 31.8697Z" fill="#5E8BDC"></path></svg> 