<?xml version="1.0" encoding="UTF-8"?> <svg xmlns="http://www.w3.org/2000/svg" width="102" height="37" viewBox="0 0 102 37" fill="none"><path d="M4.73926 24.4191C4.36756 24.431 3.92755 24.3661 3.41922 24.2245C2.90848 24.102 2.36539 23.9268 1.78994 23.6988C1.49502 23.5644 1.28884 23.4217 1.17138 23.2705C1.07311 23.1218 0.90294 22.8472 0.660866 22.4467C0.505093 22.1349 0.421269 21.7931 0.409395 21.4214C0.416704 21.0522 0.50553 20.732 0.675873 20.4611C0.865399 20.1926 1.13642 20.0512 1.48893 20.0369C1.6472 20.0178 1.82464 20.079 2.02123 20.2205C2.23941 20.3453 2.46357 20.5001 2.69372 20.6848C3.06773 20.9655 3.4705 21.2497 3.90205 21.5376C4.3312 21.8447 4.74121 21.9935 5.13209 21.9841C5.40787 21.9602 5.7292 21.9615 6.09609 21.9879C6.47975 22.036 6.84784 22.0529 7.20035 22.0387C7.57205 22.0268 7.87302 21.9573 8.10327 21.8303C9.20652 21.2671 10.0328 20.8154 10.582 20.475C11.1337 20.1155 11.4095 19.9357 11.4095 19.9357C11.4575 19.8638 11.5318 19.8147 11.6326 19.7883C11.7549 19.7452 11.8964 19.7045 12.0571 19.6661C12.1866 19.5655 12.3917 19.4061 12.6723 19.1879C12.9553 18.9506 13.2276 18.7217 13.489 18.5012C13.7697 18.283 13.9412 18.1584 14.0035 18.1272C14.0635 17.9594 14.1187 17.8299 14.1691 17.7388C14.2219 17.6285 14.2555 17.5158 14.2699 17.4007C14.4426 17.2665 14.6837 16.9752 14.9932 16.5269C15.3243 16.0618 15.6613 15.5487 16.0044 14.9877C16.3499 14.4075 16.6115 13.8752 16.7891 13.3908C17.1707 12.367 17.3772 11.4187 17.4086 10.5458C17.4401 9.67293 17.3168 8.86837 17.0389 8.13209C16.761 7.39582 16.3475 6.73024 15.7986 6.13537C15.6092 5.93627 15.3443 5.71797 15.0038 5.48046C14.6658 5.22377 14.3158 4.98506 13.9537 4.76433C13.5941 4.52442 13.2668 4.33727 12.9719 4.20289C12.6962 4.07091 12.5283 4.01091 12.4684 4.02288C12.3893 4.03245 12.1985 4.31056 11.8962 4.85721C11.6155 5.38708 11.2568 6.0728 10.8201 6.91436C10.4025 7.75833 9.94784 8.66583 9.45595 9.63687C8.98564 10.5911 8.53093 11.4986 8.09183 12.3594C7.95024 12.7118 7.77747 13.0799 7.57352 13.4635C7.38875 13.8495 7.22918 14.19 7.0948 14.4849C6.96282 14.7606 6.89082 14.9465 6.8788 15.0424C6.62692 15.342 6.34381 15.8132 6.02947 16.4557C5.71513 17.0983 5.4031 18.0334 5.09337 19.2611C4.83899 19.8917 4.64578 20.4228 4.51376 20.8544C4.38414 21.2668 4.28216 21.4586 4.20783 21.4298C4.20783 21.4298 4.18742 21.5149 4.1466 21.6852C4.10338 21.8746 4.04939 21.9945 3.98463 22.0448C3.9702 22.1599 3.84549 22.2223 3.61048 22.2318C3.37547 22.2413 3.11292 22.1597 2.82281 21.9869C2.53271 21.8142 2.27741 21.5191 2.05692 21.1018C2.02582 20.8836 2.01632 20.5707 2.02844 20.163C2.06215 19.7386 2.19059 19.2578 2.41377 18.7207C2.55536 18.3683 2.74854 17.9151 2.99331 17.3612C3.23808 16.8074 3.50444 16.2367 3.79238 15.6493C4.08033 15.0619 4.34308 14.52 4.58063 14.0237C4.83737 13.5298 5.01974 13.163 5.12772 12.9232C5.30287 12.6139 5.57163 12.0241 5.934 11.1537C6.14997 10.6742 6.36594 10.1946 6.58191 9.71511C6.81707 9.23798 7.03542 8.8172 7.23696 8.45277C7.44091 8.06915 7.57887 7.8234 7.65085 7.71551C7.77802 7.47815 7.9436 7.08972 8.1476 6.55023C8.37318 5.99397 8.68512 5.37058 9.0834 4.68008L9.40383 3.75575L9.10533 3.57221C8.86552 3.62009 8.67967 3.62603 8.54779 3.59002C8.4375 3.53723 8.36437 3.49884 8.32841 3.47485C8.2085 3.49879 8.05864 3.45078 7.87883 3.33083C7.7206 3.19409 7.57557 3.02978 7.44374 2.8379C7.3311 2.64842 7.2628 2.49373 7.23886 2.37382C7.21011 2.29228 7.19335 2.19276 7.18859 2.07526C7.20542 1.94097 7.21383 1.87383 7.21383 1.87383C7.24744 1.76114 7.42492 1.66647 7.74628 1.58983C8.07004 1.49401 8.47892 1.41861 8.97293 1.36361C9.48612 1.31101 10.0245 1.29079 10.588 1.30296C11.1515 1.31513 11.6707 1.37044 12.1455 1.46891C12.6394 1.56978 13.2389 1.7618 13.9438 2.04499C14.6487 2.32817 15.2481 2.59814 15.742 2.85488C16.327 3.162 16.9396 3.6382 17.5797 4.28346C18.2197 4.92873 18.7794 5.67108 19.2588 6.51053C19.7573 7.35239 20.0496 8.20737 20.1356 9.07547C20.1643 9.31288 20.181 9.64621 20.1857 10.0755C20.1903 10.5047 20.1674 10.9207 20.117 11.3236C20.0881 11.7097 20.0184 11.9542 19.9081 12.0573C19.8601 12.1292 19.8193 12.2216 19.7857 12.3343C19.7737 12.4302 19.8036 12.5021 19.8756 12.5501C19.8492 12.6052 19.7544 12.8174 19.5912 13.1867C19.4304 13.5367 19.2853 13.84 19.1557 14.0966C19.0548 14.5905 18.8484 15.1492 18.5365 15.7726C18.2437 16.3984 17.9258 16.9918 17.5827 17.5528C17.2612 18.0971 16.9841 18.5202 16.7514 18.8223C16.6747 18.8127 16.5955 18.8223 16.514 18.851C16.454 18.863 16.4612 18.8834 16.5356 18.9122C16.5235 19.0081 16.3952 19.1771 16.1505 19.4192C16.0666 19.4672 15.9239 19.5954 15.7224 19.804C15.5424 19.9958 15.3997 20.124 15.2942 20.1887C15.2582 20.3206 15.1862 20.4285 15.0783 20.5124C14.9727 20.5771 14.8816 20.6046 14.8049 20.595C14.8049 20.595 14.7857 20.5926 14.7473 20.5878C14.7281 20.5854 14.7137 20.6226 14.7041 20.6993C14.5218 20.9103 14.2256 21.1752 13.8154 21.494C13.4053 21.8128 12.9459 22.1352 12.4375 22.4611C11.929 22.7871 11.4241 23.0843 10.9228 23.3527C10.4216 23.6211 9.9695 23.808 9.5666 23.9134C9.35794 24.0237 9.14329 24.1039 8.92266 24.1542C8.69962 24.2237 8.48618 24.2944 8.28233 24.3663C8.17679 24.431 7.89022 24.4632 7.42261 24.4631C6.955 24.463 6.45982 24.4496 5.93706 24.4231C5.43349 24.3989 5.03422 24.3976 4.73926 24.4191ZM19.5534 22.5638C19.4959 22.4007 19.3425 22.2256 19.0932 22.0385C18.863 21.8537 18.7528 21.723 18.7624 21.6463C18.772 21.5695 18.7385 21.4484 18.6618 21.2829C18.6067 21.1007 18.5456 20.9664 18.4785 20.88C18.397 20.7529 18.4606 20.4784 18.6694 20.0564C18.8805 19.6152 19.1804 19.0877 19.5691 18.474C19.9578 17.8602 20.3764 17.2404 20.825 16.6147C20.9977 16.4805 21.1764 16.2983 21.3612 16.0681C21.5459 15.838 21.6814 15.6893 21.7678 15.6222C21.7774 15.5455 21.8146 15.482 21.8793 15.4316C21.9465 15.3621 22.0184 15.3321 22.0952 15.3418L22.3831 14.9102C22.4311 14.8383 22.5654 14.6992 22.7861 14.4931C23.0259 14.2893 23.3066 14.0712 23.628 13.8387C23.9518 13.587 24.2732 13.3545 24.5922 13.1412C24.9304 12.9303 25.2026 12.7793 25.4088 12.6882C25.8454 12.4701 26.2734 12.3971 26.693 12.4692C27.1319 12.5437 27.4891 12.7248 27.7648 13.0127C27.8151 13.0774 27.9254 13.2082 28.0956 13.4048C28.285 13.6039 28.4911 13.8246 28.7141 14.0669C28.9562 14.3116 29.1623 14.5322 29.3325 14.7289L30.2782 15.8119L29.6087 17.1894C29.2632 17.9254 29.1119 18.5885 29.1549 19.1784C29.1979 19.7683 29.3176 20.2899 29.5141 20.7432C29.5836 20.9662 29.6878 21.1449 29.8269 21.2792C29.9851 21.416 30.1961 21.5203 30.4599 21.5924C30.6109 21.6308 30.7476 21.7064 30.8699 21.8191C30.9921 21.9319 31.04 22.0937 31.0136 22.3048C30.9559 22.7652 30.8275 23.09 30.6284 23.2794C30.4509 23.452 30.2638 23.5455 30.0672 23.5598C29.4245 23.5572 28.8287 23.4143 28.2796 23.1312C27.7305 22.8481 27.2811 22.2364 26.9313 21.2963C26.869 21.1716 26.7899 20.9474 26.6941 20.6236C26.6199 20.2831 26.5792 20.0636 26.572 19.9653C26.4833 20.0516 26.3621 20.1631 26.2086 20.2997C26.0767 20.4196 25.946 20.5298 25.8164 20.6305C24.2813 21.841 22.9982 22.596 21.9669 22.8954C20.9573 23.1781 20.1528 23.0675 19.5534 22.5638ZM21.4354 20.3738C21.5672 20.4098 21.7867 20.3691 22.0936 20.2517C22.403 20.1151 22.8216 19.885 23.3492 19.5614C24.0712 19.0869 24.666 18.6938 25.1337 18.3822C25.6014 18.0706 26.0727 17.6523 26.5477 17.1273L27.3106 16.1707C27.174 15.7054 27.0374 15.3961 26.9008 15.2425C26.7642 15.089 26.6191 15.0027 26.4656 14.9834C26.2163 14.9522 25.8985 15.078 25.5123 15.3608C25.1286 15.6245 24.6776 16.0356 24.1595 16.5942C23.6629 17.136 23.0896 17.824 22.4395 18.6583C22.1372 19.0491 21.8937 19.4375 21.7089 19.8235C21.5265 20.1904 21.4354 20.3738 21.4354 20.3738ZM33.6685 24.9756C33.4623 24.9108 33.2477 24.7572 33.0247 24.515C32.8042 24.2535 32.6053 23.9753 32.4279 23.6803C32.2721 23.3685 32.1775 23.1131 32.144 22.914C32.1488 22.8757 32.126 22.8241 32.0757 22.7593C32.0445 22.697 32.0289 22.6658 32.0289 22.6658C31.9594 22.5986 31.9427 22.3433 31.9788 21.8996C32.0365 21.4392 32.129 20.9345 32.2563 20.3854C32.3835 19.8363 32.506 19.4035 32.6236 19.087C32.758 18.7921 32.9535 18.3976 33.2103 17.9037C33.4694 17.3906 33.6926 16.9315 33.8797 16.5263L34.8658 14.9547L33.7545 14.4939C33.625 14.4388 33.5195 14.3476 33.438 14.2205C33.3757 14.0958 33.3494 13.995 33.359 13.9183C33.3782 13.7648 33.4922 13.555 33.7009 13.2889C33.9096 13.0228 34.0523 12.8946 34.129 12.9042C34.2226 12.9354 34.394 12.9666 34.6434 12.9979C34.912 13.0315 35.1721 13.0544 35.4239 13.0665C35.6757 13.0785 35.8316 13.0786 35.8915 13.0666C35.9731 13.0379 36.0558 12.9995 36.1398 12.9516C36.2261 12.8845 36.2969 12.7862 36.3521 12.6567C36.4744 12.4577 36.5812 12.3054 36.6724 12.2C36.7635 12.0945 36.8907 11.9351 37.0538 11.7217C37.2193 11.4891 37.3513 11.2913 37.4496 11.1283C37.5672 10.9677 37.7411 10.7459 37.9714 10.463C38.0842 10.3408 38.2101 10.1909 38.3492 10.0135C38.4884 9.8361 38.6527 9.69107 38.8422 9.57842C39.034 9.44659 39.3254 9.37594 39.7163 9.36647C40.1288 9.34022 40.4632 9.46982 40.7197 9.75526C40.8492 9.96633 40.9127 10.1594 40.9102 10.3344C40.9078 10.5095 40.8034 10.7205 40.5971 10.9674C40.4027 11.2743 40.1832 11.5488 39.9386 11.7909C39.7155 12.0163 39.4972 12.2812 39.2837 12.5857C38.9238 12.9692 38.8362 13.2018 39.0209 13.2834C39.2055 13.365 39.7474 13.3939 40.6467 13.3702C41.215 13.344 41.6107 13.4521 41.8336 13.6943C42.0565 13.9366 42.1667 14.2232 42.1642 14.5541C42.1641 15.0217 42.0813 15.2939 41.9158 15.3706C41.7503 15.4472 41.3031 15.4399 40.5741 15.3486C40.1041 15.3676 39.7048 15.3663 39.3763 15.3446C39.0502 15.3037 38.8104 15.2737 38.6569 15.2544C38.4052 15.2424 38.2409 15.2315 38.1642 15.2219C38.0874 15.2123 37.9699 15.2171 37.8117 15.2362C37.6534 15.2553 37.5299 15.308 37.4411 15.3943C37.3739 15.4639 37.2924 15.5706 37.1964 15.7144C37.1101 15.7815 36.9697 15.9685 36.7754 16.2754C36.5811 16.5823 36.3448 16.9131 36.0665 17.268C35.6969 18.04 35.3694 18.7881 35.0838 19.5122C34.8198 20.2195 34.575 20.9292 34.3493 21.6414C34.2461 21.9987 34.222 22.2684 34.2771 22.4507C34.3538 22.6162 34.5912 22.7433 34.9892 22.8322C35.1978 22.8778 35.5048 22.9163 35.91 22.9476C36.3177 22.9597 36.6606 22.9442 36.9388 22.9011C37.1618 22.8317 37.3945 22.7634 37.6367 22.6963C37.8813 22.6101 38.1067 22.5214 38.313 22.4304C38.4977 22.3561 38.6823 22.2818 38.867 22.2075C39.0541 22.1141 39.1476 22.0673 39.1476 22.0673C39.2628 21.9259 39.3934 21.9715 39.5396 22.2041C39.7074 22.42 39.8153 22.6479 39.8632 22.8877C39.8343 23.1179 39.7515 23.39 39.6147 23.7041C39.4803 23.999 39.0846 24.2807 38.4274 24.549C37.4969 24.978 36.5928 25.1959 35.7151 25.2028C34.8374 25.2098 34.1552 25.134 33.6685 24.9756ZM41.9214 25.3668C41.8639 25.2038 41.7105 25.0287 41.4612 24.8415C41.231 24.6568 41.1208 24.5261 41.1304 24.4494C41.14 24.3726 41.1065 24.2515 41.0298 24.086C40.9747 23.9038 40.9136 23.7695 40.8465 23.6831C40.765 23.556 40.8286 23.2814 41.0374 22.8595C41.2485 22.4183 41.5484 21.8908 41.9371 21.2771C42.3258 20.6633 42.7444 20.0435 43.193 19.4178C43.3657 19.2836 43.5445 19.1014 43.7292 18.8712C43.9139 18.6411 44.0494 18.4924 44.1358 18.4253C44.1454 18.3486 44.1826 18.285 44.2473 18.2347C44.3145 18.1652 44.3865 18.1352 44.4632 18.1448L44.7511 17.7133C44.7991 17.6414 44.9334 17.5023 45.1541 17.2962C45.3939 17.0924 45.6746 16.8743 45.996 16.6418C46.3198 16.3901 46.6412 16.1576 46.9602 15.9443C47.2984 15.7333 47.5706 15.5823 47.7769 15.4913C48.2134 15.2732 48.6414 15.2002 49.0611 15.2723C49.4999 15.3467 49.8571 15.5279 50.1328 15.8158C50.1831 15.8805 50.2934 16.0112 50.4636 16.2079C50.653 16.407 50.8591 16.6277 51.0821 16.87C51.3242 17.1146 51.5304 17.3353 51.7006 17.532L52.6462 18.615L51.9768 19.9925C51.6312 20.7285 51.4799 21.3915 51.5229 21.9815C51.5659 22.5714 51.6856 23.093 51.8821 23.5463C51.9516 23.7693 52.0559 23.948 52.1949 24.0823C52.3531 24.2191 52.5641 24.3234 52.8279 24.3955C52.9789 24.4339 53.1156 24.5095 53.2379 24.6222C53.3601 24.7349 53.408 24.8968 53.3816 25.1078C53.3239 25.5682 53.1955 25.8931 52.9964 26.0825C52.8189 26.2551 52.6318 26.3486 52.4352 26.3629C51.7925 26.3603 51.1967 26.2174 50.6476 25.9343C50.0986 25.6512 49.6491 25.0395 49.2993 24.0994C49.237 23.9747 49.1579 23.7504 49.0621 23.4267C48.9879 23.0861 48.9472 22.8667 48.94 22.7684C48.8513 22.8547 48.7301 22.9662 48.5766 23.1028C48.4447 23.2227 48.314 23.3329 48.1844 23.4336C46.6493 24.6441 45.3662 25.3991 44.3349 25.6985C43.3253 25.9812 42.5208 25.8706 41.9214 25.3668ZM43.8034 23.1769C43.9352 23.2129 44.1547 23.1722 44.4617 23.0548C44.771 22.9182 45.1896 22.6881 45.7172 22.3645C46.4392 21.8899 47.034 21.4969 47.5017 21.1853C47.9694 20.8737 48.4408 20.4554 48.9157 19.9304L49.6786 18.9738C49.542 18.5085 49.4055 18.1991 49.2688 18.0456C49.1322 17.8921 48.9871 17.8057 48.8337 17.7865C48.5843 17.7553 48.2665 17.8811 47.8803 18.1639C47.4966 18.4276 47.0456 18.8387 46.5275 19.3972C46.0309 19.939 45.4576 20.6271 44.8075 21.4614C44.5052 21.8522 44.2617 22.2406 44.0769 22.6266C43.8945 22.9934 43.8034 23.1769 43.8034 23.1769ZM56.4819 29.5881C55.7387 29.3001 55.1657 28.8191 54.763 28.1452C54.3771 27.4928 54.0932 26.7266 53.9112 25.8464C53.9233 25.5946 53.957 25.2481 54.0123 24.8069C54.0868 24.3681 54.1672 23.9593 54.2537 23.5804C54.3401 23.2016 54.4061 22.9858 54.4517 22.933C54.5141 22.9019 54.5573 22.7904 54.5813 22.5985C54.5717 22.5194 54.597 22.3959 54.657 22.2281C54.7385 22.0435 54.8201 21.8588 54.9017 21.6742C55.0265 21.456 55.0973 21.2798 55.1141 21.1455C55.1333 20.992 55.1382 20.8757 55.1286 20.7966C55.1286 20.7966 55.1646 20.7427 55.2366 20.6348C55.311 20.5077 55.3913 20.4106 55.4777 20.3435C55.6072 20.2428 55.6696 20.1337 55.6648 20.0162C55.6792 19.9011 55.6864 19.8436 55.6864 19.8436C55.6769 19.7644 55.7093 19.6613 55.7837 19.5343C55.858 19.4072 55.9288 19.3089 55.996 19.2394C56.0392 19.2058 56.0967 19.1351 56.1687 19.0272C56.2623 18.9025 56.309 18.8402 56.309 18.8402C56.3163 18.7827 56.3739 18.634 56.4818 18.3942C56.609 18.1569 56.7482 17.9015 56.8993 17.6282C57.0529 17.3357 57.1933 17.0708 57.3204 16.8334C57.4668 16.5984 57.5735 16.4462 57.6407 16.3767L57.6479 16.3191C57.7487 16.1369 57.8794 15.9487 58.0402 15.7545C58.0714 15.661 58.1386 15.5135 58.2417 15.3121C58.3473 15.0916 58.4613 14.8818 58.5836 14.6828C58.8524 14.2488 59.1762 13.7633 59.5553 13.2263C59.9559 12.6725 60.3746 12.1307 60.8112 11.6008C61.2502 11.0518 61.6616 10.5676 62.0454 10.148C62.4508 9.71172 62.7926 9.39409 63.0708 9.19514C63.4426 8.87153 63.8012 8.65342 64.1465 8.54082C64.5135 8.41144 64.8228 8.50866 65.0745 8.83247C65.1919 8.98358 65.2818 9.19943 65.344 9.48001C65.4087 9.74142 65.417 9.98602 65.369 10.2138C65.3426 10.4248 65.2514 10.5303 65.0955 10.5303C64.9516 10.5902 64.7417 10.7879 64.4659 11.1236C64.1924 11.44 63.8817 11.82 63.5339 12.2635C63.2052 12.7095 62.8741 13.1746 62.5407 13.6589C62.2096 14.124 61.9037 14.5435 61.623 14.9175C61.3039 15.4426 61.0124 15.9029 60.7485 16.2985C60.487 16.6749 60.3563 16.8631 60.3563 16.8631C60.3299 16.9183 60.3047 16.9638 60.2807 16.9998C60.2567 17.0357 60.2327 17.0717 60.2087 17.1077C59.8465 17.6663 59.5382 18.183 59.2838 18.6577C59.0319 19.1132 58.7764 19.5975 58.5172 20.1106C58.3853 20.2305 58.3013 20.3564 58.2653 20.4882C58.2293 20.6201 58.2113 20.6861 58.2113 20.6861C58.1753 20.6621 58.1405 20.7064 58.1069 20.8191C58.0757 20.9126 58.0229 21.0229 57.9486 21.15C57.843 21.2147 57.7698 21.3322 57.729 21.5024C57.6906 21.6535 57.6618 21.8058 57.6426 21.9592C57.465 22.2877 57.2874 22.6941 57.1098 23.1784C56.9346 23.6436 56.7894 24.1028 56.6742 24.556C56.5805 24.9924 56.5276 25.3365 56.5156 25.5883C56.5131 25.9192 56.5645 26.2082 56.67 26.4552C56.797 26.6854 56.9864 26.8845 57.2381 27.0525C57.4371 27.1748 57.6181 27.2852 57.7811 27.3836C57.9466 27.4627 58.0964 27.5108 58.2307 27.5276C58.3818 27.566 58.5736 27.59 58.8062 27.5997C59.0604 27.5926 59.4033 27.5771 59.835 27.5533L59.8062 27.5497C60.0604 27.5425 60.3254 27.527 60.6012 27.5031C60.8985 27.4625 61.1755 27.429 61.4321 27.4027C61.6671 27.3932 61.8925 27.3824 62.1084 27.3705C62.3266 27.3394 62.4956 27.3119 62.6156 27.2879C63.052 27.2257 63.3997 27.1719 63.6587 27.1264C63.9369 27.0833 64.1192 27.1062 64.2055 27.1949C64.2918 27.2837 64.3792 27.4408 64.4679 27.6662C64.5566 27.8916 64.5613 28.0871 64.4821 28.2525C64.4317 28.3436 64.2158 28.5114 63.8345 28.7559C63.4507 29.0196 63.0202 29.2676 62.5429 29.5001C62.0632 29.7517 61.634 29.9123 61.255 29.9817C60.8497 30.1063 60.3174 30.1564 59.6579 30.1323C59.0153 30.1297 58.399 30.0719 57.8091 29.959C57.2192 29.8461 56.7769 29.7225 56.4819 29.5881ZM69.0903 29.9114C68.0352 29.7792 67.2583 29.3701 66.7598 28.6841C66.2804 28.0005 66.12 27.0257 66.2787 25.7596C66.3652 25.069 66.5849 24.3269 66.9376 23.5332C67.3096 22.742 67.7558 21.9796 68.2764 21.246C68.8162 20.5147 69.3811 19.8938 69.9712 19.3832C70.5637 18.8535 71.1333 18.5059 71.6801 18.3406C71.884 18.2688 72.0938 18.2269 72.3096 18.2149C72.547 18.1862 72.7712 18.1851 72.9823 18.2115C73.2125 18.2404 73.4594 18.2908 73.7232 18.3629C74.0085 18.4181 74.2699 18.5093 74.5073 18.6365C74.9317 18.826 75.2829 19.1331 75.5609 19.5576C75.8581 19.9846 75.9611 20.5625 75.8697 21.2915C75.8457 21.4833 75.8 21.6919 75.7328 21.9173C75.668 22.1235 75.5744 22.3261 75.4521 22.5251C75.1233 23.1269 74.664 23.6831 74.0739 24.1937C73.503 24.7067 72.925 25.0434 72.3398 25.2039C72.1767 25.2614 72.0161 25.2997 71.8578 25.3189C71.7211 25.3212 71.576 25.3128 71.4226 25.2936C71.0197 25.2431 70.6624 25.1399 70.3507 24.9839C70.0582 24.8303 69.7897 24.6408 69.5452 24.4153L69.3402 24.185L69.1603 24.4548C68.9803 24.8024 68.846 25.0973 68.7572 25.3395C68.6875 25.5841 68.6455 25.7639 68.6311 25.879C68.6022 26.1092 68.5818 26.3502 68.5697 26.602C68.5601 26.8346 68.5936 27.0336 68.6702 27.1991C68.735 27.3047 68.8213 27.3934 68.9291 27.4654C69.0562 27.5398 69.2157 27.589 69.4075 27.613C69.5226 27.6274 69.6281 27.6407 69.724 27.6527C69.8415 27.6479 69.9399 27.6408 70.019 27.6312C70.3739 27.5977 70.6677 27.5079 70.9003 27.3617C71.1546 27.1987 71.4148 27.0657 71.681 26.9627L71.8033 26.9195L71.7854 26.8296C72.1331 26.6978 72.367 26.62 72.4869 26.596C72.6092 26.5529 72.7015 26.5157 72.7639 26.4846C72.8502 26.4175 72.9413 26.3899 73.0373 26.4019C73.3106 26.3972 73.56 26.5064 73.7853 26.7295C74.0323 26.9358 74.1389 27.1733 74.1052 27.4418C74.0908 27.5569 73.9817 27.7283 73.7778 27.9561C73.593 28.1862 73.3604 28.4104 73.0797 28.6285C72.8207 28.8299 72.5581 28.9821 72.2918 29.0851C72.2319 29.0971 72.1707 29.1186 72.1084 29.1498C72.0484 29.1617 71.9873 29.1833 71.9249 29.2145L71.9537 29.2181C71.7522 29.4266 71.5651 29.5201 71.3925 29.4985L71.1623 29.4696C71.0687 29.5943 70.8013 29.7069 70.36 29.8075C69.9164 29.9272 69.4931 29.9619 69.0903 29.9114ZM71.4556 23.1641C71.6282 23.1858 71.7853 23.1762 71.9268 23.1355C72.0875 23.0972 72.2398 23.0481 72.3837 22.9882C72.8849 22.7198 73.2352 22.335 73.4344 21.8339C73.6335 21.3328 73.6349 20.9335 73.4383 20.6361C73.4072 20.5737 73.364 20.5293 73.3089 20.5029C73.2561 20.4574 73.1914 20.4298 73.1147 20.4201C72.9036 20.3937 72.6554 20.4308 72.37 20.5314C72.1038 20.6345 71.8304 20.795 71.5498 21.0132C71.2691 21.2313 71.0017 21.4998 70.7474 21.8186L70.2976 22.376C70.3384 22.3617 70.3683 22.3557 70.3875 22.3581C70.4283 22.3437 70.4583 22.3377 70.4775 22.3401C70.6501 22.3618 70.758 22.4337 70.8011 22.556C70.8442 22.6784 70.897 22.8019 70.9593 22.9266C71.0408 23.0537 71.2062 23.1329 71.4556 23.1641ZM85.0529 31.2688C84.7651 31.2327 84.4978 31.1115 84.2509 30.9052C84.0064 30.6798 83.8182 30.3931 83.6864 30.0454C83.557 29.6784 83.5212 29.2648 83.5789 28.8044C83.615 28.5166 83.7134 28.1198 83.8742 27.6139C84.0566 27.0912 84.3038 26.4402 84.6158 25.6609C84.6878 25.3972 84.7382 25.2281 84.767 25.1538C84.815 25.0819 84.8438 25.0075 84.8534 24.9308C84.8582 24.8924 84.8523 24.8625 84.8355 24.8409C84.8403 24.8025 84.8235 24.7809 84.7851 24.7761C84.6317 24.7569 84.4074 24.8359 84.1124 25.0133C83.839 25.1739 83.5224 25.368 83.1626 25.5957C83.1003 25.6269 83.0271 25.6664 82.9432 25.7144C82.8784 25.7647 82.8041 25.8138 82.7201 25.8618C82.6554 25.9121 82.581 25.9612 82.4971 26.0092C82.2908 26.1002 81.9658 26.2836 81.5221 26.5592C81.0976 26.8372 80.6514 27.1321 80.1837 27.4437C79.7352 27.7577 79.3419 28.0201 79.0037 28.231C78.8358 28.3269 78.6895 28.406 78.5648 28.4683C78.4592 28.533 78.3873 28.563 78.3489 28.5582C78.3106 28.5533 78.1631 28.4862 77.9065 28.3566C77.6716 28.2102 77.4414 28.0255 77.2161 27.8024C77.0123 27.5626 76.9273 27.3084 76.9609 27.0398C76.9826 26.8671 77.093 26.5303 77.2922 26.0291C77.5106 25.5304 77.7985 24.943 78.156 24.2669C78.5135 23.5907 78.9106 22.9098 79.3473 22.2241C79.4456 22.0611 79.532 21.8381 79.6065 21.5552C79.6809 21.2722 79.7541 20.9989 79.8261 20.7351C79.9197 20.4546 80.0421 20.2556 80.1932 20.1381C80.2628 20.0494 80.3383 19.9907 80.4199 19.962C80.523 19.9164 80.6225 19.8997 80.7184 19.9117C80.9103 19.9357 81.0865 20.0065 81.2471 20.1241C81.4102 20.2224 81.5564 20.3772 81.6858 20.5882C81.9351 20.9312 82.0429 21.3149 82.0092 21.7394C81.9971 22.147 81.919 22.5367 81.775 22.9083C81.631 23.28 81.4859 23.5833 81.3395 23.8182C81.1956 24.034 81.126 24.1227 81.1308 24.0843C81.2123 24.0556 81.3299 23.9729 81.4834 23.8363C81.6561 23.702 81.9379 23.5522 82.3288 23.3869C82.8757 23.0657 83.293 22.8453 83.5808 22.7254C83.871 22.5864 84.088 22.487 84.2319 22.4271C84.395 22.3696 84.5401 22.3001 84.6672 22.2186C84.7728 22.1539 84.8459 22.1143 84.8867 22.1C84.9466 22.088 84.9766 22.082 84.9766 22.082C85.0342 22.0892 85.1349 22.0629 85.2788 22.003C85.4419 21.9455 85.5906 21.9251 85.7248 21.942C85.9167 21.966 86.1121 22.0392 86.3111 22.1616C86.5125 22.2647 86.6803 22.4027 86.8145 22.5754C86.9512 22.7289 87.0099 22.8824 86.9907 23.0358C86.9834 23.0934 86.9966 23.1438 87.0302 23.1869C87.0637 23.2301 87.0961 23.2829 87.1272 23.3452C87.2087 23.4724 87.2938 23.6486 87.3825 23.8741C87.4927 24.0827 87.5202 24.4077 87.4649 24.8489C87.4264 25.1558 87.3028 25.5982 87.094 26.1761C86.8852 26.7539 86.668 27.321 86.4424 27.8772C86.2144 28.4527 86.0776 28.9227 86.0319 29.2871C86.0078 29.6348 86.0125 29.9082 86.046 30.1073C86.0819 30.2871 86.0927 30.4346 86.0783 30.5497C86.059 30.7032 85.9595 30.8758 85.7796 31.0676C85.602 31.2402 85.3598 31.3073 85.0529 31.2688ZM91.89 32.4471C90.8733 32.3197 90.166 31.8998 89.7681 31.1875C89.6723 30.8637 89.6437 30.5484 89.6821 30.2414C89.7422 29.9177 89.8477 29.6971 89.9989 29.5797C90.1524 29.443 90.3118 29.4923 90.4772 29.7273C90.7074 29.912 91.0526 30.0332 91.513 30.0909C91.7432 30.1198 91.9447 30.145 92.1173 30.1667C92.3115 30.1715 92.5346 30.18 92.7863 30.192C93.2324 30.209 93.5274 30.1095 93.6713 29.8938C93.8344 29.6804 93.8297 29.485 93.6571 29.3075L93.6859 29.3111C93.1848 29.1119 92.7004 28.8563 92.2329 28.5444C91.7654 28.2326 91.3782 27.9015 91.0714 27.5513C90.767 27.1819 90.604 26.8497 90.5825 26.5548C90.5084 25.9025 90.6285 25.2551 90.9428 24.6125C91.2572 23.9699 91.6662 23.4269 92.1699 22.9835C92.357 22.89 92.6172 22.757 92.9506 22.5844C93.2864 22.3927 93.5226 22.2956 93.6593 22.2933L93.6557 22.3221C94.0682 21.9841 94.5191 21.7288 95.0084 21.5563C95.5 21.3646 96.066 21.2017 96.7063 21.0677L97.1739 21.0678C97.409 21.0583 97.6128 21.0643 97.7854 21.086C97.7662 21.0836 97.8118 21.1088 97.9221 21.1616C98.0324 21.2144 98.1247 21.2551 98.199 21.2839C98.3069 21.3559 98.4184 21.3991 98.5335 21.4135C98.7973 21.4856 99.0382 21.6619 99.2563 21.9425C99.4961 22.2064 99.6722 22.511 99.7848 22.8563C99.919 23.1849 99.9501 23.4811 99.8781 23.7448C99.7652 24.1788 99.5469 24.5996 99.223 25.0072C98.9016 25.3955 98.5838 25.5993 98.2696 25.6184C98.3104 25.604 98.2768 25.5608 98.1689 25.4888C98.061 25.4169 97.9628 25.3461 97.874 25.2765L97.7517 25.3196C97.7517 25.3196 97.7458 25.2897 97.7338 25.2297C97.741 25.1722 97.7302 25.1026 97.7015 25.0211C97.6416 24.8772 97.602 24.7261 97.5829 24.5678C97.583 24.412 97.6046 24.2393 97.6478 24.0499C97.7126 23.8437 97.7378 23.7202 97.7235 23.6794C97.7091 23.6386 97.5976 23.5954 97.389 23.5498C97.1468 23.461 96.8267 23.4501 96.4286 23.5171C96.0329 23.565 95.6564 23.6931 95.299 23.9017C94.8841 24.103 94.5711 24.2683 94.36 24.3978C94.1682 24.5296 94.0146 24.6662 93.8995 24.8077C93.7868 24.9299 93.656 25.1181 93.5073 25.3723C93.4137 25.4969 93.3309 25.6132 93.2589 25.7211C93.1894 25.8098 93.1486 25.9021 93.1366 25.998C93.1125 26.1899 93.2503 26.4117 93.55 26.6636C93.8521 26.8963 94.3124 27.1878 94.931 27.5381C95.4225 27.814 95.7221 28.1439 95.8299 28.5276C95.9569 28.9137 96.0671 29.2782 96.1605 29.6212C96.1893 29.7027 96.2096 29.8514 96.2215 30.0672C96.255 30.2663 96.2502 30.3826 96.207 30.4161C96.2406 30.4593 96.255 30.5001 96.2502 30.5384L96.2538 30.5097C96.3712 30.8166 96.3039 31.12 96.052 31.4196C95.8217 31.7025 95.4788 31.9518 95.0231 32.1675C94.5698 32.364 94.0674 32.4861 93.5158 32.5339L93.5446 32.5375C93.252 32.5398 92.9607 32.5326 92.6705 32.5157C92.3995 32.5012 92.1394 32.4783 91.89 32.4471Z" fill="#5E8BDC"></path></svg> 