<?xml version="1.0" encoding="UTF-8"?> <svg xmlns="http://www.w3.org/2000/svg" width="87" height="38" viewBox="0 0 87 38" fill="none"><path d="M5.96497 37.0489C5.37387 37.1552 4.73869 37.0832 4.05944 36.8329C3.38482 36.6014 2.76177 36.377 2.19028 36.1598C1.79234 35.9196 1.46483 35.6421 1.20776 35.3273C0.946054 34.9937 0.684655 34.5405 0.423565 33.9677C0.260335 33.6297 0.144334 33.1605 0.0755745 32.5601C0.00681449 31.9597 -0.0150256 31.3478 0.0100544 30.7242C0.0304844 30.0818 0.0740247 29.5732 0.140655 29.1983C0.235955 28.6171 0.378285 27.9844 0.567635 27.3003C0.771115 26.5928 0.974495 25.9251 1.17777 25.2973C1.39517 24.6461 1.56533 24.1261 1.68827 23.7372C1.78717 23.5734 1.82723 23.4938 1.80846 23.4984C1.80382 23.4796 1.8015 23.4703 1.8015 23.4703C1.7783 23.3764 1.81415 23.1186 1.90903 22.6968C2.01805 22.2517 2.11051 21.8604 2.18642 21.523C2.3937 21.1531 2.49292 20.8696 2.48405 20.6727C2.47519 20.4757 2.40992 20.3325 2.28824 20.2431C2.23214 20.1773 2.26778 19.9992 2.39514 19.7089C2.54128 19.4138 2.75552 19.0721 3.03788 18.6836C3.3156 18.2764 3.64014 17.8975 4.01149 17.5468C4.37377 17.0788 4.75905 16.7844 5.16731 16.6636C5.5897 16.5193 5.86395 16.5411 5.99006 16.729C6.00398 16.7853 6.11186 16.7786 6.31366 16.7088C6.52956 16.6155 6.77136 16.506 7.03896 16.3801C7.32066 16.2308 7.56956 16.1095 7.78546 16.0163C7.85146 15.8805 8.04646 15.7427 8.37037 15.6028C8.70837 15.4396 9.10506 15.2718 9.56036 15.0995C9.80896 15.058 10.0835 15.0001 10.3838 14.9259C10.6794 14.8329 10.9375 14.7491 11.1581 14.6747C11.3975 14.5956 11.5171 14.5561 11.5171 14.5561C11.6392 14.486 11.8478 14.5241 12.1428 14.6702C12.452 14.793 12.7234 15.0047 12.9571 15.3054C13.1719 15.6107 13.1313 15.9295 12.835 16.2616C12.5387 16.5938 12.0174 16.9019 11.2711 17.186C10.7266 17.4002 10.3018 17.575 9.99667 17.7101C9.70557 17.8219 9.39107 17.9594 9.05307 18.1226C8.72917 18.2625 8.25726 18.4887 7.63756 18.8012C7.19156 19.011 6.81596 19.1835 6.51076 19.3187C6.20566 19.4539 5.95197 19.6361 5.74974 19.8653C5.56628 20.0899 5.38714 20.4529 5.21234 20.9541C5.10416 21.0805 4.99556 21.3662 4.88655 21.8114C4.77753 22.2566 4.66852 22.7017 4.55951 23.1469C4.21495 24.0088 3.95537 24.6505 3.78077 25.0721C3.6203 25.4702 3.5892 25.7069 3.68747 25.7822C3.68747 25.7822 3.82581 25.7779 4.10249 25.7692C4.37916 25.7606 4.55504 25.747 4.63011 25.7284C4.7946 25.5882 5.00358 25.4668 5.25705 25.3643C5.5293 25.2572 5.74524 25.164 5.90487 25.0847C6.99426 24.4967 7.79486 24.0697 8.30666 23.8038C8.83256 23.5145 9.20127 23.3138 9.41257 23.2018C9.64256 23.0852 9.84916 22.9943 10.0322 22.9291C10.2439 22.6577 10.5113 22.6115 10.8344 22.7906C11.1716 22.9462 11.436 23.1696 11.6274 23.4608C11.8516 23.8037 11.9235 24.0946 11.8432 24.3336C11.7629 24.5725 11.5137 24.8133 11.0958 25.0561C10.6966 25.2941 10.1166 25.6068 9.35596 25.994C8.59066 26.3624 7.63986 26.8663 6.50346 27.5058C5.5454 28.0613 4.75429 28.446 4.13008 28.6601C3.50588 28.8741 3.16615 28.7889 3.11089 28.4042C2.96095 28.3616 2.82936 28.4738 2.71613 28.7408C2.61702 28.9844 2.54818 29.3101 2.50959 29.7179C2.47101 30.1258 2.44878 30.5594 2.44288 31.0189C2.45576 31.4738 2.49921 31.8913 2.57324 32.2713C2.64727 32.6513 2.74734 32.9352 2.87345 33.1231C3.13032 33.5177 3.45772 33.835 3.85566 34.0752C4.26772 34.292 4.81602 34.4153 5.50054 34.4453C5.88055 34.3712 6.25346 34.3089 6.61936 34.2583C6.98526 34.2077 7.37016 34.0328 7.77426 33.7338C8.83517 33.2724 9.55596 32.8851 9.93656 32.5719C10.3173 32.2587 10.5452 32.053 10.6205 31.9547C10.7521 31.8425 10.8274 31.7443 10.8463 31.6599C10.8841 31.5709 10.9499 31.5148 11.0437 31.4916C11.0106 31.5994 11.0294 31.5947 11.1 31.4777C11.1707 31.3607 11.2883 31.1922 11.453 30.9722C11.7637 30.5369 12.1067 30.2331 12.4823 30.0605C12.8579 29.888 13.1863 29.8068 13.4677 29.8169C13.7443 29.8083 13.9037 29.8486 13.9456 29.9378C14.1046 30.0976 14.1226 30.4118 13.9994 30.8804C13.8716 31.3302 13.6288 31.8383 13.271 32.4048C12.9319 32.9666 12.4968 33.5023 11.9656 34.012C11.1008 34.7835 10.1121 35.4162 8.99946 35.9104C7.89147 36.4233 6.87996 36.8028 5.96497 37.0489ZM18.0778 33.2179C17.7444 33.3999 17.3998 33.3756 17.0441 33.1449C16.693 32.933 16.3915 32.5594 16.1397 32.0242C15.8879 31.489 15.7512 30.8556 15.7297 30.1241C15.7678 29.8756 15.7896 29.6412 15.7948 29.4209C15.7955 29.1817 15.7795 28.9965 15.747 28.8651C15.7382 28.6681 15.746 28.3774 15.7704 27.993C15.7902 27.5898 15.8171 27.1749 15.8511 26.7483C15.885 26.3217 15.9212 25.9443 15.9595 25.6161C16.012 25.2646 16.0478 25.0467 16.0667 24.9623C16.1418 24.9437 16.1913 24.8618 16.2151 24.7165C16.2389 24.5712 16.2346 24.4329 16.2021 24.3015C16.165 24.1514 16.1514 23.9755 16.1613 23.7739C16.19 23.5676 16.2326 23.4177 16.2891 23.3241C16.2659 23.2302 16.2591 23.1224 16.2688 23.0005C16.2926 22.8552 16.2953 22.745 16.2767 22.6699C16.2582 22.5948 16.2584 22.5151 16.2773 22.4308C16.3151 22.3418 16.3247 22.2598 16.3061 22.1847C16.3772 21.9082 16.451 21.4817 16.5275 20.9051C16.6182 20.3052 16.7043 19.6466 16.7859 18.9294C16.8863 18.2075 16.9702 17.4997 17.0376 16.8059C17.1051 16.1121 17.1512 15.5331 17.1758 15.069C17.2146 14.5814 17.2224 14.2907 17.1992 14.1969C17.1621 14.0467 17.1836 13.8921 17.2637 13.7329C17.3439 13.5736 17.459 13.4755 17.6091 13.4383C17.6515 13.3681 17.7736 13.2981 17.9754 13.2283C18.1726 13.1397 18.3087 13.0862 18.3838 13.0676C18.3838 13.0676 18.4306 13.0959 18.5243 13.1524C18.6179 13.2089 18.7583 13.2937 18.9456 13.4067C19.1282 13.5009 19.3061 13.6163 19.4793 13.7527C19.6712 13.8845 19.7949 14.063 19.8506 14.2882C19.9109 14.5322 19.9314 14.7761 19.912 15.0199C19.9114 15.259 19.8753 15.5966 19.8039 16.0324C19.7277 16.4496 19.6042 17.0776 19.4332 17.9165C19.3758 18.329 19.3045 18.725 19.2191 19.1046C19.129 19.4654 19.0933 19.6833 19.1118 19.7584C19.1304 19.8335 19.1207 19.9554 19.0827 20.1241C19.0636 20.2882 19.0443 20.4921 19.0249 20.7359C18.9869 20.9046 18.9394 21.1553 18.8822 21.4881C18.8205 21.8021 18.7563 22.1465 18.6896 22.5215C18.6371 22.873 18.5941 23.1824 18.5606 23.4496C18.5224 23.698 18.508 23.841 18.5173 23.8785C18.5358 23.9536 18.545 24.031 18.5448 24.1107C18.5633 24.1858 18.5444 24.2701 18.4879 24.3638C18.4128 24.3823 18.3798 24.4502 18.3889 24.5675C18.4121 24.6613 18.4237 24.7082 18.4237 24.7082C18.4701 24.8959 18.4429 25.4304 18.3421 26.3117C18.297 27.4182 18.2498 28.4356 18.2004 29.3639C18.1699 30.2875 18.2196 31.0121 18.3495 31.5376C18.4609 31.9881 18.4716 32.3538 18.3818 32.6349C18.3107 32.9114 18.2094 33.1057 18.0778 33.2179ZM22.3533 30.7271C22.2784 30.6659 22.1332 30.6022 21.9177 30.536C21.7022 30.4698 21.5851 30.3992 21.5666 30.3241C21.5573 30.2865 21.5363 30.2419 21.5036 30.1903C21.4897 30.134 21.4452 30.1151 21.3701 30.1337C21.2999 30.0913 21.277 29.8779 21.3015 29.4934C21.3447 29.1044 21.4092 28.6403 21.495 28.1013C21.5996 27.5576 21.7182 27.0304 21.8508 26.5197C21.9788 25.9901 22.0925 25.5637 22.1918 25.2405C22.2717 25.161 22.3095 25.072 22.305 24.9735C22.3147 24.8516 22.3008 24.7953 22.2633 24.8046C22.2633 24.8046 22.2893 24.7085 22.3414 24.5164C22.4076 24.3009 22.4619 24.158 22.5043 24.0878C22.5895 23.7879 22.6371 23.4973 22.6473 23.216C22.6527 22.9159 22.6135 22.6767 22.5296 22.4983C22.4313 22.423 22.3399 22.4157 22.2553 22.4764C22.1708 22.5372 22.1285 22.5675 22.1285 22.5675C22.058 22.6049 21.9547 22.6702 21.8185 22.7637C21.6964 22.8337 21.5883 22.9201 21.4943 23.0231C21.1368 23.4301 20.8549 23.6591 20.6484 23.7101C20.4607 23.7565 20.2174 23.5777 19.9183 23.1737C19.7922 22.9858 19.7154 22.7957 19.6877 22.6033C19.6601 22.411 19.6981 22.2423 19.8016 22.0972C19.9193 21.9287 20.0745 21.751 20.2672 21.5639C20.4553 21.3581 20.5799 21.2177 20.6411 21.1429C20.8151 20.9605 21.0712 20.7478 21.4094 20.5048C21.7477 20.2619 21.952 20.1217 22.0224 20.0844C22.4733 19.8136 22.8862 19.7116 23.2611 19.7782C23.6315 19.826 23.9498 20.0262 24.2161 20.3785C24.5578 20.6326 24.7727 20.938 24.8608 21.2946C24.949 21.6512 24.9266 22.1247 24.7938 22.7152L24.6167 23.2071C24.5692 23.418 24.5737 23.5164 24.63 23.5025C24.705 23.484 24.7733 23.3974 24.8346 23.2428C24.8724 23.1538 24.9571 23.0134 25.0889 22.8215C25.2207 22.6296 25.3148 22.5267 25.3711 22.5127C25.3711 22.5127 25.3875 22.4987 25.4204 22.4707C25.4721 22.438 25.4817 22.3559 25.4492 22.2246C25.4916 22.1543 25.534 22.0841 25.5764 22.0139C25.6375 21.939 25.6681 21.9016 25.6681 21.9016C25.7432 21.883 25.8277 21.8223 25.9218 21.7194C26.03 21.5931 26.204 21.3708 26.444 21.0526C26.6133 20.8514 26.7825 20.7299 26.9514 20.6881C27.3506 20.4501 27.7326 20.505 28.0974 20.8529C28.481 21.1962 28.754 21.6963 28.9164 22.3532L28.701 24.0196L29.4083 22.5303C29.4838 22.3524 29.5639 22.1931 29.6487 22.0527C29.7522 21.9076 29.8416 21.7859 29.9169 21.6876C29.922 21.547 29.9597 21.458 30.0302 21.4207C30.1006 21.3833 30.1358 21.3647 30.1358 21.3647C30.1358 21.3647 30.1546 21.36 30.1921 21.3508C30.225 21.3227 30.2345 21.2805 30.2206 21.2242C30.2959 21.126 30.3828 21.0347 30.4815 20.9506C30.5756 20.8477 30.6321 20.7541 30.6511 20.6697C30.9377 20.4595 31.3178 20.3456 31.7914 20.328C32.2604 20.2918 32.6375 20.4475 32.9226 20.7952C33.1096 20.988 33.2804 21.1549 33.4347 21.296C33.5891 21.437 33.708 21.6765 33.7916 22.0143C33.8236 22.3051 33.8348 22.5115 33.8251 22.6333C33.8342 22.7506 33.8456 22.8772 33.8593 23.0133C33.8683 23.1305 33.8912 23.3439 33.9279 23.6535C33.89 23.8222 33.8825 23.9933 33.9055 24.1669C33.9472 24.3358 33.9867 24.4953 34.0238 24.6455C34.0841 24.8895 34.1353 25.0561 34.1772 25.1453C34.2146 25.2157 34.2989 25.2347 34.4303 25.2022C34.6791 25.0809 34.8741 24.9431 35.0152 24.7887C35.1704 24.611 35.3351 24.391 35.5092 24.1289C35.7258 23.7965 35.9605 23.6987 36.2134 23.8353C36.4803 23.9485 36.6698 24.1108 36.7818 24.3221C36.8379 24.3879 36.8421 24.5661 36.7945 24.8567C36.7468 25.1473 36.6781 25.4331 36.5883 25.7143C36.4984 25.9954 36.4066 26.1475 36.3128 26.1707C36.2564 26.1846 36.1624 26.2875 36.0306 26.4794C35.8988 26.6714 35.7929 26.8071 35.713 26.8866C35.6141 27.0504 35.5129 27.2049 35.4094 27.35C35.3246 27.4904 35.2071 27.5792 35.057 27.6163C34.9819 27.6349 34.895 27.6862 34.7963 27.7704C34.7118 27.8311 34.6038 27.8777 34.4724 27.9102C34.2987 28.0129 34.0008 28.0567 33.5788 28.0415C33.1756 28.0217 32.8667 27.8193 32.652 27.4342C32.5259 27.2463 32.3483 27.0114 32.1193 26.7294C31.909 26.4429 31.7834 26.0557 31.7425 25.5679C31.7341 25.2115 31.7044 24.8903 31.6536 24.6041C31.6028 24.3179 31.5916 24.1116 31.6201 23.9851C31.6061 23.9287 31.5737 23.7974 31.5226 23.5909C31.4669 23.3657 31.411 23.26 31.3546 23.274C31.2796 23.2925 31.162 23.4212 31.002 23.6599C30.8419 23.8986 30.6606 24.2123 30.4579 24.601C30.2506 24.9709 30.0409 25.3712 29.8288 25.802C29.6354 26.2282 29.4702 26.6475 29.3331 27.0598C29.2153 27.308 29.1277 27.5985 29.0706 27.9312C29.0135 28.264 28.9614 28.4561 28.9144 28.5076C28.8201 28.6902 28.5995 28.7646 28.2526 28.7309C27.9245 28.6925 27.6552 28.5699 27.4447 28.3631C27.3606 28.2644 27.2787 28.2149 27.1989 28.2147C27.1146 28.1957 27.035 28.1557 26.9601 28.0945C26.8994 28.0099 26.8553 27.8316 26.8279 27.5596C26.8192 27.2829 26.8368 26.8305 26.8807 26.2023C26.9294 25.5131 26.9661 24.8966 26.991 24.3527C27.03 23.7855 27.0495 23.5018 27.0495 23.5018C27.031 23.4268 26.9088 23.5366 26.6829 23.8314C26.4524 24.1075 26.1889 24.4514 25.8924 24.8633C25.7746 25.1115 25.6143 25.43 25.4117 25.8186C25.2278 26.2026 25.0109 26.6546 24.761 27.1744C24.5299 27.6896 24.2704 28.2914 23.9826 28.98C23.6286 29.884 23.3316 30.4553 23.0919 30.6938C22.8709 30.9277 22.6247 30.9388 22.3533 30.7271ZM39.5899 26.9438C39.4777 26.8122 39.2717 26.7038 38.9718 26.6186C38.6907 26.5288 38.5409 26.4464 38.5223 26.3713C38.5037 26.2962 38.429 26.1952 38.298 26.0683C38.1812 25.9179 38.076 25.8145 37.9823 25.758C37.8606 25.6686 37.8215 25.3895 37.8649 24.9207C37.9037 24.4331 37.9944 23.8331 38.1369 23.1208C38.2795 22.4084 38.4478 21.6797 38.642 20.9347C38.7551 20.7474 38.8565 20.5132 38.9463 20.2321C39.0362 19.951 39.1093 19.7636 39.1658 19.67C39.1473 19.5949 39.1592 19.5223 39.2016 19.4521C39.2393 19.3631 39.2957 19.3093 39.3708 19.2907L39.4847 18.7846C39.5036 18.7003 39.5791 18.5223 39.7111 18.2507C39.8619 17.9744 40.0456 17.6701 40.2622 17.3377C40.4741 16.9866 40.6906 16.6543 40.9119 16.3407C41.1518 16.0224 41.3517 15.7838 41.5116 15.6248C41.8408 15.2646 42.2141 15.0429 42.6317 14.9596C43.068 14.8716 43.4664 14.9125 43.827 15.0823C43.8973 15.1247 44.0471 15.2071 44.2765 15.3296C44.5248 15.4475 44.7964 15.5795 45.0914 15.7256C45.4052 15.8671 45.6768 15.9991 45.9063 16.1216L47.1776 16.7932L47.047 18.3191C46.9886 19.1302 47.0853 19.8033 47.3371 20.3385C47.5889 20.8737 47.8878 21.3176 48.2339 21.6702C48.3788 21.8534 48.5402 21.9828 48.7182 22.0583C48.9149 22.1292 49.1493 22.1509 49.4214 22.1234C49.5762 22.1051 49.7308 22.1266 49.8854 22.188C50.04 22.2493 50.1428 22.3832 50.1938 22.5897C50.3052 23.0401 50.3019 23.3894 50.1841 23.6377C50.0803 23.8625 49.9392 24.0168 49.7608 24.1008C49.16 24.329 48.5526 24.4094 47.9385 24.3422C47.3244 24.2749 46.6854 23.8653 46.0216 23.1133C45.9187 23.0193 45.7644 22.8383 45.5588 22.5705C45.3673 22.2793 45.2506 22.0891 45.2086 21.9999C45.1567 22.1123 45.0837 22.2598 44.9894 22.4424C44.9093 22.6016 44.8268 22.7515 44.742 22.8919C43.7436 24.5727 42.8168 25.7378 41.9617 26.3873C41.1207 27.0135 40.3301 27.199 39.5899 26.9438ZM40.5606 24.2244C40.6966 24.2107 40.8869 24.0939 41.1313 23.8742C41.371 23.6357 41.6791 23.2707 42.0555 22.7794C42.5591 22.0773 42.9732 21.497 43.298 21.0383C43.6227 20.5796 43.9126 20.02 44.1675 19.3596L44.5363 18.193C44.2419 17.8077 44.0034 17.5679 43.8208 17.4737C43.6382 17.3794 43.4718 17.3508 43.3216 17.3879C43.0776 17.4483 42.8262 17.6797 42.5672 18.0823C42.3036 18.4661 42.0302 19.0117 41.747 19.719C41.478 20.4029 41.1897 21.2508 40.8823 22.2628C40.7404 22.7361 40.6524 23.186 40.6185 23.6126C40.5799 24.0204 40.5606 24.2244 40.5606 24.2244ZM55.6715 23.5656C55.2023 23.6816 54.7216 23.7108 54.2294 23.6533C53.7513 23.5723 53.3508 23.4423 53.0277 23.2633C52.7046 23.0842 52.5246 22.8798 52.4877 22.6499C52.4323 22.345 52.4775 22.0849 52.6234 21.8696C52.7693 21.6542 53.0557 21.5237 53.4825 21.4779C54.1531 21.4516 54.8122 21.3384 55.4598 21.1385C56.1028 20.9198 56.6803 20.6376 57.1923 20.2919C57.7231 19.9417 58.1227 19.5441 58.3911 19.0994C58.7773 18.4861 58.9379 18.0083 58.8732 17.6658C58.8038 17.3046 58.4529 17.0129 57.8204 16.7909C57.5347 16.6823 57.195 16.597 56.8012 16.535C56.4075 16.473 56.0231 16.4486 55.6479 16.4616C55.2869 16.4513 54.9773 16.488 54.7192 16.5717C54.5549 16.6323 54.3415 16.6552 54.079 16.6404C53.8118 16.6069 53.54 16.5546 53.2635 16.4835C53.1184 16.38 52.9618 16.1897 52.7937 15.9126C52.6257 15.6355 52.5136 15.464 52.4575 15.3983C52.4155 15.309 52.4534 15.1802 52.571 15.0117C52.6887 14.8432 52.9403 14.5719 53.3258 14.1978C53.7066 13.8049 54.2707 13.2671 55.018 12.5845C55.6996 11.958 56.219 11.481 56.5762 11.1537C56.9476 10.803 57.2296 10.5342 57.4223 10.3471C57.6292 10.1366 57.7985 9.93544 57.9303 9.74354C58.0906 9.42514 58.1451 9.20254 58.0939 9.07584C58.0426 8.94904 57.7614 8.89914 57.2502 8.92594C56.7717 9.00434 56.3964 9.09714 56.1241 9.20434C55.8472 9.29264 55.7181 9.37434 55.7366 9.44944C55.7366 9.44944 55.7273 9.45174 55.7085 9.45644C55.7085 9.45644 55.6803 9.46334 55.624 9.47734C55.5209 9.46294 55.3168 9.52334 55.0116 9.65854C54.7065 9.79374 54.4131 9.93604 54.1313 10.0853C53.8684 10.2299 53.7345 10.3327 53.7296 10.3937C53.7201 10.4359 53.605 10.534 53.3842 10.6882C53.1775 10.8189 52.9592 10.9426 52.7291 11.0593C52.5178 11.1712 52.384 11.2342 52.3277 11.2481C52.2246 11.2338 52.0795 11.1302 51.8924 10.9375C51.7241 10.7401 51.5723 10.5287 51.4369 10.3033C51.2969 10.0591 51.234 9.88544 51.2484 9.78234C51.2673 9.69804 51.3709 9.55294 51.559 9.34704C51.7612 9.11784 51.9916 8.88164 52.2501 8.63854C52.504 8.37654 52.7226 8.17314 52.9058 8.02834C53.15 7.88824 53.5185 7.72744 54.0114 7.54584C54.5183 7.34084 55.0205 7.15694 55.518 6.99414C56.0296 6.80794 56.4003 6.69634 56.6302 6.65944C57.5167 6.53984 58.2668 6.59344 58.8805 6.82014C59.4895 7.02804 59.9619 7.48874 60.2977 8.20244C60.4189 8.45124 60.4862 8.72334 60.4995 9.01884C60.5128 9.31424 60.4604 9.62594 60.3423 9.95384C60.2242 10.2818 60.0192 10.661 59.7274 11.0917C59.3324 11.5079 59.0291 11.8518 58.8174 12.1232C58.6198 12.3712 58.3307 12.6518 57.95 12.965C57.8419 13.0913 57.6609 13.2455 57.4072 13.4278C57.1536 13.61 56.9163 13.7781 56.6955 13.9323C56.4747 14.0865 56.369 14.1823 56.3783 14.2198C56.3783 14.2198 56.4674 14.2177 56.6456 14.2135C56.8379 14.1859 57.0442 14.1747 57.2646 14.18C57.4991 14.1618 57.6749 14.1881 57.7919 14.2587C58.3826 14.3118 58.9611 14.5173 59.5276 14.8752C60.1081 15.2096 60.5247 15.485 60.7774 15.7014C61.184 16.2182 61.3699 16.8494 61.3351 17.5949C61.3145 18.3169 61.1273 19.0503 60.7737 19.7949C60.4342 20.5161 59.9847 21.155 59.4253 21.7115C58.974 22.1417 58.3798 22.5177 57.6428 22.8393C56.9199 23.1375 56.2628 23.3796 55.6715 23.5656ZM69.7333 19.6412C69.1557 19.9632 68.5808 20.175 68.0084 20.2767C67.4502 20.355 66.9277 20.2551 66.4407 19.9772C66.1269 19.8357 65.7852 19.6214 65.4155 19.3344C65.0646 19.0428 64.8146 18.7163 64.6655 18.3548C64.5021 18.0965 64.3901 17.8852 64.3295 17.7209C64.269 17.5566 64.2274 17.3479 64.2046 17.0946C64.2006 16.8367 64.1828 16.4428 64.1514 15.9128C64.1345 15.2 64.136 14.6421 64.1558 14.2389C64.171 13.8169 64.2895 13.3295 64.5113 12.7768C64.564 12.3455 64.6355 11.9097 64.7257 11.4691C64.8301 11.0052 64.9153 10.7053 64.9813 10.5695C65.0427 10.4149 65.1347 10.1831 65.2574 9.87394C65.3802 9.56474 65.5169 9.27204 65.6677 8.99584C65.795 8.70544 65.9083 8.43844 66.0074 8.19484C66.1206 7.92794 66.1772 7.79444 66.1772 7.79444C66.2572 7.71494 66.3277 7.63774 66.3888 7.56284C66.4688 7.48334 66.5394 7.36634 66.6008 7.21174C66.7092 7.00574 66.9021 6.73894 67.1796 6.41144C67.4525 6.06514 67.7723 5.70724 68.139 5.33781C68.5057 4.96833 68.8746 4.6481 69.2458 4.37711C69.6123 4.08735 69.941 3.88658 70.2321 3.77481C70.7816 3.41988 71.0655 3.35967 71.0836 3.59416C71.0836 3.59416 71.203 3.67419 71.4417 3.83424C71.6945 3.97089 71.9007 4.03942 72.0601 4.03984C72.1398 4.04005 72.2123 4.09182 72.2777 4.19515C72.3572 4.27507 72.4367 4.35499 72.5162 4.43491C72.5909 4.57578 72.5669 4.80079 72.4441 5.10994C72.3168 5.40033 72.1519 5.70004 71.9494 6.00894C71.7331 6.26154 71.5709 6.41124 71.4629 6.45784C71.3737 6.49974 71.2823 6.49254 71.1887 6.43604C71.1889 6.35624 71.1398 6.31864 71.0413 6.32304C70.9382 6.30874 70.8866 6.30154 70.8866 6.30154C70.7647 6.29184 70.5582 6.38274 70.2669 6.57424C69.9898 6.74234 69.7008 6.98304 69.3999 7.29644C69.1131 7.58644 68.8661 7.91634 68.6588 8.28624C68.527 8.47814 68.414 8.66544 68.3197 8.84804C68.2255 9.03064 68.1688 9.16414 68.1499 9.24854C67.9662 9.55284 67.8107 9.85014 67.6833 10.1405C67.5513 10.4121 67.4853 10.5479 67.4853 10.5479C67.5694 10.6466 67.7078 10.6423 67.9003 10.5349C68.1116 10.423 68.2174 10.3271 68.2176 10.2474C68.199 10.1723 68.3823 10.0274 68.7673 9.81284C69.1665 9.57474 69.5773 9.38354 69.9997 9.23924C70.1501 9.12244 70.373 9.05734 70.6684 9.04404C70.9826 9.02614 71.2382 9.01274 71.4352 9.00394C71.8666 8.97684 72.1667 8.98234 72.3354 9.02034C72.5041 9.05824 72.7359 9.19014 73.0307 9.41604C73.4942 9.67984 73.8427 10.0019 74.0762 10.3823C74.3284 10.7581 74.5054 11.1923 74.6073 11.6849C74.6816 11.9852 74.7184 12.2549 74.7177 12.4941C74.7171 12.7332 74.6437 13.0003 74.4976 13.2953C74.4078 13.5764 74.2873 13.9348 74.1361 14.3705C73.9802 14.7874 73.8174 15.1762 73.6477 15.5368C73.4967 15.8928 73.3507 16.1479 73.2096 16.3023C73.1438 16.3584 73.0803 16.4239 73.0192 16.4987C72.9722 16.5502 72.9486 16.5759 72.9486 16.5759C72.9577 16.6932 72.847 16.8898 72.6165 17.1659C72.4002 17.4185 72.1157 17.7179 71.7631 18.0639C71.4247 18.3866 71.0722 18.6928 70.7057 18.9826C70.3392 19.2723 70.0151 19.4919 69.7333 19.6412ZM67.5083 17.891C67.8178 17.8543 68.05 17.8268 68.2048 17.8084C68.3549 17.7713 68.6156 17.6173 68.9867 17.3463C69.1276 17.2716 69.2497 17.2016 69.353 17.1362C69.4564 17.0708 69.5385 17.0406 69.5994 17.0454C69.5994 17.0454 69.6935 16.9425 69.8816 16.7367C70.0838 16.5075 70.3119 16.2619 70.5658 16C71.3133 15.2376 71.8241 14.484 72.098 13.7392C72.3673 12.9756 72.3993 12.3801 72.1941 11.9529C72.185 11.8357 72.1361 11.7183 72.0473 11.6008C71.9539 11.4646 71.9025 11.3777 71.8933 11.3402C71.8557 11.3495 71.7666 11.3516 71.626 11.3465C71.5041 11.3368 71.3564 11.3435 71.1828 11.3665C70.9812 11.3566 70.7959 11.3725 70.627 11.4142C70.4581 11.456 70.2046 11.5585 69.8666 11.7217C69.5427 11.8616 69.0286 12.1181 68.3242 12.4914C68.1975 12.5426 68.0683 12.6243 67.9367 12.7365C67.8193 12.8253 67.6901 12.907 67.5493 12.9817C67.5256 13.0473 67.448 13.1362 67.3165 13.2484C67.1849 13.3606 67.0768 13.447 66.9922 13.5078C66.8092 13.5729 66.6868 13.7625 66.625 14.0765C66.5632 14.3905 66.5406 14.9836 66.557 15.8558C66.607 16.4608 66.6365 16.8618 66.6453 17.0588C66.6729 17.2511 66.7405 17.4037 66.8481 17.5165C66.932 17.6949 67.0279 17.8007 67.1356 17.8338C67.2434 17.8669 67.3676 17.886 67.5083 17.891ZM79.4376 17.2421C79.0394 17.0816 78.8195 16.9169 78.7777 16.748C78.6748 16.654 78.5764 16.6185 78.4826 16.6417C78.4309 16.6744 78.3514 16.5945 78.2441 16.402C78.1555 16.2048 78.0623 15.9889 77.9644 15.7542C77.8853 15.5148 77.8459 15.3553 77.8461 15.2756C77.884 15.1069 77.997 14.9595 78.1849 14.8333C78.3915 14.7026 78.6004 14.6211 78.8115 14.5888C79.0367 14.5331 79.1773 14.578 79.2331 14.7235C79.3078 14.8644 79.4787 14.9516 79.7459 14.9851C80.0319 15.014 80.379 14.968 80.7872 14.8472C81.3081 14.6985 81.7658 14.4957 82.1604 14.2389C82.5737 13.9774 82.9239 13.6618 83.2109 13.2921C83.5166 12.9178 83.7709 12.4964 83.9738 12.028C84.0402 11.7328 84.0764 11.3554 84.0823 10.8959C84.0882 10.4364 84.0681 10.0331 84.0221 9.68604C83.9761 9.33894 83.9062 9.17694 83.8124 9.20014C83.8124 9.20014 83.7774 9.13914 83.7074 9.01704C83.6561 8.89024 83.5838 8.75884 83.4904 8.62254C83.3269 8.36424 83.0415 8.13604 82.6341 7.93804C82.222 7.72134 81.8402 7.58664 81.4887 7.53414C81.348 7.52914 81.0759 7.59634 80.6722 7.73604C80.2686 7.87564 79.9307 7.99894 79.6584 8.10614C79.3628 8.19914 79.1845 8.24324 79.1235 8.23834C79.0767 8.21014 79.0533 8.19594 79.0533 8.19594C78.9548 8.20044 78.7721 8.14604 78.5051 8.03274C78.2569 7.91494 78.0158 7.78534 77.7817 7.64404C77.5664 7.49814 77.4471 7.37824 77.4239 7.28434C77.429 7.14374 77.4765 6.89294 77.5666 6.53214C77.6566 6.17134 77.7772 5.77304 77.9284 5.3374C78.0984 4.89708 78.2706 4.46614 78.4452 4.04458C78.6198 3.62303 78.7919 3.2718 78.9614 2.9909C79.3714 2.23235 79.9334 1.60549 80.6474 1.11033C81.3568 0.596386 82.1009 0.263067 82.8796 0.110367C83.4286 -0.0054135 83.8506 -0.0301034 84.1459 0.0363166C84.4552 0.0793266 84.7597 0.223146 85.0591 0.467756C85.2742 0.693396 85.3978 0.951617 85.4299 1.24242C85.4619 1.53323 85.4214 1.77226 85.3084 1.95953C85.1954 2.14679 85.0123 2.21196 84.7593 2.15503C84.4548 2.05107 84.0819 2.07354 83.6408 2.22244C83.1996 2.37133 82.7442 2.58349 82.2746 2.85891C81.9176 3.10649 81.631 3.31675 81.4148 3.48968C81.1941 3.64384 81.0623 3.83574 81.0195 4.06539C80.9583 4.14026 80.9159 4.21048 80.8923 4.27607C80.8875 4.33701 80.8452 4.36738 80.7655 4.36717C80.7655 4.36717 80.7466 4.41167 80.7088 4.50066C80.6665 4.57089 80.6545 4.64353 80.6731 4.71861C80.6071 4.85442 80.5623 4.95511 80.5387 5.0207C80.5292 5.06288 80.4776 5.05571 80.384 4.99919C80.384 4.99919 80.391 5.02735 80.4049 5.08365C80.4188 5.13996 80.4256 5.20796 80.4254 5.28768C80.4391 5.4237 80.4999 5.50826 80.6076 5.54136C80.7295 5.55106 80.9734 5.5306 81.3393 5.47998C81.8271 5.43905 82.1928 5.42829 82.4366 5.44768C82.6945 5.44367 83.0929 5.52443 83.6317 5.68994C84.2314 5.86034 84.7275 6.21564 85.12 6.75594C85.5266 7.27274 85.8368 7.88314 86.0507 8.58704C86.2787 9.26764 86.4246 9.93854 86.4885 10.5998C86.5343 11.0266 86.5569 11.3596 86.5562 11.5987C86.5556 11.8379 86.4726 12.187 86.3073 12.6461C86.0241 13.3534 85.6027 14.0252 85.043 14.6614C84.4787 15.2789 83.8537 15.8118 83.1679 16.2601C82.4821 16.7085 81.8061 17.035 81.1397 17.2395C80.4874 17.4207 79.9201 17.4215 79.4376 17.2421Z" fill="#5E8BDC"></path></svg> 