<?xml version="1.0" encoding="UTF-8"?> <svg xmlns="http://www.w3.org/2000/svg" width="60" height="38" viewBox="0 0 60 38" fill="none"><path d="M15.0757 11.9124C14.9388 11.9392 14.6786 11.9355 14.2949 11.9014C13.9365 11.8568 13.346 11.7156 12.5236 11.4777C12.2842 11.3989 11.9466 11.2792 11.5108 11.1187C11.075 10.9581 10.6036 10.7826 10.0964 10.5923C9.60706 10.4095 9.15716 10.2325 8.74672 10.0616C8.36152 9.8802 8.09605 9.7382 7.95029 9.6356C7.95029 9.6356 7.88709 9.6616 7.76069 9.7137C7.65213 9.7732 7.56811 9.8743 7.50864 10.0171C7.29451 10.1792 7.009 10.4373 6.65211 10.7913C6.30266 11.1274 5.91678 11.5007 5.49446 11.9112C5.08999 12.3292 4.69445 12.7508 4.30783 13.1762C3.92864 13.5837 3.59853 13.9489 3.31749 14.2716C3.06172 14.5839 2.90411 14.8115 2.84464 14.9543C2.5056 15.3157 2.25504 15.6407 2.09297 15.9292C1.9309 16.2177 1.7941 16.3702 1.68256 16.3866C1.51751 16.632 1.29221 16.6952 1.00666 16.5762C0.738946 16.4647 0.567166 16.2989 0.491296 16.0788C0.180436 15.719 0.0168032 15.3576 0.000405227 14.9947C-0.00855877 14.614 0.131196 14.2534 0.419676 13.9128C0.569856 13.7031 0.800336 13.4011 1.11112 13.007C1.44718 12.6025 1.81074 12.157 2.20182 11.6707C2.61074 11.1917 3.01223 10.7307 3.40629 10.2875C3.82562 9.8338 4.19515 9.4746 4.51486 9.2099C4.85242 8.9526 5.10373 8.7012 5.26878 8.4558C5.44127 8.1925 5.62045 7.9635 5.80632 7.7687C5.87025 7.5649 5.92229 7.44 5.96244 7.3939C6.01002 7.3299 6.12973 7.2436 6.32156 7.1351C6.44053 7.1008 6.59965 7.0205 6.79892 6.8941C7.02347 6.7572 7.30675 6.5297 7.64877 6.21138C7.77665 6.05521 7.95732 5.84773 8.19078 5.58893C8.44952 5.31973 8.69934 5.0468 8.94023 4.77016C9.18856 4.47567 9.40566 4.23101 9.59156 4.03617C9.77746 3.84133 9.87406 3.73498 9.88146 3.71714C9.94696 3.66062 10.0563 3.54907 10.2094 3.38249C10.37 3.19806 10.4942 3.05081 10.5819 2.94075C10.7574 2.72063 10.8964 2.53769 10.999 2.39194C11.1195 2.25362 11.144 2.16959 11.0726 2.13985C10.915 2.11608 10.6183 2.0239 10.1825 1.86333C9.95346 1.80982 9.78166 1.76969 9.66716 1.74293C9.57786 1.70576 9.49386 1.68123 9.41506 1.66934C9.22916 1.61285 9.07596 1.5281 8.95548 1.41508C8.83501 1.30207 8.80823 1.16525 8.87513 1.00463C9.02977 0.733953 9.25056 0.480363 9.53756 0.243873C9.84246 0.0148133 10.1325 -0.0528869 10.4076 0.0407731C10.5474 0.0571231 10.6924 0.0861031 10.8426 0.127733C11.0181 0.158943 11.2546 0.194603 11.552 0.234733C11.9208 0.304583 12.2227 0.409403 12.4577 0.549173C12.718 0.678523 12.8943 0.783353 12.9865 0.863653C13.098 0.847283 13.1917 0.823473 13.2675 0.792233C13.3687 0.750583 13.443 0.697783 13.4906 0.633823C13.7136 0.349753 13.9746 0.175723 14.2735 0.111743C14.5799 0.0299131 14.858 0.0410431 15.1078 0.145113C15.383 0.238773 15.5674 0.399373 15.6611 0.626903C15.7623 0.836583 15.7065 1.0961 15.4939 1.40546C15.4895 1.46643 15.4887 1.51848 15.4917 1.56161C15.5125 1.61217 15.6464 1.66793 15.8933 1.72887C16.1654 1.77941 16.6309 1.86859 17.2897 1.99642C17.6259 2.09453 18.0423 2.2261 18.539 2.39113C19.0536 2.56358 19.4351 2.7539 19.6835 2.96208C20.0092 3.03492 20.2843 3.12858 20.5089 3.24307C20.7587 3.34714 20.9431 3.38207 21.0621 3.34785C21.4072 3.57536 21.6526 3.74041 21.7983 3.84301C21.9694 3.93519 22.0898 4.04821 22.1597 4.18204C22.2014 4.28317 22.1984 4.36571 22.1508 4.42966C22.1107 4.47577 22.0906 4.49882 22.0906 4.49882C22.0341 4.43339 22.0252 4.42967 22.0639 4.48767C22.11 4.52782 22.1628 4.60217 22.2223 4.71073C22.3249 4.81631 22.339 4.95833 22.2647 5.1368C22.2156 5.30486 22.1361 5.47069 22.0261 5.63429C21.9413 5.78748 21.8789 5.88713 21.8387 5.93323C21.754 6.08642 21.6238 6.14741 21.4483 6.1162C21.2803 6.06714 20.8787 5.89987 20.2437 5.6144C19.5209 5.18766 18.8218 4.85461 18.1466 4.61525C17.4967 4.36547 16.6512 4.10754 15.6102 3.84144C15.2101 3.69574 14.8487 3.60804 14.526 3.57833C14.2285 3.53821 14.0798 3.51815 14.0798 3.51815C14.0084 3.48841 13.8315 3.5613 13.5489 3.73682C13.2738 3.89449 12.9593 4.17188 12.6054 4.569C12.482 4.66419 12.2493 4.87093 11.9072 5.18923C11.5831 5.51495 11.2351 5.87266 10.8634 6.2623C10.499 6.6342 10.1711 6.9688 9.87966 7.2663C9.59566 7.5459 9.42836 7.6961 9.37776 7.717C9.59786 7.8924 9.96676 8.0879 10.4843 8.3035C11.0198 8.5266 11.6161 8.754 12.2735 8.986C12.9383 9.2 13.5674 9.3993 14.1608 9.5836C14.4508 9.6416 14.746 9.7122 15.0464 9.7954C15.3468 9.8787 15.5469 9.9515 15.6465 10.014C15.8533 10.121 15.9544 10.3307 15.95 10.643C15.953 10.9375 15.8772 11.2201 15.7225 11.4907C15.5753 11.7436 15.3597 11.8841 15.0757 11.9124ZM14.4704 21.4619C14.0941 21.4099 13.8316 21.1853 13.6829 20.7883C13.5267 20.4091 13.5065 19.9294 13.6225 19.3494C13.7384 18.7694 14.0053 18.179 14.4231 17.5781C14.6016 17.4011 14.7585 17.2256 14.8938 17.0516C15.0365 16.8597 15.1339 16.7013 15.186 16.5764C15.296 16.4128 15.4752 16.1838 15.7235 15.8893C15.9793 15.5769 16.2477 15.2594 16.5287 14.9366C16.8097 14.6139 17.0633 14.3321 17.2893 14.0911C17.5406 13.8397 17.699 13.6858 17.7644 13.6293C17.8358 13.659 17.9243 13.6226 18.0299 13.5199C18.1354 13.4173 18.2142 13.3035 18.2663 13.1786C18.3258 13.0358 18.4194 12.8864 18.5473 12.7302C18.693 12.5815 18.8165 12.4863 18.9176 12.4446C18.9548 12.3554 19.0135 12.2647 19.0938 12.1724C19.1994 12.0698 19.267 11.9828 19.2968 11.9114C19.3265 11.84 19.3741 11.7761 19.4395 11.7196C19.5228 11.6705 19.5793 11.6102 19.609 11.5389C19.8306 11.3589 20.1436 11.0599 20.5481 10.642C20.9778 10.2136 21.4388 9.7355 21.931 9.2075C22.4411 8.6869 22.9295 8.1678 23.3965 7.6502C23.8634 7.1326 24.2448 6.6946 24.5407 6.3362C24.8619 5.96732 25.0411 5.73827 25.0782 5.64904C25.1377 5.50626 25.247 5.39471 25.4061 5.31439C25.5652 5.23406 25.7162 5.22363 25.859 5.28311C25.9348 5.25187 26.0746 5.26821 26.2784 5.33214C26.4895 5.37822 26.6308 5.41613 26.7022 5.44586C26.7022 5.44586 26.723 5.49642 26.7647 5.59755C26.8063 5.69867 26.8688 5.85035 26.9521 6.0526C27.0429 6.237 27.1172 6.4355 27.1753 6.6482C27.2511 6.8683 27.2445 7.0854 27.1553 7.2996C27.0586 7.5316 26.93 7.7398 26.7694 7.9242C26.6267 8.1161 26.3969 8.366 26.0802 8.6739C25.7709 8.9639 25.298 9.3952 24.6615 9.9679C24.3701 10.2653 24.0771 10.5412 23.7827 10.7956C23.4957 11.0321 23.3373 11.186 23.3076 11.2574C23.2779 11.3288 23.1976 11.421 23.0667 11.534C22.9537 11.6545 22.8169 11.8069 22.6563 11.9914C22.5254 12.1044 22.3381 12.2777 22.0942 12.5112C21.8578 12.7269 21.6013 12.9656 21.3247 13.2274C21.0734 13.4787 20.8548 13.7018 20.6689 13.8967C20.4905 14.0737 20.3938 14.18 20.3789 14.2157C20.3492 14.2871 20.3105 14.3548 20.263 14.4187C20.2332 14.4901 20.1678 14.5466 20.0667 14.5883C19.9953 14.5585 19.9284 14.5935 19.8659 14.6931C19.8287 14.7824 19.8102 14.827 19.8102 14.827C19.7358 15.0055 19.396 15.4189 18.7908 16.0674C18.0964 16.93 17.4533 17.7198 16.8615 18.4367C16.2875 19.161 15.8964 19.773 15.6883 20.2727C15.5099 20.7011 15.3009 21.0015 15.0615 21.174C14.84 21.354 14.6429 21.45 14.4704 21.4619ZM23.6164 24.2977C22.9547 24.3781 22.3092 24.3187 21.6801 24.1194C21.0763 23.9098 20.5565 23.599 20.1207 23.1871C19.6924 22.7574 19.403 22.2704 19.2528 21.7261C19.171 21.4197 19.1538 20.9833 19.2013 20.4166C19.2563 19.8322 19.5195 19.125 19.9908 18.2951C20.4398 17.5187 21.0354 16.7929 21.7774 16.1177C22.5373 15.4498 23.3455 14.9173 24.2021 14.5202C25.0587 14.123 25.8833 13.9534 26.676 14.0113C26.963 14.0261 27.2389 14.0677 27.5036 14.1361C27.7936 14.1941 28.1453 14.3301 28.5588 14.5442C28.947 14.7688 29.2682 15.0282 29.5226 15.3227C29.7843 15.5993 29.9494 15.8565 30.0179 16.0945C30.1845 16.499 30.2566 16.8536 30.2344 17.1585C30.2121 17.4634 30.14 17.737 30.0181 17.9795C29.6909 18.5134 29.1757 19.0213 28.4723 19.5032C27.7868 19.9926 27.0023 20.2418 26.1189 20.2508C25.7635 20.2494 25.3731 20.181 24.9478 20.0457C24.5224 19.9104 23.9825 19.6227 23.3281 19.1826C22.937 18.9149 22.6328 18.8406 22.4157 18.9596C22.2164 19.086 22.0179 19.4117 21.8202 19.9367C21.7221 20.2728 21.6745 20.5881 21.6775 20.8826C21.7058 21.1666 21.862 21.4202 22.1461 21.6432C22.5268 21.8856 22.8176 22.0172 23.0184 22.038C23.2266 22.0409 23.4905 22.0357 23.8103 22.0223C23.9902 21.9925 24.165 21.9501 24.3345 21.8951C24.5219 21.8475 24.7003 21.7961 24.8699 21.7411C25.0572 21.6935 25.2067 21.6615 25.3182 21.6451C25.4372 21.6109 25.545 21.6035 25.6417 21.6228C25.7384 21.6421 25.8313 21.6704 25.9206 21.7075C26.1094 21.8071 26.2522 21.9923 26.3489 22.2629C26.4456 22.5336 26.4836 22.7693 26.4628 22.9701C26.4033 23.1129 26.2286 23.2809 25.9386 23.4743C25.656 23.6498 25.3036 23.8172 24.8813 23.9763C24.4842 24.1251 24.0626 24.2322 23.6164 24.2977ZM25.7551 18.1829C25.9023 18.1814 26.1328 18.1308 26.4466 18.0312C26.7782 17.9389 27.0868 17.8266 27.3723 17.6942C27.6653 17.544 27.8378 17.4064 27.8898 17.2815C27.9716 17.0851 27.9084 16.8598 27.7002 16.6056C27.5098 16.3587 27.1908 16.1944 26.7431 16.1127C26.5855 16.0889 26.375 16.1164 26.1118 16.1953C25.8486 16.2741 25.5742 16.3797 25.2887 16.5121C25.0106 16.6267 24.7593 16.7524 24.5347 16.8892C24.3176 17.0082 24.16 17.1101 24.0618 17.1949C24.0961 17.3138 24.2091 17.4447 24.401 17.5875C24.5928 17.7302 24.8137 17.8536 25.0635 17.9577C25.3312 18.0692 25.5618 18.1443 25.7551 18.1829ZM26.5452 26.2402C26.2746 26.0856 26.1474 25.8127 26.1637 25.4216C26.2053 25.02 26.5027 24.6831 27.0559 24.4109C27.1823 24.3589 27.4299 24.2421 27.7987 24.0606C28.1675 23.8791 28.5779 23.6731 29.03 23.4425C29.5074 23.2016 29.9468 22.9762 30.3483 22.7665L32.3448 21.7446L34.0401 21.0685L36.3064 20.0019C37.0797 19.6538 37.6805 19.4433 38.1088 19.3704C38.5445 19.2797 38.8747 19.2915 39.0993 19.406C39.3238 19.5205 39.4882 19.7041 39.5923 19.957C39.6593 20.0477 39.6608 20.1949 39.5968 20.3986C39.5508 20.6098 39.5128 20.7511 39.4831 20.8225C39.4668 20.9623 39.2519 21.1765 38.8385 21.465C38.4325 21.7357 37.6481 22.1106 36.4851 22.5896C35.8873 22.7176 35.3698 22.879 34.9326 23.0738C34.5132 23.2761 34.2976 23.4167 34.2857 23.4955C33.8663 23.6978 33.5176 23.8562 33.2395 23.9708C32.9793 24.0928 32.7101 24.211 32.432 24.3256C32.1792 24.4297 31.8721 24.5636 31.5108 24.7272C31.1747 24.8804 30.7137 25.1073 30.1278 25.4077C29.4586 25.7573 28.7797 26.0295 28.0912 26.2244C27.41 26.4015 26.8947 26.4067 26.5452 26.2402ZM32.8319 29.927C32.707 29.8749 32.568 29.8066 32.4148 29.7218C32.2616 29.637 32.1277 29.4556 32.0132 29.1775C31.8912 28.9173 31.7804 28.5046 31.6806 27.9395L31.6025 26.9959L31.5913 27.0227C31.5705 26.7208 31.5689 26.3222 31.5867 25.827C31.6298 25.3213 31.6669 24.9808 31.6982 24.8053C31.713 24.7696 31.7175 24.7086 31.7115 24.6223C31.7234 24.5435 31.739 24.3301 31.7583 23.9821C31.7776 23.6341 31.7842 23.04 31.7782 22.1997L31.9788 20.5868C32.0278 20.1675 32.0605 19.7622 32.0768 19.3711C32.1006 18.9621 32.0938 18.6766 32.0566 18.5145C32.0283 18.2304 32.0826 18.075 32.2194 18.0482C32.3741 18.0289 32.5332 17.9485 32.6968 17.8072L32.7615 17.8028C32.9786 17.6838 33.2723 17.6071 33.6426 17.5729C34.0308 17.5461 34.3118 17.6003 34.4859 17.7357C34.5915 17.8844 34.6562 18.1312 34.68 18.4762C34.7291 18.8109 34.7492 19.1648 34.7404 19.5381C34.7568 19.901 34.7538 20.2348 34.7315 20.5397L34.7427 20.5129L34.6625 21.6105L34.4508 23.2501C34.3779 23.3245 34.3214 23.5104 34.2813 23.8078C34.259 24.1127 34.2323 24.4786 34.2011 24.9054L34.0941 25.6148C34.0986 25.8051 34.1135 26.0208 34.1388 26.2617C34.1715 26.4848 34.1849 26.6788 34.179 26.8439L34.1901 26.8171C34.1827 27.0863 34.1828 27.3377 34.1902 27.5711C34.1977 27.8046 34.2022 27.995 34.2037 28.1422C34.223 28.2969 34.2416 28.3779 34.2595 28.3854C34.3368 28.5014 34.3718 28.5683 34.3643 28.5861C34.3747 28.6114 34.3814 28.6456 34.3844 28.6887C34.38 28.7497 34.3844 28.8144 34.3978 28.8828C34.4291 28.9587 34.4425 29.0271 34.438 29.088C34.4395 29.2353 34.3369 29.381 34.1302 29.5253C33.9235 29.6696 33.6885 29.7812 33.4253 29.86C33.1799 29.9463 32.9822 29.9686 32.8319 29.927ZM38.3581 29.4643C38.4176 29.3215 38.4555 29.1803 38.4719 29.0405C38.4882 28.9007 38.5469 28.8099 38.6481 28.7683L38.8399 28.911C38.7611 28.8992 38.6146 28.8486 38.4004 28.7594C38.2116 28.6598 38.0353 28.5549 37.8717 28.4449C37.7334 28.3245 37.6627 28.2427 37.6598 28.1996C37.804 27.9036 37.9185 27.679 38.0032 27.5258C38.1058 27.3801 38.2062 27.2648 38.3043 27.18C38.3713 27.0194 38.5103 26.8365 38.7214 26.6312C38.9326 26.426 39.1296 26.2043 39.3125 25.9664C39.5103 25.6927 39.7891 25.2748 40.1489 24.7126C40.5266 24.1578 40.9467 23.6521 41.4092 23.1955C41.7452 22.791 42.1653 22.2853 42.6694 21.6785C43.1809 21.0538 43.6315 20.5503 44.0211 20.1681C44.5772 19.4363 45.0486 18.8578 45.4352 18.4324C45.8471 17.9966 46.2367 17.6144 46.604 17.2857C46.9966 16.9465 47.4293 16.5613 47.9022 16.13C48.033 16.0169 48.1787 15.8682 48.3393 15.6838C48.5074 15.4815 48.6516 15.3112 48.7721 15.1729C49.0516 14.9542 49.349 14.8687 49.6643 14.9163C49.9975 14.9712 50.2265 15.1504 50.3515 15.4538C50.466 15.7319 50.5434 15.9735 50.5835 16.1788C50.6312 16.3662 50.5576 16.6182 50.3628 16.935C50.1933 17.2414 49.8007 17.7062 49.1851 18.3294C48.9858 18.4558 48.7167 18.6997 48.3776 19.0612C48.0639 19.4122 47.7776 19.7223 47.5189 19.9915C46.991 20.5046 46.5538 20.9508 46.2073 21.3301C45.8609 21.7094 45.5196 22.1013 45.1835 22.5058C44.8505 22.9535 44.4854 23.3774 44.0884 23.7775C43.6988 24.1597 43.2995 24.5903 42.8906 25.0692L42.4065 25.0247C42.5983 24.9161 42.8281 24.7919 43.0958 24.652C43.3813 24.5197 43.6415 24.3977 43.8765 24.2861C44.1293 24.182 44.2936 24.1143 44.3695 24.0831C45.0223 23.8733 45.7064 23.7394 46.4217 23.6813C47.1371 23.6232 47.7795 23.6395 48.3491 23.7302C48.944 23.8104 49.353 23.9598 49.5761 24.1784C49.8527 24.4193 50.0684 24.7814 50.2231 25.2647C50.3853 25.7302 50.4121 26.244 50.3036 26.8062C50.3274 27.1512 50.1535 27.5186 49.7817 27.9082C49.4278 28.3054 48.9512 28.7456 48.352 29.229C47.8181 29.6559 47.2471 30.0463 46.6388 30.4004C46.0381 30.7365 45.4886 30.9998 44.9904 31.1902C44.8357 31.2096 44.6231 31.2676 44.3524 31.3643C44.107 31.4506 43.8795 31.5443 43.6698 31.6454C43.1538 31.8284 42.5857 31.885 41.9655 31.8152C41.3707 31.7349 40.7966 31.5796 40.2433 31.3491C39.6975 31.1008 39.2439 30.8072 38.8825 30.4681C38.5389 30.1365 38.3641 29.8019 38.3581 29.4643ZM39.6296 28.6745C39.7114 28.7295 39.7932 28.7845 39.875 28.8395C39.9642 28.8767 40.0624 28.9176 40.1695 28.9622C40.5844 29.0722 40.9042 29.1845 41.1287 29.2989C41.3786 29.403 41.6307 29.4766 41.885 29.5197C42.1571 29.5702 42.4947 29.5643 42.8978 29.5018C43.5105 29.3381 44.054 29.1142 44.5284 28.8301C45.0206 28.5535 45.5255 28.2716 46.043 27.9845C46.5099 27.7182 46.9144 27.426 47.2564 27.1077C47.6059 26.7715 47.8438 26.4518 47.9702 26.1484C48.0371 25.9877 48.0259 25.8888 47.9367 25.8517C47.901 25.8368 47.718 25.8234 47.3879 25.8116C47.0652 25.7819 46.7224 25.7752 46.3595 25.7916C46.0219 25.7976 45.7899 25.8266 45.6635 25.8787C45.6338 25.9501 45.5542 25.9902 45.4248 25.9992C45.3029 25.9903 45.2419 25.9858 45.2419 25.9858C44.5177 26.1658 43.9734 26.3161 43.609 26.4366C43.27 26.5467 42.9376 26.691 42.6119 26.8695C42.4127 26.9959 42.2587 27.0889 42.1502 27.1484C42.0491 27.19 41.9569 27.2354 41.8736 27.2845C41.7977 27.3157 41.6728 27.3894 41.4988 27.5054C41.3249 27.6214 41.0602 27.8043 40.7048 28.0542C40.4832 28.2342 40.2653 28.4052 40.0512 28.5674C39.8371 28.7295 39.6779 28.8098 39.5738 28.8083L39.6296 28.6745ZM50.742 36.7904C49.7604 36.3815 49.1209 35.78 48.8233 34.9859C48.5437 34.1992 48.6491 33.2169 49.1398 32.039C49.4074 31.3965 49.8171 30.7399 50.3687 30.0691C50.9382 29.4057 51.5717 28.79 52.2691 28.2218C52.9844 27.6611 53.6945 27.2133 54.3994 26.8787C55.1117 26.5261 55.7534 26.3431 56.3245 26.3297C56.5401 26.3148 56.7535 26.3304 56.9647 26.3765C57.2012 26.4121 57.4176 26.4708 57.6139 26.5526C57.8281 26.6418 58.0526 26.7563 58.2876 26.8961C58.5479 27.0254 58.7754 27.1831 58.9703 27.3689C59.3287 27.6648 59.5853 28.0545 59.74 28.5378C59.9126 29.0285 59.8576 29.613 59.5751 30.2912C59.5008 30.4696 59.4012 30.6585 59.2763 30.8578C59.1588 31.0393 59.0146 31.2096 58.8436 31.3687C58.3662 31.861 57.7751 32.2745 57.0702 32.6092C56.3832 32.9513 55.7363 33.1217 55.1295 33.1203C54.957 33.1322 54.7919 33.1262 54.6343 33.1025C54.5019 33.0683 54.3644 33.0214 54.2216 32.962C53.8468 32.8059 53.53 32.6111 53.2712 32.3776C53.0303 32.1516 52.822 31.8973 52.6465 31.6148L52.5104 31.3382L52.265 31.5501C51.9989 31.8372 51.7907 32.0855 51.6405 32.2953C51.5082 32.5124 51.4197 32.6745 51.3751 32.7816C51.2859 32.9958 51.2019 33.2226 51.1231 33.462C51.0517 33.6836 51.0309 33.8844 51.0607 34.0643C51.0949 34.1833 51.1544 34.2918 51.2392 34.39C51.3418 34.4956 51.4824 34.5855 51.6608 34.6599C51.7679 34.7045 51.8661 34.7454 51.9553 34.7825C52.0698 34.8093 52.1665 34.8286 52.2453 34.8405C52.5963 34.9029 52.9034 34.8947 53.1666 34.8159C53.4551 34.7266 53.7414 34.6678 54.0255 34.6395L54.1548 34.6306L54.1615 34.5391C54.5318 34.5049 54.778 34.4922 54.8999 34.5011C55.0293 34.4922 55.1282 34.481 55.1966 34.4676C55.2977 34.426 55.3929 34.4237 55.4821 34.4609C55.7469 34.5293 55.958 34.701 56.1157 34.9762C56.2987 35.2409 56.3381 35.4981 56.234 35.748C56.1894 35.8551 56.0385 35.9912 55.7812 36.1563C55.5418 36.3288 55.2578 36.4828 54.9291 36.6181C54.6258 36.7431 54.332 36.8197 54.048 36.848C53.987 36.8435 53.9223 36.848 53.8539 36.8614C53.7929 36.8569 53.7283 36.8614 53.6598 36.8748L53.6866 36.886C53.4368 37.0332 53.2316 37.0734 53.0709 37.0065L52.8568 36.9173C52.7333 37.0125 52.4456 37.0497 51.9935 37.0289C51.5339 37.026 51.1168 36.9465 50.742 36.7904ZM54.8214 30.9185C54.9821 30.9854 55.136 31.0181 55.2832 31.0166C55.4483 31.0226 55.6082 31.0159 55.7628 30.9965C56.3175 30.8715 56.7577 30.5941 57.0834 30.1643C57.409 29.7345 57.5168 29.35 57.4067 29.0109C57.3933 28.9425 57.3636 28.8883 57.3174 28.8481C57.2788 28.7901 57.2237 28.7462 57.1524 28.7165C56.956 28.6347 56.7069 28.6043 56.405 28.6251C56.121 28.6534 55.8146 28.7352 55.486 28.8706C55.1573 29.006 54.8279 29.1934 54.4978 29.4329L53.9156 29.8501C53.9588 29.8471 53.9892 29.8493 54.0071 29.8568C54.0502 29.8538 54.0807 29.856 54.0986 29.8635C54.2592 29.9304 54.344 30.0285 54.3529 30.1579C54.3618 30.2873 54.3797 30.4204 54.4065 30.5572C54.4511 30.7014 54.5894 30.8219 54.8214 30.9185Z" fill="#5E8BDC"></path></svg> 