<?xml version="1.0" encoding="UTF-8"?> <svg xmlns="http://www.w3.org/2000/svg" width="75" height="37" viewBox="0 0 75 37" fill="none"><path d="M2.57735 36.4687C2.57735 36.4687 2.47417 36.4548 2.26782 36.4269C2.06618 36.4178 1.84579 36.4134 1.60665 36.4138C1.38626 36.4094 1.21981 36.4213 1.10732 36.4496C0.78846 36.45 0.53041 36.3355 0.33316 36.106C0.14063 35.8953 0.0441498 35.6305 0.0437198 35.3116C0.0998598 35.2177 0.11604 35.0442 0.0922499 34.7911C0.0684699 34.5379 0.03772 34.3363 0 34.1863C0.03729 34.0174 0.05824 33.9025 0.06284 33.8416C0.06274 33.7619 0.0624699 33.5626 0.0620399 33.2437C0.0381499 32.9108 0.0211101 32.4466 0.0109301 31.8511C0.0147901 31.2322 0.0185898 30.5734 0.0223398 29.8747C0.0448398 29.1713 0.0650301 28.4984 0.0829201 27.856C0.10081 27.2136 0.12353 26.6696 0.15106 26.2241C0.19735 25.7739 0.24154 25.5136 0.28365 25.4432C0.28365 25.4432 0.27658 25.4151 0.26243 25.3588C0.24358 25.2838 0.22472 25.2088 0.20586 25.1338C0.20586 25.1338 0.19402 25.0471 0.17035 24.8737C0.1607 24.6767 0.20259 24.4469 0.29602 24.1842C0.31916 23.9591 0.32822 23.7176 0.32318 23.4597C0.31815 23.2018 0.3062 23.0354 0.28734 22.9604C0.33877 22.8478 0.38532 22.5968 0.427 22.2076C0.48271 21.7949 0.53141 21.3939 0.57308 21.0047C0.61016 20.6764 0.65189 20.327 0.69828 19.9565C0.76342 19.5813 0.81222 19.26 0.84469 18.9927C0.8959 18.7207 0.92151 18.5847 0.92151 18.5847C0.90265 18.5097 0.89322 18.4722 0.89322 18.4722C0.88851 18.4534 0.88615 18.444 0.88615 18.444C0.94229 18.3502 1.02613 17.9304 1.13766 17.1847C1.26323 16.4155 1.44242 15.4236 1.67524 14.2088C1.71252 14.0399 1.7661 13.7773 1.83595 13.4208C1.90109 13.0456 1.92423 12.8205 1.90538 12.7455C2.11591 12.3935 2.36421 12.2314 2.65028 12.2592C2.95038 12.2635 3.2342 12.3616 3.50173 12.5534C3.78802 12.7406 4.00396 12.9255 4.14956 13.1082L4.54393 13.4875L4.01248 15.7741C3.84448 16.3745 3.7022 16.9187 3.58563 17.4065C3.48781 17.8896 3.44833 18.1686 3.46719 18.2436C3.46719 18.2436 3.4486 18.3679 3.41142 18.6165C3.39299 18.8603 3.37232 19.1745 3.34939 19.5591C3.32175 19.9248 3.2941 20.2906 3.26646 20.6564C3.20636 21.2895 3.13205 21.8265 3.04356 22.2674C2.95034 22.6895 2.91317 22.9381 2.93202 23.0131C2.9226 22.9756 3.10302 22.9003 3.4733 22.7873C3.86233 22.6695 4.34747 22.5376 4.92873 22.3914C5.50993 22.2453 6.10053 22.0968 6.70053 21.946C7.31463 21.7716 7.86533 21.6232 8.35283 21.5006C8.83563 21.3593 9.16603 21.2463 9.34413 21.1617L10.7712 20.6533L10.9294 17.9522C10.9474 17.3895 10.9839 16.7025 11.0391 15.8913C11.0943 15.08 11.1496 14.3883 11.2051 13.8162C11.2883 12.8782 11.4562 12.1981 11.7088 11.7757C11.9567 11.3346 12.1932 11.0858 12.4182 11.0292C12.4744 11.0151 12.5917 11.0454 12.77 11.1202C12.9623 11.1715 13.1593 11.2416 13.3611 11.3304C13.5628 11.4192 13.6966 11.5152 13.7624 11.6182C14.0392 11.7679 14.2013 11.9764 14.2485 12.2436C14.3145 12.5061 14.2517 12.8907 14.0602 13.3973C13.8875 13.979 13.7734 14.5958 13.718 15.2476C13.6767 15.876 13.6281 16.3965 13.5724 16.8093C13.629 17.0343 13.648 17.2288 13.6295 17.393C13.6062 17.5384 13.5665 17.658 13.5104 17.7518C13.4823 17.7988 13.4427 17.9582 13.3915 18.2303C13.3403 18.5023 13.2984 18.772 13.2659 19.0393C13.2335 19.3066 13.2243 19.4684 13.2385 19.5246C13.2715 19.6559 13.2834 19.8223 13.2743 20.024C13.2652 20.2256 13.2326 20.3734 13.1764 20.4672C13.1672 20.5892 13.1536 20.8916 13.1355 21.3746C13.1173 21.8576 13.1017 22.4297 13.0885 23.0909C13.0706 23.7333 13.041 24.3687 12.9997 24.9971C12.9536 25.6067 12.9027 26.1179 12.847 26.5306C12.88 26.6618 12.8755 26.8424 12.8336 27.0722C12.787 27.2833 12.7826 27.4638 12.8203 27.6138C12.8019 27.8576 12.7788 28.1625 12.7512 28.5282C12.7236 28.894 12.7215 29.1238 12.7451 29.2175C12.7598 29.6723 12.7816 30.1951 12.8105 30.7859C12.8582 31.372 12.8987 31.8901 12.9322 32.3402C12.9843 32.7856 13.0175 33.0364 13.0317 33.0926C12.5583 33.2714 12.1762 33.2977 11.8853 33.1715C11.5944 33.0453 11.3364 32.9706 11.1113 32.9475C10.7032 32.8308 10.4216 32.6225 10.2664 32.3227C10.1348 32.0368 10.1178 31.6523 10.2156 31.1692C10.2717 30.9957 10.2923 30.6017 10.2774 29.9875C10.2765 29.3498 10.278 28.7215 10.2819 28.1025C10.3236 27.793 10.3559 27.4061 10.3788 26.9418C10.4016 26.4776 10.4174 26.0251 10.4262 25.5843C10.449 25.1201 10.4696 24.7262 10.4879 24.4026C10.5062 24.079 10.5294 23.8938 10.5575 23.8469C10.5386 23.7719 10.5221 23.7062 10.508 23.65C10.4938 23.5937 10.4868 23.5656 10.4868 23.5656C10.4398 23.5375 10.2453 23.5565 9.90313 23.6227C9.55613 23.67 9.12253 23.7691 8.60223 23.9198C8.09603 24.0471 7.54763 24.2049 6.95703 24.3933C6.36183 24.5629 5.80173 24.7535 5.27683 24.9653C5.07053 25.0171 4.77053 25.0925 4.37683 25.1915C4.00184 25.2858 3.73934 25.3518 3.58934 25.3895C3.38309 25.4414 3.20497 25.4862 3.05497 25.5239C2.92372 25.5569 2.8581 25.5734 2.8581 25.5734C2.83474 25.6391 2.80689 25.8454 2.77453 26.1925C2.76092 26.5348 2.73569 26.9498 2.69884 27.4375C2.68073 27.9205 2.65561 28.4152 2.62346 28.9217C2.61007 29.4234 2.59663 29.8853 2.58313 30.3073C2.58366 30.7059 2.5864 30.9943 2.59133 31.1725C2.60118 31.5288 2.60413 31.9766 2.60017 32.5158C2.61495 33.0504 2.61335 33.599 2.59535 34.1617C2.60081 34.7384 2.5968 35.2378 2.5833 35.6599C2.58855 36.0772 2.58657 36.3468 2.57735 36.4687ZM17.1194 29.4633C17.0067 29.3322 16.8002 29.2246 16.5 29.1406C16.2186 29.0519 16.0684 28.97 16.0495 28.895C16.0307 28.82 15.9555 28.7193 15.8241 28.5929C15.7066 28.443 15.601 28.34 15.5071 28.2838C15.3851 28.1949 15.3449 27.916 15.3864 27.447C15.4233 26.9593 15.5116 26.359 15.6513 25.6461C15.791 24.9332 15.9565 24.2038 16.1477 23.458C16.26 23.2703 16.3605 23.0357 16.4492 22.7542C16.5379 22.4728 16.6104 22.2851 16.6665 22.1912C16.6477 22.1162 16.6593 22.0435 16.7014 21.9732C16.7388 21.884 16.795 21.83 16.87 21.8112L16.9818 21.3046C17.0005 21.2202 17.0753 21.0419 17.2062 20.7697C17.3559 20.4929 17.5383 20.1879 17.7536 19.8546C17.9641 19.5027 18.1793 19.1695 18.3993 18.855C18.638 18.5358 18.837 18.2964 18.9962 18.1368C19.3239 17.7753 19.6964 17.5521 20.1136 17.4671C20.5496 17.3774 20.9482 17.4167 21.3095 17.5851C21.3799 17.6272 21.53 17.709 21.76 17.8306C22.0086 17.9475 22.2808 18.0784 22.5764 18.2234C22.8907 18.3637 23.1629 18.4946 23.3928 18.6162L24.6668 19.2827L24.5422 20.8091C24.487 21.6204 24.5864 22.2931 24.8403 22.8273C25.0943 23.3615 25.395 23.8042 25.7424 24.1555C25.888 24.3381 26.05 24.4669 26.2283 24.5416C26.4253 24.6117 26.6598 24.6325 26.9317 24.604C27.0864 24.585 27.2412 24.6059 27.396 24.6667C27.5508 24.7274 27.6541 24.8609 27.706 25.0672C27.8191 25.5172 27.8173 25.8665 27.7004 26.1152C27.5975 26.3404 27.4571 26.4953 27.279 26.58C26.6791 26.8105 26.072 26.8934 25.4576 26.8286C24.8433 26.7638 24.2027 26.3567 23.5358 25.6073C23.4326 25.5137 23.2776 25.3334 23.0709 25.0664C22.8783 24.7759 22.7608 24.5862 22.7185 24.4971C22.667 24.6097 22.5945 24.7575 22.501 24.9405C22.4215 25.1001 22.3397 25.2502 22.2554 25.391C21.2636 27.0757 20.3415 28.2445 19.4889 28.8974C18.6505 29.5269 17.8606 29.7155 17.1194 29.4633ZM18.0793 26.74C18.2153 26.7258 18.405 26.6083 18.6486 26.3876C18.8874 26.1481 19.194 25.782 19.5685 25.2891C20.0693 24.5851 20.4811 24.0031 20.8041 23.5431C21.127 23.0832 21.4146 22.5225 21.6669 21.861L22.0311 20.6929C21.7352 20.3088 21.4957 20.07 21.3127 19.9765C21.1297 19.8829 20.9632 19.855 20.8132 19.8927C20.5695 19.954 20.3189 20.1865 20.0616 20.5901C19.7995 20.9749 19.5283 21.5216 19.2479 22.23C18.9815 22.9149 18.6966 23.764 18.3932 24.7773C18.2532 25.251 18.167 25.7013 18.1348 26.128C18.0978 26.536 18.0793 26.74 18.0793 26.74ZM29.4881 26.174C29.2863 26.0852 29.0564 25.9636 28.7983 25.8092C28.5589 25.6501 28.4203 25.376 28.3822 24.9869C28.3065 24.4477 28.266 23.9695 28.2607 23.5522C28.2507 23.1161 28.2454 22.6191 28.2446 22.0611C28.2256 21.8267 28.2227 21.4187 28.236 20.8373C28.268 20.2511 28.3164 19.611 28.3811 18.9169C28.4458 18.2229 28.5293 17.5639 28.6316 16.9402C28.7292 16.2976 28.8364 15.8122 28.9532 15.4838C29.1123 15.2444 29.3887 15.0752 29.7825 14.9763C30.195 14.8725 30.4951 14.8768 30.6828 14.9891C30.9315 15.106 31.0725 15.3895 31.106 15.8396C31.1347 16.2709 31.0348 16.9838 30.8064 17.9782C30.7692 18.2268 30.7086 18.5012 30.6246 18.8014C30.5547 19.0781 30.5128 19.3079 30.4989 19.4908C30.4804 19.655 30.5157 19.7159 30.6047 19.6735C30.6653 19.439 30.8127 19.1528 31.0467 18.8149C31.2759 18.4582 31.5263 18.1062 31.7978 17.7588C32.0693 17.4115 32.3291 17.097 32.5773 16.8153C32.8254 16.5336 32.9987 16.3505 33.097 16.266C33.2234 16.1345 33.3733 16.0171 33.5467 15.9137C33.7341 15.7868 33.8606 15.6952 33.9261 15.6389C34.3055 15.3242 34.7554 15.1313 35.2758 15.0603C35.8102 14.9658 36.169 15.045 36.3522 15.298C36.4087 15.4433 36.4932 15.5416 36.6058 15.5931C36.7372 15.6398 36.8029 15.6631 36.8029 15.6631C36.8779 15.6443 36.9225 15.663 36.9366 15.7192C36.9695 15.7707 36.9859 15.7965 36.9859 15.7965C37.0189 15.9278 36.9348 16.1483 36.7336 16.458C36.5512 16.763 36.3123 16.9626 36.017 17.0568C35.778 17.1369 35.5741 17.2379 35.4055 17.3601C35.2369 17.4822 35.0354 17.6325 34.8012 17.811C34.1924 18.4027 33.6375 18.9309 33.1364 19.3958C32.654 19.856 32.1954 20.4896 31.7604 21.2967C31.6668 21.4797 31.5616 21.6557 31.4446 21.8247C31.3276 21.9936 31.2247 22.2189 31.136 22.5003C31.0658 22.6176 31.0239 22.8475 31.0103 23.1898C30.9967 23.5321 30.9901 23.8627 30.9906 24.1815C31.005 24.4769 31.0193 24.6527 31.0335 24.709C31.0335 24.709 31.0289 24.8098 31.0198 25.0114C31.006 25.1943 30.9547 25.3867 30.8659 25.5884C30.7163 25.945 30.5384 26.189 30.3323 26.3206C30.1449 26.4475 29.8635 26.3986 29.4881 26.174ZM42.4705 22.9398C42.316 23.1182 42.1005 23.2521 41.824 23.3416C41.5615 23.4076 41.3012 23.3634 41.0431 23.209C40.6019 22.961 40.1252 22.3732 39.6129 21.4455C39.0958 20.499 38.6204 19.1633 38.1867 17.4383C38.0684 16.6507 37.9268 15.9288 37.7618 15.2725C37.6155 14.6116 37.533 14.2436 37.5141 14.1686C37.6874 13.9855 37.9404 13.882 38.2733 13.8581C38.6202 13.8107 38.9086 13.808 39.1384 13.8499C39.3495 13.8965 39.5161 14.0041 39.6383 14.1728C39.7791 14.3367 39.9202 14.66 40.0616 15.1428C40.2169 15.6021 40.4172 16.3193 40.6623 17.2943C40.7946 18.0584 40.908 18.6678 41.0024 19.1225C41.0968 19.5772 41.1815 19.835 41.2566 19.8959C41.3646 20.0083 41.421 20.0738 41.4257 20.0926C41.4257 20.0926 41.531 19.9166 41.7415 19.5647C41.8396 19.3207 41.9307 19.0088 42.0145 18.6288C42.1172 18.2442 42.2082 17.9322 42.2876 17.693C42.4278 17.3786 42.5517 17.0784 42.6592 16.7922C42.7854 16.5013 42.8766 16.3089 42.9327 16.2151C42.97 16.0462 43.0284 15.882 43.1079 15.7225C43.1874 15.563 43.2481 15.4081 43.2901 15.258C43.4068 14.8499 43.5493 14.5051 43.7178 14.2235C43.8815 13.9232 44.0008 13.7636 44.0758 13.7448C44.165 13.7822 44.3032 13.7374 44.4906 13.6106C44.6733 13.465 44.8021 13.3827 44.8771 13.3639C44.9754 13.1996 45.1535 13.1549 45.4115 13.2295C45.5007 13.2669 45.5828 13.316 45.6579 13.3769C45.7283 13.419 45.7729 13.4776 45.7918 13.5526C45.8153 13.6463 45.818 13.8948 45.7998 14.2981C45.7956 14.6779 45.7633 15.0648 45.7029 15.4588C45.6565 15.8293 45.5935 16.0544 45.5139 16.1342C45.5139 16.1342 45.4928 16.1694 45.4507 16.2398C45.4086 16.3102 45.3595 16.3923 45.3034 16.4862C45.2989 16.6269 45.2289 16.9036 45.0935 17.3164C44.9721 17.7058 44.8086 18.1655 44.603 18.6957C44.4114 19.2024 44.2105 19.7114 44.0002 20.2228C43.7851 20.7154 43.5958 21.1517 43.4322 21.5318C43.3107 21.8414 43.154 22.13 42.9621 22.3975C42.7655 22.6463 42.6016 22.8271 42.4705 22.9398ZM51.5581 21.9706C50.5268 22.2299 49.6545 22.1302 48.9412 21.6717C48.2466 21.2084 47.7437 20.358 47.4326 19.1205C47.2629 18.4455 47.1985 17.6743 47.2396 16.8068C47.2993 15.9345 47.4388 15.0622 47.658 14.1897C47.896 13.3125 48.1974 12.5291 48.5622 11.8393C48.9223 11.1308 49.3272 10.6004 49.7769 10.2481C49.9408 10.1072 50.1212 9.99209 50.318 9.90269C50.5288 9.78989 50.7374 9.70759 50.9436 9.65569C51.1686 9.59909 51.4171 9.55659 51.689 9.52809C51.975 9.47609 52.2516 9.46639 52.5189 9.49879C52.9832 9.52169 53.4218 9.68049 53.8349 9.97529C54.2666 10.2655 54.5721 10.7668 54.7512 11.4793C54.7984 11.6668 54.8315 11.8778 54.8506 12.1122C54.8649 12.3279 54.8512 12.5506 54.8093 12.7804C54.7211 13.4604 54.4946 14.1454 54.1298 14.8351C53.7837 15.5202 53.3671 16.0436 52.8799 16.4053C52.7488 16.518 52.6129 16.612 52.4723 16.6872C52.3458 16.7389 52.2075 16.7837 52.0576 16.8214C51.6638 16.9204 51.2934 16.9537 50.9464 16.9213C50.6181 16.8843 50.2991 16.805 49.9895 16.6835L49.715 16.5432L49.6451 16.8598C49.6034 17.249 49.5851 17.5726 49.5901 17.8305C49.6139 18.0837 49.64 18.2665 49.6682 18.379C49.7248 18.604 49.7931 18.836 49.8732 19.075C49.9485 19.2953 50.0519 19.4687 50.1833 19.5951C50.2819 19.67 50.3945 19.7214 50.5211 19.7494C50.6665 19.7726 50.833 19.7607 51.0205 19.7136C51.133 19.6853 51.2361 19.6593 51.3298 19.6358C51.4376 19.5887 51.5267 19.5464 51.597 19.5088C51.9156 19.349 52.1568 19.1587 52.3206 18.9381C52.4985 18.694 52.6928 18.4757 52.9035 18.2832L53.0019 18.1987L52.9526 18.1214C53.2289 17.8725 53.4186 17.7151 53.5216 17.6494C53.62 17.5648 53.6926 17.4967 53.7394 17.4451C53.7955 17.3512 53.8705 17.2925 53.9642 17.269C54.2173 17.1655 54.4893 17.1768 54.7802 17.303C55.0851 17.4058 55.2706 17.5884 55.3366 17.8509C55.3649 17.9634 55.3253 18.1627 55.2178 18.4489C55.1291 18.7304 54.9935 19.0236 54.811 19.3286C54.6426 19.6102 54.453 19.8473 54.2423 20.0398C54.1907 20.0727 54.1416 20.115 54.0947 20.1666C54.0432 20.1995 53.994 20.2418 53.9472 20.2934L53.9753 20.2863C53.8632 20.5538 53.7227 20.7087 53.5539 20.7511L53.329 20.8077C53.287 20.9578 53.0786 21.1597 52.7038 21.4134C52.3337 21.6859 51.9518 21.8716 51.5581 21.9706ZM51.3163 14.8248C51.4851 14.7824 51.628 14.7166 51.7451 14.6273C51.881 14.5334 52.0051 14.4324 52.1175 14.3244C52.4873 13.8925 52.6743 13.4069 52.6782 12.8677C52.6822 12.3284 52.5387 11.9559 52.2477 11.7499C52.196 11.7031 52.1397 11.6774 52.0788 11.6728C52.0131 11.6494 51.9427 11.6472 51.8677 11.666C51.6615 11.7179 51.4436 11.8425 51.2141 12.0397C51.0034 12.2322 50.8068 12.481 50.6243 12.7861C50.4419 13.0911 50.2899 13.4383 50.1685 13.8276L49.9514 14.5102C49.9842 14.482 50.01 14.4656 50.0287 14.4608C50.0615 14.4327 50.0873 14.4162 50.106 14.4115C50.2748 14.3691 50.4014 14.397 50.4859 14.4954C50.5705 14.5937 50.6644 14.6897 50.7677 14.7834C50.8897 14.8723 51.0726 14.8861 51.3163 14.8248ZM60.8172 19.3136C59.8235 19.5635 59.0121 19.4286 58.3831 18.909C58.1764 18.642 58.0353 18.3585 57.9599 18.0585C57.8985 17.735 57.9169 17.4912 58.0152 17.3269C58.1087 17.1439 58.2752 17.132 58.5145 17.2911C58.796 17.3798 59.1617 17.3676 59.6117 17.2544C59.8367 17.1979 60.0336 17.1484 60.2023 17.1059C60.3851 17.04 60.596 16.9671 60.8351 16.887C61.2569 16.7411 61.4957 16.5415 61.5517 16.2882C61.6263 16.0302 61.5511 15.8498 61.3259 15.7469L61.354 15.7399C60.8148 15.7359 60.2707 15.6733 59.722 15.5522C59.1732 15.431 58.6923 15.2628 58.2794 15.0477C57.8618 14.8138 57.5895 14.5633 57.4625 14.2962C57.1569 13.7152 57.0342 13.0683 57.0941 12.3554C57.1541 11.6426 57.3385 10.9883 57.6472 10.3923C57.7876 10.2374 57.9819 10.0191 58.2301 9.73739C58.4735 9.43699 58.6585 9.26089 58.785 9.20919L58.7921 9.23729C59.054 8.77269 59.3817 8.37139 59.7751 8.03319C60.1639 7.67639 60.6323 7.31939 61.1804 6.96229L61.6163 6.79289C61.8318 6.69879 62.024 6.63049 62.1927 6.58809C62.174 6.59279 62.2256 6.59979 62.3475 6.60899C62.4694 6.61819 62.5703 6.62279 62.65 6.62269C62.7766 6.65059 62.8962 6.65049 63.0087 6.62219C63.2806 6.59369 63.5691 6.67069 63.8741 6.85309C64.1932 7.01209 64.4678 7.23209 64.6979 7.51319C64.9421 7.77069 65.0784 8.03549 65.1069 8.30739C65.1591 8.75279 65.1082 9.22409 64.9541 9.72139C64.7953 10.1999 64.573 10.5049 64.2871 10.6366C64.3199 10.6084 64.273 10.5804 64.1464 10.5524C64.0197 10.5244 63.9025 10.4941 63.7946 10.4614L63.6962 10.546C63.6962 10.546 63.6798 10.5202 63.6469 10.4687C63.6327 10.4124 63.5975 10.3515 63.5411 10.2859C63.4331 10.1736 63.3415 10.0471 63.2663 9.90649C63.2098 9.76119 63.1674 9.59249 63.139 9.40029C63.1247 9.18459 63.1034 9.06039 63.0752 9.02759C63.047 8.99479 62.9275 8.99489 62.7165 9.02799C62.4586 9.03309 62.1563 9.13899 61.8096 9.34579C61.4582 9.53379 61.1537 9.78979 60.8963 10.1137C60.5826 10.4517 60.3508 10.7193 60.201 10.9164C60.07 11.1088 59.9765 11.2918 59.9204 11.4654C59.8597 11.6202 59.8061 11.843 59.7596 12.1338C59.7176 12.2839 59.6826 12.4223 59.6546 12.5489C59.6219 12.6568 59.6174 12.7576 59.641 12.8514C59.6881 13.0389 59.897 13.1957 60.2676 13.3218C60.6335 13.4292 61.1682 13.5339 61.8716 13.6362C62.4297 13.7151 62.8286 13.9139 63.0681 14.2324C63.3265 14.5462 63.5613 14.846 63.7727 15.1317C63.8291 15.1973 63.9019 15.3285 63.9913 15.5253C64.0947 15.6987 64.1323 15.8088 64.1043 15.8557C64.1512 15.8838 64.1794 15.9166 64.1888 15.9541L64.1817 15.926C64.4024 16.1695 64.4497 16.4766 64.3236 16.8472C64.2116 17.1943 63.9823 17.551 63.6358 17.9172C63.2846 18.2647 62.8606 18.5606 62.3639 18.8051L62.392 18.7981C62.1202 18.9063 61.846 19.0051 61.5695 19.0946C61.3117 19.1793 61.061 19.2524 60.8172 19.3136ZM69.8199 16.8707C69.6043 16.885 69.3486 16.8197 69.053 16.6748C68.7527 16.511 68.4664 16.3239 68.1942 16.1132C67.936 15.8791 67.7552 15.6754 67.6518 15.502C67.6423 15.4645 67.6024 15.4247 67.532 15.3826C67.4804 15.3358 67.4546 15.3124 67.4546 15.3124C67.3654 15.275 67.2573 15.0431 67.1301 14.6165C67.017 14.1665 66.9202 13.6626 66.8397 13.1047C66.7592 12.5468 66.7164 12.0991 66.7113 11.7615C66.7296 11.4379 66.7689 10.9994 66.8291 10.446C66.8846 9.87389 66.9261 9.36509 66.9536 8.91959L67.3029 7.09739L66.1001 7.07089C65.9594 7.06639 65.828 7.01969 65.706 6.93079C65.6027 6.83709 65.5417 6.75279 65.5228 6.67779C65.4851 6.52779 65.5152 6.29099 65.6133 5.96729C65.7113 5.64359 65.7978 5.47239 65.8728 5.45349C65.9713 5.44869 66.1424 5.41559 66.3861 5.35439C66.6486 5.28839 66.8994 5.21529 67.1384 5.13529C67.3775 5.05529 67.5228 4.99879 67.5743 4.96589C67.6399 4.90959 67.7031 4.84379 67.7639 4.76869C67.8201 4.67489 67.8504 4.55759 67.8549 4.4169C67.8968 4.18708 67.9411 4.0065 67.9878 3.87514C68.0345 3.74379 68.0952 3.54911 68.1699 3.29111C68.2399 3.01437 68.2911 2.78219 68.3237 2.59459C68.375 2.40227 68.4567 2.13254 68.5688 1.7854C68.6295 1.63058 68.6926 1.44528 68.7579 1.22949C68.8233 1.01371 68.9238 0.818977 69.0596 0.645297C69.1906 0.452877 69.4366 0.281397 69.7974 0.130857C70.1723 -0.0431327 70.531 -0.0436228 70.8735 0.129417C71.0707 0.279197 71.1998 0.436107 71.261 0.600137C71.3222 0.764177 71.3014 0.998647 71.1987 1.30358C71.1288 1.66004 71.0238 1.99545 70.8835 2.3098C70.7573 2.60069 70.6499 2.92672 70.5613 3.2879C70.365 3.77582 70.3677 4.02433 70.5693 4.03344C70.771 4.04255 71.2865 3.87305 72.116 3.52494C72.6362 3.29448 73.0441 3.25173 73.3397 3.39669C73.6353 3.54166 73.8419 3.7688 73.9595 4.07811C74.1289 4.51399 74.1504 4.79759 74.024 4.92909C73.8976 5.06059 73.4781 5.21589 72.7656 5.39499C72.3345 5.58309 71.9619 5.72669 71.6479 5.82559C71.3291 5.90569 71.0947 5.96459 70.9448 6.00229C70.7057 6.08239 70.5487 6.13179 70.4737 6.15069C70.3987 6.16949 70.2909 6.21659 70.1504 6.29179C70.0098 6.36699 69.9138 6.46089 69.8624 6.57349C69.825 6.66269 69.7876 6.79159 69.7503 6.96049C69.6942 7.05439 69.6312 7.27949 69.5613 7.63599C69.4915 7.99239 69.3912 8.38649 69.2605 8.81799C69.196 9.67149 69.1619 10.4874 69.1583 11.2658C69.1687 12.0207 69.1978 12.771 69.2457 13.5164C69.279 13.8868 69.3544 14.147 69.4718 14.2969C69.6033 14.4233 69.8706 14.4558 70.2738 14.3943C70.4848 14.3611 70.7847 14.2857 71.1738 14.168C71.5581 14.0315 71.8721 13.8927 72.1157 13.7517C72.2984 13.6061 72.4904 13.4582 72.6919 13.3078C72.8886 13.1388 73.0665 12.9744 73.2257 12.8148C73.3709 12.6786 73.5161 12.5424 73.6613 12.4062C73.8017 12.2513 73.872 12.1738 73.872 12.1738C73.928 12.0003 74.0663 11.9954 74.2869 12.1592C74.5216 12.2996 74.7047 12.4728 74.8362 12.679C74.8928 12.904 74.9143 13.1876 74.9007 13.5299C74.8824 13.8535 74.6156 14.2595 74.1005 14.7478C73.3888 15.4849 72.6252 16.0158 71.8097 16.3405C70.9943 16.6651 70.331 16.8418 69.8199 16.8707Z" fill="#5E8BDC"></path></svg> 