<?xml version="1.0" encoding="UTF-8"?> <svg xmlns="http://www.w3.org/2000/svg" width="106" height="106" viewBox="0 0 106 106" fill="none"><rect width="106" height="106" rx="7" fill="white"></rect><g clip-path="url(#clip0_17_396)"><path d="M65.6 41.8C65.6 45.1417 64.2725 48.3465 61.9096 50.7095C59.5466 53.0725 56.3418 54.4 53 54.4C49.6583 54.4 46.4534 53.0725 44.0905 50.7095C41.7275 48.3465 40.4 45.1417 40.4 41.8C40.4 38.4582 41.7275 35.2534 44.0905 32.8904C46.4534 30.5274 49.6583 29.2 53 29.2C56.3418 29.2 59.5466 30.5274 61.9096 32.8904C64.2725 35.2534 65.6 38.4582 65.6 41.8Z" fill="#985184"></path><path d="M34.8 51.6C34.8 53.0852 34.21 54.5096 33.1598 55.5598C32.1096 56.61 30.6852 57.2 29.2 57.2C27.7148 57.2 26.2904 56.61 25.2402 55.5598C24.19 54.5096 23.6 53.0852 23.6 51.6C23.6 50.1148 24.19 48.6904 25.2402 47.6402C26.2904 46.59 27.7148 46 29.2 46C30.6852 46 32.1096 46.59 33.1598 47.6402C34.21 48.6904 34.8 50.1148 34.8 51.6Z" fill="#FBB945"></path><path d="M82.4 51.6C82.4 53.0852 81.81 54.5096 80.7597 55.5598C79.7095 56.61 78.2852 57.2 76.8 57.2C75.3147 57.2 73.8904 56.61 72.8402 55.5598C71.79 54.5096 71.2 53.0852 71.2 51.6C71.2 50.1148 71.79 48.6904 72.8402 47.6402C73.8904 46.59 75.3147 46 76.8 46C78.2852 46 79.7095 46.59 80.7597 47.6402C81.81 48.6904 82.4 50.1148 82.4 51.6Z" fill="#1AD3BB"></path><path d="M53 60H23.6C22.1148 60 20.6904 60.59 19.6402 61.6402C18.59 62.6904 18 64.1148 18 65.6V71.2C18 72.6852 18.59 74.1096 19.6402 75.1598C20.6904 76.21 22.1148 76.8 23.6 76.8H53V60Z" fill="#FBB945"></path><path d="M82.4 60H53V76.8H82.4C83.8852 76.8 85.3096 76.21 86.3598 75.1598C87.41 74.1096 88 72.6852 88 71.2V65.6C88 64.1148 87.41 62.6904 86.3598 61.6402C85.3096 60.59 83.8852 60 82.4 60Z" fill="#1AD3BB"></path><path d="M34.8 60H54.4001C63.6779 60 71.2001 67.5222 71.2001 76.8H51.6C42.3222 76.8 34.8 69.2778 34.8 60Z" fill="#985184"></path></g><defs><clipPath id="clip0_17_396"><rect width="70" height="70" fill="white" transform="translate(18 18)"></rect></clipPath></defs></svg> 