<?xml version="1.0" encoding="UTF-8"?> <svg xmlns="http://www.w3.org/2000/svg" width="162" height="57" viewBox="0 0 162 57" fill="none"><path d="M1.77583 56.2748C1.49141 56.196 1.21482 56.0748 0.946056 55.911C0.682661 55.7658 0.550274 55.4821 0.548884 55.0599C0.465832 54.8424 0.413334 54.6262 0.391377 54.4111C0.38799 54.1907 0.384841 54.0407 0.381919 53.961C0.474771 53.9341 0.517066 53.8716 0.508773 53.7734C0.495099 53.6566 0.477521 53.561 0.456038 53.4867C0.413052 53.3381 0.396239 53.0713 0.405577 52.6862C0.414938 52.3012 0.418906 51.8975 0.417502 51.4752C0.474745 51.1165 0.51732 50.7419 0.545241 50.3514C0.591742 49.9556 0.604229 49.7205 0.582746 49.6462C0.53976 49.4976 0.533915 49.3383 0.565233 49.1683C0.591158 48.9796 0.629065 48.7976 0.678941 48.6222C0.707324 48.3724 0.702483 48.1122 0.664414 47.8415C0.639534 47.5468 0.605607 47.3252 0.562621 47.1766C0.604204 46.9029 0.649701 46.6079 0.699115 46.2918C0.748516 45.9755 0.767388 45.6581 0.755721 45.3396C0.77581 44.9916 0.808637 44.479 0.854187 43.8015C0.894379 43.1056 0.943846 42.4071 1.00261 41.7058C1.06768 41.3046 1.12077 40.8968 1.16188 40.4823C1.2162 40.044 1.27076 39.676 1.32553 39.3783C1.37495 39.0622 1.42751 38.896 1.48323 38.8799C1.48323 38.8799 1.47517 38.8521 1.45905 38.7964C1.43757 38.7221 1.41607 38.6478 1.39458 38.5735C1.36772 38.4807 1.39095 38.2827 1.46431 37.9797C1.53229 37.6581 1.58829 37.3299 1.63235 36.9952C1.73747 36.6629 1.79224 36.3653 1.79669 36.1023C1.79576 35.8209 1.7953 35.6801 1.7953 35.6801C1.7953 35.6801 1.81632 35.6137 1.85837 35.4807C1.89505 35.3293 1.93978 35.2056 1.99258 35.1099C2.40024 34.7102 2.77119 34.4619 3.10549 34.3652C3.45835 34.2631 3.76426 34.4162 4.02321 34.8243C4.29003 35.1899 4.43829 35.459 4.46804 35.6315C4.49242 35.7854 4.48117 35.9899 4.43421 36.245C4.38239 36.6222 4.31094 37.1059 4.21994 37.6957C4.12358 38.267 4.02867 38.8781 3.93521 39.5291C3.84177 40.18 3.75222 40.8097 3.66661 41.4181C3.59418 42.0026 3.5374 42.502 3.4963 42.9165C3.47373 43.3255 3.4759 43.5765 3.50277 43.6694L3.16284 46.8772C3.12617 47.0287 3.10216 47.3979 3.09082 47.9847C3.07411 48.5532 3.06178 49.241 3.05383 50.0483C3.04051 50.8372 3.02328 51.6472 3.00212 52.4785C2.99418 53.2858 2.96742 54.0282 2.92186 54.7055C2.90177 55.0535 2.87484 55.343 2.84109 55.5742C2.81269 55.8238 2.7682 56.0179 2.70758 56.1562C2.64695 56.2944 2.55164 56.3824 2.42163 56.42C2.34734 56.4415 2.25571 56.4378 2.14674 56.409C2.03776 56.3801 1.91413 56.3354 1.77583 56.2748ZM11.6213 53.3661C11.4595 53.433 11.2032 53.4167 10.8524 53.3168C10.5254 53.2303 10.1572 53.1054 9.74772 52.9421C9.35677 52.7734 8.97237 52.5928 8.59462 52.4002C8.23554 52.2022 7.94284 52.0253 7.7165 51.8693C7.29581 51.5282 6.74854 51.0626 6.07471 50.4726C5.41945 49.8772 4.86488 49.2125 4.41098 48.4784C4.10905 47.9217 3.83276 47.4884 3.5821 47.1785C3.34465 46.8447 3.18562 46.5385 3.10503 46.2599L2.63321 44.5246L4.62654 43.7971C5.00951 44.773 5.39987 45.5658 5.7976 46.1753C6.18992 46.7662 6.60064 47.2814 7.02957 47.7208C7.39213 48.1392 7.77057 48.5429 8.16489 48.932C8.57777 49.3157 8.99705 49.6171 9.42271 49.836C9.98417 50.1768 10.4643 50.4102 10.863 50.5364C11.2618 50.6625 11.5448 50.7015 11.712 50.653C12.1132 50.7182 12.4188 50.8007 12.629 50.901C12.8391 51.0012 12.9882 51.099 13.0761 51.1943C13.1641 51.2896 13.2121 51.3864 13.2205 51.4847C13.2552 51.535 13.2808 51.6583 13.2974 51.8548C13.3193 52.0699 13.32 52.281 13.2994 52.4882C13.2842 52.714 13.2197 52.8735 13.1059 52.9669C13.0134 53.1344 12.8678 53.257 12.6689 53.3348C12.4754 53.431 12.1261 53.4415 11.6213 53.3661ZM2.07975 44.5943L3.67816 42.5016C3.71775 42.4297 3.83263 42.2355 4.02279 41.9189C4.22615 41.5782 4.63186 40.998 5.23996 40.1781L8.05487 36.1334C8.44931 35.7577 8.79852 35.3648 9.10253 34.9549C9.40664 34.5449 9.66444 34.2188 9.87611 33.9764C10.1273 33.6622 10.3852 33.336 10.6497 32.9978C10.9141 32.6597 11.0862 32.4891 11.1658 32.4863C11.2929 32.3689 11.4908 32.3922 11.7596 32.556C12.0229 32.7012 12.2626 32.9035 12.4786 33.1631C12.7078 33.3987 12.8345 33.5934 12.859 33.7473C12.9499 33.9224 12.9677 34.0883 12.9124 34.2452C12.8572 34.402 12.6668 34.6483 12.3413 34.984C11.9361 35.3226 11.621 35.625 11.3962 35.8914C11.1899 36.1523 11.0816 36.3346 11.0713 36.4382C11.0713 36.4382 10.9193 36.6432 10.6153 37.0531C10.3112 37.4631 9.94369 37.9317 9.51253 38.4589C8.91476 39.1753 8.43085 39.7983 8.06079 40.328C7.70392 40.8338 7.48344 41.2196 7.39933 41.4854C7.32505 41.507 7.25883 41.5563 7.20069 41.6335C7.16111 41.7053 7.10145 41.7427 7.02178 41.7456C7.02178 41.7456 6.96363 41.8228 6.84725 41.9772C6.72558 42.113 6.64365 42.2474 6.60165 42.3804C6.59131 42.484 6.54267 42.6289 6.45571 42.815C6.38723 42.9959 6.26673 43.1012 6.0942 43.1309C5.98573 43.2429 5.79927 43.4678 5.53484 43.806C5.26497 44.1255 4.98464 44.4783 4.6938 44.8644C4.42152 45.245 4.18763 45.5845 3.9921 45.8826C3.79657 46.1806 3.69488 46.3509 3.68706 46.3934L2.07975 44.5943ZM15.7712 50.5958C15.5297 50.6656 15.3212 50.6755 15.1459 50.6257C14.9889 50.5704 14.7842 50.4888 14.5315 50.3808C14.0713 50.1114 13.6679 49.7954 13.3214 49.4327C12.9935 49.0647 12.8118 48.7148 12.7761 48.3829C12.7889 48.2182 12.7672 48.0736 12.711 47.949C12.668 47.8003 12.6465 47.726 12.6465 47.726C12.5269 47.66 12.4828 47.6124 12.5146 47.5831C12.5411 47.5352 12.5621 47.4687 12.5777 47.3837C12.6891 47.3515 12.6968 47.2386 12.6005 47.045C12.5203 46.9072 12.4848 46.5753 12.4936 46.0495C12.5157 45.4998 12.6016 44.9617 12.7512 44.4353C12.8089 44.2173 12.9062 43.9276 13.0431 43.566C13.1746 43.1858 13.3274 42.8095 13.5014 42.4371C13.6887 42.0409 13.8668 41.7176 14.036 41.4674C14.3874 40.9431 14.7232 40.5038 15.0435 40.1495C15.3822 39.7899 15.7424 39.5045 16.1241 39.2934C16.5058 39.0824 16.9102 38.9151 17.3374 38.7915C17.7831 38.6625 18.1882 38.7064 18.5528 38.9229C19.0336 38.9851 19.4033 39.1498 19.6618 39.4172C19.9389 39.6792 20.1778 40.0528 20.3785 40.5381C20.5955 41.0792 20.7386 41.7825 20.8079 42.648C20.8717 43.495 20.6853 44.5552 20.2487 45.8286C19.9779 46.6315 19.6733 47.2832 19.335 47.7835C18.9967 48.284 18.6039 48.7699 18.1567 49.2415C17.842 49.6143 17.4697 49.893 17.0401 50.0777C16.6106 50.2623 16.1875 50.4351 15.7712 50.5958ZM17.6294 46.3751C17.9359 45.904 18.1109 45.4307 18.1545 44.9552C18.2167 44.4744 18.2665 43.9165 18.3043 43.2817C18.3463 43.1487 18.3391 42.9496 18.2824 42.6842C18.2444 42.4135 18.181 42.1601 18.0927 41.924C17.9989 41.6694 17.8909 41.5396 17.7687 41.5347C17.5639 41.453 17.3887 41.4736 17.2431 41.5962C17.0921 41.7003 16.9134 41.8827 16.7072 42.1437C16.2843 42.7692 15.9201 43.4582 15.6146 44.2108C15.3222 44.9394 15.2094 45.767 15.2762 46.6936C15.3548 47.174 15.5033 47.5135 15.7217 47.7118C15.9533 47.8864 16.2322 47.8762 16.5582 47.6812C16.8973 47.4624 17.2545 47.0269 17.6294 46.3751ZM29.5687 35.6455C29.7858 35.4217 30.0974 35.2813 30.5035 35.2241C30.9043 35.1484 31.2656 35.215 31.5876 35.4237C31.9283 35.627 32.1048 36.0288 32.1174 36.6289C32.0862 36.799 32.0443 37.0023 31.992 37.2388C31.9396 37.4753 31.8927 37.7304 31.8511 38.0041C31.8041 38.2592 31.7545 38.505 31.7022 38.7416C31.6684 38.9727 31.6545 39.168 31.6603 39.3272L31.6845 39.4108C31.9288 39.4206 32.1219 39.5661 32.2635 39.8471C32.4238 40.1227 32.4949 40.3336 32.4767 40.4798C32.4058 40.7216 32.3321 40.8839 32.2553 40.9664C32.1971 41.0437 32.0236 41.1744 31.7348 41.3586C31.6659 41.3987 31.6062 41.436 31.5559 41.4707C31.5241 41.5 31.5096 41.5545 31.5126 41.6341C31.5589 42.0031 31.5906 42.3563 31.6077 42.6935C31.638 43.0067 31.6496 43.3254 31.6427 43.6494C31.6491 43.9495 31.6487 44.2615 31.6419 44.5855C31.6477 44.7448 31.619 44.9242 31.556 45.1235C31.4929 45.323 31.281 45.4949 30.9203 45.6396C30.506 45.5984 30.2071 45.5741 30.0238 45.5668C29.8538 45.5355 29.6995 45.4896 29.5613 45.4289C29.4284 45.3869 29.3189 45.2172 29.2329 44.9201C29.1655 44.6176 29.1368 44.3442 29.1466 44.0998C29.1588 43.7944 29.1726 43.5287 29.1878 43.303C29.2162 43.0532 29.2004 42.6855 29.1403 42.1997C28.936 42.2588 28.7464 42.3338 28.5714 42.4247C28.4097 42.4916 28.2506 42.5678 28.0941 42.6533C27.9509 42.7148 27.8012 42.7884 27.6447 42.8738C27.5069 42.954 27.3572 43.0276 27.1953 43.0945C27.0839 43.1267 26.9632 43.1616 26.8332 43.1992C26.7032 43.2369 26.5732 43.2744 26.4432 43.3121C26.3078 43.3311 26.1512 43.3462 25.9733 43.3574L25.8861 43.4732C25.9212 43.6643 25.9101 43.9392 25.8529 44.2979C25.8089 44.6326 25.8325 44.958 25.9238 45.2737C25.9751 45.5205 26.0134 45.8616 26.0388 46.2971C26.0773 46.7085 26.125 47.047 26.1815 47.3124C26.2812 47.7263 26.1189 48.0349 25.6947 48.2381C25.2944 48.4545 24.7404 48.3833 24.0329 48.0245C23.9425 47.9903 23.8679 47.9414 23.8093 47.8779C23.7693 47.809 23.7145 47.7241 23.6451 47.6235L23.4505 45.3854C23.4496 45.1039 23.4447 44.8437 23.4359 44.6047C23.4218 44.3471 23.4197 44.0962 23.4295 43.8518C23.4599 43.4003 23.4822 42.9208 23.4965 42.4136C23.5053 41.8877 23.553 41.4613 23.6395 41.1344C23.6553 41.0494 23.6601 40.9272 23.6543 40.7678C23.667 40.6032 23.6771 40.4292 23.6844 40.2459C23.6918 40.0627 23.7018 39.8887 23.7146 39.7241C23.7274 39.5593 23.7389 39.4251 23.7491 39.3216C23.7697 39.1144 23.7846 38.8182 23.794 38.4331C23.8165 38.0241 23.8378 37.6455 23.858 37.2976C23.878 36.9496 23.8854 36.7664 23.88 36.7478C23.8767 36.5274 23.9504 36.3651 24.1014 36.2611C24.2471 36.1385 24.3757 36.061 24.4871 36.0288C25.0814 35.8568 25.5356 35.8964 25.8499 36.1478C26.164 36.399 26.3495 36.6573 26.4061 36.9227C26.4197 37.0394 26.44 37.1443 26.4669 37.2372C26.4937 37.33 26.4967 37.4097 26.4757 37.4762L26.1247 40.9589L26.1093 41.1142C26.295 41.0605 26.4753 40.9883 26.6503 40.8974C26.8385 40.7826 27.0254 40.6983 27.2111 40.6446C27.2986 40.5991 27.4325 40.5403 27.6129 40.468C27.8118 40.3903 28.0319 40.3165 28.2734 40.2467C28.5334 40.1715 28.8014 40.1241 29.0776 40.1046C29.1525 39.4591 29.1958 38.9132 29.2076 38.4669C29.2141 38.0022 29.2906 37.4668 29.4374 36.8608C29.4452 36.8183 29.4447 36.6776 29.4359 36.4386C29.4403 36.1757 29.4846 35.9113 29.5687 35.6455ZM37.6397 43.3636C37.5624 43.3054 37.4149 43.2474 37.1969 43.1897C36.979 43.1321 36.8592 43.066 36.8377 42.9918C36.827 42.9546 36.8042 42.9109 36.7696 42.8606C36.7535 42.8049 36.7083 42.7877 36.634 42.8093C36.5621 42.7696 36.5308 42.5572 36.5402 42.1722C36.5682 41.7817 36.6144 41.3154 36.6791 40.7735C36.7622 40.2262 36.86 39.6947 36.9725 39.1792C37.0796 38.645 37.1765 38.2145 37.263 37.8875C37.3397 37.805 37.374 37.7146 37.3657 37.6163C37.3706 37.4941 37.3545 37.4384 37.3173 37.4492C37.3173 37.4492 37.3396 37.3522 37.384 37.1582C37.4417 36.9402 37.4904 36.7953 37.5301 36.7234C37.6034 36.4205 37.6396 36.1282 37.6387 35.8468C37.6323 35.5467 37.5837 35.3091 37.4929 35.1342C37.3917 35.0628 37.3001 35.0591 37.218 35.1232C37.1359 35.1871 37.0948 35.2191 37.0948 35.2191C37.0259 35.2592 36.9252 35.3286 36.7928 35.4273C36.6735 35.502 36.569 35.5927 36.4789 35.6992C36.1378 36.1199 35.865 36.3598 35.6607 36.4189C35.475 36.4726 35.2249 36.3036 34.9102 35.9116C34.7768 35.7287 34.6925 35.5418 34.6574 35.3507C34.6223 35.1597 34.6535 34.9896 34.7513 34.8405C34.8622 34.6675 35.0104 34.4838 35.1956 34.2893C35.3755 34.0763 35.4945 33.9312 35.5527 33.8539C35.7194 33.6648 35.9669 33.4423 36.2954 33.1862C36.6238 32.9302 36.8226 32.7821 36.8915 32.7421C37.3314 32.4539 37.7399 32.3356 38.1172 32.3875C38.4891 32.4208 38.815 32.6083 39.0949 32.9499C39.4463 33.1905 39.6731 33.4871 39.7751 33.8399C39.8772 34.1928 39.8735 34.6668 39.7639 35.2621L39.6063 35.7606C39.5671 35.9731 39.5753 36.0714 39.6311 36.0553C39.7053 36.0338 39.7701 35.9446 39.8254 35.7877C39.8596 35.6973 39.9389 35.5537 40.0629 35.3567C40.1871 35.1598 40.2771 35.0533 40.3328 35.0372C40.3328 35.0372 40.3486 35.0225 40.3804 34.9932C40.4307 34.9585 40.4371 34.8761 40.3996 34.7461C40.4391 34.6743 40.4787 34.6024 40.5184 34.5307C40.5765 34.4534 40.6056 34.4149 40.6056 34.4149C40.6799 34.3933 40.762 34.3293 40.852 34.2228C40.9551 34.0923 41.1203 33.8634 41.3476 33.536C41.5089 33.3283 41.6731 33.2003 41.8402 33.152C42.2298 32.8984 42.6137 32.9383 42.9919 33.2717C43.3887 33.5996 43.6811 34.0886 43.8691 34.7386L43.7193 36.4122L44.3675 34.8963C44.436 34.7155 44.5099 34.5533 44.589 34.4096C44.6868 34.2605 44.7714 34.1355 44.8428 34.0343C44.8423 33.8936 44.8765 33.8031 44.9455 33.7631C45.0144 33.723 45.0488 33.703 45.0488 33.703C45.0488 33.703 45.0674 33.6977 45.1045 33.6869C45.1363 33.6576 45.1441 33.615 45.128 33.5593C45.1994 33.4581 45.2827 33.3636 45.3781 33.2757C45.468 33.1691 45.5207 33.0734 45.5364 32.9884C45.8145 32.767 46.1899 32.6383 46.6625 32.6022C47.1296 32.5476 47.5125 32.6884 47.8111 33.0246C48.0056 33.2099 48.1827 33.37 48.3425 33.5049C48.5022 33.6398 48.6305 33.8744 48.7273 34.2087C48.7706 34.498 48.79 34.7037 48.785 34.8259C48.7987 34.9427 48.815 35.0689 48.8341 35.2042C48.8477 35.321 48.879 35.5333 48.9278 35.8412C48.8965 36.0113 48.8958 36.1826 48.9255 36.3551C48.9739 36.5222 49.0195 36.6801 49.0626 36.8287C49.1324 37.0701 49.19 37.2346 49.2354 37.3221C49.2755 37.391 49.3606 37.4067 49.4906 37.369C49.7344 37.2381 49.9239 37.0928 50.0587 36.9329C50.2069 36.7492 50.3628 36.523 50.5266 36.2542C50.7299 35.9136 50.9606 35.8066 51.2186 35.9333C51.4899 36.0359 51.6855 36.1906 51.8057 36.3973C51.8644 36.461 51.8755 36.6388 51.8393 36.9311C51.8031 37.2233 51.7457 37.5117 51.667 37.796C51.5882 38.0804 51.5024 38.236 51.4096 38.2629C51.3539 38.2791 51.2639 38.3856 51.1398 38.5826C51.0156 38.7795 50.9152 38.9192 50.8384 39.0018C50.746 39.1694 50.6509 39.3277 50.5532 39.4767C50.4739 39.6204 50.3601 39.7137 50.2115 39.7568C50.1372 39.7782 50.0525 39.833 49.9571 39.9209C49.875 39.9849 49.7689 40.0357 49.6389 40.0734C49.4694 40.1828 49.1734 40.2382 48.7512 40.2395C48.3475 40.2356 48.0308 40.0455 47.8012 39.6691C47.6678 39.4863 47.4812 39.2585 47.2412 38.9859C47.02 38.7077 46.8793 38.3258 46.8192 37.84C46.7968 37.4842 46.7546 37.1643 46.6925 36.8804C46.6305 36.5964 46.6112 36.3906 46.6347 36.2632C46.6186 36.2074 46.581 36.0774 46.522 35.8731C46.4574 35.6502 46.3973 35.5468 46.3416 35.563C46.2673 35.5845 46.1549 35.7176 46.0044 35.9624C45.8538 36.2073 45.6849 36.5278 45.4976 36.9242C45.305 37.3019 45.1112 37.7102 44.9161 38.149C44.7397 38.5825 44.591 39.0079 44.4702 39.4252C44.3621 39.6778 44.2861 39.9715 44.2421 40.3063C44.198 40.6411 44.1536 40.8351 44.1086 40.8884C44.0216 41.0745 43.8041 41.1576 43.4561 41.1375C43.1268 41.112 42.8528 41.0001 42.6344 40.8016C42.5465 40.7063 42.4627 40.6601 42.383 40.663C42.298 40.6473 42.2168 40.6104 42.1397 40.5523C42.0756 40.4702 42.0246 40.2937 41.9865 40.0229C41.967 39.7468 41.9669 39.294 41.986 38.6646C42.0076 37.9741 42.0202 37.3566 42.0237 36.8121C42.0404 36.2438 42.0487 35.9596 42.0487 35.9596C42.0272 35.8853 41.9094 35.9999 41.6953 36.3034C41.4758 36.5882 41.2261 36.9423 40.946 37.3655C40.8379 37.6181 40.6903 37.9426 40.5031 38.3389C40.3344 38.7298 40.1354 39.19 39.9061 39.7191C39.6954 40.243 39.4598 40.8546 39.1992 41.5539C38.8809 42.4711 38.6066 43.0537 38.3764 43.3014C38.1647 43.5438 37.9192 43.5645 37.6397 43.3636ZM56.4009 46.8116C56.0138 47.0041 55.7379 47.094 55.5732 47.0812C55.4086 47.0685 55.1774 47.0347 54.8797 46.9799C54.6325 46.8905 54.4516 46.8221 54.3373 46.7746C54.223 46.7272 54.1365 46.6717 54.0778 46.6081C53.7793 46.2718 53.6682 45.9921 53.7444 45.7687C53.8207 45.5455 53.9715 45.371 54.1968 45.2454C54.446 45.133 54.6635 45.05 54.8492 44.9963C55.0007 45.0329 55.2251 45.0083 55.5223 44.9224C55.838 44.831 56.0222 44.7375 56.075 44.6417C56.075 44.6417 56.1424 44.5618 56.2774 44.402C56.4362 44.2554 56.6562 44.1113 56.9372 43.9696C57.4323 43.5245 57.804 43.105 58.0524 42.7112C58.3061 42.3358 58.5378 41.7455 58.7476 40.9401C58.8395 40.6318 58.9273 40.2743 59.011 39.8678C59.1 39.4797 59.1333 39.1078 59.1108 38.752C59.152 38.3376 59.1741 37.7878 59.1771 37.1026C59.1987 36.4121 59.1952 35.7389 59.1664 35.083C59.1323 34.4087 59.0789 33.9108 59.0061 33.5897C58.8167 32.5175 58.7401 31.4528 58.7765 30.3958C58.8074 29.3202 58.7573 28.2076 58.626 27.0581C58.6622 26.7659 58.7028 26.5931 58.7477 26.5399C58.7874 26.468 58.9 26.4052 59.0857 26.3515C59.29 26.2924 59.5503 26.2876 59.8665 26.337C60.1773 26.3678 60.4272 26.4666 60.6164 26.6333C60.9041 26.9324 61.1086 27.3261 61.2297 27.8143C61.364 28.2786 61.3615 28.7222 61.2222 29.1449C61.1117 29.4586 61.0627 29.9155 61.0753 30.5157C61.1011 31.0918 61.1672 31.8073 61.2737 32.6621C61.299 33.0976 61.3365 33.6099 61.3863 34.1993C61.4492 34.7648 61.5217 35.3979 61.6036 36.0988C61.5832 36.3059 61.5643 36.6233 61.5471 37.051C61.5246 37.4601 61.527 37.7813 61.5543 38.0149C61.5571 38.0946 61.5445 38.2593 61.5161 38.509C61.4877 38.7587 61.4566 38.9992 61.4228 39.2304C61.3945 39.4801 61.3725 39.6474 61.3568 39.7325C60.9866 41.7919 60.3318 43.3901 59.3929 44.5271C58.4725 45.6588 57.4751 46.4203 56.4009 46.8116ZM56.4602 38.2509C56.2559 38.31 56.0101 38.2604 55.7227 38.102C55.454 37.9382 55.2636 37.8021 55.1518 37.6936C55.0237 37.5293 54.8334 37.3932 54.5807 37.2851C54.3281 37.1771 54.0925 37.0238 53.8741 36.8254C53.6557 36.627 53.5327 36.3406 53.5048 35.9662C53.5093 35.7033 53.516 35.3089 53.5248 34.7831C53.5283 34.2386 53.5463 33.6397 53.5787 32.9863C53.6056 32.3144 53.6353 31.6517 53.6677 30.9983C53.7186 30.3395 53.7697 29.7511 53.8212 29.2331C53.8726 28.715 53.9364 28.3443 54.0126 28.1211C54.0811 27.9402 54.2253 27.7778 54.4452 27.6336C54.6652 27.4895 54.9012 27.4011 55.1534 27.3684C55.4056 27.3356 55.6143 27.3961 55.7794 27.5496C56.0589 27.7505 56.2456 27.9782 56.3394 28.2328C56.4464 28.4636 56.4292 28.8912 56.2879 29.5157C56.2727 29.7415 56.2443 29.9912 56.2027 30.2649C56.1558 30.5199 56.143 30.6847 56.1645 30.7589C56.1566 30.8015 56.1571 30.9422 56.1659 31.1812C56.1878 31.3963 56.1979 31.6047 56.1959 31.8065C56.1939 32.0084 56.165 32.1173 56.1093 32.1334C56.0565 32.2292 56.0293 32.4484 56.0279 32.791C56.0448 33.1282 56.0727 33.5025 56.1112 33.9141C56.1629 34.3016 56.2225 34.6467 56.2899 34.9492C56.3519 35.2331 56.42 35.3643 56.4943 35.3429C57.07 35.1763 57.5762 34.8387 58.0127 34.33C58.4439 33.8028 58.8515 33.0207 59.2358 31.9836L60.2441 34.5298C60.0217 34.735 59.8206 34.9441 59.6407 35.1572C59.4555 35.3517 59.2968 35.5686 59.1649 35.8081C59.1307 35.8984 59.0301 36.0382 58.8635 36.2273C58.6968 36.4165 58.5274 36.5962 58.3554 36.7667C58.1965 36.9134 58.0893 36.9947 58.0336 37.0108C58.0336 37.0108 58.0083 37.0282 57.958 37.0628C57.9209 37.0736 57.9131 37.1161 57.9346 37.1904C57.9452 37.2275 57.8461 37.3368 57.6369 37.5181C57.4223 37.6808 57.1958 37.8368 56.9572 37.9863C56.7187 38.1359 56.553 38.224 56.4602 38.2509ZM66.9464 43.3382C66.8003 43.32 66.5558 43.2399 66.2127 43.0976C65.8882 42.9499 65.577 42.7783 65.2789 42.5828C65.0047 42.4004 64.8515 42.2536 64.8192 42.1421C64.7871 42.0307 64.7475 41.7201 64.7007 41.2105C64.6592 40.7193 64.6134 40.1086 64.5632 39.3785C64.5369 38.6615 64.5145 37.9233 64.496 37.1639C64.5015 36.4176 64.5286 35.7456 64.577 35.148C64.5873 35.0444 64.6194 34.703 64.6732 34.1239C64.7403 33.5209 64.7658 32.809 64.7498 31.9885C64.7587 31.4627 64.7952 30.8584 64.8594 30.1757C64.9234 29.493 64.9969 28.8076 65.0796 28.1195C65.1569 27.4128 65.2093 26.7938 65.2368 26.2626C65.2642 25.7315 65.3102 25.1948 65.3748 24.6529C65.4341 24.0923 65.4622 23.7722 65.4593 23.6926C65.4642 23.5704 65.5395 23.4479 65.6851 23.3253C65.844 23.1788 66.0082 23.0508 66.1778 22.9412C66.342 22.8133 66.4493 22.7319 66.4996 22.6972C66.8071 22.5077 67.1353 22.5637 67.4841 22.8653C67.6253 23.0055 67.711 23.2323 67.7413 23.5456C67.7848 23.8349 67.7806 24.1682 67.7287 24.5455L67.6949 25.159L68.6333 24.6461C68.8004 24.5977 69.0353 24.5398 69.3378 24.4724C69.6403 24.4051 69.9335 24.3404 70.2175 24.2783C70.52 24.2109 70.7324 24.1797 70.8545 24.1846C71.3056 24.0742 71.6362 24.0691 71.8464 24.1694C72.0751 24.2643 72.2894 24.4136 72.4892 24.6173C72.6089 24.6834 72.758 24.7811 72.9363 24.9107C73.1094 25.0216 73.2266 25.1487 73.2881 25.2919C73.4538 25.5861 73.5334 25.9656 73.5269 26.4304C73.5391 26.8897 73.4889 27.3772 73.3764 27.8928C73.2771 28.3844 73.1234 28.8617 72.9151 29.3245C72.72 29.7632 72.5101 30.1158 72.2852 30.3822C72.121 30.5102 71.978 30.6421 71.8564 30.7779C71.7292 30.8951 71.6657 30.9538 71.6657 30.9538C71.674 31.052 71.5246 31.2664 71.2176 31.5966C70.9293 31.9216 70.5732 32.256 70.1495 32.6C69.7389 32.92 69.356 33.1617 69.0007 33.3249C68.876 33.381 68.6956 33.4533 68.4596 33.5417C68.2235 33.6301 68.0297 33.656 67.8782 33.6193C67.6632 33.6413 67.5186 33.6631 67.4443 33.6845C67.37 33.706 67.3436 33.7539 67.3651 33.8282C67.3572 33.8707 67.3132 34.2054 67.233 34.8324C67.1527 35.4595 67.125 36.3027 67.1497 37.3622C67.1085 38.5415 67.0758 39.5069 67.0518 40.2586C67.0331 41.0288 67.0151 41.6277 66.9979 42.0553C66.9993 42.4776 66.9964 42.7802 66.989 42.9635C66.987 43.1654 66.9728 43.2903 66.9464 43.3382ZM67.3244 31.1833C67.4124 31.2786 67.6181 31.2593 67.9417 31.1255C68.2599 30.973 68.6084 30.7515 68.9872 30.4608C69.3659 30.17 69.6903 29.8649 69.9601 29.5453C70.2431 29.2018 70.3748 28.892 70.3553 28.6159C70.6296 28.0334 70.8207 27.6158 70.9288 27.3631C71.0315 27.0919 70.9712 26.9182 70.7478 26.842C70.4576 26.6039 70.1202 26.5506 69.7355 26.6819C69.3694 26.808 68.8423 27.2121 68.1541 27.8942C67.8706 28.097 67.6866 28.2609 67.602 28.386C67.5121 28.4925 67.4541 28.6401 67.4282 28.8287C67.4208 29.012 67.3873 29.3135 67.3276 29.7333C67.2786 30.1902 67.2559 30.5289 67.2593 30.7493C67.2627 30.9697 67.2844 31.1144 67.3244 31.1833ZM78.4107 31.1158C78.0584 31.3585 77.7522 31.5176 77.4922 31.5928C77.2268 31.6494 76.904 31.612 76.5238 31.4805C76.0449 31.2165 75.8075 30.8826 75.8114 30.479C75.8286 30.0514 76.0528 29.5739 76.4838 29.0467C76.7908 28.7164 77.0278 28.5271 77.1951 28.4787C77.3754 28.4064 77.6635 28.3935 78.0593 28.44C78.8036 28.6474 79.2084 29.0031 79.2738 29.5075C79.3339 29.9933 79.0462 30.5294 78.4107 31.1158ZM99.0301 28.1695C98.9777 28.2653 98.8061 28.3349 98.5173 28.3783C98.2328 28.4403 97.9725 28.3748 97.7353 28.1818C97.5307 27.9593 97.3697 27.6838 97.2544 27.3549C97.1401 27.0257 97.0055 26.5615 96.8518 25.9619C96.7753 25.2797 96.7135 24.3716 96.6674 23.2378C96.6213 22.104 96.5679 20.8414 96.5073 19.45C96.4608 18.0347 96.4056 16.5915 96.3419 15.1205C96.3208 14.4222 96.2929 13.8367 96.2561 13.3641C96.2388 12.8862 96.2168 12.5303 96.1892 12.2968C96.1747 12.0392 96.1684 11.9104 96.1684 11.9104C96.1607 11.9529 96.1433 11.9982 96.1171 12.0459C96.1094 12.0885 96.1007 12.1311 96.0929 12.1736C96.0852 12.2161 96.0775 12.2586 96.0698 12.3011C96.0698 12.3011 96.0512 12.3769 96.015 12.5283C95.9962 12.6746 95.9315 12.9349 95.8178 13.3098C95.7336 13.5757 95.6699 13.8759 95.6257 14.2107C95.5815 14.5455 95.4718 14.9999 95.2957 15.5741C95.1596 16.2173 95.0112 16.9546 94.8487 17.7865C94.6871 18.6182 94.5379 19.2852 94.402 19.7875C94.3309 20.0295 94.261 20.2409 94.1922 20.4217C94.1429 20.5971 94.1122 20.7367 94.1022 20.8403C94.0875 21.066 94.0391 21.3517 93.9579 21.6972C93.8767 22.0426 93.7652 22.3869 93.6223 22.73C93.5599 22.9294 93.4671 23.1674 93.346 23.444C93.2434 23.7152 93.154 23.9625 93.0777 24.1858C92.996 24.3906 92.9552 24.4929 92.9552 24.4929C92.9503 24.6151 92.8806 24.8265 92.7462 25.127C92.6117 25.4275 92.4389 25.7694 92.2277 26.1524C92.0298 26.5116 91.8171 26.8549 91.5898 27.1823C91.0903 27.8903 90.6457 28.3711 90.2561 28.6248C89.8852 28.873 89.3659 28.8521 88.6984 28.5622C88.371 28.3349 88.0901 28.0942 87.8555 27.84C87.6155 27.5672 87.4177 27.1616 87.2619 26.623C87.1061 26.0844 86.9813 25.3054 86.8877 24.2859C86.8404 23.6354 86.7916 22.9452 86.7414 22.215C86.7097 21.4795 86.6862 20.7718 86.6707 20.0921C86.6498 19.3937 86.6371 18.7936 86.6328 18.2916C86.6417 17.7658 86.6471 17.402 86.6491 17.2001C86.5705 16.7197 86.51 16.4755 86.4675 16.4677C86.4196 16.4414 86.3562 16.5704 86.2775 16.8548C86.2066 17.0967 86.0887 17.5937 85.924 18.3458C85.7591 19.0978 85.5801 19.9748 85.3869 20.9766C85.2123 21.9731 85.047 22.9669 84.8909 23.9579C84.5378 25.5896 84.2382 26.9543 83.9922 28.0519C83.7462 29.1495 83.5393 30.0346 83.3716 30.707C83.1985 31.3609 83.0594 31.8539 82.9543 32.1863C82.8731 32.5317 82.8022 32.7737 82.7415 32.9119C82.7049 33.0634 82.6733 33.1631 82.6469 33.211C82.363 33.2731 82.084 33.2129 81.8098 33.0306C81.5357 32.8482 81.2853 32.6088 81.0585 32.312C80.9677 32.1371 80.8834 31.9501 80.8057 31.7512C80.728 31.5523 80.6821 31.3241 80.668 31.0665C80.667 30.785 80.698 30.4742 80.7605 30.134C80.8623 29.5813 80.9762 29.1056 81.1024 28.7068C81.2285 28.3081 81.3087 28.0634 81.3429 27.9731C81.3982 27.8162 81.4321 27.6555 81.4449 27.4907C81.4577 27.326 81.4545 27.176 81.4355 27.0406C81.496 26.9023 81.5682 26.6299 81.6518 26.2233C81.754 25.8114 81.8482 25.3715 81.9342 24.9038C82.013 24.6195 82.1206 24.226 82.257 23.7236C82.3881 23.2027 82.5297 22.6485 82.6817 22.0611C82.8284 21.4551 82.9515 20.9064 83.0507 20.4148C83.4434 18.7112 83.7549 17.3531 83.9853 16.3405C84.2103 15.3094 84.39 14.6436 84.5244 14.343C84.6275 14.2125 84.6879 14.0039 84.7056 13.7171C84.7365 13.4062 84.7702 13.1751 84.8069 13.0236C84.9164 12.4284 85.0528 11.926 85.2162 11.5165C85.3926 11.083 85.583 10.8368 85.7873 10.7776C85.9359 10.7346 86.1377 10.7366 86.3929 10.7836C86.6665 10.8252 86.9443 10.9158 87.2263 11.0556C87.5004 11.238 87.7802 11.5093 88.0655 11.8696C88.3641 12.2058 88.5516 12.7151 88.6282 13.3973C88.6956 13.6998 88.754 14.0754 88.8033 14.5241C88.8472 14.9541 88.8911 15.3842 88.935 15.8143C88.9789 16.2444 89.0041 16.6094 89.0103 16.9095C89.1036 17.7882 89.1674 18.6352 89.202 19.4503C89.2498 20.2415 89.2907 20.9744 89.3248 21.6487C89.3589 22.3232 89.3994 22.9152 89.4462 23.425C89.4877 23.9162 89.5328 24.3157 89.5816 24.6236C89.649 24.9261 89.7426 25.1104 89.8623 25.1763C89.9234 25.1788 89.9923 25.1388 90.069 25.0562C90.1589 24.9497 90.221 24.8512 90.2553 24.7608C90.3237 24.58 90.3829 24.4018 90.4328 24.2264C90.4827 24.051 90.5496 23.8303 90.6337 23.5645C90.8127 23.0699 90.9901 22.5355 91.1662 21.9614C91.3555 21.3632 91.5681 20.6375 91.8043 19.7842C92.0537 18.9071 92.3384 17.8385 92.6582 16.5788C92.9727 15.3003 93.351 13.7216 93.794 11.8426C94.0325 11.069 94.2535 10.3008 94.4551 9.53802C94.6577 8.77505 94.8654 8.1716 95.0791 7.72735C95.2711 7.34968 95.5852 7.14813 96.0205 7.12283C96.4753 7.09204 96.9319 7.2114 97.3925 7.48066C97.8531 7.75002 98.1788 8.14868 98.3718 8.67658C98.4656 8.9312 98.5447 9.41156 98.6081 10.1177C98.6846 10.8 98.7392 11.5792 98.7707 12.4555C98.8033 13.3318 98.8023 14.1975 98.7677 15.0528C98.8038 15.3846 98.831 15.8294 98.8513 16.387C98.8727 16.9445 98.8865 17.5141 98.8938 18.0956C98.9001 18.6773 98.9009 19.2004 98.8944 19.6652C98.947 20.3342 98.9805 20.868 98.9957 21.2662C99.0285 21.6592 99.1153 22.097 99.2552 22.5799C99.174 22.9254 99.186 23.3848 99.291 23.958C99.397 24.5313 99.5356 25.1151 99.7068 25.7094C99.8427 26.4552 99.8327 27.0115 99.6766 27.3786C99.5401 27.7402 99.4322 27.9224 99.3519 27.9254C99.187 27.9127 99.0804 27.994 99.0301 28.1695ZM103.419 24.8167C103.302 24.6896 103.092 24.5894 102.789 24.516C102.505 24.4373 102.352 24.3607 102.33 24.2864C102.309 24.2121 102.23 24.1142 102.094 23.9926C101.971 23.8468 101.862 23.7476 101.767 23.6948C101.641 23.6103 101.592 23.3328 101.617 22.8628C101.636 22.374 101.703 21.771 101.817 21.0536C101.932 20.3361 102.072 19.6014 102.236 18.8493C102.342 18.6578 102.434 18.4198 102.513 18.1355C102.591 17.851 102.657 17.6609 102.71 17.5651C102.689 17.4908 102.698 17.4177 102.737 17.3459C102.772 17.2555 102.826 17.1995 102.9 17.178L102.994 16.6679C103.01 16.5828 103.078 16.4021 103.199 16.1254C103.34 15.8434 103.511 15.5322 103.715 15.1915C103.912 14.8325 104.116 14.4918 104.324 14.1699C104.551 13.8424 104.742 13.5962 104.895 13.431C105.21 13.0582 105.574 12.822 105.989 12.7223C106.421 12.6173 106.82 12.6425 107.188 12.798C107.259 12.8376 107.412 12.9141 107.646 13.0275C107.899 13.1356 108.175 13.2568 108.477 13.3912C108.796 13.5204 109.072 13.6416 109.306 13.7549L110.603 14.3761L110.532 15.9061C110.506 16.7187 110.629 17.3875 110.901 17.9124C111.173 18.4374 111.49 18.8692 111.85 19.2079C112.001 19.3853 112.168 19.5082 112.349 19.5767C112.548 19.6399 112.783 19.6523 113.054 19.6143C113.208 19.5899 113.363 19.6053 113.52 19.6605C113.677 19.7157 113.786 19.8455 113.844 20.0499C113.973 20.4956 113.984 20.8447 113.876 21.0973C113.781 21.326 113.646 21.4858 113.471 21.5767C112.88 21.8283 112.275 21.9326 111.659 21.8895C111.044 21.8463 110.389 21.462 109.696 20.7367C109.589 20.6468 109.428 20.4721 109.212 20.2124C109.009 19.9291 108.885 19.7435 108.839 19.6561C108.792 19.7704 108.725 19.9207 108.638 20.1068C108.564 20.2691 108.488 20.422 108.408 20.5657C107.476 22.2844 106.597 23.485 105.768 24.1675C104.951 24.8263 104.169 25.0425 103.419 24.8167ZM104.283 22.0612C104.418 22.0422 104.603 21.9181 104.839 21.6889C105.069 21.4412 105.363 21.0644 105.719 20.5587C106.195 19.8375 106.586 19.2413 106.892 18.7702C107.199 18.2991 107.467 17.7286 107.696 17.0586L108.018 15.8785C107.709 15.5051 107.462 15.2747 107.275 15.1878C107.089 15.1008 106.922 15.0787 106.773 15.1217C106.532 15.1915 106.289 15.4328 106.046 15.8452C105.798 16.2391 105.547 16.7948 105.291 17.5128C105.05 18.2066 104.795 19.0652 104.527 20.0885C104.404 20.567 104.333 21.0201 104.316 21.4477C104.294 21.8567 104.283 22.0612 104.283 22.0612ZM116.144 28.8035C116.069 28.825 115.958 28.8572 115.81 28.9002C115.685 28.9565 115.552 28.9143 115.411 28.7741C115.31 28.7027 115.144 28.5493 114.916 28.3136C114.692 28.0967 114.557 27.7332 114.509 27.2236C114.511 26.8809 114.493 26.5438 114.458 26.2118C114.428 25.8987 114.391 25.6677 114.348 25.5192C114.327 25.4449 114.302 25.291 114.276 25.0573C114.272 24.8369 114.257 24.6802 114.23 24.5873C114.279 24.4119 114.295 24.1862 114.275 23.9101C114.256 23.6339 114.217 23.3937 114.157 23.1895C114.093 22.9665 114.146 22.73 114.314 22.4799C114.271 22.3313 114.246 22.1375 114.237 21.8985C114.247 21.6541 114.241 21.4948 114.219 21.4205C114.199 21.1445 114.189 20.6546 114.187 19.9507C114.197 19.2231 114.221 18.401 114.258 17.4847C114.314 16.563 114.365 15.6626 114.412 14.7834C114.46 13.9043 114.515 13.1538 114.576 12.5323C114.649 11.9477 114.695 11.4111 114.715 10.9224C114.734 10.4337 114.717 10.0966 114.663 9.91089C114.641 9.83661 114.645 9.77541 114.671 9.72753C114.692 9.66108 114.745 9.53484 114.832 9.34857C114.964 9.10916 115.187 8.97434 115.501 8.94401C115.827 8.88987 116.114 8.90741 116.361 8.9969C116.58 9.19534 116.747 9.3887 116.861 9.57687C116.989 9.7411 117.075 10.0382 117.119 10.4684C117.199 10.7469 117.209 11.0258 117.149 11.3048C117.084 11.5652 117.017 11.7859 116.949 11.9667C116.893 12.1236 116.882 12.1872 116.914 12.158C117.585 11.4202 118.241 10.9387 118.88 10.7134C119.533 10.4642 120.123 10.4145 120.649 10.5642C121.188 10.6899 121.646 10.9499 122.022 11.3444C122.397 11.7388 122.663 12.2053 122.818 12.744C122.883 12.9669 122.895 13.2855 122.854 13.6998C122.813 14.1143 122.748 14.5155 122.659 14.9035C122.565 15.2729 122.477 15.5295 122.398 15.6733C122.324 15.6947 122.268 15.7812 122.232 15.9326C122.19 16.0656 122.153 16.2171 122.122 16.3872C122.027 16.6159 121.838 16.9019 121.555 17.2455C121.285 17.5651 120.996 17.8501 120.686 18.1008C120.371 18.3328 120.13 18.4425 119.965 18.4298C119.965 18.4298 119.943 18.4565 119.898 18.5097C119.872 18.5576 119.872 18.628 119.899 18.7208C119.909 18.758 119.801 18.87 119.573 19.0566C119.346 19.2432 119.069 19.434 118.743 19.6289C118.417 19.8239 118.105 19.9644 117.808 20.0503C117.417 20.1632 117.118 20.1694 116.908 20.0692C116.881 20.1171 116.851 20.1863 116.817 20.2766C116.802 20.3616 116.801 20.4321 116.818 20.4878C116.85 20.5992 116.855 20.789 116.831 21.0574C116.826 21.3204 116.795 21.5608 116.738 21.7786C116.686 22.0152 116.613 22.147 116.52 22.1738C116.52 22.1738 116.51 22.207 116.489 22.2735C116.468 22.3399 116.508 22.4088 116.609 22.4802C116.609 22.4802 116.629 22.5851 116.67 22.7947C116.734 23.0176 116.741 23.2167 116.691 23.3922C116.734 23.5408 116.772 23.7716 116.801 24.085C116.832 24.3982 116.831 24.6398 116.8 24.8099C116.864 25.0328 116.889 25.2572 116.874 25.4828C116.883 25.7218 116.85 25.8521 116.775 25.8737C116.707 25.9136 116.692 26.0385 116.733 26.2481C116.779 26.4764 116.816 26.6368 116.843 26.7297C116.958 27.1995 116.925 27.6417 116.743 28.0566C116.566 28.4901 116.367 28.7391 116.144 28.8035ZM116.889 18.0218C117.037 17.9788 117.288 17.8358 117.641 17.593C117.993 17.3503 118.356 17.0741 118.729 16.7649C119.097 16.437 119.372 16.1361 119.555 15.8619C119.914 15.295 120.164 14.7698 120.307 14.2859C120.467 13.7967 120.316 13.3471 119.856 12.937C119.632 12.72 119.361 12.6876 119.042 12.8401C118.738 12.9686 118.428 13.2192 118.113 13.5922C117.798 13.9649 117.493 14.4054 117.198 14.9136C117.044 15.2195 116.921 15.5572 116.826 15.9267C116.732 16.2961 116.663 16.6482 116.619 16.9829C116.593 17.3124 116.601 17.5818 116.642 17.7915C116.676 17.9827 116.759 18.0593 116.889 18.0218ZM126.88 18.7541C126.721 18.7599 126.485 18.6771 126.174 18.5055C125.857 18.3154 125.551 18.0919 125.256 17.8353C124.979 17.5733 124.811 17.3401 124.752 17.1359C124.785 16.9048 124.804 16.5168 124.808 15.9725C124.806 15.4095 124.819 14.7615 124.848 14.0285C124.938 13.7812 124.98 13.5075 124.974 13.2073C124.986 12.902 124.997 12.627 125.006 12.3828C125.069 12.0426 125.126 11.6135 125.178 11.0955C125.242 10.5536 125.307 10.0116 125.371 9.46955C125.43 8.90907 125.486 8.44017 125.538 8.06293C125.583 7.86883 125.627 7.67496 125.671 7.48086C125.716 7.28676 125.752 7.0955 125.777 6.9069C125.75 6.81405 125.772 6.71711 125.844 6.61586C125.909 6.49617 126.012 6.3962 126.15 6.31609C126.232 6.25198 126.326 6.19465 126.432 6.14385C126.556 6.0877 126.684 6.0407 126.814 6.00322C127.074 5.92792 127.354 6.02799 127.655 6.30318C127.969 6.55443 128.164 6.81005 128.239 7.07003C128.352 7.46001 128.382 7.80383 128.327 8.10142C128.285 8.37517 128.217 8.62631 128.122 8.85499C128.022 9.06519 127.933 9.28185 127.857 9.50526C127.8 9.72317 127.813 9.98072 127.899 10.2778C127.921 10.3521 127.989 10.3425 128.102 10.2494C128.211 10.1374 128.335 10.0108 128.476 9.86965C128.603 9.7524 128.774 9.54201 128.987 9.23862C129.22 8.92974 129.462 8.61823 129.713 8.30407C129.959 7.97125 130.176 7.74751 130.365 7.63259C130.693 7.23589 130.958 6.93758 131.163 6.73765C131.361 6.51928 131.516 6.39391 131.627 6.3617C131.831 6.30263 132.083 6.3708 132.381 6.56634C132.673 6.74331 132.852 6.94322 132.917 7.16606C132.97 7.35176 132.949 7.55907 132.854 7.78774C132.773 7.99245 132.642 8.23186 132.459 8.50607C132.16 8.93455 131.797 9.38189 131.368 9.84807C130.934 10.2957 130.536 10.6927 130.172 11.0392C129.823 11.3617 129.625 11.5801 129.577 11.6944C129.582 11.713 129.68 11.8056 129.869 11.9722C130.071 12.1151 130.291 12.2829 130.528 12.476C130.699 12.6479 130.859 12.8229 131.012 13.0002C131.176 13.1538 131.32 13.3033 131.444 13.4489C131.83 13.8804 132.147 14.2113 132.394 14.4417C132.655 14.648 132.915 14.744 133.173 14.7298C133.425 14.6972 133.764 14.5487 134.191 14.2843C134.511 14.0708 134.799 14.058 135.055 14.2457C135.329 14.4279 135.496 14.6213 135.555 14.8256C135.582 14.9184 135.555 15.0367 135.477 15.1803C135.416 15.3186 135.33 15.4743 135.22 15.6472C134.992 15.9747 134.7 16.2904 134.346 16.5942C134.015 16.9113 133.748 17.0995 133.543 17.1585C133.338 17.2177 133.1 17.2265 132.826 17.1849C132.553 17.1432 132.176 16.9904 131.697 16.7265C131.218 16.4625 130.557 16.0198 129.713 15.3985C129.692 15.3242 129.61 15.2171 129.469 15.0767C129.323 14.9179 129.176 14.759 129.029 14.6002C128.912 14.4731 128.803 14.3738 128.701 14.3025C128.614 14.2072 128.557 14.1529 128.534 14.1397C128.56 14.2326 128.537 14.2194 128.462 14.1001C128.406 13.9755 128.319 13.8496 128.201 13.7226C128.079 13.5769 127.944 13.5255 127.795 13.5686C127.721 13.5901 127.653 13.7404 127.593 14.0194C127.528 14.2798 127.469 14.5987 127.417 14.9759C127.389 15.2256 127.366 15.494 127.348 15.7809C127.331 16.0677 127.331 16.3493 127.351 16.6254C127.384 16.8775 127.432 17.115 127.497 17.3379C127.578 17.6164 127.569 17.9006 127.472 18.1904C127.393 18.4749 127.195 18.6628 126.88 18.7541ZM140.438 15.2845C139.417 15.5799 138.542 15.5112 137.813 15.078C137.103 14.6395 136.57 13.8075 136.215 12.5818C136.022 11.9131 135.93 11.1446 135.94 10.2763C135.969 9.40243 136.078 8.52569 136.267 7.64603C136.473 6.76103 136.747 5.96738 137.087 5.26516C137.422 4.54436 137.808 3.99999 138.245 3.63203C138.404 3.48547 138.58 3.36413 138.773 3.26782C138.98 3.14766 139.185 3.0581 139.39 2.9989C139.613 2.93445 139.86 2.88321 140.13 2.84517C140.414 2.78307 140.69 2.7636 140.959 2.78651C141.424 2.79299 141.867 2.93628 142.291 3.21638C142.732 3.49114 143.055 3.98134 143.26 4.68701C143.314 4.87271 143.354 5.08236 143.381 5.31606C143.403 5.53107 143.397 5.7542 143.363 5.98534C143.299 6.66797 143.097 7.36047 142.757 8.06269C142.435 8.75955 142.037 9.29727 141.563 9.67597C141.436 9.79322 141.303 9.892 141.165 9.97211C141.041 10.0283 140.905 10.0779 140.756 10.1209C140.366 10.2336 139.997 10.2801 139.649 10.26C139.32 10.2345 138.998 10.1666 138.684 10.056L138.406 9.92539L138.346 10.2444C138.318 10.6348 138.312 10.9588 138.325 11.2164C138.358 11.4685 138.391 11.6504 138.423 11.7618C138.487 11.9847 138.564 12.2142 138.652 12.4502C138.735 12.6677 138.845 12.8373 138.981 12.959C139.082 13.0304 139.197 13.0777 139.324 13.1013C139.47 13.1193 139.636 13.1015 139.822 13.0477C139.933 13.0156 140.035 12.986 140.128 12.9592C140.234 12.9084 140.322 12.8629 140.39 12.8229C140.703 12.6518 140.938 12.4532 141.094 12.227C141.263 11.9768 141.45 11.7517 141.653 11.5519L141.749 11.4639L141.696 11.3885C141.964 11.13 142.147 10.9661 142.248 10.8966C142.344 10.8087 142.414 10.7382 142.458 10.6849C142.512 10.589 142.585 10.5277 142.677 10.5009C142.927 10.3885 143.199 10.3902 143.494 10.5061C143.802 10.598 143.994 10.774 144.069 11.034C144.101 11.1454 144.069 11.346 143.972 11.6358C143.893 11.9202 143.768 12.2182 143.597 12.5294C143.438 12.8168 143.257 13.0603 143.053 13.2601C143.002 13.2949 142.954 13.3389 142.91 13.3921C142.86 13.4268 142.812 13.4708 142.767 13.524L142.795 13.516C142.692 13.7872 142.557 13.9471 142.39 13.9954L142.167 14.0598C142.131 14.2113 141.929 14.4204 141.564 14.6871C141.203 14.9726 140.828 15.1716 140.438 15.2845ZM139.945 8.15173C140.112 8.1034 140.253 8.03245 140.366 7.93917C140.499 7.84048 140.619 7.73515 140.728 7.62327C141.082 7.17868 141.252 6.68684 141.237 6.14774C141.222 5.60873 141.065 5.24141 140.767 5.04587C140.714 5.0009 140.657 4.97714 140.596 4.97467C140.53 4.95364 140.459 4.95392 140.384 4.97542C140.18 5.03449 139.967 5.16667 139.744 5.37196C139.54 5.57177 139.353 5.82728 139.181 6.13864C139.01 6.44986 138.87 6.80216 138.763 7.1956L138.57 7.88535C138.602 7.85604 138.627 7.83865 138.645 7.83339C138.677 7.80408 138.702 7.78669 138.721 7.7812C138.887 7.73298 139.015 7.75646 139.103 7.85178C139.192 7.94697 139.288 8.03967 139.395 8.12959C139.52 8.21417 139.703 8.22155 139.945 8.15173ZM148.618 11.3785C148.222 11.3321 147.87 11.1923 147.561 10.9598C147.265 10.7031 147.053 10.3519 146.924 9.90624C146.87 9.72054 146.817 9.39398 146.761 8.92682C146.707 8.45963 146.664 7.92864 146.633 7.33383C146.602 6.73911 146.581 6.18144 146.572 5.66101C146.661 5.27294 146.684 4.90381 146.644 4.55332C146.621 4.19758 146.6 3.98244 146.578 3.90816C146.55 3.67468 146.53 3.3587 146.515 2.96033C146.5 2.56208 146.496 2.20095 146.504 1.87685C146.523 1.52895 146.546 1.33105 146.573 1.28317C146.639 1.16345 146.78 1.06205 146.999 0.978908C147.216 0.895895 147.446 0.859419 147.691 0.86913C147.93 0.860397 148.113 0.938146 148.241 1.10238C148.51 1.26614 148.718 1.56818 148.866 2.0085C149.032 2.44345 149.099 2.98764 149.066 3.64109C149.007 4.06094 148.966 4.54557 148.943 5.09553C148.921 5.64527 148.907 6.1526 148.901 6.61732C148.908 7.05808 148.924 7.35549 148.948 7.50942L147.937 7.77169C148.166 7.38328 148.375 6.99081 148.562 6.59457C148.744 6.17962 148.873 5.86056 148.95 5.63716C149.142 5.11873 149.309 4.68797 149.451 4.34497C149.607 3.9779 149.811 3.5364 150.064 3.02034C150.312 2.48581 150.625 2.07315 151.005 1.78227C151.378 1.47305 151.667 1.28879 151.871 1.22971C152.301 1.18584 152.725 1.29462 153.142 1.55628C153.574 1.79376 153.923 2.23609 154.191 2.88325C154.266 3.14323 154.327 3.45765 154.373 3.82671C154.438 4.19029 154.47 4.37209 154.47 4.37209C154.47 4.37209 154.565 4.14341 154.755 3.68596C154.964 3.22314 155.26 2.68453 155.646 2.06978C155.923 1.70765 156.225 1.45966 156.547 1.32587C156.866 1.17348 157.195 1.19886 157.536 1.40223C158.094 1.52247 158.579 1.87541 158.99 2.46093C159.401 3.04655 159.687 3.75872 159.849 4.59719C159.933 5.09624 160.046 5.48622 160.187 5.76734C160.342 6.02443 160.489 6.25364 160.627 6.45501C160.966 6.71934 161.089 7.00583 160.998 7.31415C160.9 7.60391 160.786 7.7677 160.657 7.80528C160.471 7.85898 160.181 7.90252 159.788 7.93565C159.395 7.96878 159.014 7.93819 158.645 7.8438C158.294 7.74401 158.072 7.5364 157.982 7.22057L157.481 5.49343C157.364 5.08476 157.259 4.793 157.168 4.61816C157.09 4.41925 157.007 4.30262 156.916 4.2684C156.679 4.21606 156.453 4.37217 156.236 4.73677C156.019 5.10126 155.811 5.59455 155.608 6.21669C155.418 6.81487 155.22 7.48604 155.013 8.23022C154.827 8.90805 154.641 9.3443 154.456 9.53874C154.265 9.7146 154.049 9.76713 153.807 9.69621C153.361 9.68437 153.05 9.58314 152.874 9.39263C152.711 9.17796 152.624 8.91143 152.612 8.59283C152.614 8.25017 152.607 7.80938 152.592 7.27028C152.596 6.72591 152.595 6.20276 152.591 5.70089C152.581 5.18036 152.562 4.8033 152.535 4.56972C152.418 4.44263 152.275 4.4338 152.105 4.54322C151.948 4.6287 151.796 4.76334 151.648 4.94704C151.469 5.16014 151.273 5.38782 151.061 5.63026C150.868 5.8672 150.682 6.30333 150.504 6.93855C150.382 7.35606 150.245 7.81859 150.09 8.32616C149.93 8.81538 149.777 9.26209 149.632 9.66617C149.506 10.0649 149.387 10.3508 149.276 10.5239C149.243 10.8958 149.185 11.1442 149.1 11.2694C149.01 11.3759 148.849 11.4123 148.618 11.3785Z" fill="#5E8BDC"></path></svg> 