<?xml version="1.0" encoding="UTF-8"?> <svg xmlns="http://www.w3.org/2000/svg" width="106" height="106" viewBox="0 0 106 106" fill="none"><rect width="106" height="106" rx="7" fill="white"></rect><path d="M76.583 24.2258L25.252 57.8818C22.6704 59.5758 23.215 63.4272 26.169 64.375L77.5 80.8293C79.915 81.6035 82.4 79.8465 82.4 77.3643V27.254C82.4 24.3364 79.0638 22.599 76.583 24.2258Z" fill="#2EBCFA"></path><path d="M80.5394 24.0872L55.1294 73.6584L79.9514 81.616C81.1582 82.0024 82.4014 81.1246 82.4014 79.8828L82.4 26.7934C82.4 26.7934 82.232 25.8302 81.7434 25.1484C81.2982 24.5254 80.5394 24.0872 80.5394 24.0872Z" fill="#985184"></path><path d="M37.439 67.8877L80.538 24.0789L50.6508 82.4001L37.439 67.8877Z" fill="#144496"></path></svg> 