<?xml version="1.0" encoding="UTF-8"?> <svg xmlns="http://www.w3.org/2000/svg" width="136" height="40" viewBox="0 0 136 40" fill="none"><path d="M1.17296 39.2247C0.761889 39.0642 0.470389 38.8489 0.298449 38.579C0.126509 38.3091 0.0274687 38.0004 0.00132874 37.6528C-0.00565126 37.3028 0.0148687 36.9393 0.0628887 36.5625C0.135689 35.929 0.231919 35.3996 0.351569 34.9744C0.487879 34.5275 0.613349 34.0723 0.727969 33.6088C0.859239 33.1236 0.945399 32.5175 0.986439 31.7907C1.20001 31.0411 1.38026 30.335 1.52722 29.6722C1.69335 29.0069 1.81707 28.4642 1.89839 28.044C1.97971 27.6239 2.02037 27.4138 2.02037 27.4138C2.02947 27.3346 2.07971 27.1233 2.1711 26.7798C2.28165 26.4338 2.41215 26.0169 2.5626 25.5292C2.72969 25.0197 2.8872 24.5116 3.03513 24.0046C3.24017 23.0418 3.44492 22.2251 3.64938 21.5548C3.85132 20.8653 4.06208 20.2429 4.28165 19.6876C4.52038 19.1298 4.77828 18.5694 5.05536 18.0066C5.23252 17.5738 5.52692 17.2914 5.93857 17.1593C6.35021 17.0273 6.75907 17.0223 7.16507 17.1445C7.56857 17.2475 7.85307 17.4832 8.01837 17.8514C8.13937 18.0305 8.24507 18.2409 8.33527 18.4826C8.44467 18.7217 8.56087 19.0867 8.68377 19.5775C8.82337 20.0466 8.96317 20.74 9.10317 21.6576C9.28497 22.7452 9.43637 23.749 9.55717 24.6691C9.69467 25.5675 9.84247 26.3963 10.0007 27.1555C10.1781 27.9122 10.3945 28.5955 10.6501 29.2054C10.7529 29.5429 10.8658 29.9571 10.9888 30.4479C11.1092 30.9196 11.2297 31.3912 11.3501 31.8629C11.4897 32.3321 11.6192 32.7245 11.7387 33.0403C11.8557 33.337 11.9525 33.4803 12.0292 33.4702C12.125 33.4576 12.2204 33.3671 12.3152 33.1986C12.4268 33.0085 12.5527 32.6312 12.6931 32.0668C12.8335 31.5024 12.9936 30.6429 13.1734 29.4883C13.3533 28.3337 13.5499 26.787 13.7633 24.848C13.8163 24.5095 13.8717 23.966 13.9294 23.2175C14.0063 22.4664 14.0339 21.7121 14.0125 20.9544C14.0837 20.4576 14.1487 19.9128 14.2073 19.3201C14.266 18.7274 14.3143 18.2044 14.3522 17.7509C14.4094 17.2949 14.4341 17.0382 14.4266 16.9807C14.409 16.8465 14.3939 16.7315 14.3813 16.6356C14.3879 16.5373 14.3753 16.4414 14.3435 16.3481C14.4394 16.3355 14.5093 16.1996 14.5532 15.9403C14.5946 15.6619 14.6028 15.4268 14.5776 15.2351C14.5348 14.9093 14.5392 14.6455 14.5907 14.4437C14.6588 14.2203 14.7345 14.0543 14.8178 13.9459C14.9783 13.5348 15.2215 13.3079 15.5474 13.2651C15.8899 13.2006 16.2187 13.2549 16.534 13.428C16.8467 13.582 17.0507 13.7989 17.1459 14.0789C17.2119 14.2847 17.2174 14.7715 17.1622 15.5392C17.1237 16.2852 17.0424 17.3001 16.9185 18.5839C16.9462 18.7947 16.934 19.1473 16.8819 19.6416C16.8299 20.1359 16.772 20.6603 16.7083 21.2146C16.6638 21.7665 16.6379 22.2378 16.6307 22.6288C16.6195 23.1372 16.5949 23.6182 16.557 24.0716C16.5165 24.5059 16.4471 24.7198 16.3487 24.7132C16.1348 26.9447 15.8506 28.8637 15.4961 30.4702C15.1582 32.0551 14.8413 33.3544 14.5455 34.3682C14.2239 35.4829 13.7178 36.2318 13.0271 36.615C12.3581 37.0149 11.6654 36.8621 10.9487 36.1567C10.5191 35.7062 10.1482 35.2576 9.83607 34.8111C9.52397 34.3646 9.24837 33.8256 9.00947 33.194C8.77057 32.5624 8.52807 31.7558 8.28217 30.7741C8.06147 29.9841 7.85277 29.212 7.65627 28.4579C7.47637 27.682 7.31447 26.8941 7.17037 26.094C7.02377 25.2748 6.89967 24.4039 6.79797 23.4813C6.67367 22.3861 6.54145 21.7503 6.40126 21.5737C6.28024 21.3946 6.15032 21.5189 6.0115 21.9466C5.87267 22.3743 5.72397 22.9496 5.5654 23.6724C5.48156 24.0734 5.37653 24.5356 5.25029 25.0592C5.1407 25.5611 5.02153 26.0642 4.89277 26.5686C4.76401 27.073 4.6552 27.5065 4.56633 27.8692C4.47746 28.2318 4.42015 28.4636 4.3944 28.5645C4.30959 28.8096 4.21569 29.1339 4.11268 29.5374C4.00716 29.9218 3.93417 30.3311 3.8937 30.7654C3.44025 32.6579 3.12659 34.2785 2.95272 35.6273C2.79551 36.9544 2.66792 37.8389 2.56995 38.2807C2.44874 38.8426 2.30943 39.1924 2.15202 39.3301C2.01377 39.4652 1.68742 39.4301 1.17296 39.2247ZM18.9775 33.7862C18.8807 33.6429 18.6881 33.5122 18.3996 33.3941C18.1302 33.2735 17.9905 33.1748 17.9804 33.0981C17.9704 33.0215 17.9074 32.9127 17.7914 32.772C17.692 32.6095 17.599 32.495 17.5123 32.4284C17.4013 32.326 17.3936 32.0443 17.489 31.5832C17.582 31.103 17.739 30.5169 17.9601 29.8249C18.1812 29.1329 18.4298 28.4275 18.7059 27.7088C18.8391 27.5353 18.9661 27.3139 19.0867 27.0446C19.2073 26.7752 19.3009 26.5972 19.3675 26.5105C19.3575 26.4338 19.3774 26.3629 19.4274 26.2979C19.4748 26.2136 19.5368 26.1665 19.6135 26.1564L19.7831 25.6662C19.8114 25.5845 19.9063 25.416 20.0678 25.1608C20.2484 24.9031 20.4649 24.6212 20.7172 24.3151C20.9669 23.9898 21.2192 23.6836 21.474 23.3967C21.748 23.1072 21.9733 22.8924 22.1499 22.7522C22.5172 22.431 22.9129 22.2523 23.3372 22.2161C23.7806 22.1773 24.172 22.2624 24.5114 22.4713C24.5765 22.5213 24.7162 22.6199 24.9305 22.7673C25.164 22.9121 25.4192 23.0736 25.6961 23.2517C25.9922 23.4273 26.2474 23.5888 26.4617 23.7362L27.6502 24.5453L27.3502 26.0472C27.2017 26.8466 27.2227 27.5264 27.4132 28.0863C27.6037 28.6463 27.8513 29.1207 28.1558 29.5097C28.2794 29.708 28.4254 29.8546 28.5938 29.9495C28.7815 30.0418 29.012 30.0895 29.2854 30.0926C29.4412 30.0917 29.5925 30.1303 29.7393 30.2085C29.8861 30.2867 29.9733 30.4313 30.001 30.6421C30.0614 31.1022 30.0192 31.449 29.8744 31.6825C29.7462 31.8943 29.5888 32.032 29.4021 32.0955C28.7796 32.2552 28.167 32.2674 27.5642 32.1321C26.9615 31.9967 26.3722 31.5184 25.7964 30.6971C25.7046 30.5921 25.5715 30.3951 25.397 30.106C25.2392 29.7953 25.1444 29.5932 25.1127 29.4999C25.0486 29.6058 24.9595 29.7442 24.8455 29.9152C24.7481 30.0645 24.6494 30.2042 24.5495 30.3343C23.3698 31.8932 22.3188 32.9477 21.3966 33.4978C20.491 34.0262 19.6846 34.1223 18.9775 33.7862ZM20.2455 31.192C20.3822 31.1935 20.5843 31.0988 20.8517 30.9077C21.1166 30.6974 21.4634 30.3691 21.8923 29.9228C22.471 29.2813 22.9474 28.7508 23.3212 28.3312C23.6951 27.9116 24.0456 27.3878 24.3726 26.7599L24.8692 25.6417C24.6197 25.226 24.4094 24.9611 24.2384 24.8471C24.0674 24.7331 23.9053 24.6861 23.7519 24.7062C23.5027 24.739 23.227 24.9409 22.9248 25.3121C22.62 25.6641 22.2875 26.1758 21.9271 26.8471C21.5835 27.4967 21.2024 28.3072 20.784 29.2786C20.5902 29.733 20.4526 30.1703 20.3713 30.5905C20.2875 30.9915 20.2455 31.192 20.2455 31.192ZM38.2086 32.0505C38.0845 32.1448 37.8986 32.1399 37.651 32.036C37.4225 31.9295 37.1852 31.7559 36.9391 31.5152C36.7747 31.3028 36.6391 31.0866 36.5322 30.8667C36.442 30.625 36.3654 30.2646 36.3025 29.7854C36.2713 29.3995 36.2373 29.1407 36.2005 29.009C36.1804 28.8557 36.0929 28.8574 35.938 29.0143C35.7997 29.1494 35.5212 29.4785 35.1024 30.0015C34.6861 30.5436 34.2802 31.0162 33.8846 31.4191C33.5057 31.8003 33.1808 31.999 32.9099 32.0151C32.7757 32.0327 32.5823 31.9704 32.3296 31.828C32.0769 31.6857 31.8288 31.5038 31.5852 31.2823C31.3391 31.0416 31.153 30.8126 31.027 30.5951C30.8516 30.1502 30.7639 29.5572 30.7641 28.8162C30.7835 28.0727 30.8662 27.2916 31.0122 26.473C31.1556 25.6352 31.3354 24.8511 31.5515 24.1207C31.7842 23.3687 32.0262 22.7617 32.2776 22.2997C32.5455 21.816 32.7958 21.5687 33.0283 21.5576C33.3592 21.5532 33.6586 21.6796 33.9264 21.9369C34.2108 22.1726 34.4415 22.4445 34.6185 22.7528C34.7128 22.8769 34.7566 22.9881 34.75 23.0865C34.7626 23.1823 34.7011 23.3074 34.5653 23.4617C34.423 23.7144 34.2562 24.0775 34.0649 24.5512C33.8903 25.0031 33.7111 25.4946 33.5273 26.0257C33.3627 26.5543 33.2148 27.0612 33.0836 27.5464C32.9689 28.01 32.8922 28.3905 32.8532 28.6881C32.8143 28.9857 32.8332 29.1295 32.9099 29.1194C33.1782 29.0842 33.4186 28.9844 33.631 28.82C33.8409 28.6364 34.097 28.3591 34.3992 27.9879C34.7489 27.5325 35.0507 27.0834 35.3045 26.6405C35.5558 26.1786 35.8092 25.6578 36.0646 25.0783C36.2634 24.6622 36.4668 24.2065 36.6748 23.7112C36.9019 23.2134 37.0412 22.8636 37.0927 22.6618C37.2956 22.1282 37.4478 21.728 37.5493 21.4612C37.6507 21.1944 37.7935 21.0196 37.9776 20.9369C38.0735 20.9244 38.2077 20.9067 38.3802 20.8841C38.5527 20.8614 38.639 20.8501 38.639 20.8501C38.7565 20.8542 38.902 20.9228 39.0755 21.056C39.2389 21.1125 39.4061 21.1978 39.5771 21.3119C39.7672 21.4234 39.8686 21.5271 39.8812 21.6229C39.8297 21.8247 39.7428 22.1286 39.6206 22.5346C39.5151 22.919 39.4354 23.2024 39.3813 23.385C39.1254 24.2571 38.8777 25.1183 38.6384 25.9687C38.4158 26.7975 38.2819 27.634 38.2368 28.4784C38.2337 28.7518 38.2656 29.0693 38.3326 29.431C38.4163 29.771 38.5065 30.0127 38.6033 30.156C38.6759 30.2634 38.7606 30.3888 38.8574 30.5321C38.9709 30.6537 39.0914 30.7548 39.219 30.8356C39.4067 30.9279 39.416 31.073 39.2469 31.2706C39.0971 31.4658 38.8968 31.6481 38.646 31.8175C38.4119 31.9653 38.2661 32.0429 38.2086 32.0505ZM55.1493 28.9483C55.0101 28.9276 54.7829 28.8307 54.4677 28.6576C54.1524 28.4845 53.8521 28.2022 53.5667 27.8107C53.3005 27.4167 53.1329 26.883 53.064 26.2095C53.0076 25.632 52.9931 25.2244 53.0204 24.9868C53.0643 24.7276 53.018 24.5971 52.8813 24.5956C52.7829 24.589 52.6026 24.7004 52.3402 24.9299C52.0778 25.1593 51.7443 25.5151 51.3396 25.9973C50.935 26.4794 50.4521 27.1083 49.891 27.8839C49.6861 28.1058 49.4588 28.3794 49.209 28.7047C48.9759 29.0083 48.7244 29.2461 48.4545 29.418C48.2037 29.5874 47.9604 29.5902 47.7243 29.4262L47.4028 29.2051C47.2535 29.1078 47.1184 28.9695 46.9974 28.7904C46.8763 28.6113 46.8262 28.4521 46.8469 28.3129L47.3575 25.9645C47.5221 25.4359 47.6276 25.0515 47.674 24.8114C47.7397 24.5688 47.7591 24.42 47.7324 24.365C47.7249 24.3075 47.6744 24.2946 47.5811 24.3264C47.4686 24.3607 47.3195 24.4875 47.1338 24.7069C46.9456 24.9071 46.8207 25.0697 46.7592 25.1948C46.6825 25.2049 46.5871 25.2954 46.4731 25.4664C46.3782 25.6348 46.2808 25.7841 46.1809 25.9142C46.081 26.0443 45.9087 26.2912 45.664 26.6548C45.4167 26.9993 45.1528 27.3654 44.8722 27.7533C44.6532 28.016 44.406 28.3605 44.1305 28.7866C43.8549 29.2128 43.6127 29.5956 43.4038 29.935C43.1949 30.2745 43.0617 30.448 43.0042 30.4555C42.6566 30.4816 42.3252 30.4082 42.01 30.2351C41.714 30.0595 41.4979 29.8246 41.3617 29.5305C41.219 29.3347 41.1591 28.9526 41.182 28.3841C41.2023 27.7965 41.2648 26.862 41.3696 25.5808C41.4085 25.2832 41.4428 25.0252 41.4727 24.8068C41.5216 24.5859 41.5706 24.365 41.6196 24.144C41.6686 23.9231 41.7234 23.6722 41.784 23.3912C41.8638 23.1078 41.9647 22.763 42.0869 22.357C42.1475 22.076 42.1531 21.8218 42.1038 21.5943C42.0519 21.3476 42.0063 21.1489 41.967 20.998C41.9292 20.7105 41.9852 20.4692 42.1351 20.274C42.3041 20.0763 42.4999 19.9336 42.7224 19.8459C42.9423 19.739 43.1219 19.6959 43.2611 19.7166C43.8054 19.7037 44.1948 19.8475 44.4293 20.1482C44.6637 20.4489 44.8107 20.7513 44.8702 21.0555C44.9271 21.3405 44.9227 21.6044 44.8571 21.847C44.7915 22.0896 44.7399 22.2913 44.7026 22.4522L44.4882 23.2701C44.3545 23.7362 44.2535 24.0809 44.1853 24.3044C44.1338 24.5061 44.1035 24.6466 44.0944 24.7258C44.102 24.7833 44.1095 24.8408 44.1171 24.8983C44.1438 24.9533 44.2263 24.9132 44.3645 24.7781C44.5028 24.6429 44.6647 24.4656 44.8504 24.2463C45.0528 24.0052 45.2397 23.7954 45.4113 23.6169C45.7185 23.284 46.045 22.9487 46.3906 22.6108C46.7529 22.2512 47.1106 21.9313 47.4638 21.6509C47.8169 21.3705 48.1131 21.1756 48.3522 21.0663C48.6856 21.081 49.0041 21.2049 49.3077 21.438C49.6305 21.6686 49.8428 21.8747 49.9447 22.0563C50.0783 22.3313 50.1218 22.5888 50.0754 22.8289C50.0481 23.0665 50.0278 23.2836 50.0147 23.4803C50.0056 23.5595 49.9861 23.7083 49.9563 23.9267C49.9265 24.1452 49.8954 24.354 49.8631 24.5532C49.8282 24.7333 49.8108 24.8233 49.8108 24.8233C49.8108 24.8233 49.8607 24.7583 49.9606 24.6281C50.0606 24.498 50.1963 24.3437 50.3678 24.1652C50.5369 23.9675 50.7084 23.789 50.8825 23.6296C51.7453 22.7753 52.442 22.2159 52.9727 21.9512C53.5201 21.6648 54.0303 21.7635 54.5033 22.2474C54.7611 22.4281 54.9426 22.6967 55.0479 23.0534C55.1724 23.4075 55.2749 23.8913 55.3555 24.5047C55.4074 24.7513 55.4631 25.0268 55.5225 25.331C55.6011 25.6326 55.6747 25.896 55.7432 26.1209C55.831 26.3434 55.8978 26.4809 55.9436 26.5334C56.0112 26.6025 56.1267 26.6653 56.2901 26.7219C56.451 26.7592 56.6011 26.7883 56.7403 26.809C57.0263 26.9079 57.2028 27.1382 57.2698 27.4999C57.3534 27.8399 57.2545 28.1259 56.973 28.3579C56.7081 28.5682 56.4152 28.7139 56.0944 28.795C55.7927 28.8736 55.4777 28.9247 55.1493 28.9483ZM60.1036 28.7365C59.3158 28.5279 58.7328 28.0975 58.3546 27.4452C57.9765 26.7929 57.779 25.8829 57.7621 24.7151C57.7224 24.1159 57.6517 23.7254 57.5498 23.5438C57.4454 23.343 57.2752 23.1606 57.0392 22.9966C56.9716 22.9275 56.8211 22.8205 56.5876 22.6757C56.3516 22.5117 56.2368 22.3805 56.2434 22.2821C56.2066 22.1505 56.214 21.9838 56.2655 21.782C56.3145 21.5611 56.3665 21.4373 56.4214 21.4105C56.5481 21.3354 56.6734 21.2507 56.7976 21.1564C56.9408 21.0596 57.0533 21.0253 57.135 21.0536C57.2117 21.0435 57.333 21.0763 57.499 21.152C57.6841 21.2252 57.7817 21.3002 57.7917 21.3768C57.886 21.501 57.9935 21.4283 58.1141 21.159C58.2539 20.8872 58.3945 20.547 58.5358 20.1384C58.6872 19.8065 58.8891 19.4876 59.1414 19.1814C59.3937 18.8753 59.6497 18.5979 59.9096 18.3493C60.1861 18.079 60.4222 17.8725 60.6179 17.7298C60.7087 17.6789 60.8833 17.5975 61.1416 17.4856C61.419 17.3711 61.7086 17.2746 62.0103 17.196C62.3094 17.0982 62.5369 17.0488 62.6928 17.0479C63.0404 17.0217 63.4234 17.1177 63.8421 17.3357C64.2607 17.5537 64.5905 17.7639 64.8316 17.9662C65.1034 18.106 65.3016 18.353 65.4261 18.7071C65.5673 19.0396 65.6534 19.3987 65.6846 19.7846C65.7158 20.1705 65.6819 20.5064 65.583 20.7924C65.5506 20.9917 65.3846 21.2865 65.0849 21.6768C64.7851 22.0672 64.4458 22.453 64.0669 22.8342C63.7046 23.1938 63.3873 23.4499 63.1149 23.6027C62.8732 23.6929 62.5824 23.7799 62.2424 23.8635C61.8999 23.928 61.574 23.9708 61.2648 23.9919C60.9722 23.9913 60.7646 23.9698 60.6421 23.9274C60.4978 23.8684 60.3866 23.9122 60.3084 24.059C60.2468 24.1841 60.2225 24.5188 60.2355 25.063C60.244 25.2764 60.2679 25.4585 60.3072 25.6094C60.3657 25.7577 60.4191 25.8676 60.4675 25.9393C60.6319 26.1517 60.7888 26.3066 60.9381 26.404C61.0848 26.4822 61.3378 26.4782 61.697 26.3921C62.0561 26.3059 62.3914 26.0376 62.7027 25.5873C63.0307 25.1152 63.3317 24.7344 63.6057 24.445C63.6647 24.3007 63.8164 24.1931 64.0605 24.122C64.3213 24.0293 64.6401 24.0069 65.0169 24.0549C65.2454 24.1614 65.3689 24.3597 65.3875 24.6497C65.4253 24.9372 65.3273 25.3791 65.0936 25.9753C65.0537 26.117 64.9172 26.3397 64.6841 26.6433C64.4676 26.9252 64.2237 27.2205 63.9522 27.5291C63.6974 27.8161 63.4817 28.0296 63.3051 28.1698C62.7703 28.552 62.2237 28.7701 61.6653 28.8239C61.1069 28.8777 60.5864 28.8486 60.1036 28.7365ZM61.3818 21.9876C61.6593 21.8732 61.8888 21.765 62.0704 21.6632C62.2712 21.5588 62.4561 21.4078 62.6252 21.2101C62.7942 21.0124 62.9807 20.7247 63.1845 20.3469C63.2335 20.126 63.2479 19.9389 63.2278 19.7855C63.2268 19.6296 63.2047 19.5351 63.1613 19.5018C62.9878 19.3685 62.809 19.3433 62.6249 19.426C62.4574 19.4869 62.2783 19.608 62.0876 19.789C61.9609 19.8641 61.7856 20.0139 61.5616 20.2383C61.3542 20.441 61.1506 20.6725 60.9508 20.9327C60.7676 21.1713 60.6215 21.3952 60.5125 21.6045C60.4202 21.7921 60.4149 21.9001 60.4966 21.9284C60.4683 22.0101 60.58 22.0442 60.8317 22.0306C61.1026 22.0145 61.286 22.0002 61.3818 21.9876ZM76.9714 26.6676C76.6839 26.7054 76.3946 26.6556 76.1036 26.5184C75.8101 26.3619 75.5556 26.1321 75.3403 25.8289C75.1225 25.5065 74.9834 25.1153 74.923 24.6552C74.8852 24.3677 74.8803 23.9589 74.9081 23.4287C74.9527 22.8769 75.0275 22.1846 75.1326 21.3518C75.1357 21.0784 75.1418 20.9021 75.1509 20.8229C75.1792 20.7412 75.1883 20.662 75.1782 20.5853C75.1732 20.547 75.1598 20.5195 75.1381 20.5029C75.1331 20.4645 75.1114 20.4479 75.0731 20.4529C74.9197 20.473 74.7227 20.6062 74.482 20.8523C74.258 21.0767 74.0007 21.3445 73.7101 21.6556C73.6576 21.7015 73.5968 21.7582 73.5277 21.8258C73.4777 21.8909 73.4182 21.9572 73.3491 22.0248C73.2991 22.0898 73.2396 22.1561 73.1704 22.2237C72.9939 22.3639 72.7257 22.6234 72.3659 23.0021C72.0254 23.3783 71.6681 23.7762 71.2942 24.1958C70.9395 24.6128 70.6252 24.9661 70.3512 25.2556C70.213 25.3907 70.0914 25.5042 69.9864 25.596C69.9006 25.6852 69.8386 25.7324 69.8003 25.7374C69.7619 25.7425 69.6023 25.7147 69.3213 25.6541C69.057 25.5718 68.7877 25.4512 68.5133 25.2922C68.2556 25.1115 68.1091 24.887 68.0739 24.6187C68.0512 24.4462 68.073 24.0923 68.1392 23.5571C68.2246 23.0194 68.3549 22.3784 68.5301 21.6339C68.7054 20.8894 68.9177 20.1303 69.1671 19.3566C69.2211 19.174 69.2484 18.9364 69.249 18.6438C69.2495 18.3513 69.2514 18.0683 69.2545 17.7949C69.2742 17.4998 69.3424 17.2764 69.4589 17.1245C69.5039 17.0212 69.5621 16.9453 69.6338 16.8968C69.7221 16.8268 69.8141 16.7854 69.91 16.7728C70.1017 16.7477 70.2901 16.7717 70.4752 16.8449C70.6578 16.8989 70.8383 17.0117 71.0168 17.1832C71.3446 17.4521 71.5458 17.7962 71.6204 18.2154C71.7116 18.6129 71.7344 19.0097 71.6889 19.4056C71.6434 19.8016 71.5795 20.1317 71.4972 20.396C71.4124 20.6411 71.3675 20.7445 71.3625 20.7062C71.4341 20.6578 71.527 20.5481 71.641 20.3771C71.7742 20.2036 72.0091 19.9876 72.3456 19.7289C72.7936 19.28 73.1418 18.9613 73.39 18.7727C73.6357 18.565 73.8206 18.414 73.9447 18.3197C74.088 18.2228 74.2109 18.119 74.3133 18.008C74.3991 17.9188 74.4599 17.862 74.4957 17.8378C74.5507 17.8111 74.5782 17.7977 74.5782 17.7977C74.6357 17.7902 74.7265 17.7393 74.8506 17.645C74.9939 17.5482 75.1326 17.4909 75.2668 17.4733C75.4585 17.4482 75.666 17.4696 75.8895 17.5378C76.1104 17.5868 76.3076 17.6779 76.4811 17.8111C76.6521 17.9251 76.7476 18.0588 76.7678 18.2122C76.7753 18.2697 76.8008 18.3151 76.8441 18.3484C76.8875 18.3817 76.9321 18.4246 76.978 18.4771C77.089 18.5795 77.2158 18.7286 77.3585 18.9243C77.5179 19.0984 77.6265 19.4059 77.6844 19.8467C77.7247 20.1534 77.7167 20.6127 77.6606 21.2246C77.6044 21.8364 77.5374 22.44 77.4596 23.0352C77.3843 23.6495 77.3706 24.1388 77.4184 24.503C77.4829 24.8455 77.5564 25.1089 77.6391 25.293C77.7193 25.458 77.7669 25.598 77.782 25.713C77.8022 25.8663 77.7494 26.0585 77.6237 26.2895C77.4956 26.5013 77.2781 26.6274 76.9714 26.6676ZM92.9936 26.5818C92.636 26.5313 92.3467 26.4815 92.1258 26.4325C91.9074 26.4027 91.7982 26.3878 91.7982 26.3878C91.8239 26.2869 91.7934 26.2032 91.7067 26.1366C91.6391 26.0674 91.4986 26.0371 91.2853 26.0457C90.9726 25.8917 90.6402 25.6624 90.2882 25.3576C89.9362 25.0529 89.6212 24.7335 89.3434 24.3995C89.0655 24.0655 88.8769 23.8172 88.7776 23.6548C88.6057 23.3849 88.5926 23.2111 88.7384 23.1335C88.8817 23.0367 89.0525 22.9265 89.2507 22.8029C89.4415 22.6219 89.6468 22.4779 89.8667 22.3711C90.1059 22.2617 90.3235 22.3598 90.5196 22.6656C90.8267 23.0737 91.2592 23.3972 91.817 23.6359C92.394 23.8721 93.0218 23.9749 93.7002 23.9443C94.3978 23.9112 95.0728 23.7056 95.7251 23.3274C96.1575 23.0562 96.3689 22.7359 96.3594 22.3667C96.3474 21.9783 96.1458 21.5563 95.7545 21.1007C95.6768 20.9549 95.5742 20.8416 95.4466 20.7608C95.3382 20.6776 95.1684 20.5731 94.9375 20.4475C94.7256 20.3193 94.415 20.1066 94.0054 19.8094C93.7003 19.713 93.4156 19.6236 93.1513 19.5413C92.9061 19.4565 92.6406 19.3646 92.3546 19.2657C92.0278 19.1526 91.655 18.9871 91.2364 18.7691C90.8153 18.5319 90.4204 18.2718 90.0517 17.9887C89.6805 17.6864 89.3886 17.3933 89.1758 17.1092C88.8313 16.862 88.588 16.4942 88.4459 16.0059C88.3012 15.4984 88.2391 14.9508 88.2594 14.3632C88.2989 13.773 88.413 13.2315 88.6018 12.7388C88.6816 12.4553 88.8471 12.0826 89.0985 11.6206C89.3473 11.1394 89.6332 10.6436 89.9561 10.1333C90.2791 9.6229 90.5892 9.1629 90.8864 8.7534C91.2002 8.3222 91.4538 8.0256 91.647 7.8638C91.7802 7.6903 91.923 7.51554 92.0754 7.33954C92.2253 7.14436 92.3002 7.04678 92.3002 7.04678C92.3068 6.94841 92.3292 6.89672 92.3676 6.89168C92.4251 6.88413 92.4538 6.88035 92.4538 6.88035C92.5421 6.81026 92.7404 6.68673 93.0487 6.50975C93.3569 6.33278 93.6788 6.03702 94.0143 5.62247C95.2181 4.84041 96.2566 4.2848 97.1296 3.95563C98.0006 3.6073 98.6946 3.39915 99.2126 3.33118C99.6936 3.28742 100.182 3.35993 100.674 3.54871C101.165 3.71832 101.597 3.96383 101.97 4.28524C102.363 4.60414 102.619 4.98984 102.737 5.44233C102.931 5.88476 102.937 6.44947 102.754 7.13645C102.588 7.8017 102.313 8.4521 101.928 9.0876C101.56 9.7014 101.154 10.1739 100.71 10.5052C100.204 10.8057 99.7476 10.8949 99.3416 10.7727C98.9546 10.648 98.7466 10.4023 98.7176 10.0356C98.6976 9.8823 98.7216 9.6939 98.7896 9.4704C98.8776 9.2445 99.1256 8.8317 99.5336 8.232C100.03 7.25051 100.271 6.56556 100.259 6.17715C100.247 5.78874 100.046 5.59096 99.6546 5.5838C99.5346 5.56056 99.3146 5.5991 98.9966 5.6994C98.6786 5.7997 98.3336 5.92294 97.9636 6.06913C97.6086 6.19363 97.2946 6.32268 97.0196 6.45629C96.7636 6.58737 96.6386 6.67208 96.6436 6.71042C96.6436 6.71042 96.6476 6.73917 96.6546 6.79668C96.6626 6.85419 96.6266 6.87839 96.5472 6.86929C96.5089 6.87432 96.3835 6.95903 96.1711 7.12342C95.9754 7.26612 95.7367 7.45346 95.4552 7.6854C95.1737 7.9174 94.8934 8.1589 94.6144 8.4101C94.352 8.6395 94.1255 8.8448 93.9348 9.0258C93.7441 9.2068 93.6416 9.3178 93.6275 9.3586C93.6169 9.5745 93.4216 9.7952 93.0417 10.0205C92.6885 10.3009 92.3959 10.6708 92.1637 11.1303C91.9316 11.5898 91.6666 12.1706 91.3688 12.8726C91.1008 13.3563 90.9337 13.8657 90.8675 14.4009C90.7988 14.9169 90.8517 15.3195 91.0261 15.6085C91.1622 15.9027 91.4613 16.1754 91.9233 16.4267C92.4019 16.6563 93.044 16.9425 93.8495 17.2852C94.549 17.5638 95.2128 17.8667 95.8407 18.1937C96.4686 18.5207 97.0086 18.8495 97.4616 19.18C97.9126 19.4913 98.2116 19.7641 98.3586 19.9981C98.6316 20.2938 98.8156 20.65 98.9086 21.0667C99.0216 21.4808 99.0756 21.8929 99.0716 22.303C99.0836 22.6914 99.0676 23.0153 99.0236 23.2745C98.9296 23.5989 98.7616 23.9524 98.5196 24.3352C98.2956 24.7155 98.0686 24.9112 97.8356 24.9222C97.6326 25.0074 97.4786 25.0959 97.3736 25.1877C97.2876 25.2769 97.1816 25.3591 97.0546 25.4342C96.9306 25.5285 96.6256 25.6563 96.1399 25.8176C95.6566 25.9981 95.1216 26.1561 94.535 26.2916C93.9508 26.4463 93.437 26.5431 92.9936 26.5818ZM118.977 22.3507C118.977 22.3507 118.912 22.3007 118.782 22.2008C118.674 22.1175 118.447 22.0206 118.101 21.9101C117.708 21.5912 117.405 21.0655 117.192 20.333C116.998 19.598 116.869 18.7667 116.806 17.839C116.707 17.384 116.633 16.8185 116.583 16.1426C116.55 15.445 116.533 14.7257 116.533 13.9847C116.553 13.2411 116.576 12.5264 116.603 11.8404C116.649 11.1518 116.691 10.5809 116.729 10.1274C116.845 9.0787 116.948 8.1584 117.039 7.3665C117.149 6.57206 117.195 6.10775 117.178 5.97357C117.091 6.19953 116.957 6.5193 116.777 6.93288C116.617 7.34394 116.382 7.9305 116.072 8.6926C115.876 9.1279 115.666 9.604 115.441 10.121C115.236 10.6355 115.101 10.9457 115.037 11.0516C114.878 11.3259 114.731 11.6961 114.598 12.1622C114.461 12.6091 114.228 13.2832 113.898 14.1845C113.358 15.2694 112.882 16.1021 112.471 16.6826C112.079 17.2605 111.712 17.6597 111.371 17.88C111.046 18.0787 110.707 18.1719 110.354 18.1597C109.781 18.0985 109.373 17.8889 109.131 17.5306C108.887 17.1533 108.692 16.7108 108.547 16.2034C108.441 15.6908 108.376 15.2704 108.352 14.942C108.345 14.5919 108.313 14.3427 108.254 14.1944C108.267 13.9977 108.279 13.7914 108.29 13.5755C108.298 13.3404 108.304 13.1641 108.308 13.0466C108.298 12.9699 108.295 12.7949 108.298 12.5215C108.32 12.2456 108.323 11.9722 108.307 11.7013C108.317 11.3296 108.338 10.8978 108.371 10.406C108.401 9.895 108.428 9.4332 108.452 9.0206C108.476 8.608 108.463 8.3563 108.412 8.2655C108.341 8.4697 108.252 8.6861 108.146 8.9146C108.039 9.1431 107.964 9.309 107.919 9.4124C107.651 9.8961 107.357 10.6269 107.037 11.6049C106.714 12.5637 106.28 13.859 105.734 15.4907C105.731 15.9199 105.629 16.4793 105.427 17.1688C105.242 17.8366 105.077 18.4335 104.931 18.9596C104.845 19.3415 104.723 19.8254 104.566 20.4115C104.426 20.9759 104.272 21.5129 104.105 22.0223C103.957 22.5292 103.829 22.8873 103.72 23.0966C103.548 23.5677 103.387 23.8325 103.239 23.8909C103.093 23.9686 102.757 23.8568 102.23 23.5555C101.885 23.3082 101.59 23.0643 101.344 22.8236C101.117 22.5804 101.075 22.2641 101.219 21.8748C101.326 21.6463 101.451 21.3374 101.595 20.948C101.736 20.5394 101.858 20.1334 101.961 19.7299C102.084 19.3239 102.142 19.0237 102.136 18.8295C102.145 18.7503 102.185 18.6086 102.255 18.4043C102.345 18.1975 102.471 17.9665 102.632 17.7113C102.603 17.6372 102.652 17.3383 102.778 16.8148C102.902 16.272 103.084 15.6534 103.324 14.9589C103.369 14.8555 103.394 14.7546 103.401 14.6562C103.427 14.5554 103.443 14.4557 103.45 14.3574C103.514 14.2515 103.575 14.1264 103.634 13.9821C103.693 13.8379 103.745 13.6361 103.789 13.3769C103.804 13.1993 103.852 12.9688 103.932 12.6853C104.012 12.4019 104.086 12.1484 104.154 11.925C104.208 11.7424 104.275 11.5873 104.356 11.4597C104.453 11.3104 104.532 11.1636 104.591 11.0194C104.66 10.9518 104.714 10.8472 104.754 10.7054C104.794 10.5637 104.847 10.4495 104.914 10.3627C104.96 10.1226 105.066 9.8162 105.232 9.4435C105.414 9.0491 105.601 8.6151 105.792 8.1415C106.003 7.6653 106.175 7.19425 106.309 6.72819C106.449 6.61221 106.566 6.46041 106.658 6.27279C106.751 6.08517 106.823 5.89048 106.874 5.68872C106.874 5.68872 106.908 5.577 106.976 5.35356C107.064 5.1276 107.155 4.93039 107.25 4.76194C107.328 4.61517 107.446 4.4046 107.605 4.13024C107.764 3.85587 107.916 3.60193 108.061 3.36842C108.223 3.11322 108.331 2.97226 108.386 2.94554C108.498 2.91127 108.707 2.94234 109.012 3.03877C109.337 3.13267 109.636 3.25911 109.91 3.41807C110.185 3.57703 110.334 3.75236 110.36 3.94405C110.426 4.14987 110.475 4.45531 110.509 4.86037C110.562 5.26291 110.607 5.6763 110.643 6.10053C110.676 6.50559 110.683 6.85566 110.664 7.15075C110.681 7.5775 110.687 8.0739 110.684 8.6398C110.68 9.2058 110.674 9.7526 110.665 10.2802C110.656 10.8078 110.645 11.2383 110.63 11.5718C110.627 12.2936 110.621 12.8404 110.611 13.2121C110.599 13.5647 110.593 13.741 110.593 13.741C110.642 13.8127 110.675 13.9156 110.692 14.0498C110.729 14.1814 110.764 14.3035 110.799 14.416L110.858 14.6423L111.114 14.1407C111.401 13.6545 111.619 13.2359 111.768 12.8848C111.917 12.5338 112.067 12.1923 112.218 11.8604C112.206 11.7646 112.222 11.665 112.267 11.5616C112.309 11.439 112.361 11.3152 112.423 11.1901C112.525 11.0792 112.629 10.9095 112.736 10.681C112.84 10.4333 112.871 10.2245 112.829 10.0545C112.983 9.7418 113.182 9.3257 113.426 8.8062C113.689 8.2842 113.966 7.7213 114.257 7.11761C114.546 6.49472 114.828 5.90184 115.106 5.33898C115.399 4.75442 115.655 4.25284 115.873 3.83422C116.11 3.41309 116.288 3.13621 116.408 3.00357C116.794 2.67983 117.246 2.48398 117.764 2.41601C118.279 2.32888 118.711 2.42811 119.06 2.7137C119.345 2.94934 119.519 3.23842 119.584 3.58094C119.667 3.92094 119.676 4.2806 119.608 4.65991C119.468 5.51689 119.396 6.30629 119.393 7.02812C119.39 7.75 119.416 8.2438 119.471 8.5096C119.417 8.6922 119.375 8.8927 119.345 9.1111C119.332 9.3079 119.326 9.4841 119.327 9.64C119.352 9.8317 119.34 10.038 119.291 10.2589C119.258 10.4582 119.199 10.6024 119.114 10.6917C119.194 10.8567 119.253 11.0829 119.29 11.3704C119.345 11.6363 119.368 11.8867 119.36 12.1218C119.31 14.1173 119.352 15.7009 119.487 16.8727C119.618 18.0254 119.795 18.8504 120.016 19.3478C120.235 19.8261 120.433 20.073 120.611 20.0887C120.685 20.0595 120.727 20.0832 120.737 20.1599C120.766 20.234 120.772 20.3503 120.754 20.5087C120.774 20.662 120.72 20.8446 120.592 21.0565C120.485 21.2849 120.365 21.4859 120.232 21.6594C120.121 21.8495 120.049 21.9759 120.019 22.0384C119.929 22.2452 119.837 22.3645 119.744 22.3962C119.67 22.4255 119.414 22.4103 118.977 22.3507ZM123.792 22.5958C123.689 22.5509 123.516 22.4956 123.273 22.43C123.031 22.3644 122.805 22.277 122.595 22.168C122.405 22.0565 122.289 21.9157 122.248 21.7457C122.221 21.6908 122.194 21.6358 122.167 21.5808C122.16 21.5233 122.171 21.3853 122.201 21.1669C122.233 20.9677 122.277 20.6305 122.331 20.1553C122.396 19.7568 122.448 19.4088 122.487 19.1112C122.545 18.8111 122.571 18.6419 122.566 18.6035C122.648 18.6318 122.722 18.6025 122.789 18.5158C122.855 18.4291 122.867 18.2227 122.824 17.8969C122.795 17.8227 122.798 17.6956 122.833 17.5155C122.887 17.333 122.95 17.1491 123.024 16.964C123.016 16.9065 123.011 16.7219 123.009 16.4101C123.027 16.0959 123.044 15.7816 123.061 15.4674C123.211 14.5312 123.385 13.6992 123.581 12.9714C123.798 12.241 123.962 11.7124 124.075 11.3856C124.07 11.3473 124.085 11.238 124.12 11.058C124.155 10.8779 124.199 10.6966 124.253 10.514C124.305 10.3122 124.346 10.1801 124.377 10.1175C124.373 9.9425 124.392 9.7158 124.434 9.4373C124.492 9.1372 124.562 8.855 124.644 8.5907C124.743 8.3047 124.844 8.1063 124.946 7.9953C124.931 7.8803 124.954 7.6823 125.014 7.40138C125.075 7.12043 125.154 6.82738 125.25 6.52223C125.344 6.19791 125.434 5.92277 125.522 5.69681C125.609 5.47085 125.662 5.35661 125.682 5.35409C125.682 5.35409 125.684 5.29533 125.688 5.1778C125.711 5.05775 125.802 4.86054 125.961 4.58618C125.961 4.58618 125.958 4.48908 125.952 4.29487C125.965 4.09815 126.041 3.93221 126.179 3.79706C126.218 3.49946 126.241 3.30148 126.247 3.20312C126.251 3.08559 126.213 3.01269 126.131 2.98442C125.893 2.50869 126.012 2.22977 126.489 2.14767C126.604 2.13257 126.717 1.95202 126.827 1.60601C126.9 1.4209 127.121 1.24567 127.489 1.08032C127.858 0.914963 128.312 0.738273 128.853 0.550263C129.21 0.444923 129.547 0.342113 129.865 0.241813C130.184 0.141513 130.343 0.0913629 130.343 0.0913629C130.611 0.0561229 130.959 0.029983 131.386 0.012943C131.832 -0.00661701 132.183 -0.00400711 132.44 0.0207729C133.173 0.256023 133.826 0.628453 134.4 1.13806C134.993 1.64516 135.347 2.11537 135.463 2.5487C135.531 2.77369 135.532 3.15378 135.466 3.68896C135.419 4.22162 135.329 4.79891 135.196 5.42083C135.08 6.02106 134.937 6.56631 134.768 7.05656C134.617 7.5443 134.464 7.8666 134.31 8.0234C134.403 7.9917 134.378 8.1021 134.236 8.3548C134.091 8.5883 133.9 8.8377 133.662 9.103C133.443 9.3657 133.269 9.5251 133.139 9.581C133.139 9.581 133.089 9.7145 132.987 9.9813C132.883 10.2289 132.715 10.4362 132.484 10.6031C132.271 10.7675 132.044 10.9631 131.8 11.1901C131.555 11.3978 131.37 11.6268 131.247 11.877C131.227 11.7236 131.173 11.682 131.085 11.7521C130.994 11.803 130.898 11.8935 130.798 12.0236C130.696 12.1346 130.609 12.2143 130.537 12.2627C130.132 12.5889 129.771 12.8118 129.455 12.9313C129.139 13.0507 128.785 13.1752 128.393 13.3048C128.307 13.394 128.16 13.4621 127.952 13.5089C127.762 13.5533 127.572 13.588 127.38 13.6132L126.298 13.6091L125.92 15.4136C125.791 16.2106 125.655 16.8817 125.512 17.4269C125.388 17.9697 125.265 18.5124 125.141 19.0551C125.017 19.5979 124.891 20.2677 124.761 21.0647C124.753 21.5923 124.621 21.9996 124.366 22.2865C124.133 22.5901 123.942 22.6932 123.792 22.5958ZM127.042 11.2592C127.648 11.1212 128.135 10.9695 128.503 10.8041C128.869 10.6196 129.2 10.3909 129.495 10.1181C129.791 9.8453 130.107 9.5016 130.442 9.087C130.575 8.9135 130.758 8.675 130.992 8.3714C131.225 8.0678 131.465 7.7438 131.712 7.3993C131.976 7.03316 132.195 6.69247 132.368 6.37725C132.619 5.91526 132.773 5.45628 132.83 5.00029C132.887 4.54431 132.882 4.13547 132.815 3.77378C132.748 3.41209 132.645 3.14296 132.505 2.96637C132.208 2.63489 131.88 2.44388 131.523 2.39335C131.184 2.3403 130.83 2.38687 130.459 2.53305C130.107 2.67673 129.754 2.87916 129.398 3.14036C129.307 3.19129 129.171 3.41396 128.988 3.80837C128.825 4.20026 128.645 4.6822 128.447 5.25416C128.268 5.82361 128.085 6.43266 127.897 7.0813C127.709 7.7299 127.538 8.3569 127.384 8.9622C127.246 9.5458 127.136 10.0476 127.055 10.4678C126.993 10.8854 126.989 11.1492 127.042 11.2592Z" fill="#5E8BDC"></path></svg> 