<?xml version="1.0" encoding="UTF-8"?> <svg xmlns="http://www.w3.org/2000/svg" width="106" height="106" viewBox="0 0 106 106" fill="none"><rect width="106" height="106" rx="7" fill="white"></rect><path d="M31.3 29.2L26.4 68.4H34.8266C35.0018 70.6864 36.0338 72.8223 37.7161 74.3806C39.3983 75.9389 41.6069 76.8047 43.9 76.8047C46.1931 76.8047 48.4017 75.9389 50.084 74.3806C51.7663 72.8223 52.7982 70.6864 52.9734 68.4H53C53 70.6278 53.885 72.7643 55.4603 74.3396C57.0356 75.915 59.1722 76.8 61.4 76.8C63.6278 76.8 65.7644 75.915 67.3397 74.3396C68.915 72.7643 69.8 70.6278 69.8 68.4H69.8266C70.0018 70.6864 71.0338 72.8223 72.7161 74.3806C74.3983 75.9389 76.6069 76.8047 78.9 76.8047C81.1931 76.8047 83.4017 75.9389 85.084 74.3806C86.7663 72.8223 87.7982 70.6864 87.9734 68.4H88V67L87.937 66.6178C87.9156 66.4368 87.8885 66.2566 87.8558 66.0773L87.8236 65.9121L87.7956 65.7722L82.4798 33.8802C82.2621 32.5726 81.5876 31.3846 80.5763 30.5276C79.5649 29.6706 78.2824 29.2002 76.9568 29.2H31.3Z" fill="#985184"></path><path d="M37.6 29.2L34.8 68.4C34.8 70.6278 33.915 72.7643 32.3397 74.3396C30.7644 75.915 28.6278 76.8 26.4 76.8C24.1722 76.8 22.0356 75.915 20.4603 74.3396C18.885 72.7643 18 70.6278 18 68.4V67L22.8916 33.9796C23.0884 32.6509 23.7561 31.4373 24.773 30.5599C25.7899 29.6826 27.0883 29.1999 28.4314 29.2H37.6ZM67 29.2L69.8 68.4C69.8 70.6278 68.915 72.7643 67.3397 74.3396C65.7644 75.915 63.6278 76.8 61.4 76.8C59.1722 76.8 57.0356 75.915 55.4603 74.3396C53.885 72.7643 53 70.6278 53 68.4V29.2H67Z" fill="#FBB945"></path><path d="M34.8 68.3999C34.8 70.6277 33.915 72.7643 32.3397 74.3396C30.7644 75.9149 28.6278 76.7999 26.4 76.7999C24.1722 76.7999 22.0356 75.9149 20.4603 74.3396C18.885 72.7643 18 70.6277 18 68.3999H34.8ZM69.8 68.3999C69.8 70.6277 68.915 72.7643 67.3397 74.3396C65.7644 75.9149 63.6278 76.7999 61.4 76.7999C59.1722 76.7999 57.0356 75.9149 55.4603 74.3396C53.885 72.7643 53 70.6277 53 68.3999H69.8Z" fill="#F78613"></path><path d="M34.828 68.3999C35.0054 70.6846 36.0382 72.8182 37.7201 74.3746C39.402 75.931 41.6092 76.7955 43.9007 76.7955C46.1922 76.7955 48.3994 75.931 50.0813 74.3746C51.7632 72.8182 52.796 70.6846 52.9734 68.3999H34.828ZM69.828 68.3999C70.0054 70.6846 71.0382 72.8182 72.7201 74.3746C74.402 75.931 76.6092 76.7955 78.9007 76.7955C81.1922 76.7955 83.3994 75.931 85.0813 74.3746C86.7632 72.8182 87.796 70.6846 87.9734 68.3999H69.828Z" fill="#712258"></path></svg> 