<?xml version="1.0" encoding="UTF-8"?> <svg xmlns="http://www.w3.org/2000/svg" width="106" height="106" viewBox="0 0 106 106" fill="none"><rect width="106" height="106" rx="7" fill="white"></rect><g clip-path="url(#clip0_17_341)"><path d="M25 41.8H81V64.2001H25V41.8Z" fill="white"></path><path fill-rule="evenodd" clip-rule="evenodd" d="M23.6 29.3037C22.1148 29.3037 20.6904 29.8937 19.6402 30.9439C18.59 31.9941 18 33.4185 18 34.9037V71.3037C18 72.7889 18.59 74.2133 19.6402 75.2635C20.6904 76.3137 22.1148 76.9037 23.6 76.9037H53V29.3037H23.6ZM27.555 55.5285C25.6888 54.4505 25.6888 51.7569 27.555 50.6789L40.2194 43.3681C42.0856 42.2901 44.4194 43.6369 44.4194 45.7929V60.4159C44.4194 62.5719 42.0856 63.9173 40.2194 62.8407L27.555 55.5285Z" fill="#FBB945"></path><path fill-rule="evenodd" clip-rule="evenodd" d="M82.4 29.3037H53V76.9037H82.4C83.8852 76.9037 85.3096 76.3137 86.3598 75.2635C87.41 74.2133 88 72.7889 88 71.3037V34.9037C88 33.4185 87.41 31.9941 86.3598 30.9439C85.3096 29.8937 83.8852 29.3037 82.4 29.3037ZM78.4436 55.5285C80.3112 54.4505 80.3112 51.7569 78.4436 50.6789L65.782 43.3681C63.9158 42.2901 61.582 43.6369 61.582 45.7929V60.4159C61.582 62.5719 63.9158 63.9173 65.782 62.8407L78.4436 55.5285Z" fill="#1AD3BB"></path><path d="M50.2 26.5331C50.2 24.9133 51.453 23.6001 53 23.6001C54.547 23.6001 55.8 24.9133 55.8 26.5331V79.4671C55.8 81.0869 54.547 82.4001 53 82.4001C51.453 82.4001 50.2 81.0869 50.2 79.4671V26.5331Z" fill="#985184"></path></g><defs><clipPath id="clip0_17_341"><rect width="70" height="70" fill="white" transform="translate(18 18)"></rect></clipPath></defs></svg> 