<?xml version="1.0" encoding="UTF-8"?> <svg xmlns="http://www.w3.org/2000/svg" width="106" height="106" viewBox="0 0 106 106" fill="none"><rect width="106" height="106" rx="7" fill="white"></rect><path d="M18 34.8H88V71.2C88 72.6853 87.41 74.1096 86.3598 75.1598C85.3096 76.21 83.8852 76.8 82.4 76.8H18V34.8Z" fill="#985184"></path><path d="M23.6 47.4C22.1148 47.4 20.6904 46.81 19.6402 45.7597C18.59 44.7095 18 43.2852 18 41.8V34.8C18 33.3147 18.59 31.8904 19.6402 30.8402C20.6904 29.7899 22.1148 29.2 23.6 29.2H88V41.8C88 43.2852 87.41 44.7095 86.3598 45.7597C85.3096 46.81 83.8852 47.4 82.4 47.4H23.6Z" fill="#1AD3BB"></path><path d="M18 40.3999H88V45.9999C88 47.4851 87.41 48.9095 86.3598 49.9597C85.3096 51.0099 83.8852 51.5999 82.4 51.5999H23.6C22.1148 51.5999 20.6904 51.0099 19.6402 49.9597C18.59 48.9095 18 47.4851 18 45.9999V40.3999Z" fill="#005E7A"></path></svg> 