<?xml version="1.0" encoding="UTF-8"?> <svg xmlns="http://www.w3.org/2000/svg" width="106" height="106" viewBox="0 0 106 106" fill="none"><rect width="106" height="106" rx="7" fill="white"></rect><g clip-path="url(#clip0_17_382)"><path d="M88 44.6321C88 43.6031 86.9682 42.9101 86.0428 43.3189L46.8428 60.6831C46.5905 60.7976 46.3767 60.9826 46.2272 61.2159C46.0776 61.4491 45.9987 61.7206 46 61.9977V75.3677C46 76.1587 46.6272 76.7999 47.4 76.7999H82.4C85.494 76.7999 88 74.2379 88 71.0753V44.6321Z" fill="#FBB945"></path><path d="M76.8 37.6251C76.8 36.6143 75.7934 35.9255 74.8736 36.3063L32.8736 53.6579C32.6137 53.7668 32.3919 53.9504 32.2364 54.1854C32.0809 54.4204 31.9986 54.6963 32 54.9781V75.3761C32 76.1629 32.6272 76.7999 33.4 76.7999H71.2C74.294 76.7999 76.8 74.2505 76.8 71.1047V37.6251Z" fill="#FC868B"></path><path d="M76.8 47.4141L46.8428 60.6833C46.3318 60.9101 46 61.4253 46 61.9965V75.3693C46 76.1589 46.6272 76.8001 47.4 76.8001H71.2C74.294 76.8001 76.8 74.2493 76.8 71.1049V47.4141Z" fill="#F86126"></path><path d="M62.8 30.621C62.8 29.613 61.7934 28.927 60.8736 29.305L18.8736 46.6146C18.6141 46.7229 18.3926 46.9058 18.2371 47.1401C18.0816 47.3743 17.9991 47.6494 18 47.9306V75.3804C18 76.1644 18.6272 76.8 19.4 76.8H57.2C60.294 76.8 62.8 74.2562 62.8 71.1188V30.621Z" fill="#1AD3BB"></path><path d="M62.8 41.2947L32.8736 53.6581C32.6137 53.767 32.3919 53.9506 32.2364 54.1856C32.0809 54.4206 31.9986 54.6965 32 54.9783V75.3763C32 76.1631 32.6272 76.8001 33.4 76.8001H57.2C60.294 76.8001 62.8 74.2563 62.8 71.1189V41.2947Z" fill="#1A6F66"></path></g><defs><clipPath id="clip0_17_382"><rect width="70" height="70" fill="white" transform="translate(18 18)"></rect></clipPath></defs></svg> 