<?xml version="1.0" encoding="UTF-8"?> <svg xmlns="http://www.w3.org/2000/svg" width="106" height="106" viewBox="0 0 106 106" fill="none"><rect width="106" height="106" rx="7" fill="white"></rect><path d="M61.1787 66.4569L49.8317 80.9987L25.6327 61.9181C24.5149 61.0253 23.7965 59.7258 23.6349 58.3044C23.4732 56.8829 23.8815 55.4553 24.7703 54.3343L32.8175 44.1941L61.1787 66.4569Z" fill="#985184"></path><path d="M49.6722 80.8725L35.0352 69.2035L46.4144 54.8647L61.1802 66.4567L49.8332 80.9999L49.6722 80.8725Z" fill="#005E7A"></path><path d="M49.6302 80.8404L49.8318 81L81.2576 40.7262C82.1328 39.6038 82.5302 38.1816 82.3635 36.7682C82.1968 35.3547 81.4795 34.064 80.3672 33.176L70.1122 25L46.4144 54.8648L61.1802 66.4568L49.8332 80.9986L49.6302 80.8404Z" fill="#1AD3BB"></path></svg> 