<?xml version="1.0" encoding="UTF-8"?> <svg xmlns="http://www.w3.org/2000/svg" width="105" height="31" viewBox="0 0 105 31" fill="none"><path d="M2.35974 20.5701C2.26609 20.7561 1.99776 20.83 1.55473 20.7919C1.11171 20.7537 0.737265 20.5953 0.431385 20.3167C0.220155 20.0656 0.0818305 19.8693 0.0164005 19.7279C-0.0314275 19.6073 0.0253535 19.3988 0.186745 19.1022C0.346475 18.8249 0.622424 18.3247 1.01461 17.6017C1.13149 17.1461 1.30615 16.6954 1.53861 16.2497C1.77272 15.7848 1.94623 15.4601 2.05913 15.2758C2.15942 15.0128 2.35169 14.583 2.63594 13.9866C2.94112 13.3725 3.281 12.6935 3.65558 11.9496C4.04942 11.2073 4.41985 10.5115 4.76687 9.86232C5.11555 9.19372 5.37224 8.69192 5.53695 8.35684C5.93079 7.61457 6.33758 6.83461 6.75732 6.01696C7.17707 5.19931 7.7411 4.17094 8.44942 2.93184C8.54307 2.74586 8.5316 2.54111 8.41502 2.31761C8.29845 2.09412 8.07643 1.96826 7.74898 1.94004C7.57461 1.71156 7.48776 1.48092 7.48841 1.24812C7.49073 0.996058 7.60198 0.830998 7.82216 0.752938L10.5574 0.0862978C11.481 -0.0475722 12.4106 -0.0256922 13.3461 0.151938C14.3026 0.311978 15.1855 0.650018 15.9948 1.16607C16.8729 1.78507 17.4956 2.44028 17.863 3.1317C18.2303 3.82312 18.4042 4.50758 18.3846 5.18507C18.386 5.84495 18.2575 6.43543 17.9991 6.95651C17.8102 7.34773 17.4734 7.76503 16.9889 8.20841C16.5237 8.65342 15.9814 9.09182 15.362 9.52362C14.7619 9.95702 14.1363 10.3494 13.485 10.7008C12.8547 11.0346 12.2704 11.285 11.7321 11.4521C11.2306 11.6417 10.6705 11.836 10.0518 12.035C9.43484 12.2147 8.83953 12.3671 8.266 12.4924C7.95117 12.5429 7.58187 12.5498 7.15811 12.5133C6.73434 12.4768 6.41984 12.4109 6.2146 12.3156L5.64375 13.1979C5.39138 13.8747 4.9655 14.8762 4.36612 16.2023C3.78599 17.53 3.1172 18.986 2.35974 20.5701ZM13.7829 22.1075C13.6238 22.152 13.3621 22.1488 12.9978 22.098C12.6528 22.0489 12.2712 21.8608 11.853 21.5337C11.0487 20.9598 10.2534 20.2801 9.46734 19.4943C8.68122 18.7086 7.81073 17.6634 6.85589 16.3586C6.49288 15.8422 6.22618 15.3341 6.05579 14.8343C5.90467 14.3361 5.70654 13.7078 5.46142 12.9493L5.19135 11.3542L6.35153 10.7265L7.53319 11.8762C7.78329 12.5769 8.08404 13.2529 8.43543 13.9041C8.80608 14.557 9.18254 15.1425 9.56485 15.6606C9.87665 16.0949 10.3062 16.6268 10.8536 17.2561C11.4025 17.8661 11.9917 18.4602 12.6211 19.0384C13.2504 19.6166 13.8232 20.0637 14.3393 20.3799C14.4465 20.4861 14.4597 20.6716 14.3786 20.9363C14.3152 21.2219 14.2149 21.4849 14.0778 21.7254C13.9599 21.9675 13.8616 22.0948 13.7829 22.1075ZM7.47782 10.1541C7.92417 10.1537 8.41568 10.0796 8.95235 9.93182C9.50994 9.76642 10.098 9.58422 10.7167 9.38532C11.2986 9.16382 11.8724 8.92212 12.4383 8.66042C13.0251 8.3811 13.5567 8.06791 14.0329 7.72084C14.5284 7.37544 14.9204 6.99201 15.209 6.57056C15.5168 6.15077 15.673 5.68881 15.6777 5.18468C15.6992 4.93427 15.6463 4.64834 15.5187 4.32687C15.3912 4.0054 15.213 3.70867 14.9842 3.43669C14.7746 3.16637 14.5479 2.9819 14.3042 2.88327C13.5503 2.62426 12.9728 2.45807 12.5716 2.38469C12.1704 2.31132 11.8668 2.34338 11.661 2.48087C11.4743 2.62003 11.3162 2.87808 11.1867 3.25502C11.1818 3.31281 11.0889 3.48916 10.9083 3.78407C10.7276 4.07899 10.501 4.45726 10.2284 4.91889C9.97674 5.36292 9.72164 5.84548 9.46334 6.36655C8.80678 7.45488 8.32045 8.25709 8.00431 8.77322C7.7091 9.27172 7.52513 9.60512 7.4524 9.77352C7.39894 9.94352 7.40742 10.0704 7.47782 10.1541ZM21.8356 19.9197C21.2296 20.1974 20.5966 20.3369 19.9367 20.3382C19.2977 20.322 18.7081 20.1839 18.1678 19.9238C17.6291 19.6446 17.2055 19.2685 16.8969 18.7956C16.7259 18.5286 16.5769 18.1179 16.45 17.5637C16.3248 16.9901 16.3606 16.2364 16.5575 15.3025C16.7495 14.4265 17.0963 13.554 17.5981 12.6852C18.1191 11.8181 18.7273 11.0652 19.4227 10.4265C20.1181 9.78792 20.8522 9.37572 21.625 9.19002C21.9029 9.11692 22.1784 9.07282 22.4514 9.05752C22.7453 9.02462 23.1218 9.04732 23.5807 9.12572C24.0188 9.22162 24.4037 9.37122 24.7355 9.57452C25.0689 9.75842 25.3044 9.95342 25.4419 10.1593C25.7235 10.494 25.9 10.81 25.9714 11.1072C26.0429 11.4044 26.0573 11.6871 26.0148 11.9551C25.8654 12.5632 25.5288 13.2036 25.0051 13.8765C24.5007 14.551 23.8291 15.0268 22.9902 15.3038C22.6511 15.4104 22.2584 15.4639 21.812 15.4642C21.3657 15.4646 20.7639 15.3545 20.0067 15.134C19.5527 14.9979 19.2404 15.0195 19.0697 15.1988C18.9183 15.3798 18.8281 15.7505 18.7993 16.3107C18.8079 16.6607 18.8584 16.9756 18.9507 17.2552C19.064 17.5172 19.2898 17.7113 19.6282 17.8375C20.0646 17.9527 20.3816 17.9898 20.5792 17.9486C20.7785 17.8881 21.0284 17.8029 21.3289 17.693C21.4913 17.6099 21.6449 17.5165 21.7897 17.4125C21.9538 17.3102 22.1082 17.2071 22.253 17.1031C22.417 17.0008 22.5497 16.9249 22.651 16.8755C22.7539 16.8067 22.8544 16.7669 22.9524 16.7559C23.0503 16.7449 23.1475 16.7436 23.2438 16.7519C23.454 16.7894 23.6463 16.9224 23.8207 17.1509C23.995 17.3794 24.1028 17.5924 24.144 17.79C24.1307 17.9441 24.0153 18.1573 23.7978 18.4296C23.582 18.6827 23.297 18.9492 22.943 19.2292C22.6099 19.4916 22.2408 19.7218 21.8356 19.9197ZM22.0152 13.4442C22.155 13.398 22.3593 13.2798 22.6279 13.0895C22.9158 12.9009 23.1757 12.7001 23.4075 12.4872C23.641 12.2551 23.7635 12.0716 23.7751 11.9367C23.7934 11.7248 23.6647 11.5294 23.389 11.3504C23.1326 11.1731 22.7788 11.1135 22.3275 11.1716C22.17 11.1969 21.9779 11.287 21.7511 11.4421C21.5243 11.5972 21.295 11.7812 21.0632 11.9941C20.833 12.1878 20.6318 12.3839 20.4594 12.5825C20.2888 12.7618 20.1695 12.9068 20.1018 13.0174C20.1705 13.1203 20.318 13.2106 20.5442 13.2883C20.7703 13.3661 21.0182 13.4165 21.2879 13.4398C21.5768 13.4647 21.8193 13.4661 22.0152 13.4442ZM28.4656 20.6656C28.3082 20.6909 28.1043 20.6927 27.8539 20.6711C27.6052 20.6303 27.3861 20.5823 27.1968 20.5272C27.0285 20.4545 26.9468 20.3892 26.9517 20.3314C26.96 20.2351 26.916 20.1828 26.8197 20.1745C26.8197 20.1745 26.7204 20.0883 26.5218 19.916C26.3249 19.7244 26.143 19.5826 25.9763 19.4906C25.8262 19.206 25.7372 18.8878 25.7093 18.5361C25.7023 18.1668 25.8726 17.5411 26.2203 16.6591C26.2927 16.0444 26.5216 15.414 26.9072 14.7681C27.2944 14.1028 27.7666 13.4644 28.3238 12.8526C28.8811 12.2408 29.4509 11.7078 30.0334 11.2535C30.6176 10.7799 31.1323 10.4361 31.5777 10.2222C31.8706 9.97582 32.2394 9.86202 32.684 9.88092C33.148 9.90152 33.545 10.023 33.8751 10.2455C34.0595 10.3584 34.2547 10.5693 34.461 10.8782C34.6672 11.187 34.8622 11.5143 35.0459 11.86C35.2312 12.1865 35.3708 12.4799 35.4648 12.7402C35.5044 12.9571 35.5359 13.1539 35.5595 13.3305C35.604 13.4896 35.626 13.6855 35.6253 13.9183C35.6246 14.1512 35.5755 14.4962 35.4779 14.9535C35.3517 15.2919 35.2343 15.6408 35.1257 16.0001C35.0381 16.3419 34.9785 16.6957 34.9469 17.0617C34.8769 17.4244 34.893 17.6877 34.9953 17.8518C35.1169 18.0175 35.3086 18.0437 35.5707 17.9305C35.8118 17.8348 36.0534 17.8459 36.2955 17.9638C36.5392 18.0624 36.6993 18.2315 36.7757 18.4709C36.873 18.6928 36.8201 18.9696 36.6168 19.3013C36.4797 19.5418 36.276 19.7668 36.0056 19.9764C35.7353 20.1859 35.4394 20.3545 35.118 20.482C34.7981 20.5903 34.4938 20.632 34.2048 20.6071C33.993 20.5888 33.7877 20.4935 33.5891 20.3212C33.3922 20.1296 33.2195 19.8818 33.071 19.578C32.9225 19.2741 32.8055 18.9438 32.7198 18.5872L32.6037 17.9077L31.4814 18.7715C31.2077 19.0196 30.9357 19.2484 30.6654 19.458C30.416 19.65 30.2583 19.7916 30.1922 19.883C30.081 20.048 29.8751 20.1855 29.5745 20.2954C29.2932 20.407 28.9236 20.5304 28.4656 20.6656ZM29.4847 17.9591C29.8288 17.7947 30.128 17.5876 30.3824 17.3379C30.656 17.0898 30.9225 16.812 31.1819 16.5044C31.4429 16.1776 31.7248 15.8332 32.0277 15.4712C32.3933 15.0564 32.6552 14.72 32.8133 14.4619C32.9906 14.2056 33.1311 13.9266 33.2347 13.625C33.1759 13.4065 33.089 13.1759 32.9741 12.9331C32.8608 12.6711 32.7376 12.5246 32.6044 12.4938C32.3348 12.4705 31.9932 12.606 31.5798 12.9003C31.1856 13.1962 30.7404 13.6333 30.2443 14.2115C30.1589 14.3012 30.0493 14.447 29.9155 14.6489C29.7817 14.8508 29.6487 15.0431 29.5165 15.2258C29.4053 15.3908 29.3279 15.5006 29.2844 15.555C29.22 15.6271 29.1175 15.8026 28.977 16.0816C28.8575 16.343 28.7468 16.6148 28.6448 16.8971C28.5445 17.1601 28.4894 17.3494 28.4795 17.465C28.4695 17.5806 28.4683 17.7066 28.476 17.8431C28.5029 17.9812 28.5917 18.0762 28.7425 18.128C28.8933 18.1798 29.1407 18.1235 29.4847 17.9591ZM38.896 22.292C38.5218 22.3568 38.2034 22.2227 37.9411 21.8896C37.677 21.5758 37.5121 21.1249 37.4464 20.5371C37.3806 19.9493 37.4554 19.3057 37.6709 18.6063C37.7872 18.3834 37.8833 18.1685 37.9593 17.9616C38.037 17.7355 38.0817 17.555 38.0933 17.4201C38.1484 17.2308 38.2496 16.9582 38.3967 16.6022C38.5454 16.2269 38.7047 15.8428 38.8743 15.4499C39.044 15.057 39.1999 14.7115 39.3421 14.4132C39.5051 14.0974 39.6092 13.9026 39.6544 13.8289C39.7314 13.8355 39.8047 13.7739 39.8741 13.6441C39.9435 13.5142 39.984 13.3819 39.9956 13.247C40.0089 13.093 40.0527 12.9221 40.1271 12.7344C40.2207 12.5485 40.3094 12.4203 40.3931 12.3499C40.4014 12.2535 40.4298 12.1493 40.4783 12.037C40.5477 11.9072 40.5857 11.8037 40.5923 11.7267C40.599 11.6496 40.6249 11.5742 40.67 11.5005C40.7344 11.4284 40.77 11.3539 40.7766 11.2768C40.933 11.038 41.1404 10.6581 41.3988 10.137C41.678 9.59832 41.9719 9.00272 42.2804 8.35013C42.6082 7.6992 42.9158 7.05624 43.2034 6.42125C43.491 5.78626 43.7213 5.25306 43.8943 4.82165C44.0882 4.37264 44.1893 4.09998 44.1976 4.00368C44.2109 3.84958 44.2811 3.71009 44.4083 3.58522C44.5355 3.46034 44.6762 3.40454 44.8303 3.41782C44.893 3.36501 45.0312 3.33811 45.2447 3.3371C45.4599 3.31684 45.606 3.31002 45.6831 3.31666C45.6831 3.31666 45.7183 3.35851 45.7887 3.44219C45.8591 3.52588 45.9647 3.65141 46.1055 3.81878C46.248 3.96689 46.3792 4.13344 46.4991 4.31841C46.6383 4.50505 46.6979 4.71394 46.678 4.94508C46.6564 5.19549 46.5971 5.43294 46.5002 5.65745C46.4224 5.88361 46.2795 6.19147 46.0713 6.58104C45.8647 6.95134 45.5453 7.50596 45.1129 8.24491C44.9256 8.61682 44.7304 8.96872 44.5271 9.30052C44.3255 9.61302 44.2214 9.80782 44.2148 9.88482C44.2082 9.96192 44.1597 10.0741 44.0694 10.2216C43.9983 10.3707 43.9143 10.5575 43.8173 10.782C43.727 10.9295 43.6011 11.1515 43.4397 11.4481C43.28 11.7254 43.1082 12.0308 42.9242 12.3642C42.7611 12.68 42.6207 12.959 42.5028 13.2011C42.3866 13.424 42.3268 13.5546 42.3235 13.5932C42.3168 13.6702 42.3006 13.7464 42.2747 13.8218C42.268 13.8989 42.2229 13.9726 42.1392 14.043C42.0621 14.0364 42.009 14.09 41.9798 14.2039C41.9715 14.3002 41.9673 14.3484 41.9673 14.3484C41.9507 14.541 41.7527 15.0382 41.3731 15.8399C40.9736 16.8727 40.6009 17.8206 40.2549 18.6834C39.9281 19.5478 39.7415 20.2498 39.695 20.7891C39.6552 21.2514 39.5474 21.6011 39.3718 21.8382C39.2154 22.077 39.0568 22.2283 38.896 22.292ZM46.5863 22.8091C46.3233 22.7089 46.0653 22.5508 45.8122 22.3349C45.5591 22.1191 45.2989 21.8735 45.0316 21.5982C44.827 21.2701 44.6873 20.9767 44.6126 20.718C44.5395 20.44 44.5083 20.1268 44.5189 19.7785C44.5504 19.4125 44.5903 18.9502 44.6384 18.3916C44.6583 18.1605 44.725 17.8363 44.8386 17.4192C44.9714 17.0037 45.1059 16.569 45.2421 16.115C45.3975 15.6627 45.5382 15.2673 45.6644 14.9289C45.7923 14.5712 45.8708 14.3354 45.9 14.2215C45.9794 13.9761 45.8955 13.8233 45.6484 13.7632C45.4014 13.7031 45.1229 13.6694 44.813 13.6621C44.5241 13.6372 44.334 13.5918 44.2426 13.5257C44.1673 13.4998 44.137 13.4001 44.152 13.2268C44.1686 13.0342 44.1769 12.9379 44.1769 12.9379C44.1835 12.8608 44.1491 12.8093 44.0737 12.7834C44 12.7383 43.9384 12.665 43.8889 12.5638C43.857 12.4834 43.9176 12.3431 44.0707 12.1428C44.2238 11.9425 44.408 11.8323 44.6232 11.812C44.7998 11.7884 45.0624 11.7819 45.4107 11.7926C45.7608 11.7839 46.1133 11.7464 46.4683 11.6799C46.8443 11.5959 47.1385 11.4466 47.351 11.232C47.5609 10.8232 47.7925 10.3872 48.0459 9.92392C48.3009 9.44132 48.5405 9.02542 48.7647 8.67602C48.9905 8.30735 49.1461 8.07819 49.2314 7.98852C49.5738 7.84338 49.9167 7.80501 50.2601 7.87341C50.6052 7.92254 50.8607 8.10951 51.0268 8.43429C51.1115 8.57742 51.1802 8.68042 51.233 8.74312C51.3051 8.80752 51.3265 8.89672 51.2973 9.01062C51.2873 9.12622 51.192 9.33142 51.0114 9.62642C50.8517 9.90372 50.5815 10.3364 50.2009 10.9246C50.088 11.1089 49.9864 11.2748 49.8961 11.4222C49.8074 11.5504 49.7631 11.6145 49.7631 11.6145C49.8385 11.6404 49.9532 11.66 50.1073 11.6733C50.2614 11.6866 50.4549 11.6935 50.6877 11.6942C50.9029 11.6739 51.1365 11.665 51.3886 11.6673C51.6423 11.6503 51.8638 11.6694 52.0531 11.7245C52.4961 11.7627 52.8128 11.9161 53.0031 12.1848C53.1934 12.4534 53.2816 12.7812 53.2677 13.1681C53.2879 13.3833 53.1951 13.5597 52.9892 13.6972C52.7833 13.8347 52.4203 13.881 51.9003 13.8362C51.7269 13.8213 51.4757 13.8093 51.1466 13.8004C50.8174 13.7914 50.4787 13.7816 50.1303 13.771C49.7819 13.7604 49.4809 13.7636 49.2272 13.7805C48.9944 13.7799 48.8763 13.7988 48.873 13.8373C48.8119 13.8709 48.7023 14.0167 48.5442 14.2747C48.4071 14.5152 48.2553 14.8126 48.089 15.1669C47.9418 15.5229 47.806 15.8605 47.6815 16.1797C47.4902 16.823 47.3392 17.4503 47.2283 18.0617C47.1174 18.6731 47.0613 19.2116 47.06 19.6772C47.0796 20.1252 47.1678 20.453 47.3245 20.6606C47.4829 20.8489 47.743 20.8713 48.1046 20.7278C48.4872 20.5667 48.8434 20.3742 49.1731 20.1504C49.5447 19.8913 49.8508 19.8304 50.0912 19.9675C50.3333 20.0854 50.4692 20.3106 50.4987 20.643C50.5492 20.9578 50.4335 21.2875 50.1516 21.6319C49.8889 21.9779 49.5349 22.2579 49.0895 22.4718C48.6442 22.6857 48.1959 22.8217 47.7445 22.8798C47.2916 22.9572 46.9055 22.9337 46.5863 22.8091ZM53.4358 30.1523C53.3571 30.1649 53.244 30.126 53.0966 30.0357C52.9684 29.947 52.8644 29.8022 52.7847 29.6013C52.705 29.4004 52.6977 29.1475 52.7628 28.8426C52.709 28.5663 52.7476 28.2301 52.8788 27.8339C53.0276 27.4586 53.3181 26.9015 53.7505 26.1625C53.9697 25.8709 54.1746 25.5199 54.3652 25.1094C54.575 24.7006 54.8042 24.2934 55.0526 23.8879C55.1638 23.7229 55.3533 23.4384 55.6209 23.0346C55.9078 22.6324 56.2207 22.1548 56.5594 21.6018C56.919 21.0313 57.2514 20.439 57.5566 19.8249C57.011 20.3018 56.5353 20.7556 56.1295 21.1864C55.7446 21.5996 55.396 21.9285 55.0839 22.1733C54.7926 22.4005 54.4938 22.4911 54.1872 22.4453C53.9418 22.366 53.6573 22.1765 53.3339 21.877C53.0104 21.5774 52.8146 21.2598 52.7465 20.924C52.706 20.4936 52.7235 19.9518 52.7992 19.2985C52.8942 18.647 53.1049 17.6658 53.4313 16.3549C53.6418 15.7133 53.7524 15.2183 53.763 14.8699C53.7945 14.504 53.7696 14.2301 53.6882 14.0485C53.6069 13.8668 53.4949 13.7019 53.3524 13.5538C53.122 13.3011 53.1243 13.049 53.3594 12.7976C53.5945 12.5462 53.8527 12.3647 54.134 12.2531C54.5468 12.1917 54.8663 12.1998 55.0924 12.2775C55.3395 12.3376 55.5758 12.5229 55.8013 12.8334C55.9339 13.0971 56.0647 13.38 56.1939 13.6822C56.3231 13.9844 56.3645 14.4052 56.318 14.9445C56.2981 15.1757 56.2661 15.4349 56.2219 15.7222C56.1794 15.9902 56.1386 16.2389 56.0994 16.4684C56.0602 16.6979 56.0252 16.8792 55.9943 17.0124C55.7403 17.7085 55.5138 18.3099 55.3149 18.8167C55.116 19.3235 55.0647 19.5811 55.161 19.5894C55.5728 19.3144 55.926 19.044 56.2205 18.7783C56.5344 18.5143 56.8724 18.1941 57.2347 17.8178C57.597 17.4416 58.0472 16.9467 58.5852 16.3333C58.7867 16.0208 58.9875 15.7179 59.1874 15.4246C59.3873 15.1314 59.5591 14.826 59.7029 14.5085C59.8401 14.2681 60.0166 14.0213 60.2324 13.7682C60.45 13.4959 60.5981 13.3534 60.6768 13.3408C60.7764 13.3106 60.9104 13.3318 61.0788 13.4046C61.2472 13.4773 61.4051 13.5588 61.5525 13.6491C61.7209 13.7219 61.8034 13.7775 61.8001 13.816C61.8177 13.8369 61.9124 13.8645 62.0841 13.8987C62.2558 13.9329 62.4275 13.9671 62.5992 14.0013C62.7725 14.0162 62.8567 14.0526 62.8517 14.1104C62.8484 14.1489 62.7782 14.2884 62.641 14.5288C62.5232 14.7709 62.3835 15.0403 62.2221 15.3368C62.0607 15.6334 61.9115 15.9019 61.7743 16.1424C61.6581 16.3652 61.608 16.4967 61.6239 16.5369C61.6591 16.5788 61.6178 16.7207 61.4999 16.9628C61.3836 17.1857 61.2457 17.4358 61.0859 17.7131C60.9455 17.992 60.8171 18.243 60.7009 18.4658C60.4535 19.0848 60.1772 19.7014 59.872 20.3155C59.5685 20.9103 59.2169 21.5009 58.817 22.0874C58.6815 22.3086 58.4775 22.65 58.2048 23.1117C57.9515 23.575 57.6989 24.0286 57.4472 24.4727C57.2131 24.9376 57.0275 25.2903 56.8903 25.5308C56.8 25.6782 56.6637 25.909 56.4814 26.2232C56.3167 26.5583 56.1302 26.9206 55.922 27.3102C55.733 27.7014 55.5466 28.0638 55.3626 28.3972C55.177 28.7499 55.0373 29.0192 54.9437 29.2052C54.8736 29.5679 54.7637 29.8301 54.614 29.9918C54.4257 30.1502 54.1774 30.2162 53.8692 30.1896C53.5803 30.1647 53.4358 30.1523 53.4358 30.1523ZM62.593 25.4982C62.4262 25.4062 62.2373 25.2347 62.026 24.9836C61.669 24.623 61.4447 24.1864 61.353 23.674C61.2822 23.144 61.3157 22.6423 61.4535 22.1691C61.7345 21.6111 62.0189 21.2379 62.3068 21.0492C62.6157 20.843 62.9225 20.7724 63.2274 20.8375C63.5532 20.8849 63.8514 21.0271 64.1221 21.2638C63.9524 21.6567 63.815 22.0136 63.7097 22.3344C63.6044 22.6552 63.6093 22.937 63.7242 23.1797C63.8391 23.4225 64.1411 23.6329 64.6303 23.8109C65.0123 23.8826 65.338 23.9301 65.6077 23.9533C65.8983 23.9589 66.237 23.9687 66.6239 23.9826C67.0703 23.9823 67.4212 23.964 67.6765 23.9278C67.9512 23.8933 68.1969 23.8562 68.4138 23.8167C68.9664 23.7091 69.447 23.537 69.8554 23.3005C70.2656 23.0448 70.6116 22.7447 70.8935 22.4003C71.0709 22.1439 71.1976 21.9123 71.2736 21.7054C71.3513 21.4792 71.4009 21.2409 71.4225 20.9905C71.4474 20.7016 71.4401 20.4487 71.4006 20.2319C71.3627 19.9957 71.28 19.7169 71.1525 19.3955C71.0458 19.0564 70.8633 18.5847 70.6049 17.9802C70.5973 17.8437 70.4631 17.5993 70.2024 17.247C69.9609 16.8963 69.7187 16.5552 69.4755 16.2238C69.3673 15.904 69.2238 15.5423 69.0451 15.1388C68.8681 14.7161 68.6522 14.4064 68.3975 14.2098C68.3304 14.0876 68.2595 13.8972 68.1847 13.6384C68.1293 13.3814 68.0735 13.2408 68.0173 13.2165C68.0173 13.2165 67.9926 13.1659 67.9431 13.0646C67.9129 12.965 67.8747 12.8452 67.8285 12.7054C67.6262 12.1252 67.6764 11.431 67.9789 10.6226C68.283 9.79502 68.7748 9.04182 69.4543 8.36298C69.6961 8.03452 69.9956 7.71104 70.3529 7.39254C70.7119 7.05478 71.0362 6.78194 71.3258 6.57404C71.6363 6.34853 71.8301 6.23909 71.9071 6.24573C71.9071 6.24573 71.9666 6.23145 72.0855 6.20288C72.2253 6.15671 72.3973 6.07451 72.6015 5.95628C72.825 5.8397 73.0364 5.75119 73.2357 5.69073C73.4366 5.61102 73.7233 5.54841 74.096 5.5029L74.2718 5.48894L74.3899 5.47C74.7256 5.40191 75.0011 5.35773 75.2163 5.33746C75.4332 5.29793 75.6379 5.28647 75.8305 5.30306C76.0231 5.31966 76.2535 5.34921 76.5215 5.39171C77.3683 5.69754 78.0055 6.07262 78.4329 6.51695C78.8813 6.94369 79.0807 7.66915 79.0313 8.69332L78.7304 9.48242L78.192 9.98912C78.1358 9.96482 77.9768 10.0093 77.7147 10.1226C77.472 10.2375 77.1354 10.3152 76.705 10.3558C76.2955 10.3787 75.7837 10.2376 75.1697 9.93242C75.0943 9.90652 75.0695 9.85592 75.0954 9.78052C75.123 9.68582 75.205 9.63472 75.3415 9.62702C75.4026 9.59352 75.4968 9.51432 75.624 9.38942C75.7704 9.26622 75.9089 9.12292 76.0394 8.95952C76.3197 8.63432 76.3999 8.3793 76.28 8.19432C76.181 7.99174 75.9582 7.87552 75.6114 7.84564C74.9549 7.80847 74.3181 7.87974 73.701 8.05943C73.0857 8.21986 72.5035 8.55782 71.9546 9.07322C71.5052 9.55842 71.1668 9.99502 70.9394 10.3829C70.7136 10.7515 70.5865 11.0996 70.5583 11.427C70.5852 11.5652 70.5871 11.7691 70.5638 12.0388C70.5615 12.2908 70.6162 12.5575 70.7278 12.8388C71.2871 13.7796 71.7193 14.5057 72.0245 15.0172C72.349 15.5303 72.5696 15.8985 72.6861 16.122C72.7197 16.1832 72.7444 16.2338 72.7604 16.274C72.7763 16.3142 72.7826 16.3535 72.7793 16.392C72.8447 16.5335 72.9341 16.7353 73.0473 16.9973C73.1606 17.2593 73.265 17.5109 73.3607 17.752C73.4564 17.9931 73.5009 18.1522 73.4942 18.2292C73.4942 18.2292 73.5181 18.2895 73.566 18.41C73.6155 18.5113 73.6704 18.6616 73.7309 18.8608C73.8122 19.0425 73.8773 19.3004 73.9262 19.6345C73.9959 19.951 74.0439 20.2947 74.0702 20.6656C74.0981 21.0173 74.0996 21.3376 74.0747 21.6266C74.0548 21.8577 73.9713 22.1513 73.8242 22.5073C73.6787 22.8441 73.4939 23.1871 73.2698 23.5365C73.0665 23.8683 72.8201 24.1381 72.5306 24.3461C72.241 24.554 71.822 24.7992 71.2737 25.0819C70.7255 25.3645 70.1315 25.6141 69.4919 25.8307C68.8523 26.0472 68.2394 26.1788 67.6532 26.2253C67.0671 26.2718 66.5115 26.3015 65.9864 26.3145C65.4806 26.3292 65.007 26.3078 64.5657 26.2503C64.1419 26.2138 63.7608 26.1325 63.4224 26.0063C63.084 25.8801 62.8075 25.7107 62.593 25.4982ZM79.3721 25.7215C79.1201 25.7191 78.9203 25.6728 78.7729 25.5825C78.6237 25.5114 78.4394 25.3985 78.2199 25.2438C77.8243 24.8798 77.5028 24.4446 77.2554 23.9382C77.0272 23.4334 76.9369 23.0181 76.9844 22.6923C77.0378 22.5223 77.0511 22.3682 77.0242 22.23C77.0166 22.0935 77.0127 22.0253 77.0127 22.0253C76.9055 21.919 76.8719 21.8579 76.9121 21.8419C76.9539 21.8067 76.9878 21.7514 77.0137 21.6761C77.1711 21.6508 77.1995 21.5465 77.0989 21.3632C77.0544 21.2041 77.1131 20.8599 77.2752 20.3305C77.4582 19.7836 77.6763 19.2784 77.9297 18.8151C78.0443 18.6116 78.2032 18.3439 78.4064 18.0121C78.6289 17.682 78.8706 17.3535 79.1317 17.0267C79.3943 16.6807 79.6311 16.41 79.842 16.2147C80.3073 15.7697 80.7169 15.4072 81.0709 15.1272C81.4442 14.8489 81.8493 14.6509 82.2864 14.5333C82.6849 14.4124 83.0759 14.3782 83.4595 14.4307C83.8623 14.4848 84.2071 14.6503 84.4937 14.9273C84.9444 15.1019 85.3402 15.3495 85.6813 15.67C86.0241 15.9712 86.2413 16.378 86.333 16.8904C86.4389 17.4623 86.4298 18.131 86.3056 18.8965C86.2024 19.6444 85.7911 20.5889 85.0718 21.73C84.6411 22.4497 84.2229 23.0249 83.8171 23.4557C83.4305 23.8881 82.9686 24.2946 82.4312 24.6752C82.0387 24.9519 81.5436 25.1809 80.9458 25.3622C80.348 25.5436 79.8235 25.6633 79.3721 25.7215ZM82.2617 21.5752C82.542 21.2501 82.7637 20.9296 82.9267 20.6138C83.109 20.2996 83.2925 19.8594 83.4771 19.2931C83.5532 19.0862 83.6045 18.8287 83.631 18.5205C83.6769 18.214 83.6913 17.9338 83.6743 17.6801C83.6783 17.4088 83.6233 17.2585 83.5094 17.2293C83.2673 17.1114 83.0073 17.089 82.7293 17.1621C82.4723 17.2175 82.1538 17.423 81.7739 17.7783C81.4358 18.0985 81.1572 18.4044 80.938 18.696C80.7398 18.9699 80.5454 19.3122 80.3547 19.7227C80.1851 20.1156 79.9853 20.632 79.7555 21.2719C79.5467 21.8943 79.493 22.4039 79.5947 22.8008C79.7156 23.1993 79.9954 23.3301 80.4341 23.1933C80.8728 23.0564 81.482 22.5171 82.2617 21.5752ZM87.7122 29.7001C87.59 29.7672 87.4087 29.7322 87.1682 29.595C86.9278 29.4579 86.686 29.2236 86.4429 28.8922C86.3213 28.7265 86.1524 28.547 85.9362 28.3537C85.7393 28.1621 85.6905 27.828 85.7897 27.3514C85.885 27.1462 85.9476 26.8702 85.9775 26.5235C86.025 26.1977 86.052 25.9963 86.0587 25.9192C86.0686 25.8036 86.1208 25.5365 86.2151 25.1177C86.3286 24.7006 86.4438 24.2642 86.5607 23.8085C86.6793 23.3336 86.7782 22.9734 86.8576 22.728C86.8592 22.7087 86.873 22.6614 86.8989 22.586C86.9248 22.5106 86.9499 22.4449 86.9741 22.3888C87.0276 22.2187 87.0957 21.9917 87.1784 21.7078C87.2803 21.4255 87.3784 21.075 87.4727 20.6562C87.6683 20.1879 87.8342 19.7268 87.9703 19.2728C88.1274 18.8012 88.2134 18.4787 88.2283 18.3054C88.2582 17.9586 88.4146 17.7199 88.6975 17.589C88.7251 17.4943 88.7953 17.3549 88.9082 17.1705C89.0228 16.967 89.1244 16.8011 89.2131 16.6729C89.6929 15.6081 90.0662 14.7671 90.3328 14.1497C90.6011 13.513 90.8909 12.9656 91.202 12.5072C91.3458 12.1897 91.5386 11.8668 91.7804 11.5383C92.0414 11.2115 92.2572 10.9584 92.4279 10.7791C92.5458 10.537 92.7947 10.2383 93.1746 9.88292C93.5562 9.50832 93.9554 9.15462 94.3721 8.82182C94.7906 8.46975 95.1237 8.20738 95.3714 8.03467C95.8134 7.85931 96.2329 7.7208 96.6297 7.61916C97.0475 7.49992 97.4586 7.45773 97.8631 7.49258C98.2291 7.52412 98.5579 7.64947 98.8495 7.86865C99.1427 8.06856 99.4043 8.29488 99.6353 8.54762C99.8803 8.85972 100.017 9.06562 100.047 9.16532C100.078 9.26492 100.081 9.44952 100.058 9.71922C100.003 9.90852 99.8623 10.1875 99.6363 10.5561C99.4123 10.9055 99.1578 11.2717 98.8726 11.6546C98.5873 12.0375 98.3263 12.3643 98.0895 12.635C97.8527 12.9057 97.6958 13.0377 97.6188 13.031C97.1641 13.1277 96.9625 12.8775 97.014 12.2803C97.0256 12.1455 96.9593 12.0137 96.8152 11.8848C96.692 11.7384 96.6304 11.6651 96.6304 11.6651C96.6354 11.6074 96.6775 11.4557 96.7569 11.2103C96.8572 10.9473 96.9516 10.7517 97.0403 10.6235C97.1532 10.4392 97.1849 10.2964 97.1354 10.1951C97.1052 10.0954 96.9817 10.0654 96.7648 10.1049C96.7037 10.1385 96.571 10.2144 96.3668 10.3326C96.1835 10.4332 95.9792 10.5515 95.7541 10.6873C95.5498 10.8055 95.364 10.9351 95.1967 11.0759C95.0502 11.1991 94.9745 11.2896 94.9695 11.3474C94.9695 11.3474 94.9235 11.4307 94.8315 11.5975C94.7412 11.7449 94.5793 11.9347 94.3459 12.1669C94.1944 12.3479 94.0526 12.5297 93.9205 12.7124C93.8092 12.8774 93.7519 12.9792 93.7486 13.0177C93.742 13.0948 93.7249 13.1806 93.6973 13.2753C93.6907 13.3523 93.6392 13.3867 93.5429 13.3784C93.5429 13.3784 93.5065 13.4626 93.4338 13.631C93.3611 13.7994 93.2361 14.0117 93.0587 14.2681C92.9651 14.4541 92.8513 14.6481 92.7175 14.85C92.5854 15.0326 92.4774 15.1592 92.3937 15.2296L92.4226 15.2321C92.4226 15.2321 92.3838 15.3452 92.3061 15.5713C92.2284 15.7975 92.1402 16.0325 92.0416 16.2762C91.9622 16.5217 91.9096 16.6821 91.8837 16.7574C92.155 16.7614 92.4875 16.7319 92.881 16.6687C93.2938 16.6073 93.7435 16.5684 94.23 16.5521C94.9895 16.5205 95.6921 16.4743 96.3377 16.4135C96.9833 16.3527 97.6564 16.1973 98.3571 15.9472C98.567 15.5384 98.7874 15.1207 99.0181 14.6943C99.2683 14.2695 99.4943 13.9009 99.6953 13.5884C99.9183 13.2583 100.072 13.0484 100.157 12.9587C100.499 12.8136 100.828 12.7157 101.143 12.6652C101.477 12.6164 101.727 12.7544 101.893 13.0792C101.978 13.2223 102.065 13.3365 102.155 13.4219C102.246 13.488 102.304 13.5997 102.33 13.7571C102.356 13.8953 102.299 14.1135 102.157 14.4117C102.034 14.7116 101.782 15.1556 101.402 15.7438C101.289 15.9281 101.187 16.094 101.097 16.2415C101.008 16.3697 100.964 16.4338 100.964 16.4338C101.039 16.4597 101.154 16.4793 101.308 16.4925C101.462 16.5058 101.655 16.5128 101.888 16.5134C102.103 16.4932 102.308 16.4817 102.502 16.479C102.698 16.4571 102.891 16.4737 103.08 16.5288C103.523 16.567 103.838 16.7493 104.023 17.0758C104.208 17.4022 104.294 17.7589 104.28 18.1458C104.3 18.361 104.171 18.5148 103.891 18.6071C103.611 18.6994 103.211 18.7232 102.691 18.6784C102.518 18.6634 102.267 18.6515 101.938 18.6425C101.609 18.6336 101.27 18.6238 100.921 18.6132C100.594 18.585 100.303 18.5793 100.05 18.5963C99.8173 18.5956 99.6993 18.6146 99.6953 18.6531C99.6343 18.6866 99.5433 18.8437 99.4223 19.1244C99.3203 19.4066 99.2043 19.7363 99.0752 20.1132C98.9649 20.4918 98.8475 20.8407 98.723 21.1598C98.5317 21.8031 98.3534 22.4087 98.1881 22.9766C98.042 23.5462 97.9507 24.0428 97.9141 24.4666C97.8986 24.8728 97.9691 25.1796 98.1259 25.3872C98.2843 25.5755 98.5762 25.6782 99.0017 25.6955C99.4483 25.6952 99.8363 25.5831 100.166 25.3592C100.663 24.9945 101.052 24.8632 101.335 24.9651C101.617 25.0671 101.763 25.2834 101.774 25.6142C101.803 25.9466 101.677 26.285 101.395 26.6294C101.134 26.9562 100.779 27.2458 100.331 27.4983C99.8803 27.7699 99.4283 27.9541 98.9734 28.0508C98.5187 28.1474 98.1318 28.1335 97.8127 28.009C97.5496 27.9087 97.2594 27.7867 96.9419 27.6429C96.642 27.52 96.3584 27.3209 96.091 27.0456C95.8864 26.7175 95.7308 26.3839 95.6242 26.0448C95.5385 25.6882 95.4947 25.2963 95.4926 24.8692C95.4923 24.4229 95.5162 23.9204 95.5643 23.3618C95.5842 23.1307 95.6518 22.7969 95.767 22.3605C95.9032 21.9065 96.0506 21.4341 96.2093 20.9432C96.3873 20.454 96.5411 20.021 96.6706 19.644C96.821 19.2495 96.9108 18.9953 96.94 18.8814C96.8922 18.7608 96.7824 18.6834 96.6107 18.6492C96.4583 18.6167 96.1581 18.6102 95.7101 18.6298C95.2813 18.6511 94.6181 18.691 93.7205 18.7495C93.3671 18.7967 92.9543 18.8581 92.4821 18.9339C92.0098 19.0096 91.5954 19.0903 91.2387 19.176C90.8837 19.2424 90.7037 19.3045 90.6987 19.3623C90.6216 19.3557 90.5476 19.4269 90.4765 19.5761C90.4055 19.7252 90.3674 19.8286 90.3625 19.8864C90.3392 20.1561 90.2833 20.355 90.1946 20.4832C90.1461 20.5955 90.0605 20.8015 89.9376 21.1014C89.834 21.403 89.7183 21.7326 89.5904 22.0903C89.4835 22.4303 89.3879 22.752 89.3035 23.0552C89.2192 23.3584 89.172 23.5678 89.1621 23.6834C89.0349 23.8082 88.9525 23.9758 88.915 24.186C88.8792 24.377 88.8546 24.5495 88.8413 24.7036C88.751 24.8511 88.6904 24.9914 88.6595 25.1245C88.6303 25.2385 88.6123 25.3339 88.6057 25.411C88.6041 25.4303 88.6007 25.4688 88.5958 25.5266C88.5908 25.5843 88.5762 25.6413 88.5519 25.6974C88.5161 25.8884 88.4656 26.1363 88.4005 26.4412C88.353 26.767 88.316 27.084 88.2895 27.3922L88.1306 28.2226C88.0898 28.4713 88.036 28.7578 87.9692 29.0819C87.9025 29.406 87.8168 29.6121 87.7122 29.7001Z" fill="#5E8BDC"></path></svg> 