<?xml version="1.0" encoding="UTF-8"?> <svg xmlns="http://www.w3.org/2000/svg" width="106" height="106" viewBox="0 0 106 106" fill="none"><rect width="106" height="106" rx="7" fill="white"></rect><path d="M56.409 41.9917L28.4902 69.9119C27.9566 70.4335 27.5318 71.0556 27.2404 71.7425C26.9489 72.4293 26.7967 73.1672 26.7924 73.9133C26.7881 74.6594 26.9318 75.3989 27.2153 76.0891C27.4989 76.7792 27.9165 77.4063 28.444 77.9339C28.9715 78.4615 29.5985 78.8793 30.2886 79.1629C30.9787 79.4465 31.7183 79.5904 32.4644 79.5863C33.2105 79.5821 33.9483 79.43 34.6352 79.1386C35.3221 78.8473 35.9444 78.4226 36.466 77.8891L64.3848 49.9703C64.9184 49.4488 65.3432 48.8266 65.6346 48.1398C65.9261 47.4529 66.0784 46.7151 66.0827 45.969C66.0869 45.2229 65.9432 44.4833 65.6597 43.7932C65.3762 43.103 64.9585 42.476 64.431 41.9483C63.9035 41.4207 63.2765 41.003 62.5864 40.7194C61.8963 40.4357 61.1568 40.2918 60.4107 40.296C59.6645 40.3002 58.9267 40.4523 58.2398 40.7436C57.5529 41.0349 56.9306 41.4596 56.409 41.9931V41.9917Z" fill="#1AD3BB"></path><path d="M56.409 41.9917L28.4902 69.9119C27.9566 70.4335 27.5318 71.0556 27.2404 71.7425C26.9489 72.4293 26.7967 73.1672 26.7924 73.9133C26.7881 74.6594 26.9318 75.3989 27.2153 76.0891C27.4989 76.7792 27.9165 77.4063 28.444 77.9339C28.9715 78.4615 29.5985 78.8793 30.2886 79.1629C30.9787 79.4465 31.7183 79.5904 32.4644 79.5863C33.2105 79.5821 33.9483 79.43 34.6352 79.1386C35.3221 78.8473 35.9444 78.4226 36.466 77.8891L64.3848 49.9703C64.9184 49.4488 65.3432 48.8266 65.6346 48.1398C65.9261 47.4529 66.0784 46.7151 66.0827 45.969C66.0869 45.2229 65.9432 44.4833 65.6597 43.7932C65.3762 43.103 64.9585 42.476 64.431 41.9483C63.9035 41.4207 63.2765 41.003 62.5864 40.7194C61.8963 40.4357 61.1568 40.2918 60.4107 40.296C59.6645 40.3002 58.9267 40.4523 58.2398 40.7436C57.5529 41.0349 56.9306 41.4596 56.409 41.9931V41.9917Z" fill="#1AD3BB"></path><path fill-rule="evenodd" clip-rule="evenodd" d="M49.43 33.0206C48.3824 34.0682 47.5514 35.3118 46.9844 36.6805C46.4174 38.0493 46.1256 39.5163 46.1256 40.9978C46.1256 42.4793 46.4174 43.9463 46.9844 45.315C47.5514 46.6838 48.3824 47.9274 49.43 48.975L57.4072 56.9508C59.5228 59.0661 62.392 60.2545 65.3837 60.2545C68.3754 60.2545 71.2446 59.0661 73.3602 56.9508L82.3342 47.9768C84.4495 45.8612 85.6379 42.992 85.6379 40.0003C85.6379 37.0086 84.4495 34.1394 82.3342 32.0238L74.357 24.0466C72.2414 21.9313 69.3722 20.7429 66.3805 20.7429C63.3888 20.7429 60.5196 21.9313 58.404 24.0466L49.43 33.0206ZM74.357 38.006C74.762 37.6159 75.0852 37.1491 75.3076 36.6327C75.5301 36.1163 75.6474 35.5607 75.6527 34.9984C75.6579 34.4362 75.5511 33.8785 75.3384 33.358C75.1256 32.8375 74.8113 32.3647 74.4137 31.9671C74.0161 31.5695 73.5432 31.2552 73.0227 31.0424C72.5023 30.8297 71.9446 30.7228 71.3823 30.7281C70.8201 30.7334 70.2645 30.8507 69.7481 31.0732C69.2317 31.2956 68.7648 31.6188 68.3748 32.0238C67.6059 32.8221 67.181 33.8902 67.1914 34.9984C67.2018 36.1067 67.6467 37.1667 68.4304 37.9504C69.2141 38.7341 70.2741 39.1789 71.3823 39.1893C72.4906 39.1997 73.5587 38.7748 74.357 38.006Z" fill="#985184"></path><path d="M57.4086 56.9508L64.389 49.9718C65.4101 48.9065 65.9732 47.4835 65.9575 46.008C65.9419 44.5324 65.3488 43.1217 64.3053 42.0783C63.2619 41.0349 61.8512 40.4417 60.3756 40.4261C58.9001 40.4105 57.4771 40.9735 56.4118 41.9946L49.4314 48.975L57.4086 56.9508Z" fill="#005E7A"></path></svg> 