<?xml version="1.0" encoding="UTF-8"?> <svg xmlns="http://www.w3.org/2000/svg" width="106" height="106" viewBox="0 0 106 106" fill="none"><rect width="106" height="106" rx="7" fill="white"></rect><path d="M81.623 50.5108C81.6226 45.0499 80.1849 39.6853 77.4543 34.9562C74.7237 30.227 70.7964 26.3 66.0671 23.5696C61.3377 20.8393 55.9731 19.4019 50.5122 19.4019C45.0513 19.4018 39.6867 20.8392 34.9574 23.5696C30.228 26.2999 26.3007 30.227 23.5701 34.9561C20.8394 39.6853 19.4017 45.0498 19.4014 50.5107C19.401 55.9716 20.8381 61.3363 23.5681 66.0658C26.2982 70.7953 30.225 74.7229 34.954 77.4538L50.5094 50.5108H81.623Z" fill="#FC868B"></path><path d="M25.4382 63.5419C26.7626 68.4837 29.2852 73.0225 32.7827 76.7565C36.2802 80.4904 40.6445 83.3042 45.4892 84.9486C50.3338 86.5929 55.5092 87.0172 60.557 86.1837C65.6048 85.3502 70.3691 83.2847 74.4279 80.1702C78.4868 77.0556 81.7149 72.9882 83.8263 68.3281C85.9378 63.668 86.8674 58.5591 86.5328 53.454C86.1982 48.3488 84.6098 43.405 81.9082 39.0603C79.2066 34.7156 75.4753 31.1043 71.0446 28.5461L55.4892 55.4891L25.4382 63.5419Z" fill="#2EBCFA"></path><path d="M50.5094 81.6216C67.693 81.6216 81.6216 67.6916 81.6216 50.5094C81.6216 43.1874 79.0918 36.4548 74.8568 31.1404C69.356 26.7515 62.5249 24.3661 55.4878 24.377C38.3056 24.377 24.377 38.3056 24.377 55.4878C24.377 62.8098 26.9068 69.5438 31.1404 74.8568C36.6409 79.2462 43.4721 81.6321 50.5094 81.6216Z" fill="#2D6388"></path><path d="M28.8066 28.2242C29.711 27.3422 30.6686 26.5162 31.6766 25.749C31.9944 25.8274 32.2996 25.9744 32.5712 26.1914L55.212 44.3144C57.76 46.3528 57.9364 50.1832 55.6278 52.4904C53.3192 54.7962 49.486 54.6198 47.4448 52.0746L29.305 29.4534C29.0224 29.1012 28.8491 28.6738 28.8066 28.2242Z" fill="white"></path></svg> 