<?xml version="1.0" encoding="UTF-8"?> <svg xmlns="http://www.w3.org/2000/svg" width="106" height="106" viewBox="0 0 106 106" fill="none"><rect width="106" height="106" rx="7" fill="white"></rect><path d="M23.6 52.9999C23.6 51.5147 24.19 50.0903 25.2402 49.0401C26.2904 47.9899 27.7148 47.3999 29.2 47.3999H39V82.3999H23.6V52.9999Z" fill="#985184"></path><path d="M54.4 29.2001C54.4 26.1061 57.0264 23.6001 60.266 23.6001H82.4V76.8001C82.4 79.8941 79.7736 82.4001 76.534 82.4001H54.4V29.2001Z" fill="#FBB945"></path><path d="M39 41.8937C39 38.7494 41.6264 36.2 44.866 36.2H67V76.7061C67 79.8505 64.3736 82.3999 61.134 82.3999H39V41.8937Z" fill="#FC868B"></path><path d="M54.4 82.3999H61.134C64.3736 82.3999 67 79.8505 67 76.7061V36.2H54.4V82.3999Z" fill="#F86126"></path><path d="M39 82.3999L45.993 82.3971C47.4796 82.3971 48.9053 81.8067 49.9568 80.7558C51.0082 79.7049 51.5993 78.2795 51.6 76.7929V47.3999H39V82.3999Z" fill="#962B48"></path></svg> 