<?xml version="1.0" encoding="UTF-8"?> <svg xmlns="http://www.w3.org/2000/svg" width="94" height="32" viewBox="0 0 94 32" fill="none"><path d="M5.20555 31.9176C4.84624 31.881 4.55525 31.8425 4.33258 31.8021C4.11318 31.7808 4.00348 31.7702 4.00348 31.7702C4.02529 31.6684 3.99156 31.5859 3.9023 31.5227C3.83208 31.4562 3.69054 31.4314 3.47766 31.4482C3.15921 31.3066 2.81819 31.0903 2.4546 30.7995C2.091 30.5086 1.7639 30.2017 1.47327 29.8788C1.18265 29.5558 0.98455 29.3151 0.87898 29.1567C0.69668 28.8936 0.67686 28.7205 0.81953 28.6372C0.95894 28.5349 1.1253 28.4182 1.31862 28.2871C1.50216 28.0987 1.70175 27.9469 1.91738 27.8316C2.15207 27.713 2.37336 27.8026 2.58124 28.1005C2.90396 28.4964 3.34867 28.8028 3.91536 29.0196C4.50111 29.2332 5.13236 29.3116 5.80911 29.2546C6.50493 29.1944 7.17141 28.9627 7.80851 28.5595C8.23001 28.2716 8.42881 27.9434 8.40501 27.5748C8.37791 27.1871 8.16001 26.7733 7.75121 26.3333C7.66801 26.1906 7.56101 26.0814 7.43041 26.0057C7.31881 25.9267 7.14521 25.8289 6.90951 25.7123C6.69284 25.5925 6.37413 25.392 5.95337 25.111C5.64471 25.0265 5.35672 24.9482 5.08943 24.8763C4.84119 24.8011 4.57226 24.7196 4.28265 24.6318C3.95166 24.5316 3.57278 24.3806 3.14601 24.1791C2.71597 23.9584 2.31126 23.7138 1.93187 23.4453C1.54923 23.1577 1.24606 22.8761 1.02239 22.6006C0.66858 22.3669 0.41118 22.0088 0.25018 21.5264C0.08592 21.0249 0.00253 20.4802 0 19.8922C0.01652 19.3009 0.10953 18.7555 0.27901 18.2557C0.3477 17.9694 0.49863 17.5905 0.73181 17.1191C0.96172 16.6286 1.22811 16.1221 1.53099 15.5995C1.83387 15.077 2.12584 14.6053 2.40691 14.1845C2.70377 13.7415 2.9456 13.4353 3.1324 13.266C3.25877 13.0875 3.39466 12.9073 3.54009 12.7255C3.68225 12.5247 3.75333 12.4243 3.75333 12.4243C3.75609 12.3257 3.77652 12.2732 3.81463 12.2667C3.8718 12.2569 3.90039 12.252 3.90039 12.252C3.98589 12.1785 4.17921 12.0474 4.48034 11.8586C4.78148 11.6697 5.09164 11.3617 5.41082 10.9344C6.58326 10.1061 7.59941 9.51064 8.45921 9.14774C9.31571 8.76584 10.0012 8.53084 10.5157 8.44284C10.9954 8.38034 11.4851 8.43394 11.9848 8.60334C12.4813 8.75384 12.9225 8.98234 13.3084 9.28904C13.7134 9.59234 13.9836 9.96784 14.119 10.4154C14.3307 10.8499 14.3585 11.414 14.2026 12.1075C14.0624 12.7788 13.8126 13.4394 13.4531 14.0893C13.1093 14.7169 12.7221 15.2049 12.2913 15.5532C11.7968 15.8732 11.3444 15.98 10.9339 15.8737C10.5425 15.7642 10.3253 15.5267 10.2824 15.1614C10.2564 15.0089 10.273 14.8197 10.3324 14.5938C10.4109 14.3646 10.6427 13.9425 11.0278 13.3274C11.4844 12.3274 11.6991 11.6336 11.672 11.2459C11.6449 10.8583 11.4359 10.6685 11.045 10.6765C10.9242 10.658 10.7066 10.705 10.3925 10.8176C10.0783 10.9302 9.73881 11.0667 9.37401 11.2272C9.02491 11.3654 8.71561 11.5066 8.44611 11.6508C8.19561 11.7917 8.07361 11.8812 8.08011 11.9193C8.08011 11.9193 8.08501 11.9479 8.09481 12.0051C8.10461 12.0623 8.06971 12.0878 7.99031 12.0818C7.95211 12.0883 7.83021 12.1779 7.62431 12.3504C7.43431 12.5006 7.20311 12.6971 6.93081 12.9398C6.65849 13.1825 6.38782 13.4348 6.11878 13.6966C5.86554 13.936 5.64715 14.1499 5.46361 14.3383C5.28007 14.5266 5.18204 14.6414 5.1695 14.6828C5.16725 14.8989 4.98071 15.127 4.60987 15.367C4.26787 15.6609 3.98981 16.0419 3.77569 16.51C3.56157 16.9782 3.31938 17.5688 3.04911 18.2819C2.80014 18.7757 2.65297 19.2912 2.60761 19.8285C2.55898 20.3468 2.62745 20.747 2.81302 21.0291C2.96046 21.3177 3.26989 21.5786 3.7413 21.8118C4.22851 22.0226 4.8812 22.2836 5.69939 22.5947C6.40926 22.846 7.08431 23.1228 7.72441 23.4251C8.36461 23.7275 8.91741 24.035 9.38281 24.3477C9.84491 24.6413 10.1543 24.9022 10.311 25.1303C10.5952 25.4152 10.7921 25.7639 10.902 26.1767C11.0309 26.5861 11.101 26.9958 11.1123 27.4058C11.1394 27.7935 11.136 28.1177 11.1022 28.3784C11.0209 28.7062 10.8667 29.066 10.6396 29.4579C10.4315 29.8466 10.2115 30.0509 9.97951 30.071C9.77971 30.164 9.62911 30.2585 9.52781 30.3542C9.44561 30.4468 9.34261 30.533 9.21901 30.613C9.09871 30.7121 8.79891 30.8516 8.31981 31.0317C7.84381 31.2308 7.31541 31.4095 6.73441 31.5677C6.15675 31.745 5.64711 31.8616 5.20555 31.9176ZM19.1561 27.0299C18.6398 27.4517 18.0626 27.7466 17.4245 27.9146C16.8021 28.0603 16.1967 28.0756 15.6082 27.9605C15.0164 27.8264 14.5116 27.5695 14.0936 27.1899C13.8606 26.9748 13.6127 26.6151 13.3499 26.1109C13.0839 25.5876 12.9281 24.8493 12.8827 23.896C12.8471 22.9998 12.9622 22.068 13.2282 21.1007C13.5133 20.13 13.9116 19.2479 14.4231 18.4542C14.9345 17.6606 15.5407 17.0764 16.2415 16.7015C16.492 16.5605 16.7474 16.4482 17.0076 16.3644C17.2837 16.2584 17.6537 16.1853 18.1176 16.1451C18.5656 16.1273 18.9759 16.1748 19.3482 16.2876C19.7173 16.3814 19.9944 16.5105 20.1794 16.675C20.5365 16.9277 20.7871 17.1889 20.9313 17.4584C21.0755 17.728 21.1609 17.9977 21.1875 18.2678C21.1966 18.8939 21.0327 19.5986 20.696 20.382C20.3783 21.162 19.8487 21.7921 19.107 22.272C18.8058 22.4608 18.4394 22.6118 18.0076 22.7249C17.5758 22.838 16.9658 22.8835 16.1774 22.8615C15.7038 22.8445 15.407 22.9443 15.2872 23.1609C15.1864 23.3743 15.1928 23.7557 15.3064 24.3051C15.4032 24.6416 15.5316 24.9334 15.6916 25.1807C15.8674 25.4056 16.1349 25.5363 16.4942 25.5729C16.9456 25.5742 17.2616 25.5299 17.4424 25.4401C17.6199 25.3313 17.8402 25.1857 18.1032 25.0034C18.2394 24.882 18.3644 24.7528 18.4782 24.6156C18.6111 24.4752 18.7345 24.3364 18.8483 24.1992C18.9812 24.0588 19.0904 23.9519 19.1759 23.8784C19.2581 23.7859 19.3453 23.7219 19.4373 23.6866C19.5293 23.6512 19.6229 23.6254 19.7182 23.6091C19.9311 23.5923 20.1508 23.6724 20.3772 23.8494C20.6036 24.0264 20.7617 24.2053 20.8515 24.3861C20.8776 24.5385 20.8198 24.774 20.6781 25.0924C20.5332 25.3918 20.3249 25.7217 20.0531 26.082C19.7971 26.42 19.4981 26.736 19.1561 27.0299ZM17.6939 20.7191C17.8175 20.6391 17.9852 20.4731 18.1971 20.2211C18.428 19.9658 18.6287 19.7059 18.7992 19.4414C18.9664 19.1578 19.0386 18.9493 19.0158 18.8159C18.98 18.6063 18.8061 18.4497 18.4941 18.3461C18.2013 18.2393 17.8438 18.2711 17.4218 18.4413C17.2759 18.5055 17.1128 18.6413 16.9325 18.8487C16.7522 19.0561 16.5769 19.292 16.4064 19.5566C16.2326 19.8021 16.0874 20.0426 15.9708 20.2784C15.851 20.495 15.7723 20.6654 15.7347 20.7895C15.8272 20.8717 15.9927 20.9219 16.2311 20.9399C16.4696 20.958 16.7222 20.9442 16.989 20.8985C17.2749 20.8496 17.5098 20.7898 17.6939 20.7191ZM32.971 24.5485C32.5453 24.5822 32.178 24.5567 31.8694 24.4722C31.5765 24.3654 31.3068 24.1075 31.0603 23.6986C30.9319 23.4067 30.84 23.0988 30.7846 22.7749C30.745 22.4286 30.7181 22.0997 30.7041 21.7883C30.6867 21.4578 30.6585 21.1783 30.6194 20.9496C30.6129 20.9115 30.5998 20.8352 30.5803 20.7209C30.5607 20.6066 30.5428 20.5018 30.5265 20.4065C30.4395 20.1271 30.3339 19.9687 30.2098 19.9311C30.1014 19.8711 29.9316 19.91 29.7001 20.0477C29.3326 20.3067 28.9383 20.639 28.5173 21.0444C28.1121 21.4276 27.6881 21.8728 27.2453 22.3801C26.8183 22.865 26.3772 23.3818 25.9218 23.9305C25.5808 24.4596 25.33 24.885 25.1693 25.2067C25.0276 25.5251 24.852 25.7023 24.6424 25.7382C24.5029 25.8405 24.3377 25.8491 24.1466 25.7641C23.9556 25.6791 23.7517 25.5767 23.5351 25.4569C23.3756 25.3272 23.181 25.1644 22.9513 24.9683C22.7374 24.7499 22.6049 24.6059 22.5537 24.5362C22.5016 24.2313 22.4733 23.9517 22.4691 23.6974C22.4839 23.4399 22.5161 23.1696 22.5657 22.8865C22.6344 22.6002 22.7156 22.2724 22.8094 21.9033C22.8628 21.7569 22.9067 21.6121 22.941 21.4689C22.9912 21.3034 23.0492 21.1268 23.1151 20.939C23.1457 20.6591 23.1984 20.3363 23.2731 19.9705C23.3668 19.6014 23.4543 19.253 23.5355 18.9252C23.6604 18.3939 23.749 17.9374 23.8014 17.5558C23.8538 17.1741 23.8822 16.7672 23.8867 16.3349C23.8612 16.3001 23.8609 16.2413 23.886 16.1585C23.911 16.0758 23.9601 16.0183 24.033 15.9862L24.0616 15.9813L24.0902 15.9765C24.2073 15.8584 24.4534 15.8064 24.8285 15.8207C25.2194 15.8127 25.5232 15.8686 25.7398 15.9884C26.1987 16.263 26.4659 16.6782 26.5414 17.2341C26.6169 17.79 26.4549 18.563 26.0556 19.5532C25.9743 19.881 25.8803 20.1913 25.7735 20.4841C25.6825 20.7547 25.6451 20.9376 25.6614 21.0329C25.6614 21.0329 25.7279 20.9627 25.8608 20.8223C25.9937 20.6818 26.1519 20.5175 26.3354 20.3292C26.5157 20.1218 26.6739 19.9574 26.8101 19.8361C26.889 19.7245 27.0693 19.5171 27.3509 19.2139C27.6292 18.8917 27.9345 18.5551 28.2667 18.204C28.5989 17.853 28.8663 17.5817 29.0689 17.3901C29.2524 17.2018 29.4932 17.0037 29.791 16.7958C30.0856 16.5688 30.2711 16.4489 30.3473 16.4358C30.5379 16.4032 30.7779 16.4308 31.0676 16.5185C31.3762 16.603 31.6612 16.721 31.9225 16.8724C32.1996 17.0015 32.3702 17.1391 32.4344 17.285C32.4474 17.3612 32.4558 17.4677 32.4596 17.6043C32.4601 17.7219 32.4685 17.8284 32.4848 17.9236C32.5179 18.2318 32.572 18.605 32.647 19.0433C32.7378 19.4593 32.8206 19.8865 32.8956 20.3248C32.9674 20.744 32.9945 21.1316 32.9769 21.4877C32.9769 21.4877 32.9897 21.5051 33.0153 21.54C33.0376 21.5558 33.0632 21.5906 33.092 21.6445C33.0762 21.6669 33.0732 21.7066 33.083 21.7638C33.1086 21.7986 33.1214 21.816 33.1214 21.816C33.1823 21.9429 33.2432 22.0698 33.3042 22.1967C33.3842 22.3203 33.4769 22.4613 33.5825 22.6198C33.6848 22.7592 33.8048 22.9446 33.9425 23.1761C33.9658 23.427 33.8653 23.6992 33.6409 23.9926C33.4323 24.2637 33.209 24.449 32.971 24.5485ZM44.6027 23.2351C44.3201 23.3031 44.0549 23.3583 43.8072 23.4006C43.5785 23.4398 43.391 23.4326 43.2445 23.3792C42.8526 23.1521 42.5848 22.9625 42.4411 22.8106C42.3165 22.6554 42.2362 22.473 42.2004 22.2633C42.1738 21.9933 42.1377 21.7249 42.092 21.4581C42.0431 21.1722 42.0056 20.9531 41.9795 20.8006C41.8903 20.7374 41.7525 20.8493 41.5662 21.1361C41.3799 21.423 41.1539 21.7069 40.8881 21.9877C40.4115 22.7557 39.9706 23.3313 39.5654 23.7145C39.1569 24.0786 38.7654 24.3123 38.3908 24.4156C38.0194 24.538 37.6399 24.6127 37.2523 24.6398C36.9028 24.6604 36.5685 24.5411 36.2495 24.2818C35.9496 24.0193 35.6955 23.6803 35.4871 23.2648C35.2978 22.8461 35.1863 22.4238 35.1527 21.9981C35.1143 21.2005 35.1652 20.466 35.3053 19.7948C35.4422 19.1045 35.698 18.3644 36.0729 17.5745C36.2494 17.2305 36.4972 16.8449 36.8164 16.4176C37.1547 15.987 37.5264 15.5802 37.9315 15.197C38.3335 14.7948 38.7041 14.4961 39.0433 14.3007C39.5536 13.9584 39.9914 13.7658 40.3567 13.7229C40.7411 13.6768 41.1225 13.6704 41.5008 13.7037C41.7904 13.7915 42.0115 13.8223 42.1639 13.7962C42.3354 13.7669 42.443 13.6504 42.4866 13.4468C42.5749 13.2748 42.628 13.0695 42.6461 12.8311C42.6641 12.5926 42.7219 12.3572 42.8194 12.1247L43.1304 10.1591C43.252 9.60874 43.3986 8.97564 43.5704 8.25974C43.7421 7.54384 43.9389 6.74524 44.1608 5.86384C44.4719 5.04564 44.7767 4.59144 45.0751 4.50114C45.3925 4.40764 45.7553 4.52204 46.1636 4.84454C46.4314 5.03404 46.6041 5.29874 46.6819 5.63844C46.7754 5.95594 46.7549 6.35174 46.6202 6.82584C46.5227 7.05834 46.4254 7.34954 46.3284 7.69964C46.2281 8.03064 46.109 8.42364 45.9712 8.87874C45.8463 9.41004 45.7119 9.94304 45.568 10.4776C45.4432 11.0089 45.3169 11.5895 45.1893 12.2194C45.1653 12.5374 45.1208 12.9078 45.0559 13.3308C45.01 13.7506 44.9767 14.129 44.9559 14.466C44.9509 14.7806 44.9331 15.0779 44.9025 15.3577C44.8877 15.6152 44.8422 15.7505 44.766 15.7636C44.6364 15.923 44.5423 16.2333 44.4839 16.6945C44.4223 17.1365 44.3845 17.6039 44.3708 18.0966C44.3761 18.5861 44.3762 18.9882 44.3712 19.3028C44.3722 19.538 44.3991 19.8669 44.4517 20.2894C44.5011 20.6928 44.5585 21.0851 44.6237 21.4662C44.6856 21.8283 44.728 22.0761 44.7508 22.2094C44.8128 22.5715 44.8282 22.8337 44.7971 22.9959C44.7818 23.1358 44.717 23.2156 44.6027 23.2351ZM37.7562 22.0822C38.1945 22.0072 38.5732 21.7561 38.8924 21.3288C39.2274 20.8792 39.5972 20.404 40.0019 19.9033C40.2388 19.5685 40.4804 19.2036 40.7266 18.8084C40.9696 18.3942 41.1856 17.9943 41.3746 17.6089C41.5827 17.2203 41.7418 16.889 41.8519 16.6152C41.9619 16.3414 42.0104 16.1664 41.9974 16.0902C41.9811 15.9949 41.8902 15.9222 41.7247 15.872C41.5783 15.8186 41.4065 15.7892 41.2094 15.7836C41.0091 15.7591 40.8359 15.7789 40.69 15.8431C40.2555 16.0547 39.9181 16.3184 39.6779 16.6341C39.4568 16.9465 39.1378 17.4326 38.7211 18.0923C38.3142 18.8092 38.0072 19.4796 37.8001 20.1035C37.593 20.7273 37.4823 21.2268 37.4681 21.6019C37.4696 21.9547 37.5656 22.1148 37.7562 22.0822ZM49.7706 23.1159C49.6753 23.1322 49.5051 23.1123 49.2602 23.0561C49.0184 23.019 48.7814 22.9517 48.5489 22.8542C48.3355 22.7534 48.2158 22.6267 48.1897 22.4743C48.1897 22.4743 48.1704 22.4188 48.1318 22.3077C48.109 22.1743 48.048 22.0474 47.949 21.9271C47.9229 21.7746 47.8935 21.6031 47.8609 21.4125C47.8441 21.1997 47.8559 20.9819 47.8963 20.7592C47.8604 20.5496 47.8499 20.316 47.8646 20.0585C47.8762 19.7819 47.9086 19.5704 47.962 19.424C47.9262 19.2144 47.9282 18.9394 47.968 18.5992C48.0237 18.2366 48.0652 17.9059 48.0925 17.607C48.1945 16.9423 48.2687 16.4588 48.3151 16.1567C48.3805 15.8513 48.4209 15.6286 48.4362 15.4887C48.4482 15.3297 48.4412 15.174 48.4151 15.0215C48.4462 14.8593 48.4846 14.5683 48.5305 14.1486C48.5764 13.7288 48.6206 13.2996 48.6632 12.8607C48.7216 12.3996 48.7536 12.0705 48.7591 11.8734C48.8223 11.7842 48.849 11.711 48.8392 11.6538C48.8452 11.5743 48.8417 11.4964 48.8287 11.4202C48.8287 11.4202 48.8579 11.1897 48.9163 10.7285C48.9747 10.2674 49.0598 9.73314 49.1716 9.12554C49.3418 8.05684 49.4449 7.28404 49.481 6.80714C49.5362 6.32694 49.5379 5.99324 49.4863 5.80594C49.4537 5.61534 49.3734 5.43294 49.2455 5.25874C49.0697 5.03384 49.0371 4.84324 49.1477 4.68704C49.2109 4.59774 49.2629 4.50054 49.3038 4.39554C49.3414 4.27144 49.3602 4.20934 49.3602 4.20934C49.3537 4.17124 49.474 4.07217 49.7213 3.91219C49.9843 3.72989 50.3028 3.52827 50.6769 3.30735C51.0478 3.06738 51.4219 2.84646 51.7992 2.64459C52.1733 2.42367 52.4777 2.2539 52.7124 2.13529C52.7696 2.12551 52.903 2.10269 53.1126 2.06682C53.3413 2.0277 53.5795 1.98694 53.8272 1.94456C54.094 1.89891 54.3036 1.86305 54.4561 1.83696C54.9646 1.82842 55.4941 1.88494 56.0444 2.00653C56.6139 2.12485 57.1123 2.34361 57.5395 2.66279C57.8041 2.83328 58.1023 3.08627 58.4343 3.42175C58.7854 3.75398 59.1593 4.21964 59.556 4.81864C59.569 4.89484 59.6158 5.05354 59.6963 5.29474C59.7926 5.51364 59.8603 5.73744 59.8994 5.96614C59.9972 6.53784 59.9652 7.21014 59.8032 7.98324C59.6603 8.75304 59.3857 9.55514 58.9792 10.3896C58.5696 11.2051 58.0374 11.9924 57.3827 12.7517C56.6932 13.5366 55.9392 14.1167 55.1208 14.4921C54.3024 14.8675 53.5483 15.0455 52.8585 15.0263C52.4513 14.939 52.1582 14.7734 51.9791 14.5294C51.7968 14.2664 51.694 14.0094 51.6707 13.7584C51.6474 13.5074 51.6594 13.3484 51.7068 13.2815C51.8527 13.2173 52.0798 13.1686 52.3879 13.1355C52.6928 13.0834 53.1576 12.8764 53.7822 12.5145C53.9787 12.4024 54.1832 12.2792 54.3956 12.1448C54.6047 11.9913 54.7694 11.865 54.8898 11.766C55.2285 11.4531 55.5559 11.0734 55.8718 10.6271C56.2068 10.1775 56.5268 9.58334 56.8319 8.84464C56.9578 8.54854 57.0311 8.23194 57.0519 7.89494C57.0727 7.55794 57.0649 7.22584 57.0286 6.89864C57.008 6.54914 56.9765 6.25044 56.9341 6.00274C57.0018 5.48114 56.8364 5.08774 56.438 4.82254C56.0553 4.53494 55.4954 4.41494 54.7582 4.46264C54.5198 4.44454 54.2323 4.48394 53.8958 4.58074C53.5784 4.67434 53.2849 4.79314 53.0153 4.93734C52.7425 5.06244 52.538 5.18574 52.4019 5.30714C52.3257 5.32014 52.2878 5.38544 52.2883 5.50304C52.2888 5.62064 52.264 5.76224 52.2139 5.92774C52.2367 6.06104 52.2284 6.35674 52.1891 6.81454C52.1465 7.25334 52.0799 7.66684 51.9894 8.05504C51.9277 8.49704 51.8456 8.99164 51.7431 9.53884C51.6373 10.0668 51.5708 10.4803 51.5434 10.7792C51.5194 11.0971 51.4746 11.4088 51.4092 11.7142C51.3628 12.0164 51.3396 12.1675 51.3396 12.1675C51.3527 12.2437 51.3232 12.4154 51.2513 12.6827C51.1984 12.9468 51.1583 13.2282 51.131 13.5271C51.1167 13.9022 51.082 14.3299 51.0268 14.8101C50.9907 15.287 50.9274 15.7195 50.8369 16.1077C50.7479 16.8486 50.6875 17.5847 50.6557 18.3159C50.6207 19.028 50.6878 19.4774 50.857 19.6642C51.432 19.5855 51.7485 19.6588 51.8067 19.8842C51.8807 20.0873 51.6701 20.6333 51.1749 21.5222C51.0659 22.0312 50.9307 22.3878 50.7695 22.5919C50.6115 22.8151 50.4389 22.9525 50.2516 23.0042C50.0834 23.0526 49.923 23.0898 49.7706 23.1159ZM67.8045 19.4714C67.6842 19.5704 67.4982 19.5728 67.2467 19.4785C67.0143 19.381 66.7704 19.2168 66.5152 18.9859C66.3427 18.78 66.1987 18.5693 66.0834 18.3536C65.9838 18.1157 65.8933 17.7585 65.8118 17.2821C65.7656 16.8977 65.7216 16.6404 65.6797 16.5103C65.6536 16.3578 65.5663 16.363 65.4176 16.5257C65.2847 16.6661 65.0192 17.0058 64.621 17.5447C64.2261 18.1026 63.8388 18.5905 63.4592 19.0085C63.0954 19.4042 62.7785 19.6154 62.5084 19.642C62.375 19.6648 62.1793 19.61 61.9213 19.4776C61.6633 19.3452 61.4083 19.1731 61.1563 18.9612C60.901 18.7303 60.7062 18.5087 60.5718 18.2963C60.3792 17.8585 60.2686 17.2694 60.24 16.5289C60.2304 15.7852 60.2826 15.0015 60.3967 14.1778C60.5075 13.3351 60.6567 12.5446 60.8442 11.8064C61.0475 11.0459 61.2658 10.4299 61.4989 9.95854C61.7479 9.46484 61.9884 9.20794 62.2203 9.18784C62.5508 9.17054 62.8548 9.28524 63.1324 9.53194C63.4258 9.75634 63.6669 10.0191 63.8557 10.3202C63.9547 10.4406 64.0029 10.55 64.0001 10.6486C64.0164 10.7439 63.9598 10.8713 63.8301 11.0307C63.6978 11.2888 63.5452 11.6581 63.3725 12.1388C63.2155 12.5972 63.0556 13.0953 62.8926 13.6331C62.7487 14.1677 62.6206 14.68 62.5083 15.1699C62.4117 15.6376 62.3498 16.0209 62.3225 16.3197C62.2952 16.6186 62.3196 16.7615 62.3959 16.7485C62.6627 16.7029 62.899 16.5938 63.1048 16.4213C63.3074 16.2297 63.5525 15.9426 63.8401 15.5599C64.1718 15.0913 64.4559 14.6308 64.6923 14.1784C64.9255 13.707 65.1584 13.1768 65.3911 12.5878C65.5736 12.1643 65.7591 11.701 65.9477 11.198C66.1553 10.6918 66.2809 10.3368 66.3245 10.1332C66.5065 9.59214 66.643 9.18634 66.7341 8.91574C66.8251 8.64524 66.961 8.46504 67.1417 8.37524C67.237 8.35894 67.3704 8.33614 67.5419 8.30674C67.7134 8.27744 67.7992 8.26274 67.7992 8.26274C67.9168 8.26224 68.0649 8.32524 68.2434 8.45154C68.4089 8.50174 68.5793 8.58044 68.7545 8.68774C68.9489 8.79184 69.0542 8.89144 69.0705 8.98674C69.0269 9.19034 68.9519 9.49734 68.8456 9.90784C68.7551 10.296 68.6864 10.5823 68.6395 10.7669C68.4177 11.6483 68.2037 12.5185 67.9976 13.3775C67.8073 14.2143 67.7061 15.0554 67.6938 15.9009C67.7013 16.1742 67.7456 16.4903 67.8266 16.8491C67.9234 17.1856 68.023 17.4235 68.1253 17.5629C68.202 17.6675 68.2915 17.7895 68.3938 17.9289C68.5119 18.046 68.6363 18.1424 68.767 18.2181C68.958 18.3031 68.973 18.4477 68.8117 18.6518C68.6696 18.8526 68.4765 19.0426 68.2325 19.2216C68.0044 19.3783 67.8617 19.4616 67.8045 19.4714ZM71.7556 19.5015C71.4916 19.4486 71.2654 19.3304 71.0771 19.1468C70.892 18.9823 70.7573 18.7112 70.6731 18.3333C70.6116 18.0888 70.5592 17.7251 70.5158 17.2422C70.4692 16.7402 70.4511 16.2333 70.4616 15.7216C70.4551 15.6835 70.4486 15.6453 70.442 15.6072C70.4513 15.5468 70.4543 15.5071 70.4511 15.488C70.4571 15.4085 70.4566 15.2909 70.4495 15.1352C70.4393 14.9604 70.4355 14.8238 70.4382 14.7252C70.4568 14.6044 70.4742 14.5916 70.4905 14.6869L70.53 13.8857C70.5475 13.5297 70.573 13.1625 70.6063 12.7841C70.6396 12.4057 70.6716 12.0766 70.7022 11.7968C70.7485 11.4946 70.778 11.3229 70.7905 11.2815C70.7905 11.2815 70.8012 11.1718 70.8225 10.9524C70.8596 10.7107 70.8967 10.469 70.9338 10.2272C71.0757 9.22234 71.2262 8.38254 71.3854 7.70804C71.5636 7.03024 71.7331 6.53054 71.8938 6.20884C71.9031 6.14834 71.9203 6.07684 71.9454 5.99404C71.9672 5.89224 71.9827 5.81114 71.992 5.75074C71.9561 5.54104 71.9396 5.38704 71.9423 5.28844C71.9641 5.18664 71.9971 5.09274 72.0412 5.00674C72.0663 4.92404 72.1072 4.81894 72.1638 4.69154C72.2172 4.54514 72.2753 4.36844 72.338 4.1616L72.3985 3.8276C72.4704 3.56031 72.5645 3.25001 72.6805 2.8967C72.7934 2.52434 72.8732 2.24589 72.9201 2.06134C72.9479 1.88005 73.028 1.6604 73.1604 1.40237C73.2895 1.1253 73.4524 0.930713 73.649 0.818623L73.6155 0.794933C73.6814 0.607123 73.8396 0.442754 74.0901 0.301824C74.3374 0.141844 74.5467 0.0471737 74.7182 0.0178337C74.985 -0.0278163 75.1982 0.0141736 75.3576 0.143804C75.5362 0.270174 75.6483 0.466753 75.6939 0.733543C75.7428 1.01938 75.7691 1.23063 75.7729 1.36729C75.7925 1.48163 75.7486 1.62643 75.6413 1.80171L75.6699 1.79682C75.7015 1.75219 75.7017 1.81098 75.6706 1.97322C75.6395 2.13545 75.6098 2.24841 75.5815 2.3121C75.5597 2.4139 75.53 2.52687 75.4924 2.65099C75.4738 2.77184 75.4409 2.86575 75.3935 2.9327C75.3493 3.01871 75.2425 3.31158 75.0731 3.81132C74.9003 4.29204 74.7137 4.86334 74.5131 5.52534C74.3093 6.16824 74.1133 6.79994 73.9253 7.42054C73.7531 8.01884 73.6359 8.48024 73.5737 8.80474L73.5041 9.25794C73.4981 9.33744 73.4984 9.39624 73.5049 9.43434C73.4705 9.57754 73.4362 9.72064 73.4018 9.86384C73.3675 10.007 73.3299 10.1311 73.289 10.2362L73.1349 12.0867L73.1233 12.7065L72.9785 13.408L72.8999 13.9804C72.8813 14.1013 72.874 14.23 72.8777 14.3667C72.8815 14.5034 72.8597 14.6052 72.8123 14.6721C72.8155 14.6912 72.8109 14.7214 72.7984 14.7627C72.8016 14.7818 72.8049 14.8009 72.8082 14.8199C72.7841 15.1379 72.7241 15.5895 72.628 16.1747C72.5511 16.7567 72.5506 17.3844 72.6266 18.0579C72.6299 18.077 72.6236 18.0977 72.6078 18.12C72.6111 18.139 72.6143 18.1581 72.6176 18.1771C72.6289 18.5871 72.5572 18.9132 72.4025 19.1554C72.2701 19.4134 72.0545 19.5288 71.7556 19.5015ZM78.0336 17.7212C77.34 17.5653 76.8163 17.3705 76.4625 17.1368C76.1245 16.8808 75.9645 16.6336 75.9826 16.3951C76.0011 16.2743 76.0499 16.1581 76.1289 16.0465C76.2078 15.9349 76.4109 15.8609 76.7382 15.8245C77.0812 15.7658 77.6199 15.7619 78.3543 15.8128C78.564 15.7769 78.7719 15.7316 78.9783 15.6766C79.1847 15.6217 79.3703 15.5605 79.5353 15.4931C79.7194 15.4223 79.8637 15.3486 79.9682 15.2719C80.057 15.2175 80.0774 15.1649 80.0295 15.1143C79.9784 15.0446 79.8986 14.9798 79.7903 14.9199C79.6978 14.8376 79.6022 14.7951 79.5037 14.7924C79.4019 14.7706 79.3129 14.7662 79.2367 14.7792C79.1822 14.6904 79.0802 14.6098 78.9305 14.5374C78.7999 14.4617 78.639 14.3813 78.4479 14.2963C77.97 14.025 77.5367 13.7853 77.148 13.5772C76.7594 13.3691 76.5917 13.1919 76.6451 13.0454C76.6321 12.9692 76.6256 12.9311 76.6256 12.9311C76.6223 12.912 76.6207 12.9025 76.6207 12.9025C76.4873 12.9253 76.3325 12.7655 76.1562 12.423C75.9766 12.0614 75.8608 11.7282 75.8086 11.4233C75.7434 11.0421 75.7544 10.648 75.8417 10.2408C75.948 9.83034 76.0956 9.43234 76.2847 9.04694C76.4928 8.65834 76.7074 8.30774 76.9285 7.99534C77.2319 7.59034 77.556 7.19164 77.9007 6.79924C78.2613 6.38454 78.657 6.00294 79.0877 5.65464C79.5375 5.30314 80.0448 5.00054 80.6095 4.74704C80.8665 4.64424 81.1665 4.56344 81.5095 4.50484C81.8525 4.44614 82.1084 4.45134 82.2771 4.52054C82.4133 4.39924 82.6087 4.39514 82.8635 4.50854C83.115 4.60274 83.3763 4.75424 83.6474 4.96284C83.9184 5.17144 84.1323 5.38984 84.289 5.61794C84.3282 5.84664 84.3675 6.13414 84.4072 6.48044C84.4626 6.80434 84.4924 7.09344 84.4967 7.34774C84.501 7.60194 84.4364 7.74054 84.303 7.76334C84.303 7.76334 84.2761 7.77774 84.2222 7.80664C84.1841 7.81314 84.1732 7.86404 84.1895 7.95934C84.2221 8.14984 84.1166 8.39344 83.8732 8.69014C83.5535 8.99984 83.2447 9.25854 82.9468 9.46644C82.649 9.67434 82.4029 9.72624 82.2085 9.62224C82.0811 9.56554 81.9633 9.50724 81.855 9.44734C81.7466 9.38744 81.6446 9.30674 81.5488 9.20544C81.5488 9.20544 81.5137 9.17224 81.4435 9.10584C81.3891 9.01704 81.3553 8.93454 81.3423 8.85834C81.3293 8.78214 81.3464 8.71054 81.3938 8.64354C81.4379 8.55754 81.46 8.51454 81.46 8.51454C81.6844 8.22114 81.8454 7.95824 81.9429 7.72584C82.0595 7.49014 82.1333 7.29114 82.1644 7.12894C82.1922 6.94764 82.198 6.80934 82.1817 6.71404C82.1621 6.59974 82.1221 6.53794 82.0617 6.52864C82.0171 6.49704 81.9185 6.49434 81.7661 6.52034C81.6708 6.53664 81.4742 6.64874 81.1763 6.85664C80.8975 7.06124 80.6062 7.30724 80.3023 7.59464C79.9951 7.86294 79.7609 8.09914 79.5997 8.30324C79.5463 8.44974 79.5038 8.54524 79.4722 8.58984C79.4597 8.63124 79.4153 8.65844 79.3391 8.67154C79.3261 8.59524 79.28 8.61294 79.2011 8.72454C79.1221 8.83614 79.0306 8.98904 78.9265 9.18344C78.8225 9.37774 78.72 9.58164 78.6193 9.79494C78.5185 10.0083 78.4397 10.1787 78.3831 10.3061C78.3934 10.4809 78.3734 10.651 78.3233 10.8165C78.2889 10.9597 78.2943 11.1058 78.3395 11.255C78.3911 11.4423 78.5174 11.6071 78.7182 11.7492C78.9191 11.8914 79.2043 12.0682 79.5739 12.2795C80.3257 12.6609 80.888 12.9668 81.2609 13.1972C81.6528 13.4243 81.9301 13.6123 82.0928 13.7609C82.2556 13.9096 82.3707 14.0665 82.4381 14.2315C82.8632 14.7668 82.9893 15.2748 82.8166 15.7555C82.6406 16.2171 82.3149 16.6063 81.8395 16.923C81.6652 17.0509 81.3464 17.1937 80.883 17.3514C80.4229 17.5282 79.9244 17.6527 79.3876 17.7249C78.8731 17.813 78.4217 17.8117 78.0336 17.7212ZM88.3539 15.5142C87.5585 15.3364 86.9592 14.929 86.556 14.2919C86.1528 13.6547 85.92 12.7531 85.8578 11.5869C85.7948 10.9896 85.7089 10.6022 85.6001 10.4247C85.488 10.2281 85.3109 10.0525 85.0686 9.89784C84.9984 9.83134 84.8438 9.73034 84.6049 9.59464C84.3626 9.43994 84.2429 9.31334 84.2457 9.21484C84.2038 9.08464 84.2047 8.91784 84.2483 8.71424C84.2886 8.49154 84.3358 8.36574 84.3897 8.33694C84.5133 8.25694 84.6353 8.16744 84.7556 8.06834C84.895 7.96604 85.0061 7.92744 85.0889 7.95254C85.1651 7.93944 85.2876 7.96754 85.4563 8.03674C85.6441 8.10274 85.7446 8.17374 85.7576 8.25004C85.8567 8.37034 85.9612 8.29364 86.0713 8.01984C86.2004 7.74274 86.3276 7.39734 86.453 6.98364C86.5914 6.64614 86.7807 6.31954 87.0209 6.00384C87.2611 5.68814 87.5062 5.40094 87.7562 5.14244C88.0219 4.86164 88.2499 4.64614 88.4399 4.49584C88.5287 4.44144 88.6999 4.35334 88.9537 4.23144C89.2265 4.10633 89.5121 3.99862 89.8105 3.90834C90.1056 3.799 90.331 3.74082 90.4867 3.73379C90.833 3.69416 91.2195 3.77514 91.6463 3.97672C92.0731 4.17834 92.4108 4.37554 92.6596 4.56834C92.9367 4.69744 93.1443 4.93654 93.2825 5.28554C93.4364 5.61224 93.5365 5.96784 93.5826 6.35214C93.6288 6.73654 93.608 7.07354 93.5202 7.36324C93.4957 7.56354 93.3412 7.86454 93.0569 8.26624C92.7726 8.66794 92.4485 9.06664 92.0847 9.46234C91.7367 9.83574 91.4295 10.104 91.1632 10.2672C90.9253 10.3668 90.6381 10.465 90.3016 10.5618C89.9618 10.6395 89.6379 10.6949 89.3297 10.7281C89.0373 10.7389 88.8291 10.7254 88.705 10.6878C88.5585 10.6344 88.4491 10.6826 88.3766 10.8323C88.32 10.9597 88.3087 11.295 88.3428 11.8384C88.3596 12.0513 88.3906 12.2323 88.4357 12.3815C88.4999 12.5274 88.5576 12.6352 88.6088 12.705C88.7813 12.9108 88.944 13.0595 89.097 13.151C89.2467 13.2235 89.4993 13.2097 89.8548 13.1096C90.2104 13.0095 90.535 12.7284 90.8286 12.2663C91.138 11.7819 91.4239 11.3897 91.6865 11.0898C91.7399 10.9434 91.8872 10.8299 92.1284 10.7494C92.3854 10.6466 92.7031 10.6118 93.0814 10.6452C93.3139 10.7427 93.445 10.936 93.4749 11.2251C93.5238 11.511 93.4431 11.9563 93.2327 12.5611C93.1984 12.7043 93.0706 12.9321 92.8495 13.2445C92.6441 13.5346 92.4118 13.8392 92.1526 14.1581C91.9091 14.4548 91.7019 14.6766 91.5309 14.8235C91.0114 15.2262 90.4737 15.4653 89.9178 15.5408C89.3619 15.6163 88.8406 15.6074 88.3539 15.5142ZM89.3687 8.72074C89.6415 8.59564 89.8667 8.47864 90.0442 8.36984C90.2408 8.25774 90.4197 8.09964 90.5809 7.89554C90.7421 7.69144 90.9173 7.39664 91.1063 7.01124C91.1467 6.78854 91.1538 6.60104 91.1277 6.44854C91.1207 6.29284 91.0949 6.19924 91.0502 6.16764C90.8717 6.04124 90.692 6.02294 90.5113 6.11274C90.3463 6.18014 90.172 6.30804 89.9885 6.49634C89.8649 6.57634 89.6955 6.73284 89.4804 6.96584C89.281 7.17644 89.0866 7.41564 88.897 7.68344C88.7233 7.92894 88.586 8.15834 88.4852 8.37174C88.4002 8.56284 88.3991 8.67094 88.4818 8.69594C88.4568 8.77874 88.5697 8.80844 88.8207 8.78514C89.0908 8.75854 89.2734 8.73704 89.3687 8.72074Z" fill="#5E8BDC"></path></svg> 