<?xml version="1.0" encoding="UTF-8"?> <svg xmlns="http://www.w3.org/2000/svg" width="106" height="106" viewBox="0 0 106 106" fill="none"><rect width="106" height="106" rx="7" fill="white"></rect><g clip-path="url(#clip0_17_336)"><path d="M61.5876 58.3845L71.5864 19.7263C71.9378 18.4187 70.5924 17.4695 69.5284 18.3291L29.6928 50.5235C28.808 51.2375 29.179 52.3057 30.2976 52.6053L58.1058 60.3249C59.6318 60.7323 61.19 59.8629 61.5876 58.3845Z" fill="#985184"></path><path d="M44.4138 47.6141L34.4136 86.2723C34.0636 87.5799 35.4076 88.5291 36.4716 87.6695L76.3086 55.4737C77.192 54.7597 76.8224 53.6929 75.7024 53.3933L47.8956 45.6737C46.3696 45.2663 44.8114 46.1343 44.4138 47.6141Z" fill="#FBB945"></path><path d="M63.738 50.0711L61.589 58.3829C61.1914 59.8627 59.6318 60.7307 58.1072 60.3233L42.2648 55.9259L44.4152 47.6141C44.8128 46.1343 46.371 45.2663 47.8956 45.6737L63.738 50.0711Z" fill="#F9464C"></path></g><defs><clipPath id="clip0_17_336"><rect width="70" height="70" fill="white" transform="translate(18 18)"></rect></clipPath></defs></svg> 