<?xml version="1.0" encoding="UTF-8"?> <svg xmlns="http://www.w3.org/2000/svg" width="106" height="106" viewBox="0 0 106 106" fill="none"><rect width="106" height="106" rx="7" fill="white"></rect><path d="M23.6 69.8C23.6 66.706 26.064 64.2 29.1048 64.2H81.406C81.406 67.294 78.942 69.8 75.9012 69.8H23.6Z" fill="#2EBCFA"></path><path fill-rule="evenodd" clip-rule="evenodd" d="M35.1472 34.6361C32.5432 38.4371 30.2206 43.2237 28.892 46.4675L23.81 44.3143C25.2338 40.8381 27.73 35.6665 30.6308 31.4343C32.0728 29.3287 33.708 27.3197 35.458 25.8777C37.1464 24.4875 39.4172 23.2415 41.9638 23.6937C47.0122 24.5897 49.3796 29.0403 50.494 32.8287C51.642 36.7389 51.8128 41.0383 51.8128 43.5583V43.5821C51.8128 44.9625 51.8128 46.9645 51.7176 49.2983C53.448 49.2017 54.9474 49.4173 56.2466 49.8667C56.5156 49.3109 56.8452 48.7864 57.2294 48.3029C58.6434 46.5389 60.7546 45.4665 63.4608 45.4161C65.8772 45.3713 67.504 46.8189 68.5652 47.7639C68.6576 47.8479 68.7472 47.9263 68.8312 47.9991C69.982 49.0043 71.3792 50.1803 73.9104 51.2387C73.9832 51.2303 74.0924 51.2149 74.2464 51.1841C74.7364 51.0861 75.3832 50.8901 76.1434 50.6157C77.1542 50.2503 78.0782 49.8597 78.9364 49.4971C79.4488 49.2815 79.9374 49.0743 80.4078 48.8895L82.4 54.1115C82.1452 54.2109 81.77 54.3677 81.3276 54.5539C80.2251 55.027 79.1113 55.4732 77.9872 55.8923C77.1276 56.2031 76.191 56.5027 75.3132 56.6791C74.5908 56.8233 73.314 57.0221 72.1338 56.5461C68.6282 55.1349 66.6402 53.4661 65.2458 52.2481C63.8122 50.9979 63.6974 51.0063 63.5868 51.0147H63.563C62.3478 51.0385 61.8102 51.4529 61.498 51.8407C61.2306 52.1767 61.0122 52.6527 60.8736 53.2449C61.1788 53.6383 61.4532 54.0471 61.6856 54.4601C62.1042 55.2021 62.5004 56.1541 62.5704 57.2069C62.6474 58.3437 62.3324 59.7017 61.1942 60.7111C60.8504 61.0217 60.4398 61.2491 59.9941 61.3759C59.5484 61.5026 59.0796 61.5252 58.6238 61.4419C57.9315 61.3054 57.3024 60.9472 56.8318 60.4213C56.241 59.7773 55.9148 58.9653 55.7286 58.3829C55.4416 57.4501 55.2723 56.485 55.2246 55.5101C54.5792 55.1335 53.3906 54.6981 51.3046 54.9501L51.2808 55.1783C50.7516 59.8739 49.668 65.2191 47.3216 69.3855C45.188 73.1739 42.9928 76.2875 40.8872 78.4953C39.8358 79.5999 38.7494 80.5379 37.6462 81.2155C36.564 81.8805 35.2928 82.4013 33.9222 82.4013C32.0168 82.4013 29.5052 81.7503 28.0422 79.2975C26.6548 76.9707 26.736 73.8515 27.8546 70.2129C30.0862 62.9441 35.346 55.0299 43.858 51.3647C44.6096 51.0399 45.3732 50.7434 46.147 50.4757C46.3052 47.6827 46.3066 45.2257 46.3066 43.5583C46.3066 41.1909 46.133 37.5481 45.2174 34.4331C44.2654 31.1963 42.85 29.5359 41.016 29.2111C40.8102 29.1747 40.1564 29.2111 38.9202 30.2303C37.7456 31.1977 36.4576 32.7251 35.1472 34.6361ZM45.5212 56.7379C39.1652 59.6849 34.9568 65.8645 33.1074 71.8845C32.161 74.9645 32.5866 76.1223 32.7476 76.3925C32.833 76.5367 33.0738 76.8013 33.9208 76.8013C33.9208 76.8013 33.9894 76.7999 34.1392 76.7481C34.296 76.6949 34.5158 76.5955 34.7986 76.4219C35.3726 76.0691 36.0936 75.4797 36.9336 74.5977C38.6136 72.8337 40.5484 70.1457 42.5434 66.6023C44.0316 63.9591 44.9612 60.4325 45.5212 56.7379Z" fill="#005E7A"></path></svg> 