<?xml version="1.0" encoding="UTF-8"?> <svg xmlns="http://www.w3.org/2000/svg" width="141" height="23" viewBox="0 0 141 23" fill="none"><path d="M3.96655 22.8759C3.61673 22.7861 3.33476 22.7045 3.12063 22.6313C2.90688 22.5775 2.8 22.5506 2.8 22.5506C2.83678 22.4532 2.81576 22.3665 2.73694 22.2907C2.67745 22.2145 2.5412 22.1688 2.3282 22.1536C2.0345 21.966 1.72963 21.7012 1.41359 21.3593C1.09755 21.0173 0.819981 20.665 0.580891 20.3023C0.341794 19.9395 0.181897 19.6719 0.101196 19.4994C-0.0397476 19.2121 -0.0334636 19.038 0.120046 18.977C0.27318 18.8966 0.455121 18.8061 0.665871 18.7053C0.875491 18.5465 1.09553 18.4262 1.32598 18.3444C1.57576 18.2622 1.78117 18.3839 1.94219 18.7095C2.20212 19.1492 2.59604 19.5186 3.12395 19.8177C3.67119 20.1165 4.28365 20.2883 4.96132 20.3331C5.65831 20.3776 6.35193 20.2481 7.04216 19.9446C7.50194 19.723 7.74759 19.4281 7.77911 19.0601C7.81025 18.6728 7.65664 18.231 7.31826 17.7348C7.25727 17.5813 7.16784 17.4574 7.04999 17.363C6.95146 17.2682 6.79438 17.1456 6.57875 16.9951C6.38245 16.8442 6.09728 16.5983 5.72325 16.2576C5.43068 16.1279 5.15762 16.0075 4.90408 15.8964C4.66987 15.7849 4.41614 15.6642 4.1429 15.5341C3.83061 15.3855 3.47855 15.1796 3.08669 14.9165C2.69446 14.6341 2.33085 14.3318 1.99586 14.0096C1.66049 13.668 1.40282 13.3443 1.22284 13.0384C0.907931 12.7545 0.706931 12.362 0.619841 11.8609C0.532381 11.3405 0.531341 10.7894 0.616711 10.2077C0.721421 9.62554 0.894911 9.10003 1.13717 8.63124C1.24789 8.35843 1.45376 8.00634 1.75476 7.57504C2.0554 7.12448 2.3945 6.66347 2.77208 6.19205C3.14965 5.72062 3.50884 5.29789 3.84964 4.92387C4.20938 4.53013 4.49426 4.26355 4.70425 4.12411C4.85589 3.96646 5.01718 3.80863 5.18814 3.65061C5.35873 3.47326 5.44402 3.38459 5.44402 3.38459C5.46147 3.28757 5.48953 3.23868 5.52819 3.23793C5.58618 3.2368 5.61517 3.23624 5.61517 3.23624C5.71069 3.17637 5.92144 3.07559 6.24741 2.93389C6.57339 2.79219 6.9261 2.53396 7.30556 2.15918C8.58862 1.51546 9.68236 1.07845 10.5867 0.848155C11.4907 0.598545 12.2037 0.468666 12.7256 0.458516C13.2092 0.468456 13.6854 0.594556 14.1542 0.836826C14.6226 1.05977 15.0247 1.35168 15.3604 1.71256C15.7155 2.07306 15.9266 2.4847 15.9936 2.94748C16.1379 3.40877 16.0811 3.97064 15.8233 4.63311C15.5844 5.27587 15.2386 5.89171 14.786 6.48062C14.3523 7.04982 13.8965 7.47444 13.4185 7.75444C12.8818 7.99694 12.4184 8.03494 12.0284 7.86844C11.6578 7.70164 11.4786 7.43444 11.4908 7.06677C11.4878 6.91213 11.5325 6.72756 11.625 6.51306C11.7369 6.29818 12.0292 5.91542 12.5019 5.3648C13.1028 4.44428 13.4188 3.79035 13.4499 3.403C13.4811 3.01566 13.3028 2.79675 12.9151 2.74627C12.7983 2.70987 12.5762 2.72386 12.2488 2.78823C11.9213 2.85261 11.5652 2.93688 11.1805 3.04104C10.8147 3.1255 10.4878 3.21887 10.1997 3.32115C9.93096 3.42306 9.79696 3.49335 9.79766 3.532C9.79766 3.532 9.79826 3.561 9.79936 3.61899C9.80056 3.67698 9.76226 3.69706 9.68456 3.67923C9.64586 3.67998 9.51186 3.75027 9.28257 3.89008C9.0722 4.0102 8.81425 4.1699 8.50874 4.36921C8.20322 4.56852 7.89789 4.7775 7.59275 4.99613C7.30656 5.19507 7.05865 5.37392 6.84903 5.53269C6.63941 5.69146 6.52531 5.79036 6.50674 5.8294C6.47221 6.04277 6.25367 6.24039 5.85113 6.42225C5.46905 6.66172 5.13717 6.9969 4.85549 7.42784C4.57381 7.85864 4.24606 8.40644 3.87224 9.07124C3.55228 9.52214 3.32972 10.0099 3.20455 10.5344C3.07901 11.0396 3.0869 11.4455 3.22822 11.7522C3.33088 12.0596 3.59785 12.3638 4.02911 12.6648C4.47933 12.9461 5.08569 13.3017 5.84819 13.7316C6.51254 14.0861 7.1386 14.4607 7.72638 14.8554C8.31416 15.25 8.81477 15.6367 9.22821 16.0154C9.64126 16.3748 9.90826 16.679 10.0291 16.928C10.2675 17.2521 10.4101 17.6264 10.457 18.0509C10.5233 18.475 10.5314 18.8906 10.4813 19.2977C10.4501 19.685 10.3983 20.0051 10.3259 20.2579C10.1966 20.5698 9.99036 20.9025 9.70716 21.2561C9.44326 21.6093 9.1952 21.7785 8.96287 21.7636C8.75137 21.8258 8.58839 21.8966 8.47391 21.9762C8.37876 22.0554 8.2641 22.1253 8.12992 22.1859C7.99612 22.2658 7.67887 22.359 7.17817 22.4654C6.67786 22.5912 6.12865 22.6889 5.53056 22.7585C4.93284 22.8475 4.4115 22.8866 3.96655 22.8759ZM30.259 21.5527C30.259 21.5527 30.1999 21.4959 30.0817 21.3821C29.9832 21.2874 29.7681 21.1659 29.4365 21.0176C29.0814 20.6571 28.8385 20.101 28.7079 19.3494C28.5966 18.5975 28.5609 17.757 28.6009 16.828C28.5532 16.3649 28.5421 15.7947 28.5676 15.1174C28.6121 14.4204 28.6755 13.7037 28.7579 12.9673C28.8596 12.2305 28.9619 11.5227 29.0647 10.8439C29.1868 10.1647 29.2919 9.60194 29.3799 9.15554C29.6113 8.12614 29.8161 7.22299 29.9944 6.44605C30.192 5.66873 30.2895 5.21241 30.2868 5.0771C30.175 5.29199 30.0069 5.59498 29.7824 5.98608C29.5773 6.37681 29.2787 6.93371 28.8867 7.65684C28.6433 8.06764 28.3813 8.51744 28.1008 9.00634C27.8396 9.49483 27.6712 9.78814 27.5958 9.88634C27.4074 10.1413 27.2209 10.493 27.0362 10.9413C26.8512 11.3704 26.5446 12.0144 26.1166 12.8736C25.4596 13.8919 24.8945 14.6667 24.4214 15.198C23.9677 15.7289 23.5588 16.0849 23.195 16.266C22.85 16.4274 22.503 16.4825 22.154 16.4313C21.5908 16.3069 21.2088 16.0532 21.008 15.6704C20.8068 15.2682 20.6625 14.8069 20.575 14.2865C20.5262 13.7654 20.5083 13.3403 20.5212 13.0114C20.5531 12.6627 20.5482 12.4114 20.5065 12.2575C20.5414 12.0634 20.5762 11.8597 20.6107 11.6464C20.6448 11.4136 20.6704 11.2391 20.6875 11.1228C20.686 11.0454 20.702 10.8711 20.7354 10.5997C20.7881 10.328 20.8215 10.0566 20.8356 9.78564C20.8864 9.41724 20.9555 8.99054 21.0427 8.50544C21.1296 8.00094 21.2078 7.54504 21.2772 7.13759C21.3466 6.73016 21.3611 6.4785 21.3205 6.38261C21.2276 6.57778 21.1156 6.783 20.9844 6.99825C20.8532 7.21351 20.7596 7.37004 20.7035 7.46784C20.3835 7.91874 20.0103 8.61254 19.5837 9.54894C19.1568 10.4661 18.5814 11.7051 17.8576 13.2662C17.8079 13.6925 17.6445 14.2372 17.3673 14.9C17.1091 15.5431 16.8785 16.1181 16.6757 16.6248C16.5475 16.9947 16.3729 17.4621 16.1518 18.0272C15.9497 18.5726 15.7374 19.0891 15.5148 19.5769C15.3116 20.0643 15.1442 20.4059 15.0127 20.6018C14.7894 21.0509 14.6008 21.2963 14.4469 21.338C14.2934 21.399 13.9714 21.2505 13.481 20.8927C13.1661 20.6087 12.8997 20.3335 12.6818 20.067C12.4833 19.8002 12.4771 19.4812 12.6632 19.1102C12.7944 18.895 12.9531 18.6018 13.1392 18.2308C13.325 17.8405 13.4915 17.4505 13.6386 17.0609C13.805 16.6709 13.8961 16.3791 13.9116 16.1854C13.9295 16.1077 13.9848 15.9713 14.0777 15.7761C14.1899 15.5805 14.3404 15.3649 14.5292 15.1292C14.5084 15.0523 14.5897 14.7606 14.7733 14.2543C14.9564 13.7286 15.2059 13.134 15.5217 12.4704C15.5778 12.3726 15.6146 12.2752 15.6321 12.1782C15.6689 12.0808 15.696 11.9836 15.7134 11.8866C15.7889 11.7884 15.8639 11.6709 15.9386 11.5341C16.0133 11.3973 16.0869 11.2025 16.1593 10.9497C16.1946 10.775 16.2676 10.5512 16.3783 10.2784C16.489 10.0055 16.5906 9.76184 16.6831 9.54734C16.7571 9.37184 16.8413 9.22524 16.9356 9.10734C17.049 8.96974 17.143 8.83254 17.2177 8.69574C17.2939 8.63624 17.3597 8.53834 17.415 8.40184C17.4704 8.26544 17.536 8.15784 17.6118 8.07904C17.6846 7.84554 17.8239 7.55274 18.0298 7.20071C18.2546 6.82894 18.4883 6.41832 18.731 5.96885C18.993 5.51901 19.2163 5.06992 19.4009 4.62158C19.5537 4.52193 19.6864 4.38399 19.799 4.20777C19.9116 4.03154 20.0046 3.84603 20.0782 3.65123C20.0782 3.65123 20.1245 3.54398 20.217 3.32948C20.3288 3.11459 20.4412 2.92871 20.5542 2.77182C20.6482 2.63463 20.7894 2.43852 20.9778 2.18347C21.1663 1.92843 21.3454 1.6929 21.5152 1.4769C21.704 1.24118 21.8272 1.1131 21.8848 1.09264C22.0004 1.07106 22.2045 1.1251 22.4971 1.25477C22.809 1.38407 23.0925 1.54292 23.3475 1.73133C23.6026 1.91975 23.732 2.1106 23.7357 2.3039C23.7785 2.51577 23.7942 2.82486 23.7827 3.23116C23.7906 3.63708 23.789 4.05286 23.778 4.47849C23.7665 4.88479 23.7346 5.23347 23.6823 5.52454C23.6519 5.95055 23.6035 6.44458 23.5371 7.00665C23.4706 7.56874 23.4038 8.11143 23.3367 8.63484C23.2695 9.15824 23.2101 9.58484 23.1585 9.91454C23.0758 10.6316 23.009 11.1743 22.9581 11.5427C22.9069 11.8918 22.8813 12.0663 22.8813 12.0663C22.9214 12.1429 22.9428 12.2488 22.9455 12.3841C22.9674 12.5191 22.9892 12.6443 23.0108 12.7599L23.0443 12.9913L23.3542 12.5212C23.6935 12.0699 23.9566 11.678 24.1435 11.3456C24.3304 11.0133 24.5175 10.6906 24.7048 10.3775C24.7029 10.2809 24.73 10.1837 24.7861 10.0859C24.8419 9.96884 24.9073 9.85154 24.9823 9.73404C25.0964 9.63514 25.2191 9.47814 25.3503 9.26284C25.4811 9.02824 25.5351 8.82414 25.5124 8.65054C25.7 8.35684 25.9438 7.96534 26.2437 7.47614C26.5629 6.9865 26.9007 6.45784 27.2571 5.89014C27.6131 5.30311 27.96 4.74526 28.2977 4.2166C28.6545 3.66823 28.9644 3.19812 29.2275 2.80626C29.5099 2.41403 29.7177 2.15861 29.8507 2.04001C30.2707 1.76112 30.7417 1.61661 31.2636 1.60647C31.7851 1.57699 32.2037 1.72355 32.5194 2.04615C32.7759 2.31188 32.9172 2.61852 32.9433 2.96608C32.9887 3.31326 32.957 3.67161 32.8482 4.04113C32.6131 4.87719 32.4541 5.65376 32.3714 6.37084C32.2886 7.08791 32.2596 7.58154 32.2841 7.85184C32.2102 8.02724 32.1463 8.22194 32.0925 8.43564C32.0576 8.62974 32.0319 8.80424 32.0156 8.95924C32.0194 9.15254 31.9847 9.35624 31.9115 9.57034C31.8572 9.76484 31.7826 9.90164 31.6874 9.98084C31.7488 10.1536 31.7823 10.385 31.7879 10.6749C31.8125 10.9452 31.8077 11.1967 31.7736 11.4294C31.5026 13.407 31.3689 14.9856 31.3725 16.1651C31.3757 17.3252 31.4597 18.1647 31.6245 18.6836C31.7889 19.1832 31.9585 19.4506 32.1332 19.4859C32.2102 19.4651 32.2494 19.4933 32.2509 19.5706C32.2717 19.6476 32.2643 19.7637 32.2287 19.9191C32.2317 20.0738 32.1577 20.2492 32.0068 20.4455C31.8757 20.6608 31.7343 20.8472 31.5826 21.0049C31.4507 21.1815 31.366 21.2992 31.3284 21.3579C31.2162 21.5534 31.112 21.6618 31.0157 21.683C30.9388 21.7039 30.6865 21.6604 30.259 21.5527ZM51.0521 22.0767C50.9168 22.0793 50.7127 22.0253 50.4398 21.9146C50.1673 21.8232 49.9493 21.547 49.7856 21.0861C49.6231 20.6832 49.5248 20.105 49.4908 19.3515C49.4758 18.5784 49.4985 17.7561 49.5589 16.8848C49.6189 15.9941 49.6706 15.1713 49.714 14.4163C49.7671 14.1639 49.7914 13.9217 49.7869 13.6897C49.782 13.4384 49.7585 13.2262 49.7165 13.053C49.6953 12.9567 49.693 12.8407 49.7097 12.705C49.726 12.55 49.7429 12.424 49.7604 12.327C49.8146 12.1326 49.8398 11.9387 49.8361 11.7454C49.8517 11.5517 49.8767 11.3482 49.9112 11.1348C50.0037 10.9203 50.0673 10.7064 50.1018 10.493C50.1363 10.2796 50.142 10.0765 50.1189 9.88354C50.1906 9.59214 50.2534 9.33954 50.3073 9.12574C50.3801 8.89233 50.4157 8.73694 50.4142 8.65964C50.393 8.56334 50.3714 8.44774 50.3495 8.31284C50.3468 8.17754 50.3251 8.05224 50.2841 7.93704C50.3755 7.66454 50.4747 7.29518 50.5817 6.82902C50.6886 6.36285 50.7772 5.94538 50.8474 5.57662C50.9365 5.18815 50.9811 4.99391 50.9811 4.99391C50.9811 4.99391 50.8973 5.15989 50.7297 5.49189C50.5618 5.80455 50.3472 6.20512 50.0859 6.69363C49.8247 7.18213 49.544 7.66133 49.2437 8.13124C48.6447 9.14844 48.1092 9.95164 47.6373 10.5409C47.1842 11.1105 46.7976 11.6111 46.4772 12.0427C46.1569 12.4744 45.8867 13.0017 45.6668 13.6248C45.5936 13.8389 45.4158 14.1421 45.1334 14.5343C44.8699 14.9068 44.6243 15.2017 44.3964 15.4188C44.2062 15.5772 43.9579 15.7367 43.6516 15.8974C43.3643 16.0383 43.0374 16.1317 42.6709 16.1775C41.9769 16.2877 41.5274 16.045 41.3225 15.4496C41.1365 14.8344 41.014 14.0053 40.9551 12.9622C40.9657 12.5173 40.9745 11.9757 40.9815 11.3374C40.9884 10.6991 41.0258 10.1376 41.0938 9.65294C41.1257 9.30424 41.1475 8.93644 41.1593 8.54944C41.1711 8.16254 41.1746 7.84334 41.1697 7.59204C41.1838 7.32104 41.1908 7.18559 41.1908 7.18559C41.1908 7.18559 41.1258 7.32224 40.9958 7.59544C40.8657 7.86874 40.7548 8.13194 40.663 8.38504C40.5531 8.69664 40.4342 9.04694 40.3064 9.43624C40.1786 9.82544 40.0865 10.0592 40.03 10.1377C39.9371 10.3328 39.7991 10.6933 39.6159 11.2189C39.4521 11.7442 39.2691 12.2795 39.067 12.8249C38.8493 13.5639 38.6486 14.1769 38.4647 14.6639C38.3001 15.1506 38.144 15.579 37.9965 15.9493C37.8487 16.3002 37.7103 16.6413 37.5814 16.9725C37.4718 17.3034 37.344 17.6926 37.198 18.1402C37.0129 18.5692 36.8469 18.9785 36.6997 19.3681C36.5526 19.7577 36.4324 20.0405 36.3392 20.2163C36.302 20.2944 36.2089 20.4799 36.0599 20.7728C35.9113 21.0851 35.7524 21.3686 35.5834 21.6233C35.205 22.056 34.9099 22.2938 34.6981 22.3366C34.5055 22.379 34.1839 22.2499 33.7333 21.9493C33.4965 21.7025 33.336 21.4059 33.252 21.0595C33.1876 20.732 33.3038 20.2463 33.6007 19.6024C33.8233 19.1147 34.0557 18.6364 34.298 18.1676C34.5402 17.6988 34.7639 17.269 34.969 16.8783C35.1878 16.1973 35.3983 15.584 35.6004 15.0387C35.8021 14.474 36.0495 13.773 36.3427 12.9359C36.618 12.1764 36.8565 11.5143 37.0582 10.9496C37.2596 10.3656 37.4245 9.89834 37.553 9.54774C37.6816 9.19713 37.755 8.99274 37.7732 8.93434C37.7906 8.83734 37.8179 8.74974 37.8551 8.67174C37.8919 8.57434 37.947 8.42824 38.0206 8.23344C38.0566 8.09734 38.1306 7.92184 38.2424 7.70694C38.3539 7.47274 38.428 7.30697 38.4648 7.20957C38.5198 7.05381 38.5562 6.93708 38.574 6.85939C38.6108 6.76199 38.6284 6.67463 38.6269 6.59731C38.6065 6.53969 38.625 6.50066 38.6826 6.4802C38.7596 6.45937 38.7981 6.44895 38.7981 6.44895C38.8348 6.35155 38.8809 6.23464 38.9363 6.0982C38.9916 5.96177 39.0472 5.835 39.1029 5.71789C39.1947 5.46473 39.2682 5.26993 39.3236 5.13349C39.3979 4.97735 39.4535 4.85058 39.4902 4.75318C39.5281 4.71377 39.5562 4.66488 39.5744 4.60652C39.6116 4.52845 39.639 4.45057 39.6569 4.37287C39.6152 4.21898 39.6221 4.07382 39.6774 3.93739C39.7328 3.80095 39.798 3.674 39.8731 3.55652C39.9106 3.49777 39.958 3.44851 40.0152 3.40873C40.0721 3.34961 40.1195 3.30035 40.1574 3.26093C40.1559 3.18362 40.1735 3.09626 40.2103 2.99886C40.2467 2.88213 40.3024 2.76502 40.3775 2.64754C40.3961 2.60851 40.4709 2.48136 40.6021 2.2661C40.7333 2.05085 40.8737 1.81607 41.0235 1.56178C41.1926 1.30711 41.3336 1.10133 41.4466 0.944436C41.7309 0.648856 42.0381 0.536535 42.3682 0.607465C42.6979 0.659065 43.05 0.864926 43.4244 1.22506C43.6613 1.47183 43.8498 1.71955 43.99 1.96821C44.1491 2.19716 44.1612 2.32261 44.0263 2.34457C44.0263 2.34457 44.0071 2.35461 43.9689 2.37469C43.9499 2.3944 43.9412 2.44291 43.9427 2.52023C43.9427 2.52023 43.9542 2.61669 43.9773 2.80961C44.0194 2.98283 43.9947 3.20568 43.9033 3.47818C43.7592 4.02241 43.6723 4.52686 43.6427 4.99153C43.613 5.45619 43.6109 5.84297 43.6362 6.15187C43.6612 6.44144 43.6744 6.62488 43.6759 6.7022C43.6774 6.77952 43.6694 6.86669 43.652 6.96372C43.6342 7.04141 43.5587 7.13956 43.4257 7.25817C43.4257 7.25817 43.4262 7.28717 43.4274 7.34514C43.4285 7.40314 43.4203 7.48064 43.4029 7.57764C43.4642 7.75054 43.4398 7.98304 43.3294 8.27524C43.238 8.54774 43.1756 8.81964 43.1422 9.09104C43.1152 9.69104 43.0969 10.2424 43.0874 10.7454C43.0774 11.229 43.0855 11.6446 43.1116 11.9921C43.1567 12.32 43.2292 12.57 43.3292 12.742C43.4615 12.5848 43.6025 12.379 43.7523 12.1247C43.9021 11.8704 44.0992 11.5669 44.3437 11.214C44.4749 10.9988 44.6063 10.7932 44.7378 10.5973C44.869 10.382 45.0191 10.147 45.1882 9.89244C45.3573 9.63774 45.5544 9.33424 45.7796 8.98174C46.0048 8.62934 46.2863 8.18874 46.6241 7.66004C46.9247 7.20949 47.1969 6.78846 47.4407 6.39698C47.7034 5.9858 47.8911 5.69209 48.0037 5.51587C48.1185 5.45563 48.2038 5.36695 48.2595 5.24985C48.3346 5.13237 48.3721 5.07363 48.3721 5.07363C48.313 5.01677 48.3864 4.8123 48.5923 4.46023C48.8171 4.08846 49.1084 3.65738 49.4663 3.167C49.8242 2.67662 50.1733 2.23475 50.5137 1.8414C50.9883 1.38742 51.3401 1.08086 51.5691 0.921705C51.7976 0.743235 52.0093 0.690776 52.2041 0.764336C52.3985 0.818566 52.653 0.977986 52.9676 1.2426C53.2029 1.41205 53.4104 1.64006 53.59 1.92663C53.7696 2.21319 53.881 2.47208 53.9241 2.70328C53.9862 2.91478 53.9593 3.02166 53.8433 3.02391C53.8244 3.04362 53.8153 3.0728 53.816 3.11146C53.8168 3.15012 53.8465 3.18821 53.9053 3.22575C53.9053 3.22575 53.8967 3.28392 53.8797 3.40028C53.8622 3.4973 53.8271 3.68168 53.7744 3.95343C53.7406 4.20546 53.6795 4.54505 53.5912 4.97218C53.5217 5.37961 53.4521 5.77737 53.3823 6.16546C53.3114 6.49557 53.241 6.85467 53.1712 7.24277C53.1207 7.63054 53.0779 7.91174 53.0426 8.08644C52.9895 8.33884 52.946 8.59104 52.9123 8.84314C52.8781 9.07584 52.8443 9.32784 52.8109 9.59924C52.7608 10.0062 52.7115 10.4519 52.6629 10.9363C52.6143 11.4207 52.5564 11.9246 52.4892 12.448C52.4414 12.971 52.3935 13.494 52.3457 14.0171C52.2979 14.5401 52.2498 15.0534 52.2016 15.5571C52.1872 15.8088 52.1646 16.138 52.1338 16.5446C52.122 16.9316 52.1107 17.3476 52.1 17.7925C52.1083 18.2178 52.1164 18.6334 52.1243 19.0393C52.1515 19.4449 52.1872 19.7922 52.2315 20.0814C52.2766 20.4093 52.3106 20.6697 52.3337 20.8626C52.3762 21.0551 52.3883 21.1806 52.3701 21.2389C52.2207 21.5126 52.012 21.7197 51.744 21.8602C51.4954 22.0004 51.2647 22.0726 51.0521 22.0767ZM62.9245 21.4979C62.6925 21.5024 62.4968 21.3805 62.3373 21.1322C62.219 21.0185 62.0898 20.8373 61.9496 20.5886C61.8094 20.34 61.7532 19.935 61.781 19.3737C61.8277 18.7927 62.024 17.9477 62.3698 16.8388C62.5488 16.1005 62.6931 15.5659 62.8027 15.2351C62.912 14.8849 62.9651 14.6325 62.962 14.4778C62.9579 14.2652 62.9739 14.0908 63.0099 13.9548C63.0649 13.799 63.0911 13.6535 63.0884 13.5182C63.2044 13.5159 63.3183 13.4074 63.4302 13.1925C63.542 12.9776 63.633 12.6858 63.7032 12.317C63.7741 11.9869 63.8367 11.7246 63.8909 11.5302C63.9641 11.3161 64 11.1704 63.9985 11.093C64.0921 10.9365 64.1841 10.693 64.2743 10.3625C64.3839 10.0317 64.5502 9.63204 64.7731 9.16364C64.9165 8.58074 65.0788 7.97814 65.2601 7.35584C65.441 6.71422 65.6228 6.1209 65.8056 5.57592C66.0073 5.01122 66.1728 4.57292 66.3021 4.26102C66.5031 3.65766 66.6593 3.23888 66.7708 3.00467C66.8819 2.75113 66.8787 2.58683 66.7612 2.51176C66.624 2.41775 66.5517 2.17744 66.5442 1.79085C66.5556 1.38455 66.7325 1.03304 67.0748 0.736335C67.2825 0.480915 67.5497 0.301686 67.8765 0.198646C68.2028 0.0762855 68.5786 0.0109655 69.0039 0.00270553C69.4291 -0.00556447 69.8741 0.00512544 70.3388 0.0347654C70.6871 0.0473354 71.0545 0.0498555 71.4411 0.0423455C71.847 0.0344555 72.0983 0.0295656 72.195 0.0276856C72.3704 0.101626 72.5848 0.184476 72.8379 0.276236C73.0911 0.368006 73.3152 0.460335 73.5104 0.553225C73.7246 0.626405 73.8322 0.691996 73.8333 0.749986C73.8356 0.865966 73.8757 0.942535 73.9538 0.979685C74.0508 0.997135 74.1478 1.01459 74.2449 1.03204C74.3802 1.02941 74.6049 1.15074 74.9191 1.39601C75.2329 1.62195 75.5478 1.90589 75.8638 2.24781C76.1988 2.57003 76.4371 2.89412 76.5788 3.2201C76.7399 3.5457 76.8715 3.85253 76.9738 4.1406C77.0954 4.42829 77.1132 4.84369 77.027 5.3868C77.0133 5.67712 76.9706 5.968 76.899 6.25945C76.8466 6.55052 76.7827 6.74514 76.7073 6.84329C76.5928 6.92286 76.4884 7.02157 76.394 7.13943C76.2996 7.25729 76.2533 7.36454 76.2552 7.46114C76.2567 7.53854 76.1831 7.73334 76.0345 8.04554C75.8855 8.33854 75.6988 8.68054 75.4743 9.07164C75.2495 9.44344 75.0054 9.81554 74.7419 10.1881C74.4784 10.5606 74.2328 10.8554 74.005 11.0726C73.7597 11.3867 73.4657 11.6825 73.123 11.9599C72.7997 12.2369 72.5044 12.465 72.2372 12.6442C71.7391 12.8859 71.1635 13.1195 70.5105 13.3449C69.8767 13.5699 69.2615 13.7559 68.665 13.9029C68.068 14.0305 67.5857 14.0882 67.218 14.076C66.659 14.1642 66.2932 14.2487 66.1208 14.3294C65.9479 14.3908 65.8255 14.5575 65.7534 14.8296C65.6617 15.0828 65.5701 15.3456 65.4787 15.6181C65.4066 15.8902 65.3717 16.0843 65.374 16.2003C65.3368 16.2783 65.254 16.4927 65.1254 16.8432C65.0162 17.1934 64.8791 17.6022 64.7142 18.0694C64.5686 18.5364 64.4326 19.0031 64.3063 19.4696C64.18 19.9362 64.0814 20.3345 64.0105 20.6646C63.9384 20.9367 63.7781 21.1429 63.5294 21.2831C63.3001 21.4229 63.0984 21.4945 62.9245 21.4979ZM66.8535 11.7337C66.9323 11.8095 67.1837 11.8143 67.6079 11.748C68.032 11.6818 68.5414 11.5268 69.1361 11.2832C69.5201 11.1404 69.9035 10.9686 70.2863 10.7678C70.6885 10.5666 71.071 10.3464 71.4337 10.1074C71.6244 9.96834 71.8241 9.80004 72.033 9.60264C72.2415 9.38584 72.5344 9.03214 72.9116 8.54134C72.9677 8.44363 73.0607 8.25804 73.1908 7.98484C73.3398 7.69194 73.4698 7.41864 73.5809 7.16511C73.7496 6.89111 73.9159 6.49147 74.0797 5.96619C74.2432 5.42157 74.2732 4.97624 74.1698 4.63018C74.0634 4.12949 73.862 3.71766 73.5657 3.39469C73.2689 3.05239 72.8968 2.80825 72.4492 2.66225C72.0225 2.5932 71.6639 2.55182 71.3736 2.53813C71.1026 2.52406 70.8034 2.54921 70.4759 2.61359C70.1685 2.71625 69.9488 2.85588 69.8169 3.03248C69.7043 3.2087 69.5375 3.57934 69.3164 4.14441C69.1864 4.41766 69.0004 4.79835 68.7585 5.28647C68.5162 5.75527 68.3128 6.23298 68.1483 6.7196C67.8251 8.00214 67.5348 8.98424 67.2774 9.66604C67.0392 10.3475 66.8836 10.7952 66.8104 11.0094C66.8338 11.2216 66.8272 11.3764 66.7904 11.4738C66.7532 11.5519 66.7743 11.6385 66.8535 11.7337ZM77.5274 19.8798C77.162 19.9836 76.8314 19.8836 76.5354 19.58C76.2398 19.2957 76.0284 18.8647 75.9012 18.2871C75.7739 17.7094 75.7806 17.0615 75.9214 16.3433C76.0135 16.1095 76.0865 15.8857 76.1404 15.6719C76.1939 15.4388 76.2193 15.2547 76.2167 15.1193C76.2516 14.9253 76.3234 14.6435 76.4323 14.274C76.5407 13.8851 76.6587 13.4864 76.7861 13.0779C76.9135 12.6693 77.0322 12.3093 77.1422 11.9978C77.2711 11.6665 77.3541 11.4619 77.3913 11.3838C77.4686 11.3823 77.5349 11.3133 77.5903 11.1769C77.6457 11.0405 77.672 10.9046 77.6694 10.7693C77.6664 10.6147 77.692 10.4401 77.7462 10.2457C77.8198 10.0509 77.8945 9.91414 77.9703 9.83534C77.9684 9.73864 77.9857 9.63194 78.0221 9.51524C78.0774 9.37884 78.1044 9.27194 78.1029 9.19464C78.1014 9.11724 78.1192 9.03964 78.1563 8.96154C78.2128 8.88304 78.2403 8.80524 78.2388 8.72784C78.3692 8.47394 78.5355 8.07434 78.7376 7.52894C78.9587 6.96389 79.1883 6.34064 79.4264 5.65922C79.6839 4.97742 79.9222 4.30566 80.1414 3.64394C80.3606 2.98222 80.5335 2.42776 80.6601 1.98055C80.8058 1.51363 80.8776 1.23185 80.8758 1.1352C80.8728 0.980555 80.9279 0.834456 81.0413 0.696896C81.1546 0.559336 81.2886 0.489046 81.4432 0.486046C81.5001 0.426926 81.6347 0.385635 81.8469 0.362175C82.0588 0.319375 82.2034 0.297236 82.2807 0.295726C82.2807 0.295726 82.3201 0.333636 82.3989 0.409456C82.4778 0.485265 82.596 0.598996 82.7536 0.750626C82.9109 0.882926 83.0589 1.03475 83.1976 1.20609C83.3556 1.37705 83.4369 1.57851 83.4414 1.81046C83.4463 2.06175 83.4123 2.30412 83.3395 2.53758C83.286 2.77066 83.1762 3.09186 83.0101 3.50116C82.8437 3.89114 82.5843 4.47629 82.2321 5.25662C82.085 5.64621 81.9278 6.01667 81.7606 6.36799C81.593 6.69997 81.51 6.90463 81.5115 6.98195C81.513 7.05926 81.4766 7.17599 81.4023 7.33214C81.3473 7.48794 81.2834 7.68254 81.2106 7.91594C81.1363 8.07214 81.0345 8.30614 80.9052 8.61804C80.7755 8.91063 80.6367 9.23234 80.4889 9.58334C80.3599 9.91454 80.2496 10.2067 80.1578 10.4599C80.0657 10.6937 80.02 10.83 80.0208 10.8686C80.0223 10.9459 80.0141 11.0234 79.9963 11.1011C79.9978 11.1784 79.9606 11.2565 79.8848 11.3353C79.8075 11.3368 79.7603 11.3958 79.7432 11.5121C79.7451 11.6088 79.746 11.6571 79.746 11.6571C79.7498 11.8504 79.6051 12.3656 79.312 13.2028C79.0234 14.272 78.7524 15.2538 78.4991 16.1482C78.2651 17.0422 78.1533 17.7599 78.1639 18.3011C78.1729 18.765 78.1025 19.1241 77.9528 19.3784C77.8223 19.6323 77.6805 19.7994 77.5274 19.8798ZM82.1408 18.8619C82.0605 18.7088 81.8835 18.5575 81.6099 18.4082C81.3556 18.2584 81.2277 18.1449 81.2262 18.0675C81.2247 17.9902 81.1741 17.8752 81.0745 17.7224C80.9938 17.55 80.914 17.4258 80.8352 17.35C80.7363 17.2359 80.7598 16.9551 80.9058 16.5075C81.0514 16.0406 81.2725 15.4755 81.569 14.8123C81.8655 14.149 82.1908 13.4756 82.5449 12.7919C82.6965 12.6343 82.8472 12.4283 82.997 12.174C83.1467 11.9197 83.2595 11.7532 83.3353 11.6743C83.3338 11.597 83.3615 11.5288 83.4184 11.4697C83.4749 11.3912 83.5418 11.3513 83.6191 11.3498L83.842 10.8813C83.8792 10.8033 83.9922 10.6464 84.1809 10.4107C84.3891 10.1746 84.6355 9.91844 84.9201 9.64224C85.2045 9.34664 85.4891 9.07034 85.7742 8.81344C86.0786 8.55614 86.3263 8.36764 86.5174 8.24794C86.918 7.96944 87.3312 7.83564 87.7568 7.84674C88.2017 7.85744 88.5813 7.98544 88.8955 8.23064C88.9546 8.28754 89.0825 8.40104 89.2792 8.57124C89.4952 8.74114 89.7309 8.92994 89.9863 9.13764C90.261 9.34504 90.4968 9.53384 90.6934 9.70404L91.7848 10.6399L91.3201 12.0992C91.0839 12.8773 91.0293 13.5552 91.1566 14.1328C91.2838 14.7104 91.4772 15.2094 91.7368 15.6298C91.8376 15.8406 91.9664 16.0024 92.1233 16.1154C92.2995 16.228 92.5233 16.301 92.7947 16.3344C92.9497 16.3507 93.0958 16.4059 93.233 16.4999C93.3702 16.5939 93.4408 16.7472 93.445 16.9599C93.454 17.4238 93.3736 17.7637 93.2037 17.9798C93.0529 18.1761 92.8812 18.2954 92.6886 18.3378C92.0522 18.4275 91.442 18.3717 90.858 18.1704C90.274 17.969 89.7414 17.4283 89.2602 16.5481C89.1806 16.4336 89.0702 16.2231 88.9288 15.9164C88.8065 15.5901 88.7347 15.3788 88.7135 15.2825C88.638 15.3807 88.5342 15.5084 88.4019 15.6656C88.2885 15.8032 88.175 15.9311 88.0613 16.0493C86.7159 17.4677 85.5545 18.3992 84.5769 18.8436C83.6183 19.2683 82.8063 19.2744 82.1408 18.8619ZM83.6887 16.4244C83.8244 16.4411 84.0357 16.3693 84.3227 16.209C84.6092 16.0294 84.9904 15.7416 85.4661 15.3456C86.1124 14.7723 86.6446 14.2979 87.0627 13.9223C87.4808 13.5468 87.8872 13.0651 88.2819 12.4774L88.8995 11.4212C88.6975 10.9803 88.5179 10.6938 88.3607 10.5615C88.2034 10.4292 88.0474 10.3645 87.8928 10.3675C87.6415 10.3724 87.3451 10.5425 87.0036 10.8779C86.6616 11.1939 86.2744 11.6656 85.8418 12.2928C85.4282 12.9002 84.9596 13.6635 84.4361 14.5825C84.193 15.0126 84.0078 15.432 83.8804 15.8405C83.7526 16.2298 83.6887 16.4244 83.6887 16.4244ZM103.644 18.937C103.354 18.9427 103.072 18.8611 102.798 18.6924C102.524 18.5044 102.296 18.2478 102.116 17.9225C101.935 17.578 101.84 17.1738 101.831 16.7098C101.826 16.4199 101.866 16.013 101.953 15.4893C102.058 14.9458 102.209 14.266 102.406 13.4501C102.439 13.1787 102.465 13.0042 102.483 12.9265C102.52 12.8484 102.538 12.7707 102.536 12.6934C102.536 12.6547 102.525 12.6259 102.506 12.607C102.505 12.5683 102.485 12.5494 102.447 12.5501C102.292 12.5531 102.081 12.6636 101.815 12.8814C101.567 13.0796 101.282 13.3172 100.959 13.5942C100.901 13.634 100.835 13.6836 100.758 13.7431C100.702 13.8023 100.635 13.8616 100.559 13.921C100.502 13.9802 100.435 14.0395 100.359 14.099C100.168 14.2187 99.8728 14.4468 99.4728 14.7833C99.093 15.1194 98.6938 15.4752 98.2757 15.8508C97.8769 16.2259 97.5253 16.5422 97.2209 16.7995C97.0686 16.9184 96.9351 17.0177 96.8207 17.0973C96.7255 17.1765 96.6586 17.2165 96.62 17.2172C96.5813 17.218 96.4257 17.1726 96.1532 17.0813C95.8997 16.9702 95.6454 16.8204 95.3903 16.632C95.1543 16.4239 95.0336 16.1845 95.0283 15.9139C95.0249 15.7399 95.0858 15.3907 95.211 14.8662C95.3555 14.3412 95.5561 13.7186 95.8128 12.9981C96.0695 12.2776 96.3647 11.5468 96.6984 10.8055C96.7723 10.63 96.8258 10.3969 96.8588 10.1062C96.8918 9.81554 96.925 9.53454 96.9584 9.26314C97.0108 8.97214 97.1033 8.75764 97.236 8.61964C97.2921 8.52184 97.3584 8.45294 97.435 8.41274C97.5305 8.35284 97.6266 8.32203 97.7233 8.32014C97.9165 8.31633 98.1011 8.36114 98.277 8.45444C98.4524 8.52834 98.6194 8.66044 98.7778 8.85074C99.0737 9.15434 99.2355 9.51864 99.2631 9.94354C99.3096 10.3486 99.2884 10.7455 99.1992 11.1339C99.1101 11.5224 99.01 11.8434 98.8989 12.097C98.7874 12.3312 98.7313 12.4289 98.7305 12.3903C98.8071 12.3501 98.9115 12.2514 99.0438 12.0941C99.1955 11.9365 99.4528 11.7478 99.8158 11.528C100.311 11.1317 100.693 10.8535 100.96 10.6936C101.227 10.5144 101.428 10.3848 101.562 10.3049C101.715 10.2245 101.849 10.1349 101.963 10.036C102.058 9.95684 102.124 9.90724 102.163 9.88714C102.22 9.86674 102.249 9.85644 102.249 9.85644C102.307 9.85534 102.403 9.81484 102.537 9.73484C102.69 9.65454 102.834 9.61304 102.97 9.61044C103.163 9.60664 103.367 9.65104 103.581 9.74354C103.795 9.81674 103.981 9.92914 104.139 10.0807C104.296 10.213 104.376 10.3565 104.379 10.5112C104.38 10.5691 104.401 10.6171 104.44 10.655C104.48 10.6929 104.519 10.7405 104.559 10.7977C104.658 10.9118 104.767 11.0741 104.887 11.2844C105.026 11.4751 105.1 11.7927 105.109 12.2373C105.115 12.5466 105.056 13.0021 104.933 13.604C104.809 14.2058 104.675 14.7982 104.532 15.3811C104.389 15.9833 104.321 16.4681 104.328 16.8353C104.354 17.1829 104.398 17.4528 104.46 17.6449C104.521 17.8178 104.553 17.9622 104.555 18.0782C104.558 18.2328 104.485 18.4179 104.334 18.6336C104.183 18.8299 103.953 18.931 103.644 18.937ZM109.193 17.959C109.116 17.9605 108.931 17.8964 108.639 17.7667C108.346 17.6177 108.16 17.5053 108.081 17.4295C107.943 17.2775 107.853 17.1149 107.81 16.9417C107.768 16.7491 107.742 16.3823 107.731 15.841C107.719 15.2225 107.831 14.5242 108.067 13.7461C108.303 12.9487 108.708 11.887 109.282 10.5609L110.424 8.13124C110.518 7.99404 110.602 7.87644 110.678 7.77824C110.753 7.66074 110.838 7.55274 110.933 7.45424C110.971 7.45354 111.02 7.45254 111.078 7.45144C111.155 7.44994 111.213 7.45844 111.252 7.47704C111.427 7.49304 111.699 7.59404 112.07 7.78024C112.461 7.96604 112.698 8.25144 112.783 8.63654C112.788 8.88784 112.755 9.18814 112.684 9.53764C112.614 9.86774 112.39 10.3071 112.014 10.8558C111.863 11.0521 111.714 11.3354 111.566 11.7057C111.438 12.0756 111.319 12.426 111.21 12.7568C111.191 12.7959 111.135 12.8936 111.041 13.0502C110.967 13.187 110.892 13.3334 110.818 13.4896C110.743 13.6264 110.706 13.7141 110.707 13.7528L110.596 14.016L111.819 12.774C112.672 11.8872 113.395 11.2544 113.987 10.8755C114.579 10.4966 115.078 10.3322 115.485 10.3823C115.912 10.432 116.255 10.6671 116.514 11.0874C116.653 11.2781 116.754 11.4888 116.817 11.7197C116.879 11.9312 116.922 12.1817 116.947 12.4713C116.972 12.7608 116.97 13.1283 116.94 13.5736L116.972 15.2263C117.337 15.1225 117.616 15.0398 117.808 14.978C118 14.8969 118.192 14.8255 118.384 14.7638C118.538 14.7221 118.692 14.6805 118.846 14.6388C119.019 14.5967 119.231 14.5636 119.482 14.5394C119.468 14.7911 119.367 15.1024 119.181 15.4734C118.995 15.8445 118.76 16.2164 118.478 16.5893C118.214 16.9618 117.921 17.2769 117.597 17.5346C117.292 17.7919 117.005 17.9232 116.734 17.9284C116.483 17.9333 116.192 17.8616 115.86 17.7134C115.528 17.5458 115.241 17.2227 115 16.7439C114.918 16.4941 114.835 16.2057 114.751 15.8786C114.667 15.5515 114.622 15.2043 114.615 14.8371L114.59 13.5613C114.588 13.4453 114.577 13.3682 114.557 13.3299C114.555 13.2719 114.545 13.2431 114.526 13.2435C114.449 13.245 114.201 13.4528 113.784 13.867C113.386 14.2808 112.978 14.7142 112.562 15.167C111.691 16.1121 110.96 16.8128 110.369 17.269C109.798 17.7249 109.406 17.9549 109.193 17.959ZM123.952 19.1804C122.888 19.2011 122.061 18.9078 121.469 18.3005C120.896 17.6928 120.598 16.7511 120.573 15.4754C120.559 14.7795 120.67 14.0135 120.905 13.1775C121.16 12.341 121.492 11.5224 121.902 10.7217C122.331 9.92054 122.801 9.22494 123.311 8.63494C123.822 8.02554 124.336 7.59984 124.853 7.35774C125.044 7.2573 125.246 7.1857 125.458 7.14291C125.689 7.08041 125.91 7.0471 126.123 7.04296C126.355 7.03845 126.607 7.0529 126.878 7.0863C127.168 7.09999 127.44 7.15272 127.693 7.24449C128.141 7.37114 128.532 7.62454 128.868 8.00484C129.224 8.38463 129.409 8.94184 129.423 9.67634C129.427 9.86964 129.411 10.0826 129.377 10.3153C129.343 10.5287 129.279 10.7426 129.187 10.9571C128.948 11.5999 128.573 12.2163 128.062 12.8063C127.571 13.396 127.047 13.8122 126.491 14.0551C126.338 14.1354 126.185 14.1964 126.031 14.2381C125.896 14.26 125.751 14.2725 125.597 14.2755C125.191 14.2834 124.822 14.2326 124.491 14.123C124.18 14.013 123.887 13.864 123.613 13.676L123.377 13.4775L123.237 13.7703C123.109 14.1402 123.018 14.4513 122.965 14.7037C122.932 14.9558 122.916 15.1398 122.918 15.2558C122.923 15.4877 122.937 15.7292 122.961 15.9801C122.985 16.2116 123.047 16.4038 123.146 16.5566C123.226 16.6517 123.324 16.7272 123.441 16.7829C123.577 16.8382 123.742 16.864 123.935 16.8603C124.051 16.858 124.158 16.856 124.254 16.8541C124.37 16.8325 124.466 16.8113 124.543 16.7905C124.89 16.7064 125.167 16.5753 125.377 16.3972C125.605 16.1994 125.843 16.0304 126.092 15.8902L126.207 15.83L126.176 15.7435C126.501 15.5632 126.722 15.4525 126.837 15.4116C126.952 15.3514 127.038 15.3014 127.095 15.2616C127.171 15.1828 127.257 15.1424 127.354 15.1405C127.624 15.0966 127.886 15.1689 128.141 15.3573C128.415 15.526 128.555 15.7456 128.56 16.0163C128.562 16.1322 128.479 16.3176 128.31 16.5722C128.16 16.8265 127.962 17.0818 127.715 17.3379C127.488 17.5744 127.25 17.7627 127.001 17.9029C126.944 17.9234 126.886 17.9535 126.829 17.9933C126.771 18.0137 126.714 18.0439 126.657 18.0836L126.686 18.0831C126.516 18.3184 126.345 18.4378 126.171 18.4412L125.939 18.4457C125.864 18.5825 125.616 18.7323 125.193 18.8952C124.771 19.0775 124.357 19.1725 123.952 19.1804ZM125.323 12.1634C125.497 12.16 125.651 12.128 125.786 12.0674C125.939 12.0064 126.083 11.936 126.217 11.856C126.674 11.5184 126.966 11.0873 127.091 10.5628C127.216 10.0383 127.16 9.64294 126.923 9.37684C126.883 9.31964 126.834 9.28194 126.775 9.26374C126.717 9.22614 126.649 9.20814 126.571 9.20964C126.359 9.21384 126.118 9.28614 125.85 9.42674C125.602 9.56694 125.354 9.76504 125.108 10.0212C124.861 10.2774 124.635 10.5815 124.429 10.9336L124.064 11.5498C124.103 11.5297 124.131 11.5195 124.151 11.5191C124.189 11.499 124.218 11.4888 124.237 11.4884C124.411 11.485 124.528 11.5408 124.588 11.6556C124.649 11.7705 124.719 11.8851 124.798 11.9996C124.897 12.1137 125.072 12.1683 125.323 12.1634ZM131.232 17.7336C131.056 17.6017 130.859 17.4315 130.642 17.223C130.445 17.0141 130.371 16.7159 130.422 16.3281C130.469 15.7858 130.537 15.3107 130.626 14.9029C130.715 14.4758 130.821 13.9903 130.946 13.4464C130.98 13.2137 131.069 12.8156 131.213 12.252C131.376 11.688 131.567 11.0752 131.786 10.4135C132.005 9.75183 132.235 9.12854 132.475 8.54384C132.715 7.93974 132.928 7.49084 133.116 7.19709C133.325 6.99966 133.632 6.897 134.038 6.88911C134.463 6.88084 134.755 6.95253 134.912 7.10416C135.128 7.27399 135.202 7.58193 135.133 8.02804C135.064 8.45483 134.807 9.12694 134.361 10.0444C134.268 10.2782 134.148 10.532 133.998 10.8056C133.868 11.0595 133.775 11.274 133.721 11.4491C133.666 11.6049 133.686 11.6721 133.783 11.6509C133.894 11.4361 134.102 11.1903 134.406 10.9137C134.71 10.6177 135.033 10.331 135.376 10.0537C135.719 9.77634 136.042 9.52834 136.348 9.30964C136.653 9.09103 136.863 8.95164 136.978 8.89134C137.13 8.79174 137.303 8.71104 137.495 8.64924C137.706 8.56784 137.85 8.50704 137.927 8.46684C138.367 8.24554 138.849 8.15884 139.372 8.20674C139.914 8.23484 140.246 8.39274 140.367 8.68044C140.389 8.83473 140.45 8.94954 140.548 9.02504C140.665 9.10004 140.724 9.13764 140.724 9.13764C140.801 9.13614 140.841 9.16434 140.842 9.22234C140.862 9.27994 140.872 9.30874 140.872 9.30874C140.875 9.44404 140.744 9.63994 140.478 9.89654C140.231 10.1527 139.954 10.2934 139.645 10.3188C139.394 10.343 139.173 10.3956 138.981 10.4767C138.789 10.5578 138.559 10.6589 138.291 10.7802C137.564 11.2197 136.905 11.6096 136.312 11.9498C135.738 12.2897 135.149 12.8039 134.544 13.4925C134.411 13.6498 134.269 13.7976 134.117 13.9359C133.965 14.0742 133.814 14.2705 133.664 14.5248C133.57 14.6233 133.477 14.8378 133.387 15.1683C133.297 15.4988 133.216 15.8194 133.145 16.1302C133.092 16.4213 133.067 16.5958 133.068 16.6538C133.068 16.6538 133.041 16.751 132.986 16.9454C132.932 17.1205 132.839 17.2963 132.707 17.4729C132.481 17.7867 132.252 17.9845 132.022 18.0664C131.811 18.1478 131.548 18.0369 131.232 17.7336Z" fill="#5E8BDC"></path></svg> 