<?xml version="1.0" encoding="UTF-8"?> <svg xmlns="http://www.w3.org/2000/svg" width="106" height="106" viewBox="0 0 106 106" fill="none"><rect width="106" height="106" rx="7" fill="white"></rect><path d="M28.3628 32.4843C34.7118 26.2389 45.0088 26.2389 51.3578 32.4843L75.995 56.7155L54.9684 77.3949C54.443 77.9107 53.7362 78.1997 53 78.1997C52.2637 78.1997 51.5569 77.9107 51.0316 77.3949L28.3628 55.0999C26.8553 53.6277 25.6575 51.8689 24.8396 49.927C24.0218 47.9851 23.6005 45.8992 23.6005 43.7921C23.6005 41.685 24.0218 39.5992 24.8396 37.6573C25.6575 35.7154 26.8553 33.9566 28.3628 32.4843Z" fill="#FC868B"></path><path d="M77.6357 32.4843C79.1432 33.9566 80.341 35.7154 81.1589 37.6573C81.9767 39.5992 82.398 41.685 82.398 43.7921C82.398 45.8992 81.9767 47.9851 81.1589 49.927C80.341 51.8689 79.1432 53.6277 77.6357 55.0999L54.9669 77.3949C54.4416 77.9107 53.7348 78.1997 52.9985 78.1997C52.2623 78.1997 51.5555 77.9107 51.0301 77.3949L30.0035 56.7155L54.6407 32.4843C60.9911 26.2389 71.2867 26.2389 77.6357 32.4843Z" fill="#FBB945"></path><path d="M52.9999 34.1001L75.9935 56.7157L54.9669 77.3951C54.4414 77.9105 53.7346 78.1992 52.9985 78.1992C52.2624 78.1992 51.5557 77.9105 51.0301 77.3951L30.0035 56.7171L52.9999 34.1001Z" fill="#F86126"></path></svg> 