<?xml version="1.0" encoding="UTF-8"?> <svg xmlns="http://www.w3.org/2000/svg" width="106" height="106" viewBox="0 0 106 106" fill="none"><rect width="106" height="106" rx="7" fill="white"></rect><path d="M80.3294 25.7C80.9115 26.282 81.3733 26.973 81.6884 27.7336C82.0034 28.4941 82.1656 29.3092 82.1656 30.1324C82.1656 30.9556 82.0034 31.7707 81.6884 32.5312C81.3733 33.2918 80.9115 33.9828 80.3294 34.5648L32.4634 82.4308H23.6V73.566L71.466 25.7C72.6414 24.5247 74.2355 23.8645 75.8977 23.8645C77.5598 23.8645 79.154 24.5247 80.3294 25.7Z" fill="#2EBCFA"></path><path d="M33.26 39.1708L24.8572 30.768C23.8187 32.9448 23.4265 35.3739 23.7271 37.7669C24.0277 40.1599 25.0084 42.4165 26.553 44.2688C28.0976 46.1211 30.1412 47.4915 32.4412 48.2172C34.7413 48.943 37.2012 48.9936 39.5292 48.3632L71.7306 80.5632C72.9126 81.7054 74.4959 82.3377 76.1395 82.3237C77.7832 82.3097 79.3555 81.6506 80.5179 80.4885C81.6802 79.3263 82.3395 77.754 82.3538 76.1104C82.368 74.4668 81.736 72.8834 80.594 71.7012L48.394 39.4998C49.0246 37.1717 48.974 34.7115 48.2482 32.4112C47.5225 30.111 46.152 28.0672 44.2994 26.5226C42.4468 24.9779 40.19 23.9972 37.7967 23.6968C35.4035 23.3964 32.9743 23.7889 30.7974 24.8278L39.2002 33.2306L33.26 39.1708Z" fill="#985184"></path><path d="M53.0322 44.1381L44.166 53.0001L53.0308 61.8635L61.8928 53.0001L53.0308 44.1367L53.0322 44.1381Z" fill="#144496"></path></svg> 