<?xml version="1.0" encoding="UTF-8"?> <svg xmlns="http://www.w3.org/2000/svg" width="106" height="106" viewBox="0 0 106 106" fill="none"><rect width="106" height="106" rx="7" fill="white"></rect><path d="M41.5578 41.2904C42.6139 40.2342 43.3664 38.9134 43.7365 37.4664C44.1066 36.0193 44.0806 34.4994 43.6612 33.0659C43.2419 31.6323 42.4446 30.338 41.353 29.3186C40.2614 28.2991 38.9157 27.5921 37.4569 27.2716C35.9981 26.9511 34.4799 27.0289 33.0615 27.4969C31.6431 27.9649 30.3768 28.8059 29.3951 29.9316C28.4135 31.0573 27.7528 32.4264 27.4823 33.8953C27.2117 35.3642 27.3413 36.8788 27.8574 38.2804C21.3404 49.5126 22.8916 64.1412 32.5082 73.7578L32.5684 73.818L38.0774 68.309L38.0172 68.2488C31.3308 61.5638 29.9532 51.5804 33.8816 43.5346C35.2466 43.8356 36.6654 43.7877 38.0071 43.3955C39.3487 43.0033 40.5699 42.2793 41.5578 41.2904Z" fill="#F78613"></path><path d="M32.5684 73.8181C40.7402 81.9451 52.503 84.2719 62.73 80.7985L56.2872 74.3557C52.991 74.824 49.6312 74.5217 46.4716 73.4725C43.312 72.4234 40.4387 70.656 38.0774 68.3091L32.5684 73.8181Z" fill="#FBB945"></path><path d="M72.74 62.282C70.9583 61.8069 69.0693 61.9367 67.3693 62.6511C65.6694 63.3655 64.2547 64.624 63.3472 66.2292C62.4397 67.8343 62.0907 69.6954 62.3551 71.5203C62.6194 73.3452 63.4821 75.0307 64.8078 76.3124C66.1335 77.5941 67.8471 78.3995 69.6799 78.6021C71.5127 78.8047 73.3609 78.3932 74.9346 77.4321C76.5082 76.4709 77.7183 75.0146 78.3749 73.2915C79.0315 71.5684 79.0975 69.6761 78.5626 67.9114C85.1972 56.6778 83.7048 41.9736 74.0868 32.301L68.5778 37.81C75.162 44.446 76.5494 54.2936 72.7414 62.282H72.74Z" fill="#03AF89"></path><path d="M43.578 25.28L49.9802 31.6822C53.3439 31.161 56.7833 31.4445 60.0162 32.5094C63.2492 33.5743 66.1837 35.3904 68.5792 37.8086L74.0882 32.2996L74.028 32.2394C65.7932 24.006 53.882 21.6848 43.578 25.28Z" fill="#1AD3BB"></path></svg> 