<?xml version="1.0" encoding="UTF-8"?> <svg xmlns="http://www.w3.org/2000/svg" width="106" height="106" viewBox="0 0 106 106" fill="none"><rect width="106" height="106" rx="7" fill="white"></rect><path d="M58.6 47.4V34.8H47.4V47.4H34.8V58.6001H47.4V71.2001H58.6V58.6001H71.2V47.4H58.6Z" fill="white"></path><path fill-rule="evenodd" clip-rule="evenodd" d="M34.8 58.6001H23.6V40.4C23.6 38.9148 24.19 37.4905 25.2402 36.4403C26.2904 35.39 27.7148 34.8 29.2 34.8H47.4V58.6001H34.8ZM34.8 58.6001V53.0001C34.8 50.2 37.6 47.4 40.4 47.4H47.4V58.6001H34.8ZM71.2 47.4H82.4V65.6001C82.4 67.0853 81.81 68.5096 80.7598 69.5598C79.7096 70.6101 78.2852 71.2001 76.8 71.2001H58.6V47.4H71.2ZM71.2 47.4V53.0001C71.2 55.8001 68.4 58.6001 65.6 58.6001H58.6V47.4H71.2Z" fill="#1AD3BB"></path><path fill-rule="evenodd" clip-rule="evenodd" d="M47.4 34.8001V23.6001H65.6C67.0852 23.6001 68.5096 24.1901 69.5598 25.2403C70.61 26.2905 71.2 27.7149 71.2 29.2001V47.4001H47.4V34.8001ZM47.4 34.8001H53C55.8 34.8001 58.6 37.6001 58.6 40.4001V47.4001H47.4V34.8001ZM58.6 71.2001V82.4001H40.4C38.9148 82.4001 37.4904 81.8101 36.4402 80.7599C35.39 79.7097 34.8 78.2853 34.8 76.8001V58.6001H58.6V71.2001ZM58.6 71.2001H53C50.2 71.2001 47.4 68.4001 47.4 65.6001V58.6001H58.6V71.2001Z" fill="#1A6F66"></path></svg> 