<?xml version="1.0" encoding="UTF-8"?> <svg xmlns="http://www.w3.org/2000/svg" width="45" height="24" viewBox="0 0 45 24" fill="none"><path d="M0.961782 18.9531C0.615582 18.9128 0.357852 18.7015 0.188592 18.319C0.0193316 17.9366 -0.0359984 17.6327 0.0226116 17.4074C0.0944116 17.1059 0.255962 16.6826 0.507262 16.1375C0.758562 15.5923 1.03056 15.041 1.32325 14.4834C1.61595 13.9258 1.86817 13.4886 2.07991 13.1721C2.20886 12.8805 2.32169 12.6254 2.4184 12.4067C2.53746 12.1722 2.6131 12.0185 2.64534 11.9457C2.71568 11.8793 2.83602 11.6942 3.00636 11.3901C3.19576 11.0893 3.35493 10.793 3.48387 10.5014C3.54835 10.3556 3.674 10.083 3.86082 9.68375C4.07 9.26865 4.30976 8.79025 4.58011 8.24835C4.86951 7.70985 5.14774 7.17917 5.41479 6.65639C5.7009 6.1369 5.94689 5.67914 6.15277 5.28311C6.35865 4.88708 6.49217 4.62569 6.55335 4.49893C6.74531 4.2967 6.89752 4.09741 7.00999 3.90104C7.12245 3.70467 7.1948 3.57004 7.22704 3.49714C7.35453 3.44071 7.43768 3.357 7.47651 3.246C7.51864 3.11594 7.5463 3.01281 7.55948 2.93661C7.57597 2.84136 7.61773 2.77011 7.68477 2.72285C7.77086 2.67888 7.8205 2.6188 7.83369 2.5426C7.91978 2.49863 7.96905 2.49735 7.98151 2.53875C7.99396 2.58015 8.05606 2.56146 8.16779 2.48269L8.4788 1.53586L11.0269 1.94738C10.9493 2.16939 10.8427 2.44526 10.7071 2.77497C10.5749 3.08564 10.3181 3.49248 9.93672 3.99548C9.77552 4.36 9.60192 4.68313 9.41582 4.96485C9.24882 5.24988 9.16652 5.44166 9.16912 5.54021C9.12442 5.57172 9.00572 5.74738 8.81302 6.06721C8.63939 6.39033 8.42398 6.78471 8.16682 7.25035C7.9287 7.71925 7.68106 8.18655 7.4239 8.65215C7.18579 9.12115 6.96709 9.53455 6.7678 9.89245C6.59087 10.2347 6.47511 10.45 6.42052 10.5387C6.21537 10.8172 5.96645 11.2351 5.67375 11.7927C5.38106 12.3503 4.95684 13.1011 4.40112 14.0448C4.19597 14.3232 3.92635 14.7475 3.59225 15.3175C3.27721 15.8908 3.01016 16.4136 2.79109 16.8859C2.45297 17.5926 2.17016 18.0929 1.94267 18.3871C1.73422 18.6847 1.55838 18.8504 1.41514 18.8845C1.2686 18.9376 1.11748 18.9604 0.961782 18.9531ZM4.1266 2.1954C3.33235 2.13644 2.81543 1.94888 2.57583 1.63273C2.35528 1.31987 2.30948 1.01763 2.43843 0.72602C2.53514 0.50731 2.70146 0.33988 2.93738 0.22374C3.19565 0.0918501 3.62996 0.01985 4.24029 0.00775003C4.45644 0.00591003 4.73138 0.00444023 5.06513 0.00333023C5.41792 0.00552023 5.75166 0.00441 6.06636 0C6.7082 0.03259 7.23409 0.0549302 7.64404 0.0670102C8.07303 0.0823802 8.5099 0.10893 8.95462 0.14665C9.39942 0.18437 9.95842 0.24188 10.6318 0.31916C11.1908 0.37666 11.6625 0.42885 12.0468 0.47574C12.4534 0.50686 12.6568 0.52243 12.6568 0.52243C12.7139 0.53232 12.9107 0.58598 13.247 0.68342C13.5833 0.78086 13.9465 0.89277 14.3367 1.01915C14.7268 1.14553 15.0106 1.26331 15.1879 1.37247C15.6096 1.54355 15.9323 1.77599 16.1562 2.06979C16.38 2.3636 16.502 2.67902 16.5222 3.01606C16.5398 3.25455 16.5084 3.43553 16.4282 3.55899C16.3513 3.6634 16.23 3.74052 16.0644 3.79035C15.6032 3.84788 15.2215 3.89954 14.9192 3.94535C14.6394 3.97539 14.3743 3.91972 14.1241 3.77831C14.0453 3.66658 13.9458 3.56107 13.8257 3.46179C13.7246 3.36581 13.5249 3.2724 13.2267 3.18155C12.9508 3.07495 12.5019 2.94821 11.8798 2.80132C11.3365 2.76616 10.8648 2.71397 10.4648 2.64474C10.0647 2.57551 9.85652 2.58852 9.84002 2.68377L8.13922 2.47775L6.7143 2.37832C6.52051 2.3644 6.24886 2.34683 5.89936 2.32559C5.55316 2.2853 5.21484 2.25618 4.88439 2.23824C4.55724 2.20125 4.30464 2.18697 4.1266 2.1954ZM10.938 18.6194C10.812 18.4407 10.7372 18.1923 10.7138 17.8743C10.7094 17.5596 10.7414 17.261 10.8099 16.9785C10.8817 16.677 10.9689 16.4567 11.0715 16.3175C11.0979 16.1651 11.1367 16.0541 11.188 15.9845C11.2616 15.8991 11.2955 15.8167 11.2896 15.7372C11.2838 15.6576 11.3259 15.5276 11.416 15.347C11.5061 15.1664 11.5946 14.9952 11.6814 14.8337C11.8675 14.5519 12.0875 14.1879 12.3414 13.7413C12.5985 13.2757 12.8557 12.81 13.1129 12.3444C13.3733 11.8597 13.592 11.4462 13.769 11.104C13.9492 10.7428 14.0554 10.5258 14.0877 10.4529C14.1272 10.2243 14.301 10.1267 14.6091 10.1604C14.8509 10.1238 15.1107 10.2669 15.3884 10.5896C15.6661 10.9123 15.8738 11.2427 16.0116 11.5805C16.1376 11.7592 16.1601 11.9691 16.0792 12.2101C15.9982 12.4513 15.8134 12.7822 15.5247 13.2031C15.4222 13.3424 15.2824 13.5831 15.1055 13.9253C14.9509 14.2517 14.8347 14.5259 14.7571 14.7479C14.6545 14.8872 14.5214 15.0898 14.3576 15.3556C14.2162 15.606 14.086 15.8483 13.9669 16.0828C13.9123 16.1714 13.8429 16.3458 13.7587 16.6059C13.6777 16.847 13.5856 17.0958 13.4823 17.3526C13.379 17.6094 13.2665 17.8059 13.1449 17.9418C12.8383 18.6932 12.4543 19.0977 11.9931 19.1552C11.5509 19.216 11.1992 19.0373 10.938 18.6194ZM16.0071 7.69475C15.8239 7.50608 15.6933 7.29708 15.6152 7.06775C15.5596 6.82267 15.537 6.61275 15.5476 6.438C15.5773 6.26655 15.6145 6.16507 15.6592 6.13356C15.8859 5.95698 16.0957 5.70877 16.2884 5.38894C16.5001 5.07241 16.7164 4.78611 16.9373 4.53002C16.9853 4.47947 17.0461 4.41151 17.1198 4.32615C17.2157 4.22503 17.3035 4.17154 17.383 4.16568C17.638 4.05284 17.9506 4.11676 18.321 4.35744C18.7105 4.60142 18.9741 4.89229 19.1118 5.23006C19.2206 5.62168 19.204 6.0014 19.0618 6.36922C18.9387 6.74033 18.6695 7.10577 18.2541 7.46554C17.9024 7.79705 17.4976 7.98215 17.0396 8.02055C16.585 8.04005 16.2408 7.93145 16.0071 7.69475ZM17.523 20.583C17.1446 20.6157 16.8388 20.4548 16.6058 20.1005C16.3695 19.7654 16.2437 19.3021 16.2283 18.7108C16.2129 18.1196 16.3424 17.4846 16.6167 16.8062C16.7516 16.5941 16.8657 16.3881 16.9591 16.1884C17.0558 15.9697 17.1157 15.7938 17.1388 15.6604C17.2098 15.4765 17.3338 15.2135 17.5108 14.8713C17.691 14.51 17.8824 14.141 18.085 13.764C18.2876 13.387 18.4724 13.056 18.6394 12.771C18.8288 12.4701 18.9492 12.2849 19.0005 12.2153C19.0767 12.2285 19.1549 12.1734 19.2351 12.0499C19.3153 11.9264 19.367 11.7981 19.39 11.6648C19.4164 11.5124 19.4747 11.3459 19.5648 11.1653C19.674 10.988 19.7732 10.8678 19.8626 10.8048C19.8791 10.7095 19.9163 10.608 19.9742 10.5002C20.0544 10.3769 20.1011 10.2769 20.1143 10.2008C20.1275 10.1246 20.1597 10.0517 20.211 9.98205C20.2813 9.91575 20.3231 9.84455 20.3363 9.76835C20.5125 9.54375 20.7515 9.18285 21.0534 8.68575C21.3776 8.17285 21.7212 7.60445 22.0842 6.98054C22.4663 6.35994 22.8277 5.74556 23.1684 5.13741C23.5091 4.52927 23.784 4.01765 23.9932 3.60258C24.2247 3.17175 24.3487 2.9087 24.3652 2.81345C24.3916 2.66105 24.4734 2.52807 24.6108 2.41449C24.7482 2.30092 24.8931 2.25732 25.0455 2.2837C25.1125 2.23643 25.2525 2.22141 25.4653 2.23862C25.6815 2.23679 25.8276 2.24246 25.9038 2.25565C25.9038 2.25565 25.9353 2.30034 25.9984 2.38973C26.0614 2.47912 26.1559 2.6132 26.2819 2.79197C26.4113 2.9517 26.5278 3.12882 26.6314 3.32335C26.7542 3.52118 26.7958 3.73439 26.7562 3.96299C26.7133 4.21064 26.634 4.44218 26.5183 4.6576C26.4216 4.87631 26.2529 5.17086 26.0122 5.54124C25.7748 5.89257 25.4092 6.41793 24.9154 7.1173C24.697 7.47193 24.4725 7.80585 24.2417 8.11905C24.0142 8.41325 23.8939 8.59845 23.8807 8.67465C23.8675 8.75085 23.8096 8.85855 23.707 8.99775C23.6235 9.14035 23.5239 9.31925 23.4081 9.53465C23.3055 9.67395 23.1612 9.88435 22.9751 10.166C22.7923 10.4288 22.595 10.7184 22.3833 11.035C22.1939 11.3357 22.0301 11.6016 21.892 11.8328C21.7572 12.0449 21.6865 12.1701 21.6799 12.2082C21.6667 12.2844 21.644 12.359 21.6118 12.4319C21.5986 12.508 21.5473 12.5777 21.4579 12.6406C21.3817 12.6274 21.3242 12.6763 21.2854 12.7873C21.2689 12.8826 21.2607 12.9303 21.2607 12.9303C21.2277 13.1208 20.9879 13.5991 20.5414 14.3657C20.0552 15.3607 19.603 16.2733 19.1847 17.1033C18.7854 17.9368 18.5396 18.6203 18.4473 19.1537C18.3681 19.6108 18.231 19.9501 18.0357 20.1714C17.8595 20.396 17.6886 20.5331 17.523 20.583ZM29.6621 22.3305C29.373 22.3001 29.1047 22.2635 28.857 22.2206C28.6284 22.181 28.4541 22.1117 28.3339 22.0124C28.0404 21.6672 27.8514 21.3991 27.7668 21.2079C27.7012 21.02 27.6865 20.8211 27.7228 20.6117C27.788 20.3483 27.8437 20.0832 27.8898 19.8165C27.9393 19.5308 27.9772 19.3116 28.0036 19.1593C27.9405 19.0699 27.7733 19.1292 27.5018 19.3372C27.2304 19.5453 26.9225 19.7374 26.5781 19.9132C25.8722 20.4778 25.2642 20.873 24.7543 21.0986C24.2476 21.3053 23.8005 21.3947 23.4129 21.3668C23.022 21.3581 22.6394 21.3015 22.2649 21.1975C21.9286 21.1001 21.6535 20.8759 21.4395 20.525C21.2446 20.1773 21.1184 19.7729 21.0609 19.3117C21.0224 18.8538 21.0585 18.4185 21.1691 18.006C21.3995 17.2414 21.693 16.5662 22.0494 15.9804C22.4091 15.3755 22.8976 14.7636 23.5149 14.1445C23.7963 13.8792 24.1588 13.5985 24.6024 13.3025C25.0651 13.0097 25.5514 12.7506 26.0614 12.525C26.5746 12.2802 27.0238 12.1224 27.4088 12.0518C28.0041 11.8997 28.4811 11.8644 28.8397 11.9461C29.2175 12.0311 29.579 12.1526 29.9245 12.3104C30.1681 12.4899 30.3662 12.593 30.5186 12.6194C30.69 12.649 30.8303 12.5752 30.9395 12.3979C31.0802 12.2653 31.1988 12.0896 31.2956 11.8708C31.3923 11.6521 31.5254 11.4495 31.695 11.2631L32.6451 9.51445C32.9437 9.03635 33.2935 8.48865 33.6947 7.87135C34.0958 7.25404 34.5482 6.56713 35.0519 5.81061C35.6187 5.14347 36.0577 4.81723 36.3691 4.83187C36.6996 4.84981 37.0033 5.07896 37.2802 5.5193C37.4693 5.78746 37.5437 6.09464 37.5034 6.44084C37.4854 6.77129 37.3338 7.13746 37.0484 7.53935C36.8788 7.72585 36.6898 7.96785 36.4813 8.26525C36.2762 8.54375 36.0325 8.87435 35.7505 9.25715C35.4552 9.71625 35.1504 10.1737 34.8361 10.6294C34.5408 11.0885 34.2278 11.5934 33.897 12.1444C33.7681 12.436 33.6023 12.7704 33.3997 13.1474C33.2162 13.5276 33.0583 13.873 32.9261 14.1838C32.8162 14.4787 32.7 14.7529 32.5777 15.0064C32.4777 15.2442 32.3896 15.3565 32.3134 15.3433C32.1379 15.4503 31.9456 15.7113 31.7364 16.1264C31.5305 16.5224 31.3387 16.9503 31.1611 17.4101C31.0025 17.8731 30.8682 18.2521 30.7583 18.547C30.6806 18.7691 30.596 19.0879 30.5044 19.5037C30.4162 19.9004 30.3391 20.2894 30.2731 20.6704C30.2105 21.0324 30.1676 21.28 30.1446 21.4134C30.0819 21.7753 30.0088 22.0275 29.9253 22.17C29.8641 22.2967 29.7764 22.3503 29.6621 22.3305ZM23.5947 18.9555C24.0329 19.0313 24.4738 18.9213 24.9174 18.6252C25.3834 18.3134 25.8908 17.9892 26.4396 17.6525C26.7748 17.4162 27.1245 17.153 27.4886 16.8628C27.856 16.5536 28.1933 16.2489 28.5002 15.9489C28.8263 15.6522 29.0869 15.3932 29.2822 15.1719C29.4775 14.9506 29.5817 14.8019 29.5949 14.7257C29.6113 14.6304 29.55 14.5315 29.4108 14.429C29.2906 14.3297 29.1386 14.2445 28.9547 14.1734C28.774 14.0833 28.6042 14.0441 28.4452 14.0559C27.965 14.1101 27.5589 14.2458 27.227 14.4631C26.9141 14.6836 26.4511 15.0352 25.8378 15.5177C25.2147 16.0573 24.7012 16.5865 24.2975 17.1053C23.8938 17.624 23.6226 18.0578 23.4837 18.4066C23.3672 18.7396 23.4042 18.9226 23.5947 18.9555ZM35.5656 22.9694C35.4066 22.9813 35.2032 22.9657 34.9556 22.9228C34.7112 22.8609 34.4971 22.7943 34.3132 22.7234C34.1516 22.6366 34.0758 22.5646 34.0857 22.5074C34.1022 22.4122 34.0628 22.3563 33.9675 22.3398C33.9675 22.3398 33.8759 22.2455 33.6928 22.0568C33.5129 21.8491 33.3438 21.6923 33.1855 21.5864C33.0602 21.2901 32.9987 20.9655 33.0009 20.6126C33.0254 20.244 33.2485 19.6353 33.6702 18.7861C33.7947 18.1798 34.0766 17.5712 34.5158 16.9605C34.9584 16.3308 35.4833 15.7348 36.0907 15.1728C36.6981 14.6108 37.3114 14.1284 37.9305 13.7254C38.5529 13.3034 39.0951 13.0048 39.557 12.8295C39.8699 12.609 40.247 12.5272 40.6885 12.584C41.149 12.644 41.5342 12.799 41.8442 13.0487C42.0182 13.177 42.1948 13.4037 42.3739 13.729C42.5531 14.0543 42.7194 14.3972 42.8729 14.7572C43.0297 15.0982 43.1438 15.4026 43.2153 15.67C43.2362 15.8895 43.2508 16.0882 43.2593 16.2663C43.29 16.4285 43.2952 16.6256 43.2747 16.8575C43.2541 17.0893 43.1758 17.429 43.0395 17.8764C42.8849 18.2028 42.7382 18.5404 42.5993 18.8891C42.4829 19.2222 42.3933 19.5696 42.3307 19.9316C42.2299 20.287 42.2235 20.5507 42.3114 20.7229C42.4184 20.8984 42.6073 20.9409 42.878 20.8504C43.1264 20.7756 43.3662 20.8073 43.5973 20.9454C43.8318 21.0645 43.9769 21.2465 44.0326 21.4916C44.1106 21.721 44.0342 21.9923 43.8034 22.3055C43.6463 22.5333 43.4241 22.7402 43.1369 22.9258C42.8497 23.1117 42.5405 23.2544 42.2093 23.354C41.8814 23.4346 41.5746 23.4502 41.2889 23.4008C41.0793 23.3645 40.8829 23.252 40.6998 23.0634C40.5199 22.8556 40.3689 22.594 40.2469 22.2787C40.1249 21.9632 40.0364 21.6241 39.9815 21.2614L39.9238 20.5746L38.7319 21.3396C38.4381 21.5634 38.1476 21.7682 37.8603 21.954C37.5955 22.1239 37.4262 22.2516 37.3526 22.337C37.2277 22.492 37.0108 22.6114 36.702 22.6953C36.4122 22.7825 36.0334 22.8738 35.5656 22.9694ZM36.8118 20.3598C37.1686 20.2254 37.4844 20.0445 37.7592 19.8174C38.053 19.5935 38.3422 19.3395 38.6269 19.0552C38.9148 18.7519 39.2251 18.4328 39.5577 18.0979C39.9574 17.7158 40.247 17.4029 40.4265 17.1593C40.625 16.919 40.7888 16.653 40.9177 16.3614C40.8778 16.1386 40.8109 15.9014 40.7171 15.6497C40.6267 15.379 40.5164 15.2226 40.3863 15.1805C40.1196 15.1343 39.7677 15.2402 39.3307 15.4981C38.9127 15.7593 38.4319 16.1567 37.8882 16.6905C37.7955 16.7726 37.6739 16.9086 37.5234 17.0984C37.3728 17.2882 37.2239 17.4684 37.0766 17.6391C36.9517 17.7941 36.8652 17.8969 36.8172 17.9474C36.7469 18.0137 36.6299 18.1799 36.4661 18.4458C36.3247 18.6961 36.1912 18.9575 36.0655 19.2299C35.9432 19.4834 35.8721 19.6674 35.8523 19.7817C35.8326 19.896 35.8207 20.0215 35.8166 20.1581C35.8316 20.298 35.9121 20.4002 36.0579 20.4648C36.2037 20.5293 36.455 20.4943 36.8118 20.3598Z" fill="#5E8BDC"></path></svg> 