<?xml version="1.0" encoding="UTF-8"?> <svg xmlns="http://www.w3.org/2000/svg" width="56" height="48" viewBox="0 0 56 48" fill="none"><path d="M4.57202 11.8206C3.86604 15.3439 3.21198 18.6069 2.48415 22.2373C0.324483 21.0986 -0.0543971 19.3893 0.00581694 17.8867C0.201753 12.9726 0.365013 8.0212 1.13114 3.17723C1.72496 -0.572795 4.26592 -0.980034 7.02773 1.83238C9.33 4.17527 11.5823 6.57576 13.9978 8.79654C15.1746 9.87812 16.7206 10.5474 18.0085 11.5237C18.5985 11.9706 18.9683 12.7078 19.4385 13.3137C18.6409 13.7674 17.755 14.6987 17.0643 14.5723C15.7559 14.3319 14.5474 13.5065 13.3207 12.8793C12.6761 12.5492 12.08 12.122 10.6363 11.2266C11.3615 12.8592 11.5556 13.8395 12.1257 14.4912C15.6132 18.481 18.8719 22.7444 22.7929 26.264C31.6016 34.1703 41.1839 40.9601 52.8688 44.1105C53.473 44.2738 54.1497 44.452 54.5932 44.8467C55.0084 45.2159 55.428 45.93 55.3463 46.4064C55.266 46.8741 54.5784 47.5492 54.1194 47.5818C52.7546 47.6786 51.2698 47.8023 50.0144 47.3774C46.4321 46.1661 42.8023 44.962 39.439 43.2651C28.3627 37.676 18.6504 30.2427 10.6639 20.7095C8.4905 18.1147 6.80431 15.1123 4.57202 11.8206Z" fill="#5E8BDC"></path></svg> 