<?xml version="1.0" encoding="UTF-8"?> <svg xmlns="http://www.w3.org/2000/svg" width="45" height="45" viewBox="0 0 45 45" fill="none"><path d="M39.657 10.0518C40.5735 12.9565 41.4225 15.6467 42.3672 18.6397C44.0833 17.483 44.2466 16.0079 44.0587 14.7471C43.4451 10.6238 42.8557 6.46606 41.768 2.45385C40.9253 -0.652196 38.7468 -0.763494 36.676 1.85864C34.9497 4.04315 33.2707 6.27165 31.4378 8.3636C30.5447 9.38244 29.303 10.0875 28.3067 11.0278C27.8503 11.4583 27.6059 12.1133 27.265 12.6668C27.9786 12.9764 28.8101 13.6803 29.3807 13.5108C30.4613 13.1888 31.4045 12.3829 32.381 11.7424C32.8941 11.4054 33.3574 10.991 34.4924 10.1046C34.0302 11.5467 33.9561 12.3905 33.5351 12.9917C30.9603 16.6723 28.6031 20.5625 25.62 23.8864C18.9183 31.3532 11.4627 37.9495 1.90311 41.6708C1.40877 41.8636 0.854804 42.0756 0.517079 42.4487C0.200903 42.7976 -0.0875499 43.4377 0.0247396 43.8318C0.135148 44.2186 0.776166 44.7248 1.16598 44.7104C2.32497 44.6673 3.5875 44.6361 4.60673 44.1635C7.51505 42.8157 10.464 41.4697 13.1435 39.7328C21.9677 34.0119 29.4741 26.8613 35.3345 18.0986C36.9293 15.7136 38.0762 13.0295 39.657 10.0518Z" fill="#5E8BDC"></path></svg> 