<?xml version="1.0" encoding="UTF-8"?> <svg xmlns="http://www.w3.org/2000/svg" width="27" height="70" viewBox="0 0 27 70" fill="none"><path d="M8.66383 10.1411C5.87518 12.4073 3.29238 14.506 0.418711 16.8408C-0.520693 14.5873 0.276141 13.0283 1.27975 11.9084C4.56118 8.24513 7.84118 4.53239 11.5175 1.28649C14.364 -1.22592 16.5821 0.0788107 16.9195 4.00608C17.2017 7.27866 17.4088 10.5639 17.8561 13.8145C18.0742 15.3979 18.8396 16.8986 19.2104 18.4716C19.3804 19.192 19.196 19.9958 19.1725 20.7624C18.2686 20.604 16.9923 20.7576 16.5406 20.2201C15.6851 19.2014 15.2792 17.7953 14.7332 16.5304C14.4466 15.8652 14.2593 15.1562 13.7169 13.5463C13.2359 15.2668 12.7611 16.1461 12.7853 17.0116C12.9319 22.3088 12.728 27.671 13.5085 32.8819C15.262 44.5878 18.3234 55.9258 25.3237 65.7978C25.6854 66.3086 26.0935 66.877 26.184 67.4638C26.2689 68.0128 26.1374 68.8306 25.771 69.1459C25.4111 69.4552 24.4509 69.5376 24.0763 69.2703C22.9626 68.4755 21.7393 67.625 21.0422 66.4978C19.0525 63.282 17.0216 60.0416 15.5099 56.5911C10.5322 45.2268 7.78075 33.31 7.69728 20.8737C7.67483 17.4891 8.28769 14.1005 8.66383 10.1411Z" fill="#5E8BDC"></path></svg> 