<?xml version="1.0" encoding="UTF-8"?> <svg xmlns="http://www.w3.org/2000/svg" width="49" height="45" viewBox="0 0 49 45" fill="none"><path d="M44.0822 10.6107C44.8518 13.735 45.5648 16.6285 46.3582 19.8477C48.2456 18.7444 48.5176 17.2003 48.4048 15.8585C48.037 11.47 47.6969 7.04691 46.8216 2.74351C46.1434 -0.587998 43.8543 -0.852733 41.4938 1.7715C39.5261 3.95767 37.6052 6.19342 35.5314 8.2748C34.5209 9.28853 33.1642 9.94783 32.0502 10.8716C31.54 11.2946 31.238 11.9686 30.8411 12.5291C31.5725 12.9037 32.4015 13.7021 33.0144 13.5619C34.1755 13.2957 35.2243 12.5099 36.2971 11.9007C36.8608 11.5801 37.3773 11.1746 38.6338 10.317C38.049 11.806 37.9138 12.6905 37.4293 13.2959C34.4658 17.0018 31.7176 20.9435 28.3478 24.2458C20.7774 31.6641 12.4711 38.1137 2.14135 41.39C1.60716 41.5598 1.00881 41.7458 0.627522 42.1163C0.270592 42.4628 -0.0768187 43.1181 0.0148983 43.5411C0.105122 43.9564 0.746652 44.5333 1.15858 44.5445C2.38334 44.5776 3.71645 44.63 4.82293 44.2008C7.98018 42.9767 11.1801 41.7573 14.1225 40.1075C23.8123 34.6734 32.2096 27.6429 38.9807 18.8015C40.8234 16.395 42.2142 13.6429 44.0822 10.6107Z" fill="#5E8BDC"></path></svg> 