<?xml version="1.0" encoding="UTF-8"?> <svg xmlns="http://www.w3.org/2000/svg" width="48" height="58" viewBox="0 0 48 58" fill="none"><path d="M6.00581 11.7738C4.53722 15.0534 3.1769 18.0906 1.66331 21.4697C-0.19063 19.8811 -0.181627 18.1303 0.209791 16.6783C1.48894 11.9296 2.74448 7.13722 4.56414 2.58312C5.97355 -0.942344 8.54161 -0.776859 10.6121 2.57726C12.3384 5.37176 14.0033 8.21137 15.8671 10.9119C16.7753 12.2272 18.1347 13.2222 19.1745 14.4594C19.6509 15.0259 19.8483 15.8266 20.1726 16.5216C19.2943 16.7875 18.2242 17.4995 17.5787 17.2233C16.356 16.6992 15.3602 15.6267 14.3028 14.7434C13.7473 14.2787 13.2606 13.7302 12.051 12.5373C12.3968 14.29 12.369 15.2889 12.7807 16.0507C15.2981 20.7137 17.532 25.5927 20.5764 29.8932C27.4158 39.5537 35.2569 48.2966 45.9541 53.9561C46.5073 54.2491 47.1277 54.5728 47.4728 55.0559C47.7959 55.5078 48.047 56.2971 47.8619 56.7436C47.6799 57.1819 46.86 57.688 46.4051 57.6182C45.0527 57.4103 43.5775 57.2022 42.4472 56.5099C39.2221 54.5354 35.949 52.5575 33.0449 50.1581C23.481 42.2552 15.6557 32.8559 9.97834 21.791C8.43338 18.7794 7.45385 15.4781 6.00581 11.7738Z" fill="#5E8BDC"></path></svg> 