<?xml version="1.0" encoding="UTF-8"?> <svg xmlns="http://www.w3.org/2000/svg" width="60" height="18" viewBox="0 0 60 18" fill="none"><path d="M52.606 8.76062C51.5914 11.6326 50.6519 14.2925 49.6067 17.2519C51.6734 17.3597 52.691 16.2794 53.2991 15.1591C55.2885 11.4957 57.3179 7.81928 58.8618 3.95954C60.0564 0.971162 58.3828 -0.427854 55.1514 0.421825C52.4584 1.12901 49.7768 1.89978 47.0543 2.4689C45.7281 2.74588 44.312 2.56249 42.9505 2.71458C42.3269 2.78411 41.7378 3.1604 41.1325 3.39765C41.5165 4.0741 41.7575 5.13663 42.3154 5.34425C43.3724 5.73692 44.6105 5.66022 45.7759 5.73574C46.3886 5.775 47.008 5.72255 48.4478 5.69692C47.2113 6.57114 46.6446 7.20071 45.9467 7.42794C41.6761 8.82017 37.4534 10.5108 33.071 11.3725C23.2263 13.3079 13.3026 14.0946 3.42687 11.3188C2.91599 11.1756 2.34592 11.0118 1.85171 11.1068C1.38923 11.1954 0.773831 11.5334 0.626568 11.9158C0.482155 12.2912 0.689912 13.0811 1.01003 13.304C1.96189 13.9666 2.98941 14.7009 4.08796 14.9363C7.22212 15.6084 10.3877 16.3065 13.5731 16.5302C24.0638 17.266 34.3613 16.0671 44.3132 12.5903C47.0217 11.6438 49.5522 10.1891 52.606 8.76062Z" fill="#5E8BDC"></path></svg> 