<?xml version="1.0" encoding="UTF-8"?> <svg xmlns="http://www.w3.org/2000/svg" width="58" height="29" viewBox="0 0 58 29" fill="none"><path d="M5.31307 18.3159C5.64665 15.1155 5.95537 12.1516 6.29874 8.85381C4.14925 9.25296 3.37061 10.6137 3.0224 11.9145C1.88276 16.1684 0.705265 20.4455 0.0718324 24.791C-0.417949 28.1554 1.64634 29.1795 4.75591 27.5094C7.34761 26.1186 9.91195 24.6652 12.568 23.4089C13.8619 22.7971 15.3618 22.6361 16.7228 22.1439C17.3461 21.9187 17.8584 21.3868 18.4216 20.9937C17.8603 20.3937 17.3505 19.3617 16.7263 19.2861C15.5437 19.1435 14.2908 19.5278 13.0751 19.7378C12.4361 19.8486 11.8128 20.0553 10.3402 20.4369C11.3946 19.2338 11.8213 18.4473 12.4821 18.0417C16.5253 15.558 20.4457 12.7795 24.7346 10.8131C34.3694 6.39595 44.3687 3.13938 55.1977 3.55386C55.7579 3.57498 56.3838 3.60258 56.8681 3.38304C57.3212 3.17786 57.87 2.67888 57.9269 2.24978C57.9826 1.82849 57.5743 1.06837 57.1905 0.918395C56.0492 0.472625 54.8126 -0.0280762 53.6261 0.00122781C50.2409 0.0840888 46.8171 0.148107 43.4899 0.704295C32.5325 2.53687 22.2509 6.30916 12.8863 12.336C10.3377 13.9765 8.09737 16.0952 5.31307 18.3159Z" fill="#5E8BDC"></path></svg> 