<?xml version="1.0" encoding="UTF-8"?> <svg xmlns="http://www.w3.org/2000/svg" width="48" height="59" viewBox="0 0 48 59" fill="none"><path d="M41.3442 47.1476C42.9145 43.9154 44.3689 40.9222 45.9873 37.592C47.7907 39.2377 47.7271 40.9874 47.2905 42.4264C45.8637 47.1329 44.4592 51.8837 42.4983 56.3788C40.9795 59.8585 38.4179 59.613 36.453 56.1958C34.8148 53.3488 33.2393 50.4586 31.4607 47.7013C30.5941 46.3582 29.2664 45.3213 28.2657 44.0522C27.8073 43.4711 27.6349 42.6647 27.3325 41.9598C28.2186 41.7216 29.3104 41.0433 29.9471 41.3395C31.1528 41.9015 32.1146 43.0046 33.1439 43.9204C33.6846 44.4022 34.1539 44.9657 35.3257 46.1957C35.0349 44.4331 35.0938 43.4356 34.7061 42.6613C32.3355 37.922 30.255 32.9756 27.3463 28.5822C20.8118 18.7129 13.2475 9.72951 2.73213 3.73886C2.18842 3.4287 1.57843 3.08584 1.24859 2.59219C0.939731 2.13043 0.713407 1.33367 0.912374 0.893118C1.1079 0.460698 1.94325 -0.0195523 2.39571 0.0644602C3.74092 0.314415 5.20899 0.568511 6.31706 1.29574C9.479 3.36994 12.6887 5.44904 15.5165 7.93795C24.829 16.1355 32.3571 25.7745 37.6863 37.0113C39.1365 40.0696 40.0125 43.3999 41.3442 47.1476Z" fill="#5E8BDC"></path></svg> 