<?xml version="1.0" encoding="UTF-8"?> <svg xmlns="http://www.w3.org/2000/svg" width="34" height="60" viewBox="0 0 34 60" fill="none"><path d="M26.4089 10.4509C28.4344 12.9512 30.3104 15.2666 32.3978 17.8426C33.6366 16.0412 33.226 14.5281 32.5532 13.3617C30.3536 9.54644 28.1645 5.68806 25.5418 2.16568C23.511 -0.560948 21.3267 0.173139 20.3066 3.55219C19.4556 6.3677 18.6682 9.20818 17.6766 11.974C17.1933 13.3213 16.2459 14.495 15.6306 15.8049C15.3488 16.4048 15.3622 17.1432 15.2414 17.8193C16.0627 17.8472 17.1525 18.2172 17.6476 17.8296C18.5852 17.0948 19.2001 15.9375 19.9119 14.9299C20.2857 14.3999 20.5807 13.8132 21.3531 12.5026C21.4572 14.099 21.711 14.957 21.53 15.711C20.4243 20.3254 19.6137 25.0617 17.9686 29.4838C14.2726 39.4176 9.49855 48.7878 1.5434 56.1468C1.13217 56.5277 0.669763 56.9505 0.482279 57.448C0.306633 57.9134 0.270951 58.6543 0.533883 58.9981C0.792187 59.3355 1.61818 59.5848 1.99575 59.4197C3.11827 58.9287 4.34706 58.4091 5.16589 57.55C7.50261 55.0992 9.87998 52.6345 11.8412 49.8898C18.2993 40.8502 22.9086 30.9156 25.2759 20.0338C25.92 17.072 26.0081 13.9897 26.4089 10.4509Z" fill="#5E8BDC"></path></svg> 