<?xml version="1.0" encoding="UTF-8"?> <svg xmlns="http://www.w3.org/2000/svg" width="67" height="37" viewBox="0 0 67 37" fill="none"><path d="M55.11 7.65452C52.3486 5.35524 49.7913 3.22564 46.9461 0.856169C48.9761 -0.500185 50.6595 -0.0189551 51.952 0.749839C56.1792 3.26325 60.4548 5.76569 64.3487 8.74701C67.363 11.0557 66.5105 13.4838 62.722 14.5722C59.5652 15.4801 56.3816 16.3168 53.2783 17.3826C51.7667 17.902 50.4418 18.9424 48.9698 19.6097C48.2957 19.9154 47.4714 19.8894 46.7147 20.0141C46.6958 19.0967 46.299 17.8741 46.7392 17.327C47.5739 16.2912 48.8753 15.6219 50.0112 14.8421C50.6086 14.4327 51.2682 14.1121 52.7432 13.2693C50.9622 13.1292 50.0079 12.8328 49.1633 13.0236C43.9939 14.189 38.693 15.0231 33.7304 16.7938C22.5825 20.7719 12.0476 25.9621 3.7109 34.7348C3.27944 35.1883 2.80036 35.6983 2.24203 35.9002C1.71969 36.0894 0.891911 36.1181 0.511908 35.8193C0.138967 35.5259 -0.127028 34.5997 0.0629979 34.1806C0.62814 32.9345 1.22675 31.5702 2.1984 30.6688C4.9701 28.0962 7.75801 25.4785 10.8523 23.3298C21.0432 16.254 32.2058 11.2561 44.3925 8.77585C47.7093 8.10111 51.1524 8.04899 55.11 7.65452Z" fill="#5E8BDC"></path></svg> 