<?xml version="1.0" encoding="UTF-8"?> <svg xmlns="http://www.w3.org/2000/svg" width="54" height="51" viewBox="0 0 54 51" fill="none"><path d="M5.01932 11.8579C4.06921 15.3234 3.18906 18.5328 2.20969 22.1036C0.134738 20.817 -0.123947 19.0854 0.0409684 17.5906C0.579317 12.7022 1.08768 7.77424 2.18994 2.99554C3.04398 -0.703919 5.60716 -0.932864 8.166 2.06541C10.2991 4.56324 12.3785 7.11503 14.6331 9.49895C15.7316 10.66 17.2271 11.4355 18.4438 12.4993C19.0011 12.9864 19.3186 13.7475 19.7454 14.3848C18.918 14.7817 17.9693 15.6489 17.2891 15.4746C16.0007 15.1436 14.8527 14.2358 13.6728 13.5246C13.0527 13.1502 12.4879 12.6825 11.1102 11.6885C11.7198 13.3678 11.845 14.3592 12.3682 15.0491C15.5688 19.2726 18.5221 23.7529 22.188 27.5375C30.4235 36.0392 39.5087 43.4811 50.9452 47.4391C51.5366 47.6442 52.1992 47.8692 52.6141 48.2939C53.0025 48.6911 53.3712 49.4328 53.2565 49.9024C53.1437 50.3633 52.4108 50.9888 51.9506 50.9893C50.5823 50.9906 49.0926 51.0104 47.8698 50.499C44.3808 49.0406 40.8439 47.5862 37.6072 45.6588C26.9478 39.3104 17.7779 31.2175 10.4761 21.1502C8.48906 18.4102 7.01649 15.2974 5.01932 11.8579Z" fill="#5E8BDC"></path></svg> 