<?xml version="1.0" encoding="UTF-8"?> <svg xmlns="http://www.w3.org/2000/svg" width="59" height="30" viewBox="0 0 59 30" fill="none"><path d="M5.81123 19.0659C6.14481 15.8655 6.45353 12.9016 6.7969 9.60387C4.64742 10.003 3.86877 11.3637 3.52056 12.6645C2.38092 16.9184 1.20343 21.1955 0.570001 25.541C0.0802195 28.9054 2.1445 29.9295 5.25407 28.2594C7.84577 26.8686 10.4101 25.4152 13.0662 24.1589C14.3601 23.5471 15.86 23.3861 17.221 22.8939C17.8443 22.6687 18.3566 22.1368 18.9198 21.7437C18.3585 21.1437 17.8487 20.1117 17.2245 20.0361C16.0419 19.8935 14.789 20.2778 13.5733 20.4878C12.9343 20.5986 12.311 20.8053 10.8384 21.1869C11.8928 19.9838 12.3195 19.1973 12.9803 18.7917C17.0235 16.308 20.9439 13.5295 25.2328 11.5631C34.8676 7.14601 44.8669 3.88945 55.6959 4.30393C56.2561 4.32505 56.882 4.35264 57.3663 4.13311C57.8194 3.92792 58.3682 3.42895 58.4251 2.99985C58.4808 2.57856 58.0725 1.81844 57.6887 1.66846C56.5474 1.22269 55.3108 0.721985 54.1243 0.751289C50.7391 0.83415 47.3153 0.898168 43.9881 1.45436C33.0307 3.28694 22.7491 7.05922 13.3845 13.086C10.8359 14.7265 8.59553 16.8452 5.81123 19.0659Z" fill="#5E8BDC"></path></svg> 