<?xml version="1.0" encoding="UTF-8"?> <svg xmlns="http://www.w3.org/2000/svg" width="40" height="48" viewBox="0 0 40 48" fill="none"><path d="M10.0072 3.79166C13.0028 3.23994 15.777 2.72878 18.8635 2.15995C17.927 0.314457 16.4833 -0.0292811 15.209 0.00186693C11.0414 0.102895 6.84276 0.175741 2.72714 0.760967C-0.459048 1.21463 -0.837829 3.36283 1.50927 5.74081C3.46452 7.72306 5.46923 9.66377 7.31948 11.7404C8.2206 12.7522 8.76737 14.0713 9.57782 15.1758C9.94882 15.6818 10.5686 16.005 11.076 16.4115C11.4711 15.7415 12.2721 15.0029 12.1741 14.4159C11.9877 13.3038 11.3041 12.2686 10.7888 11.2206C10.5175 10.6699 10.1633 10.159 9.42352 8.92354C10.7977 9.55977 11.6259 9.73727 12.1707 10.2291C15.5061 13.2377 19.0764 16.0561 22.0075 19.4259C28.592 26.9963 34.2198 35.2076 36.7353 45.1528C36.8657 45.6671 37.0078 46.2429 37.3365 46.624C37.6438 46.9808 38.2435 47.3459 38.6484 47.283C39.0459 47.2211 39.6271 46.6473 39.6608 46.2587C39.7609 45.1032 39.8854 43.8464 39.5419 42.7768C38.5626 39.7246 37.5902 36.6323 36.1965 33.7592C31.6061 24.2975 25.4345 15.9676 17.4604 9.07245C15.29 7.19605 12.7676 5.7272 10.0072 3.79166Z" fill="#5E8BDC"></path></svg> 