<?xml version="1.0" encoding="UTF-8"?> <svg xmlns="http://www.w3.org/2000/svg" width="46" height="44" viewBox="0 0 46 44" fill="none"><path d="M4.26562 33.2496C3.45435 30.3137 2.70282 27.5948 1.86657 24.5697C0.109931 25.6638 -0.106391 27.1321 0.035947 28.3988C0.500612 32.5416 0.939926 36.7179 1.88241 40.7666C2.61264 43.901 4.78571 44.0907 6.94959 41.5449C8.75347 39.424 10.5117 37.2574 12.4188 35.2328C13.348 34.2468 14.6143 33.5869 15.6438 32.6831C16.1154 32.2693 16.3832 31.6236 16.7439 31.0826C16.0419 30.7476 15.2362 30.0141 14.6599 30.1631C13.5684 30.4458 12.5969 31.2172 11.5979 31.8222C11.073 32.1405 10.595 32.538 9.42886 33.3828C9.94266 31.9584 10.0472 31.1178 10.4895 30.5321C13.1953 26.9466 15.691 23.1439 18.7919 19.9296C25.7582 12.7091 33.4466 6.38556 43.134 3.011C43.635 2.83617 44.1962 2.6443 44.5472 2.28359C44.8757 1.94625 45.187 1.31695 45.089 0.919102C44.9926 0.528555 44.3702 -0.000368407 43.9802 1.92548e-07C42.8204 0.00124089 41.5575 -0.0129809 40.5219 0.422601C37.567 1.66473 34.5714 2.90361 31.8311 4.54287C22.8065 9.94223 15.0475 16.8178 8.87521 25.3637C7.19556 27.6897 5.95265 30.3308 4.26562 33.2496Z" fill="#5E8BDC"></path></svg> 