<?xml version="1.0" encoding="UTF-8"?> <svg xmlns="http://www.w3.org/2000/svg" width="57" height="49" viewBox="0 0 57 49" fill="none"><path d="M5.47492 12.7958C4.76894 16.3191 4.11488 19.5821 3.38705 23.2125C1.22738 22.0738 0.848496 20.3645 0.90871 18.8619C1.10465 13.9478 1.26791 8.99642 2.03404 4.15245C2.62786 0.402425 5.16882 -0.00481379 7.93063 2.8076C10.2329 5.15049 12.4852 7.55098 14.9007 9.77176C16.0775 10.8533 17.6235 11.5226 18.9114 12.4989C19.5014 12.9458 19.8712 13.683 20.3414 14.2889C19.5438 14.7426 18.6579 15.6739 17.9672 15.5475C16.6588 15.3071 15.4503 14.4817 14.2236 13.8545C13.579 13.5244 12.9829 13.0972 11.5392 12.2018C12.2644 13.8344 12.4585 14.8147 13.0286 15.4664C16.5161 19.4562 19.7748 23.7196 23.6958 27.2392C32.5045 35.1455 42.0868 41.9353 53.7717 45.0857C54.3759 45.249 55.0526 45.4272 55.4961 45.8219C55.9113 46.1911 56.3309 46.9052 56.2492 47.3816C56.1689 47.8493 55.4813 48.5244 55.0223 48.557C53.6575 48.6538 52.1727 48.7775 50.9173 48.3526C47.335 47.1413 43.7052 45.9372 40.3419 44.2403C29.2656 38.6512 19.5533 31.2179 11.5668 21.6847C9.3934 19.0899 7.70721 16.0875 5.47492 12.7958Z" fill="#5E8BDC"></path></svg> 