<?xml version="1.0" encoding="UTF-8"?> <svg xmlns="http://www.w3.org/2000/svg" width="19" height="59" viewBox="0 0 19 59" fill="none"><path d="M8.98383 6.9576C11.8898 7.87033 14.5811 8.71545 17.5755 9.65562C17.6104 7.58641 16.4949 6.60758 15.3539 6.03935C11.6226 4.18029 7.87696 2.28175 3.9652 0.874974C0.936556 -0.213578 -0.402588 1.50831 0.560484 4.70772C1.36217 7.3741 2.227 10.0269 2.89175 12.7276C3.21532 14.0433 3.08196 15.465 3.28195 16.8202C3.37342 17.4409 3.77025 18.0164 4.0287 18.613C4.69119 18.2054 5.74456 17.927 5.93238 17.3622C6.28754 16.2921 6.16724 15.0574 6.20162 13.89C6.21927 13.2764 6.14501 12.6592 6.06864 11.2212C6.9859 12.4261 7.63506 12.9702 7.88675 13.6597C9.42867 17.8786 11.2671 22.0391 12.2827 26.3883C14.564 36.1587 15.7001 46.0485 13.2742 56.0159C13.1491 56.5315 13.0055 57.107 13.1178 57.5976C13.2228 58.0566 13.5822 58.6597 13.9695 58.7934C14.3498 58.9245 15.1319 58.689 15.3434 58.3612C15.972 57.3866 16.6696 56.3338 16.8661 55.2277C17.4274 52.0718 18.0134 48.8836 18.1246 45.6923C18.4902 35.1822 16.929 24.9334 13.1035 15.1102C12.0621 12.4368 10.519 9.95908 8.98383 6.9576Z" fill="#5E8BDC"></path></svg> 