<?xml version="1.0" encoding="UTF-8"?> <svg xmlns="http://www.w3.org/2000/svg" width="47" height="59" viewBox="0 0 47 59" fill="none"><path d="M40.5068 47.0928C42.0771 43.8606 43.5315 40.8674 45.1499 37.5372C46.9533 39.1829 46.8897 40.9326 46.4531 42.3716C45.0263 47.0781 43.6218 51.8289 41.6609 56.324C40.1421 59.8037 37.5805 59.5582 35.6156 56.141C33.9774 53.294 32.4019 50.4038 30.6233 47.6465C29.7567 46.3034 28.429 45.2665 27.4283 43.9974C26.9699 43.4163 26.7975 42.6099 26.4951 41.905C27.3812 41.6668 28.473 40.9885 29.1097 41.2847C30.3154 41.8467 31.2772 42.9498 32.3065 43.8656C32.8472 44.3474 33.3165 44.9109 34.4883 46.1409C34.1975 44.3783 34.2564 43.3808 33.8687 42.6065C31.4981 37.8672 29.4176 32.9208 26.5089 28.5274C19.9744 18.6581 12.4101 9.6747 1.89473 3.68405C1.35102 3.37389 0.741029 3.03103 0.411189 2.53738C0.102329 2.07562 -0.123995 1.27886 0.0749717 0.838309C0.270499 0.405889 1.10585 -0.0743619 1.55831 0.00965059C2.90352 0.259606 4.37159 0.513702 5.47966 1.24093C8.6416 3.31513 11.8513 5.39423 14.6791 7.88314C23.9916 16.0807 31.5197 25.7197 36.8489 36.9565C38.2991 40.0148 39.1751 43.3451 40.5068 47.0928Z" fill="#5E8BDC"></path></svg> 