<?xml version="1.0" encoding="UTF-8"?> <svg xmlns="http://www.w3.org/2000/svg" width="45" height="46" viewBox="0 0 45 46" fill="none"><path d="M39.7123 10.9005C40.6288 13.8052 41.4778 16.4954 42.4225 19.4884C44.1386 18.3317 44.3019 16.8566 44.114 15.5958C43.5004 11.4725 42.911 7.31469 41.8233 3.30248C40.9806 0.196437 38.8021 0.0851387 36.7313 2.70727C35.005 4.89178 33.326 7.12028 31.4931 9.21223C30.6 10.2311 29.3583 10.9362 28.362 11.8765C27.9056 12.307 27.6612 12.962 27.3203 13.5155C28.0339 13.8251 28.8654 14.529 29.436 14.3595C30.5166 14.0375 31.4598 13.2316 32.4363 12.5911C32.9494 12.2541 33.4127 11.8397 34.5477 10.9533C34.0855 12.3954 34.0114 13.2392 33.5904 13.8404C31.0156 17.521 28.6584 21.4112 25.6753 24.7351C18.9736 32.2019 11.518 38.7982 1.9584 42.5195C1.46406 42.7123 0.910102 42.9243 0.572377 43.2974C0.256201 43.6463 -0.0322521 44.2864 0.0800374 44.6805C0.190446 45.0673 0.831464 45.5735 1.22127 45.5591C2.38026 45.516 3.6428 45.4848 4.66202 45.0122C7.57034 43.6644 10.5193 42.3184 13.1988 40.5815C22.023 34.8606 29.5294 27.71 35.3898 18.9473C36.9846 16.5623 38.1315 13.8782 39.7123 10.9005Z" fill="#5E8BDC"></path></svg> 