<?xml version="1.0" encoding="UTF-8"?> <svg xmlns="http://www.w3.org/2000/svg" width="93" height="23" viewBox="0 0 93 23" fill="none"><path d="M2.24251 21.8089C2.14578 21.7703 2.07803 21.7124 2.03924 21.6352C2.00046 21.5579 1.96156 21.4033 1.92254 21.1713C1.92222 20.9587 1.86398 20.8041 1.74784 20.7076C1.63169 20.6111 1.40922 20.5245 1.08044 20.4476C0.867451 20.2353 0.693081 19.9939 0.557341 19.7234C0.421571 19.4336 0.314541 18.9794 0.236271 18.3609C0.15797 17.723 0.079212 16.7855 0 15.5483C0.037639 14.8715 0.065773 14.3012 0.084402 13.8371C0.122363 13.3731 0.160369 12.938 0.198421 12.5319C0.236471 12.1259 0.274471 11.6908 0.312441 11.2268C0.369731 10.7627 0.446181 10.1826 0.541791 9.4864C0.502451 9.0418 0.521051 8.55846 0.597591 8.03634C0.693471 7.51419 0.712171 7.0985 0.653701 6.78925C0.788391 6.36371 0.874651 5.88025 0.912501 5.33886C0.950311 4.77813 1.03656 4.285 1.17125 3.85946C1.20942 3.53074 1.24761 3.22135 1.28584 2.93129C1.3434 2.6412 1.37203 2.39949 1.37174 2.20616C1.33249 1.81955 1.37054 1.41349 1.48589 0.987984C1.62058 0.562444 1.90044 0.252684 2.32548 0.0587039C2.44142 0.0198639 2.59606 0.000293959 2.78939 3.95875e-06C3.00206 -0.000316041 3.16642 0.018764 3.28248 0.057254C3.59202 0.192124 3.76634 0.404524 3.80545 0.694464C3.86389 0.984374 3.8836 1.23567 3.86459 1.44837C3.90358 1.66098 3.92347 2.02828 3.92426 2.55028C3.94439 3.07225 3.92594 3.65228 3.86891 4.29037C3.83118 4.90909 3.7451 5.51822 3.61068 6.11776C3.45722 6.91066 3.33279 7.72285 3.23738 8.55433C3.16128 9.3664 3.1045 10.1689 3.06704 10.9616C2.99211 12.547 2.91677 13.8618 2.84103 14.9059C2.76528 15.9501 2.75676 16.7041 2.81546 17.168C2.81555 17.226 2.81568 17.313 2.81586 17.429C2.83534 17.5256 2.86447 17.6126 2.90325 17.6898C2.94201 17.7478 2.99039 17.7767 3.04839 17.7766C3.12569 17.7572 3.1836 17.6991 3.22212 17.6024C3.27998 17.5056 3.33776 17.3605 3.39546 17.1671C3.4725 16.9736 3.56883 16.7512 3.68445 16.4997C3.93505 16.0159 4.18559 15.4936 4.43607 14.9325C4.70585 14.3521 4.93702 13.8008 5.12956 13.2785C5.47632 12.4659 5.82327 11.7694 6.17039 11.1889C6.5175 10.6084 6.84519 9.9602 7.15343 9.2444C7.26896 8.93487 7.47129 8.4899 7.76041 7.90946C8.06883 7.30966 8.35799 6.75822 8.6279 6.25514C8.9558 5.75198 9.26438 5.26817 9.55368 4.80373C9.86228 4.33927 10.2191 3.72006 10.6239 2.94611C11.1831 2.01726 11.6655 1.33986 12.0708 0.913914C12.4761 0.468624 12.8335 0.245754 13.1428 0.245284C13.3554 0.206294 13.5294 0.206024 13.6648 0.244494C13.8195 0.263584 13.9647 0.369704 14.1003 0.562824C14.2553 0.775264 14.3523 1.01678 14.3914 1.28738C14.4305 1.55799 14.3633 1.90609 14.19 2.33169C14.0359 2.75726 13.7081 3.32809 13.2066 4.04419C12.8208 4.62477 12.3868 5.3021 11.9046 6.07617C11.4418 6.8502 11.0079 7.58553 10.603 8.28214C10.2174 8.9594 9.93778 9.4625 9.76428 9.7914C9.66788 10.0042 9.58128 10.2267 9.50428 10.4588C9.42728 10.6909 9.31158 10.9038 9.15725 11.0973C8.96421 11.291 8.70384 11.707 8.37614 12.3455C8.04845 12.984 7.7304 13.6128 7.42201 14.232C7.07524 15.0445 6.79588 15.6829 6.58392 16.1473C6.39126 16.5922 6.22748 16.9598 6.09259 17.25C5.97703 17.5402 5.86146 17.8207 5.74587 18.0915C5.63028 18.3624 5.48579 18.7009 5.31241 19.1072C5.21624 19.436 5.08133 19.7165 4.90769 19.9488C4.75337 20.181 4.66664 20.3552 4.64748 20.4712C4.51247 20.6841 4.27114 20.9068 3.92349 21.1393C3.59518 21.3718 3.26679 21.556 2.93833 21.6918C2.60987 21.8276 2.37793 21.8667 2.24251 21.8089ZM24.4338 21.4562C24.3565 21.4563 24.1825 21.4372 23.9117 21.3989C23.641 21.38 23.3219 21.3225 22.9545 21.2264C22.6063 21.1303 22.2774 20.9858 21.9678 20.7929C21.6582 20.6194 21.4258 20.3781 21.2707 20.069C21.1351 19.8952 20.9221 19.6538 20.6316 19.3449C20.3411 19.036 20.0894 18.7561 19.8763 18.5051C19.1599 17.7908 18.5887 17.231 18.1628 16.8257C17.7562 16.4203 17.4075 16.0052 17.1169 15.5803C16.8845 15.3486 16.6811 15.0783 16.5067 14.7692C16.3322 14.4408 16.1674 14.151 16.0123 13.8999C15.8766 13.6295 15.7314 13.475 15.5766 13.4366C15.4801 13.5141 15.3933 13.6302 15.3162 13.785C15.2391 13.9398 15.1718 14.1815 15.1143 14.5103C14.9794 14.8005 14.8542 15.1584 14.7389 15.5839C14.6235 16.0094 14.537 16.3382 14.4794 16.5703C14.3252 16.9185 14.2001 17.2667 14.104 17.6148C14.0271 17.9436 13.9502 18.2337 13.8733 18.4852C13.7963 18.7366 13.7193 18.9398 13.6422 19.0945C13.5845 19.2493 13.517 19.3654 13.4397 19.4428C13.4397 19.4428 13.411 19.5782 13.3534 19.849C13.2957 20.1004 13.2381 20.3422 13.1805 20.5742C12.9886 21.5219 12.738 22.0056 12.4287 22.0254C12.1387 22.0645 11.7421 21.8718 11.2388 21.4472C11.1031 21.1961 10.9384 20.945 10.7446 20.6939C10.5509 20.4429 10.454 20.2787 10.4539 20.2014C10.4539 20.2014 10.5116 20.037 10.6271 19.7081C10.7426 19.3599 10.8677 18.9538 11.0023 18.4896C11.0985 18.1607 11.2331 17.7352 11.4064 17.2129C11.5989 16.6713 11.7913 16.1007 11.9838 15.5011C12.1762 14.8821 12.3589 14.2922 12.5321 13.7312C12.7052 13.151 12.8398 12.6578 12.9358 12.2516C13.013 12.1742 13.0516 12.0968 13.0515 12.0194C13.0707 11.9421 13.0802 11.8357 13.08 11.7004C13.1185 11.5843 13.2147 11.3135 13.3688 10.8879C13.5227 10.443 13.7057 9.9498 13.9175 9.4081C14.1293 8.84712 14.3315 8.32482 14.5241 7.84119C14.736 7.3382 14.9095 6.98027 15.0445 6.7674C15.1216 6.61261 15.1601 6.47722 15.1599 6.36122C15.179 6.24519 15.1886 6.18718 15.1886 6.18718C15.1884 6.01318 15.2752 5.90671 15.4491 5.86778C15.449 5.77112 15.4488 5.67445 15.4487 5.57778C15.4679 5.48109 15.5161 5.39401 15.5933 5.31656C15.6511 5.16181 15.7666 4.86197 15.9399 4.41703C16.1133 3.9721 16.2865 3.48851 16.4597 2.96624C16.6522 2.42462 16.8159 1.9507 16.9506 1.5445C17.0853 1.13829 17.1526 0.915864 17.1526 0.877194C17.1524 0.780524 17.1813 0.703154 17.2392 0.645064C17.2971 0.567644 17.355 0.490214 17.4129 0.412794C17.6059 0.257834 17.8668 0.189774 18.1955 0.208614C18.5242 0.208114 18.853 0.275274 19.1818 0.410114C19.5301 0.544914 19.7817 0.737864 19.9367 0.988964C19.9368 1.06629 19.9081 1.24034 19.8505 1.51109C19.7929 1.78185 19.6967 2.08166 19.5619 2.41053C19.4271 2.7394 19.3018 3.0296 19.1862 3.2811C19.0706 3.53261 19.0128 3.65837 19.0128 3.65837C19.0128 3.65837 18.9262 3.92917 18.753 4.47076C18.5798 4.99303 18.3295 5.68941 18.0022 6.55991C17.6167 7.35316 17.2988 8.06898 17.0484 8.70736C16.8174 9.3264 16.7406 9.6745 16.818 9.7517C16.818 9.7517 17.0497 9.558 17.5132 9.1707C17.9959 8.76392 18.5461 8.26042 19.1639 7.66014C19.6658 7.15671 20.1774 6.6726 20.6987 6.20781C21.2393 5.72366 21.8185 5.25878 22.4365 4.81317C23.325 4.21249 23.9913 3.76681 24.4355 3.47613C24.899 3.16609 25.2467 2.96257 25.4786 2.86555C25.7104 2.7492 25.9327 2.69086 26.1453 2.69053C26.3965 2.59349 26.5608 2.58357 26.6383 2.66079C26.7157 2.71867 26.8705 2.8151 27.1027 2.95008C27.1803 3.0853 27.2483 3.31719 27.3068 3.64577C27.3846 3.95499 27.4235 4.1096 27.4235 4.1096C27.4431 4.3029 27.3371 4.53506 27.1055 4.80608C26.8739 5.0771 26.536 5.32894 26.0917 5.56162C25.6088 5.87169 25.0197 6.24958 24.3244 6.69531C23.6484 7.141 22.9531 7.62539 22.2386 8.14847C21.524 8.65223 20.8481 9.1559 20.2109 9.6596C19.5736 10.1439 19.033 10.5797 18.5889 10.967C18.1641 11.3543 17.9133 11.6544 17.8362 11.8672C17.7011 12.0027 17.7013 12.138 17.8369 12.2732C17.9917 12.4083 18.2531 12.6495 18.621 12.997C18.8921 13.3252 19.1052 13.5956 19.2602 13.808C19.4152 14.0011 19.4926 14.0977 19.4926 14.0977C19.4927 14.1363 19.5992 14.2715 19.8123 14.5032C20.0253 14.7348 20.277 14.9955 20.5674 15.285C20.8772 15.5746 21.158 15.8448 21.4097 16.0957C21.4873 16.289 21.7004 16.5593 22.0489 16.9068C22.3974 17.2349 22.7267 17.6404 23.0368 18.1233C23.9662 19.0885 24.5571 19.8803 24.8094 20.4986C25.0616 21.1169 24.9365 21.4361 24.4338 21.4562ZM37.3128 21.1466C36.9649 21.2631 36.646 21.2829 36.3558 21.2061C36.0657 21.1292 35.8431 20.9168 35.6879 20.5691C35.552 20.2406 35.5126 19.7573 35.5697 19.1192C35.646 18.4618 35.8671 17.6301 36.2329 16.6242C36.2906 16.4501 36.4061 16.102 36.5793 15.5797C36.7718 15.0381 36.9836 14.4384 37.2146 13.7807C37.4456 13.1231 37.667 12.5137 37.8788 11.9527C38.1099 11.3917 38.293 11.0048 38.428 10.7919C38.5051 10.6178 38.5435 10.4727 38.5434 10.3567C38.5625 10.2407 38.5721 10.144 38.5719 10.0667C38.5718 9.97 38.6103 9.8443 38.6874 9.6895C38.7838 9.5153 38.8705 9.3412 38.9476 9.1671C39.0439 8.9736 39.121 8.7995 39.1788 8.64475C39.2558 8.47063 39.2943 8.32557 39.2941 8.20957C39.2941 8.20957 39.3422 8.04517 39.4384 7.71635C39.5345 7.36821 39.6596 6.97168 39.8136 6.52678C39.9675 6.08188 40.141 5.71428 40.3339 5.42399C40.5072 4.97906 40.6517 4.66951 40.7675 4.49533C40.9025 4.30179 40.9699 4.14702 40.9698 4.03102C40.9697 3.99236 40.7667 3.97333 40.3607 3.97395C39.974 3.97454 39.51 3.99457 38.9688 4.03406C38.4275 4.05422 37.9055 4.08401 37.4029 4.12344C36.9196 4.16284 36.5717 4.2117 36.3591 4.27003C36.1852 4.30896 36.0306 4.34786 35.8953 4.38673C35.76 4.40627 35.673 4.4064 35.6343 4.38713C35.5569 4.34858 35.431 4.20377 35.2566 3.9527C35.1016 3.68227 34.9851 3.39244 34.9073 3.08323C34.8489 2.77398 34.9259 2.5612 35.1384 2.44488C35.486 2.23168 35.8338 2.09582 36.1817 2.03729C36.549 1.97873 36.9356 1.93948 37.3416 1.91953C37.7475 1.89958 38.1921 1.86024 38.6754 1.80151C39.12 1.80083 39.5067 1.78091 39.8353 1.74174C40.1639 1.68324 40.3668 1.65394 40.4442 1.65382C40.6375 1.65353 40.8694 1.61451 41.14 1.53676C41.4299 1.45899 41.7585 1.41982 42.1258 1.41926C42.3771 1.41888 42.6284 1.39917 42.8797 1.36012C43.131 1.30174 43.3533 1.2724 43.5466 1.27211C43.6432 1.27196 43.8752 1.27161 44.2426 1.27105C44.6099 1.27049 44.9772 1.26993 45.3446 1.26938C45.6152 1.26897 45.9825 1.22974 46.4464 1.1517C46.9103 1.07366 47.2872 0.995764 47.5771 0.917994C48.4661 0.723304 49.2007 0.693194 49.7809 0.827644C50.3611 0.962094 50.7193 1.29021 50.8554 1.81201C50.9334 2.23722 50.6536 2.60498 50.0161 2.91528C49.3786 3.22559 48.1995 3.43038 46.479 3.52966C45.6478 3.60825 45.0776 3.66712 44.7683 3.70625C44.459 3.74539 44.3045 3.85196 44.3048 4.02596C44.3049 4.14196 44.2568 4.24837 44.1603 4.34518C44.083 4.42263 44.0058 4.50975 43.9286 4.60653C43.8514 4.64531 43.7356 4.80982 43.5814 5.10006C43.4271 5.37096 43.273 5.69986 43.1189 6.08676C42.9841 6.4543 42.859 6.79282 42.7434 7.10233C42.6472 7.41181 42.5992 7.61489 42.5994 7.71155C42.5994 7.71155 42.5608 7.77928 42.4837 7.91473C42.4258 8.03082 42.397 8.12753 42.3971 8.20486C42.3201 8.39831 42.2141 8.62081 42.0791 8.87234C41.9635 9.1239 41.8575 9.3463 41.7611 9.5398C41.4723 10.3136 41.2316 10.9326 41.039 11.3969C40.8657 11.8612 40.7212 12.2287 40.6056 12.4996C40.5093 12.7511 40.4227 12.9735 40.3456 13.167C40.2687 13.4184 40.1437 13.844 39.9706 14.4436C39.7975 15.0431 39.6146 15.5751 39.422 16.0394C39.3255 16.1749 39.2387 16.2717 39.1614 16.3298C39.1035 16.3685 39.0747 16.4652 39.0749 16.6199C39.0749 16.6392 39.0172 16.8133 38.9017 17.1422C38.8055 17.4517 38.6707 17.8289 38.4974 18.2738C38.3241 18.7187 38.1507 19.1637 37.9774 19.6086C37.8234 20.0342 37.6789 20.392 37.5441 20.6822C37.4285 20.9918 37.3514 21.1465 37.3128 21.1466ZM50.1483 19.4161C49.5688 19.7456 48.9504 19.9399 48.2932 19.9989C47.6553 20.0386 47.0558 19.9525 46.4948 19.7407C45.9338 19.5095 45.4789 19.1719 45.1303 18.7277C44.9365 18.4767 44.7523 18.0806 44.5775 17.5396C44.4026 16.9792 44.3725 16.2252 44.487 15.2777C44.6017 14.3882 44.871 13.4888 45.2949 12.5795C45.7382 11.6701 46.2783 10.867 46.9153 10.17C47.5522 9.473 48.2475 8.9983 49.0011 8.74583C49.2716 8.64875 49.5422 8.58068 49.8128 8.5416C50.1027 8.48316 50.4797 8.47292 50.9437 8.51088C51.3885 8.56821 51.785 8.6836 52.1333 8.85708C52.4815 9.0112 52.7331 9.1848 52.8881 9.3779C53.1979 9.6868 53.4013 9.9862 53.4984 10.276C53.5955 10.5659 53.6346 10.8461 53.6157 11.1168C53.52 11.7356 53.2407 12.4031 52.7777 13.1191C52.3342 13.8351 51.7066 14.3677 50.8952 14.717C50.5667 14.8528 50.1802 14.9404 49.7356 14.9797C49.291 15.0191 48.6819 14.962 47.9083 14.8085C47.4442 14.7125 47.1349 14.7613 46.9805 14.9549C46.8455 15.1484 46.7881 15.5255 46.8082 16.0862C46.8474 16.4341 46.9252 16.7433 47.0417 17.0138C47.1774 17.2649 47.4193 17.4386 47.7674 17.5347C48.2122 17.6114 48.5312 17.6206 48.7245 17.5623C48.9177 17.4846 49.1592 17.3779 49.449 17.2422C49.6035 17.1453 49.7484 17.0387 49.8835 16.9225C50.038 16.8063 50.1828 16.69 50.318 16.5738C50.4725 16.4576 50.598 16.3704 50.6946 16.3123C50.7911 16.2348 50.8877 16.1863 50.9844 16.1668C51.081 16.1473 51.1777 16.1375 51.2743 16.1374C51.487 16.1564 51.6902 16.2721 51.8839 16.4845C52.0775 16.6968 52.2035 16.8996 52.2618 17.0929C52.262 17.2476 52.1657 17.47 51.9728 17.7603C51.7799 18.0313 51.5193 18.3217 51.1911 18.6315C50.8822 18.922 50.5346 19.1835 50.1483 19.4161ZM49.7615 12.9497C49.8967 12.8915 50.0899 12.7559 50.3409 12.5428C50.6112 12.3297 50.8525 12.107 51.0649 11.8747C51.2771 11.623 51.3832 11.4296 51.383 11.2942C51.3827 11.0816 51.2374 10.8981 50.9471 10.7439C50.6762 10.5896 50.3185 10.5612 49.874 10.6585C49.7194 10.6974 49.5359 10.804 49.3235 10.9783C49.1111 11.1527 48.8987 11.356 48.6864 11.5883C48.4741 11.8013 48.2907 12.0142 48.1364 12.2271C47.982 12.4207 47.8759 12.5755 47.8181 12.6916C47.8956 12.7882 48.0504 12.8653 48.2824 12.9229C48.5145 12.9806 48.7659 13.0092 49.0366 13.0088C49.3266 13.0083 49.5682 12.9886 49.7615 12.9497ZM56.8181 19.58C56.6635 19.6189 56.4605 19.6385 56.2092 19.6389C55.9578 19.6199 55.7355 19.5913 55.5421 19.5529C55.368 19.4952 55.2809 19.4373 55.2808 19.3793C55.2807 19.2826 55.2323 19.2344 55.1356 19.2345C55.1356 19.2345 55.0291 19.1574 54.8162 19.003C54.6033 18.8293 54.4098 18.704 54.2357 18.6269C54.0613 18.3565 53.9448 18.0473 53.8863 17.6994C53.847 17.3321 53.9621 16.694 54.2313 15.7849C54.2497 15.1662 54.4228 14.5183 54.7504 13.8411C55.078 13.1446 55.4926 12.4673 55.9943 11.8092C56.496 11.1511 57.0171 10.5703 57.5577 10.0668C58.0982 9.544 58.581 9.1566 59.0059 8.90464C59.2762 8.63356 59.6336 8.48802 60.0782 8.46801C60.5422 8.44797 60.9483 8.53436 61.2966 8.72716C61.4901 8.82353 61.7031 9.0165 61.9355 9.3062C62.168 9.5958 62.3908 9.9048 62.6039 10.2332C62.8171 10.5422 62.9818 10.8223 63.0982 11.0734C63.1565 11.286 63.2051 11.4793 63.2441 11.6532C63.3023 11.8078 63.3413 12.0011 63.361 12.233C63.3806 12.465 63.3618 12.813 63.3045 13.2771C63.2084 13.6253 63.122 13.9831 63.0452 14.3505C62.9877 14.6986 62.9592 15.0563 62.9598 15.4236C62.9217 15.791 62.9608 16.052 63.077 16.2065C63.2126 16.3609 63.4059 16.3703 63.657 16.2346C63.8889 16.1182 64.1305 16.1082 64.382 16.2045C64.6334 16.2814 64.8077 16.4358 64.9047 16.6677C65.021 16.8802 64.9924 17.1606 64.819 17.5088C64.7034 17.7603 64.5201 18.0023 64.2691 18.2347C64.0181 18.467 63.7381 18.6608 63.429 18.8159C63.1198 18.9517 62.8203 19.0199 62.5303 19.0203C62.3176 19.0206 62.1048 18.9436 61.8919 18.7893C61.679 18.6156 61.4853 18.3839 61.3109 18.0941C61.1364 17.8044 60.9909 17.4856 60.8744 17.1378L60.6994 16.4711L59.6568 17.4297C59.4059 17.7007 59.155 17.9524 58.904 18.1848C58.6723 18.3978 58.5276 18.5527 58.4697 18.6495C58.3733 18.8236 58.1802 18.9786 57.8904 19.1143C57.6199 19.2501 57.2625 19.4053 56.8181 19.58ZM57.5969 16.7948C57.9253 16.601 58.2052 16.3685 58.4368 16.0975C58.6877 15.8265 58.929 15.5264 59.1605 15.1974C59.3919 14.8491 59.6427 14.4813 59.9128 14.0943C60.2408 13.6491 60.4722 13.2911 60.6072 13.0202C60.7614 12.7493 60.877 12.4591 60.9538 12.1497C60.8762 11.9371 60.7695 11.715 60.6338 11.4832C60.4981 11.232 60.3626 11.0969 60.2272 11.0778C59.9565 11.0782 59.6281 11.243 59.242 11.5723C58.8751 11.9015 58.4698 12.3758 58.0261 12.9951C57.9489 13.0919 57.8525 13.2467 57.7368 13.4596C57.6211 13.6724 57.5054 13.8756 57.3897 14.0691C57.2933 14.2432 57.2259 14.3593 57.1873 14.4174C57.1294 14.4948 57.0427 14.6786 56.9271 14.9688C56.8309 15.2396 56.7443 15.5201 56.6674 15.8102C56.5905 16.081 56.5521 16.2744 56.5523 16.3904C56.5524 16.5064 56.5623 16.632 56.5818 16.7673C56.6207 16.9026 56.7175 16.9895 56.8722 17.0279C57.027 17.0663 57.2685 16.9886 57.5969 16.7948ZM79.6452 19.2553C79.5098 19.2168 79.2969 19.0915 79.0066 18.8793C78.7163 18.6671 78.4548 18.3484 78.2222 17.9235C78.0088 17.4985 77.9113 16.9476 77.9296 16.2709C77.9481 15.6909 77.9861 15.2848 78.0438 15.0527C78.1207 14.8013 78.0915 14.666 77.9562 14.6469C77.8595 14.6277 77.6663 14.715 77.3766 14.9087C77.0869 15.1025 76.7103 15.4124 76.247 15.8385C75.7836 16.2645 75.2238 16.826 74.5675 17.523C74.3358 17.7167 74.0752 17.9588 73.7856 18.2492C73.5154 18.5203 73.2354 18.7237 72.9456 18.8595C72.6751 18.9952 72.4334 18.9666 72.2204 18.7736L71.93 18.513C71.7945 18.3972 71.6783 18.2427 71.5813 18.0496C71.4844 17.8564 71.4551 17.6921 71.4936 17.5567L72.3022 15.2935C72.5334 14.7904 72.6875 14.4229 72.7645 14.1908C72.8608 13.9586 72.8992 13.8135 72.8798 13.7556C72.8797 13.6976 72.8314 13.6783 72.7347 13.6978C72.6188 13.7173 72.4546 13.8239 72.2422 14.0175C72.0298 14.1919 71.885 14.3371 71.8079 14.4532C71.7305 14.4533 71.6243 14.5308 71.4892 14.6857C71.3735 14.8405 71.2577 14.976 71.1418 15.0922C71.026 15.2084 70.8234 15.431 70.5339 15.7601C70.2443 16.0699 69.9355 16.399 69.6074 16.7475C69.3564 16.9799 69.0668 17.2897 68.7388 17.6769C68.4107 18.064 68.1212 18.4125 67.8704 18.7222C67.6195 19.0319 67.4651 19.1868 67.4071 19.1869C67.059 19.1681 66.7399 19.0526 66.4495 18.8403C66.1785 18.6281 65.9945 18.3674 65.8973 18.0582C65.781 17.8457 65.7708 17.459 65.8666 16.8982C65.9624 16.3181 66.1446 15.3995 66.4134 14.1424C66.4903 13.8523 66.5576 13.6008 66.6153 13.3881C66.6923 13.1753 66.7693 12.9625 66.8463 12.7497C66.9233 12.537 67.0099 12.2952 67.1062 12.0243C67.2218 11.7535 67.3663 11.4246 67.5397 11.0377C67.6359 10.7669 67.6742 10.5155 67.6545 10.2835C67.6348 10.0322 67.6152 9.8292 67.5956 9.6746C67.5952 9.3846 67.6818 9.1525 67.8556 8.9782C68.0486 8.80391 68.2611 8.68758 68.493 8.62923C68.7249 8.55155 68.9085 8.53193 69.0439 8.57039C69.5854 8.62757 69.953 8.82035 70.1468 9.1487C70.3406 9.4771 70.4475 9.7959 70.4673 10.1052C70.487 10.3952 70.4488 10.6563 70.3525 10.8884C70.2561 11.1206 70.1791 11.314 70.1213 11.4688L69.8035 12.2522C69.6109 12.6972 69.4664 13.0261 69.37 13.2389C69.293 13.4324 69.2449 13.5678 69.2256 13.6451C69.2257 13.7031 69.2258 13.7611 69.2259 13.8191C69.2453 13.8771 69.3323 13.848 69.4868 13.7317C69.6413 13.6155 69.8247 13.4605 70.0371 13.2669C70.2687 13.0539 70.4811 12.8699 70.6742 12.7149C71.0218 12.4244 71.3887 12.1338 71.7749 11.8433C72.1804 11.5333 72.5764 11.262 72.9627 11.0294C73.349 10.7969 73.6678 10.6417 73.919 10.564C74.2477 10.6215 74.5476 10.7854 74.8187 11.0556C75.1091 11.3259 75.2931 11.5576 75.3708 11.7508C75.4679 12.0406 75.4779 12.3016 75.401 12.5337C75.3433 12.7658 75.2953 12.9786 75.2569 13.172C75.2377 13.2493 75.1993 13.3944 75.1416 13.6071C75.0839 13.8199 75.0262 14.023 74.9685 14.2164C74.9108 14.3905 74.8819 14.4775 74.8819 14.4775C74.8819 14.4775 74.9398 14.4194 75.0556 14.3033C75.1715 14.1871 75.3259 14.0515 75.519 13.8966C75.7121 13.7223 75.9052 13.5673 76.0983 13.4317C77.0639 12.6956 77.8268 12.2304 78.3872 12.0362C78.9669 11.8227 79.4601 11.9862 79.867 12.527C80.0993 12.7393 80.2447 13.0291 80.3033 13.3963C80.3812 13.7635 80.4206 14.2565 80.4215 14.8751C80.4412 15.1264 80.461 15.4067 80.4808 15.716C80.5199 16.0253 80.559 16.2959 80.598 16.5279C80.6564 16.7598 80.7049 16.9047 80.7437 16.9626C80.8018 17.0399 80.9083 17.1171 81.063 17.1942C81.2178 17.2519 81.3629 17.3 81.4983 17.3385C81.7691 17.4734 81.9145 17.7245 81.9344 18.0918C81.9736 18.4398 81.8387 18.7106 81.5296 18.9044C81.2399 19.0789 80.9307 19.1857 80.6021 19.2249C80.2929 19.264 79.9739 19.2741 79.6452 19.2553ZM85.3692 20.1166C84.7506 20.1176 84.18 19.9831 83.6576 19.7132C83.1545 19.424 82.748 19.0766 82.438 18.6711C82.1281 18.2462 81.9728 17.8404 81.9722 17.4538C81.9719 17.2798 82.0007 17.1541 82.0586 17.0766C82.1358 16.9992 82.2421 16.9604 82.3774 16.9602C82.4741 16.9793 82.5902 17.0275 82.7257 17.1046C82.8611 17.1818 82.9966 17.2685 83.1321 17.365C83.4417 17.5772 83.7802 17.712 84.1477 17.7695C84.5151 17.8269 84.8437 17.8071 85.1336 17.71C85.4234 17.5935 85.5875 17.4193 85.6258 17.1872C85.6257 17.1099 85.5867 16.9456 85.509 16.6944C85.4313 16.4432 85.3343 16.2017 85.2179 15.9698C84.7335 15.2552 84.4328 14.579 84.3159 13.9412C84.1989 13.2841 84.1205 12.6268 84.0809 11.9696C84.0804 11.6989 84.2057 11.399 84.4565 11.07C84.7073 10.7216 85.0161 10.3828 85.3829 10.0536C85.7884 9.705 86.2326 9.3756 86.7155 9.0656C87.2176 8.75546 87.7103 8.49371 88.1933 8.28031C88.6763 8.06691 89.0821 7.94063 89.4107 7.90146C89.7587 7.90094 90.126 7.91971 90.5128 7.95779C90.9188 7.97651 91.1896 8.04376 91.3251 8.15956C91.5961 8.37181 91.8479 8.71943 92.0807 9.2024C92.3134 9.6854 92.43 10.0912 92.4305 10.4199C92.4307 10.5745 92.344 10.768 92.1704 11.0003C92.0161 11.2132 91.8714 11.4551 91.7365 11.7259C91.6594 11.8614 91.5919 12.0065 91.5342 12.1612C91.4764 12.316 91.409 12.4708 91.3319 12.6256C91.2163 12.8964 91.0038 13.0127 90.6944 12.9745C90.4043 12.917 90.1334 12.7627 89.8817 12.5118C89.6299 12.2415 89.5038 11.9323 89.5033 11.5843C89.5028 11.2943 89.5895 11.0429 89.7631 10.8299C89.9368 10.617 90.0236 10.4719 90.0235 10.3945C90.0234 10.3559 90.004 10.3269 89.9653 10.3076C89.9266 10.2883 89.859 10.2788 89.7623 10.2789C89.627 10.2791 89.4047 10.3375 89.0956 10.4539C88.8057 10.5511 88.4966 10.6965 88.1682 10.8904C87.8399 11.0842 87.5405 11.3166 87.2703 11.5877C87.0773 11.8007 86.9133 12.0329 86.7783 12.2845C86.6627 12.5166 86.6051 12.7681 86.6055 13.0387C86.6059 13.3094 86.6547 13.6283 86.7519 13.9955C86.8685 14.3433 86.9946 14.6331 87.1303 14.8649C87.169 14.9035 87.2271 15.0098 87.3047 15.1837C87.4016 15.3382 87.5083 15.5314 87.6246 15.7632C88.3422 17.2314 88.4598 18.3236 87.9776 19.0397C87.5147 19.7557 86.6452 20.1147 85.3692 20.1166Z" fill="#5E8BDC"></path></svg> 