<?xml version="1.0" encoding="UTF-8"?> <svg xmlns="http://www.w3.org/2000/svg" width="106" height="106" viewBox="0 0 106 106" fill="none"><rect width="106" height="106" rx="7" fill="white"></rect><g clip-path="url(#clip0_17_352)"><mask id="mask0_17_352" style="mask-type:luminance" maskUnits="userSpaceOnUse" x="18" y="18" width="70" height="70"><path d="M18 18H88V88H18V18Z" fill="white"></path></mask><g mask="url(#mask0_17_352)"><path d="M54.4014 66.2999C54.4014 66.2999 53.2394 63.4999 53.0056 63.2661C81.7084 49.4901 85.9308 58.3101 86.5216 61.9291C86.6168 62.5143 86.5286 63.1093 86.348 63.6749C85.6865 65.7403 84.8335 67.7393 83.8 69.6459C81.7 71.7459 69.8 71.8999 69.8 71.8999L54.4014 66.2999Z" fill="#144496"></path><path d="M47.4 37.5999L53.0056 42.7337C24.3028 56.5097 20.0804 47.6897 19.4896 44.0707C19.3944 43.4855 19.4826 42.8905 19.6632 42.3249C20.2032 40.6365 20.8716 38.9918 21.6624 37.4053C27.3982 25.9015 38.3014 33.3999 38.3014 33.3999L47.4 37.5999Z" fill="#1A6F66"></path><path d="M19.6618 63.6749C19.4812 63.1093 19.393 62.5143 19.4882 61.9291C20.079 58.3087 24.3014 49.4887 53.0042 63.2661C72.88 72.8071 81.0182 71.5121 84.339 68.6113C78.6004 80.1039 66.7242 87.9999 53.0042 87.9999C37.397 87.9999 24.1754 77.7841 19.6618 63.6749Z" fill="#2EBCFA"></path><path d="M86.3466 42.325C86.5272 42.8906 86.6154 43.4856 86.5202 44.0708C85.9294 47.6912 81.707 56.5112 53.0042 42.7338C33.1284 33.1928 24.9902 34.4878 21.6694 37.3886C27.408 25.896 39.2842 18 53.0042 18C68.61 18 81.8316 28.2158 86.3466 42.325Z" fill="#1AD3BB"></path></g></g><defs><clipPath id="clip0_17_352"><rect width="70" height="70" fill="white" transform="translate(18 18)"></rect></clipPath></defs></svg> 