<?xml version="1.0" encoding="UTF-8"?> <svg xmlns="http://www.w3.org/2000/svg" width="117" height="38" viewBox="0 0 117 38" fill="none"><path d="M4.18523 28.0351L2.98499 26.9315C2.51322 26.4184 2.12384 25.9314 1.81684 25.4707C1.50984 25.01 1.25174 24.4242 1.04255 23.7134C0.837036 23.2759 0.683756 22.8596 0.582726 22.4645C0.481696 22.0694 0.390786 21.614 0.310006 21.0982C0.245326 20.5604 0.161206 19.8985 0.0576332 19.1124C-0.0369618 18.3836 -0.0151107 17.7735 0.123186 17.2822C0.258486 16.7718 0.352376 16.4342 0.404846 16.2694C0.752096 15.8628 1.06633 15.745 1.34755 15.9162C1.64787 16.0845 1.89422 16.4079 2.08662 16.8866C2.29811 17.3622 2.43769 17.8785 2.50536 18.4354C2.88281 20.4702 3.24931 21.9979 3.60487 23.0185C3.97954 24.0361 4.33912 24.6451 4.68362 24.8455C4.9218 24.8669 5.11937 24.8164 5.27631 24.694C5.43026 24.5525 5.617 24.3079 5.83654 23.9605C6.07218 23.5909 6.39792 23.1093 6.81374 22.5158C7.26179 21.8781 7.70534 21.2118 8.14441 20.5168C8.58049 19.8027 8.9924 19.1218 9.38019 18.474C9.78699 17.8231 10.1485 17.2577 10.4647 16.7777C10.8 16.2946 11.0718 15.9683 11.28 15.7987C11.3385 15.6721 11.4572 15.5557 11.6363 15.4494C11.8123 15.3239 11.9833 15.2287 12.1492 15.1635C12.3312 15.0763 12.4222 15.0327 12.4222 15.0327C12.581 15.047 12.6864 15.1577 12.7384 15.3648C12.7875 15.5528 12.8938 15.7318 13.0574 15.9019C13.1076 15.9723 13.2115 16.0734 13.3691 16.2053C13.5268 16.3372 13.6035 16.4523 13.5994 16.5508C13.6083 16.6081 13.5433 16.7553 13.4043 16.9923C13.2624 17.2103 13.1108 17.4297 12.9497 17.6506C12.7887 17.8715 12.6678 18.0372 12.5873 18.1477C12.3719 18.3967 12.0387 18.8305 11.5877 19.4491C11.1527 20.0456 10.7062 20.6928 10.248 21.3908C9.78689 22.0697 9.40269 22.6778 9.09549 23.2151C8.40763 24.3209 7.78481 25.2795 7.227 26.0909C6.68829 26.8994 6.353 27.3824 6.22115 27.5401C6.20803 27.5813 6.08836 27.6293 5.86215 27.6844C5.63295 27.7203 5.48256 27.8221 5.41099 27.9899L4.18523 28.0351ZM4.08427 37.8844C4.00488 37.8772 3.82906 37.8167 3.55682 37.7028C3.30368 37.5859 3.07113 37.4756 2.85918 37.3718C2.70155 37.2399 2.59016 37.091 2.52503 36.9251C2.479 36.7562 2.47175 36.5225 2.50327 36.2241C2.53479 35.9256 2.57702 35.508 2.62993 34.9714C2.58022 34.5291 2.58239 33.9808 2.63646 33.3265C2.70963 32.6693 2.82791 32.1126 2.99129 31.6565C2.95837 31.4464 2.96125 31.1524 2.9999 30.7745C3.03855 30.3967 3.09481 30.0063 3.16868 29.6033C3.25865 29.1783 3.33849 28.8135 3.40822 28.5091L3.69055 26.9384L4.68399 25.7848L6.33539 26.5828C6.27694 26.7094 6.23103 26.8536 6.19766 27.0154C6.1643 27.1772 6.12829 27.447 6.08963 27.8248C6.05098 28.2027 5.99599 28.7886 5.92467 29.5825C5.85265 30.1222 5.76751 30.703 5.66926 31.3251C5.59011 31.9441 5.51452 32.5235 5.4425 33.0631C5.37048 33.6027 5.3026 34.0439 5.23886 34.3866C5.1443 35.282 5.04041 35.993 4.9272 36.5195C4.83308 37.043 4.71354 37.4042 4.56857 37.603C4.44568 37.818 4.28425 37.9118 4.08427 37.8844ZM12.2325 33.7607C12.1322 33.6199 11.9363 33.494 11.645 33.3831C11.3727 33.2692 11.2306 33.174 11.2187 33.0976C11.2067 33.0212 11.141 32.9141 11.0215 32.7762C10.9182 32.6163 10.8224 32.5041 10.734 32.4397C10.6205 32.34 10.6058 32.0586 10.6898 31.5954C10.7708 31.113 10.9132 30.5232 11.1171 29.8259C11.321 29.1286 11.552 28.4173 11.8102 27.6919C11.9391 27.5152 12.0605 27.2907 12.1744 27.0185C12.2883 26.7462 12.3775 26.5659 12.4419 26.4775C12.4299 26.4011 12.4481 26.3298 12.4964 26.2635C12.5418 26.1782 12.6026 26.1295 12.679 26.1175L12.8364 25.6232C12.8627 25.5408 12.9533 25.3701 13.1084 25.1109C13.2826 24.8488 13.492 24.5616 13.7367 24.2493C13.9783 23.9179 14.2229 23.6057 14.4705 23.3125C14.7372 23.0163 14.9571 22.7959 15.1301 22.6514C15.4894 22.3212 15.8806 22.1327 16.3038 22.086C16.7461 22.0363 17.1395 22.1116 17.484 22.3121C17.5503 22.3604 17.6924 22.4555 17.9103 22.5975C18.1473 22.7365 18.4065 22.8916 18.6877 23.0628C18.988 23.231 19.2471 23.3861 19.4651 23.5281L20.6732 24.3075L20.4106 25.8164C20.2819 26.6193 20.3198 27.2983 20.5242 27.8533C20.7285 28.4084 20.9878 28.8766 21.3019 29.2579C21.4303 29.453 21.5799 29.5959 21.7507 29.6866C21.9405 29.7743 22.1721 29.8163 22.4455 29.8126C22.6013 29.8077 22.7536 29.8426 22.9022 29.9172C23.0509 29.9917 23.1417 30.1341 23.1746 30.3442C23.2464 30.8026 23.2128 31.1503 23.0738 31.3873C22.9509 31.6023 22.797 31.7438 22.6119 31.8119C21.9936 31.9871 21.3815 32.0144 20.7755 31.8941C20.1696 31.7738 19.5686 31.3102 18.9726 30.5034C18.8782 30.4007 18.7403 30.2071 18.5587 29.9224C18.3932 29.6157 18.2935 29.416 18.2594 29.3235C18.198 29.431 18.1124 29.5716 18.0026 29.7454C17.9089 29.897 17.8138 30.0391 17.7171 30.1717C16.5764 31.7593 15.5519 32.8396 14.6436 33.4124C13.7514 33.9631 12.9477 34.0792 12.2325 33.7607ZM13.4358 31.1359C13.5725 31.134 13.7721 31.0343 14.0347 30.8366C14.2942 30.6198 14.6329 30.283 15.0505 29.8262C15.6132 29.1705 16.0762 28.6284 16.4396 28.1996C16.8029 27.7709 17.1403 27.2386 17.4516 26.6028L17.9204 25.4726C17.6605 25.0632 17.4438 24.8036 17.27 24.6939C17.0963 24.5841 16.933 24.5412 16.7802 24.5651C16.5319 24.604 16.2613 24.8127 15.9683 25.1913C15.6724 25.5508 15.3526 26.0705 15.0091 26.7505C14.6816 27.4085 14.3208 28.2282 13.9266 29.2097C13.7441 29.6688 13.6174 30.1094 13.5466 30.5314C13.4727 30.9344 13.4358 31.1359 13.4358 31.1359ZM34.145 30.2401C33.7188 30.2678 33.352 30.2372 33.0446 30.1483C32.7532 30.0374 32.4872 29.7758 32.2465 29.3634C32.1222 29.0698 32.0346 28.7606 31.9838 28.4359C31.949 28.0891 31.9268 27.7599 31.9171 27.4483C31.9045 27.1176 31.8802 26.8377 31.8443 26.6084C31.8383 26.5702 31.8263 26.4938 31.8084 26.3792C31.7904 26.2646 31.774 26.1596 31.759 26.0641C31.6759 25.7836 31.5726 25.6236 31.449 25.5843C31.3415 25.5228 31.1711 25.5593 30.9378 25.6937C30.5666 25.9475 30.1677 26.2742 29.741 26.6737C29.3305 27.0511 28.9003 27.4903 28.4504 27.9913C28.0166 28.4702 27.5682 28.9808 27.1052 29.523C26.7568 30.0472 26.5 30.469 26.3348 30.7884C26.1887 31.1049 26.0106 31.2795 25.8004 31.3125C25.6596 31.4128 25.4943 31.4191 25.3044 31.3314C25.1146 31.2438 24.9122 31.1385 24.6972 31.0156C24.5396 30.8837 24.3473 30.7182 24.1204 30.5189C23.9096 30.2975 23.7791 30.1516 23.7289 30.0812C23.6811 29.7756 23.6568 29.4956 23.6561 29.2414C23.6745 28.9841 23.7105 28.7143 23.7641 28.4319C23.8368 28.1465 23.9227 27.82 24.0216 27.4522C24.0771 27.3066 24.123 27.1624 24.1593 27.0197C24.2118 26.8549 24.2723 26.6791 24.3409 26.4923C24.3754 26.2129 24.4326 25.8908 24.5124 25.5261C24.6114 25.1583 24.7038 24.8112 24.7896 24.4846C24.9219 23.9551 25.017 23.4999 25.0747 23.1191C25.1325 22.7382 25.1666 22.3317 25.1772 21.8995C25.1521 21.8643 25.1527 21.8055 25.1789 21.7231C25.2052 21.6407 25.255 21.584 25.3284 21.5529L25.357 21.5484L25.3857 21.5439C25.5044 21.4275 25.7512 21.3791 26.1261 21.3986C26.5171 21.3961 26.8201 21.4562 27.035 21.5791C27.49 21.8601 27.7513 22.279 27.819 22.8359C27.8866 23.3929 27.7138 24.1635 27.3005 25.148C27.2147 25.4746 27.1163 25.7835 27.0054 26.0749C26.9106 26.3441 26.8707 26.5265 26.8856 26.622C26.8856 26.622 26.9531 26.5527 27.0879 26.4142C27.2228 26.2757 27.3833 26.1135 27.5694 25.9278C27.7526 25.723 27.9131 25.5609 28.051 25.4414C28.1315 25.331 28.3147 25.1262 28.6005 24.827C28.8833 24.5087 29.1933 24.1764 29.5304 23.8301C29.8676 23.4837 30.1388 23.2162 30.344 23.0275C30.5302 22.8418 30.7737 22.6471 31.0744 22.4434C31.3722 22.2206 31.5593 22.1033 31.6357 22.0913C31.8267 22.0614 32.0664 22.0923 32.3547 22.1841C32.6622 22.273 32.9455 22.3949 33.2046 22.55C33.4798 22.683 33.6485 22.823 33.7106 22.9698C33.7226 23.0462 33.7295 23.1527 33.7314 23.2894C33.7302 23.407 33.7371 23.5136 33.7521 23.6091C33.7809 23.9177 33.8296 24.2916 33.8985 24.7309C33.9834 25.1481 34.0603 25.5764 34.1291 26.0157C34.1949 26.4359 34.2165 26.8239 34.194 27.1797C34.194 27.1797 34.2065 27.1973 34.2316 27.2325C34.2537 27.2486 34.2788 27.2838 34.3069 27.3381C34.2908 27.3602 34.2872 27.3999 34.2962 27.4572C34.3213 27.4924 34.3338 27.51 34.3338 27.51C34.3929 27.6378 34.4521 27.7655 34.5112 27.8932C34.5895 28.0179 34.6803 28.1602 34.7836 28.3202C34.8839 28.461 35.0013 28.6481 35.1357 28.8815C35.1555 29.1328 35.0511 29.4035 34.8226 29.6937C34.6102 29.9618 34.3844 30.1439 34.145 30.2401ZM45.794 29.0905C45.5105 29.1545 45.2446 29.2059 44.9963 29.2448C44.7671 29.2807 44.5796 29.271 44.434 29.2155C44.0453 28.9828 43.7802 28.7895 43.6386 28.6356C43.5162 28.4787 43.4385 28.2951 43.4056 28.085C43.3828 27.8146 43.3505 27.5457 43.3086 27.2783C43.2637 26.9918 43.2293 26.7722 43.2054 26.6194C43.117 26.5549 42.9777 26.6648 42.7874 26.949C42.5971 27.2332 42.3671 27.5139 42.0974 27.7909C41.61 28.5522 41.161 29.1216 40.7505 29.499C40.3369 29.8573 39.9421 30.0855 39.5661 30.1835C39.1931 30.3006 38.8126 30.37 38.4246 30.3917C38.0748 30.4073 37.7423 30.2833 37.427 30.0196C37.1308 29.7529 36.8815 29.4103 36.6789 28.992C36.4955 28.5706 36.39 28.1468 36.3624 27.7206C36.3352 26.9226 36.3964 26.1889 36.546 25.5197C36.6926 24.8314 36.9588 24.095 37.3447 23.3105C37.526 22.969 37.7793 22.5868 38.1044 22.1641C38.4487 21.7384 38.8261 21.3368 39.2366 20.9594C39.6442 20.5628 40.0189 20.2693 40.3609 20.0788C40.8759 19.7437 41.3164 19.5573 41.6823 19.5195C42.0673 19.4788 42.4487 19.4777 42.8266 19.5164C43.1149 19.6082 43.3355 19.6422 43.4883 19.6182C43.6602 19.5913 43.7694 19.4763 43.8159 19.2734C43.9066 19.1026 43.9626 18.8981 43.984 18.66C44.0054 18.4218 44.0665 18.1872 44.1673 17.9561L44.5059 15.9951C44.6352 15.4465 44.7907 14.8155 44.9725 14.1021C45.1543 13.3887 45.3623 12.5929 45.5966 11.7147C45.9192 10.901 46.2303 10.4511 46.53 10.365C46.8487 10.276 47.2099 10.3955 47.6135 10.7237C47.8786 10.917 48.0476 11.184 48.1206 11.5248C48.2097 11.8436 48.1836 12.239 48.0423 12.7112C47.9415 12.9423 47.8401 13.2321 47.7382 13.5808C47.6332 13.9103 47.5086 14.3017 47.3644 14.7548C47.232 15.2843 47.0902 15.8153 46.9388 16.3478C46.8065 16.8774 46.6721 17.4561 46.5356 18.0841C46.5071 18.4017 46.4574 18.7715 46.3865 19.1936C46.3347 19.6126 46.2961 19.9905 46.2706 20.3272C46.2611 20.6418 46.2392 20.9387 46.2046 21.2181C46.1862 21.4754 46.1388 21.61 46.0624 21.622C45.9306 21.7796 45.8322 22.0886 45.7673 22.5488C45.6994 22.99 45.6551 23.4568 45.6344 23.9493C45.6328 24.4387 45.6273 24.8408 45.6179 25.1554C45.6156 25.3906 45.6378 25.7197 45.6845 26.1429C45.7283 26.547 45.78 26.9401 45.8399 27.3221C45.8967 27.685 45.9356 27.9333 45.9566 28.067C46.0134 28.4299 46.0252 28.6923 45.9918 28.8541C45.9745 28.9937 45.9086 29.0726 45.794 29.0905ZM38.9644 27.8414C39.4037 27.7726 39.786 27.5268 40.1111 27.1041C40.4524 26.6592 40.8289 26.1893 41.2406 25.6943C41.4822 25.3629 41.7289 25.0014 41.9806 24.6097C42.2294 24.1989 42.451 23.8022 42.6454 23.4195C42.859 23.0338 43.0227 22.7048 43.1366 22.4326C43.2505 22.1603 43.3015 21.986 43.2895 21.9096C43.2746 21.8141 43.1847 21.7401 43.0199 21.6876C42.8743 21.6322 42.7029 21.6003 42.5059 21.592C42.306 21.5646 42.1326 21.582 41.9857 21.6442C41.5483 21.8497 41.2072 22.1086 40.9626 22.4209C40.7371 22.7302 40.4114 23.2117 39.9854 23.8655C39.5684 24.5766 39.252 25.2426 39.0362 25.8635C38.8203 26.4844 38.7026 26.9822 38.6831 27.3571C38.6796 27.7099 38.7734 27.8713 38.9644 27.8414ZM52.0777 28.6639C51.0271 28.8285 50.1675 28.65 49.4987 28.1286C48.8491 27.6041 48.4255 26.7116 48.2281 25.451C48.1203 24.7634 48.1263 23.9894 48.246 23.1292C48.3847 22.266 48.6029 21.41 48.9004 20.561C49.217 19.7091 49.5883 18.9562 50.0143 18.3024C50.4372 17.6295 50.8886 17.1381 51.3684 16.8281C51.5445 16.7027 51.7346 16.6044 51.9387 16.5333C52.1589 16.4401 52.3741 16.377 52.5842 16.3441C52.8134 16.3082 53.0647 16.2884 53.3381 16.2847C53.6276 16.259 53.9039 16.2744 54.1672 16.331C54.6275 16.3959 55.0499 16.5939 55.4344 16.925C55.8381 17.2532 56.0967 17.7802 56.2104 18.506C56.2403 18.697 56.2542 18.9101 56.2519 19.1453C56.2466 19.3613 56.2126 19.5819 56.15 19.807C56.0005 20.4762 55.7127 21.1377 55.2868 21.7915C54.8799 22.4423 54.4175 22.9257 53.8995 23.2417C53.7586 23.342 53.6148 23.4232 53.468 23.4854C53.3373 23.5254 53.1955 23.5574 53.0427 23.5813C52.6416 23.6442 52.2697 23.6437 51.9271 23.58C51.6035 23.5133 51.2931 23.4053 50.9957 23.2562L50.7351 23.0916L50.6367 23.4005C50.5599 23.7844 50.5123 24.1049 50.4939 24.3622C50.4945 24.6165 50.5039 24.8009 50.5218 24.9155C50.5577 25.1448 50.6047 25.382 50.6627 25.6273C50.7177 25.8535 50.8049 26.0356 50.9243 26.1734C51.0157 26.2569 51.1232 26.3184 51.2467 26.3577C51.3894 26.3941 51.5563 26.3973 51.7473 26.3674C51.8619 26.3494 51.9669 26.333 52.0624 26.318C52.174 26.281 52.2666 26.2469 52.34 26.2158C52.6718 26.0856 52.9293 25.918 53.1125 25.7132C53.3118 25.4863 53.5251 25.2866 53.7525 25.114L53.8581 25.0387L53.816 24.9573C54.1137 24.7345 54.3169 24.595 54.4256 24.5389C54.5312 24.4636 54.6097 24.4024 54.661 24.3552C54.7254 24.2669 54.8054 24.2152 54.9009 24.2002C55.1623 24.1201 55.4321 24.1562 55.7104 24.3083C56.0047 24.4383 56.1728 24.637 56.2147 24.9044C56.2326 25.019 56.1751 25.2139 56.0421 25.4892C55.9282 25.7614 55.7665 26.0411 55.5571 26.3283C55.3638 26.5934 55.1535 26.8123 54.9261 26.9849C54.8718 27.013 54.819 27.0506 54.7677 27.0978C54.7134 27.1258 54.6606 27.1635 54.6093 27.2106L54.6379 27.2061C54.5019 27.4623 54.348 27.6038 54.176 27.6307L53.9468 27.6666C53.8914 27.8123 53.6655 27.9945 53.2692 28.2131C52.876 28.4508 52.4788 28.6011 52.0777 28.6639ZM52.4859 21.5258C52.6578 21.4988 52.8061 21.4462 52.9308 21.368C53.0747 21.2868 53.2074 21.1975 53.3292 21.1001C53.7367 20.7036 53.967 20.237 54.0199 19.7004C54.0728 19.1637 53.9637 18.7796 53.6926 18.5481C53.6454 18.4968 53.5917 18.4661 53.5314 18.456C53.4681 18.4267 53.3983 18.4181 53.3219 18.4301C53.1118 18.463 52.8835 18.5672 52.637 18.7428C52.4097 18.9154 52.1913 19.1453 51.9819 19.4325C51.7725 19.7197 51.5896 20.0517 51.4334 20.4284L51.1552 21.0884C51.1904 21.0633 51.2175 21.0493 51.2366 21.0463C51.2718 21.0212 51.299 21.0072 51.3181 21.0042C51.49 20.9773 51.6136 21.0166 51.6888 21.1222C51.7641 21.2279 51.8489 21.332 51.9432 21.4346C52.0567 21.5343 52.2376 21.5647 52.4859 21.5258ZM58.3703 27.2379C58.1793 27.2678 57.9844 27.2103 57.7856 27.0653C57.5867 26.9203 57.4121 26.7422 57.2616 26.531C57.1302 26.3167 57.0444 26.1443 57.0044 26.0135C56.9894 25.918 57.1063 25.6649 57.3551 25.2541C57.623 24.8404 57.9472 24.3493 58.3278 23.7808C58.7275 23.2094 59.1111 22.6601 59.4786 22.1329L60.2249 20.9005L59.5072 19.692C59.3669 19.4205 59.2029 19.1233 59.0153 18.8004C58.8439 18.4555 58.688 18.1472 58.5476 17.8757C58.4233 17.582 58.3537 17.3875 58.3387 17.292C58.2294 17.0938 58.2001 16.844 58.2507 16.5426C58.2983 16.222 58.3448 16.019 58.3901 15.9337C58.3471 15.7838 58.4724 15.6468 58.766 15.5225C59.0788 15.3953 59.322 15.3865 59.4958 15.4963C59.6546 15.5105 59.8298 15.6299 60.0215 15.8542C60.2323 16.0756 60.4285 16.3286 60.6101 16.6133C60.8107 16.895 60.9592 17.1555 61.0554 17.3948C61.0644 17.4521 61.1169 17.6004 61.2131 17.8397C61.3254 18.057 61.4363 18.2647 61.5456 18.4628L61.8224 18.9184L62.209 18.3882C62.3188 18.2145 62.4396 18.0488 62.5715 17.8911C62.7224 17.7305 62.7919 17.612 62.7799 17.5356C62.8563 17.5236 62.9751 17.4072 63.1362 17.1863C63.2943 16.9462 63.4861 16.6716 63.7116 16.3623C63.9311 16.0148 64.1752 15.7613 64.4437 15.6018C64.7314 15.4393 64.9134 15.3521 64.9898 15.3401C65.3879 15.2582 65.7064 15.3551 65.9453 15.6308C66.1812 15.8874 66.3311 16.1574 66.3951 16.4409C66.416 16.5746 66.2941 16.8579 66.0292 17.2908C65.7804 17.7016 65.3512 18.2091 64.7413 18.8134C64.369 19.1849 64.0847 19.4936 63.8884 19.7396C63.6921 19.9856 63.3932 20.326 62.9916 20.7607C63.3959 21.3431 63.7235 21.8104 63.9744 22.1625C64.2252 22.5146 64.5967 22.8869 65.0887 23.2795C65.3287 23.4376 65.5667 23.6449 65.8025 23.9015C66.0384 24.1581 66.1564 24.2864 66.1564 24.2864C66.2298 24.2553 66.3137 24.2911 66.408 24.3937C66.5185 24.4743 66.5761 24.5925 66.581 24.7483C66.7213 25.0198 66.7351 25.2329 66.6224 25.3875C66.5287 25.5392 66.4004 25.6571 66.2375 25.7414C66.0937 25.8226 66.0072 25.8949 65.9779 25.9581C65.8472 25.9982 65.7201 25.9985 65.5965 25.9592C65.489 25.8978 65.4096 25.8906 65.3583 25.9378C65.2879 25.988 65.0643 25.9349 64.6876 25.7787C64.327 25.6003 63.967 25.3632 63.6075 25.0673C63.4529 24.9545 63.248 24.7713 62.9931 24.5177C62.7542 24.242 62.5434 24.0207 62.3607 23.8536C62.194 23.6644 62.0415 23.5024 61.9029 23.3676C61.7644 23.2327 61.67 23.1301 61.6199 23.0597C61.5554 23.148 61.4507 23.2916 61.3058 23.4905C61.1799 23.6863 60.9186 24.0795 60.5218 24.67C59.8906 25.5125 59.4124 26.1451 59.0873 26.5679C58.7621 26.9906 58.5231 27.214 58.3703 27.2379ZM87.256 24.445C87.0107 24.503 86.7725 24.4816 86.5414 24.3808C86.3325 24.2961 86.1748 24.1642 86.0685 23.9852C85.9772 23.9017 85.8201 23.711 85.5973 23.4132C85.3775 23.1346 85.2306 22.8836 85.1565 22.6604C85.0035 22.0581 84.8725 21.472 84.7636 20.902C84.6739 20.329 84.5769 19.5223 84.4726 18.4819C84.3983 17.6325 84.3962 16.8696 84.4663 16.1933C84.5335 15.4978 84.6172 14.9074 84.7173 14.4221C84.8144 13.9177 84.8927 13.5434 84.9523 13.2992C85.0089 13.0359 85.0086 12.9088 84.9513 12.9178C84.8749 12.9297 84.8009 13.0196 84.7293 13.1874C84.6739 13.333 84.6068 13.5294 84.5281 13.7766C84.4685 14.0208 84.3928 14.287 84.301 14.5754C84.2283 14.8607 84.1445 15.138 84.0497 15.4073C83.875 16.0413 83.6586 16.721 83.4004 17.4463C83.1583 18.1496 82.9037 18.8353 82.6366 19.5033C82.3694 20.1714 82.138 20.7556 81.9424 21.2559C81.8004 21.4738 81.6433 21.7822 81.4709 22.181C81.2956 22.5607 81.1041 22.9625 80.8965 23.3864C80.689 23.8103 80.4614 24.1688 80.2138 24.462C79.8564 24.9289 79.464 25.235 79.0367 25.3802C78.6123 25.5446 78.1942 25.5611 77.7823 25.43C77.5883 25.4408 77.3713 25.3672 77.1312 25.2091C76.8942 25.0701 76.6879 24.8773 76.5123 24.6309C76.3558 24.3814 76.2883 24.1376 76.3097 23.8994C76.2487 23.635 76.1844 23.2244 76.1167 22.6674C76.0651 22.0885 76.0252 21.4587 75.9969 20.7782C75.9656 20.0786 75.9387 19.4077 75.9164 18.7654C75.9132 18.1202 75.9168 17.5814 75.9274 17.1493C75.9078 15.8999 75.9411 14.6129 76.0271 13.2883C76.1322 11.9607 76.2072 10.6281 76.2521 9.29031C76.3451 8.88441 76.4114 8.43371 76.4512 7.93821C76.5072 7.42071 76.5691 6.94131 76.6369 6.50017C76.5902 6.07697 76.7026 5.79518 76.9742 5.6548C77.2427 5.49531 77.5453 5.42834 77.882 5.45388C78.2378 5.47642 78.4975 5.57273 78.6611 5.74279C78.882 5.90387 79.1099 6.1715 79.3446 6.54568C79.5793 6.91991 79.6109 7.43351 79.4392 8.08661C79.2038 9.08241 79.0109 10.2867 78.8604 11.6997C78.726 13.0906 78.6652 14.7635 78.6779 16.7184C78.6733 17.1888 78.6681 17.718 78.6624 18.3059C78.6727 18.8718 78.6801 19.4186 78.6845 19.9463C78.708 20.471 78.7275 20.9082 78.7432 21.258C78.775 21.5857 78.8114 21.7561 78.8526 21.7692C79.0114 21.7835 79.1603 21.6721 79.2993 21.4351C79.4574 21.195 79.6056 20.8294 79.7439 20.338C80.3235 18.9165 80.857 17.5121 81.3441 16.1246C81.8504 14.7342 82.3476 13.2865 82.8359 11.7814C83.0739 11.1767 83.3043 10.5241 83.5273 9.82391C83.7664 9.10151 83.9954 8.43941 84.2142 7.83761C84.4491 7.21381 84.6775 6.61048 84.8994 6.0278C85.1212 5.44512 85.3183 4.95437 85.4907 4.55556C85.66 4.13764 85.799 3.90061 85.9076 3.84446C86.4233 3.76367 86.8263 3.83754 87.1165 4.06605C87.4258 4.29157 87.6867 4.58336 87.8994 4.94143C87.9526 5.03095 87.9971 5.19031 88.033 5.41952C88.088 5.64573 88.0908 5.85077 88.0413 6.03464C88.0431 6.17134 88.0006 6.46176 87.9136 6.90591C87.8457 7.34701 87.7949 7.83451 87.761 8.36811C87.6508 8.91371 87.5597 9.45641 87.4877 9.99601C87.4318 10.5136 87.4006 10.9392 87.3941 11.2729C87.37 12.1181 87.3196 13.0458 87.243 14.0558C87.1664 15.0658 87.1184 16.0714 87.0991 17.0724C87.0959 18.0514 87.1431 18.9148 87.2407 19.6627C87.3054 20.2005 87.3607 20.5539 87.4067 20.7228C87.4689 20.8696 87.5516 21.023 87.6549 21.1829C87.7171 21.3297 87.809 21.3545 87.9308 21.2571C88.0525 21.1598 88.1653 21.0051 88.269 20.7932C88.4736 20.3502 88.6203 19.975 88.7091 19.6675C88.8171 19.3571 88.922 19.0275 89.0239 18.6789C89.1229 18.3112 89.2657 17.8485 89.4523 17.2909C89.7922 16.3375 90.1281 15.2966 90.4602 14.1683C90.8113 13.037 91.1353 11.9197 91.4322 10.8165C91.7481 9.71031 92.0151 8.72911 92.2333 7.87301C92.4346 6.78477 92.6101 5.90603 92.7597 5.23683C92.9062 4.54852 93.0576 4.016 93.2139 3.63928C93.3701 3.26256 93.5348 3.00194 93.7078 2.85742C93.7914 2.76606 93.986 2.69644 94.2916 2.64857C94.6163 2.59771 94.8765 2.63521 95.0724 2.76109C95.1608 2.82552 95.3139 2.92873 95.5318 3.07071C95.7498 3.2127 95.8671 3.39979 95.8839 3.63198C95.8363 3.95255 95.7326 4.47758 95.573 5.20709C95.4324 5.9336 95.256 6.74399 95.0438 7.63831C94.8478 8.51041 94.6472 9.35401 94.4422 10.1688C94.2533 10.9616 94.0882 11.5941 93.9469 12.0664C93.7996 12.5004 93.6529 12.8756 93.5068 13.192C93.3607 13.5085 93.2996 13.7431 93.3235 13.8959C93.3355 13.9723 93.2774 14.226 93.1492 14.657C93.018 15.0689 92.843 15.5758 92.6242 16.1776C92.4245 16.7764 92.1991 17.3988 91.948 18.0447C91.697 18.6907 91.4575 19.2859 91.2297 19.8304C91.0019 20.3749 90.8039 20.7973 90.6357 21.0976C90.2509 21.7645 89.813 22.3419 89.3219 22.8298C88.8529 23.3338 88.4248 23.7237 88.0375 23.9997C87.6502 24.2756 87.3897 24.424 87.256 24.445ZM96.7922 20.1626C96.7158 20.1745 96.5445 20.1427 96.2782 20.067C96.0119 19.9913 95.8788 19.9534 95.8788 19.9534C95.8669 19.877 95.8232 19.786 95.748 19.6804C95.6918 19.5717 95.6578 19.4792 95.6458 19.4028C95.5001 19.3474 95.347 19.2442 95.1864 19.0932C95.0257 18.9422 94.9672 18.7557 95.0106 18.5337C95.0923 18.3056 95.1958 17.9665 95.3209 17.5164C95.4622 17.0442 95.6056 16.5227 95.751 15.952C95.9126 15.3592 96.058 14.7884 96.1873 14.2398C96.3166 13.6912 96.4293 13.2235 96.5252 12.8366C96.6182 12.4307 96.6682 12.188 96.6754 12.1086C96.6634 12.0322 96.652 11.897 96.6412 11.703C96.6495 11.506 96.7482 11.3242 96.9374 11.1576C97.1587 10.9468 97.4151 10.8969 97.7064 11.0078C97.9978 11.1187 98.2689 11.3502 98.5197 11.7023C98.7676 12.0353 98.9304 12.4501 99.0082 12.9467C99.0291 13.0804 98.9875 13.4392 98.8832 14.023C98.776 14.5877 98.6184 15.268 98.4104 16.0638C98.2214 16.8565 97.9958 17.6649 97.7335 18.4887C97.5338 19.0875 97.3754 19.5135 97.2585 19.7666C97.1577 19.9977 97.0023 20.1297 96.7922 20.1626ZM98.9698 8.57901C98.7406 8.61491 98.4472 8.55321 98.0895 8.39401C97.751 8.23181 97.4322 8.00781 97.133 7.72191C96.8338 7.43611 96.6558 7.11181 96.599 6.74887C96.584 6.65337 96.643 6.46801 96.7761 6.19277C96.9061 5.89844 97.028 5.61515 97.1419 5.34291C97.2749 5.06768 97.3385 4.91096 97.3325 4.87276C97.4853 4.84882 97.6712 4.84905 97.8903 4.87344C98.1094 4.89783 98.2918 4.93775 98.4374 4.99321C98.7223 5.43781 99.0636 5.80508 99.4617 6.09503C99.8557 6.36588 100.087 6.71141 100.152 7.13161C100.218 7.55181 100.162 7.88341 99.9847 8.12651C99.8047 8.35041 99.4667 8.50121 98.9698 8.57901ZM102.492 20.3265C102.33 20.2931 102.106 20.1718 101.818 19.9623C101.528 19.7338 101.264 19.4817 101.025 19.2061C100.783 18.9113 100.646 18.6588 100.613 18.4487C100.675 18.2237 100.741 17.8317 100.81 17.273C100.898 16.7113 100.995 16.0797 101.1 15.3782C101.22 15.1442 101.297 14.8875 101.332 14.6081C101.383 14.3067 101.428 14.0353 101.469 13.7942C101.568 13.4264 101.678 13.0079 101.8 12.5387C101.923 12.0695 102.034 11.5922 102.134 11.1069C102.253 10.6185 102.362 10.1905 102.461 9.82271C102.639 9.20781 102.781 8.67681 102.887 8.22971C103.009 7.76051 103.123 7.30231 103.229 6.85511C103.354 6.40503 103.481 5.90565 103.611 5.35703C103.804 4.72003 103.971 4.09708 104.111 3.48816C104.266 2.85715 104.394 2.29898 104.494 1.81364C104.613 1.32531 104.677 0.98265 104.685 0.78567C104.642 0.63585 104.645 0.52781 104.693 0.46153C104.738 0.37616 104.807 0.31644 104.9 0.28238C104.986 0.21012 105.133 0.14798 105.34 0.0959702C105.547 0.0439502 105.689 0.01196 105.766 0C106.001 0.00229 106.26 0.15739 106.543 0.4653C106.842 0.75111 107.01 1.00862 107.046 1.23782C107.094 1.54343 107.03 2.14037 106.857 3.02867C106.699 3.89486 106.431 4.93481 106.054 6.1485C105.61 7.68571 105.277 8.87291 105.056 9.70981C104.854 10.5438 104.721 11.1321 104.657 11.4748C104.593 11.8174 104.579 12.035 104.613 12.1275C104.613 12.1275 104.685 12.0869 104.828 12.0057C104.972 11.9244 105.18 11.7548 105.453 11.4969C105.642 11.3302 105.854 11.1209 106.089 10.869C106.323 10.617 106.551 10.3856 106.772 10.1748C107.013 9.96101 107.207 9.82301 107.353 9.76091C107.437 9.66951 107.556 9.55311 107.71 9.41151C107.864 9.27001 108.009 9.13951 108.147 9.02011C108.468 8.69581 108.741 8.56501 108.966 8.62761C109.191 8.69021 109.408 8.82261 109.616 9.02491C109.865 9.24031 109.983 9.49571 109.971 9.79121C109.974 10.0646 109.734 10.4643 109.248 10.9904C108.876 11.3618 108.474 11.7282 108.041 12.0895C107.605 12.4317 107.203 12.7393 106.835 13.0122C106.486 13.2822 106.236 13.4974 106.085 13.6581C106.085 13.6581 106.191 13.7688 106.401 13.9901C106.612 14.2115 106.812 14.4248 107.001 14.6301C107.201 14.9118 107.454 15.2734 107.758 15.715C108.059 16.1375 108.281 16.4353 108.426 16.6084C108.684 16.8811 108.925 17.0487 109.151 17.1113C109.395 17.1709 109.724 17.0899 110.14 16.8683C110.414 16.747 110.655 16.7191 110.861 16.7847C111.083 16.8282 111.276 16.935 111.439 17.105C111.539 17.2459 111.602 17.3927 111.626 17.5455C111.65 17.6983 111.554 17.8992 111.338 18.1482C110.86 18.5949 110.383 18.9828 109.906 19.3119C109.451 19.6571 108.971 19.7128 108.465 19.479C108.016 19.2362 107.58 18.9522 107.157 18.6271C106.75 18.2798 106.283 17.8541 105.754 17.3499C105.742 17.2735 105.659 17.1201 105.505 16.8898C105.352 16.6594 105.253 16.5281 105.209 16.4959C105.108 16.3551 105.002 16.2348 104.888 16.1352C104.791 16.0134 104.742 15.9526 104.742 15.9526C104.652 15.7514 104.549 15.5915 104.432 15.4728C104.335 15.351 104.218 15.2911 104.081 15.2929C104.014 15.3622 103.943 15.4712 103.868 15.6198C103.794 15.7685 103.723 15.9458 103.658 16.1518C103.588 16.4562 103.518 16.7607 103.449 17.0651C103.376 17.3505 103.327 17.6615 103.301 17.9982C103.273 18.3158 103.283 18.6957 103.333 19.138C103.385 19.3451 103.335 19.5878 103.183 19.866C103.028 20.1251 102.798 20.2786 102.492 20.3265ZM112.682 18.1433C112.505 18.0144 112.354 17.8031 112.23 17.5095C112.125 17.2129 112.06 16.9198 112.034 16.6303C112.005 16.3217 112.017 16.085 112.069 15.9203C112.045 15.7674 112.046 15.6499 112.073 15.5675C112.115 15.463 112.121 15.374 112.09 15.3006C112.059 15.2272 112.057 15.0905 112.084 14.8906C112.111 14.6906 112.14 14.5001 112.171 14.3193C112.257 13.9927 112.348 13.5772 112.445 13.0728C112.539 12.5492 112.633 12.0257 112.727 11.5022C112.819 10.9595 112.893 10.4978 112.951 10.1169C113.006 9.71701 113.036 9.47731 113.044 9.39791C113.008 9.16871 113.141 9.02061 113.444 8.95361C113.661 8.84131 113.953 8.89341 114.319 9.11001C114.686 9.32651 114.989 9.57261 115.228 9.84831C115.404 9.97721 115.493 10.1688 115.494 10.423C115.494 10.6773 115.426 11.0501 115.287 11.5415C115.235 11.7062 115.18 11.9791 115.122 12.3599C115.08 12.7187 115.058 13.0157 115.056 13.2508C115.004 13.4156 114.943 13.6502 114.873 13.9547C114.819 14.2371 114.774 14.5084 114.736 14.7687C114.713 14.8701 114.703 15.0576 114.707 15.331C114.708 15.5853 114.7 15.8506 114.685 16.127C114.669 16.4034 114.626 16.6254 114.554 16.7932C114.505 17.6032 114.271 18.1095 113.853 18.312C113.454 18.5116 113.063 18.4553 112.682 18.1433ZM113.976 6.16967C113.742 6.04978 113.551 5.89375 113.404 5.7016C113.273 5.48736 113.184 5.29578 113.138 5.12687C113.111 4.95496 113.113 4.84692 113.146 4.80273C113.304 4.56271 113.423 4.26032 113.503 3.89557C113.602 3.52783 113.715 3.18724 113.842 2.8738C113.871 2.81052 113.907 2.72664 113.949 2.62216C114.007 2.49559 114.073 2.41677 114.147 2.3857C114.352 2.19699 114.669 2.15718 115.097 2.26625C115.544 2.37233 115.887 2.56321 116.126 2.8389C116.354 3.17488 116.461 3.53985 116.444 3.93383C116.447 4.32481 116.309 4.75734 116.031 5.2314C115.804 5.65829 115.48 5.96345 115.059 6.14686C114.634 6.31118 114.274 6.31878 113.976 6.16967Z" fill="#5E8BDC"></path></svg> 