<?xml version="1.0" encoding="UTF-8"?> <svg xmlns="http://www.w3.org/2000/svg" width="112" height="41" viewBox="0 0 112 41" fill="none"><path d="M3.49356 40.4547C3.25274 40.5292 2.89839 40.5402 2.43052 40.4878C1.98151 40.4311 1.6529 40.3372 1.44471 40.206C1.26994 40.0474 1.08448 39.8417 0.88832 39.5888C0.70674 39.3129 0.54829 39.0514 0.41297 38.8046C0.27337 38.5389 0.20016 38.3474 0.19334 38.23L0 35.8056C0.0095 35.5854 0.00956005 35.3673 0.000210047 35.1514C0.00970005 34.9311 0.02133 34.7203 0.03511 34.5189C0.0077 34.4855 0.00690006 34.3073 0.0327001 33.9842C0.0542301 33.6423 0.0787701 33.27 0.10632 32.8672C0.14844 32.4413 0.19184 32.0647 0.2365 31.7374C0.27688 31.3912 0.29493 31.2087 0.29066 31.1898C0.29333 30.8522 0.32857 30.527 0.39636 30.2142C0.45988 29.8826 0.51825 29.572 0.57147 29.2824C0.62816 28.8334 0.68185 28.4148 0.73253 28.0266C0.80207 27.6341 0.86345 27.2931 0.91667 27.0035C0.96989 26.7138 1.00766 26.4872 1.02999 26.3235C1.07118 26.1556 1.09391 26.081 1.09819 26.0999L1.86039 22.1205C1.67533 22.0039 1.48385 21.859 1.28595 21.6859C1.08805 21.5127 0.95487 21.2753 0.88641 20.9736C0.82049 20.7705 0.82911 20.5901 0.91229 20.4325C1.01431 20.2706 1.13218 20.1348 1.2659 20.0251C1.52557 19.9464 1.7664 19.8719 1.98836 19.8017C2.22919 19.7272 2.50471 19.6746 2.81493 19.6439C2.92377 19.5993 3.03476 19.5642 3.14788 19.5386C3.27986 19.5086 3.40027 19.4714 3.50911 19.4268C3.60766 19.4243 3.71564 19.4196 3.83304 19.4128C3.94616 19.3871 4.08115 19.3268 4.238 19.2317C4.41798 19.1512 4.65666 19.0673 4.95404 18.98C5.27028 18.8884 5.58652 18.7968 5.90276 18.7052C6.21472 18.5947 6.49322 18.5117 6.73832 18.4561C6.99802 18.3773 7.16552 18.3294 7.24102 18.3123C7.46292 18.2421 7.68492 18.1719 7.90692 18.1017C8.12882 18.0315 8.35082 17.9613 8.57282 17.8911C8.81362 17.8166 9.04502 17.7443 9.26702 17.6741C9.48892 17.6039 9.71092 17.5337 9.93292 17.4635C10.4874 17.1988 10.8867 17.1677 11.1309 17.37C11.3896 17.5492 11.5969 17.7202 11.7529 17.8831C11.812 17.9688 11.9122 18.1046 12.0535 18.2906C12.2094 18.4535 12.3088 18.6292 12.3516 18.8177C12.4089 18.9831 12.3026 19.1262 12.0327 19.247C12.0249 19.3875 11.9165 19.5211 11.7073 19.6479C11.5128 19.7515 11.2518 19.781 10.9245 19.7364C10.8825 19.7261 10.6207 19.7954 10.139 19.9443C9.67202 20.0702 9.09612 20.2405 8.41132 20.4554C7.72652 20.6703 7.04392 20.8946 6.36342 21.1283C5.69756 21.3389 5.13535 21.526 4.67684 21.6895C4.65023 21.8343 4.61419 21.9813 4.56873 22.1304C4.54212 22.2752 4.51551 22.42 4.4889 22.5648C4.4211 22.8776 4.35331 23.1903 4.28551 23.5031C4.23229 23.7927 4.17178 24.0939 4.10399 24.4067C4.03619 24.7194 3.9684 25.0322 3.9006 25.345C3.84738 25.6346 3.79416 25.9242 3.74094 26.2138C3.70577 26.3209 3.67274 26.4375 3.64186 26.5634C3.61097 26.6894 3.57794 26.8059 3.54277 26.913C3.70818 26.8557 3.86416 26.8004 4.01071 26.7474C4.17612 26.69 4.34152 26.6326 4.50693 26.5753C4.76232 26.4777 5.06827 26.4281 5.42475 26.4264C5.77696 26.406 6.13562 26.4138 6.50062 26.4499C6.86142 26.4672 7.19812 26.5097 7.51092 26.5775C7.81942 26.6264 8.05972 26.6809 8.23202 26.741C8.72552 26.9065 9.17622 27.1016 9.58402 27.3262C10.0064 27.5278 10.3915 27.8269 10.7393 28.2238C10.9946 28.5624 11.249 28.9408 11.5025 29.3591C11.7517 29.7585 11.9153 30.217 11.9931 30.7346C12.0102 30.81 12.0268 31.0144 12.043 31.3477C12.0738 31.658 12.0805 31.9935 12.0633 32.3542C12.0606 32.6919 12.0241 32.9678 11.9538 33.182C11.8422 33.5641 11.693 33.9549 11.5061 34.3541C11.338 34.7491 11.1489 35.139 10.9388 35.5237C10.6936 36.0155 10.3863 36.452 10.0168 36.8332C9.64312 37.1956 9.27022 37.5181 8.89822 37.8008C8.56392 38.0749 8.30382 38.2826 8.11782 38.4239C7.93182 38.5653 7.76032 38.6835 7.60352 38.7786C7.46122 38.8505 7.25512 38.9468 6.98512 39.0676C6.87632 39.1121 6.76962 39.1661 6.66502 39.2294C6.57502 39.2697 6.47562 39.3121 6.36682 39.3566C6.25792 39.4011 6.15122 39.4551 6.04662 39.5185C5.78351 39.7566 5.50324 39.9193 5.20586 40.0067C4.91275 40.1128 4.63422 40.1959 4.37027 40.2558C4.21944 40.29 4.06647 40.3148 3.91136 40.3302C3.77938 40.3601 3.64011 40.4016 3.49356 40.4547ZM2.63693 38.1215C2.93431 38.0341 3.22655 37.9678 3.51363 37.9225C3.79644 37.8583 4.06126 37.7586 4.3081 37.6232C5.1909 37.1453 5.98671 36.6773 6.69552 36.219C7.42322 35.7565 8.01902 35.1059 8.48282 34.2671C8.81552 33.6365 9.04582 33.0787 9.17362 32.5937C9.30142 32.1087 9.35562 31.5611 9.33612 30.951C9.34562 30.7308 9.29642 30.5139 9.18852 30.3005C9.08062 30.0871 8.94612 29.8004 8.78512 29.4405C8.61212 29.2022 8.46992 29.056 8.35852 29.002C8.24282 28.9291 8.11472 28.8888 7.97422 28.8811C7.83372 28.8733 7.64692 28.8364 7.41382 28.7704C7.19102 28.6623 6.89202 28.6112 6.51662 28.6171C6.14132 28.623 5.78911 28.6435 5.46004 28.6785C5.2818 28.6793 5.09627 28.6917 4.90345 28.7156C4.72949 28.7352 4.55552 28.7549 4.38156 28.7746C4.20332 28.7754 4.01779 28.7877 3.82497 28.8117C3.64673 28.8125 3.47062 28.8227 3.29666 28.8423C3.29492 28.922 3.255 29.1393 3.17691 29.494C3.11767 29.8445 3.05028 30.2464 2.97473 30.6996C2.91375 31.1298 2.86307 31.518 2.82269 31.8642C2.75823 32.4537 2.70535 33.0506 2.66403 33.6547C2.61843 34.24 2.59168 34.821 2.58379 35.3977C2.59141 35.6933 2.59602 36.0194 2.59762 36.3759C2.6138 36.7092 2.61841 37.0353 2.61146 37.3541C2.61908 37.6497 2.62757 37.9055 2.63693 38.1215ZM21.7349 35.7499C21.5036 35.6042 21.295 35.3839 21.1091 35.089C20.919 34.7753 20.7182 34.4145 20.5066 34.0065C20.4347 33.8643 20.3773 33.6989 20.3345 33.5103C20.3106 33.3175 20.2764 33.1667 20.2318 33.0578C20.2052 33.2026 20.1495 33.3937 20.0646 33.6311C19.9985 33.8641 19.9196 34.0406 19.8279 34.1606C19.7696 34.2531 19.6341 34.4424 19.4215 34.7286C19.2046 34.9959 18.9792 35.2255 18.7452 35.4174C18.2129 35.9545 17.6995 36.2693 17.205 36.3617C16.7251 36.4309 16.2547 36.2799 15.7937 35.9087C15.4365 35.7321 15.1208 35.4766 14.8466 35.1424C14.5725 34.8081 14.4321 34.3641 14.4254 33.8105C14.3134 33.1421 14.2622 32.4797 14.2718 31.8233C14.2772 31.148 14.3957 30.229 14.6274 29.0662C14.848 28.2033 15.0127 27.5315 15.1217 27.0508C15.2307 26.5701 15.3049 26.2856 15.3443 26.1974C15.6057 26.0389 15.9567 25.9692 16.3971 25.9882C16.8333 25.9883 17.1002 26.1161 17.1978 26.3715C17.3537 26.5344 17.435 26.8926 17.4417 27.4462C17.4441 27.9809 17.3505 28.6167 17.1609 29.3536C17.0424 30.0546 16.9291 30.7345 16.8209 31.3935C16.7316 32.0481 16.7057 32.5893 16.7433 33.0169C16.7997 33.4402 16.9706 33.6691 17.2559 33.7035C17.447 33.7592 17.69 33.6942 17.9848 33.5083C18.2985 33.3182 18.6174 32.8889 18.9416 32.2206C19.2657 31.5523 19.5432 30.5476 19.7742 29.2066C19.8394 28.7953 19.8777 28.4397 19.8889 28.1398C19.8958 27.821 19.8681 27.4803 19.8057 27.1178C19.7166 26.9002 19.7197 26.6516 19.8149 26.3723C19.9289 26.0887 20.0841 25.8552 20.2804 25.6719C20.3344 25.5605 20.4189 25.4522 20.5337 25.3468C20.6443 25.2226 20.7292 25.2033 20.7883 25.289L21.2344 25.1581C21.3055 25.1221 21.4074 25.1782 21.5402 25.3265C21.673 25.4748 21.7951 25.576 21.9065 25.63C22.1524 25.7526 22.3301 26.0989 22.4396 26.6688C22.5491 27.2387 22.5026 28.0819 22.3 29.1984C22.1172 30.0527 22.0047 30.6928 21.9626 31.1187C21.9393 31.5403 21.9611 31.9418 22.0278 32.3231C22.1048 32.6625 22.1994 32.9483 22.3116 33.1806C22.4195 33.394 22.6427 33.5912 22.9811 33.7721C23.2184 33.857 23.3829 34.0576 23.4745 34.3738C23.5807 34.6669 23.65 34.9287 23.6825 35.1592C23.6833 35.3375 23.5581 35.4848 23.307 35.6013C23.079 35.7323 22.8099 35.8132 22.4997 35.844C22.2083 35.8705 21.9534 35.8391 21.7349 35.7499ZM26.6581 33.7108C26.2657 33.6412 25.9221 33.4813 25.6274 33.231C25.3472 32.9575 25.1558 32.5946 25.0531 32.1421C25.0103 31.9535 24.9753 31.6245 24.948 31.1549C24.9208 30.6853 24.9089 30.1527 24.9125 29.5571C24.9162 28.9615 24.9283 28.4037 24.9491 27.8835C25.0606 27.5014 25.1061 27.1342 25.0857 26.782C25.0841 26.4255 25.0747 26.2095 25.0576 26.1341C25.0439 25.8993 25.0415 25.5827 25.0502 25.1842C25.0589 24.7857 25.0761 24.425 25.1019 24.1019C25.1423 23.7557 25.1771 23.5595 25.2062 23.5132C25.2791 23.3976 25.4265 23.3046 25.6485 23.2344C25.8704 23.1642 26.1031 23.1412 26.3465 23.1652C26.5856 23.1704 26.7642 23.2588 26.8824 23.4302C27.1411 23.6094 27.3313 23.9231 27.4528 24.3713C27.5932 24.8152 27.6282 25.3624 27.5577 26.0128C27.4736 26.4284 27.4045 26.9099 27.3503 27.4575C27.2962 28.0051 27.2523 28.5106 27.2187 28.9742C27.1997 29.4147 27.1979 29.7125 27.2133 29.8676L26.1888 30.0704C26.4408 29.696 26.6719 29.3164 26.882 28.9317C27.0878 28.5282 27.2353 28.2171 27.3244 27.9987C27.5465 27.4923 27.7386 27.072 27.9007 26.7379C28.0773 26.3806 28.3071 25.9517 28.5901 25.4514C28.8687 24.9322 29.2056 24.5385 29.6008 24.2704C29.9916 23.9835 30.2907 23.8164 30.4981 23.7694C30.93 23.7507 31.3469 23.884 31.7487 24.1695C32.1651 24.4319 32.488 24.8939 32.7175 25.5555C32.7774 25.8195 32.8197 26.137 32.8444 26.508C32.888 26.8748 32.9098 27.0582 32.9098 27.0582C32.9098 27.0582 33.0179 26.8354 33.2339 26.3899C33.4689 25.9401 33.7968 25.4196 34.2178 24.8284C34.5161 24.4832 34.8306 24.2532 35.1615 24.1385C35.488 24.0049 35.8153 24.0495 36.1435 24.2724C36.6936 24.4252 37.1566 24.8058 37.5326 25.4143C37.9086 26.0229 38.1531 26.7505 38.2659 27.5972C38.3206 28.1002 38.4105 28.4961 38.5355 28.785C38.6751 29.0506 38.8083 29.2881 38.935 29.4972C39.2571 29.7809 39.3633 30.074 39.2535 30.3765C39.1395 30.6601 39.0164 30.8169 38.8845 30.8468C38.6959 30.8896 38.4046 30.9161 38.0104 30.9263C37.6162 30.9364 37.2374 30.8836 36.8741 30.7678C36.5297 30.6477 36.3211 30.4274 36.2483 30.1069L35.8504 28.3535C35.7563 27.9387 35.669 27.6413 35.5885 27.4614C35.5225 27.2582 35.4455 27.137 35.3572 27.0975C35.1241 27.0315 34.8889 27.1741 34.6514 27.5253C34.4139 27.8766 34.176 28.3568 33.9375 28.966C33.7137 29.5521 33.4765 30.2106 33.2261 30.9415C33.0005 31.6073 32.7896 32.0318 32.5933 32.2151C32.3927 32.3796 32.1737 32.4194 31.9364 32.3345C31.4917 32.2966 31.1871 32.1774 31.0226 31.9768C30.8727 31.7531 30.8012 31.4819 30.8082 31.1631C30.8297 30.8212 30.8487 30.3807 30.8652 29.8417C30.9005 29.2985 30.9306 28.7762 30.9556 28.2749C30.9763 27.7547 30.9799 27.3772 30.9663 27.1424C30.8566 27.0087 30.7139 26.9915 30.5382 27.0909C30.3771 27.1671 30.2172 27.2926 30.0587 27.4673C29.8666 27.6695 29.6579 27.8854 29.4325 28.115C29.2259 28.3403 29.0149 28.7648 28.7997 29.3886C28.6547 29.7982 28.49 30.2519 28.3056 30.7497C28.117 31.2287 27.9386 31.6657 27.7705 32.0607C27.6213 32.4514 27.4862 32.7298 27.3653 32.896C27.3104 33.2654 27.237 33.51 27.1453 33.6299C27.0493 33.731 26.8869 33.758 26.6581 33.7108ZM42.2843 36.6472C42.0375 36.7826 41.7491 36.7786 41.4192 36.6354C41.1082 36.4879 40.8366 36.2522 40.6045 35.9282C40.3912 35.5999 40.3078 35.2323 40.3542 34.8252C40.3662 34.7035 40.38 34.5022 40.3955 34.2211C40.4153 33.9589 40.4133 33.7314 40.3893 33.5385C40.3782 33.4023 40.3834 33.1632 40.405 32.8213C40.4308 32.4982 40.466 32.173 40.5107 31.8457C40.5742 31.5141 40.6287 31.2737 40.6741 31.1247C40.7445 30.9104 40.7707 30.6765 40.7528 30.4228C40.7537 30.1649 40.7392 29.97 40.7092 29.838C40.717 29.6974 40.7299 29.5359 40.748 29.3534C40.7849 29.1666 40.8303 29.0175 40.8844 28.9061C40.8878 28.7467 40.908 28.5736 40.9449 28.3868C40.9776 28.1812 41.026 28.0017 41.0903 27.8483C41.0981 27.7078 41.09 27.5411 41.0661 27.3483C41.061 27.1512 41.094 27.0346 41.1652 26.9987C41.1669 26.919 41.1592 26.8414 41.1421 26.766C41.1438 26.6863 41.158 26.574 41.1846 26.4292C41.1753 26.2133 41.1916 25.8924 41.2338 25.4665C41.2759 25.0406 41.3377 24.5706 41.4193 24.0565C41.5026 23.4626 41.537 22.9592 41.5226 22.5461C41.5039 22.1142 41.3403 21.8738 41.0318 21.8249C40.8639 21.7837 40.7311 21.6354 40.6335 21.38C40.5316 21.1058 40.4863 20.8187 40.4975 20.5187C40.5087 20.2188 40.5833 20.0235 40.7213 19.9327C40.8739 19.8187 41.0706 19.7245 41.3114 19.6501C41.5522 19.5756 41.7691 19.5264 41.9619 19.5024C42.1693 19.4554 42.2678 19.4528 42.2575 19.4948C42.2789 19.5891 42.3389 19.635 42.4374 19.6324C42.4623 19.5673 42.557 19.635 42.7214 19.8356C42.9005 20.013 43.0765 20.2209 43.2496 20.4592C43.4226 20.6975 43.5198 20.8637 43.5412 20.958C43.5206 21.042 43.5124 21.0934 43.5167 21.1123C43.5167 21.1123 43.5544 21.1037 43.6298 21.0866C43.6298 21.0866 43.7228 21.0159 43.9088 20.8746C44.0906 20.7144 44.2796 20.5426 44.4759 20.3593C44.6867 20.1529 44.8213 20.0034 44.8796 19.9108C44.8796 19.9108 44.9225 19.8813 45.0082 19.8222C45.1085 19.7399 45.1878 19.6526 45.2461 19.56C45.5889 19.3236 45.9879 19.2033 46.4429 19.1992C46.9168 19.1908 47.3135 19.2792 47.6331 19.4644C48.1171 19.8501 48.5326 20.3704 48.8794 21.0252C49.2452 21.6758 49.3709 22.3609 49.2567 23.0807C49.2404 23.1835 49.1919 23.363 49.1113 23.6192C49.0452 23.8523 48.977 24.0759 48.9067 24.2902C48.8321 24.4855 48.7948 24.5832 48.7948 24.5832C48.5152 25.3604 48.1628 26.0351 47.7376 26.6074C47.3312 27.1754 46.8649 27.6976 46.3385 28.1738C46.18 28.3486 45.9438 28.5311 45.6301 28.7212C45.3353 28.9071 45.0529 29.0604 44.7829 29.1811C44.5318 29.2976 44.3737 29.3434 44.3085 29.3185C44.0669 29.2147 43.8056 28.937 43.5247 28.4853C43.4861 28.7518 43.4474 29.0183 43.4088 29.2848C43.3847 29.5282 43.3718 29.6897 43.3701 29.7694C43.3812 29.9056 43.388 30.0231 43.3905 30.1216C43.3888 30.2013 43.3566 30.278 43.294 30.3517C43.294 30.3517 43.2932 30.3915 43.2914 30.4712C43.2897 30.5509 43.2494 30.679 43.1705 30.8555C43.106 31.445 43.0515 31.9035 43.0068 32.2308C42.9664 32.577 42.9299 32.8529 42.8973 33.0586C42.8878 33.2788 42.8804 33.5085 42.8752 33.7476C42.953 34.2652 42.9524 34.8303 42.8734 35.443C42.8132 36.0514 42.6169 36.4528 42.2843 36.6472ZM44.4122 26.4997C44.4791 26.4448 44.5961 26.3489 44.7633 26.2118C44.9493 26.0705 45.1498 25.906 45.365 25.7184C45.5758 25.512 45.77 25.3192 45.9474 25.1402C46.1395 24.938 46.2698 24.7697 46.3384 24.6351C46.4507 24.4312 46.5056 24.28 46.503 24.1814C46.4962 24.064 46.5027 23.8742 46.5225 23.612C46.5448 23.4483 46.5723 23.2637 46.6049 23.058C46.6376 22.8524 46.6629 22.6583 46.681 22.4758C46.7221 22.3078 46.7162 22.1506 46.6631 22.004C46.6246 21.8343 46.5359 21.7058 46.3971 21.6183C46.3175 21.6166 46.1448 21.6855 45.8791 21.8251C45.6322 21.9604 45.3554 22.1819 45.0485 22.4894C44.7605 22.7927 44.496 23.1996 44.255 23.7103C43.9746 24.3092 43.8155 24.831 43.7776 25.2758C43.7355 25.7016 43.78 26.0286 43.911 26.2566C44.0378 26.4657 44.2049 26.5467 44.4122 26.4997ZM61.1079 26.9631C60.4764 26.8884 59.9121 26.6298 59.4153 26.1875C58.933 25.722 58.5501 25.2142 58.2666 24.6639C58.2083 24.7565 58.15 24.849 58.0917 24.9415C58.048 25.0109 57.9897 25.1034 57.9168 25.2191C57.7024 25.585 57.4431 25.9709 57.1388 26.377C56.8344 26.7831 56.51 27.1442 56.1654 27.4603C55.8165 27.7576 55.4398 27.9323 55.0353 27.9844C54.6866 27.8455 54.3494 27.7138 54.0238 27.5895C53.7128 27.442 53.4412 27.2062 53.2091 26.8822C53.2048 26.8634 53.1933 26.8561 53.1744 26.8604C53.1744 26.8604 53.1723 26.851 53.168 26.8321C52.9188 26.4327 52.7179 26.0719 52.5655 25.7496C52.4276 25.4042 52.3395 24.9286 52.3011 24.3227C52.2816 23.7126 52.3102 22.8338 52.3868 21.6864C52.4161 21.2039 52.4548 20.7194 52.5029 20.2326C52.5468 19.7271 52.6014 19.2686 52.6666 18.8573C52.7276 18.4271 52.7941 18.0651 52.8662 17.7712C52.9383 17.4773 53.0223 17.2798 53.1183 17.1787C53.2126 17.1573 53.2974 17.1381 53.3728 17.1209C53.444 17.085 53.5173 17.0584 53.5927 17.0413C53.7624 17.0028 53.9911 17.05 54.279 17.1829C54.4513 17.243 54.6162 17.3146 54.7738 17.3977C54.9503 17.4766 55.0681 17.5589 55.1272 17.6447C55.2874 17.8264 55.3439 18.2497 55.2965 18.9147C55.2492 19.5796 55.177 20.3097 55.0799 21.1049C54.9974 21.877 54.9316 22.6354 54.8825 23.38C54.848 24.1016 54.9113 24.6423 55.0723 25.0023C55.2668 24.8986 55.4404 24.7899 55.5929 24.6759C55.7601 24.5389 55.9041 24.3873 56.025 24.221C56.2942 23.9221 56.5265 23.5918 56.722 23.2302C56.9175 22.8687 57.0731 22.5062 57.1889 22.1429C57.3193 21.7565 57.409 21.409 57.4579 21.1005C57.5292 20.6284 57.5944 20.2171 57.6537 19.8666C57.7086 19.4973 57.7481 19.1909 57.7722 18.9476C57.792 18.6854 57.7921 18.4673 57.7724 18.2933C57.7716 18.1151 57.7562 17.96 57.7263 17.828C57.6304 17.4929 57.6125 17.2392 57.6725 17.067C57.7471 16.8717 57.916 16.6549 58.1792 16.4168C58.33 16.3825 58.483 16.3577 58.6381 16.3423C58.7889 16.3081 58.9325 16.2855 59.0687 16.2744C59.2495 16.3721 59.4346 16.4887 59.6239 16.6242C59.8278 16.7365 60.0223 16.8509 60.2074 16.9675C60.4566 17.367 60.5554 17.8897 60.5038 18.5358C60.4668 19.1588 60.4173 19.8143 60.3554 20.5024C60.2977 21.2094 60.2778 21.9078 60.2956 22.5976C60.328 23.2643 60.5506 23.8086 60.9635 24.2303C61.2164 24.0341 61.4461 23.8234 61.6527 23.5981C61.855 23.3539 62.0573 23.1098 62.2596 22.8656C62.4619 22.6214 62.6685 22.3961 62.8794 22.1897C63.2238 22.3098 63.5344 22.5862 63.811 23.0191C64.0877 23.4519 64.2645 23.838 64.3415 24.1774C64.3021 24.2656 64.2511 24.3466 64.1885 24.4203C64.1448 24.4897 64.0916 24.5612 64.0291 24.6349C63.9424 24.9519 63.7353 25.3062 63.4079 25.6977C63.0761 26.0704 62.7011 26.3835 62.2829 26.637C61.8646 26.8905 61.4729 26.9992 61.1079 26.9631ZM66.6681 24.9578C66.4496 24.8686 66.2804 24.7782 66.1605 24.6864C66.0405 24.5947 65.9665 24.443 65.9382 24.2313C65.9118 23.94 65.9041 23.6443 65.9154 23.3444C65.9266 23.0445 65.9546 22.7308 65.9992 22.4035C66.0147 22.1224 66.0457 21.7784 66.0921 21.3714C66.1531 20.9412 66.2068 20.5226 66.2532 20.1156C66.3683 19.1378 66.4963 18.2167 66.6371 17.3521C66.7736 16.4686 66.9449 15.3889 67.151 14.113C67.1982 13.8842 67.2466 13.7047 67.2964 13.5745C67.3418 13.4254 67.4083 13.2814 67.4957 13.1426C67.5369 12.9747 67.6685 12.8556 67.8905 12.7854C68.1313 12.7109 68.3807 12.6742 68.6386 12.6751C68.8966 12.6761 69.0855 12.7224 69.2054 12.8141C69.4051 12.9076 69.5546 13.0422 69.6539 13.2179C69.749 13.3747 69.8012 13.5611 69.8106 13.7771C69.8277 13.8525 69.8135 13.9647 69.768 14.1138C69.7183 14.2441 69.6686 14.3743 69.6188 14.5045C69.5733 14.6536 69.5416 14.8194 69.5235 15.002C69.5012 15.1656 69.4737 15.3503 69.4411 15.556C69.3724 16.1267 69.2749 16.6146 69.1489 17.0199C69.0416 17.4209 68.9451 17.8691 68.8592 18.3644C68.8437 18.6454 68.8325 18.9454 68.8255 19.2641C68.8186 19.5829 68.8103 19.8524 68.8008 20.0727C68.7125 20.4694 68.6489 20.801 68.6103 21.0675C68.5674 21.3151 68.5506 21.5469 68.5599 21.7629C68.5734 22.4339 68.5583 23.0222 68.5144 23.5277C68.4663 24.0145 68.3873 24.409 68.2775 24.7115C68.2406 24.8983 68.0786 25.0144 67.7915 25.0597C67.519 25.0819 67.1446 25.0479 66.6681 24.9578ZM74.5428 23.8844C74.2369 23.934 73.9601 23.9373 73.7125 23.8944C73.4648 23.8515 73.1024 23.6958 72.6252 23.4275C72.2088 23.1651 71.7376 22.8359 71.2115 22.4398C70.7043 22.0395 70.1835 21.6224 69.6489 21.1887C69.1331 20.7506 68.6542 20.3438 68.2122 19.9684L69.6062 17.9867C69.9197 18.2327 70.2217 18.4715 70.5121 18.703C70.8214 18.9301 71.0562 19.1346 71.2164 19.3163C71.6815 19.7064 72.0679 20.0548 72.3755 20.3617C72.7019 20.6643 73.0008 20.9335 73.2724 21.1692C73.5397 21.3861 73.8216 21.5799 74.118 21.7505C74.4102 21.9022 74.7756 22.0275 75.2144 22.1262C75.2795 22.151 75.3574 22.2325 75.4482 22.3705C75.5536 22.4853 75.6234 22.6182 75.6576 22.769C75.6524 23.0081 75.5705 23.215 75.4119 23.3898C75.2722 23.5603 74.9825 23.7251 74.5428 23.8844ZM68.7573 19.4878C68.706 19.2615 68.6713 19.0216 68.6534 18.7679C68.6544 18.51 68.7286 18.2255 68.8761 17.9145C68.9215 17.7654 69.0068 17.6172 69.132 17.4698C69.2529 17.3036 69.3142 17.1807 69.3159 17.101C69.3262 17.059 69.4012 16.9527 69.541 16.7823C69.6764 16.5929 69.7973 16.4267 69.9036 16.2836C70.0914 16.0626 70.3322 15.77 70.6263 15.4059C70.9203 15.0418 71.2144 14.6777 71.5084 14.3136C71.8025 13.9495 72.0579 13.6338 72.2748 13.3665C72.4917 13.0992 72.622 12.9309 72.6657 12.8615C72.7386 12.7458 72.8693 12.6666 73.0578 12.6238C73.2421 12.5621 73.4276 12.5498 73.6144 12.5867C73.8535 12.5919 74.0553 12.6948 74.2198 12.8954C74.38 13.0771 74.5016 13.3072 74.5846 13.5857C74.6651 13.7657 74.6295 14.0018 74.4777 14.294C74.3216 14.5673 74.0662 14.883 73.7113 15.2411C73.5819 15.3696 73.368 15.6064 73.0697 15.9517C72.7713 16.297 72.5472 16.5758 72.3971 16.7883C72.2823 16.8937 72.0903 17.0958 71.8211 17.3948C71.5708 17.6895 71.3779 17.9316 71.2424 18.1209C71.113 18.2494 70.9368 18.4777 70.7139 18.8058C70.5056 19.1109 70.317 19.3717 70.1481 19.5885C69.7752 20.1291 69.5214 20.3651 69.3869 20.2965C69.2713 20.2236 69.0614 19.9541 68.7573 19.4878ZM81.794 22.2982C81.2687 22.5166 80.7112 22.5935 80.1216 22.5291C79.5509 22.4604 79.0394 22.2592 78.5871 21.9258C78.1493 21.5691 77.8619 21.0892 77.725 20.4858C77.5401 19.9331 77.4353 19.253 77.4107 18.4458C77.4007 17.6154 77.4661 16.7679 77.6069 15.9033C77.7665 15.0345 78.0012 14.2774 78.3107 13.6322C78.5851 13.0942 78.868 12.5938 79.1595 12.1312C79.451 11.6685 79.7327 11.337 80.0044 11.1365C80.2426 10.9635 80.5439 10.8059 80.9081 10.6638C81.287 10.4985 81.5518 10.3988 81.7026 10.3645C82.0214 10.3715 82.3792 10.4192 82.7759 10.5075C83.1915 10.5917 83.4249 10.7468 83.4763 10.9731C83.4763 10.9731 83.5016 10.9971 83.5521 11.0451C83.6172 11.07 83.6498 11.0824 83.6498 11.0824C83.7629 11.0567 83.9175 11.1703 84.1137 11.4232C84.3244 11.6529 84.5082 11.9383 84.6649 12.2794C84.8173 12.6017 84.8605 12.8793 84.7944 13.1124C84.8003 13.4877 84.7287 13.8708 84.5794 14.2615C84.449 14.6479 84.3084 14.8582 84.1576 14.8925C84.0822 14.9096 84.0089 14.9361 83.9378 14.9721C83.8812 14.9849 83.8636 15.0385 83.885 15.1328C83.9064 15.227 83.8134 15.2977 83.606 15.3448C83.4175 15.3876 83.211 15.3948 82.9865 15.3664C82.762 15.3381 82.6043 15.2549 82.5135 15.1169C82.4921 15.0226 82.4832 14.8958 82.4866 14.7364C82.4901 14.577 82.4889 14.3097 82.483 13.9343C82.4763 13.3808 82.4066 13.0298 82.2738 12.8815C82.1368 12.7144 81.8968 12.749 81.554 12.9854C81.1425 13.3563 80.8266 13.7551 80.6063 14.1818C80.3816 14.5897 80.2174 15.1325 80.1135 15.8103C80.0284 16.4838 79.9707 17.4089 79.9403 18.5854C79.9256 19.0447 79.9838 19.3884 80.1148 19.6164C80.2647 19.8401 80.3701 19.9549 80.4309 19.9609C80.712 19.9765 80.9991 19.9311 81.2922 19.825C81.5999 19.6957 81.8446 19.5509 82.0263 19.3907C82.2937 19.1714 82.5213 18.9513 82.7091 18.7302C82.9114 18.4861 83.1304 18.2282 83.3661 17.9566C83.4476 17.8787 83.5089 17.7557 83.5501 17.5878C83.587 17.401 83.6723 17.2528 83.806 17.1431C83.9055 16.8826 84.0683 16.7267 84.2946 16.6754C84.5354 16.6009 84.769 16.538 84.9952 16.4866C85.1546 16.4901 85.3362 16.548 85.5402 16.6603C85.7441 16.7727 85.9009 16.8957 86.0105 17.0294C86.1347 17.14 86.1467 17.2364 86.0464 17.3186C85.971 17.3357 85.9303 17.3747 85.9242 17.4356C85.9328 17.4733 85.9371 17.4921 85.9371 17.4921C85.9919 17.559 85.9456 17.7479 85.7981 18.0589C85.6695 18.3657 85.4885 18.7041 85.2553 19.0742C85.0221 19.4444 84.7898 19.7746 84.5583 20.0651C84.3414 20.3324 84.1764 20.4788 84.0633 20.5045C83.8748 20.5473 83.7933 20.6253 83.819 20.7384C83.8276 20.7761 83.7076 20.9025 83.459 21.1175C83.2293 21.3282 82.9524 21.5496 82.6284 21.7818C82.3233 22.0096 82.0451 22.1818 81.794 22.2982ZM90.35 19.9997C90.266 19.9791 90.1105 19.9053 89.8834 19.7784C89.6752 19.6472 89.4628 19.4972 89.246 19.3283C89.025 19.1406 88.8733 18.9966 88.7911 18.8963C88.7131 18.8149 88.6746 18.6452 88.6756 18.3872C88.6954 18.125 88.743 17.9854 88.8184 17.9682C88.8835 17.9931 88.9439 17.91 88.9997 17.7189C89.0555 17.5279 89.1091 17.3273 89.1606 17.1174C89.2078 16.8886 89.2271 16.7554 89.2185 16.7177C89.2203 16.638 89.2546 16.5707 89.3214 16.5159C89.4029 16.4379 89.4749 16.3621 89.5375 16.2884C89.5975 16.1162 89.6858 15.9376 89.8024 15.7525C89.9336 15.5443 90.0335 15.373 90.1021 15.2384C90.2101 15.0157 90.4193 14.6708 90.7297 14.2039C91.04 13.737 91.3388 13.2627 91.626 12.7812C91.9236 12.2577 92.1868 11.8015 92.4157 11.4125C92.6403 11.0047 92.7471 10.7327 92.736 10.5964C92.736 10.5964 92.7579 10.5617 92.8016 10.4923C92.8599 10.3998 92.9298 10.3145 93.0112 10.2366C93.0926 10.1586 93.1938 10.0365 93.3147 9.87027C93.4544 9.69977 93.568 9.54517 93.6555 9.40637C93.6589 9.24697 93.7053 9.05807 93.7945 8.83957C93.8982 8.59797 94.023 8.36147 94.1687 8.13017C94.2682 7.86967 94.354 7.59247 94.4261 7.29857C94.4939 6.98577 94.5316 6.75917 94.5394 6.61857C94.5489 6.39837 94.5022 6.28007 94.3994 6.26377C94.2923 6.22867 94.0164 6.19207 93.5716 6.15427C93.0849 6.10617 92.6543 6.17417 92.2797 6.35827C91.9052 6.54237 91.4415 6.94497 90.8886 7.56607C90.6374 7.68257 90.4095 7.81357 90.2046 7.95917C90.0186 8.10057 89.848 8.17887 89.6929 8.19427C89.609 8.17367 89.5049 8.10807 89.3806 7.99757C89.2564 7.88697 89.1249 7.78797 88.9861 7.70047L88.4273 6.54857L89.1949 5.86887C89.8567 5.20317 90.5086 4.66867 91.1505 4.26527C91.8071 3.83872 92.4185 3.65038 92.985 3.70026C93.1924 3.65319 93.3873 3.63869 93.5698 3.65674C93.7481 3.65594 93.8372 3.65554 93.8372 3.65554C93.9838 3.60245 94.2177 3.62866 94.539 3.73416C94.8792 3.83539 95.2206 3.98587 95.5633 4.18567C95.9249 4.38117 96.1925 4.59807 96.3655 4.83637C96.7695 5.22037 97.0065 5.74147 97.0765 6.39957C97.1465 7.05777 97.0255 7.78907 96.7125 8.59367C96.6435 8.72817 96.4895 9.01087 96.2505 9.44187C96.0115 9.87287 95.7358 10.3617 95.4237 10.9083C95.1262 11.4318 94.8462 11.9017 94.5839 12.3181C94.3404 12.7302 94.1822 12.9941 94.1093 13.1098C93.9902 13.1963 93.8046 13.4268 93.5525 13.8012C93.3193 14.1713 93.0664 14.5855 92.7938 15.0439C92.5357 15.4791 92.3162 15.866 92.1353 16.2044C91.9689 16.5197 91.9046 16.6731 91.9423 16.6645C91.9406 16.7442 92.0349 16.7228 92.2251 16.6004C92.43 16.4547 92.6108 16.3344 92.7677 16.2393C93.0291 16.0809 93.3398 15.9211 93.6997 15.7602C94.0743 15.576 94.4531 15.4108 94.8362 15.2643C95.2193 15.1179 95.5501 15.0032 95.8286 14.9202C96.1265 14.8329 96.3095 14.8111 96.3785 14.8548C96.4375 14.9405 96.4745 14.9718 96.4895 14.9487C96.5185 14.9024 96.5335 14.8793 96.5335 14.8793C96.5405 14.7387 96.7675 14.6475 97.2145 14.6057C97.6795 14.5595 98.1045 14.5524 98.4885 14.5842C98.7085 14.5937 98.8855 14.6328 99.0205 14.7014C99.1735 14.7657 99.2585 14.8355 99.2765 14.911C99.2765 14.911 99.3055 14.9538 99.3645 15.0395C99.4385 15.1021 99.5465 15.1865 99.6895 15.2929C100.048 15.4695 100.108 15.7334 99.8695 16.0847C99.6505 16.4317 99.1495 16.6248 98.3655 16.664C97.8755 16.7752 97.4765 16.8955 97.1685 17.0248C97.1015 17.0796 96.9455 17.1348 96.7005 17.1905C96.4555 17.2461 96.2225 17.309 96.0001 17.3792C95.6522 17.4185 95.3171 17.5144 94.9948 17.6668C94.6683 17.8004 94.2865 17.9961 93.8494 18.2539C93.6925 18.349 93.4478 18.4937 93.1153 18.6881C92.7827 18.8825 92.4219 19.0834 92.0328 19.2906C91.6437 19.4979 91.2858 19.6683 90.9593 19.8019C90.6516 19.9312 90.4485 19.9971 90.35 19.9997ZM107.99 16.5912C107.915 16.6083 107.696 16.5191 107.335 16.3236C106.992 16.1238 106.761 15.76 106.641 15.2321C106.527 14.6433 106.482 14.0092 106.507 13.3296C106.545 12.627 106.592 12.0018 106.646 11.4543C106.682 11.0892 106.712 10.785 106.736 10.5417C106.779 10.294 106.794 10.1419 106.781 10.0854C106.763 10.0896 106.663 10.132 106.483 10.2125C106.322 10.2887 106.116 10.3851 105.865 10.5015C104.984 10.8997 104.298 11.1545 103.808 11.2657C103.337 11.3727 102.867 11.1819 102.399 10.6933C102.26 10.6058 102.063 10.4327 101.806 10.1738C101.549 9.91487 101.342 9.61487 101.185 9.27377C101.047 8.92837 101.073 8.60537 101.262 8.30457C101.344 7.79047 101.418 7.41687 101.484 7.18377C101.55 6.95077 101.591 6.78277 101.607 6.67997C101.643 6.57287 101.649 6.47217 101.628 6.37787C101.638 6.33587 101.654 6.27297 101.674 6.18897C101.695 6.10497 101.725 6.01887 101.764 5.93067C101.87 5.60927 102.022 5.18817 102.221 4.66717C102.439 4.14197 102.666 3.61461 102.903 3.0851C103.154 2.53246 103.381 2.04493 103.582 1.62252C103.779 1.18126 103.931 0.889098 104.037 0.746018C104.138 0.663788 104.316 0.534018 104.574 0.356708C104.849 0.175128 105.053 0.0693581 105.185 0.0394081C105.336 0.00517806 105.501 0.0767779 105.68 0.254218C105.874 0.408528 106.041 0.578688 106.183 0.764678C106.324 0.950678 106.403 1.08139 106.42 1.15681C106.42 1.15681 106.415 1.1778 106.405 1.21979C106.395 1.26177 106.372 1.33632 106.337 1.44343C106.287 1.57366 106.208 1.75017 106.1 1.97294C106.011 2.19143 105.869 2.48146 105.673 2.84302C105.507 3.15832 105.312 3.60901 105.088 4.19507C104.86 4.76227 104.64 5.36727 104.429 6.00987C104.233 6.62937 104.071 7.18157 103.943 7.66657C103.815 8.15157 103.768 8.46947 103.802 8.62037C103.824 8.71457 103.869 8.78357 103.938 8.82727C104.022 8.84787 104.159 8.83677 104.347 8.79407C104.584 8.70067 104.792 8.61377 104.972 8.53327C105.171 8.44847 105.351 8.36797 105.512 8.29177C105.711 8.20697 105.881 8.12867 106.024 8.05677C106.162 7.96597 106.292 7.88667 106.416 7.81907C106.554 7.72827 106.675 7.65117 106.78 7.58777C106.899 7.50127 106.997 7.40957 107.074 7.31277C107.257 7.07287 107.369 6.77987 107.41 6.43367C107.45 6.08747 107.531 5.61317 107.652 5.01087C107.717 4.59947 107.791 4.22587 107.873 3.89003C107.97 3.531 108.055 3.20453 108.127 2.91063C108.401 1.93638 108.654 1.21492 108.885 0.746248C109.111 0.258718 109.243 0.010678 109.281 0.00211797C109.337 -0.010712 109.486 0.0347477 109.728 0.138508C109.97 0.242278 110.204 0.357608 110.431 0.484508C110.612 0.582248 110.762 0.676988 110.882 0.768718C110.998 0.841598 111.06 0.896888 111.068 0.934598C111.12 1.16084 111.117 1.40935 111.059 1.68013C111.016 1.92777 110.935 2.22381 110.815 2.56826C110.695 2.91271 110.566 3.34842 110.427 3.8754C110.269 4.48637 110.129 5.09297 110.008 5.69537C109.883 6.27897 109.767 6.86037 109.66 7.43957C109.549 7.99997 109.455 8.54667 109.378 9.07967C109.301 9.61267 109.227 10.1153 109.155 10.5874C108.993 11.7939 108.896 12.6782 108.865 13.2404C108.834 13.8025 108.842 14.1873 108.889 14.3947C108.951 14.5789 109.025 14.7306 109.112 14.8498C109.167 15.0949 109.145 15.3477 109.046 15.6081C108.942 15.8498 108.792 16.0622 108.596 16.2456C108.399 16.4289 108.198 16.5441 107.99 16.5912Z" fill="#5E8BDC"></path></svg> 